<svg xmlns="http://www.w3.org/2000/svg" width="236.377" height="267.557">
    <defs>
        <clipPath id="clip-path">
            <path id="패스_2868" data-name="패스 2868" d="M-121.326 276.993c12.323 3.1 15.974-10.157 15.974-10.157a35.106 35.106 0 0 1-23.538-5.788s-4.758 12.842 7.565 15.945" transform="translate(129.794 -261.048)" style="fill:none"/>
        </clipPath>
        <style>
            .cls-2{fill:#8cc7ea}.cls-3{fill:#36607b}.cls-5{fill:#ffbfc5}.cls-8{fill:#36637f}.cls-9{fill:#fff}
        </style>
    </defs>
    <g id="그룹_515" data-name="그룹 515" transform="translate(181.54 -194.248)">
        <g id="그룹_468" data-name="그룹 468" transform="translate(-70.341 399.945)">
            <g id="그룹_466" data-name="그룹 466" transform="translate(1.666 1.664)">
                <path id="패스_2848" data-name="패스 2848" class="cls-2" d="M-56.008 334.9c-4.782 0-8.711-2.945-10.436-4.484a37.138 37.138 0 0 1-16.864 3.97c-16.226 0-29.167-9.7-29.709-10.113a5.244 5.244 0 0 1-1.942-3.235 3.591 3.591 0 0 1 .8-2.691 3.852 3.852 0 0 1 3.054-1.484 4.967 4.967 0 0 1 2.354.627 1.9 1.9 0 0 1 .181.124c.129.1 13.027 9.968 29.451 9.968a39.683 39.683 0 0 0 11.941-1.821 14.425 14.425 0 0 1 13.383-9.23c3.568 0 7.575 1.173 11.913 3.485a1.663 1.663 0 0 1 .87 1.657c-.032.285-.9 7.037-9.31 11.723a11.592 11.592 0 0 1-5.689 1.506z" transform="translate(114.982 -316.532)"/>
            </g>
            <g id="그룹_467" data-name="그룹 467">
                <path id="패스_2849" data-name="패스 2849" class="cls-3" d="M-53.107 318.88c2.99 0 6.657.9 11.129 3.288 0 0-.7 6.133-8.465 10.456a9.888 9.888 0 0 1-4.88 1.3c-5.677 0-10.147-4.85-10.147-4.85a35.417 35.417 0 0 1-17.156 4.334c-15.852 0-28.7-9.772-28.7-9.772s-2.255-1.792-.843-3.564a2.156 2.156 0 0 1 1.752-.858 3.342 3.342 0 0 1 1.514.4s13.242 10.317 30.472 10.317a41.169 41.169 0 0 0 13.237-2.157s2.71-8.892 12.087-8.892m0-3.329a16.024 16.024 0 0 0-14.6 9.523 38.046 38.046 0 0 1-10.724 1.524c-15.818 0-28.307-9.521-28.431-9.618a3.471 3.471 0 0 0-.363-.244 6.612 6.612 0 0 0-3.193-.856 5.483 5.483 0 0 0-4.353 2.108 5.235 5.235 0 0 0-1.16 3.919 6.976 6.976 0 0 0 2.533 4.331c.617.47 13.99 10.495 30.771 10.495A38.79 38.79 0 0 0-66 333.068c2.187 1.75 6.061 4.182 10.676 4.182a13.246 13.246 0 0 0 6.5-1.716c9.154-5.1 10.117-12.669 10.152-12.988a3.324 3.324 0 0 0-1.742-3.315c-4.58-2.442-8.85-3.68-12.694-3.68z" transform="translate(115.964 -315.551)"/>
            </g>
        </g>
        <g id="그룹_469" data-name="그룹 469" transform="translate(-19.776 403.053)">
            <path id="패스_2850" data-name="패스 2850" d="m-85.669 325.617-.476 2.421s6.971 7.848 14.822 3.476 8.745-10.671 8.745-10.671c-18.709-9.968-23.091 4.774-23.091 4.774z" transform="translate(86.145 -317.384)" style="fill:#9ee630"/>
        </g>
        <g id="그룹_470" data-name="그룹 470" transform="translate(-20.485 407.783)">
            <path id="패스_2851" data-name="패스 2851" class="cls-3" d="M-83.311 326.81a5.131 5.131 0 0 1-2.678-.782 1.5 1.5 0 0 1-.259-2.1 1.492 1.492 0 0 1 2.072-.281c1.384.719 10.709-.407 14.329-3.169a1.493 1.493 0 0 1 2.094.281 1.5 1.5 0 0 1-.28 2.1c-3.037 2.316-10.814 4.3-15.279 3.953m-.846-3.147.008.007-.008-.007" transform="translate(86.563 -320.173)"/>
        </g>
        <g id="그룹_471" data-name="그룹 471" transform="translate(-179.814 305.439)">
            <path id="패스_2852" data-name="패스 2852" class="cls-2" d="M-124.282 290.847s-17 3.283-21.246-14.485c0 0 0-9.076-4.053-9.269 0 0-10.042-11.974-23.367-2.9s-3.09 22.207 1.543 20.469c0 0 1.547 5.021 5.023 5.214 0 0 3.863 17.381 16.606 23.947a38.912 38.912 0 0 0 24.139 4.053s-19.891 39.685 1.547 91.344c0 0 9.077 5.313 17.768 4.541s17.38-5.023 17.38-5.023l2.9-16.028s4.056 6.759 8.886 9.076c0 0 8.5 1.16 15.833-2.51s16.8-13.9 16.8-13.9l-1.948-13.286s14.042 1.328 18.548-16.425 1.324-49.02-15.633-69.159z" transform="translate(181.204 -259.139)"/>
            <path id="패스_2853" data-name="패스 2853" class="cls-3" d="M-107.414 416.186c-8.452 0-16.472-4.633-16.834-4.845a1.659 1.659 0 0 1-.7-.8c-18.27-44.023-6.693-79.942-2.7-89.948a41.756 41.756 0 0 1-22.211-4.606c-11.558-5.957-16.1-19.962-17.2-23.989-2.511-.768-4.017-3.271-4.74-4.843-2.572-.112-5.506-2.327-7.256-5.7-2.588-4.992-2.411-12.33 5.847-17.954 12.747-8.684 22.88.41 25.119 2.7 4.526.994 4.877 8.96 4.9 10.631 3.885 15.762 18.638 13.169 19.27 13.054a1.928 1.928 0 0 1 .222-.025l80.722-4.341a1.67 1.67 0 0 1 1.363.59c16.918 20.091 20.856 51.391 15.972 70.639-2.488 9.806-7.833 14.1-11.877 15.972a18.9 18.9 0 0 1-6.362 1.679l1.675 11.411a1.67 1.67 0 0 1-.426 1.372c-.4.426-9.754 10.5-17.279 14.263-7.709 3.854-16.433 2.722-16.8 2.671a1.64 1.64 0 0 1-.5-.149c-2.9-1.389-5.481-4.143-7.236-6.367l-2.187 12.116a1.665 1.665 0 0 1-.907 1.2c-.366.18-9.07 4.394-17.963 5.184-.632.059-1.273.085-1.912.085zm-14.678-7.456c1.923 1.024 9.345 4.665 16.3 4.058 6.834-.607 13.788-3.5 16.043-4.512L-87 393.1a1.662 1.662 0 0 1 1.336-1.341 1.665 1.665 0 0 1 1.728.78c.037.063 3.724 6.13 7.938 8.314 1.424.144 8.523.665 14.61-2.379 6.013-3 13.7-10.795 15.782-12.972l-1.831-12.487a1.658 1.658 0 0 1 .437-1.39 1.683 1.683 0 0 1 1.363-.512c.509.046 12.7.9 16.779-15.177 4.69-18.494.421-48.445-14.768-67.042l-79.794 4.29c-1.7.268-18.685 2.471-23.043-15.753a1.661 1.661 0 0 1-.046-.387c-.005-3.061-.887-7.532-2.469-7.609a1.663 1.663 0 0 1-1.2-.592c-.371-.438-9.267-10.683-21.154-2.591-8.128 5.537-5.7 11.865-4.765 13.671 1.479 2.851 3.859 4.205 4.785 3.865a1.669 1.669 0 0 1 1.319.064 1.67 1.67 0 0 1 .856 1c.319 1.012 1.652 3.937 3.524 4.043a1.666 1.666 0 0 1 1.533 1.3c.037.166 3.861 16.708 15.745 22.831a37.688 37.688 0 0 0 23.021 3.907 1.661 1.661 0 0 1 1.667.605 1.663 1.663 0 0 1 .176 1.765c-.049.1-4.913 9.969-7.125 25.931-2.022 14.609-2.176 37.442 8.504 63.495z" transform="translate(180.522 -259.819)"/>
        </g>
        <g id="그룹_472" data-name="그룹 472" transform="translate(-155.888 313.148)">
            <path id="패스_2854" data-name="패스 2854" class="cls-2" d="M-161.535 265.347s-5.452.309-3.454 5.994c1.321 3.759 7.032 2.087 7.032 2.087" transform="translate(167.097 -263.682)"/>
            <path id="패스_2855" data-name="패스 2855" class="cls-3" d="M-159.919 276.145c-2.371 0-4.98-.79-5.957-3.568-.805-2.294-.7-4.221.3-5.73a6.293 6.293 0 0 1 4.631-2.479 1.674 1.674 0 0 1 1.755 1.567 1.662 1.662 0 0 1-1.557 1.755 2.989 2.989 0 0 0-2.065 1.016 3.418 3.418 0 0 0 .078 2.767c.765 2.186 4.953 1.051 5 1.039a1.669 1.669 0 0 1 2.06 1.136 1.664 1.664 0 0 1-1.129 2.06 11.428 11.428 0 0 1-3.116.437z" transform="translate(166.413 -264.365)"/>
        </g>
        <g id="그룹_473" data-name="그룹 473" transform="translate(-175.594 316.792)">
            <path id="패스_2856" data-name="패스 2856" class="cls-2" d="M-177.052 278.852s6.554 3.276 12.257-.485 6.993-10.873 6.993-10.873" transform="translate(178.717 -265.833)"/>
            <path id="패스_2857" data-name="패스 2857" class="cls-3" d="M-170.327 282.526a16.5 16.5 0 0 1-6.786-1.5 1.665 1.665 0 0 1-.744-2.233 1.666 1.666 0 0 1 2.228-.746c.058.027 5.8 2.786 10.6-.385 5.016-3.308 6.261-9.72 6.274-9.783a1.666 1.666 0 0 1 1.937-1.335 1.661 1.661 0 0 1 1.338 1.931c-.058.319-1.489 7.86-7.716 11.965a12.758 12.758 0 0 1-7.131 2.086z" transform="translate(178.034 -266.514)"/>
        </g>
        <g id="그룹_474" data-name="그룹 474" transform="translate(-181.54 194.248)">
            <path id="패스_2858" data-name="패스 2858" class="cls-2" d="M-104.924 221.442s-3.241-23.51-33.743-26.106c-27.934-2.377-36.991 35.269-31.015 51.955 0 0-15.482 15.585-9.486 40.411s39 35.1 55.995 9.9" transform="translate(182.23 -193.566)"/>
            <path id="패스_2859" data-name="패스 2859" class="cls-3" d="M-148.046 314.5a31.024 31.024 0 0 1-5.528-.5 33.517 33.517 0 0 1-26.526-25.225c-5.465-22.628 6.123-37.688 9.213-41.2-3.4-10.89-1.321-29.565 8.17-41.9 6.345-8.245 14.953-12.152 24.876-11.311 31.464 2.678 35.217 27.288 35.251 27.535a1.664 1.664 0 0 1-1.421 1.877 1.663 1.663 0 0 1-1.875-1.418c-.129-.907-3.5-22.233-32.236-24.678-11.063-.95-18.038 4.931-21.956 10.023-8.806 11.444-10.91 29.774-7.351 39.712a1.668 1.668 0 0 1-.385 1.733 43.157 43.157 0 0 0-9.05 38.847 30.186 30.186 0 0 0 23.876 22.733c11.39 2.048 22.005-2.822 29.121-13.373a1.667 1.667 0 0 1 2.311-.449 1.666 1.666 0 0 1 .449 2.311c-6.618 9.818-16.414 15.283-26.939 15.283z" transform="translate(181.54 -194.248)"/>
        </g>
        <g id="그룹_475" data-name="그룹 475" transform="translate(-164.509 214.239)">
            <path id="패스_2860" data-name="패스 2860" class="cls-5" d="M-123.113 223.2s-2.255-16.181-21.944-17.142c-18.027-.882-23.6 25.421-19.633 36.8a32.984 32.984 0 0 0-5.835 28.227c4.041 17.018 25.4 23.223 36.178 5.318" transform="translate(171.496 -206.037)"/>
        </g>
        <g id="그룹_476" data-name="그룹 476" transform="translate(-144.867 204.063)">
            <path id="패스_2861" data-name="패스 2861" class="cls-2" d="M-103.467 336.766c50.572 12.131 72.016-5.543 80.31-19.76 6.191-10.614 5.281-19.316 5.281-19.316 15.443-68.011-25.936-88.839-51.565-94.659-23.822-5.408-69.193-4.273-84.478 63.052a67.62 67.62 0 0 0-4.668 16.962c-1.4 10.814-1.319 40.182 55.121 53.721" transform="translate(160.591 -199.336)"/>
            <path id="패스_2862" data-name="패스 2862" class="cls-3" d="M-71.766 343.193a135.185 135.185 0 0 1-31.412-4.107c-53.648-12.869-58.353-40.33-56.385-55.554a68.991 68.991 0 0 1 4.733-17.273c16.394-71.885 65.9-68.814 86.435-64.151 12.462 2.83 29.882 9.393 42.112 24.588 13.971 17.359 17.591 41.522 10.763 71.814.11 1.677.309 10.039-5.523 20.035C-27 328.762-40.9 343.193-71.766 343.193zm-30.635-7.344c51.448 12.343 71.256-6.593 78.483-18.982 5.81-9.961 5.07-18.226 5.062-18.309a1.674 1.674 0 0 1 .034-.536c6.668-29.368 3.286-52.664-10.054-69.24-11.629-14.449-28.31-20.715-40.257-23.428-19.576-4.439-66.795-7.317-82.487 61.8a1.627 1.627 0 0 1-.105.314 66.509 66.509 0 0 0-4.536 16.494c-4.255 32.885 31.919 46.626 53.86 51.889z" transform="translate(159.913 -200.036)"/>
        </g>
        <g id="그룹_477" data-name="그룹 477" transform="translate(-95.579 301.369)">
            <path id="패스_2863" data-name="패스 2863" class="cls-3" d="M-116.725 267.59c-10.558-2.4-13.732-7.582-13.917-7.9a1.512 1.512 0 0 1 .543-2.065 1.512 1.512 0 0 1 2.06.532c.1.164 6.374 9.772 31.334 7.154a1.51 1.51 0 0 1 1.658 1.345 1.509 1.509 0 0 1-1.345 1.658c-8.726.916-15.351.405-20.333-.724" transform="translate(130.847 -257.419)"/>
        </g>
        <g id="그룹_478" data-name="그룹 478" transform="translate(-93.792 307.523)">
            <path id="패스_2864" data-name="패스 2864" d="M-128.889 261.048a35.106 35.106 0 0 0 23.538 5.788S-109 280.1-121.326 276.993s-7.563-15.945-7.563-15.945" transform="translate(129.793 -261.048)" style="fill:#cf7575"/>
        </g>
        <g id="그룹_479" data-name="그룹 479" transform="translate(-96.802 304.505)">
            <path id="패스_2865" data-name="패스 2865" class="cls-3" d="M-127.654 262.286a34.4 34.4 0 0 0 12.011 5.179 33.416 33.416 0 0 0 11.528.609s-3.576 12.979-15.582 10.252c-.131-.031-.261-.061-.393-.095-12.323-3.1-7.563-15.945-7.563-15.945M-126.984 259.343a3.015 3.015 0 0 0-1.528.049 3.024 3.024 0 0 0-1.976 1.843c-.11.3-2.655 7.324.458 13.237 1.758 3.344 4.855 5.592 9.2 6.686.156.041.309.076.463.112a14.56 14.56 0 0 0 15.29-5.128 21.927 21.927 0 0 0 3.826-7.11 2.594 2.594 0 0 0 .08-.29 3.015 3.015 0 0 0-2.259-3.608l-.019-.005-.1-.022a3.032 3.032 0 0 0-1-.022 30.5 30.5 0 0 1-10.422-.565 31.844 31.844 0 0 1-10.871-4.657 3.056 3.056 0 0 0-1.134-.521" transform="translate(131.568 -259.269)"/>
        </g>
        <g id="그룹_483" data-name="그룹 483" transform="translate(-93.793 307.523)">
            <g id="그룹_482" data-name="그룹 482" style="clip-path:url(#clip-path)">
                <g id="그룹_480" data-name="그룹 480" transform="translate(-1.331 8.257)">
                    <path id="패스_2866" data-name="패스 2866" class="cls-5" d="M-130.579 266.571a21 21 0 0 1 11.048.109 24.629 24.629 0 0 1 10.419 5.433s-4.034 5.289-12.16 3.242-9.306-8.784-9.306-8.784" transform="translate(130.579 -265.917)"/>
                </g>
                <g id="그룹_481" data-name="그룹 481" transform="translate(-2.842 6.747)">
                    <path id="패스_2867" data-name="패스 2867" class="cls-3" d="M-120.594 277.542a33.208 33.208 0 0 1-.429-.1c-8.974-2.26-10.369-9.674-10.425-9.99a1.513 1.513 0 0 1 1-1.689c.2-.068 4.987-1.665 11.9.075a26.005 26.005 0 0 1 11.107 5.818 1.509 1.509 0 0 1 .146 1.994c-.19.244-4.6 5.869-13.3 3.893m-7.434-9.245a10.847 10.847 0 0 0 7.743 6.215c4.872 1.236 8.024-.482 9.54-1.686a24.385 24.385 0 0 0-8.536-4.061 21.68 21.68 0 0 0-8.747-.468m-1.931-1.106z" transform="translate(131.47 -265.027)"/>
                </g>
            </g>
        </g>
        <g id="그룹_484" data-name="그룹 484" transform="translate(-56.007 262.951)">
            <path id="패스_2869" data-name="패스 2869" class="cls-3" d="M-96.274 241.056a1.627 1.627 0 0 1-.877-.526 7.285 7.285 0 0 0-3.673-2.177 8.4 8.4 0 0 0-4.634.061 1.642 1.642 0 0 1-2-1.185 1.644 1.644 0 0 1 1.187-2 11.653 11.653 0 0 1 6.323-.047 10.517 10.517 0 0 1 5.284 3.195 1.644 1.644 0 0 1-.166 2.32 1.64 1.64 0 0 1-1.443.361" transform="translate(107.511 -234.763)"/>
        </g>
        <g id="그룹_485" data-name="그룹 485" transform="translate(-107.156 251.338)">
            <path id="패스_2870" data-name="패스 2870" class="cls-3" d="M-126.436 234.208a1.632 1.632 0 0 1-.878-.526 7.287 7.287 0 0 0-3.671-2.177 8.368 8.368 0 0 0-4.634.063 1.646 1.646 0 0 1-2-1.187 1.645 1.645 0 0 1 1.187-2 11.685 11.685 0 0 1 6.323-.049 10.536 10.536 0 0 1 5.286 3.2 1.647 1.647 0 0 1-.168 2.32 1.638 1.638 0 0 1-1.441.361" transform="translate(137.675 -227.915)"/>
        </g>
        <g id="그룹_486" data-name="그룹 486" transform="translate(-137.187 259.784)">
            <path id="패스_2871" data-name="패스 2871" class="cls-2" d="M-102.344 246.252s-24.837 25.626-39.483-10.842a2.417 2.417 0 0 0-3.034-1.4l-7.687 2.433c-1.207.409-1.494 1.667-1.73 2.937-2.165 11.667 23.267 59.518 63.878 39.007" transform="translate(156.065 -232.211)"/>
            <path id="패스_2872" data-name="패스 2872" class="cls-3" d="M-109.352 285.8a40.429 40.429 0 0 1-24.334-8.531c-14.517-10.882-22.948-29.955-21.548-37.5.241-1.3.648-3.471 2.834-4.21l7.717-2.444a4.089 4.089 0 0 1 5.08 2.364c4.341 10.809 9.947 16.957 16.664 18.278 10.259 2.016 19.981-7.872 20.079-7.972a1.664 1.664 0 0 1 2.354-.037 1.664 1.664 0 0 1 .036 2.354c-.446.461-11.093 11.275-23.109 8.921-7.894-1.552-14.324-8.382-19.111-20.3a.759.759 0 0 0-.956-.444l-7.719 2.445c-.249.085-.417.7-.6 1.655-1.065 5.737 6 23.533 20.272 34.23 8.655 6.488 22.831 12.27 41.22 2.986a1.66 1.66 0 0 1 2.235.734 1.664 1.664 0 0 1-.736 2.237 44.94 44.94 0 0 1-20.378 5.234z" transform="translate(155.384 -232.896)"/>
        </g>
        <g id="그룹_487" data-name="그룹 487" transform="translate(-94.041 280.679)">
            <path id="패스_2873" data-name="패스 2873" class="cls-2" d="M-129.8 245.672s7.814 2.349 8.394 9.035" transform="translate(130.035 -244.902)"/>
            <path id="패스_2874" data-name="패스 2874" class="cls-3" d="M-122.116 255.092c-.526-6.052-7.751-8.311-7.824-8.333l.465-1.541c.339.1 8.343 2.588 8.964 9.735z" transform="translate(129.94 -245.218)"/>
        </g>
        <g id="그룹_488" data-name="그룹 488" transform="translate(-95.522 279.734)">
            <path id="패스_2875" data-name="패스 2875" class="cls-3" d="M-121.087 257.084a1.719 1.719 0 0 1-1.329-1.526c-.47-5.423-7.115-7.521-7.183-7.541a1.718 1.718 0 0 1-1.14-2.14 1.715 1.715 0 0 1 2.133-1.145c.365.108 8.937 2.774 9.608 10.53a1.716 1.716 0 0 1-1.56 1.857 1.765 1.765 0 0 1-.529-.036" transform="translate(130.814 -244.661)"/>
        </g>
        <g id="그룹_489" data-name="그룹 489" transform="translate(-103.523 281.982)">
            <path id="패스_2876" data-name="패스 2876" class="cls-2" d="M-135.282 246.391s4.143 2.552 4.724 9.237" transform="translate(135.706 -245.704)"/>
            <path id="패스_2877" data-name="패스 2877" class="cls-3" d="M-131.186 255.979c-.536-6.161-4.192-8.526-4.346-8.624l.848-1.368c.183.114 4.494 2.847 5.1 9.854z" transform="translate(135.532 -245.986)"/>
        </g>
        <g id="그룹_490" data-name="그룹 490" transform="translate(-104.805 280.954)">
            <path id="패스_2878" data-name="패스 2878" class="cls-3" d="M-130.239 258a1.715 1.715 0 0 1-1.328-1.524c-.492-5.662-3.788-7.844-3.929-7.934a1.722 1.722 0 0 1-.529-2.362 1.71 1.71 0 0 1 2.343-.551c.2.122 4.885 3.091 5.531 10.551a1.716 1.716 0 0 1-1.56 1.859 1.715 1.715 0 0 1-.529-.037" transform="translate(136.288 -245.38)"/>
        </g>
        <g id="그룹_491" data-name="그룹 491" transform="translate(-113.798 278.634)">
            <path id="패스_2879" data-name="패스 2879" class="cls-2" d="M-140.63 244.219s2.557 5.286-.561 10.139" transform="translate(141.869 -243.868)"/>
            <path id="패스_2880" data-name="패스 2880" class="cls-3" d="m-140.236 254.936-1.355-.87c2.844-4.423.539-9.3.516-9.35l1.45-.7c.111.23 2.714 5.748-.611 10.92z" transform="translate(141.591 -244.012)"/>
        </g>
        <g id="그룹_492" data-name="그룹 492" transform="translate(-114.836 277.273)">
            <path id="패스_2881" data-name="패스 2881" class="cls-3" d="M-140.866 256.734a1.764 1.764 0 0 1-.549-.231 1.714 1.714 0 0 1-.514-2.371c2.54-3.954.544-8.289.456-8.472a1.718 1.718 0 0 1 .811-2.282 1.709 1.709 0 0 1 2.281.8c.124.251 2.935 6.213-.665 11.812a1.711 1.711 0 0 1-1.82.746" transform="translate(142.203 -243.209)"/>
        </g>
        <g id="그룹_493" data-name="그룹 493" transform="translate(-150.881 247.437)">
            <path id="패스_2882" data-name="패스 2882" class="cls-2" d="M-136.614 240.392s5.515-8.046-.783-11.677-8.448 5.153-8.448 5.153-8.374-11.868-14.166-5.282c-6.276 7.134.088 17.339 11.548 16.957" transform="translate(164.141 -224.931)"/>
            <path id="패스_2883" data-name="패스 2883" class="cls-3" d="M-148.377 247.9c-6.293 0-11.757-3.046-14.039-7.875a10.653 10.653 0 0 1 1.836-11.858 6.889 6.889 0 0 1 5.65-2.545c3.72.2 7.2 3.349 9.255 5.647a8.288 8.288 0 0 1 3.866-3.965 6.4 6.4 0 0 1 5.923.649 7.225 7.225 0 0 1 3.656 4.757c1 4.383-2.194 9.106-2.33 9.3a1.665 1.665 0 0 1-2.315.432 1.666 1.666 0 0 1-.434-2.311c.7-1.031 2.394-4.243 1.831-6.7a3.984 3.984 0 0 0-2.07-2.6 3.261 3.261 0 0 0-2.949-.475c-1.748.741-2.8 3.563-3.052 4.587a1.665 1.665 0 0 1-1.309 1.233 1.661 1.661 0 0 1-1.665-.673c-1.251-1.765-5.231-6.386-8.589-6.562a3.52 3.52 0 0 0-2.969 1.419 7.316 7.316 0 0 0-1.324 8.238c1.792 3.792 6.315 6.118 11.568 5.957a1.618 1.618 0 0 1 1.718 1.609 1.663 1.663 0 0 1-1.608 1.718c-.216.018-.435.018-.65.018z" transform="translate(163.459 -225.614)"/>
        </g>
        <g id="그룹_494" data-name="그룹 494" transform="translate(-23.981 232.748)">
            <path id="패스_2884" data-name="패스 2884" class="cls-2" d="M-71.216 230.133s13.072-19.806 41.706-8.975c26.224 9.917 18.136 47.786 5.54 60.253 0 0 7.236 20.744-8.892 40.548s-50.334 14.816-54.781-15.25" transform="translate(89.308 -216.279)"/>
            <path id="패스_2885" data-name="패스 2885" class="cls-3" d="M-56.98 336.16a32.82 32.82 0 0 1-8.728-1.177c-12.306-3.385-20.866-13.61-22.9-27.357a1.664 1.664 0 0 1 1.4-1.891 1.672 1.672 0 0 1 1.889 1.4c1.862 12.587 9.33 21.568 20.488 24.636A30.192 30.192 0 0 0-33.47 321.58a43.162 43.162 0 0 0 8.611-38.951 1.669 1.669 0 0 1 .4-1.728c7.5-7.427 13.52-24.868 10.517-38.992-1.335-6.286-5.1-14.6-15.475-18.522-26.977-10.2-39.224 7.577-39.731 8.338a1.666 1.666 0 0 1-2.306.466 1.666 1.666 0 0 1-.471-2.3c.139-.209 14.146-20.788 43.687-9.615 9.321 3.525 15.39 10.766 17.554 20.942 3.234 15.224-2.957 32.965-10.725 41.32 1.268 4.507 5.219 23.1-9.481 41.145a33.708 33.708 0 0 1-26.09 12.477z" transform="translate(88.625 -216.952)"/>
        </g>
        <g id="그룹_495" data-name="그룹 495" transform="translate(-10.494 251.425)">
            <path id="패스_2886" data-name="패스 2886" class="cls-5" d="M-67.829 236.277s9.021-13.62 27.194-5.988c16.644 6.991 10.315 33.123 1.818 41.676a32.978 32.978 0 0 1-6.927 27.978c-10.992 13.607-32.934 9.979-34.927-10.824" transform="translate(80.671 -227.966)"/>
        </g>
        <g id="그룹_496" data-name="그룹 496" transform="translate(-64.558 284.25)">
            <path id="패스_2887" data-name="패스 2887" class="cls-8" d="M-98.1 258.209a1.841 1.841 0 0 1-1.836-1.73c-.012-.18-.358-4.59-3.812-5.375-3.337-.756-5.2 3.234-5.281 3.405a1.844 1.844 0 0 1-2.435.914 1.837 1.837 0 0 1-.924-2.425c1.073-2.394 4.426-6.622 9.455-5.484 6.159 1.4 6.654 8.445 6.673 8.743a1.841 1.841 0 0 1-1.728 1.948c-.042.003-.08.004-.112.004z" transform="translate(112.554 -247.324)"/>
        </g>
        <g id="그룹_497" data-name="그룹 497" transform="translate(-112.156 272.092)">
            <path id="패스_2888" data-name="패스 2888" class="cls-8" d="M-126.176 251.039a1.841 1.841 0 0 1-1.836-1.73c-.012-.18-.358-4.59-3.81-5.374-3.335-.76-5.2 3.232-5.282 3.4a1.842 1.842 0 0 1-2.433.914 1.837 1.837 0 0 1-.924-2.425c1.072-2.394 4.429-6.62 9.454-5.484 6.159 1.4 6.654 8.445 6.673 8.743a1.843 1.843 0 0 1-1.726 1.95c-.04.006-.078.006-.116.006z" transform="translate(140.623 -240.154)"/>
        </g>
        <g id="그룹_498" data-name="그룹 498" transform="translate(-113.134 336.218)">
            <path id="패스_2889" data-name="패스 2889" class="cls-2" d="M-88.483 289.682s-11.677 9.176-19.667-2.174c0 0 1.6-3.037-1.433-6.451s-6.983-.309-6.983-.309-11.4-6.11-20.529 4.078 3.807 28.119 12.353 33.469 28.749 13.98 47.989-3.887" transform="translate(141.881 -277.301)"/>
            <path id="패스_2890" data-name="패스 2890" class="cls-3" d="M-101.546 327.533c-10.257 0-18.845-4.311-23.4-7.158-6.7-4.2-14.753-14.48-16.069-23.778a14.626 14.626 0 0 1 3.359-12.211c8.319-9.279 18.505-6.137 21.612-4.863 2.07-1.19 5.609-2.028 8.384 1.1a7.73 7.73 0 0 1 2.047 7.268 10.331 10.331 0 0 0 6.624 4.2c5.179.775 10.11-3.007 10.159-3.046a1.666 1.666 0 0 1 2.335.287 1.662 1.662 0 0 1-.281 2.333c-.243.192-6.055 4.7-12.676 3.722-3.687-.541-6.842-2.644-9.379-6.247a1.667 1.667 0 0 1-.114-1.731c.092-.19.938-2.159-1.2-4.572-1.867-2.1-4.26-.453-4.719-.1a1.68 1.68 0 0 1-1.806.151c-.417-.22-10.381-5.338-18.5 3.724a11.259 11.259 0 0 0-2.542 9.523c1.248 8.821 9.245 18.109 14.537 21.422 7.544 4.718 27.127 13.808 45.975-3.7a1.664 1.664 0 0 1 2.352.086 1.665 1.665 0 0 1-.086 2.354c-9.13 8.477-18.404 11.236-26.612 11.236z" transform="translate(141.2 -277.97)"/>
        </g>
        <g id="그룹_499" data-name="그룹 499" transform="translate(-90.364 408.019)">
            <path id="패스_2891" data-name="패스 2891" class="cls-2" d="M-122.745 350.625s-11.066-17.627 3.41-29.331" transform="translate(128.455 -319.63)"/>
            <path id="패스_2892" data-name="패스 2892" class="cls-3" d="M-122.064 352.971a1.662 1.662 0 0 1-1.409-.778 32.184 32.184 0 0 1-3.956-10.9c-1.353-8.3 1.319-15.433 7.731-20.615a1.663 1.663 0 0 1 2.34.248 1.663 1.663 0 0 1-.248 2.34c-13.137 10.622-3.464 26.484-3.046 27.154a1.666 1.666 0 0 1-.529 2.293 1.65 1.65 0 0 1-.883.258z" transform="translate(127.772 -320.312)"/>
        </g>
        <g id="그룹_500" data-name="그룹 500" transform="translate(-121.598 446.713)">
            <path id="패스_2893" data-name="패스 2893" class="cls-9" d="M-145.21 352.523s.383-8.411 5.387-8.411 5.879 10.5 5.879 10.5a33.715 33.715 0 0 1-6.841-.5 19.232 19.232 0 0 1-4.426-1.592" transform="translate(146.873 -342.449)"/>
            <path id="패스_2894" data-name="패스 2894" class="cls-3" d="M-134.178 356.98a36.994 36.994 0 0 1-6.21-.544 20.86 20.86 0 0 1-4.9-1.748 1.668 1.668 0 0 1-.906-1.558c.17-3.714 1.845-10 7.049-10 6.349 0 7.434 10.8 7.538 12.028a1.661 1.661 0 0 1-.4 1.231 1.656 1.656 0 0 1-1.165.57c-.042.002-.404.021-1.006.021zm-8.569-4.784a14.326 14.326 0 0 0 2.932.962 33.634 33.634 0 0 0 4.651.475c-.539-3.04-1.859-7.173-3.977-7.173-2.478 0-3.333 3.81-3.606 5.74z" transform="translate(146.191 -343.131)"/>
        </g>
        <g id="그룹_501" data-name="그룹 501" transform="translate(-80.139 438.513)">
            <path id="패스_2895" data-name="패스 2895" class="cls-9" d="M-119.468 345.653s-3.464-5.131.938-6.267c4.363-1.129 8.236 7.183 8.236 7.183a11.918 11.918 0 0 1-6.127 1.592c-1.83-.148-3.047-2.508-3.047-2.508" transform="translate(122.423 -337.61)"/>
            <path id="패스_2896" data-name="패스 2896" class="cls-3" d="M-115.175 350.53c-.232 0-.463-.007-.7-.027-2.508-.2-4.027-2.728-4.346-3.313-.4-.607-2.2-3.595-1.251-6.1a4.32 4.32 0 0 1 3.2-2.627c5.537-1.436 9.7 7.114 10.161 8.094a1.665 1.665 0 0 1-.653 2.13 14.05 14.05 0 0 1-6.411 1.843zm-2.137-4.96c.343.648 1.126 1.57 1.7 1.616a8.709 8.709 0 0 0 3.71-.683c-1.37-2.32-3.712-5.3-5.535-4.821-.517.132-.829.329-.924.58-.275.714.376 2.288.951 3.149a1.641 1.641 0 0 1 .099.159z" transform="translate(121.742 -338.295)"/>
        </g>
        <g id="그룹_502" data-name="그룹 502" transform="translate(-106.417 446.713)">
            <path id="패스_2897" data-name="패스 2897" class="cls-9" d="M-124.989 352.523s-.383-8.411-5.387-8.411-5.881 10.5-5.881 10.5a33.71 33.71 0 0 0 6.841-.5 19.223 19.223 0 0 0 4.428-1.592" transform="translate(137.921 -342.449)"/>
            <path id="패스_2898" data-name="패스 2898" class="cls-3" d="M-134.655 356.98c-.6 0-.965-.019-1.007-.02a1.656 1.656 0 0 1-1.165-.57 1.655 1.655 0 0 1-.405-1.231c.1-1.231 1.19-12.028 7.539-12.028 5.206 0 6.88 6.284 7.047 10a1.664 1.664 0 0 1-.9 1.558 20.858 20.858 0 0 1-4.9 1.748 36.994 36.994 0 0 1-6.209.543zm4.962-10.52c-2.126 0-3.444 4.132-3.98 7.173a33.655 33.655 0 0 0 4.653-.475 14.342 14.342 0 0 0 2.934-.962c-.274-1.926-1.128-5.736-3.607-5.736z" transform="translate(137.238 -343.131)"/>
        </g>
        <g id="그룹_503" data-name="그룹 503" transform="translate(-68.477 433.749)">
            <path id="패스_2899" data-name="패스 2899" class="cls-9" d="M-103.192 342.565s-3.486-7.663-8.129-5.8-1.548 11.938-1.548 11.938a33.679 33.679 0 0 0 6.162-3.012 19.289 19.289 0 0 0 3.515-3.124" transform="translate(115.55 -334.8)"/>
            <path id="패스_2900" data-name="패스 2900" class="cls-3" d="M-112.184 351.05a1.675 1.675 0 0 1-.758-.181 1.665 1.665 0 0 1-.833-.994c-.363-1.18-3.375-11.606 2.518-13.971 4.829-1.931 8.725 3.274 10.266 6.657a1.667 1.667 0 0 1-.261 1.784 20.964 20.964 0 0 1-3.893 3.444 35.231 35.231 0 0 1-6.5 3.173 1.667 1.667 0 0 1-.539.088zm3-12.219a2.254 2.254 0 0 0-.833.161c-1.965.79-1.652 5.118-1.023 8.141a33.991 33.991 0 0 0 4.143-2.172 14.356 14.356 0 0 0 2.364-1.984c-.853-1.477-2.667-4.147-4.651-4.147z" transform="translate(114.865 -335.486)"/>
        </g>
        <g id="그룹_504" data-name="그룹 504" transform="translate(-164.107 400.493)">
            <path id="패스_2901" data-name="패스 2901" class="cls-8" d="M-165.437 329.384a1.288 1.288 0 0 1-1.19-.794l-4.533-10.931a1.282 1.282 0 0 1 .136-1.233 1.217 1.217 0 0 1 1.112-.546c.863.039 8.475.521 10.1 5.116 1.54 4.365.129 6.886-.037 7.159a1.291 1.291 0 0 1-1.769.432 1.288 1.288 0 0 1-.432-1.77c.027-.049.941-1.755-.19-4.963-.639-1.811-3.495-2.735-5.694-3.14l3.687 8.889a1.287 1.287 0 0 1-.7 1.682 1.267 1.267 0 0 1-.49.099z" transform="translate(171.259 -315.874)"/>
        </g>
        <g id="그룹_505" data-name="그룹 505" transform="translate(-162.341 413.307)">
            <path id="패스_2902" data-name="패스 2902" class="cls-3" d="M-164.629 324.253c.756 1.067.195 2.766-1.253 3.8s-3.241 1-4-.068-.2-2.767 1.251-3.8 3.241-1 4 .069" transform="translate(170.218 -323.431)"/>
        </g>
        <g id="그룹_506" data-name="그룹 506" transform="translate(-163.635 412.012)">
            <path id="패스_2903" data-name="패스 2903" class="cls-8" d="M-167.556 330.623a4.231 4.231 0 0 1-.688-.058 3.271 3.271 0 0 1-2.155-1.307c-1.187-1.669-.5-4.127 1.557-5.591s4.6-1.3 5.794.371c1.187 1.672.5 4.127-1.557 5.592a5.163 5.163 0 0 1-2.951.993zm1.672-5.37a2.631 2.631 0 0 0-1.469.512c-.887.631-1.238 1.6-.948 2a.748.748 0 0 0 .487.259 2.469 2.469 0 0 0 1.716-.5c.887-.629 1.238-1.592.95-2a.884.884 0 0 0-.736-.271z" transform="translate(170.981 -322.667)"/>
        </g>
        <g id="그룹_507" data-name="그룹 507" transform="translate(-1.477 387.008)">
            <path id="패스_2904" data-name="패스 2904" class="cls-3" d="M-69.031 309.645c.332 1.316-.8 2.735-2.533 3.174s-3.4-.28-3.732-1.6.8-2.735 2.532-3.174 3.4.28 3.734 1.6" transform="translate(75.354 -307.922)"/>
        </g>
        <g id="그룹_508" data-name="그룹 508" transform="translate(-2.089 386.397)">
            <path id="패스_2905" data-name="패스 2905" class="cls-8" d="M-72.31 313.808a3.251 3.251 0 0 1-3.329-2.182c-.414-1.642.922-3.4 2.976-3.921s4.063.4 4.478 2.04-.921 3.4-2.978 3.921a4.763 4.763 0 0 1-1.147.142zm.8-5.019a3.451 3.451 0 0 0-.85.107c-1.374.348-2.33 1.462-2.087 2.43s1.616 1.494 2.99 1.15 2.33-1.462 2.086-2.428a2.063 2.063 0 0 0-2.142-1.259z" transform="translate(75.714 -307.561)"/>
        </g>
        <g id="그룹_509" data-name="그룹 509" transform="translate(7.347 386.833)">
            <path id="패스_2906" data-name="패스 2906" class="cls-3" d="M-63.828 309.54c.332 1.316-.8 2.737-2.532 3.174s-3.4-.278-3.732-1.594.8-2.737 2.532-3.174 3.4.28 3.732 1.594" transform="translate(70.15 -307.819)"/>
        </g>
        <g id="그룹_510" data-name="그룹 510" transform="translate(6.733 386.221)">
            <path id="패스_2907" data-name="패스 2907" class="cls-8" d="M-67.109 313.705a3.253 3.253 0 0 1-3.329-2.182c-.412-1.643.924-3.4 2.978-3.921s4.063.4 4.478 2.04a2.789 2.789 0 0 1-.607 2.449 4.4 4.4 0 0 1-2.369 1.47 4.708 4.708 0 0 1-1.151.144zm.8-5.019a3.479 3.479 0 0 0-.853.107c-1.374.348-2.33 1.46-2.086 2.428s1.613 1.5 2.986 1.15a3.162 3.162 0 0 0 1.711-1.045 1.59 1.59 0 0 0 .376-1.382 2.06 2.06 0 0 0-2.132-1.258z" transform="translate(70.512 -307.458)"/>
        </g>
        <g id="그룹_511" data-name="그룹 511" transform="translate(2.602 376.852)">
            <path id="패스_2908" data-name="패스 2908" class="cls-8" d="M-71.72 315.416a1.227 1.227 0 0 1-1.228-1.228v-9.345a1.23 1.23 0 0 1 1-1.207l9.1-1.682a1.227 1.227 0 0 1 1.006.261 1.223 1.223 0 0 1 .444.938l.063 10.532a1.227 1.227 0 0 1-1.221 1.234 1.188 1.188 0 0 1-1.234-1.219l-.053-9.065-6.652 1.229v8.324a1.227 1.227 0 0 1-1.225 1.228z" transform="translate(72.948 -301.933)"/>
        </g>
        <g id="그룹_512" data-name="그룹 512" transform="translate(2.998 380.567)">
            <path id="패스_2909" data-name="패스 2909" class="cls-8" d="M-71.489 308.069a1.226 1.226 0 0 1-1.207-1.021 1.228 1.228 0 0 1 1-1.418l8.687-1.487a1.226 1.226 0 0 1 1.416 1 1.228 1.228 0 0 1-1 1.418l-8.687 1.487a1.083 1.083 0 0 1-.209.021z" transform="translate(72.715 -304.124)"/>
        </g>
        <g id="그룹_513" data-name="그룹 513" transform="translate(-106.523 297.344)">
            <path id="패스_2910" data-name="패스 2910" class="cls-9" d="M-99.427 261.853a9.4 9.4 0 0 0-1.92-3.96c-.305-.387-.6-.731-.89-1.041a5.734 5.734 0 0 0-7.56-.707c-1.507 1.082-3.907 2.713-7.636 5.041a37.687 37.687 0 0 1-12.023 4.46c-3.829.821-7.249.022-7.783 2.781-.521 2.7 2.313 4.061 4.234 4.475 17 3.663 27.267-2.53 31.934-6.386a4.809 4.809 0 0 0 1.644-4.663z" transform="translate(137.301 -255.046)"/>
        </g>
        <g id="그룹_514" data-name="그룹 514" transform="translate(-108.091 295.744)">
            <path id="패스_2911" data-name="패스 2911" class="cls-3" d="M-113.927 275.26a42.967 42.967 0 0 1-18.723-.105 7.823 7.823 0 0 1-4.845-2.971 4.651 4.651 0 0 1-.639-3.447c.6-3.12 3.449-3.388 5.96-3.622a25.7 25.7 0 0 0 3.017-.407 36.061 36.061 0 0 0 11.541-4.266c5.043-3.151 7.212-4.792 8.507-5.772.122-.095.239-.181.349-.265a1.543 1.543 0 0 1 2.338.663l.012.027a1.637 1.637 0 0 1-.488 1.969l-.332.251c-1.338 1.012-3.575 2.706-8.733 5.93a38.566 38.566 0 0 1-12.506 4.656 28.886 28.886 0 0 1-3.368.461c-2.525.236-3.1.426-3.222 1.072a1.254 1.254 0 0 0 .164.978 4.735 4.735 0 0 0 2.827 1.552c16.588 3.573 27.4-3.157 32.134-7.193a1.535 1.535 0 0 1 2.157.181 1.665 1.665 0 0 1-.153 2.362 37.609 37.609 0 0 1-16 7.946" transform="translate(138.226 -254.102)"/>
        </g>
    </g>
</svg>
