<svg xmlns="http://www.w3.org/2000/svg" width="250" height="250">
    <defs>
        <style>
            .cls-2{fill:#fff}.cls-3{fill:#567bb0}.cls-4{fill:none}.cls-5{fill:#8ecbed}
        </style>
    </defs>
    <g id="그룹_3624" data-name="그룹 3624" transform="translate(-1326 -111.327)">
        <circle id="타원_1286" data-name="타원 1286" cx="125" cy="125" r="125" transform="translate(1326 111.327)" style="fill:#8bb3ff"/>
        <g id="그룹_3612" data-name="그룹 3612" transform="translate(733.513 517.637)">
            <path id="패스_2565" data-name="패스 2565" class="cls-2" d="M675.887-204.75h93.9l-5.415-13.258-36.233-11.592s-49.068 14.4-47.572 14.327-5.154 4.828-5.154 5.082.474 5.441.474 5.441z"/>
            <g id="_-e-icon_04_off" data-name="-e-icon 04 off">
                <path id="패스_2566" data-name="패스 2566" class="cls-2" d="M722.308-204.618H711.1c.02-.78.05-1.55.08-2.33s.07-1.55.11-2.33c.18-.02.35-.04.53-.07l.35 1.66a2.5 2.5 0 0 0 .07.26 1.342 1.342 0 0 0 .27.44 1 1 0 0 0 .24.22 1.872 1.872 0 0 0 .57.27 1.267 1.267 0 0 0 .34.04.748.748 0 0 0 .21-.02.356.356 0 0 0 .1-.02l8.1-1.7v.01z"/>
                <path id="패스_2567" data-name="패스 2567" class="cls-2" d="m699.708-239.968-2.13-.07-.58 2.42-.95-.03.61-2.47 2.6.07a1.6 1.6 0 0 1 .23.03.585.585 0 0 1 .18.04.06.06 0 0 1 .04.01z"/>
                <path id="패스_2568" data-name="패스 2568" class="cls-2" d="M699.948-234.588a1.665 1.665 0 0 1-.48.88c-.05.05-.1.09-.16.14a1.58 1.58 0 0 1-.36.2 7.462 7.462 0 0 0-1.26-.77l.12-.52z"/>
                <path id="패스_2569" data-name="패스 2569" class="cls-2" d="M696.628-236.078v.01l-.33 1.37c-.3-.1-.6-.19-.92-.27l.29-1.14z"/>
                <path id="패스_2570" data-name="패스 2570" class="cls-2" d="M700.478-238.4a1.266 1.266 0 0 1-.17.35 1.726 1.726 0 0 1-.13.15 1.14 1.14 0 0 1-.3.23 1.243 1.243 0 0 1-.58.14h-.01l-.4-.02h-.09l-.16-.01a.616.616 0 0 0-.13-.01l.21-.89 1.75.06z"/>
                <path id="패스_2571" data-name="패스 2571" class="cls-3" d="M709.808-209.138c-.08 1.51-.14 3.02-.19 4.52h-.01c.05-1.5.11-3.01.19-4.52z"/>
                <path id="패스_2572" data-name="패스 2572" class="cls-3" d="M709.808-209.138c-.08 1.51-.14 3.02-.19 4.52h-.01c.05-1.5.11-3.01.19-4.52z"/>
                <path id="사각형_179" data-name="사각형 179" class="cls-3" transform="translate(694.408 -235.158)" d="M0 0h.01v.01H0z"/>
                <path id="패스_2573" data-name="패스 2573" class="cls-3" d="m695.458-241.418-.04 1.26.03-1.22z"/>
                <path id="패스_2574" data-name="패스 2574" class="cls-3" d="M698.638-237.558h-.14v-.01h.01a.616.616 0 0 1 .13.01z"/>
                <path id="패스_2575" data-name="패스 2575" class="cls-3" d="m700.958-238.388-.48-.01a1.266 1.266 0 0 1-.17.35 1.4 1.4 0 0 0 .16-.35v-.01z"/>
                <path id="패스_2576" data-name="패스 2576" class="cls-3" d="M699.748-239.968h-.04a.06.06 0 0 0-.04-.01h.05c.01 0 .02.01.03.01z"/>
                <path id="패스_2577" data-name="패스 2577" class="cls-3" d="M698.888-237.548h-.09l-.16-.01h.17c.03 0 .05.01.08.01z"/>
                <path id="패스_2578" data-name="패스 2578" class="cls-3" d="m695.288-236.638-.12.5h-.01z"/>
                <path id="패스_2579" data-name="패스 2579" class="cls-3" d="m695.458-241.418-.04 1.26.03-1.22z"/>
                <path id="패스_2580" data-name="패스 2580" class="cls-3" d="m695.288-236.638-.12.5h-.01z"/>
                <path id="패스_2581" data-name="패스 2581" class="cls-3" d="M700-236.628v.01a.01.01 0 0 1-.01-.01z"/>
                <path id="사각형_180" data-name="사각형 180" class="cls-3" transform="translate(698.368 -237.018)" d="M0 0h.01v.01H0z"/>
                <path id="패스_2582" data-name="패스 2582" class="cls-3" d="M699.818-239.938c-.03-.01-.06-.02-.1-.03h-.01l-2.13-.07 2.09.06h.05c.01 0 .02.01.03.01a.108.108 0 0 1 .07.03z"/>
                <path id="패스_2583" data-name="패스 2583" class="cls-3" d="M701.368-229.958a4.715 4.715 0 0 0-.21-.52h.01c.06.17.132.34.2.52z"/>
                <path id="패스_2584" data-name="패스 2584" class="cls-3" d="M696.728-236.078h-.1v-.01z"/>
                <path id="패스_2585" data-name="패스 2585" class="cls-3" d="M699.818-239.938c-.03-.01-.06-.02-.1-.03h.03a.108.108 0 0 1 .07.03z"/>
                <path id="패스_2586" data-name="패스 2586" class="cls-3" d="m700.958-238.388-.48-.01h-.01v-.01z"/>
                <path id="사각형_181" data-name="사각형 181" class="cls-3" transform="translate(698.368 -237.018)" d="M0 0h.01v.01H0z"/>
                <path id="패스_538" data-name="패스 538" class="cls-3" d="m723.376-208.469-1.3.274.239 3.575h1.322z"/>
                <path id="패스_539" data-name="패스 539" class="cls-3" d="m723.376-208.469.257 3.849h1.337l-.28-4.125z"/>
                <path id="패스_2587" data-name="패스 2587" class="cls-3" d="m712.158-207.678-.34-1.67.35 1.66a2.5 2.5 0 0 0 .07.26 1.043 1.043 0 0 1-.08-.25z"/>
                <path id="패스_2588" data-name="패스 2588" class="cls-3" d="M712.548-209.478v.01l-.73.12c.24-.04.49-.08.73-.13z"/>
                <path id="패스_2589" data-name="패스 2589" class="cls-3" d="M712.748-206.768a1.872 1.872 0 0 0 .57.27 1.254 1.254 0 0 1-.57-.27z"/>
                <path id="패스_2590" data-name="패스 2590" class="cls-3" d="M722.068-208.2v.01l-8.1 1.7a.34.34 0 0 1-.1.01.356.356 0 0 0 .1-.02z"/>
                <path id="패스_542" data-name="패스 542" class="cls-3" d="m724.638-209.494.051.75 3.815-.8c.209-.325.419-.628.628-.892z"/>
                <path id="패스_2591" data-name="패스 2591" class="cls-3" d="m723.378-208.468-1.3.27-.05-.74v-.01l1.29-.27h.01z"/>
                <path id="패스_544" data-name="패스 544" class="cls-3" d="m724.639-209.494-1.312.275.049.75 1.313-.275z"/>
                <path id="패스_2592" data-name="패스 2592" class="cls-3" d="m722.068-208.2-8.1 1.7a.356.356 0 0 1-.1.02.748.748 0 0 1-.21.02 1.267 1.267 0 0 1-.34-.04 1.872 1.872 0 0 1-.57-.27 1 1 0 0 1-.24-.22 1.342 1.342 0 0 1-.27-.44 2.5 2.5 0 0 1-.07-.26l-.35-1.66.73-.12v-.01q.36-.06.72-.15l.34 1.64 8.36-1.73.05.77h.01v.01z"/>
                <path id="패스_2593" data-name="패스 2593" class="cls-3" d="M729.178-210.5a.263.263 0 0 1-.05.06l-4.49.95v-.01l-.05-.76 3.63-.75h.01c.15.1.31.19.47.28a5.237 5.237 0 0 0 .48.23z"/>
                <path id="패스_2594" data-name="패스 2594" class="cls-3" d="m723.318-209.218-1.29.27h-.01l-.05-.77 1.3-.27z"/>
                <path id="패스_2595" data-name="패스 2595" class="cls-3" d="m724.638-209.5-1.31.28-.05-.77 1.31-.27z"/>
                <path id="선_137" data-name="선 137" class="cls-4" transform="translate(722.598 -239.408)" d="M.03.36 0 0"/>
                <path id="패스_2596" data-name="패스 2596" class="cls-2" d="M697.408-231.5h-.35l.01-.07.25.01z"/>
                <path id="패스_2597" data-name="패스 2597" class="cls-2" d="m697.318-231.558-.25-.01.04-.13v-.01c.03.02.05.04.08.06a1.471 1.471 0 0 0 .13.09z"/>
                <path id="패스_2598" data-name="패스 2598" class="cls-2" d="M695.688-232.138v.01l-.12.5-2.51-.09.27-1.12c.16.02.34.02.5.04v.01l-.14.57v.01z"/>
                <path id="패스_2599" data-name="패스 2599" class="cls-2" d="M695.738-232.338v.01l-.04.15-.01.04-2-.08.14-.57v-.01c.16.02.32.05.48.08h.01c.03.01.07.01.11.02l.01.01a8.5 8.5 0 0 1 1.29.35z"/>
                <path id="패스_2600" data-name="패스 2600" class="cls-2" d="M698.078-230.988h-1.65l.14-.6.5.02-.01.07h.35a6.175 6.175 0 0 1 .53.36c.05.05.09.11.14.15z"/>
                <path id="패스_2601" data-name="패스 2601" class="cls-2" d="M698.828-229.958v.01h-3.66l.4-1.68.5.02v.01l-.27 1.12v.01h2.71a4.385 4.385 0 0 1 .32.51z"/>
                <path id="패스_556" data-name="패스 556" class="cls-2" d="m696.191-232.119-.5-.019-.122.513.5.018z"/>
                <path id="패스_2602" data-name="패스 2602" class="cls-2" d="M697.108-231.708v.01l-.04.13-.5-.02.09-.37v-.01a1.713 1.713 0 0 1 .23.13l.21.12v.01z"/>
                <path id="패스_558" data-name="패스 558" class="cls-2" d="m696.191-232.119.005-.029c-.151-.062-.3-.13-.463-.185l-.047.2z"/>
                <path id="패스_2603" data-name="패스 2603" class="cls-2" d="m698.508-230.468-2.71-.01.27-1.12v-.01l.5.02-.15.6h1.66a3.6 3.6 0 0 1 .43.52z"/>
                <path id="패스_560" data-name="패스 560" class="cls-2" d="m696.069-231.6.5.018.092-.374c-.121-.058-.261-.1-.386-.154h-.082z"/>
                <path id="패스_561" data-name="패스 561" class="cls-2" d="M696.275-232.117a1.046 1.046 0 0 0-.078-.03l-.005.028z"/>
                <path id="패스_2604" data-name="패스 2604" class="cls-3" d="M699.868-231.988c-.03-.04-.06-.07-.09-.11h.01a1.05 1.05 0 0 1 .08.11z"/>
                <path id="패스_2605" data-name="패스 2605" class="cls-3" d="M696.308-232.628v.01l-.03.11c-.11-.04-.2-.09-.31-.13z"/>
                <path id="패스_2606" data-name="패스 2606" class="cls-3" d="M696.378-232.628h-.07l.01-.02z"/>
                <path id="사각형_182" data-name="사각형 182" class="cls-3" transform="translate(696.518 -233.518)" d="M0 0h.01v.01H0z"/>
                <path id="패스_2607" data-name="패스 2607" class="cls-3" d="m697.018-233.468-.03.14v.01h-.01v-.01z"/>
                <path id="패스_2608" data-name="패스 2608" class="cls-3" d="m697.018-233.468-.03.14v.01h-.01v-.01z"/>
                <path id="사각형_183" data-name="사각형 183" class="cls-3" transform="translate(697.318 -232.628)" d="M0 0h.01v.01H0z"/>
                <path id="사각형_184" data-name="사각형 184" class="cls-3" transform="translate(696.858 -232.828)" d="M0 0h.01v.01H0z"/>
                <path id="사각형_185" data-name="사각형 185" class="cls-3" transform="translate(696.978 -233.328)" d="M0 0h.01v.01H0z"/>
                <path id="사각형_186" data-name="사각형 186" class="cls-3" transform="translate(696.518 -233.518)" d="M0 0h.01v.01H0z"/>
                <path id="패스_2609" data-name="패스 2609" class="cls-3" d="M697.1-233.108h-.02c-.01-.01-.01-.01-.02-.01h.02c.008 0 .008.01.02.01z"/>
                <path id="패스_2610" data-name="패스 2610" class="cls-3" d="m696.178-234.178-.04.18h-.01z"/>
                <path id="패스_2611" data-name="패스 2611" class="cls-3" d="m698.678-232.708-.01.01h-.01v-.01z"/>
                <path id="패스_2612" data-name="패스 2612" class="cls-3" d="m696.178-234.178-.04.18h-.01z"/>
                <path id="사각형_187" data-name="사각형 187" class="cls-3" transform="translate(699.898 -229.108)" d="M0 0h.01v.01H0z"/>
                <path id="패스_2613" data-name="패스 2613" class="cls-3" d="M697.468-232.068c-.08-.05-.15-.11-.24-.16v-.01a2.074 2.074 0 0 1 .24.17z"/>
                <path id="패스_2614" data-name="패스 2614" class="cls-3" d="m698.678-232.708-.01.01v-.01z"/>
                <path id="사각형_188" data-name="사각형 188" class="cls-3" transform="translate(699.898 -229.108)" d="M0 0h.01v.01H0z"/>
                <path id="패스_2615" data-name="패스 2615" class="cls-3" d="m696.068-233.148-.14-.01.01-.04h.01a.432.432 0 0 1 .12.05z"/>
                <path id="패스_2616" data-name="패스 2616" class="cls-3" d="M696.868-232.628a.06.06 0 0 0-.04-.01v-.01a.076.076 0 0 0 .04.02z"/>
                <path id="사각형_189" data-name="사각형 189" class="cls-3" transform="translate(696.858 -232.828)" d="M0 0h.01v.01H0z"/>
                <path id="사각형_190" data-name="사각형 190" class="cls-3" transform="translate(694.408 -235.158)" d="M0 0h.01v.01H0z"/>
                <path id="패스_2617" data-name="패스 2617" class="cls-3" d="M701.368-229.958a4.715 4.715 0 0 0-.21-.52h.01c.06.17.132.34.2.52z"/>
                <path id="패스_2618" data-name="패스 2618" class="cls-3" d="M697.188-231.648a.555.555 0 0 0-.08-.05v-.01c.03.02.05.04.08.06z"/>
                <path id="패스_2619" data-name="패스 2619" class="cls-3" d="M693.868-232.978v.01l-.04.17c-.16-.02-.34-.02-.5-.04l.03-.11v-.02l.01-.04v-.01h.01c.16.018.33.018.49.04z"/>
                <path id="패스_2620" data-name="패스 2620" class="cls-3" d="m695.308-232.668-.88-.03h-.12v-.02h.01l.04-.15c.33.06.65.12.95.2z"/>
                <path id="패스_2621" data-name="패스 2621" class="cls-3" d="m694.348-232.868-.03.15h-.01v.01c-.16-.03-.32-.06-.48-.08v-.01l.04-.17c.18.02.31.068.48.1z"/>
                <path id="패스_2622" data-name="패스 2622" class="cls-3" d="M694.308-232.708c.02 0 .04.01.06.01h-.06z"/>
                <path id="패스_2623" data-name="패스 2623" class="cls-3" d="m695.778-232.518-.05.18v.01a10.5 10.5 0 0 0-1.36-.37h.06l.01.01.87.03c.16.04.31.1.47.14z"/>
                <path id="패스_2624" data-name="패스 2624" class="cls-3" d="M697.148-231.908v.01l-.05.18v.01a2.39 2.39 0 0 0-.21-.13 1.713 1.713 0 0 0-.23-.13l.03-.13v-.01h.13c.01 0 .01.01.02.01.05.03.1.07.15.1s.112.06.16.09z"/>
                <path id="패스_2625" data-name="패스 2625" class="cls-3" d="m696.238-232.328-.04.18a4.9 4.9 0 0 0-.46-.18h-.01v-.01l.05-.18c.16.06.31.13.46.19z"/>
                <path id="패스_2626" data-name="패스 2626" class="cls-3" d="M696.808-232.1h-.12v-.01l.01-.03c.03.01.06.01.08.03h.01c.012.002.012.01.02.01z"/>
                <path id="패스_754" data-name="패스 754" class="cls-3" d="m696.691-232.1-.416-.015c.125.053.265.1.385.154z"/>
                <path id="패스_2627" data-name="패스 2627" class="cls-3" d="M696.7-232.148v.01l-.01.03v.01l-.41-.02c-.03-.01-.05-.02-.08-.03l.04-.18c.148.06.318.12.46.18z"/>
                <path id="패스_2628" data-name="패스 2628" class="cls-3" d="M699.868-231.988c-.03-.04-.06-.07-.09-.11h.01a1.05 1.05 0 0 1 .08.11z"/>
                <path id="패스_2629" data-name="패스 2629" class="cls-3" d="m695.828-232.7-.02.05.01-.05z"/>
                <path id="패스_2630" data-name="패스 2630" class="cls-3" d="m695.968-232.638-.16-.01.01-.05h.01c.06.02.09.04.14.06z"/>
                <path id="패스_2631" data-name="패스 2631" class="cls-3" d="M696.988-232a.95.95 0 0 0-.17-.1h.02c.05.032.1.072.15.1z"/>
                <path id="패스_2632" data-name="패스 2632" class="cls-3" d="M697.148-231.908v.01a1.394 1.394 0 0 0-.16-.1c.06.03.112.06.16.09z"/>
                <path id="패스_2633" data-name="패스 2633" class="cls-3" d="M696.838-232.1h-.03c-.01 0-.01-.01-.02-.01h.03c.01.002.01.01.02.01z"/>
                <path id="패스_2634" data-name="패스 2634" class="cls-2" d="M708.318-226.248h-.21c.04-.11.09-.21.13-.32h.01z"/>
                <path id="패스_2635" data-name="패스 2635" class="cls-2" d="M713.418-229.078a5.128 5.128 0 0 1-.62 2.82h-.01v.01h-.06c.12-1.08.25-2.13.37-3.15h.03a.487.487 0 0 1 .29.32z"/>
                <path id="선_138" data-name="선 138" class="cls-4" transform="translate(712.728 -226.248)" d="M.06 0H0"/>
                <path id="패스_2636" data-name="패스 2636" class="cls-2" d="M712.718-223.858h-.25c.01-.06.01-.13.02-.19a.834.834 0 0 0 .23.19z"/>
                <path id="패스_2637" data-name="패스 2637" class="cls-2" d="M711.408-211.318v-.02h-.01c.06-.91.12-1.83.19-2.75l.55 2.67c-.23.04-.49.07-.73.1z"/>
                <path id="패스_2638" data-name="패스 2638" class="cls-3" d="M709.358-210.118c-.16.01-.32.02-.49.02v-.01c.16 0 .332 0 .49-.01z"/>
                <path id="패스_2639" data-name="패스 2639" class="cls-3" d="M798.378-333.928c-3.27-7.13-8.91-11.45-16.31-12.49-10.98-1.54-18.32 1.47-23.03 5.13.12.08.24.16.36.25l.6.42c.22.16.42.32.64.5h.01c.12.09.23.17.34.26 4.33-3.14 10.95-5.63 20.76-4.25 8.32 1.17 12.49 6.71 14.53 11.16 4.57 9.97 3.06 23.93-1.23 30.7a1.179 1.179 0 0 0-.01 1.24 32.921 32.921 0 0 1 .18 30.36 22.779 22.779 0 0 1-21.42 12.86 20.219 20.219 0 0 1-12.12-4.62 24.429 24.429 0 0 1-7.12-10.23 1.148 1.148 0 0 0-1.09-.73 1.141 1.141 0 0 0-.41.07 1.167 1.167 0 0 0-.66 1.51 26.951 26.951 0 0 0 7.49 10.86c-.31.25-.62.5-.95.74a53.255 53.255 0 0 1-5.39 3.52c-.42.24-.86.46-1.3.69-.66.35-1.33.7-2.01 1.03-1.66.79-3.39 1.5-5.18 2.16a81.77 81.77 0 0 1-23.07 4.48c-.86.05-1.72.1-2.6.13-1.47.06-2.96.09-4.48.09-.23 0-.47-.01-.71-.01-1.8-.01-3.66-.05-5.57-.14-.23-.02-1.36-.13-3.1-.39a90.53 90.53 0 0 1-14-3.24.335.335 0 0 1 0-.1l-.19-.05-.24-.05-.03-.01-.58-.14-.03-.01c-.26-.08-.51-.17-.77-.26-.2-.07-.41-.14-.62-.21-.3-.11-.6-.23-.9-.34-.24-.09-.48-.17-.72-.27l-.03.03v.01a.121.121 0 0 0-.05.05.121.121 0 0 0-.05.05 1.226 1.226 0 0 0-.07.17v.01l-1.88-1.15c.02.01.03.01.05.02l-.05-.03-.33-.15-.19-.08-.13-.06-.19-.08-.19-.08c-.04-.02-.09-.04-.13-.06l-.19-.08-.18-.09c-.05-.02-.09-.04-.13-.06l-.18-.09-.18-.08a50.62 50.62 0 0 1-5.42-2.94c-.97-.6-1.9-1.24-2.82-1.92a30.1 30.1 0 0 1-8.44-9.18 23.938 23.938 0 0 1-3.12-11.39c-.01-.02-.03-.03-.04-.05a5.97 5.97 0 0 1-2.58.68c-.11 0-.22-.03-.33-.04v-.02h-.01v.02a26.62 26.62 0 0 0 3.51 12.28 31.668 31.668 0 0 0 7.59 8.79 21.381 21.381 0 0 1-3.97.52 22.492 22.492 0 0 1-20.94-12.97 32.7 32.7 0 0 1-1.34-25.82 8.02 8.02 0 0 1 .95-4.74 4.953 4.953 0 0 1 .85-1.27c-4.06-6.84-5.29-20.49-.67-30.2 2.06-4.35 6.24-9.74 14.42-10.77 7.33-.93 12.82.25 16.88 2.22.34-.37.69-.74 1.06-1.1.35-.37.72-.74 1.1-1.11-4.47-2.38-10.78-4.06-19.41-2.97-7.52.94-13.31 5.25-16.73 12.44-5.06 10.66-3.7 24.85.49 32.48a35.433 35.433 0 0 0-.28 32.13 25.507 25.507 0 0 0 22.93 14.69c.26 0 .52 0 .78-.02a23.1 23.1 0 0 0 6.89-1.26 53.821 53.821 0 0 0 6.4 3.72c-3.83 3.92-10 11.15-12.13 18.89-2.01 7.33-.91 14.99 2.96 20.5a19.371 19.371 0 0 0 2.7 3.02 51.54 51.54 0 0 0-.16 5.83h2.72c-.1-.63-.2-1.25-.28-1.86q0-1.095.06-2.1a22.6 22.6 0 0 0 4.92 2.51c.54.2 1.08.4 1.66.58a30.959 30.959 0 0 0 3.93.87 36.879 36.879 0 0 0 5.24.5h.02a1.948 1.948 0 0 0 .25-.02 11.871 11.871 0 0 0 6.67-4.66v-.01l6.19.6h.09a.925.925 0 0 0 .96-.91v-.03c.51.03 1.02.05 1.51.05.14 0 .27-.01.4-.01-.08 1.5-.14 3-.18 4.49h.49c.02-.75.05-1.5.08-2.25-.02.75-.05 1.49-.07 2.24v.01h.48c.05-1.5.11-3.01.19-4.52h.01c-.08 1.51-.14 3.02-.19 4.52h1.47c.03-.78.05-1.55.09-2.33s.07-1.55.11-2.33c.18-.02.35-.04.53-.07.24-.04.49-.08.73-.13s.48-.09.72-.15a12.523 12.523 0 0 0 5.4-2.54 8.206 8.206 0 0 0 2.81-4.8l-.32-4.77a5.723 5.723 0 0 0-1.43-2.13h-1.7l-5.3.01a1.083 1.083 0 0 0 .5.09c.03 0 3.3-.36 5.16 1.35a4.687 4.687 0 0 1 1.31 3.78 6.5 6.5 0 0 1-2.3 4.96 10.743 10.743 0 0 1-4.53 2.09c-.24.06-.47.12-.72.17l.2.97h-.01l-.2-.97c-.23.04-.49.07-.73.1h-.01c-.49.07-.97.13-1.48.16-.17.02-.33.02-.5.03l-.49.03-.03.49c0-.16.01-.33.02-.5-.72.02-1.46.01-2.23-.04h-.01a38.663 38.663 0 0 1 .67-12.69 20.216 20.216 0 0 1 .61-2.01c.04-.13.09-.25.14-.38h-.37l.06-.32h.01l-.06.3h.37c.04-.11.09-.21.13-.32h.01v-.01a.836.836 0 0 0 .47-.29c.05-.05.11-.12.17-.18.19-.2.4-.43.65-.66a11.97 11.97 0 0 1 .96-.8c.05-.44.11-.87.16-1.3l.15-1.2a8.689 8.689 0 0 0-1.72 1.07l-1.46-7.11 4.1-.85.51-.11.52-.11 1.54-.32 5.66-1.17 1.3-.27 1.28-.26 1.55-.32 2.94 14.19.15.73.35 1.66 1.41 6.85h.02a3.516 3.516 0 0 1 .43-.13.792.792 0 0 1 .13-.03.832.832 0 0 1 .15-.04l.2.96h.01a4.525 4.525 0 0 1 .74-.06l.2.99a11.1 11.1 0 0 1 3.4.85 68.251 68.251 0 0 1 7.89 9.88c.09.14.18.28.26.42-.06-.14-.13-.28-.19-.42h2.2c-.07-.14-.15-.28-.23-.41a22.867 22.867 0 0 0-2.49-4.28 54.669 54.669 0 0 0-5.73-6.53.807.807 0 0 0-.24-.17c-.06-.03-.18-.09-.34-.16-.13-.13-.26-.27-.37-.38l4.83-3.21a107.3 107.3 0 0 1 11.86 13.25l-2.41 1.88h4.46l.24.09c.47.06.91.13 1.33.19l.19.03c.17.02.31.04.47.06.42.06.83.12 1.21.16.43.04.82.06 1.2.08.19 0 .4.03.58.03a6.946 6.946 0 0 0 3.11-.64c1.56-.76 2.86-2.31 4.29-5.1.57 1.82 1.1 3.53 1.59 5.1h2.78c-.79-2.55-1.7-5.52-2.69-8.75 1.51-3.59 3.27-8.46 5.62-15.02a44.53 44.53 0 0 0 2.29-9.02c1.2-8.85-1.67-14.14-4.28-17.03a14.979 14.979 0 0 0-1.52-1.46 23.882 23.882 0 0 0 3.56.44c.37.01.74.02 1.12.02a25.164 25.164 0 0 0 22.48-14.18c7.81-15.87 1.72-28.97.08-31.99 4.32-7.45 5.92-21.61 1.01-32.32zm-77.7 115.32h.01a7.829 7.829 0 0 1-.96 3.64 7.947 7.947 0 0 0 .95-3.64zm-11.81 8.5c.16 0 .33 0 .49-.01-.16.01-.32.02-.49.02zm-17.64-41.85-.05.13a.575.575 0 0 0-.06-.17.487.487 0 0 1 .11.04zm14.71 42.76-.01-.03h.01zm.06-17.03c-.04.12-.08.23-.12.35-.22.67-.4 1.36-.57 2.05a40.356 40.356 0 0 0-.64 12.5h.01v.02c.01.12.02.24.04.35a.885.885 0 0 0 .02.17c.01.04.01.08.02.12v.04l-.01.02v.01l.03.26h.01v.04l-1.06-.1-3.17-.31-.19-.02-.18-.02h-.01l-.13-.01-.19-.02-.19-.02-.13-.01h-.01l-.19-.02-.19-.02h-.01l-.13-.01H699l-.16-.01h-.02l-.04-.01-.28-.02h-.01l-.18-.02-.2-.02-2.64-.26a30.494 30.494 0 0 1-.07-12.62h-2.03a32.466 32.466 0 0 0 .34 13.77 1 1 0 0 0 .87.76l2.26.21a9.865 9.865 0 0 1-4.24 2.51 31.567 31.567 0 0 1-8.94-1.42c-.56-.18-1.09-.39-1.62-.6a20.261 20.261 0 0 1-4.85-2.76c-.15-.13-.3-.27-.44-.4s-.3-.28-.46-.41l-.15-.15c-.4-.37-.79-.75-1.15-1.15a18.087 18.087 0 0 1-1.17-1.45c-4.06-5.77-4-13.28-2.6-18.38 2.07-7.56 8.54-14.83 12.2-18.49 1.08.48 2.16.92 3.24 1.34.38.14.77.29 1.15.43.15.06.31.11.46.17-.13.57-.28 1.24-.44 2l-1.46 4.17-3.23 9.28c-.28.06-.54.13-.81.19-.46.1-.91.2-1.35.31a1.239 1.239 0 0 0-.86 1.53 1.225 1.225 0 0 0 .52.7 1.065 1.065 0 0 0 .74.15.569.569 0 0 0 .13-.01c.52-.12 1-.22 1.5-.33.19-.04.38-.09.57-.13l.08-.01c.16-.04.33-.08.48-.11a30.811 30.811 0 0 1 9.18-.73l.01-.01.03-.11v-.02l.01-.04v-.01h.01c.16.02.33.02.49.04v.01c.18.02.31.07.48.1l.05-.18-.04.18c.33.06.65.12.95.2l-.88-.03.01.01.87.03c.16.04.31.1.47.14.16.06.31.13.46.19s.32.12.46.18v.01c.03.01.06.01.08.03h.04c.01 0 .01.01.02.01.05.03.1.07.15.1s.11.06.16.09v.01l-.05.18v.01h.01c.03.02.05.04.08.06a1.471 1.471 0 0 0 .13.09l.09.06a6.175 6.175 0 0 1 .53.36c.05.05.09.11.14.15a3.6 3.6 0 0 1 .43.52 4.385 4.385 0 0 1 .32.51v.01a6.113 6.113 0 0 1 .36.83h.19v.01l-.19-.01v.01l-3.45-.08a.863.863 0 0 0-.91.55 18.907 18.907 0 0 0-.88 2.42.566.566 0 0 1-.04.12c-.18.65-.37 1.41-.54 2.27h2.03c.18-.88.39-1.63.57-2.23a1.434 1.434 0 0 0 .05-.16v-.01c.13-.4.25-.72.34-.96l3.32.07h.18v.01h.17v.01h.33l.18.01v-.01h.12v.01h.51v.01h.19l.18.01v-.01h.14v.01h.18v.01h.17v.01l4.23.1c-.092.24-.172.48-.26.72zm-11.59-8.92v-.01h.01v.01zm.75-.99.13-.5-.12.5zm.51.03.96.03v-.01l.1.01v-.16h.01v.16h-.01v.01h-.1l-.33 1.37c-.3-.1-.6-.19-.92-.27zm-.26-1.04v-.01h.01v.01zm4.47-.52a1.243 1.243 0 0 1-.58.14h-.01l-.4-.02h-.09l-.16-.01h-.14v-.01h.01l.21-.89 1.75.05.49.02-.48-.01a1.266 1.266 0 0 1-.17.35 1.726 1.726 0 0 1-.13.15 1.14 1.14 0 0 1-.3.23zm.12 1.04v.01a.01.01 0 0 1-.01-.01zm-.53 2.92c-.05.05-.1.09-.16.14a1.58 1.58 0 0 1-.36.2 7.462 7.462 0 0 0-1.26-.77l.12-.52 2.14.07a1.665 1.665 0 0 1-.48.88zm.44 4.6v.01h-.01v-.01zm-.04-2.88c-.03-.04-.06-.07-.09-.11h.01a1.05 1.05 0 0 1 .08.11zm-.38 3.87v.01h-.01v-.01zm-.81-4.59-.01.01h-.01l-.1.03a.691.691 0 0 0 .1-.04zm-.22 1.12h-.01a.549.549 0 0 0-.07-.09c.03.03.05.06.08.09zm-.09-5.42v-.01h.01v.01zm1.35-2.96h-.01l-2.13-.07-.58 2.42-.95-.03.61-2.47 2.6.07a1.6 1.6 0 0 1 .23.03.585.585 0 0 1 .18.04h.05c.01 0 .02.01.03.01a.108.108 0 0 1 .07.03c-.03-.01-.06-.02-.1-.03zm-2.25 7.9c-.08-.05-.15-.11-.24-.16v-.01a2.074 2.074 0 0 1 .24.17zm-.16-.52.01-.03v-.01h.01v.01l-.01.03zm.13-.51v-.01l.07.01zm-.47.89c-.07-.04-.15-.07-.22-.11v-.01c.07.04.15.08.22.12a2.411 2.411 0 0 1 .23.11v.02h-.01v-.01a1.194 1.194 0 0 0-.22-.12zm-.1-.42a.06.06 0 0 0-.04-.01l-.01.03h-.01l.01-.03v-.01h.01a.076.076 0 0 0 .04.02zm-.01-.19v-.01h.01v.01zm.22-.3c.01 0 .01.01.02.01h-.02c-.01-.01-.01-.01-.02-.01a1.179 1.179 0 0 1-.11-.05v-.01c.04.02.09.04.13.06zm-.1-.2v-.01l.04-.14-.03.14v.01zm-.45-.2v.01h-.01v-.01zm-.07.38h-.02v-.01zm-.49.5.34.01.01-.02.06.02h-.07v.01l-.02.11h-.01c-.11-.04-.2-.09-.31-.13l-.16-.01.01-.05h.01c.06.02.09.04.14.06zm-.04-.52.01-.04h.01a.432.432 0 0 1 .12.05zm.2-.84.05-.18-.04.18zm.11.92c.06.02.11.04.17.06v.01a1.221 1.221 0 0 0-.17-.07zm-1.25 6.85v.01h-.01v-.01zm16.98-13.26v.01l-4.64.97a1.545 1.545 0 0 0-1.19 1.82l1.62 7.79-6.11-.15v-.01c-.08-.31-.18-.61-.28-.9a4.715 4.715 0 0 0-.21-.52h.01c.06.17.13.34.2.52h1.05v-1.54h-1.77a.01.01 0 0 1-.01-.01 6.122 6.122 0 0 0-.54-.79v-.01a2.94 2.94 0 0 0 1.32-2.23l1.5.05.05-1.55-1.82-.06a3.619 3.619 0 0 0-.27-.41 2.562 2.562 0 0 0 1.07-1.85l2.11.07.04-1.55-2.27-.07a2.443 2.443 0 0 0-.56-.89 2.916 2.916 0 0 0-2-.79l-3.81-.12-.01.29v.04l.01-.04-.04 1.26.03-1.22-1.52 6.14v.01l-.01.01a28.713 28.713 0 0 0-8.12.33l4.92-14.12a90.8 90.8 0 0 0 17.62 3.75l.19.02c1.46.07 2.89.1 4.32.12-.19 1.15-.51 3.08-.88 5.63zm2.57-.55c.36-2.41.65-4.17.8-5.08 1.44 0 2.86-.03 4.25-.08l.27 4.04zm18.38 22.51a.971.971 0 0 0-.35.45h.01c.36.08.69.17 1.02.27l-.14.1s.05.05.14.15l.18.18c.06.07.14.15.23.24.07.07.15.15.23.24.16.16.35.36.55.57a14.581 14.581 0 0 0-2.02-.69h-.01l-.12-.15a1.046 1.046 0 0 1-.16-.57v-.07a1.141 1.141 0 0 1 .09-.26 8.26 8.26 0 0 0-2.16-.22l-1.37-6.6-.34-1.64-.15-.75-3-14.5a1.53 1.53 0 0 0-1.81-1.19l-1.3.27-.25-3.64a81.694 81.694 0 0 0 26.59-5.69 42.671 42.671 0 0 0-.88 4.75c-.74 5.51-6.08 12.64-8.75 14.68a7.882 7.882 0 0 0-3.01 5.3c-.04.31-.06.6-.07.89a9.4 9.4 0 0 0 .04 1.5q.045.39.12.78a2.182 2.182 0 0 0 .98 1.36c.32.2.66.45 1.01.7zm41.07-23.86a27.7 27.7 0 0 1-.26 3.68 42.84 42.84 0 0 1-2.18 8.56c-1.86 5.19-3.33 9.24-4.57 12.4-.27.7-.54 1.34-.79 1.95-.29.7-.56 1.35-.83 1.95-2.65 5.93-4.26 6.86-7.27 6.62-.38-.03-.78-.08-1.21-.14-.35-.04-.7-.1-1.08-.15l-.16-.03h-.03l-.8-.12-.53-.08c-.25-.34-1.01-1.34-2.1-2.7a63.587 63.587 0 0 0-9.4-10.6c-.89-.85-1.77-1.63-2.6-2.3a18.645 18.645 0 0 0-1.78-1.28 1.586 1.586 0 0 1-.05-.27 7.112 7.112 0 0 1-.07-1.46 5.9 5.9 0 0 1 .11-.93 5.559 5.559 0 0 1 2.12-3.52c2.89-2.22 8.73-9.73 9.61-16.24a30.885 30.885 0 0 1 1.32-6.16c.58-.28 1.14-.57 1.7-.86.43-.23.87-.44 1.29-.67.4-.22.78-.45 1.17-.68a50.871 50.871 0 0 0 5.12-3.38 16.128 16.128 0 0 1 9.3 4.88c2.62 2.9 3.97 6.84 3.97 11.53z"/>
                <path id="사각형_191" data-name="사각형 191" class="cls-3" transform="translate(713.858 -226.258)" d="M0 0h.01v.01H0z"/>
                <path id="패스_2640" data-name="패스 2640" class="cls-3" d="M721.668-218.578a9.675 9.675 0 0 1-.18 1.61l-.32-4.77a7.887 7.887 0 0 1 .5 3.16z"/>
                <path id="패스_2641" data-name="패스 2641" class="cls-3" d="M712.548-209.478v.01l-.73.12c.24-.04.49-.08.73-.13z"/>
                <path id="패스_2642" data-name="패스 2642" class="cls-3" d="M709.358-210.118c-.16.01-.32.02-.49.02v-.01c.16 0 .332 0 .49-.01z"/>
                <path id="사각형_192" data-name="사각형 192" class="cls-3" transform="translate(713.858 -226.258)" d="M0 0h.01v.01H0z"/>
                <path id="패스_2643" data-name="패스 2643" class="cls-3" d="m712.708-226.1-.03.31-.12-.01a2.8 2.8 0 0 0 .15-.3z"/>
                <path id="패스_2644" data-name="패스 2644" class="cls-3" d="M719.718-223.888a7.935 7.935 0 0 0-4.76-1.86h-.01l-.21-.02q.09-.225.18-.48h.01a5.58 5.58 0 0 0 .37-3.42 2.4 2.4 0 0 0-1.38-1.54 3.467 3.467 0 0 0-.57-.19 3.407 3.407 0 0 0-1.49.03c-.02.17-.05.35-.07.52l.06-.52a5 5 0 0 0-.52.14c-.17.07-.34.13-.51.21q-.075.585-.15 1.2c-.05.43-.1.86-.16 1.3q.27-.195.54-.36a3.645 3.645 0 0 1 .54-.3v-.01a1.909 1.909 0 0 1 1.51-.22v.01h.03a.487.487 0 0 1 .29.32 5.128 5.128 0 0 1-.62 2.82h-.01v.01c-.02.06-.05.1-.07.15a2.907 2.907 0 0 0-.04.31h-.12c-.09.19-.19.36-.28.52a.994.994 0 0 0 .01 1.05 1.636 1.636 0 0 0 .2.17.834.834 0 0 0 .23.19h.01l5.3-.01h1.7zm-6.17-1.66c.03-.07.07-.15.1-.22h.01c-.04.068-.07.15-.11.22zm.32-.7h-.01v-.01h.01z"/>
                <path id="패스_2645" data-name="패스 2645" class="cls-2" d="M704.778-210.338a.06.06 0 0 0 .01.04l-1.06-.1-3.17-.31-2.45-.23-2.64-.26a30.494 30.494 0 0 1-.07-12.62h-2.03a32.466 32.466 0 0 0 .34 13.77 1 1 0 0 0 .87.76l2.26.21a9.865 9.865 0 0 1-4.24 2.51 31.567 31.567 0 0 1-8.94-1.42c-.56-.18-1.09-.39-1.62-.6a20.261 20.261 0 0 1-4.85-2.76c-.15-.13-.3-.27-.44-.4s-.3-.28-.46-.41l-.15-.15c-.4-.37-.79-.75-1.15-1.15a18.087 18.087 0 0 1-1.17-1.45c-4.06-5.77-4-13.28-2.6-18.38 2.07-7.56 8.54-14.83 12.2-18.49 1.08.48 2.16.92 3.24 1.34.38.14.77.29 1.15.43.15.06.31.11.46.17-.13.57-.28 1.24-.44 2l-1.46 4.17-3.23 9.28c-.28.06-.54.13-.81.19-.46.1-.91.2-1.35.31a1.239 1.239 0 0 0-.86 1.53 1.225 1.225 0 0 0 .52.7 1.065 1.065 0 0 0 .74.15.569.569 0 0 0 .13-.01c.52-.12 1-.22 1.5-.33.19-.04.38-.09.57-.13l.08-.01c.16-.04.33-.08.48-.11a30.811 30.811 0 0 1 9.18-.73l.01-.01-.27 1.12 2.51.09-.4 1.68h3.66a6.113 6.113 0 0 1 .36.83v.01l-3.45-.08a.863.863 0 0 0-.91.55 18.907 18.907 0 0 0-.88 2.42.566.566 0 0 1-.04.12c-.18.65-.37 1.41-.54 2.27h2.03c.18-.88.39-1.63.57-2.23a1.434 1.434 0 0 0 .05-.16v-.01c.13-.4.25-.72.34-.96l3.32.07h.18v.01h.17v.01h.33l.18.01v-.01h.12v.01h.51v.01h.19l.18.01v-.01h.14v.01h.18v.01h.17v.01l4.23.1c-.09.24-.17.48-.26.72-.04.12-.08.23-.12.35-.22.67-.4 1.36-.57 2.05a40.356 40.356 0 0 0-.64 12.5v.02h.01c.01.12.02.24.04.35a.885.885 0 0 0 .02.17.859.859 0 0 0 .01.16v.03z"/>
                <path id="패스_2646" data-name="패스 2646" class="cls-2" d="M704.678-211.328v.02h-.01v-.02z"/>
                <path id="패스_2647" data-name="패스 2647" class="cls-2" d="M704.758-210.668v.04l-.01.02v-.02a.859.859 0 0 1-.01-.16c.01.04.01.08.02.12z"/>
                <path id="패스_2648" data-name="패스 2648" class="cls-2" d="M704.788-210.338v.04a.06.06 0 0 1-.01-.04z"/>
                <path id="사각형_193" data-name="사각형 193" class="cls-3" transform="translate(694.978 -226.228)" d="M0 0h.01v.01H0z"/>
                <path id="사각형_194" data-name="사각형 194" class="cls-3" transform="translate(699.478 -228.118)" d="M0 0h.01v.01H0z"/>
                <path id="사각형_195" data-name="사각형 195" class="cls-3" transform="translate(699.898 -229.108)" d="M0 0h.01v.01H0z"/>
                <path id="사각형_196" data-name="사각형 196" class="cls-3" transform="translate(694.978 -226.228)" d="M0 0h.01v.01H0z"/>
                <path id="사각형_197" data-name="사각형 197" class="cls-3" transform="translate(694.978 -226.228)" d="M0 0h.01v.01H0z"/>
                <path id="사각형_198" data-name="사각형 198" class="cls-3" transform="translate(699.478 -228.118)" d="M0 0h.01v.01H0z"/>
                <path id="패스_2649" data-name="패스 2649" class="cls-3" d="M704.788-210.338v.04a.06.06 0 0 1-.01-.04z"/>
                <path id="패스_2650" data-name="패스 2650" class="cls-3" d="M704.758-210.668v.01l-.01.03a.859.859 0 0 1-.01-.16c.01.04.01.08.02.12z"/>
                <path id="패스_2651" data-name="패스 2651" class="cls-3" d="M704.758-210.658v.03l-.01.02v-.02z"/>
                <path id="패스_891" data-name="패스 891" class="cls-2" d="M728.946-214.495c.125.6.2.948.2.948a2.092 2.092 0 0 1-.111.632 2.109 2.109 0 0 0 .9.581l-.559-2.7a1.077 1.077 0 0 0-.426.542z"/>
                <path id="패스_892" data-name="패스 892" class="cls-2" d="m730.07-215.31.661 3.194a3.593 3.593 0 0 0 .387.05.951.951 0 0 1 .405.123l-.7-3.4a3.909 3.909 0 0 0-.749.033z"/>
                <path id="패스_893" data-name="패스 893" class="cls-2" d="M729.592-215.185a1.178 1.178 0 0 0-.22.148l.559 2.7a4.613 4.613 0 0 0 .8.217l-.661-3.192a2.036 2.036 0 0 0-.479.125z"/>
                <path id="패스_894" data-name="패스 894" class="cls-2" d="M728.955-213a.8.8 0 0 0 .078.087 2.1 2.1 0 0 0 .11-.632s-.071-.347-.2-.948c-.344.967-.078 1.36.01 1.492z"/>
                <path id="패스_895" data-name="패스 895" class="cls-3" d="m729.915-209.843-1.41.3a7.328 7.328 0 0 0-1.236 4.927h.975a6.905 6.905 0 0 1 1.671-5.223z"/>
                <path id="패스_2652" data-name="패스 2652" class="cls-3" d="M729.158-216.068c-.08.04-.17.09-.25.13s-.15.1-.23.16c-.06-.31-.13-.66-.21-1.02a1.975 1.975 0 0 1 .38-.2.317.317 0 0 1 .09-.03h.02z"/>
                <path id="패스_897" data-name="패스 897" class="cls-3" d="M731.07-211.082s-.121-.008-.3-.032a.776.776 0 0 1-.538.446l-1.1.23a11.29 11.29 0 0 0-.626.892l1.41-.3a9.613 9.613 0 0 1 1.155-1.24z"/>
                <path id="패스_898" data-name="패스 898" class="cls-3" d="M728.225-211.013a4.685 4.685 0 0 0 .962.508c-.018.019-.033.046-.051.066l1.1-.23a.779.779 0 0 0 .54-.447 5.6 5.6 0 0 1-.982-.221z"/>
                <path id="패스_2653" data-name="패스 2653" class="cls-3" d="M729.868-216.268v.01h-.01c-.12.02-.23.04-.35.07s-.23.08-.35.13v-.01l-.2-.96a3.516 3.516 0 0 1 .43-.13.792.792 0 0 1 .13-.03.832.832 0 0 1 .15-.04z"/>
                <path id="패스_900" data-name="패스 900" class="cls-3" d="M727.935-212.3a.235.235 0 0 0 .229.188h.048a.9.9 0 0 0 .159-.061 2.169 2.169 0 0 1-.283-.383.23.23 0 0 0-.154.26z"/>
                <path id="패스_901" data-name="패스 901" class="cls-3" d="M729.2-206.082a7.818 7.818 0 0 1 2.506-4.249.987.987 0 0 0 .294-1.068.971.971 0 0 0-.471-.544l.038.183a1.54 1.54 0 0 1-1.183 1.82l-.463.1a6.914 6.914 0 0 0-1.669 5.225h1a4.409 4.409 0 0 1-.047-1.463z"/>
                <path id="패스_902" data-name="패스 902" class="cls-3" d="M728.681-215.774c.1.506.195.934.265 1.28a1.08 1.08 0 0 1 .426-.541l-.213-1.027a2.274 2.274 0 0 0-.478.288z"/>
                <path id="패스_903" data-name="패스 903" class="cls-3" d="M729.033-212.914a1.161 1.161 0 0 1-.659.74 3.367 3.367 0 0 0 1.412.837l.29-.061a.052.052 0 0 0 .04-.057l-.183-.88a2.091 2.091 0 0 1-.9-.58z"/>
                <path id="패스_2654" data-name="패스 2654" class="cls-3" d="M730.818-215.338h-.01a3.06 3.06 0 0 0-.74.03l-.2-.95v-.01h.01a4.525 4.525 0 0 1 .74-.06z"/>
                <path id="패스_905" data-name="패스 905" class="cls-3" d="M730.379-209.941a1.539 1.539 0 0 0 1.181-1.818l-.037-.184a.963.963 0 0 0-.405-.125 3.312 3.312 0 0 1-.386-.05l.106.509a.785.785 0 0 1-.072.493c.183.024.3.032.3.032a9.679 9.679 0 0 0-1.155 1.24l.463-.1z"/>
                <path id="패스_906" data-name="패스 906" class="cls-3" d="M730.114-211.455a.051.051 0 0 1-.039.058l-.291.059a5.7 5.7 0 0 0 .982.223.784.784 0 0 0 .07-.493l-.106-.509a4.732 4.732 0 0 1-.8-.217z"/>
                <path id="패스_2655" data-name="패스 2655" class="cls-3" d="M732.768-216.018v-.01c-.04-.04-.08-.09-.13-.14a1.046 1.046 0 0 1-.16-.57.171.171 0 0 0 .01-.07 1.429 1.429 0 0 1 .09-.27c.36.08.69.17 1.02.27l-.14.1s.05.05.14.15l.18.18c.06.07.14.15.23.24.07.07.15.15.23.24.16.16.35.36.55.57a14.581 14.581 0 0 0-2.02-.69z"/>
                <path id="패스_908" data-name="패스 908" class="cls-2" d="m714.012-232.553-4.116.865a.5.5 0 0 1-.588-.387l-.839-4.05a.506.506 0 0 1 .385-.6l4.116-.865a.5.5 0 0 1 .589.39l.838 4.05a.5.5 0 0 1-.385.592z"/>
                <path id="패스_909" data-name="패스 909" class="cls-3" d="m714.618-233.188-.84-4.07a.717.717 0 0 0-.31-.45.729.729 0 0 0-.54-.1l-4.13.87a.712.712 0 0 0-.55.85l.84 4.07a.717.717 0 0 0 .7.57.771.771 0 0 0 .15-.02l4.13-.87a.72.72 0 0 0 .55-.85zm-.65.4-4.13.87h-.01a.252.252 0 0 1-.3-.2l-.84-4.07a.262.262 0 0 1 .2-.31l4.13-.87c.02 0 .04-.01.06-.01a.326.326 0 0 1 .14.04.3.3 0 0 1 .12.17l.84 4.07a.261.261 0 0 1-.21.31z"/>
                <path id="패스_910" data-name="패스 910" class="cls-2" d="M712.917-236.14a.708.708 0 0 1-.553.835.708.708 0 0 1-.835-.552.708.708 0 0 1 .551-.835.71.71 0 0 1 .837.552z"/>
                <path id="패스_911" data-name="패스 911" class="cls-3" d="M712.225-235.055a.941.941 0 0 1-.927-.955.941.941 0 0 1 .739-.9.935.935 0 0 1 .7.136.918.918 0 0 1 .4.592.941.941 0 0 1-.723 1.113.954.954 0 0 1-.192.019zm0-1.425a.419.419 0 0 0-.1.011.474.474 0 0 0-.3.209.487.487 0 0 0-.069.364.481.481 0 0 0 .566.377.486.486 0 0 0 .375-.574.477.477 0 0 0-.207-.306.469.469 0 0 0-.264-.08z"/>
                <path id="패스_912" data-name="패스 912" class="cls-2" d="M710.818-235.7a.708.708 0 0 1-.553.835.708.708 0 0 1-.835-.552.708.708 0 0 1 .551-.835.71.71 0 0 1 .837.552z"/>
                <path id="패스_913" data-name="패스 913" class="cls-3" d="M710.125-234.613a.94.94 0 0 1-.945-.935.942.942 0 0 1 .936-.945.941.941 0 0 1 .925.75.941.941 0 0 1-.724 1.111.954.954 0 0 1-.192.019zm0-1.425a.419.419 0 0 0-.1.011.475.475 0 0 0-.3.209.487.487 0 0 0 .14.672.474.474 0 0 0 .361.068.485.485 0 0 0 .376-.573.487.487 0 0 0-.208-.307.476.476 0 0 0-.264-.08z"/>
                <path id="패스_914" data-name="패스 914" class="cls-2" d="M713.374-233.934a.708.708 0 0 1-.552.835.708.708 0 0 1-.836-.552.708.708 0 0 1 .551-.835.712.712 0 0 1 .837.552z"/>
                <path id="패스_915" data-name="패스 915" class="cls-3" d="M712.683-232.849a.932.932 0 0 1-.932-.934.933.933 0 0 1 .933-.932.934.934 0 0 1 .933.934.933.933 0 0 1-.746.913.851.851 0 0 1-.188.019zm0-1.425a.479.479 0 0 0-.1.01.485.485 0 0 0-.377.573.485.485 0 0 0 .573.377.485.485 0 0 0 .377-.573.485.485 0 0 0-.473-.387z"/>
                <path id="패스_916" data-name="패스 916" class="cls-2" d="M711.3-233.5a.708.708 0 0 1-.552.835.708.708 0 0 1-.836-.552.708.708 0 0 1 .551-.835.714.714 0 0 1 .837.552z"/>
                <path id="패스_917" data-name="패스 917" class="cls-3" d="M710.609-232.413a.908.908 0 0 1-.51-.154.922.922 0 0 1-.4-.594.932.932 0 0 1 .728-1.1.932.932 0 0 1 1.1.727.933.933 0 0 1-.728 1.1.878.878 0 0 1-.191.019zm0-1.426a.478.478 0 0 0-.1.01.488.488 0 0 0-.373.581.488.488 0 0 0 .208.3.478.478 0 0 0 .361.068.486.486 0 0 0 .378-.574.486.486 0 0 0-.478-.388z"/>
                <path id="패스_2656" data-name="패스 2656" class="cls-3" d="M687.418-253.268a.121.121 0 0 0-.05.05.121.121 0 0 0-.05.05l-.85-.52c.25.1.51.2.76.3l.18.12z"/>
                <path id="선_139" data-name="선 139" class="cls-4" transform="translate(687.228 -253.388)" d="M.19.11 0 0"/>
                <path id="패스_2657" data-name="패스 2657" class="cls-3" d="M687.318-253.168a1.226 1.226 0 0 0-.07.17v.01l-1.88-1.15c.02.01.03.01.05.02.35.14.7.29 1.05.43z"/>
                <path id="패스_2658" data-name="패스 2658" class="cls-3" d="m729.788-211.338-1.56.33h-.01a3.461 3.461 0 0 1-.89-.9 3.5 3.5 0 0 1-.23-3.25 3.027 3.027 0 0 1 .96-1.35l-1.53-7.38c-.12-.55-.23-1.12-.35-1.68l-.15-.71c-1.2-5.8-2.38-11.49-2.48-11.98-.17-.8-.75-.75-.77-.75a.191.191 0 0 1-.15-.04l-.03-.36a.338.338 0 0 1 .12-.06 1.22 1.22 0 0 1 1.29 1.11c.1.5 1.29 6.24 2.5 12.08.04.24.1.48.14.72.12.56.24 1.12.35 1.67.56 2.67 1.08 5.2 1.47 7.09.08.36.15.71.21 1.02.06.26.1.49.15.7s.09.41.12.58v.01l-.01.01a3.515 3.515 0 0 0-.114.407 3.953 3.953 0 0 0-.024.127 1.788 1.788 0 0 0-.022.207 1.31 1.31 0 0 0 .039.435l.009.033a.935.935 0 0 0 .132.261v.01l.07.07.01.01v.01a1 1 0 0 1-.19.35.156.156 0 0 1-.06.08 1.071 1.071 0 0 1-.19.18c-.07.04-.14.08-.22.12h-.01a3.583 3.583 0 0 1-.28-.37v-.01a.054.054 0 0 0-.04.03c-.01-.01-.02 0-.03.02a.043.043 0 0 0-.04.04s-.01 0 0 .01a.18.18 0 0 0-.04.16.235.235 0 0 0 .23.19h.05l.15-.06a2.7 2.7 0 0 0 .32.27 3.468 3.468 0 0 0 1.1.56z"/>
                <path id="패스_923" data-name="패스 923" class="cls-3" d="M729.372-215.037a1.178 1.178 0 0 1 .22-.148 2.086 2.086 0 0 1 .479-.125l-.2-.958a2.988 2.988 0 0 0-.713.2z"/>
                <path id="패스_2659" data-name="패스 2659" class="cls-3" d="M759.4-341.038c-.34.26-.67.52-.99.8-.07.06-.13.12-.2.18-.39.33-.76.68-1.13 1.04-.11-.08-.23-.16-.34-.24.07-.08.15-.15.23-.23.14-.14.29-.28.44-.41.23-.21.47-.42.72-.64h.01c.29-.27.59-.51.9-.75.118.08.238.16.36.25z"/>
                <path id="패스_2660" data-name="패스 2660" class="cls-3" d="M760.988-339.858c-.46.33-.9.68-1.33 1.04-.35.3-.69.6-1.02.92-.11-.08-.21-.17-.33-.25a3.665 3.665 0 0 1 .3-.27.551.551 0 0 1 .16-.15c.17-.17.34-.31.51-.46a1.056 1.056 0 0 1 .12-.1c.4-.35.82-.68 1.24-.99h.01c.12.09.23.17.34.26z"/>
                <path id="패스_926" data-name="패스 926" class="cls-3" d="M757.66-338.61a23.433 23.433 0 0 1 2.337-2c-.2-.147-.4-.284-.6-.428a24.919 24.919 0 0 0-2.319 2.024c.2.134.389.271.584.408z"/>
                <path id="패스_2661" data-name="패스 2661" class="cls-3" d="M760.638-340.118c-.42.31-.84.64-1.24.99a1.056 1.056 0 0 0-.12.1c-.17.15-.34.29-.51.46a.551.551 0 0 0-.16.15 3.488 3.488 0 0 0-.3.26c-.06-.04-.12-.09-.19-.13a1.272 1.272 0 0 0-.19-.13c-.09-.07-.17-.13-.26-.19.37-.37.74-.71 1.13-1.04a.549.549 0 0 1 .09-.07 10.707 10.707 0 0 1 .85-.69c.08-.07.17-.13.25-.2l.01-.01c.22.16.42.318.64.5z"/>
                <path id="패스_2662" data-name="패스 2662" class="cls-3" d="M725.378-307.108a1.182 1.182 0 0 1-.97.52 1.187 1.187 0 0 1-.73-.22 5.405 5.405 0 0 0-3.05-.91 6.206 6.206 0 0 0-3.33.88 1.21 1.21 0 0 1-1.65-.49c-.01 0-.01 0-.01-.01a1.239 1.239 0 0 1 .5-1.67 8.645 8.645 0 0 1 4.55-1.18 7.8 7.8 0 0 1 4.39 1.36 1.234 1.234 0 0 1 .3 1.72z"/>
                <path id="패스_2663" data-name="패스 2663" class="cls-3" d="M686.368-306.258a1.218 1.218 0 0 1-.97.53h-.01a1.225 1.225 0 0 1-.72-.22 5.339 5.339 0 0 0-3.05-.92 6.127 6.127 0 0 0-3.33.89 1.218 1.218 0 0 1-1.65-.49.01.01 0 0 0-.01-.01 1.234 1.234 0 0 1 .5-1.67 8.654 8.654 0 0 1 4.55-1.19 7.731 7.731 0 0 1 4.39 1.37 1.222 1.222 0 0 1 .3 1.71z"/>
                <path id="패스_2664" data-name="패스 2664" class="cls-3" d="M726.338-290.848c-.1.15-2.58 3.7-6.24 3.78h-.12c-3.08-.01-4.51-2.78-4.84-4.26a.948.948 0 0 1 .71-1.13.94.94 0 0 1 1.12.71c.03.12.64 2.79 2.99 2.79h.1c2.7-.06 4.72-2.94 4.74-2.96a.924.924 0 0 1 1.29-.25.01.01 0 0 1 .01.01.944.944 0 0 1 .24 1.31z"/>
                <path id="패스_2665" data-name="패스 2665" class="cls-3" d="M687.908-292.528a.959.959 0 0 1-.17.54c-.1.15-2.57 3.7-6.24 3.78h-.11c-3.08-.01-4.51-2.78-4.84-4.27a.935.935 0 0 1 .67-1.14.934.934 0 0 1 1.15.67c0 .02.01.04.01.06.03.15.68 2.79 3.02 2.79h.07c2.7-.06 4.71-2.94 4.73-2.97a.942.942 0 0 1 1.3-.24.946.946 0 0 1 .41.78z"/>
                <path id="패스_2666" data-name="패스 2666" class="cls-3" d="m762.338-291.588-.46-12.71-.01-.19q.24 2.49.36 4.98.21 3.96.11 7.92z"/>
                <path id="패스_2667" data-name="패스 2667" class="cls-2" d="M764.058-305.128c-.12-1.11-.27-2.2-.43-3.3a.442.442 0 0 0 .16.06 1.286 1.286 0 0 0 .16.17z"/>
                <path id="패스_934" data-name="패스 934" class="cls-3" d="m762.957-304.95.5 13.454a107.724 107.724 0 0 0-.5-13.454z"/>
                <path id="패스_2668" data-name="패스 2668" class="cls-3" d="m764.568-291.568-.51-13.54a105.624 105.624 0 0 1 .51 13.54z"/>
                <path id="패스_936" data-name="패스 936" class="cls-3" d="M762.3-311.779a88.536 88.536 0 0 0-.864-4.155l.1 2.625a63.281 63.281 0 0 1 1.423 8.36l-.173-4.621a22.231 22.231 0 0 1-.484-2.208z"/>
                <path id="패스_2669" data-name="패스 2669" class="cls-3" d="M756.728-339.258c-.04.04-.07.08-.11.12a1.2 1.2 0 0 1-.11.12 1.5 1.5 0 0 0-.11-.13c-.3-.31-.6-.59-.9-.89.42.26.83.51 1.23.78z"/>
                <path id="패스_2670" data-name="패스 2670" class="cls-3" d="M758.128-340.538c-.25.22-.49.43-.72.64-.15.13-.3.27-.44.41-.08.08-.16.15-.23.23h-.01c-.4-.27-.81-.52-1.23-.78a48.983 48.983 0 0 0-12.23-8.85 60.019 60.019 0 0 1 10.91 4.59 45.165 45.165 0 0 1 3.84 3.61h-.01z"/>
                <path id="패스_2671" data-name="패스 2671" class="cls-3" d="M757.078-339.018c-.1.1-.19.21-.29.31-.1-.1-.18-.21-.28-.31a1.2 1.2 0 0 0 .11-.12l.12-.12c.11.08.23.158.34.24z"/>
                <path id="패스_2672" data-name="패스 2672" class="cls-3" d="M758.638-337.9c-.1.1-.2.21-.3.31s-.2.21-.3.31a4.011 4.011 0 0 0-.27-.31c.18-.19.35-.37.54-.56.12.082.22.172.33.25z"/>
                <path id="패스_2673" data-name="패스 2673" class="cls-3" d="M757.658-338.608c-.15.14-.27.29-.41.43-.15-.18-.3-.36-.46-.53.1-.1.19-.21.29-.31.2.14.38.27.58.41z"/>
                <path id="패스_2674" data-name="패스 2674" class="cls-3" d="M758.308-338.148c-.19.19-.36.37-.54.56-.17-.2-.34-.39-.52-.59.14-.14.26-.29.41-.43h.01c.09.06.17.12.26.19a1.272 1.272 0 0 1 .19.13c.07.05.13.088.19.14z"/>
                <path id="패스_2675" data-name="패스 2675" class="cls-3" d="M762.788-309.568c-.16-.52-.3-1.23-.49-2.21-.21-1.12-.48-2.54-.86-4.16l-.07-1.73v-.06a42.652 42.652 0 0 1 1.27 4.27z"/>
                <path id="패스_2676" data-name="패스 2676" class="cls-3" d="M763.628-308.438v.01a1.122 1.122 0 0 1-.28-.16 1.619 1.619 0 0 1-.49-.76c-.02-.07-.05-.14-.07-.22l-.15-3.89q.6 2.445.99 5.02z"/>
                <path id="패스_2677" data-name="패스 2677" class="cls-3" d="m667.288-310.948-.05.27v.01l-.99 5.16-.28 1.5-.35 1.83v.01l-.62 3.23-.26 1.37v.01l-.31 1.66-.01.01-.13.71v.01l-.06.29.03-.28c.03-.23.05-.46.08-.68v-.01c.06-.54.13-1.08.21-1.61a.014.014 0 0 1 0-.02c.02-.19.04-.37.07-.55l.12-.86c.04-.24.07-.48.12-.72 0-.04.01-.07.01-.11q.225-1.485.51-2.97c.1-.53.2-1.06.32-1.59q.135-.7.3-1.41c.29-1.37.62-2.73.98-4.08.1-.39.2-.79.31-1.18z"/>
                <path id="패스_946" data-name="패스 946" class="cls-3" d="M730.618-216.328a4.525 4.525 0 0 0-.74.06h-.01l-.2-.96a.832.832 0 0 0-.15.04c.05-.01.1-.02.14-.03l.2.95v.01h.01a1.1 1.1 0 0 1 .18-.02 2.34 2.34 0 0 1 .38-.03.971.971 0 0 1 .17-.01l.21.98h.01zm-25.95 5v.02h.01v-.02zm-17.26-41.94c-.01.02-.03.03-.04.05a.121.121 0 0 1 .05-.05zm-.09.09v.01a.121.121 0 0 1 .05-.05c-.02 0-.03.018-.05.04zm-1.9-.94c-.02-.01-.03-.01-.05-.02l1.88 1.15V-253zm-21.93-26.43a6.02 6.02 0 0 1-2.57.67c-.11 0-.21-.03-.32-.04v.02c.11.01.22.04.33.04a5.97 5.97 0 0 0 2.58-.68c.01.02.03.03.04.05v-.09zm-16.13-22.35-.12-.21a4.953 4.953 0 0 0-.85 1.27 8.02 8.02 0 0 0-.95 4.74 32.4 32.4 0 0 1 1.91-4.21 1.517 1.517 0 0 0 .01-1.592z"/>
                <path id="패스_2678" data-name="패스 2678" class="cls-2" d="M773.988-241.388a27.7 27.7 0 0 1-.26 3.68 42.84 42.84 0 0 1-2.18 8.56c-1.86 5.19-3.33 9.24-4.57 12.4-.27.7-.54 1.34-.79 1.95-.29.7-.56 1.35-.83 1.95-2.65 5.93-4.26 6.86-7.27 6.62-.38-.03-.78-.08-1.21-.14-.35-.04-.7-.1-1.08-.15l-.16-.03h-.03l-.8-.12-.53-.08c-.25-.34-1.01-1.34-2.1-2.7a63.587 63.587 0 0 0-9.4-10.6c-.89-.85-1.77-1.63-2.6-2.3a18.645 18.645 0 0 0-1.78-1.28 1.586 1.586 0 0 1-.05-.27 7.112 7.112 0 0 1-.07-1.46 5.9 5.9 0 0 1 .11-.93 5.559 5.559 0 0 1 2.12-3.52c2.89-2.22 8.73-9.73 9.61-16.24a30.885 30.885 0 0 1 1.32-6.16c.58-.28 1.14-.57 1.7-.86.43-.23.87-.44 1.29-.67.4-.22.78-.45 1.17-.68a50.871 50.871 0 0 0 5.12-3.38 16.128 16.128 0 0 1 9.3 4.88c2.62 2.9 3.97 6.84 3.97 11.53z"/>
                <path id="패스_2679" data-name="패스 2679" class="cls-2" d="M748.778-251.028a42.671 42.671 0 0 0-.88 4.75c-.74 5.51-6.08 12.64-8.75 14.68a7.882 7.882 0 0 0-3.01 5.3c-.04.31-.06.6-.07.89a9.4 9.4 0 0 0 .04 1.5q.045.39.12.78a2.182 2.182 0 0 0 .98 1.36c.32.2.66.45 1.01.7l-5.3 3.54a.971.971 0 0 0-.35.45h.01a1.429 1.429 0 0 0-.09.27.171.171 0 0 1-.01.07v-.07a1.141 1.141 0 0 1 .09-.26 8.26 8.26 0 0 0-2.16-.22l-1.37-6.6-.34-1.64-.15-.75-3-14.5a1.53 1.53 0 0 0-1.81-1.19l-1.3.27-.25-3.64a81.694 81.694 0 0 0 26.59-5.69z"/>
                <path id="패스_2680" data-name="패스 2680" class="cls-2" d="m719.858-241.158-5.32 1.12c.36-2.41.65-4.17.8-5.08 1.44 0 2.86-.03 4.25-.08z"/>
                <path id="패스_2681" data-name="패스 2681" class="cls-2" d="m727.528-223.878-.35-1.66-.15-.73-2.94-14.19-1.55.32-1.28.26-1.3.27-5.66 1.17-1.54.32-.52.11-.51.11-4.1.85 1.46 7.11a8.689 8.689 0 0 1 1.72-1.07l-.15 1.2c-.05.43-.11.86-.16 1.3a11.97 11.97 0 0 0-.96.8c-.25.23-.46.46-.65.66-.06.06-.12.13-.17.18a.836.836 0 0 1-.47.29v.01l.07.32h-.58l.06-.3h-.01l-.06.32h.37c-.05.13-.1.25-.14.38a20.216 20.216 0 0 0-.61 2.01 38.663 38.663 0 0 0-.67 12.69h.01c.77.05 1.51.06 2.23.04-.01.17-.02.34-.02.5l.03-.49.49-.03c.17-.01.33-.01.5-.03.51-.03.99-.09 1.48-.16h.01v-.02h-.01c.06-.91.12-1.83.19-2.75l.55 2.67.2.97h.01l-.2-.97c.25-.05.48-.11.72-.17a10.743 10.743 0 0 0 4.53-2.09 6.5 6.5 0 0 0 2.3-4.96 4.687 4.687 0 0 0-1.31-3.78c-1.86-1.71-5.13-1.35-5.16-1.35a1.083 1.083 0 0 1-.5-.09h-.26c.01-.06.01-.13.02-.19a1.636 1.636 0 0 1-.2-.17.994.994 0 0 1-.01-1.05c.09-.16.19-.33.28-.52h.12l-.12-.01a2.8 2.8 0 0 0 .15-.3l-.03.31a2.907 2.907 0 0 1 .04-.31c0-.05.01-.1.01-.15.12-1.08.25-2.13.37-3.15v-.01a1.909 1.909 0 0 0-1.51.22v.01a3.645 3.645 0 0 0-.54.3q-.27.165-.54.36c.06-.44.11-.87.16-1.3q.075-.615.15-1.2c.17-.08.34-.14.51-.21a5 5 0 0 1 .52-.14l-.06.52c.02-.17.05-.35.07-.52a3.407 3.407 0 0 1 1.49-.03 3.467 3.467 0 0 1 .57.19 2.4 2.4 0 0 1 1.38 1.54 5.58 5.58 0 0 1-.37 3.42h-.01q-.09.255-.18.48l.21.02h.01a7.935 7.935 0 0 1 4.76 1.86l.01.02a5.723 5.723 0 0 1 1.43 2.13l.32 4.77a8.206 8.206 0 0 1-2.81 4.8 12.523 12.523 0 0 1-5.4 2.54l.34 1.64 8.36-1.73 1.3-.27.05.77h.01l-.05-.77 1.31-.27 3.63-.75a3.461 3.461 0 0 1-.89-.9 3.5 3.5 0 0 1-.23-3.25 3.027 3.027 0 0 1 .96-1.35l-1.53-7.38c-.12-.55-.23-1.12-.35-1.68l-.15-.71c-1.2-5.8-2.38-11.49-2.48-11.98-.17-.8-.75-.75-.77-.75a.191.191 0 0 1-.15-.04v.01a.23.23 0 0 1-.12-.17.252.252 0 0 1 .09-.2.338.338 0 0 1 .12-.06 1.22 1.22 0 0 1 1.29 1.11c.1.5 1.29 6.24 2.5 12.08.04.24.1.48.14.72.12.56.24 1.12.35 1.67.56 2.67 1.08 5.2 1.47 7.09a1.975 1.975 0 0 1 .38-.2.317.317 0 0 1 .09-.03zm-13.46-8.46-4.13.87a.771.771 0 0 1-.15.02.717.717 0 0 1-.7-.57l-.84-4.07a.712.712 0 0 1 .55-.85l4.13-.87a.729.729 0 0 1 .54.1.717.717 0 0 1 .31.45l.84 4.07a.72.72 0 0 1-.55.85zm7.42 15.37-.32-4.77a7.887 7.887 0 0 1 .5 3.16 9.675 9.675 0 0 1-.18 1.61z"/>
                <path id="패스_2682" data-name="패스 2682" class="cls-2" d="M712.848-245.118c-.19 1.15-.51 3.08-.88 5.63v.01l-4.64.97a1.545 1.545 0 0 0-1.19 1.82l1.62 7.79-6.11-.15v-.01c-.08-.31-.18-.61-.28-.9h1.05v-1.54h-1.77a.01.01 0 0 1-.01-.01 6.122 6.122 0 0 0-.54-.79v-.01a2.94 2.94 0 0 0 1.32-2.23l1.5.05.05-1.55-1.82-.06a3.619 3.619 0 0 0-.27-.41 2.562 2.562 0 0 0 1.07-1.85l2.11.07.04-1.55-2.27-.07a2.443 2.443 0 0 0-.56-.89 2.916 2.916 0 0 0-2-.79l-3.81-.12-.01.29v.04l-1.52 6.14v.01l-.01.01a28.713 28.713 0 0 0-8.12.33l4.92-14.12a90.8 90.8 0 0 0 17.62 3.75l.19.02c1.46.07 2.89.1 4.32.12z"/>
                <path id="패스_947" data-name="패스 947" class="cls-4" d="M673.816-324.93"/>
                <path id="패스_2683" data-name="패스 2683" class="cls-3" d="m667.238-310.668-.99 5.16-.28 1.5-.35 1.83v.01l-.62 3.23-.26 1.37v.01l-.31 1.66-.01.01-.13.71v.01l-.06.29v.01c-.2 1.72-.36 3.44-.47 5.17-.07.86-.12 1.73-.15 2.59q-.075 1.29-.09 2.58c-.02.42-.02.83-.03 1.25-.11.12-.22.22-.34.33h-.01v.01a3.44 3.44 0 0 1-1.13.61 1.338 1.338 0 0 1-.18.07h-.01l-.06.31a.829.829 0 0 1-.06.21 1.863 1.863 0 0 1-.1.2 2.106 2.106 0 0 1-.14.17 1.15 1.15 0 0 1-.17.14 1.132 1.132 0 0 1-.62.19c-.03 0-.05-.01-.08-.01h-.01v-.01c.01-.36.02-.71.04-1.07.02-.63.07-1.25.13-1.88.06-.65.13-1.3.23-1.95v-.01c.08-.65.19-1.3.32-1.94a40.521 40.521 0 0 1 1.71-6.28q.2-.54.42-1.08v-.01c.26-.69.55-1.36.85-2.03h.01v-.01l.01-.01c.1-.24.21-.47.32-.7.02-.03.03-.07.05-.1.03-.26.06-.51.1-.77l.09-.71c0-.04.01-.07.01-.11.14-1.01.31-2.01.48-3.01.1-.53.2-1.05.31-1.58v-.01c.09-.47.19-.93.3-1.39.3-1.36.64-2.71 1.02-4.06.08-.3.17-.6.26-.9z"/>
                <path id="패스_2684" data-name="패스 2684" class="cls-3" d="M672.3-323.338a47.633 47.633 0 0 0-2.39 4.93q1-2.475 2.27-5.03a1.056 1.056 0 0 1 .12.1z"/>
                <path id="패스_950" data-name="패스 950" class="cls-4" d="m674.113-327.035.06-.1-.06.1"/>
                <path id="패스_951" data-name="패스 951" class="cls-4" d="M676.142-330.3c.092-.138.19-.277.283-.415-.093.138-.191.277-.283.415"/>
                <path id="패스_952" data-name="패스 952" class="cls-4" d="M677.288-331.948c.143-.2.291-.393.437-.588-.146.2-.294.392-.437.588"/>
                <path id="패스_953" data-name="패스 953" class="cls-4" d="M675.086-328.654c.051-.086.106-.17.159-.255-.054.084-.109.169-.159.255"/>
                <path id="패스_954" data-name="패스 954" class="cls-4" d="M678.532-333.612c.2-.255.408-.506.611-.76-.2.253-.414.505-.611.76"/>
                <path id="패스_955" data-name="패스 955" class="cls-4" d="M679.876-335.273c.276-.328.567-.652.857-.977-.29.325-.581.649-.857.977"/>
                <path id="패스_956" data-name="패스 956" class="cls-4" d="M682.875-338.54a49.133 49.133 0 0 0-1.554 1.622q.75-.82 1.554-1.622"/>
                <path id="패스_2685" data-name="패스 2685" class="cls-3" d="M684.228-337.228a51.965 51.965 0 0 0-9.86 13.01 2.728 2.728 0 0 0-.43-.58 1.592 1.592 0 0 0-.13-.13 3.58 3.58 0 0 0-.29-.26 2.374 2.374 0 0 0-.3-.23v-.01h-.01c.29-.53.59-1.07.9-1.61.02-.03.04-.07.06-.1.15-.25.3-.5.45-.76s.3-.5.46-.76c.05-.08.11-.17.16-.25l.45-.69c.15-.23.3-.46.45-.7.1-.13.19-.27.29-.41.28-.42.57-.83.86-1.24.14-.2.29-.39.44-.59.26-.36.53-.72.8-1.07.1-.13.21-.26.31-.38s.2-.25.31-.38c.24-.3.48-.6.73-.9.14-.17.28-.33.42-.49s.28-.33.43-.49c.1-.11.19-.22.3-.33.09-.11.19-.23.29-.34.25-.28.5-.55.76-.82s.52-.54.79-.8h.01c.49.43.93.87 1.35 1.31z"/>
                <path id="패스_2686" data-name="패스 2686" class="cls-3" d="M686.408-339.208c-.76.65-1.48 1.31-2.18 1.98-.42-.44-.86-.88-1.35-1.31.68-.69 1.4-1.36 2.14-2.02h.01c.25.22.48.44.71.68.23.22.462.44.67.67z"/>
                <path id="패스_2687" data-name="패스 2687" class="cls-3" d="M754.178-344.3a60.019 60.019 0 0 0-10.91-4.59 61.047 61.047 0 0 0-26.53-6.85h-.49c-15.73 0-26.79 5.85-34.25 12.85h-.01c-.61-.4-1.26-.79-1.95-1.16 7.81-7.54 19.48-13.93 36.21-13.93h.51c11.21.092 26.42 4.392 37.42 13.68z"/>
                <path id="패스_960" data-name="패스 960" class="cls-3" d="M779.178-299.588c-.36-9.75-4.92-17.99-11.02-21.2a39.107 39.107 0 0 0-8.5-18.03 3.88 3.88 0 0 0-.26-.31 31 31 0 0 0-.51-.59c-.15-.17-.31-.34-.47-.51a.01.01 0 0 0-.01-.01c-.08-.1-.18-.2-.27-.3h-.01c-.25.22-.49.43-.72.64s-.45.42-.67.64c.11.08.23.16.34.24.2.14.38.27.58.41h.01c.09.06.17.12.26.19a1.272 1.272 0 0 1 .19.13c.07.05.13.09.19.14.12.08.22.17.33.25-.1.1-.2.21-.3.31s-.2.21-.3.31a36.672 36.672 0 0 1 7.63 15.48l-.19-.2a3.526 3.526 0 0 0-3-1.4l-.39-.07a.652.652 0 0 0-.24-.02h-.42a43.86 43.86 0 0 0-5.93-10.69c-.09-.11-.17-.23-.26-.35-.02-.03-.04-.05-.06-.08-.14-.18-.3-.35-.44-.53s-.32-.37-.47-.56c-.09-.11-.18-.22-.28-.33a41.218 41.218 0 0 0-15.16-11.02 62.867 62.867 0 0 0-22.26-4.74 44.506 44.506 0 0 0-31.77 11.02l.04.03c.07.06.12.12.19.17.08.07.16.15.24.23s.16.15.24.23l.06.06a1.363 1.363 0 0 1 .17.17c.23.21.45.44.67.67a42.486 42.486 0 0 1 30.06-10.35c.34.02.67.05 1.01.07 18.26 1.06 28.93 7.72 35.27 15.36a17.816 17.816 0 0 0-1.06 2.09 1.174 1.174 0 0 0 .68 1.5 1.18 1.18 0 0 0 1.49-.68c.01-.02.15-.38.43-.92a41.572 41.572 0 0 1 4.86 8.9 2.019 2.019 0 0 0-1.01.81 3.3 3.3 0 0 0 .19 3.08 48.738 48.738 0 0 1 3.53 14.85c.01.07.01.13.02.2.16 1.6.27 3.19.35 4.79q.21 3.96.11 7.92c-.08 3.83-.32 7.86-.75 12.05a4.575 4.575 0 0 0-.02.98c.24 2.8 2.15 3.09 3.03 3.12l.38.04c.04 0 .08.01.12.01h.03a3.982 3.982 0 0 0 3.7-2 14.483 14.483 0 0 0 4.23-3.18c4.11-4.39 6.4-11.5 6.12-19.02zm-15.72 8.08-.5-13.37c.09.87.16 1.74.23 2.61a107.3 107.3 0 0 1 .27 10.76zm3.82 12.32h.01c-.01.02-.02.05-.03.07-.65 1.25-1.02 1.45-2.12 1.49l-.36-.04c-.05 0-.09-.01-.13-.01h-.03c-.26 0-.5.01-.66-.29l-.08-2.17c.31-3.2.59-7.15.69-11.43l-.51-13.54v-.02c-.12-1.11-.27-2.2-.43-3.3v-.01a1.509 1.509 0 0 1-.28-.15 1.619 1.619 0 0 1-.49-.76 1.585 1.585 0 0 1-.07-.2v-.02l-.01-.01.17 4.45c-.05-.4-.09-.81-.15-1.21-.01-.09-.03-.17-.04-.26-.02-.26-.06-.52-.1-.78v-.01c-.07-.5-.15-.99-.23-1.49-.05-.32-.11-.64-.17-.96s-.11-.65-.18-.98l-.15-.75c-.07-.29-.13-.59-.2-.89a.425.425 0 0 1-.02-.11l-.07-.31-.11-.44-.1-2.63-.06-1.72v-.07c-.32-.88-.66-1.73-1.03-2.55a2.893 2.893 0 0 1-.3-.9 6.3 6.3 0 0 1 1.23-.07h.5l.38.07c.03.01.06 0 .1.01l.11.34-.01-.29c.28 0 .56.03.84.05a3.3 3.3 0 0 1 .68.61c.18.2.4.43.67.69l.12.12a9.6 9.6 0 0 1 1.86 3.35 45.875 45.875 0 0 1 1.96 7.47c1.81 9.6 2.24 22.88-1.2 29.65zm4.16-2.91c-.32.32-.65.63-.99.91 3.08-9.95 1.43-27.02-1.75-35.59-.03-.4-.08-.8-.13-1.2 4.68 3.31 8.08 10.32 8.39 18.48.01.38.02.75.02 1.13 0 6.5-2.03 12.53-5.54 16.268z"/>
                <path id="패스_2688" data-name="패스 2688" class="cls-2" d="M776.978-298.368c0 6.5-2.03 12.53-5.54 16.27-.32.32-.65.63-.99.91 3.08-9.95 1.43-27.02-1.75-35.59-.03-.4-.08-.8-.13-1.2 4.68 3.31 8.08 10.32 8.39 18.48.01.38.02.75.02 1.13z"/>
                <path id="패스_2689" data-name="패스 2689" class="cls-2" d="M767.278-279.188h.01c-.01.02-.02.05-.03.07-.65 1.25-1.02 1.45-2.12 1.49l-.36-.04c-.05 0-.09-.01-.13-.01h-.03c-.26 0-.5.01-.66-.29l-.08-2.17c.31-3.2.59-7.15.69-11.43a105.624 105.624 0 0 0-.51-13.54v-.02l-.11-3.07a1.286 1.286 0 0 1-.16-.17.442.442 0 0 1-.16-.06v-.01q-.39-2.58-.99-5.02a42.652 42.652 0 0 0-1.27-4.27v-.01c-.32-.88-.66-1.73-1.03-2.55a2.893 2.893 0 0 1-.3-.9 6.3 6.3 0 0 1 1.23-.07h.5l.38.07c.03.01.06 0 .1.01l.11.34-.01-.29c.28 0 .56.03.84.05a3.3 3.3 0 0 1 .68.61c.18.2.4.43.67.69l.12.12a9.6 9.6 0 0 1 1.86 3.35 45.875 45.875 0 0 1 1.96 7.47c1.81 9.6 2.24 22.88-1.2 29.65z"/>
                <path id="패스_961" data-name="패스 961" class="cls-3" d="M685.025-340.56c.5.451.952.9 1.383 1.356-.431-.452-.885-.9-1.383-1.356z"/>
                <path id="패스_2690" data-name="패스 2690" class="cls-3" d="M682.878-338.538a29.487 29.487 0 0 0-1.56 1.62c-.1.11-.2.23-.29.34s-.19.22-.29.33c-.14.16-.29.32-.44.49s-.28.32-.42.49c-.25.3-.49.6-.73.9-.11.13-.21.25-.31.38s-.2.25-.3.38c-.28.35-.55.71-.81 1.07-.15.2-.3.39-.44.59-.29.41-.58.82-.86 1.24-.1.14-.19.28-.28.41-.16.24-.31.47-.46.7s-.3.46-.44.69c-.06.08-.11.17-.16.25-.16.26-.31.51-.47.76s-.3.51-.45.76c-.02.03-.04.07-.06.1-.31.54-.61 1.08-.9 1.61a4.721 4.721 0 0 0-.53-.33 54.951 54.951 0 0 1 9.93-13.01c.08.08.18.15.26.23z"/>
                <path id="패스_963" data-name="패스 963" class="cls-4" d="M675.245-328.909q.435-.693.9-1.386a79.22 79.22 0 0 0-.9 1.386"/>
                <path id="패스_964" data-name="패스 964" class="cls-4" d="M674.113-327.035q-.469.807-.9 1.606.434-.8.9-1.606"/>
                <path id="패스_965" data-name="패스 965" class="cls-4" d="M674.173-327.139q.441-.754.912-1.515-.473.76-.912 1.515"/>
                <path id="패스_966" data-name="패스 966" class="cls-4" d="M677.725-332.538c.264-.358.529-.718.806-1.074-.277.356-.543.715-.806 1.074"/>
                <path id="패스_967" data-name="패스 967" class="cls-4" d="M679.144-334.371c.243-.3.482-.6.732-.9-.251.3-.489.6-.732.9"/>
                <path id="패스_968" data-name="패스 968" class="cls-4" d="M676.425-330.71"/>
                <path id="패스_969" data-name="패스 969" class="cls-4" d="M680.733-336.25c.2-.223.385-.448.588-.668-.2.22-.392.446-.588.668"/>
                <path id="패스_2691" data-name="패스 2691" class="cls-3" d="M682-342.9v.01h-.01c-.75.71-1.45 1.41-2.13 2.13a21.132 21.132 0 0 0-1.98-1.09q.51-.555 1.05-1.11c.36-.36.73-.73 1.11-1.09.698.372 1.348.75 1.96 1.15z"/>
                <path id="패스_2692" data-name="패스 2692" class="cls-3" d="M685.018-340.558c-.74.66-1.46 1.33-2.14 2.02h-.01c-.08-.08-.18-.15-.26-.23.71-.69 1.43-1.35 2.19-2l.04.04c.062.06.12.11.18.17z"/>
                <path id="패스_2693" data-name="패스 2693" class="cls-3" d="M669.968-325.178a.6.6 0 0 1 0 .19l-.08.46h-.01a.784.784 0 0 0-.14-.05c.062-.19.162-.4.23-.6z"/>
                <path id="패스_2694" data-name="패스 2694" class="cls-3" d="M666.488-294.838v.04a114.541 114.541 0 0 0-.78 11.7 1.274 1.274 0 0 1-.01.2 3.138 3.138 0 0 1-.28.68 3.129 3.129 0 0 1-.82.99 3.48 3.48 0 0 1-.37.26 4.5 4.5 0 0 1-.67.39.01.01 0 0 1-.01.01v-.01c0-.6.02-1.2.05-1.81-.01 0 0-.01 0-.01v-.01c.03-.61.07-1.22.14-1.83v-.01c.04-.45.1-.9.17-1.34a34.962 34.962 0 0 1 1.17-5.35c.13-.44.27-.87.42-1.31s.31-.86.47-1.29.34-.87.52-1.3z"/>
                <path id="패스_2695" data-name="패스 2695" class="cls-3" d="M674.338-322.4c-3.23 5.6-5.24 12.49-6.5 18.92-.34 1.7-.62 3.36-.85 4.96-.08.51-.15 1-.22 1.49v.01c-.06.47-.12.93-.17 1.39l-.06.43c-.01.12-.03.24-.04.36 0 .01-.01.02-.01.03v.01c-.18.42-.36.84-.52 1.26s-.32.86-.47 1.29-.29.87-.42 1.31-.25.88-.37 1.32c-.09.33-.17.67-.24 1-.05.23-.11.47-.15.7-.05.2-.08.39-.12.58-.05.25-.09.49-.13.73-.06.34-.11.68-.16 1.02-.06.45-.11.91-.16 1.36l-.09.91v.01c-.02.31-.04.62-.05.93-.03.6-.05 1.2-.05 1.8v.02h-.01a.076.076 0 0 1-.04.02 5.97 5.97 0 0 1-2.58.68c-.11 0-.22-.03-.33-.04v-.02c-.01-.37-.01-.75-.01-1.13.03 0 .05.01.08.01a1.132 1.132 0 0 0 .62-.19 1.15 1.15 0 0 0 .17-.14.607.607 0 0 0 .14-.17 1.863 1.863 0 0 0 .1-.2.579.579 0 0 0 .07-.21l.06-.31a1.338 1.338 0 0 0 .18-.07 3.44 3.44 0 0 0 1.13-.61h.01v-.01a2.6 2.6 0 0 0 .35-.32c0-.42.01-.83.03-1.25.02-.86.05-1.73.08-2.59s.09-1.73.15-2.59c.12-1.73.28-3.45.47-5.17v-.01l.06-.29v-.01l.13-.71.01-.01.31-1.66.01-.01.26-1.37.61-3.23c.01-.01.01-.01 0-.01l.36-1.82c.01-.01 0-.01 0-.01l.28-1.49.99-5.17c.31-1.07.65-2.18 1.03-3.31.28-.86.59-1.72.93-2.61.11-.29.23-.59.34-.89h.03a.5.5 0 0 0 .12.02 2.512 2.512 0 0 0 .78-.15c.1-.04.19-.08.29-.12l.21-.12c.02-.01.03-.02.05-.03.08-.05.14-.1.21-.15a2 2 0 0 0 .22-.19 1.548 1.548 0 0 0 .24-.27 2.813 2.813 0 0 0 .24-.36v-.01a2.217 2.217 0 0 0 .16-.35c.12-.32.25-.64.38-.96s.26-.64.4-.95.27-.61.4-.92c.34-.74.71-1.46 1.09-2.18a.351.351 0 0 1 .05.08l.01.01a1.833 1.833 0 0 1-.09 1.73z"/>
                <path id="패스_2696" data-name="패스 2696" class="cls-3" d="M669.538-317.478c-.12.3-.23.6-.33.89-.34.89-.65 1.75-.93 2.61a81.88 81.88 0 0 0-1.04 3.3l.05-.27a68.68 68.68 0 0 1 2.21-6.53z"/>
                <path id="패스_2697" data-name="패스 2697" class="cls-3" d="M669.968-325.178c-.07.2-.17.41-.23.6a12.307 12.307 0 0 0-1.55-.43 3.255 3.255 0 0 0-.62-.06c.15-.43.35-.91.54-1.38.22.03.45.06.67.1l.33.06v-.01a1.108 1.108 0 0 1 .86 1.12z"/>
                <path id="패스_978" data-name="패스 978" class="cls-3" d="M673.808-324.928a3.58 3.58 0 0 0-.29-.26 3.149 3.149 0 0 0-.3-.24h-.01a4.721 4.721 0 0 0-.53-.33 12.09 12.09 0 0 0-2.12-.91 49.65 49.65 0 0 1 9.3-14.09 21.132 21.132 0 0 0-1.98-1.09 51.942 51.942 0 0 0-9.47 14.62 4.664 4.664 0 0 0-3.83.91 14.171 14.171 0 0 0-5.26 2.22c-4.99 3.35-8.81 9.76-10.22 17.15-.17.91-.31 1.81-.39 2.7-.07.55-.12 1.09-.14 1.62-.05.77-.07 1.52-.05 2.26v.01a28.7 28.7 0 0 0 .68 5.89q.27 1.185.63 2.31c.21.64.44 1.26.7 1.86a16.3 16.3 0 0 0 6.3 7.77 4.275 4.275 0 0 0 3.35 2.59c.14.02.27.03.41.04v-.02c-.01-.37-.01-.76-.01-1.13h.01c.03 0 .05.01.08.01a1.132 1.132 0 0 0 .62-.19 1.15 1.15 0 0 0 .17-.14 2.106 2.106 0 0 0 .14-.17 1.863 1.863 0 0 0 .1-.2.829.829 0 0 0 .06-.21l.06-.31a2.564 2.564 0 0 1-1.2.13h-.01c-1.19-.25-1.74-.94-1.69-1.17a1.15 1.15 0 0 0 0-.37c0-.02-.02-.11-.04-.28-.12-1.2-.21-2.4-.26-3.6 0-.01-.01-.01-.01-.02-.03-.68-.06-1.35-.08-2.03-.01-.44-.01-.88-.01-1.32-.02-.44-.02-.89 0-1.33 0-1.02.03-2.03.08-3.05q.075-1.71.24-3.42c.13-1.53.31-3.07.55-4.59.12-.87.26-1.73.42-2.59a78.98 78.98 0 0 1 5.64-18.1c.05-.07.11-.14.17-.21a2.177 2.177 0 0 1 1.81-.88.674.674 0 0 1 .14.02c.15-.43.35-.91.54-1.38.22.03.45.06.67.1.11.01.22.03.33.05a1.108 1.108 0 0 1 .86 1.12.6.6 0 0 1 0 .19l-.09.46h.01c.33.11.65.24.95.36s.58.26.81.38a3.735 3.735 0 0 1 .53.35 1.056 1.056 0 0 1 .12.1 47.633 47.633 0 0 0-2.39 4.93c-.13.31-.25.62-.37.93h.04a.486.486 0 0 0 .12.01 2.9 2.9 0 0 0 .78-.14c.1-.04.19-.08.29-.12l.21-.12c.02-.01.03-.02.05-.03.08-.05.14-.1.21-.15a2 2 0 0 0 .22-.19 1.548 1.548 0 0 0 .24-.27 2.813 2.813 0 0 0 .24-.36v-.01a2.217 2.217 0 0 0 .16-.35c.12-.32.24-.64.38-.96.12-.32.25-.64.4-.95.12-.31.26-.62.4-.92.34-.74.71-1.46 1.09-2.18a2.728 2.728 0 0 0-.43-.58 1.592 1.592 0 0 0-.13-.13zm-16.76 22.15c-.08.48-.14.95-.19 1.43-.07.47-.12.95-.17 1.42a77.863 77.863 0 0 0-.43 8.09c-.01.43-.01.87 0 1.3s.01.85.02 1.27c.03 1.26.1 2.51.19 3.77a13.9 13.9 0 0 1-3.07-3.87c-.27-.48-.51-.98-.74-1.5a15.271 15.271 0 0 1-.6-1.56 25.807 25.807 0 0 1-1.29-9.82q.03-.645.09-1.29c.04-.43.08-.86.14-1.3.08-.55.17-1.12.28-1.68 1.3-6.82 4.76-12.69 9.27-15.72a12.266 12.266 0 0 1 2.24-1.18 80.64 80.64 0 0 0-5.74 20.64z"/>
                <path id="패스_2698" data-name="패스 2698" class="cls-2" d="M656.468-285.5a13.9 13.9 0 0 1-3.07-3.87 10.712 10.712 0 0 0 2.34.13 4.881 4.881 0 0 0 .54-.03c.03 1.262.1 2.512.19 3.77z"/>
                <path id="패스_2699" data-name="패스 2699" class="cls-2" d="M662.788-323.418a80.64 80.64 0 0 0-5.74 20.64 11.7 11.7 0 0 0-6.05-2.06c.08-.55.17-1.12.28-1.68 1.3-6.82 4.76-12.69 9.27-15.72a12.266 12.266 0 0 1 2.24-1.18z"/>
                <path id="패스_2700" data-name="패스 2700" class="cls-2" d="m765.668-321.8-.19-.2a3.526 3.526 0 0 0-3-1.4l-.39-.07a.652.652 0 0 0-.24-.02h-.42a43.86 43.86 0 0 0-5.93-10.69c-.09-.11-.17-.23-.26-.35-.02-.03-.04-.05-.06-.08-.14-.18-.3-.35-.44-.53s-.32-.37-.47-.56c-.09-.11-.18-.22-.28-.33a41.218 41.218 0 0 0-15.16-11.02 62.867 62.867 0 0 0-22.26-4.74 44.506 44.506 0 0 0-31.77 11.02c-.76.65-1.48 1.31-2.19 2a54.951 54.951 0 0 0-9.93 13.01 12.09 12.09 0 0 0-2.12-.91 49.65 49.65 0 0 1 9.3-14.09c.68-.72 1.38-1.42 2.13-2.13H682c7.46-7 18.52-12.85 34.25-12.85h.49a61.047 61.047 0 0 1 26.53 6.85 48.983 48.983 0 0 1 12.23 8.85c.3.3.6.58.9.89a1.5 1.5 0 0 1 .11.13c.1.1.18.21.28.31.16.17.31.35.46.53.18.2.35.39.52.59a4.011 4.011 0 0 1 .27.31 36.672 36.672 0 0 1 7.628 15.48z"/>
                <path id="패스_2701" data-name="패스 2701" class="cls-4" d="M669.908-318.408c-.13.31-.28.61-.4.92"/>
                <path id="패스_980" data-name="패스 980" class="cls-4" d="M672.8-324.666c.133-.252.278-.508.415-.762-.137.255-.282.511-.415.762"/>
                <path id="패스_981" data-name="패스 981" class="cls-4" d="M673.213-325.429a4.772 4.772 0 0 1 .6.5 4.772 4.772 0 0 0-.6-.5"/>
                <path id="패스_982" data-name="패스 982" class="cls-4" d="M674.371-324.218a2.569 2.569 0 0 0-.426-.578 2.569 2.569 0 0 1 .426.578"/>
                <path id="패스_2702" data-name="패스 2702" class="cls-2" d="M666.178-295.688a5.608 5.608 0 0 0 .36.49c-.01.12-.03.24-.04.36 0 .01-.01.02-.01.03v.01a114.541 114.541 0 0 0-.78 11.7 1.274 1.274 0 0 1-.01.2 3.138 3.138 0 0 1-.28.68c-.6-.67-1.16-1.35-1.67-2.01l-.01-.01v-.01a3.189 3.189 0 0 1-.21-.27.01.01 0 0 1-.01-.01c-.08-.11-.17-.22-.25-.34-.15-.19-.29-.39-.42-.58-.07-.09-.13-.18-.19-.27a28.397 28.397 0 0 1-.9-1.39c-.17-.28-.32-.54-.46-.8s-.26-.48-.38-.72a11.271 11.271 0 0 1-.59-1.32q-.12-.315-.21-.6v-.01a2.224 2.224 0 0 1-.09-.32 1.786 1.786 0 0 1-.05-.19c-.03-.13-.05-.25-.07-.37s-.03-.22-.04-.32a.375.375 0 0 1-.01-.1v-.05c-.04-.58-.05-1.12.11-1.22l3.46-2.15.91-.56v-.01l.08-.04.01-.01.67-.42a.49.49 0 0 1 .28-.09.215.215 0 0 1 .11.02c.02 0 .03.01.03 0a1.172 1.172 0 0 1 .11.05.405.405 0 0 1 .09.05c.01.01.02.01.01.02a.284.284 0 0 1 .09.1z"/>
                <path id="패스_2703" data-name="패스 2703" class="cls-2" d="M676.168-286.488a.01.01 0 0 0 .01.01c-.08-.04-.16-.08-.24-.13a1.008 1.008 0 0 0 .23.12z"/>
                <path id="패스_2704" data-name="패스 2704" class="cls-2" d="M684.388-284.978h.01a9.576 9.576 0 0 1-1.09.11 13.293 13.293 0 0 1-3.55-.3 9.636 9.636 0 0 1 .11 5.87 1.268 1.268 0 0 1-1.18.87 1.1 1.1 0 0 1-.44-.07 1.289 1.289 0 0 1-.8-1.63 6.993 6.993 0 0 0-1.2-6.24.414.414 0 0 1-.07-.11c.24.13.49.24.74.35q.285.135.57.24c.23.1.46.18.69.26h.01c.06.02.11.04.16.06.18.06.36.11.54.17q.435.12.87.21v.01a13.293 13.293 0 0 0 3.55.3c.37-.022.73-.05 1.08-.1z"/>
                <path id="패스_2705" data-name="패스 2705" class="cls-2" d="M690.908-287.558c-.19.14-.4.27-.6.39.2-.13.4-.26.59-.39z"/>
                <path id="패스_2706" data-name="패스 2706" class="cls-2" d="M689.828-279.078a1.279 1.279 0 0 1-1.23-.87 7.969 7.969 0 0 0-4.19-5.03 11.563 11.563 0 0 0 1.2-.23c.09-.02.17-.03.26-.05a.542.542 0 0 0 .15-.04c.08-.03.17-.05.25-.08a11.053 11.053 0 0 0 1.44-.48c.11-.04.21-.09.31-.13.26-.11.52-.23.78-.35-.35.18-.71.34-1.08.49a11.4 11.4 0 0 1 3.3 5.06 1.285 1.285 0 0 1-.8 1.63.986.986 0 0 1-.38.07z"/>
                <path id="패스_2707" data-name="패스 2707" class="cls-2" d="M691.148-287.518a.85.85 0 0 1-.23-.04c.36-.24.7-.49 1.04-.75a4.464 4.464 0 0 0 .42-.34h.01l.48-.39c.26-.22.5-.43.73-.65 2.19.58 5.31 2.01 6.51 5.51a1.285 1.285 0 0 1-.8 1.63.985.985 0 0 1-.38.07v.01a1.282 1.282 0 0 1-1.24-.87 5.089 5.089 0 0 0-1.4-2.13l-1.79-1.18c-.01 0-.02-.01-.03-.01a10.28 10.28 0 0 0-3.32-.86z"/>
                <path id="패스_2708" data-name="패스 2708" class="cls-2" d="M712.5-277.438c-.02.01-.04.03-.06.04-.94.86-1.87 1.65-2.81 2.37-.16.12-.33.24-.49.36a30.48 30.48 0 0 1-9.08 4.7l-.7.21-.69.18c-.46.12-.92.22-1.37.31-.06.01-.11.02-.16.03h-.01c-.11.02-.21.04-.31.06l-.4.06c-.11.02-.22.04-.34.05-.42.07-.84.12-1.25.16s-.82.07-1.23.09h-.01c-.02-.01-.03-.01-.05-.02-.69-.27-2.95-.94-3.72-2.78a2.821 2.821 0 0 1-.11-.31 1.478 1.478 0 0 0-.23-1v-.01a5.176 5.176 0 0 1 .1-1.71c.59-2.64 3.13-2.81 4.85-2.81a13.184 13.184 0 0 0 2.08-.11 20.425 20.425 0 0 0 8.09-2.75c1.23-.76 2.44-1.57 3.62-2.42l.84 1.05.76.94z"/>
                <path id="패스_2709" data-name="패스 2709" class="cls-3" d="M714.158-275.5a39.523 39.523 0 0 1-6.98 5.2 30.065 30.065 0 0 1-4.12 2.02c-.62.25-1.23.47-1.84.67l-.27.09c-.01 0-.02.01-.03.01-.39.12-.78.24-1.16.34a27.517 27.517 0 0 1-3.54.73 27.321 27.321 0 0 1-3.32.27 30.676 30.676 0 0 1-5.82-.46c.25-.39.5-.79.73-1.2a27.639 27.639 0 0 0 8.03.11l.69-.09q1.065-.18 2.13-.42a.142.142 0 0 1 .06-.02.309.309 0 0 1 .08-.02h.02l.56-.15.41-.12a26.516 26.516 0 0 0 3.55-1.27h.01a35.688 35.688 0 0 0 9.95-6.64l-.8-.99a1.273 1.273 0 0 1 1.74.12v.01a1.281 1.281 0 0 1-.08 1.81z"/>
                <path id="패스_2710" data-name="패스 2710" class="cls-2" d="M660.748-284.008c-.06.63-.11 1.25-.13 1.88h-.01c-1.19-.25-1.74-.94-1.69-1.17a1.15 1.15 0 0 0 0-.37c0-.02-.02-.11-.04-.28-.12-1.2-.21-2.4-.26-3.6a24.6 24.6 0 0 0 2.13 3.54z"/>
                <path id="패스_2711" data-name="패스 2711" class="cls-3" d="M698.408-295.578c-.03.04-.12.2-.25.41l-.86-1.05a.452.452 0 0 1-.04.06.581.581 0 0 1-.04.07c-.04.07-.1.16-.17.29-.06.08-.12.19-.2.3a26.578 26.578 0 0 1-1.29 1.79c-.18.22-.36.45-.56.68-.39.47-.83.96-1.31 1.45-.24.25-.49.5-.76.75s-.53.5-.82.74l-.08.08h-.01c-.09.08-.18.15-.28.23-.14.12-.29.24-.44.35-.42.33-.87.65-1.33.95-.26.17-.52.33-.79.48a5.213 5.213 0 0 1-.52.28c-.21.12-.44.23-.66.33a13.226 13.226 0 0 1-1.51.61h-.01a12.371 12.371 0 0 1-3.01.61 12.283 12.283 0 0 1-1.68 0h-.02c-.28-.03-.57-.06-.86-.1h-.02c-.29-.05-.58-.1-.88-.17h-.02c-.29-.07-.58-.14-.87-.23a.037.037 0 0 1-.03-.01q-.48-.15-.96-.33c-.32-.12-.64-.26-.96-.41a2.556 2.556 0 0 1-.24-.11c-.24-.12-.48-.24-.73-.38-.16-.09-.32-.18-.49-.28-.13-.08-.27-.16-.4-.25a25.476 25.476 0 0 1-5-4.24c-.19-.2-.37-.4-.55-.61-.76-.84-1.51-1.76-2.27-2.77v-.01c-.22-.28-.43-.57-.64-.86a.65.65 0 0 0-.08-.09v-.01a.673.673 0 0 0-.14-.15 1.836 1.836 0 0 0-.55-.37c-.08-.03-.17-.06-.26-.09-.03 0-.05-.01-.07-.01a2.509 2.509 0 0 0-.27-.04h-.03a2.225 2.225 0 0 0-.57.07.694.694 0 0 1-.13.05h-.01a.4.4 0 0 0-.09.05.419.419 0 0 0-.1.04 1 1 0 0 0-.14.08l-.11.07-.01.01v.01h-.01l-4.98 3.08a1.478 1.478 0 0 0-.51.55 1.532 1.532 0 0 0-.11.27 2.694 2.694 0 0 0-.07.27 1.237 1.237 0 0 0-.02.2 1.794 1.794 0 0 0-.02.22c-.01.01-.01.01 0 .02v.01c-.01.01-.01.01 0 .02a1.086 1.086 0 0 0-.01.18.885.885 0 0 0 0 .23 1.925 1.925 0 0 0 .01.24c0 .08.01.16.01.24a3.5 3.5 0 0 0 .05.44 2.794 2.794 0 0 0 .07.38 3.635 3.635 0 0 0 .1.42c.03.13.07.26.11.39a4.28 4.28 0 0 0 .15.42c.05.14.1.28.16.43a14.349 14.349 0 0 0 .87 1.84c.09.16.18.33.27.49s.19.33.3.5a4.641 4.641 0 0 0 .32.5v.01c.15.24.31.49.48.73s.34.5.52.75.36.51.56.76.39.51.6.77h.01v.01c.14.18.28.35.45.53v.02a.01.01 0 0 0 .01.01c.31.38.64.77.99 1.15l.3.33c.42.46.86.92 1.33 1.38.44.45.91.91 1.4 1.35.31.29.63.57.95.85.37.32.74.64 1.13.95s.77.63 1.17.93c.34.26.69.52 1.04.77a41.015 41.015 0 0 0 3.79 2.46c.44.26.89.5 1.34.74.31.16.62.32.93.47a3 3 0 0 0 .32.15c.32.17.64.32.97.46.01 0 .02.01.03.01.1.05.2.09.3.13.31.14.62.27.93.4q.435.18.87.33a3.386 3.386 0 0 0 .41.15c.25.1.52.19.78.27.26.1.53.18.8.26.45.14.9.27 1.36.39-.24.39-.5.75-.76 1.12a35.481 35.481 0 0 1-4-1.35 45.85 45.85 0 0 1-15.97-11.29c-.16-.17-.32-.35-.47-.52-.01-.02-.03-.03-.04-.05a.035.035 0 0 1-.02-.01 38.72 38.72 0 0 1-1.48-1.78q-.675-.84-1.26-1.68a24.6 24.6 0 0 1-2.13-3.54c0-.01-.01-.01-.01-.02a13.214 13.214 0 0 1-.8-1.88 8.376 8.376 0 0 1-.35-1.24 6.331 6.331 0 0 1-.15-1.01c0-.08-.01-.17-.02-.27a3.48 3.48 0 0 1 1.31-3.33.01.01 0 0 1 .01-.01l5.13-3.18a2.766 2.766 0 0 1 1-.4c.01-.02.02-.02.03-.01a.926.926 0 0 1 .23-.04h.01a2.626 2.626 0 0 1 .74-.01 2.918 2.918 0 0 1 1.21.42c.01 0 .02.01.03.01a3.114 3.114 0 0 1 .9.84l.15.21c5.02 6.91 10.11 10.29 15.13 10.03 7.72-.39 12.98-9.34 13.03-9.43v-.01a1.274 1.274 0 0 1 1.74-.45 1.287 1.287 0 0 1 .47 1.75z"/>
                <path id="패스_2712" data-name="패스 2712" class="cls-3" d="M687.808-267.828c-.24.41-.48.81-.73 1.2-1.06-.19-2.1-.42-3.09-.7.26-.37.52-.73.76-1.12 1 .26 2.03.46 3.06.62z"/>
                <path id="패스_2713" data-name="패스 2713" class="cls-3" d="M713.3-276.448c-.88.81-1.76 1.56-2.65 2.25-.22.17-.44.34-.66.5-.14.11-.28.21-.42.31-.2.15-.41.29-.62.44s-.41.29-.62.42c-.33.22-.66.43-1 .64-.08.05-.17.1-.25.15-.36.22-.72.42-1.08.62a33.838 33.838 0 0 1-1.13.6c-.5.25-1.01.49-1.52.71h-.01a26.516 26.516 0 0 1-3.55 1.27l-.41.12c-.19.05-.37.1-.56.14v.01h-.02a.309.309 0 0 0-.08.02c-.02 0-.04.01-.06.01v.01l-.69.15c-.19.04-.37.08-.56.11-.29.06-.58.11-.88.16h-.01l-.68.09c-.56.07-1.12.13-1.67.17a1.476 1.476 0 0 1-.21.01c-.28.02-.56.04-.83.04a28.442 28.442 0 0 1-5.32-.33c.22-.4.45-.79.66-1.21a26.928 26.928 0 0 0 5.12.22h.01q.615-.03 1.23-.09c.41-.04.82-.09 1.24-.15l.01-.01c.12-.01.23-.03.34-.05l.4-.06c.1-.02.2-.04.31-.06h.01c.05-.01.1-.02.16-.03.45-.09.91-.19 1.37-.31l.69-.18.7-.21a30.48 30.48 0 0 0 9.08-4.7c.16-.12.33-.24.49-.36.94-.72 1.87-1.51 2.81-2.37.02-.01.04-.03.06-.04z"/>
                <path id="패스_2714" data-name="패스 2714" class="cls-3" d="M698.158-295.168c-.19.31-.5.77-.91 1.34-.13.17-.26.36-.41.55-.09.12-.18.24-.28.36s-.19.25-.3.37a25.155 25.155 0 0 1-2.66 2.86c-.23.22-.47.43-.73.65-.15.13-.31.26-.47.4-.15.11-.29.22-.44.33-.34.26-.68.51-1.04.75h-.01c-.19.14-.4.27-.6.39-.25.16-.5.31-.77.45-.24.14-.49.26-.74.38-.35.18-.71.34-1.08.49a12.79 12.79 0 0 1-1.44.48 1.974 1.974 0 0 1-.26.07.542.542 0 0 1-.15.04 1.015 1.015 0 0 1-.25.06 9.25 9.25 0 0 1-1.21.22h-.01a9.576 9.576 0 0 1-1.09.11 13.293 13.293 0 0 1-3.55-.3v-.01c-.29-.06-.58-.13-.87-.22-.18-.06-.36-.11-.54-.17a.981.981 0 0 1-.16-.05l-.01-.01c-.23-.07-.46-.16-.69-.25-.19-.08-.38-.16-.57-.25-.25-.11-.5-.22-.74-.35-.08-.04-.16-.08-.24-.13a16.74 16.74 0 0 1-1.84-1.09q-.525-.36-1.05-.75-.51-.39-1.05-.84c-.35-.3-.69-.61-1.04-.93s-.7-.67-1.04-1.01c-.28-.29-.57-.59-.85-.91-.85-.93-1.7-1.95-2.53-3.06a5.608 5.608 0 0 1-.36-.49h-.01c-.12-.16-.23-.32-.35-.48a.284.284 0 0 0-.09-.1c0-.01-.01-.01-.02-.01a.156.156 0 0 0-.08-.06 1.172 1.172 0 0 0-.11-.05c0 .01-.01 0-.03 0a.308.308 0 0 0-.1-.01h-.01a.49.49 0 0 0-.28.09l-.67.41-.01.01-.08.05-.91.56v.01l-3.46 2.14c-.16.1-.15.64-.11 1.22v.05a.375.375 0 0 0 .01.1c.01.1.02.21.04.32s.04.24.07.37a1.323 1.323 0 0 0 .05.19 2.224 2.224 0 0 0 .09.32v.01q.09.285.21.6a11.271 11.271 0 0 0 .59 1.32c.11.23.24.47.38.72s.29.53.46.8.34.55.53.84c.11.18.24.36.37.55.06.09.12.18.19.27.13.19.27.39.42.58.08.12.17.23.25.34a.01.01 0 0 0 .01.01 3.189 3.189 0 0 0 .21.27v.01l.01.01c.51.66 1.07 1.34 1.67 2.01a43.559 43.559 0 0 0 3.46 3.48c.28.25.56.5.85.74.61.53 1.25 1.05 1.91 1.54a9.535 9.535 0 0 0 .81.61c.32.23.64.46.97.69s.65.44.99.66.68.43 1.02.64c.36.23.73.44 1.1.65.34.19.68.38 1.03.56a35.916 35.916 0 0 0 3.38 1.58c.36.15.73.29 1.1.42.73.27 1.48.52 2.23.73q.57.165 1.14.3c-.22.4-.43.8-.66 1.17-.46-.12-.91-.25-1.36-.39-.27-.08-.54-.16-.8-.26-.26-.08-.53-.17-.78-.27a3.386 3.386 0 0 1-.41-.15q-.435-.15-.87-.33c-.31-.13-.62-.26-.93-.4-.1-.04-.2-.08-.3-.13-.34-.15-.67-.3-1-.47a3 3 0 0 1-.32-.15c-.31-.15-.62-.31-.93-.47a40.969 40.969 0 0 1-5.13-3.2c-.35-.25-.7-.51-1.04-.77q-.6-.45-1.17-.93c-.39-.31-.76-.63-1.13-.95-.32-.28-.64-.56-.95-.85-.49-.44-.96-.9-1.4-1.35-.47-.46-.91-.92-1.33-1.38l-.3-.33c-.35-.38-.68-.77-.99-1.15a.01.01 0 0 1-.01-.01c-.01 0 0-.01 0-.01q-.24-.27-.45-.54c-.01 0 0-.01 0-.01h-.01c-.21-.26-.41-.51-.6-.77s-.38-.51-.56-.76-.36-.5-.52-.75-.33-.49-.48-.73a4.743 4.743 0 0 1-.32-.51c-.11-.17-.21-.34-.3-.5s-.18-.33-.27-.49a14.349 14.349 0 0 1-.87-1.84c-.06-.15-.11-.29-.16-.43a4.28 4.28 0 0 1-.15-.42c-.04-.13-.08-.26-.11-.39a3.635 3.635 0 0 1-.1-.42 2.794 2.794 0 0 1-.07-.38 3.5 3.5 0 0 1-.05-.44c0-.08-.01-.16-.01-.24a1.925 1.925 0 0 1-.01-.24 2.843 2.843 0 0 1 .23-1.42 1.478 1.478 0 0 1 .51-.55l4.99-3.08v-.01l.01-.01.11-.06a.459.459 0 0 1 .14-.07v-.01a.313.313 0 0 1 .1-.05.356.356 0 0 1 .09-.04c.05-.02.09-.04.14-.06a2.225 2.225 0 0 1 .57-.07h.03a2.509 2.509 0 0 1 .27.04c.02 0 .04.01.07.01.09.03.18.06.26.09a1.667 1.667 0 0 1 .55.37.673.673 0 0 1 .14.15s.01 0 0 .01a.65.65 0 0 1 .08.09c.21.29.42.58.64.86v.01c.76 1.01 1.51 1.93 2.27 2.77.18.21.36.41.55.61a25.476 25.476 0 0 0 5 4.24c.13.09.27.17.4.25.17.1.33.19.49.28.25.14.49.26.73.38a2.556 2.556 0 0 0 .24.11c.32.15.64.29.96.41s.64.23.96.33a.037.037 0 0 0 .03.01c.29.09.58.16.87.23h.02c.29.07.59.13.88.17h.02c.29.05.58.08.86.1h.02a12.283 12.283 0 0 0 1.68 0 12.371 12.371 0 0 0 3.01-.61s0 .01.01 0a13.226 13.226 0 0 0 1.51-.61c.22-.1.45-.21.66-.33a5.213 5.213 0 0 0 .52-.28c.27-.15.53-.31.79-.48.46-.3.91-.62 1.33-.95.15-.11.3-.23.44-.35.1-.08.19-.15.28-.23.03-.03.06-.05.09-.08a24.746 24.746 0 0 0 2.89-2.94c.2-.23.38-.46.56-.68a22.963 22.963 0 0 0 1.74-2.51z"/>
                <path id="패스_2715" data-name="패스 2715" class="cls-3" d="M688.468-269.038c-.21.42-.44.81-.66 1.21-1.03-.16-2.06-.36-3.06-.62.23-.37.44-.77.66-1.17a28.944 28.944 0 0 0 3.06.58z"/>
                <path id="패스_2716" data-name="패스 2716" class="cls-5" d="m698.9-283.758-2.61-1.71-1.79-1.18c-.01 0-.02-.01-.03-.01l-2.51-1.65-.75-.49a9.486 9.486 0 0 1 1.17.15h.01a.01.01 0 0 0 .01.01c1.848.338 5.328 1.45 6.5 4.88z"/>
                <path id="패스_2717" data-name="패스 2717" class="cls-3" d="M699.308-282.548a.985.985 0 0 1-.38.07v.01a1.282 1.282 0 0 1-1.24-.87 5.089 5.089 0 0 0-1.4-2.13 6.77 6.77 0 0 0-1.79-1.18c-.01 0-.02-.01-.03-.01a10.28 10.28 0 0 0-3.32-.86.85.85 0 0 1-.23-.04h-.02a1.293 1.293 0 0 1-.93-.92 1.232 1.232 0 0 1-.04-.39 1.3 1.3 0 0 1 1.34-1.22c.06 0 .33.02.75.08h.01a15.109 15.109 0 0 1 1.57.32c2.19.58 5.31 2.01 6.51 5.51a1.285 1.285 0 0 1-.8 1.63z"/>
                <path id="패스_992" data-name="패스 992" class="cls-5" d="M684.725-286.226s3.451 1.1 5.075 5.857z"/>
                <path id="패스_2718" data-name="패스 2718" class="cls-3" d="M690.218-279.158a.986.986 0 0 1-.38.07l-.01.01a1.279 1.279 0 0 1-1.23-.87 7.969 7.969 0 0 0-4.19-5.03h-.02a.155.155 0 0 0-.06-.03 1.288 1.288 0 0 1-.86-1.16 1.038 1.038 0 0 1 .05-.46 1.284 1.284 0 0 1 1.6-.82 6.789 6.789 0 0 1 1.36.67s0 .01.01 0a9.734 9.734 0 0 1 1.22.92c.01-.01.01.01.01.01a11.4 11.4 0 0 1 3.3 5.06 1.285 1.285 0 0 1-.8 1.63z"/>
                <path id="패스_994" data-name="패스 994" class="cls-5" d="M677.237-287.184a8.37 8.37 0 0 1 1.423 7.472z"/>
                <path id="패스_2719" data-name="패스 2719" class="cls-3" d="M679.868-279.3a1.268 1.268 0 0 1-1.18.87 1.1 1.1 0 0 1-.44-.07 1.289 1.289 0 0 1-.8-1.63 6.993 6.993 0 0 0-1.2-6.24.414.414 0 0 1-.07-.11.01.01 0 0 1-.01-.01 1.25 1.25 0 0 1 .03-1.42 1.131 1.131 0 0 1 .23-.26 1.266 1.266 0 0 1 1.78.15c0 .01 0 .01.01.01a8.946 8.946 0 0 1 .87 1.33 9.447 9.447 0 0 1 .67 1.49v.02a9.636 9.636 0 0 1 .11 5.87z"/>
                <path id="패스_996" data-name="패스 996" class="cls-2" d="M666.543-296.916s2.528-6.852-2.672-8.346-5.168 5.281-5.168 5.281-8.185-7.105-11.177-1.265c-3.242 6.325 3.191 12.586 11.394 10.228z"/>
                <path id="패스_2720" data-name="패스 2720" class="cls-2" d="M678.928-342.958q-.54.555-1.05 1.11a51.942 51.942 0 0 0-9.47 14.62 4.664 4.664 0 0 0-3.83.91 14.171 14.171 0 0 0-5.26 2.22c-4.99 3.35-8.81 9.76-10.22 17.15-.17.91-.31 1.81-.39 2.7a4.694 4.694 0 0 0-1.47 1.14c-4.06-6.84-5.29-20.49-.67-30.2 2.06-4.35 6.24-9.74 14.42-10.77 7.33-.93 12.82.25 16.88 2.22.34-.37.69-.742 1.06-1.1z"/>
                <path id="패스_2721" data-name="패스 2721" class="cls-2" d="M672.178-323.438q-1.26 2.55-2.27 5.03c-.13.31-.25.62-.37.93a.019.019 0 0 0-.03 0h-.01a68.68 68.68 0 0 0-2.21 6.53c-.11.39-.21.79-.31 1.18-.38 1.35-.72 2.7-1.02 4.06a5.138 5.138 0 0 0-1.73-.79 4.745 4.745 0 0 0-4.42.6 78.98 78.98 0 0 1 5.64-18.1c.05-.07.11-.14.17-.21a2.177 2.177 0 0 1 1.81-.88.674.674 0 0 1 .14.02 3.255 3.255 0 0 1 .62.06 12.307 12.307 0 0 1 1.55.43.784.784 0 0 1 .14.05h.01c.33.11.65.24.95.36s.58.26.81.38a3.735 3.735 0 0 1 .53.35z"/>
                <path id="패스_2722" data-name="패스 2722" class="cls-2" d="M671.688-258.828a21.381 21.381 0 0 1-3.97.52 22.492 22.492 0 0 1-20.94-12.97 32.7 32.7 0 0 1-1.34-25.82 8.082 8.082 0 0 0 1.77 4.26 10.51 10.51 0 0 0 3.32 2.54 16.3 16.3 0 0 0 6.3 7.77 4.275 4.275 0 0 0 3.35 2.59c.14.02.27.03.41.04a26.62 26.62 0 0 0 3.51 12.28 31.668 31.668 0 0 0 7.59 8.79z"/>
                <path id="패스_2723" data-name="패스 2723" class="cls-3" d="M668.038-297.468a8.257 8.257 0 0 1-.3 1 1.088 1.088 0 0 1-.25.4v.01a1.283 1.283 0 0 1-.89.43 1.256 1.256 0 0 1-.42-.06h-.01c-.02-.01-.04-.01-.06-.02a.01.01 0 0 0-.01-.01 1.244 1.244 0 0 1-.56-.42.765.765 0 0 1-.15-.26h-.01v-.01a1.271 1.271 0 0 1-.03-.96c.03-.09.07-.2.1-.32a8.389 8.389 0 0 0 .3-1.26 6.63 6.63 0 0 0-.13-3.22c.01-.01.01-.01 0-.01a1.941 1.941 0 0 0-.15-.36l-.09-.15c-.01-.02-.01-.03-.03-.04a2.919 2.919 0 0 0-1.82-1.3 2.252 2.252 0 0 0-2.19.18c-1.12.86-1.36 3.13-1.35 3.86a1.286 1.286 0 0 1-.75 1.17.946.946 0 0 1-.4.1 1.181 1.181 0 0 1-.96-.29c-.28-.24-.69-.57-1.19-.92-1.59-1.13-4.06-2.53-5.92-2.32a1.865 1.865 0 0 0-.25.04 2.591 2.591 0 0 0-1.85 1.55c-.05.1-.11.19-.15.29v.01a5.419 5.419 0 0 0 .67 5.88l.01.01a6.893 6.893 0 0 0 2.86 2.04 9.336 9.336 0 0 0 4.2.59c.34-.03.68-.07 1.03-.13a10.894 10.894 0 0 0 1.23-.28.06.06 0 0 0 .04-.01h.01a1.316 1.316 0 0 1 1.29.35c.03.03.05.07.08.1a1.4 1.4 0 0 1 .22.44 1.243 1.243 0 0 1-.04.81v.01a1.272 1.272 0 0 1-.85.76l-.21.06c-.17.05-.35.09-.53.13q-.36.09-.72.15a13.032 13.032 0 0 1-1.53.18 4.881 4.881 0 0 1-.54.03 10.712 10.712 0 0 1-2.34-.13 10.263 10.263 0 0 1-2.87-.93 10.51 10.51 0 0 1-3.32-2.54 8.082 8.082 0 0 1-1.77-4.26 8.02 8.02 0 0 1 .95-4.74 4.953 4.953 0 0 1 .85-1.27 4.694 4.694 0 0 1 1.47-1.14 4.718 4.718 0 0 1 1.33-.49 6.127 6.127 0 0 1 .96-.1 11.7 11.7 0 0 1 6.05 2.06c.24.15.46.3.67.44a6.2 6.2 0 0 1 2.08-3.55.01.01 0 0 0 .01-.01 4.745 4.745 0 0 1 4.42-.6 5.138 5.138 0 0 1 1.73.79.052.052 0 0 1 .04.02c.09.06.17.12.25.18l.01.01a5.436 5.436 0 0 1 1.48 1.81 1.994 1.994 0 0 1 .1.21 9.609 9.609 0 0 1 .2 6.01z"/>
                <path id="패스_2724" data-name="패스 2724" class="cls-2" d="M717.208-275.388a4.658 4.658 0 0 1-1.29 2.25 19.264 19.264 0 0 1-12.86 4.86 20.932 20.932 0 0 1-3.27-.26q-1.035-.15-2.13-.42c-.04-.01-.09-.02-.14-.03-.23-.06-.46-.12-.7-.19a2.761 2.761 0 0 1-.27-.08c-.02 0-.05-.01-.07-.01-.86-.26-1.74-.56-2.65-.92-1.29-.51-3.14-1.91-2.63-4.2.51-2.34 2.8-1.38 5.45-1.78a21.411 21.411 0 0 0 8.43-2.88c1.67-1.07 2.97-1.94 3.98-2.64.6-.43 1.1-.79 1.5-1.09a3.381 3.381 0 0 1 2.26-.67 3.4 3.4 0 0 1 2.52 1.35 4.15 4.15 0 0 1 .32.53c.18.29.37.61.55.97a9.748 9.748 0 0 1 1.09 3.57 4.5 4.5 0 0 1-.09 1.64z"/>
                <path id="패스_2725" data-name="패스 2725" class="cls-2" d="M708.218-282.738c-1.18.85-2.39 1.66-3.62 2.42a20.425 20.425 0 0 1-8.09 2.75 13.184 13.184 0 0 1-2.08.11c-1.72 0-4.26.17-4.85 2.81a5.176 5.176 0 0 0-.1 1.71v.01a4.84 4.84 0 0 0 .23 1 2.821 2.821 0 0 0 .11.31c.77 1.84 3.03 2.51 3.72 2.78.02.01.03.01.05.02a26.928 26.928 0 0 1-5.12-.22 28.944 28.944 0 0 1-3.06-.58q-.57-.135-1.14-.3c-.75-.22-1.5-.46-2.23-.73-.37-.13-.74-.27-1.1-.42a35.916 35.916 0 0 1-3.38-1.58c-.35-.18-.69-.37-1.03-.56-.37-.21-.74-.42-1.1-.65-.34-.21-.68-.42-1.02-.64s-.67-.44-.99-.66-.65-.46-.97-.69c-.27-.2-.54-.4-.81-.61-.66-.49-1.3-1.01-1.91-1.54-.29-.24-.57-.49-.85-.74a43.559 43.559 0 0 1-3.46-3.48 3.138 3.138 0 0 0 .28-.68 1.274 1.274 0 0 0 .01-.2 114.541 114.541 0 0 1 .78-11.7v-.01c0-.01.01-.02.01-.03.01-.12.03-.24.04-.36.83 1.11 1.68 2.13 2.53 3.06.28.31.57.62.85.91.35.35.69.69 1.04 1.01s.7.64 1.04.93q.54.45 1.05.84.525.4 1.05.75a16.74 16.74 0 0 0 1.84 1.09c.08.05.16.09.24.13a.414.414 0 0 0 .07.11 6.993 6.993 0 0 1 1.2 6.24 1.289 1.289 0 0 0 .8 1.63 1.1 1.1 0 0 0 .44.07 1.268 1.268 0 0 0 1.18-.87 9.636 9.636 0 0 0-.11-5.87 13.293 13.293 0 0 0 3.55.3 9.576 9.576 0 0 0 1.09-.11h.01a7.969 7.969 0 0 1 4.19 5.03 1.279 1.279 0 0 0 1.23.87l.01-.01a.986.986 0 0 0 .38-.07 1.285 1.285 0 0 0 .8-1.63 11.4 11.4 0 0 0-3.3-5.06c.37-.15.73-.31 1.08-.49a7.392 7.392 0 0 0 .74-.38c.27-.14.52-.29.77-.45.2-.12.41-.25.6-.39h.01a.85.85 0 0 0 .23.04 10.28 10.28 0 0 1 3.32.86c.01 0 .02.01.03.01l1.79 1.18a5.089 5.089 0 0 1 1.4 2.13 1.282 1.282 0 0 0 1.24.87v-.01a.985.985 0 0 0 .38-.07 1.285 1.285 0 0 0 .8-1.63c-1.2-3.5-4.32-4.93-6.51-5.51a25.155 25.155 0 0 0 2.66-2.86c.11-.13.21-.25.3-.37.11-.13.2-.25.28-.36.15-.19.29-.38.41-.55.41-.57.72-1.03.91-1.34z"/>
                <path id="패스_2726" data-name="패스 2726" class="cls-3" d="M717.618-272.818a22.557 22.557 0 0 1-7.22 4.43 22.452 22.452 0 0 1-4.12 1.14h-.01c-.38.06-.77.11-1.16.14a.09.09 0 0 1-.05.01c-.36.04-.74.07-1.11.08a22.568 22.568 0 0 1-4.19-.15 22.233 22.233 0 0 1-3.23-.64h-.01c-.28-.07-.54-.15-.81-.24-.71-.22-1.41-.48-2.11-.77h-.01c-.02-.01-.03-.01-.05-.02-.69-.27-2.95-.94-3.72-2.78a2.821 2.821 0 0 1-.11-.31 4.84 4.84 0 0 1-.23-1v-.01a5.176 5.176 0 0 1 .1-1.71c.59-2.64 3.13-2.81 4.85-2.81a13.184 13.184 0 0 0 2.08-.11 20.425 20.425 0 0 0 8.09-2.75c1.23-.76 2.44-1.57 3.62-2.42.85-.6 1.68-1.23 2.5-1.87l.25-.2a1.153 1.153 0 0 1 1.62.25 1.2 1.2 0 0 1 .18.38l.01.02a1.329 1.329 0 0 1 .04.71 1.3 1.3 0 0 1-.5.72l-.24.19c-.74.62-1.49 1.22-2.26 1.79q-2.055 1.59-4.25 2.98a22.028 22.028 0 0 1-8.77 3.01 16.326 16.326 0 0 1-2.32.13c-1.73 0-2.13.12-2.25.66a1.271 1.271 0 0 0 .06.86 3.366 3.366 0 0 0 1.83 1.57 24.761 24.761 0 0 0 5.94 1.57 19.415 19.415 0 0 0 3.28.16h.01a18.474 18.474 0 0 0 3.83-.49 21.052 21.052 0 0 0 9.22-4.87.971.971 0 0 1 .81-.22.96.96 0 0 1 .49.29 1.133 1.133 0 0 1 .16.26 1.693 1.693 0 0 1-.24 2.02z"/>
                <path id="패스_1000" data-name="패스 1000" class="cls-3" d="M698.9-268.143a17.45 17.45 0 0 0 6.35 1.171 16.608 16.608 0 0 0 4.652-.666c-9.034 1.77-12.367-1.4-12.528-1.561a.614.614 0 0 0-.449-.2.61.61 0 0 0-.417.166.614.614 0 0 0-.2.432.6.6 0 0 0 .162.441 4.138 4.138 0 0 0 .525.446 2.207 2.207 0 0 1 .208-.151 1.91 1.91 0 0 1 1.694-.08z"/>
                <path id="패스_2727" data-name="패스 2727" class="cls-2" d="M706.348-264.888c.23-.01.46-.02.68-.05-.24.04-.47.06-.7.09-.25.03-.49.05-.73.07l-.37.03c-.14.01-.27.01-.41.01h-.02a20.039 20.039 0 0 1-6.49-.88c0-.15.01-.3.02-.45a19.7 19.7 0 0 0 6.49 1.22h.02c.14 0 .27.01.42.01.12 0 .24-.02.37-.02.23 0 .48-.01.72-.03z"/>
                <path id="패스_2728" data-name="패스 2728" class="cls-2" d="M711.3-265.828c-.01.09-.02.19-.03.31a10.057 10.057 0 0 1-.72 2.56 10.139 10.139 0 0 0 .65-2.75l.01-.01v-.08z"/>
                <path id="패스_1003" data-name="패스 1003" class="cls-3" d="M716.368-269.328a1.06 1.06 0 0 0-1.37-.61c0 .01 0 .01-.01.01a40.567 40.567 0 0 1-4.59 1.54 21.811 21.811 0 0 1-9.18.78 10.69 10.69 0 0 1-2.4-.66v-.01c-.05-.02-.09-.03-.13-.05-.01 0-.02-.01-.03-.01l-.06-.03a5.465 5.465 0 0 1-1.08-.62.617.617 0 0 1-.06-.05 1.218 1.218 0 0 0-.32-.2h-.01a1.148 1.148 0 0 0-.52-.06.345.345 0 0 0-.13.03.945.945 0 0 0-.4.2l-.12.12a1.04 1.04 0 0 0-.25.9.789.789 0 0 0 .13.33.8.8 0 0 0 .15.21 4.431 4.431 0 0 0 .54.43 1.9 1.9 0 0 0-.31.64 1.907 1.907 0 0 0-.06.33c0 .04-.36 4.4 2.27 7.21a7.665 7.665 0 0 0 6.06 2.29l.27-.02a8.276 8.276 0 0 0 7.59-5.17 12.7 12.7 0 0 0 1-4.47v-.19a2.164 2.164 0 0 0-.14-.57c.84-.28 1.69-.58 2.56-.92a1.07 1.07 0 0 0 .6-1.38zm-5.96 6.7a6.207 6.207 0 0 1-5.75 3.88h-.21a5.642 5.642 0 0 1-4.48-1.61 5.85 5.85 0 0 1-.54-.69c-.1-.16-.19-.33-.28-.5-.04-.08-.1-.16-.13-.24a4.473 4.473 0 0 1-.21-.53c-.03-.08-.07-.16-.1-.24-.06-.19-.11-.37-.15-.55l-.06-.21c-.05-.2-.08-.4-.11-.59l-.03-.13c-.02-.17-.03-.33-.05-.48a.99.99 0 0 0-.02-.17 8.6 8.6 0 0 1-.03-.95c.02.01.03.01.05.02a20.039 20.039 0 0 0 6.49.88h.02c.14 0 .27 0 .41-.01l.37-.03c.24-.02.48-.04.73-.07.23-.03.46-.05.7-.09.02 0 .05-.01.07-.01h.05c.3-.04.62-.1.94-.16l.51-.12c.3-.06.6-.14.9-.23l.43-.12c.43-.14.87-.28 1.3-.46a2.317 2.317 0 0 1-.02.24v.08l-.01.01a10.139 10.139 0 0 1-.65 2.75 1.554 1.554 0 0 1-.14.33z"/>
                <path id="패스_2729" data-name="패스 2729" class="cls-2" d="M711.228-266.038a2.317 2.317 0 0 1-.02.24v.08l-.01.01a10.139 10.139 0 0 1-.65 2.75 1.554 1.554 0 0 1-.14.33 6.24 6.24 0 0 1-6.01 3.75h-.22a5.663 5.663 0 0 1-4.39-1.84 5.1 5.1 0 0 1-.51-.71c-.09-.17-.17-.34-.25-.52-.04-.08-.09-.16-.13-.24-.07-.18-.12-.36-.18-.55-.02-.08-.06-.16-.08-.24a5.653 5.653 0 0 1-.13-.56 1.6 1.6 0 0 1-.05-.21c-.04-.2-.06-.39-.08-.58a.784.784 0 0 1-.02-.14c-.02-.17-.02-.33-.03-.48 0-.06-.01-.12-.01-.17-.01-.17-.01-.33-.01-.5a20.039 20.039 0 0 0 6.49.88h.02c.14 0 .27 0 .41-.01l.37-.03c.24-.02.48-.04.73-.07.23-.03.46-.05.7-.09.02 0 .05-.01.07-.01h.05c.3-.04.62-.1.94-.16l.51-.12c.3-.06.6-.14.9-.23l.43-.12c.43-.14.872-.28 1.3-.46z"/>
                <path id="패스_2730" data-name="패스 2730" class="cls-2" d="M795.048-302.248c4.29-6.77 5.8-20.73 1.23-30.7-2.04-4.45-6.21-9.99-14.53-11.16-9.81-1.38-16.43 1.11-20.76 4.25-.46.33-.9.68-1.33 1.04a39.107 39.107 0 0 1 8.5 18.03c6.1 3.21 10.66 11.45 11.02 21.2.28 7.52-2.01 14.63-6.12 19.02a14.483 14.483 0 0 1-4.23 3.18 3.982 3.982 0 0 1-3.7 2h-.03c-.04 0-.08-.01-.12-.01l-.38-.04c-.88-.03-2.79-.32-3.03-3.12a4.575 4.575 0 0 1 .02-.98c.43-4.19.67-8.22.75-12.05l-.46-12.71c-.01-.07-.01-.13-.02-.2a48.738 48.738 0 0 0-3.53-14.85 3.3 3.3 0 0 1-.19-3.08 2.019 2.019 0 0 1 1.01-.81 41.572 41.572 0 0 0-4.86-8.9c-.28.54-.42.9-.43.92a1.18 1.18 0 0 1-1.49.68 1.174 1.174 0 0 1-.68-1.5 17.816 17.816 0 0 1 1.06-2.09c-6.34-7.64-17.01-14.3-35.27-15.36-.34-.02-.67-.05-1.01-.07a42.486 42.486 0 0 0-30.06 10.35c-.76.65-1.48 1.31-2.18 1.98a51.965 51.965 0 0 0-9.86 13.01.351.351 0 0 1 .05.08l.01.01a1.833 1.833 0 0 1-.09 1.73c-3.23 5.6-5.24 12.49-6.5 18.92a9.609 9.609 0 0 1 .2 6.01c5.02 6.91 10.11 10.29 15.13 10.03 7.72-.39 12.98-9.34 13.03-9.43v-.01a1.274 1.274 0 0 1 1.74-.45 1.287 1.287 0 0 1 .47 1.75c-.03.04-.12.2-.25.41l10.06 12.43c.85-.6 1.68-1.23 2.5-1.87l.25-.2a1.153 1.153 0 0 1 1.62.25 1.2 1.2 0 0 1 .18.38l.01.02a1.329 1.329 0 0 1 .04.71 3.4 3.4 0 0 1 2.52 1.35 4.15 4.15 0 0 1 .32.53c.18.29.37.61.55.97a9.748 9.748 0 0 1 1.09 3.57 4.5 4.5 0 0 1-.09 1.64.96.96 0 0 1 .49.29 1.133 1.133 0 0 1 .16.26 1.693 1.693 0 0 1-.24 2.02 22.557 22.557 0 0 1-7.22 4.43 40.567 40.567 0 0 0 4.59-1.54c.01 0 .01 0 .01-.01a1.06 1.06 0 0 1 1.37.61 1.07 1.07 0 0 1-.6 1.38c-.87.34-1.72.64-2.56.92a2.164 2.164 0 0 1 .14.57v.19a12.7 12.7 0 0 1-1 4.47 8.276 8.276 0 0 1-7.59 5.17l-.27.02a7.665 7.665 0 0 1-6.06-2.29c-2.63-2.81-2.27-7.17-2.27-7.21a1.907 1.907 0 0 1 .06-.33 27.321 27.321 0 0 1-3.32.27 30.676 30.676 0 0 1-5.82-.46c-1.06-.19-2.1-.42-3.09-.7a35.481 35.481 0 0 1-4-1.35 45.85 45.85 0 0 1-15.97-11.29c-.16-.17-.32-.35-.47-.52a23.938 23.938 0 0 0 3.12 11.39 30.1 30.1 0 0 0 8.44 9.18c.92.68 1.85 1.32 2.82 1.92a50.62 50.62 0 0 0 5.42 2.94l.18.08.18.09c.04.02.08.04.13.06l.18.09.19.08c.04.02.09.04.13.06l.19.08.19.08.13.06.19.08.33.15.05.03c.35.14.7.29 1.05.43.25.1.51.2.76.3l.21.09.01-.01c.24.1.48.18.72.27.3.11.6.23.9.34.21.07.42.14.62.21.26.09.51.18.77.26l.03.01.58.14.03.01.24.05.19.05a.335.335 0 0 0 0 .1 90.53 90.53 0 0 0 14 3.24c1.74.26 2.87.37 3.1.39 1.91.09 3.77.13 5.57.14.24 0 .48.01.71.01 1.52 0 3.01-.03 4.48-.09.88-.03 1.74-.08 2.6-.13a81.77 81.77 0 0 0 23.07-4.48 61.78 61.78 0 0 0 5.18-2.16c.68-.33 1.35-.68 2.01-1.03.44-.23.88-.45 1.3-.69a53.255 53.255 0 0 0 5.39-3.52c.33-.24.64-.49.95-.74a26.951 26.951 0 0 1-7.49-10.86 1.167 1.167 0 0 1 .66-1.51 1.141 1.141 0 0 1 .41-.07 1.148 1.148 0 0 1 1.09.73 24.429 24.429 0 0 0 7.12 10.23 20.219 20.219 0 0 0 12.12 4.62 22.779 22.779 0 0 0 21.42-12.86 32.921 32.921 0 0 0-.18-30.36 1.179 1.179 0 0 1 .01-1.24zm-117.92-5.9a8.654 8.654 0 0 1 4.55-1.19 7.731 7.731 0 0 1 4.39 1.37 1.222 1.222 0 0 1 .3 1.71 1.218 1.218 0 0 1-.97.53h-.01a1.225 1.225 0 0 1-.72-.22 5.339 5.339 0 0 0-3.05-.92 6.127 6.127 0 0 0-3.33.89 1.218 1.218 0 0 1-1.65-.49.01.01 0 0 0-.01-.01 1.234 1.234 0 0 1 .5-1.67zm10.61 16.16c-.1.15-2.57 3.7-6.24 3.78h-.11c-3.08-.01-4.51-2.78-4.84-4.27a.935.935 0 0 1 .67-1.14.934.934 0 0 1 1.15.67c0 .02.01.04.01.06.03.15.68 2.79 3.02 2.79h.07c2.7-.06 4.71-2.94 4.73-2.97a.942.942 0 0 1 1.3-.24.946.946 0 0 1 .41.78.959.959 0 0 1-.17.54zm28.4-17.02a8.645 8.645 0 0 1 4.55-1.18 7.8 7.8 0 0 1 4.39 1.36 1.234 1.234 0 0 1 .3 1.72 1.182 1.182 0 0 1-.97.52 1.187 1.187 0 0 1-.73-.22 5.405 5.405 0 0 0-3.05-.91 6.206 6.206 0 0 0-3.33.88 1.21 1.21 0 0 1-1.65-.49c-.01 0-.01 0-.01-.01a1.239 1.239 0 0 1 .5-1.67zm10.2 18.16c-.1.15-2.58 3.7-6.24 3.78h-.12c-3.08-.01-4.51-2.78-4.84-4.26a.948.948 0 0 1 .71-1.13.94.94 0 0 1 1.12.71c.03.12.64 2.79 2.99 2.79h.1c2.7-.06 4.72-2.94 4.74-2.96a.924.924 0 0 1 1.29-.25.01.01 0 0 1 .01.01.944.944 0 0 1 .24 1.31z"/>
            </g>
            <path id="패스_2731" data-name="패스 2731" class="cls-3" d="m698.778-210.878-.28-.02h-.01l-.18-.02.18.01h.01z"/>
            <path id="패스_2732" data-name="패스 2732" class="cls-3" d="M698.828-210.878v.01h-.01l-.04-.01z"/>
        </g>
    </g>
</svg>
