<svg xmlns="http://www.w3.org/2000/svg" width="250" height="250">
    <defs>
        <clipPath id="clip-path">
            <path id="사각형_177" data-name="사각형 177" class="cls-1" transform="translate(1120.432 -111.641)" d="M0 0h18.263v21.344H0z"/>
        </clipPath>
        <style>
            .cls-1{fill:none}.cls-4{fill:#567bb0}.cls-5,.cls-9{fill:#fff}.cls-6{fill:#f7f8f8}.cls-9{fill-rule:evenodd}
        </style>
    </defs>
    <g id="그룹_3621" data-name="그룹 3621" transform="translate(-344 -111.327)">
        <path id="빼기_12" data-name="빼기 12" d="M4666.357 145h-128.715a86.639 86.639 0 0 1-16.6-26.513A85.979 85.979 0 0 1 4515 86.676a87.006 87.006 0 0 1 1.768-17.468 86.027 86.027 0 0 1 13.091-30.993 87.126 87.126 0 0 1 152.306 14.723 86 86 0 0 1 5.069 16.27A87.006 87.006 0 0 1 4689 86.676a86.022 86.022 0 0 1-13.17 45.874 87.243 87.243 0 0 1-9.473 12.45z" transform="translate(-4134 160.327)" style="fill:#c4ddff"/>
        <circle id="타원_1279" data-name="타원 1279" cx="125" cy="125" r="125" transform="translate(344 111.327)" style="fill:#8bb3ff"/>
        <g id="_-e-icon_01_off" data-name="-e-icon 01 off" transform="translate(-693.092 315.61)">
            <path id="패스_2521" data-name="패스 2521" class="cls-4" d="M1124.608-133.6a1.305 1.305 0 0 1-1.65-.82 10.413 10.413 0 0 0-.49-1.13 14.718 14.718 0 0 0-.84-1.47c-.16-.26-.34-.53-.55-.81-2.59-3.6-8.34-8.59-19.81-7.41a14.4 14.4 0 0 0-11.7 8.28c-3.91 7.71-3.09 18.7.12 24.13a1.314 1.314 0 0 1-.05 1.39 25.879 25.879 0 0 0-.96 23.82 18.121 18.121 0 0 0 1.55 2.76q.165.255.36.51a17.544 17.544 0 0 0 1.57 1.86 18.012 18.012 0 0 0 12.88 5.49h.17a16.647 16.647 0 0 0 5.5-.98c.22-.08.45-.17.67-.26.11-.05.21-.09.32-.15a5.113 5.113 0 0 0 .48-.22c.21-.09.41-.2.61-.31a12.289 12.289 0 0 0 1.29-.78 18.77 18.77 0 0 0 6.69-8.36 1.3 1.3 0 0 1 1.71-.68 1.308 1.308 0 0 1 .69 1.71 21.4 21.4 0 0 1-7.39 9.3 17.751 17.751 0 0 1-1.91 1.17l-.06.03c-.27.15-.55.28-.83.41-.41.19-.83.37-1.25.53h-.01a18.31 18.31 0 0 1-4.55 1.08c-.63.07-1.28.11-1.93.12h-.21c-.24 0-.47-.01-.71-.01a20.825 20.825 0 0 1-12.33-4.73 21.675 21.675 0 0 1-1.73-1.6l-.5-.53a20.837 20.837 0 0 1-3.46-5.29 27.9 27.9 0 0 1 .75-25.65c-3.25-6.21-4.07-17.54.18-25.94a16.873 16.873 0 0 1 13.77-9.69c10.02-1.04 16.12 2.4 19.47 5.46a18.061 18.061 0 0 1 2.51 2.74 8.061 8.061 0 0 1 .6.84c.3.43.57.88.83 1.34a18.887 18.887 0 0 1 1.03 2.18l-.01.01a1.312 1.312 0 0 1-.82 1.66z"/>
            <path id="패스_2522" data-name="패스 2522" class="cls-5" d="m1121.4-72.768-.12.02-.77 1.39-.05.1-.01.01-.06.11c-.03 0-.07-.01-.1-.01-2.5-.17-6.5-1.01-8.44-4.42a.234.234 0 0 1-.07.07v.01h-.01c-2.49 2.29-9.56 8.45-15.13 10.36a11.013 11.013 0 0 1-1.13.34 39.75 39.75 0 0 0 3.62 4.16 25.586 25.586 0 0 1-8.87-20.1 25.614 25.614 0 0 1 .27-3.3c.02-.11.03-.21.06-.32v-.01c1.02-6.28 4.24-10.33 8.04-10.11 3.02.17 5.19 1.15 6.44 2.91a7.524 7.524 0 0 1 1.23 4.7 4.481 4.481 0 0 1 1.45-2.08.5.5 0 0 1 .08-.07c.03-.02.07-.04.1-.06a1.563 1.563 0 0 1 1.16-.13 2.983 2.983 0 0 1 1.06.5c.94.7 1.1 1.93 1 3.65-.03.51-.09 1.06-.16 1.65a10.34 10.34 0 0 0 .17 3.29c.03.14.06.27.1.4v.01a10.247 10.247 0 0 0 .4 1.22.355.355 0 0 0 .04.09 10.351 10.351 0 0 0 1.28 2.27 10.345 10.345 0 0 0 1.34 1.47 6.842 6.842 0 0 0 3.4 1.48 13.4 13.4 0 0 0 3.2.14c.27-.02.42-.04.43-.04z"/>
            <path id="패스_200" data-name="패스 200" class="cls-5" d="M1194.448-98.474c.6-17.8-4.266-31.142-14.481-39.651-9.575-7.972-21.421-9.527-27.632-9.745-9.87-.346-42.208 1.963-43.741 45.944a41.523 41.523 0 0 0-.874 10.785c.548 9.138 6.408 24.7 39.521 26.26 1.658.079 3.3.119 4.878.119h.036c29.344 0 38.47-13.38 41.3-21.356a21.732 21.732 0 0 0 .995-12.356z"/>
            <path id="패스_201" data-name="패스 201" class="cls-4" d="M1233.931-98a.145.145 0 0 1-.028.069l-.045.076a1.285 1.285 0 0 0-.046.1l-.026.075c-.039-.019-.073-.037-.1-.054s-.063-.03-.091-.047a3.009 3.009 0 0 1-.262-.19 3.531 3.531 0 0 1-.287-.261 2.408 2.408 0 0 1-.392-.542l-.069-.129a4.236 4.236 0 0 1-.08-.17c-.01.061-.023.117-.034.165s-.028.092-.039.131a3.064 3.064 0 0 1-.124.327 1.99 1.99 0 0 1-.146.283 2.291 2.291 0 0 1-.2.27 2.819 2.819 0 0 1-.22.228.84.84 0 0 1-.09.066c-.031.024-.068.049-.11.079-.034-.03-.063-.054-.089-.075s-.053-.04-.078-.061c-.09-.074-.139-.124-.139-.142s0-.026.005-.026a1.7 1.7 0 0 0 .792-.83 2.331 2.331 0 0 0 .179-1.363c-.41.012-.614.017-1.025.02-.023-.152-.034-.228-.059-.383.166.011.348.019.542.022s.388 0 .573 0c.452-.011.68-.021 1.131-.045.023.151.035.226.056.377-.354.007-.532.009-.887.009 0 .032 0 .063.007.094l.013.1a2.486 2.486 0 0 0 .066.3 2.033 2.033 0 0 0 .141.353 2.308 2.308 0 0 0 .716.875 2.751 2.751 0 0 0 .425.258l.023.037zm1.378 1.731a.765.765 0 0 1-.208.71 1.844 1.844 0 0 1-1.185.343h-.138a2.235 2.235 0 0 1-1.055-.176.979.979 0 0 1-.569-.776.671.671 0 0 1 .415-.789 1.663 1.663 0 0 1 .426-.117 5.374 5.374 0 0 1 .594-.054 5.221 5.221 0 0 1 .6.01 1.915 1.915 0 0 1 .451.087.888.888 0 0 1 .665.756zm-.337.041c-.048-.322-.29-.5-.721-.552a4.491 4.491 0 0 0-.614-.011h-.1a2.474 2.474 0 0 0-.735.109.417.417 0 0 0-.33.477.661.661 0 0 0 .533.543 1.826 1.826 0 0 0 .358.07 3.307 3.307 0 0 0 .456.011h.12a1.592 1.592 0 0 0 .876-.223.409.409 0 0 0 .16-.422zm-.339-4.585a.955.955 0 0 1-.008.106.919.919 0 0 0 0 .166l.049.318c.113.806.184 1.309.215 1.515l.2 1.327c-.134.01-.2.015-.334.022-.1-.656-.148-.985-.245-1.64-.129.007-.3.027-.513.049l-.252.022c-.061 0-.1.007-.128.007-.021-.151-.034-.226-.056-.377.191 0 .287 0 .476-.01l.432-.037-.188-1.238c-.021-.119-.033-.177-.054-.3.1-.006.2-.007.273 0s.123.025.13.069z"/>
            <path id="패스_202" data-name="패스 202" class="cls-4" d="M1236.629-100.9c.121-.014.183-.02.3-.035-.223 2.339-.332 3.5-.558 5.823l-.3.026c.224-2.316.337-3.48.559-5.815z"/>
            <path id="패스_203" data-name="패스 203" class="cls-4" d="M1240.217-99.827a1.15 1.15 0 0 1-.205.917 1.061 1.061 0 0 1-.721.421 1.1 1.1 0 0 1-.847-.211 1.171 1.171 0 0 1-.456-.806 1.274 1.274 0 0 1 .143-.88 1.056 1.056 0 0 1 .787-.471 1.038 1.038 0 0 1 .9.238 1.286 1.286 0 0 1 .4.791zm-.324.06a.877.877 0 0 0-.3-.6.748.748 0 0 0-.6-.139.826.826 0 0 0-.5.255.813.813 0 0 0-.169.7.829.829 0 0 0 .349.583.815.815 0 0 0 .592.122.742.742 0 0 0 .5-.272.819.819 0 0 0 .141-.65zm2.124 3.7-.354.09c-.006-.039-.014-.084-.019-.137s-.014-.111-.023-.17-.014-.121-.021-.183-.015-.119-.024-.17l-.158-1.046c-.447.076-.672.114-1.121.183-.566.1-.85.143-1.418.23l-.056-.371a13.672 13.672 0 0 0 1.031-.128c.745-.12 1.115-.185 1.857-.323.013.111.03.252.055.419s.058.4.1.705l.145.9zm.244-3.114c-.153.025-.23.036-.384.06a2.234 2.234 0 0 0-.329.087l.094.587-.343.074c-.009-.067-.029-.207-.056-.421s-.066-.489-.118-.826c-.028-.178-.039-.267-.066-.446-.044-.29-.081-.532-.113-.721s-.054-.337-.071-.434l-.048-.267a2.515 2.515 0 0 0-.043-.2 2.013 2.013 0 0 1 .257-.026c.094 0 .144.014.15.051a.417.417 0 0 1-.01.1.568.568 0 0 0 0 .155c.021.161.033.242.056.4s.046.26.079.432l.342-.05.37-.082c.023.154.035.23.056.382l-.369.057a4.618 4.618 0 0 0-.194.042 1.54 1.54 0 0 0-.15.047l.115.754.066-.009.111-.011a.537.537 0 0 0 .108-.014l.05-.009c.086-.016.163-.035.23-.054a.888.888 0 0 0 .153-.052l.056.383z"/>
            <path id="패스_204" data-name="패스 204" class="cls-4" d="M1243.334-102c.121-.024.18-.036.3-.062-.214 2.389-.322 3.582-.537 5.961l-.3.057c.218-2.378.325-3.568.539-5.956z"/>
            <path id="패스_205" data-name="패스 205" class="cls-4" d="M1248.949-100.075a13.4 13.4 0 0 0-.509.1l-.534.114c-.181.037-.355.075-.523.111s-.33.072-.484.109q-.612.141-1.136.271c-.349.086-.685.17-1 .252-.023-.156-.034-.233-.059-.389l.171-.024c.064-.01.134-.02.214-.034s.14-.024.191-.035.09-.021.123-.027l.632-.141-.05-.391-.073-.387a1.657 1.657 0 0 1-.253-.019.794.794 0 0 1-.184-.049.791.791 0 0 1-.533-.668.926.926 0 0 1 .043-.472 1 1 0 0 1 .262-.387 1.761 1.761 0 0 1 .466-.3 3.491 3.491 0 0 1 .653-.215 3.694 3.694 0 0 1 .636-.092 1.859 1.859 0 0 1 .494.036.794.794 0 0 1 .618.722.914.914 0 0 1-.273.824 1.081 1.081 0 0 1-.148.121c-.06.04-.133.086-.215.135l.12.8.6-.149.692-.2c.023.154.034.231.059.384zm-.309 1.6a.957.957 0 0 1-.185.757 1.9 1.9 0 0 1-1.124.618l-.1.024a1.914 1.914 0 0 1-1.261-.039.811.811 0 0 1-.438-.654.867.867 0 0 1 .315-.835 3.337 3.337 0 0 1 2.177-.532.734.734 0 0 1 .616.661zm-.863-3.44a.516.516 0 0 0-.437-.46 2.263 2.263 0 0 0-.922.069 2.6 2.6 0 0 0-.781.288.656.656 0 0 0-.362.675.475.475 0 0 0 .406.4 2.122 2.122 0 0 0 .941-.049 2.376 2.376 0 0 0 .9-.352.6.6 0 0 0 .26-.577zm.532 3.511a.457.457 0 0 0-.437-.387 1.79 1.79 0 0 0-.373.009 4.917 4.917 0 0 0-.511.09 2.348 2.348 0 0 0-.951.374.51.51 0 0 0-.178.475.5.5 0 0 0 .464.437 2.461 2.461 0 0 0 .846-.079 4.067 4.067 0 0 0 .594-.18 1.159 1.159 0 0 0 .365-.222.558.558 0 0 0 .179-.517zm-1.1-2.009-.065-.362c-.066.024-.139.047-.218.071s-.159.042-.234.06a2.106 2.106 0 0 1-.427.064l.048.379c.019.152.036.208.063.348.35-.077.527-.116.879-.2-.019-.145-.026-.218-.045-.365z"/>
            <path id="패스_206" data-name="패스 206" class="cls-4" d="m1249.98-103.516.3-.071-.532 6.007-.3.07.532-6.006z"/>
            <path id="패스_207" data-name="패스 207" class="cls-4" d="m1253.7-101.362-.005.029a.256.256 0 0 1-.03.065l-.113.291a1.536 1.536 0 0 1-.562-.379 1.189 1.189 0 0 1-.42-.569.387.387 0 0 1-.01.077c0 .021-.01.042-.014.065a2.165 2.165 0 0 1-.328.745 2.808 2.808 0 0 1-.121.175l-.119.16a.9.9 0 0 1-.075.089c-.028.03-.056.06-.088.089a.107.107 0 0 0-.033-.027.121.121 0 0 1-.024-.017 1.2 1.2 0 0 0-.125-.1l-.076-.055a.157.157 0 0 1-.024-.027l.007-.007.005-.009.053-.059.066-.067c.064-.072.129-.155.2-.246a2.878 2.878 0 0 0 .2-.311 2.054 2.054 0 0 0 .232-.769 1.787 1.787 0 0 0 .008-.343l-.267.054-.552.145c-.023-.144-.033-.216-.054-.358l.954-.225.354-.082.282-.067c.082-.02.159-.042.221-.061s.123-.036.177-.054c.021.146.033.218.055.364-.185.039-.278.059-.462.1l-.358.1a1.555 1.555 0 0 0 .37.8 1.971 1.971 0 0 0 .2.2 2.318 2.318 0 0 0 .22.163l.083.04c.03.016.065.032.1.049a.108.108 0 0 0 .026.017.132.132 0 0 1 .028.017l.02.007zm-.831-2.13-.523.109-.463.121-.055-.371.484-.1.5-.13c.024.148.035.222.056.371zm2.791 4.317-.357.1-.081-.628c-.054-.351-.079-.524-.131-.875-.451.1-.675.15-1.125.252l-.556.126c-.158.037-.292.072-.4.1s-.206.049-.309.075-.2.052-.3.081a52.71 52.71 0 0 0-.059-.391c.084-.014.188-.037.312-.067s.273-.059.44-.094.325-.069.461-.1l.365-.084c.345-.079.632-.147.864-.208s.424-.11.588-.155l.074.518c.085.538.126.806.213 1.344zm-.794-5.524v.21c0 .065.009.129.018.193l.283 1.943q.06.4.1.629c.027.154.046.281.064.379l-.349.082c-.061-.438-.09-.656-.15-1.1-.233.05-.349.076-.581.129l.04.295.129.784-.338.109-.034-.267c-.014-.109-.035-.238-.056-.393s-.039-.3-.061-.438-.041-.272-.06-.4l-.1-.686c-.028-.198-.058-.368-.08-.507l-.058-.379c-.017-.113-.035-.212-.05-.3l.1-.022a.813.813 0 0 1 .19-.02.089.089 0 0 1 .093.081c0 .014.005.049.008.1s0 .087.009.13l.109.781c.044.312.069.456.115.76l.574-.129-.315-2.014a1.561 1.561 0 0 1 .272-.036c.084 0 .134.025.138.072z"/>
            <path id="패스_208" data-name="패스 208" class="cls-4" d="m1256.625-105.013.3-.06c-.218 2.381-.325 3.573-.538 5.962l-.3.065.538-5.967z"/>
            <path id="패스_209" data-name="패스 209" class="cls-4" d="M1259.694-104.925a.547.547 0 0 1 0 .1.69.69 0 0 0 0 .129c.068.482.1.721.17 1.2.046.3.094.61.146.935s.1.628.153.909c-.692.119-1.038.182-1.726.316-.01-.091-.025-.2-.045-.341s-.045-.3-.069-.484-.048-.347-.07-.489-.039-.268-.056-.373c-.083-.532-.124-.8-.209-1.327l-.071-.374a2.032 2.032 0 0 1 .269-.031c.09 0 .141.021.144.06s-.008.085-.008.121a.922.922 0 0 0 .006.106l.123.812a1.774 1.774 0 0 0 .239-.026 6.2 6.2 0 0 0 .25-.042 5.77 5.77 0 0 0 .33-.064 1.142 1.142 0 0 0 .208-.056l-.123-.8-.074-.361a.979.979 0 0 1 .242 0c.1.011.158.037.165.085zm-.041 2.255-.126-.75c-.208.028-.312.045-.518.075l-.492.1.213 1.412.385-.05c.252-.054.377-.079.629-.129-.038-.263-.054-.4-.091-.66zm1.892-3.281v.189a.7.7 0 0 0 .006.091l.428 2.836c.034.231.065.434.093.613s.051.334.074.467.049.271.07.419.049.313.079.486c.056.337.084.51.09.509l-.36.05-.39-2.646c-.272.037-.406.056-.677.1l.373 2.275c-.149.024-.224.032-.373.057l-.372-2.517c-.144-.914-.214-1.37-.359-2.285l-.078-.393a.929.929 0 0 1 .293-.005c.084.014.129.039.134.07a.428.428 0 0 1 0 .1.4.4 0 0 0 0 .12l.329 2.192.68-.1c-.025-.14-.05-.29-.074-.449s-.053-.332-.083-.507-.056-.382-.09-.607-.074-.475-.118-.748l-.085-.4a1.316 1.316 0 0 1 .28-.015c.081 0 .125.036.135.1z"/>
            <path id="패스_210" data-name="패스 210" class="cls-4" d="M1263.339-106.057c.123-.012.183-.019.305-.029-.225 2.324-.335 3.489-.557 5.828l-.3.037c.219-2.341.332-3.509.554-5.837z"/>
            <path id="패스_211" data-name="패스 211" class="cls-4" d="M1269.3-101.543a34.535 34.535 0 0 0-2.062.015l-.413.016c-.149.006-.3.017-.469.029-.33.025-.6.042-.8.057s-.359.032-.482.046c-.024-.171-.038-.256-.064-.427.761-.059 1.143-.08 1.907-.107-.01-.111-.025-.238-.041-.381s-.041-.3-.066-.469c-.005-.034-.013-.076-.023-.127s-.019-.109-.034-.172-.025-.127-.033-.178-.018-.092-.023-.127c.121-.005.183-.008.3-.01.055 0 .088.017.091.061a.468.468 0 0 1 0 .074.678.678 0 0 0 .008.119l.184 1.212.35-.012c.121 0 .248-.01.382-.015.325-.012.587-.017.79-.021s.343 0 .428 0c.028.168.04.252.064.421zm-.467-2.428a.1.1 0 0 1-.033.076.383.383 0 0 0-.045.062.23.23 0 0 1-.024.037c-.029.069-.046.1-.078.171a2.015 2.015 0 0 1-.16-.057 5.04 5.04 0 0 1-.929-.52 2.523 2.523 0 0 1-.362-.291 4.137 4.137 0 0 1-.334-.366c-.038-.046-.076-.1-.118-.157s-.088-.124-.136-.195a1.146 1.146 0 0 1-.049.175 2.428 2.428 0 0 1-.514.85 3.031 3.031 0 0 1-.3.3 2.334 2.334 0 0 1-.338.246c-.04.024-.083.05-.131.076s-.1.055-.164.086l-.084-.084-.089-.091-.059-.059-.086-.08c0-.016.008-.025.016-.026a1.5 1.5 0 0 0 .124-.041.952.952 0 0 1 .105-.04 2.069 2.069 0 0 0 .867-.718 2.481 2.481 0 0 0 .369-.756 1.736 1.736 0 0 0 .065-.734.921.921 0 0 1 .272.025c.079.021.121.051.128.089a.1.1 0 0 1-.026.085l-.012.019a.09.09 0 0 1-.02.027 1.546 1.546 0 0 0 .064.2 2.418 2.418 0 0 0 .6.86 3.328 3.328 0 0 0 .97.629c.063.026.133.052.212.077s.169.056.269.087l.03.039z"/>
            <path id="패스_212" data-name="패스 212" class="cls-4" d="M1167.282-99.385a4.492 4.492 0 0 1-5.148 3.724 4.493 4.493 0 0 1-3.724-5.148 4.494 4.494 0 0 1 4.651-3.776 4.731 4.731 0 0 1 4.223 5.187v.013z"/>
            <path id="패스_213" data-name="패스 213" class="cls-4" d="M1165.372-114.893a1 1 0 0 1-.583-.213 4.435 4.435 0 0 0-2.433-.879 5.1 5.1 0 0 0-2.754.563 1 1 0 0 1-1.373-.339 1 1 0 0 1 .339-1.373 1.061 1.061 0 0 1 .187-.088 7.1 7.1 0 0 1 3.762-.743 6.38 6.38 0 0 1 3.509 1.3 1 1 0 0 1 .164 1.4.993.993 0 0 1-.817.377z"/>
            <path id="패스_214" data-name="패스 214" class="cls-6" d="M1162.72-101.048a1.212 1.212 0 0 1-1.33 1.083 1.213 1.213 0 0 1-1.083-1.33 1.214 1.214 0 0 1 1.289-1.087 1.23 1.23 0 0 1 1.125 1.327v.007z"/>
            <path id="패스_215" data-name="패스 215" class="cls-4" d="M1136.134-100.414c-.151 3.219-2.408 5.717-5.037 5.58s-4.639-2.857-4.488-6.075 2.408-5.717 5.038-5.58 4.639 2.857 4.487 6.075z"/>
            <path id="패스_216" data-name="패스 216" class="cls-4" d="M1134.731-114.693a1 1 0 0 1-.582-.213 4.442 4.442 0 0 0-2.434-.879 5.1 5.1 0 0 0-2.753.563 1 1 0 0 1-1.373-.339 1 1 0 0 1 .339-1.373 1.1 1.1 0 0 1 .187-.088 7.1 7.1 0 0 1 3.761-.743 6.381 6.381 0 0 1 3.509 1.3 1 1 0 0 1 .164 1.4.993.993 0 0 1-.817.377z"/>
            <path id="패스_217" data-name="패스 217" class="cls-6" d="M1130.963-103.006a1.212 1.212 0 0 1-1.33 1.083 1.212 1.212 0 0 1-1.083-1.33 1.213 1.213 0 0 1 1.289-1.087 1.23 1.23 0 0 1 1.125 1.327v.007z"/>
            <g id="그룹_206" data-name="그룹 206" style="opacity:.1">
                <g id="그룹_205" data-name="그룹 205">
                    <g id="그룹_400" data-name="그룹 400">
                        <g id="그룹_399" data-name="그룹 399" style="clip-path:url(#clip-path)">
                            <g id="그룹_204" data-name="그룹 204">
                                <path id="패스_218" data-name="패스 218" class="cls-5" d="M1138.694-100.969c0 5.894-4.089 10.672-9.131 10.672s-9.132-4.777-9.132-10.672 4.089-10.672 9.132-10.672 9.131 4.779 9.131 10.672"/>
                            </g>
                        </g>
                    </g>
                </g>
            </g>
            <path id="패스_219" data-name="패스 219" class="cls-4" d="M1129.564-112.569c-5.548 0-10.063 5.2-10.063 11.6s4.515 11.6 10.063 11.6 10.062-5.2 10.062-11.6-4.513-11.6-10.062-11.6zm8.2 11.6c0 5.372-3.678 9.742-8.2 9.742s-8.2-4.371-8.2-9.742 3.679-9.742 8.2-9.742 8.2 4.371 8.2 9.742z"/>
            <path id="패스_220" data-name="패스 220" class="cls-5" d="M1143.984-106.488s-11.884 18.033-24.745-1.973a1.471 1.471 0 0 0-1.967-.488l-4.3 2.315c-.672.379-.7 1.159-.7 1.939.035 7.264 21.663 32.907 43.819 14.875z"/>
            <path id="패스_221" data-name="패스 221" class="cls-4" d="M1151.021-101.2a.808.808 0 0 1-.459-.142c-.031-.02-3.086-2.085-5.54-2.3a15.731 15.731 0 0 0-5.688.993.813.813 0 0 1-1.054-.461.814.814 0 0 1 .461-1.055h.01a17.1 17.1 0 0 1 6.41-1.1c2.886.247 6.184 2.48 6.322 2.575a.815.815 0 0 1 .215 1.13.812.812 0 0 1-.677.355z"/>
            <path id="패스_222" data-name="패스 222" class="cls-4" d="M1162.551-113.634c-6.839 0-12.4 5.851-12.4 13.043s5.563 13.043 12.4 13.043 12.4-5.851 12.4-13.043-5.564-13.043-12.4-13.043zm10.173 13.041c0 6.06-4.563 10.99-10.173 10.99s-10.173-4.93-10.173-10.99 4.564-10.99 10.173-10.99 10.173 4.93 10.173 10.99z"/>
            <path id="패스_223" data-name="패스 223" class="cls-4" d="m1139.832-67.643.71.077c-.245-.03-.482-.067-.726-.1z"/>
            <path id="패스_224" data-name="패스 224" class="cls-4" d="M1120.995-73.248h.011a1.43 1.43 0 0 1 .558.157 1.121 1.121 0 0 1 .513.231 1.067 1.067 0 0 1 .2.245 1.271 1.271 0 0 1 .364.492c.054.175.091.339.141.513.093-.281.184-.547.274-.809v-.013l.008-.02a32.214 32.214 0 0 1-1.962-1.1l-.105.3z"/>
            <path id="패스_225" data-name="패스 225" class="cls-1" d="m1122.778-71.61.221-.66.051-.151c-.09.263-.181.528-.274.809"/>
            <path id="패스_226" data-name="패스 226" class="cls-4" d="M1115.1-74.86c1.688 1.692 4.827 1.768 5.852 1.743l.045-.131c.034-.1.071-.206.105-.3a26.216 26.216 0 0 1-5.21-4.057 21.42 21.42 0 0 1-3.392-4.488 9.289 9.289 0 0 0 2.6 7.233z"/>
            <path id="패스_2523" data-name="패스 2523" class="cls-1" d="M1157.158-57.858a.036.036 0 0 0-.03.01l.18-.14.04.01"/>
            <path id="패스_2524" data-name="패스 2524" class="cls-1" d="M1153.328-35.588a1.426 1.426 0 0 0 .27-.09 2.487 2.487 0 0 0 .29-.11"/>
            <path id="패스_229" data-name="패스 229" class="cls-4" d="M1141.172-57.176a.9.9 0 0 0 .07.1c.1.1.393.376.81.739-.141-.4-.277-.8-.4-1.2z"/>
            <path id="패스_230" data-name="패스 230" class="cls-4" d="M1158.08-58.624a.851.851 0 0 1-.1.1l.124-.1z"/>
            <path id="패스_231" data-name="패스 231" class="cls-1" d="m1157.981-58.52-.1.082-.033.064c.051-.049.093-.1.138-.146"/>
            <path id="패스_232" data-name="패스 232" class="cls-4" d="m1157.843-58.372-.239.463z"/>
            <path id="패스_2525" data-name="패스 2525" class="cls-1" d="m1157.348-57.978-.04-.01.56-.44.01-.01v.01h-.01v.01l-.01.03-.01.01v.01h-.01v.01"/>
            <path id="패스_234" data-name="패스 234" class="cls-4" d="m1158.514-59.669-.134.26z"/>
            <path id="패스_235" data-name="패스 235" class="cls-4" d="m1157.875-58.436-.033.064z"/>
            <path id="패스_236" data-name="패스 236" class="cls-4" d="m1158.346-59.345-.471.909z"/>
            <path id="패스_237" data-name="패스 237" class="cls-4" d="m1157.843-58.372-.239.463z"/>
            <path id="패스_238" data-name="패스 238" class="cls-4" d="m1157.843-58.372.033-.064z"/>
            <path id="패스_239" data-name="패스 239" class="cls-4" d="m1158.346-59.344.033-.065-.5.973z"/>
            <path id="패스_240" data-name="패스 240" class="cls-4" d="m1158.513-59.669-.134.26-.034.065z"/>
            <path id="패스_241" data-name="패스 241" class="cls-4" d="m1156.122-59.81-.091.177z"/>
            <path id="사각형_5" data-name="사각형 5" class="cls-4" transform="rotate(-62.48 528.884 -982.377)" d="M0 0h.265v.001H0z"/>
            <path id="패스_242" data-name="패스 242" class="cls-4" d="m1155.909-59.4-.909 1.767z"/>
            <path id="패스_243" data-name="패스 243" class="cls-4" d="m1141.458-65.34.163.23z"/>
            <path id="패스_244" data-name="패스 244" class="cls-4" d="m1141.319-65.536.138.2z"/>
            <path id="패스_245" data-name="패스 245" class="cls-1" d="M1117.444-38.008q-.045-1.173-.053-2.343.009 1.169.053 2.343"/>
            <path id="패스_246" data-name="패스 246" class="cls-1" d="M1177.669-69.149c-.06.026-.129.051-.188.077.059-.026.128-.051.188-.077"/>
            <path id="패스_2526" data-name="패스 2526" class="cls-4" d="M1177.668-69.148c.05.16.1.31.14.46l-.33-.38c.06-.03.12-.05.18-.08z"/>
            <path id="패스_2527" data-name="패스 2527" class="cls-4" d="M1185.988-33.788h-.06v-.11l.05.1z"/>
            <path id="패스_249" data-name="패스 249" class="cls-1" d="M1196.487-40.655"/>
            <path id="패스_251" data-name="패스 251" class="cls-1" d="M1195.983-40.479"/>
            <path id="패스_2528" data-name="패스 2528" class="cls-1" d="M1196.688-40.728a1.335 1.335 0 0 0-.18.07"/>
            <path id="패스_253" data-name="패스 253" class="cls-1" d="M1183.556-35.809c0-.292 0-.584-.01-.89.008.306.009.6.01.89"/>
            <path id="패스_254" data-name="패스 254" class="cls-1" d="m1183.5-38.477-.026-.6c.009.2.019.4.026.6"/>
            <path id="패스_2529" data-name="패스 2529" class="cls-4" d="M1185.938-34.318v.42l-.01-.01-.15-.33a1.1 1.1 0 0 1 .15-.08z"/>
            <path id="패스_256" data-name="패스 256" class="cls-1" d="M1169.355-68.747c-.208.051-.408.1-.618.156.21-.051.41-.1.618-.156"/>
            <path id="패스_2530" data-name="패스 2530" class="cls-4" d="m1170.5-61.838-.81 2.26-1.09-2.7.72-2.04z"/>
            <path id="패스_262" data-name="패스 262" class="cls-1" d="M1170.374-66.606c-.093.024-.176.051-.269.075.093-.024.176-.051.269-.075"/>
            <path id="패스_2531" data-name="패스 2531" class="cls-4" d="M1171.418-64.428v.01l-.47 1.28-1.09-2.69.25-.7c.09-.03.16-.05.26-.08h.01l1.03 2.16v.01z"/>
            <path id="패스_267" data-name="패스 267" class="cls-4" d="m1170.1-66.532-.249.7z"/>
            <path id="패스_2532" data-name="패스 2532" class="cls-1" d="M1185.888-31.588c-.15.01-.31.03-.47.05"/>
            <path id="패스_270" data-name="패스 270" class="cls-1" d="M1186.976-31.709c-.354.039-.715.077-1.085.12.37-.042.731-.081 1.085-.12"/>
            <path id="패스_271" data-name="패스 271" class="cls-4" d="M1148.517-58.912a1.491 1.491 0 0 1-.38.077l.206.252a1.952 1.952 0 0 0 .174-.329z"/>
            <path id="패스_273" data-name="패스 273" class="cls-4" d="M1122.638-72.123a1.267 1.267 0 0 0-.365-.492 1.109 1.109 0 0 1-.253 1.547 1.113 1.113 0 0 1-.594.206c-.006 0-.088.008-.223.012.373.207.737.421 1.129.615.125-.4.25-.779.372-1.147l.074-.225c-.05-.173-.086-.338-.14-.513z"/>
            <path id="패스_274" data-name="패스 274" class="cls-1" d="M1121.244-73.128a1.273 1.273 0 0 1 .32.037 1.447 1.447 0 0 0-.558-.157h-.011l-.045.131c.14 0 .243-.007.294-.011"/>
            <path id="패스_275" data-name="패스 275" class="cls-1" d="m1120.995-73.248.1-.3c-.034.1-.071.2-.1.3"/>
            <path id="패스_276" data-name="패스 276" class="cls-1" d="M1122.331-70.234c.126-.4.25-.779.372-1.147q-.181.552-.372 1.147"/>
            <path id="패스_277" data-name="패스 277" class="cls-1" d="M1122.778-71.61c-.025.072-.05.152-.075.226.1-.307.2-.6.3-.884-.074.216-.146.436-.221.66"/>
            <path id="패스_278" data-name="패스 278" class="cls-4" d="M1112.013-78.623a23.122 23.122 0 0 1-1.81-2.863 11.706 11.706 0 0 0 .584 3.792c.41-.379.661-.62.677-.637a1.166 1.166 0 0 1 .548-.292z"/>
            <path id="패스_279" data-name="패스 279" class="cls-4" d="M1112.5-82.093c.024-.282.048-.565.1-.845.514-2.9 1.047-5.906-2.184-7a2.639 2.639 0 0 0-.473-.109 23.308 23.308 0 0 0 .507 2.777 1.672 1.672 0 0 1 .227.8 20.559 20.559 0 0 0 1.823 4.377z"/>
            <path id="패스_280" data-name="패스 280" class="cls-4" d="M1122.077-72.86a1.121 1.121 0 0 0-.513-.231 2.91 2.91 0 0 1 .707.475 1.146 1.146 0 0 0-.194-.245z"/>
            <path id="패스_2533" data-name="패스 2533" class="cls-4" d="M1121.2-70.848c-.12 0-.29.01-.49.01h-.01a2.268 2.268 0 0 1-.07-.28c-.08-.01-.16-.01-.24-.02-.03 0-.07-.01-.1-.01-2.5-.17-6.5-1.01-8.44-4.42a.234.234 0 0 1-.07.07v.01h-.01a.472.472 0 0 1-.05-.1c-.18-.32-.35-.64-.5-.98-.16-.37-.3-.74-.43-1.12.05-.05.1-.09.15-.14.09-.08.17-.16.24-.22l.1-.1.08-.08a.031.031 0 0 1 .02-.01c.05-.06.08-.08.08-.09a1.489 1.489 0 0 1 .2-.15 1.245 1.245 0 0 1 .2-.1.83.83 0 0 1 .15-.04c-.17-.23-.33-.46-.49-.69-.09-.13-.18-.26-.26-.39v-.01c-.38-.57-.73-1.15-1.05-1.75 0-.01-.01-.01-.01-.02 0-.1 0-.21.01-.31a11.289 11.289 0 0 1 .14-1.54 13.846 13.846 0 0 0 .33-3.14c.14.48.29.95.47 1.42a18.629 18.629 0 0 0 .8 1.9c.17.36.36.71.55 1.06a9.1 9.1 0 0 0 .29 3.17 9.177 9.177 0 0 0 .87 2.13c.05.09.1.18.15.26a9.43 9.43 0 0 0 1.29 1.67 5.2 5.2 0 0 0 1.91 1.16 11.208 11.208 0 0 0 3.94.58l-.03.09c-.18.5-.35 1.03-.54 1.59-.01.04-.03.08-.04.12v.01c.04.02.07.04.11.06.1.06.21.12.31.17.148.07.298.15.44.23z"/>
            <path id="패스_282" data-name="패스 282" class="cls-1" d="M1195.445-40.3"/>
            <path id="패스_283" data-name="패스 283" class="cls-1" d="M1177.218-71.507a35.886 35.886 0 0 0 1.711-.851c-.382.206-.793.4-1.2.6-.173.085-.34.171-.513.256"/>
            <path id="패스_284" data-name="패스 284" class="cls-1" d="M1169.355-68.747c.432-.106.86-.215 1.278-.329q-.629.171-1.278.329"/>
            <path id="패스_285" data-name="패스 285" class="cls-4" d="M1174.128-70.212a42.205 42.205 0 0 0 2.792-1.147c-.327.151-.685.288-1.025.433q-.859.369-1.767.714z"/>
            <path id="패스_286" data-name="패스 286" class="cls-1" d="M1181.774-65.4c.15.2.3.4.456.6-.151-.2-.3-.4-.456-.6"/>
            <path id="패스_2534" data-name="패스 2534" class="cls-1" d="M1185.748-39.7c.03.46.06.91.08 1.35"/>
            <path id="선_134" data-name="선 134" class="cls-1" transform="translate(1185.888 -37.048)" d="M0 .01V0"/>
            <path id="패스_2535" data-name="패스 2535" class="cls-1" d="m1183.458-63.158-.34-.46"/>
            <path id="패스_2536" data-name="패스 2536" class="cls-1" d="M1180.718-66.778v.01c0 .01.01.01.01.02"/>
            <path id="패스_2537" data-name="패스 2537" class="cls-1" d="M1181.088-65.488c-.12-.42-.25-.85-.38-1.29"/>
            <path id="패스_2538" data-name="패스 2538" class="cls-1" d="M1196.948-42.278c-.06-.13-.12-.26-.19-.4"/>
            <path id="패스_2539" data-name="패스 2539" class="cls-1" d="m1185.6-41.628-.03-.46"/>
            <path id="패스_299" data-name="패스 299" class="cls-1" d="m1183.468-39.079-.011-.26.011.26"/>
            <path id="패스_2540" data-name="패스 2540" class="cls-1" d="M1177.808-68.688c.01.01.01.01.01.02 0-.01 0-.01-.01-.02-.04-.15-.09-.3-.14-.46"/>
            <path id="패스_302" data-name="패스 302" class="cls-1" d="M1172.388-67.166"/>
            <path id="패스_303" data-name="패스 303" class="cls-4" d="M1180-69.074c.242.769.487 1.541.71 2.294-.22-.753-.466-1.525-.71-2.294z"/>
            <path id="패스_2541" data-name="패스 2541" class="cls-4" d="m1170.958-63.118-.1.26-.36 1.02-1.18-2.48.54-1.51 1.09 2.69v.01z"/>
            <path id="패스_305" data-name="패스 305" class="cls-4" d="M1177.668-69.148h-.01c.05.16.1.31.15.46-.04-.15-.09-.3-.14-.46zm-59.98 21.68c-.02.23-.04.46-.05.7.05-.62.1-1.23.17-1.84q-.075.57-.12 1.14zm40.15-10.9v.01l.01-.01zm0 0v.01l.01-.01zm0 0v.01l.01-.01zm0 0v.01l.01-.01zm0 0v.01l.01-.01zm0 0v.01l.01-.01zm0 0v.01l.01-.01zm109.73 30.35h-69.44c-.35-.8-.67-1.49-.98-2.1a10.106 10.106 0 0 0 .66-1.68 14.765 14.765 0 0 0 .07-6.71c.26-.1.5-.2.7-.3a2.487 2.487 0 0 0 1.32-1.63 2.674 2.674 0 0 0-.2-1.74c-2.93-7.52-12.95-21.1-18.88-28.56a28.779 28.779 0 0 0 6.92-5.21c.16-.15.32-.31.47-.48.44-.47.86-.95 1.26-1.45a28.653 28.653 0 0 0 4.78-8.36 22.491 22.491 0 0 0 1.03-12.6c.47-13.93-2.12-24.92-7.88-33.29-.38-.56-.78-1.11-1.2-1.64-.14-.2-.3-.4-.45-.59a37.735 37.735 0 0 0-5.11-5.24c-9.04-7.67-20.2-9.6-27.97-9.88-6.01-.21-17.56.54-27.32 7.9-.82.62-1.61 1.26-2.37 1.95-.66.57-1.29 1.17-1.9 1.8-5.73 5.83-9.49 13.48-11.36 23.12-.08.35-.14.71-.21 1.07l-.18 1.08q-.585 3.6-.84 7.56l-.06 1.02v.01c-.02.35-.04.71-.05 1.07l-.03.63a41.283 41.283 0 0 0-.87 10.86c0 .03.01.06.01.09a5.2 5.2 0 0 1 .26.65c0 .01.01.02.01.04a6.008 6.008 0 0 1 .19.6c.04.15.08.29.11.44v.01c.02-.02.05-.03.07-.05.08-.05.16-.1.25-.15a2.59 2.59 0 0 1 1.57-.28c-.06-.49-.12-.98-.15-1.5a40.528 40.528 0 0 1 .84-10.3l.02-.2.03-.72c.01-.35.03-.7.05-1.04s.04-.69.07-1.03q.21-3.21.67-6.19c.06-.4.12-.79.19-1.18s.14-.77.21-1.15q2.625-13.77 10.59-22.18a26.789 26.789 0 0 1 1.94-1.9 33.544 33.544 0 0 1 3.21-2.58c8.83-6.27 18.71-7.17 23.64-7.17.5 0 .94.01 1.34.02 7.4.26 18.01 2.09 26.54 9.33a35.638 35.638 0 0 1 5.35 5.64c.15.2.31.4.46.61.18.26.37.52.55.79a.211.211 0 0 1 .04.06c.13.19.26.38.38.57 5.19 7.92 7.5 18.3 7.04 31.43l-.01.19.05.18a20.086 20.086 0 0 1-.93 11.35 24.887 24.887 0 0 1-4.06 7.24c-.4.5-.82 1-1.29 1.49q-.225.255-.48.51a29.752 29.752 0 0 1-6.89 5.19c-.14.08-.27.16-.41.23-.2.11-.4.21-.6.31a1.965 1.965 0 0 1-.25.13c-.16.08-.33.16-.5.24-.12.06-.24.11-.36.17a.01.01 0 0 0-.01.01 1.2 1.2 0 0 0-.16.08 1.38 1.38 0 0 1-.13.06c-.22.1-.44.2-.67.3-.45.19-.92.38-1.4.57l-.01.01-.09.03c-.02.01-.03.02-.04.02a.075.075 0 0 0-.05.01c-.02.01-.04.01-.06.02a.3.3 0 0 1-.1.04c-.01.01-.03.01-.04.02-.11.05-.22.09-.33.13-.68.26-1.39.51-2.12.74-.45.14-.9.27-1.37.39-.42.12-.85.23-1.28.33-.21.05-.41.1-.62.16-.43.1-.88.18-1.32.28-.39.08-.77.17-1.17.25-1.18.22-2.4.43-3.7.6-.84.1-1.71.2-2.61.28-1 .09-2.01.17-3.07.22-2.86.14-5.93.16-9.25 0-1.6-.08-3.13-.19-4.63-.33l-.25-.03-2.19-.24h-.02l-.09-.01-.6-.07-.02-.02h-.01a51.781 51.781 0 0 1-16.74-4.79l-.01.01v.01l-.01.01v.01a.868.868 0 0 0-.05.15c-.05.14-.1.28-.15.43-.03.07-.05.15-.08.23s-.05.14-.07.22v.01l-.06.18c-.04.12-.08.25-.12.38-.05.15-.1.3-.15.46-.01.04-.03.08-.04.12h-.01c-.39-.19-.74-.41-1.12-.61h-.01c-.12 0-.29.01-.49.01a19.574 19.574 0 0 1 .63 3.96c.02.3.02.59.02.89a17.527 17.527 0 0 1-2.3 8.68v.01a19.628 19.628 0 0 1-2.96 3.94c-.45.46-.83.82-1.08 1.03a21.479 21.479 0 0 1-4.75-1.06 29.94 29.94 0 0 1-11.13-7.23l-.01-.01a39.75 39.75 0 0 1-3.62-4.16 11.013 11.013 0 0 0 1.13-.34c5.57-1.91 12.64-8.07 15.13-10.36h.01v-.01a.409.409 0 0 1-.05-.09h-.01c-.18-.32-.35-.64-.5-.98-.16-.37-.3-.74-.43-1.12-.73.68-2.02 1.85-3.62 3.18-3.42 2.86-8.22 6.42-11.83 7.4a24.863 24.863 0 0 1-3.35-12.02 23.635 23.635 0 0 1 .17-3.36 21.758 21.758 0 0 1 .37-2.26c1.16-5.44 4.09-9.1 7.11-8.91a1.356 1.356 0 0 1 .2.02c2.6.31 4.38 1.22 5.3 2.7a7.122 7.122 0 0 1 .48 5.3c-.06.19-.1.32-.11.37a1.132 1.132 0 0 0 .74 1.39 1.114 1.114 0 0 0 .84-.04 1.163 1.163 0 0 0 .59-.66c.01-.03.06-.18.13-.42a9.1 9.1 0 0 1 .51-1.25 24.711 24.711 0 0 1-.57-2.69 23.714 23.714 0 0 1-.27-2.38 6.881 6.881 0 0 0-.4-.82c-1.3-2.1-3.65-3.37-6.96-3.77-4.39-.51-8.35 3.83-9.82 10.68-.03.12-.05.25-.07.37a25.7 25.7 0 0 0-.47 3.6 27.1 27.1 0 0 0 3.17 14.58 1.265 1.265 0 0 0-.44.42 1.142 1.142 0 0 0 .03 1.17c.28.45 6.96 11.09 18.25 14.26a24.979 24.979 0 0 0 4.54.81 1.179 1.179 0 0 0 .37-.05 76.693 76.693 0 0 0-.08 17c-5.92-.76-11-1.3-13.52-1.3-.8 0-2.14.69-4.6 6.35H1067.6a1.1 1.1 0 0 0-1.1 1.1v7.77a1.1 1.1 0 0 0 1.1 1.09h199.97a1.108 1.108 0 0 0 1.1-1.09v-7.77a1.11 1.11 0 0 0-1.102-1.1zm-85.8-37.38c.15.2.3.4.46.6.21.28.41.54.63.83v.01c.08.11.17.22.26.34.11.15.23.3.35.46l.51.69.7.94c.14.2.28.39.42.58.27.36.53.72.79 1.08l.34.45v.01c.28.4.57.8.86 1.2.09.11.17.23.25.34l.93 1.32.15.21c.38.52.76 1.05 1.13 1.59.74 1.06 1.46 2.14 2.16 3.23s1.38 2.2 2.04 3.31c.32.54.64 1.09.94 1.63.06.12.13.23.19.35.21.35.4.71.59 1.06.06.12.13.23.19.35.31.57.61 1.15.91 1.72v.01c.07.14.13.27.19.41s.12.27.18.4c.16.34.3.68.43.99.03.1.09.24.09.24-.06.03-.13.06-.19.09-.1.04-.22.09-.35.14l-.2.08-.03.01-.18.06h-.02c-.15.05-.3.11-.46.16l-.04.02c-.17.05-.34.11-.51.17h-.02l-.01.01c-.68.22-1.44.46-2.23.71-3.18 1-5.59 1.8-7.33 2.55l-.06-1.29v-.01c-.02-.45-.05-.9-.07-1.36-.04-.62-.1-1.28-.15-1.93-.01-.15-.03-.3-.04-.45s-.02-.32-.04-.48c-.08-.87-.18-1.77-.29-2.7v-.01c-.01-.12-.02-.22-.04-.34-.12-1.03-.27-2.1-.44-3.21v-.04a131.331 131.331 0 0 0-3.32-15.34c-.12-.43-.23-.85-.35-1.28l-.18-.63c-.06-.2-.12-.42-.18-.63.35.44.69.89 1.04 1.348zm-21.58 37.37c7.2-1.1 16.23-2.43 23.29-3.28.26-.03.5-.06.74-.09l.72-.09c.16-.01.32-.03.48-.05l.47-.06 1.09-.12.66-.07.39-.04.59-.05.41-.04c.18-.02.34-.03.52-.05l.44-.04.13-.01.31-.03.45-.03.17-.01.22-.02.44-.03.32-.02.46-.02.23-.01c.22-.01.43-.01.61-.01v.01a2.182 2.182 0 0 1 .21.22v.01c.02.03.04.04.06.07.22.31.43.63.62.96s.38.65.56.99v.01l.01.01.01.02v.01c.06.12.13.24.2.37v.01c.06.13.13.26.2.4v.01a.262.262 0 0 1 .05.09c.08.15.16.31.24.47v.01c.08.16.16.33.24.5zm33.33-6.35c-1.62 0-4.29.22-7.54.58l-.05.01v-.12l-.16-.33h.01a1.1 1.1 0 0 1 .15-.08h.01a71.877 71.877 0 0 1 8.03-2.9c.75-.23 1.44-.45 2.06-.65a12.38 12.38 0 0 1-.1 5.55c-1.14-1.76-1.89-2.06-2.41-2.06zM1154.548-57l.01-.01c.03.03.19.01.2.01a7.461 7.461 0 0 0 2.37-.84l.03-.02.01-.01.14-.12.56-.43v-.01h.01l.1-.09.04-.04.06-.06.01.01-.11.1a.573.573 0 0 1-.11.11l-.01.01-.01.01v.01h-.01v.01c-.08.07-.16.14-.24.2a2.36 2.36 0 0 1-.25.19l.25.07 1.18.31a8.247 8.247 0 0 1-2.5 2.24c-.28.17-.47.26-.48.27a1.031 1.031 0 0 0-.54.6l-1.22 3.45-.35 1.01a1.161 1.161 0 0 0 0 .78l2.4 6.47-2.85 4.4-3.75-4.62 2.08-6.76a1.1 1.1 0 0 0-.04-.8l-.6-1.36-1.01-2.31a1.022 1.022 0 0 0-.91-.61c-.05 0-.1-.02-.15-.02-1.62-.06-4.04-1.83-5.47-3.06l.75-.76 1.28.4c.47.27.84.45 1.17.6.14.06.28.14.4.18a1.865 1.865 0 0 0 1.43 0l.86.07.46.04 2.63.22 2.19.17zm6.26-.05 2.93.79a90.82 90.82 0 0 1-5.74 12.87l-2.32-6.27 1.3-3.67a9.989 9.989 0 0 0 3.83-3.718zm-21.31-1.26-3.03 2.26-1.33-10.03q3.075.6 6.48.97h.01c.78.08 1.57.16 2.38.22l1.38 2.68 1.18 2.27-.62-.2-1.02-.31h-.01l-.61-.19a1.633 1.633 0 0 0-.43-.18 1.716 1.716 0 0 0-.45-.04h-.01a1.435 1.435 0 0 0-.46.08h-.02a1.879 1.879 0 0 0-.44.24zm8.9 5.56 1.18 2.72-1.64 5.32a59.058 59.058 0 0 1-5.88-11.63c1.342 1.172 4.02 3.262 6.342 3.592zm4.74-10.29a2.4 2.4 0 0 0-.15.33l-1.45 3.09-.06.15a1.721 1.721 0 0 0-.04.39l-2.42.03a1.117 1.117 0 0 0-.37.09.037.037 0 0 0-.03.01.69.69 0 0 1-.1.04 2.577 2.577 0 0 1-.18.32l-.2-.24h.01l.18-.03a1.331 1.331 0 0 0 .19-.05c.01-.05.05-.09.06-.13a1.787 1.787 0 0 0-.03-1.12.618.618 0 0 0-.05-.12l-2.3-4.45c.43.02.86.06 1.3.08.46.02.9.04 1.35.05 1.23.05 2.42.07 3.59.07.71 0 1.41-.02 2.1-.03l-1.27 1.36a1.847 1.847 0 0 0-.13.162zm26.87-6.05c.12.39.24.77.36 1.15-.13-.38-.25-.76-.37-1.14zm.36 1.17c.13.38.24.76.35 1.13v.02a.01.01 0 0 0-.01-.01c-.108-.378-.23-.758-.34-1.138zm-62.97 25.23.02.01a.486.486 0 0 1 .01-.12c.02-.78.05-1.56.1-2.33v-.05l.03-.53a1.086 1.086 0 0 1 .01-.18 3.142 3.142 0 0 1 .03-.44l.03-.34a.344.344 0 0 1 .01-.1c.05-.62.1-1.23.17-1.84l.12-1.13c.08-.77.16-1.53.27-2.28v-.01c.01-.06.01-.13.02-.19v-.03h.01a22.311 22.311 0 0 0 2.18-2.77c.02-.03.03-.06.05-.09.17-.25.33-.51.49-.78.04-.07.08-.15.12-.22.14-.23.28-.47.4-.72.06-.11.12-.24.18-.35.1-.22.21-.43.32-.66.07-.16.14-.33.21-.5v-.01c.08-.18.16-.37.24-.56.08-.21.15-.44.23-.66.05-.16.11-.32.17-.48.04-.14.08-.28.11-.42l.12-.42c.03-.13.07-.24.1-.37.07-.29.12-.59.18-.9v-.01c.03-.12.06-.24.08-.36.06-.35.1-.7.14-1.07l.03-.27c.01-.07.01-.15.02-.22a.2.2 0 0 0 .01-.08c.02-.28.03-.57.04-.86a1.64 1.64 0 0 1 .02-.23c0-.41-.01-.84-.03-1.27v-.19a21.889 21.889 0 0 0-.41-3.11 48.96 48.96 0 0 0 10 3.34 1.288 1.288 0 0 0 .01.28l1.42 10.75a1.7 1.7 0 0 0 1 1.35 1.666 1.666 0 0 0 .65.15 1.659 1.659 0 0 0 .99-.33l2.78-2.07c3.52 10.6 11.59 20.13 11.96 20.57a.867.867 0 0 0 .66.31h.1a4.355 4.355 0 0 0 .52-.11h.01a1.426 1.426 0 0 0 .27-.09 2.487 2.487 0 0 0 .29-.11c2.65-1.16 5.54-5.37 8.79-12.8 1.12-2.56 2.1-5.1 2.87-7.2l1.01.27a1.612 1.612 0 0 0 .44.06 1.718 1.718 0 0 0 1.59-1.02c.01-.02.02-.05.03-.07l1.08-3.02-.01-.01-1.09-2.7-1.73 4.85-.68-.19-1.78-.47-2.93-.78-2.28-.61-.68-.19h-.01l-1.03-.27a1.4 1.4 0 0 0-.54-.05 1.236 1.236 0 0 0-.39.09.8.8 0 0 0-.15.03c-.03.01-.06.01-.09.02l-.19.04-2.58.48 1.23-2.61a.142.142 0 0 0 .02-.06l2.49-2.67c.48-.03.94-.07 1.41-.11.87-.06 1.74-.13 2.58-.21 1-.11 1.96-.24 2.9-.38.11-.01.22-.03.33-.05.9-.14 1.77-.29 2.63-.46h.01c.44-.08.86-.19 1.3-.28.39-.09.79-.17 1.17-.26.16-.04.33-.07.49-.11h.01c.09-.03.16-.05.26-.08l1.03 2.19.01-.02v-.01l.97-2.72h.01c.4-.12.79-.25 1.17-.37.51-.17 1-.35 1.48-.53.85-.32 1.65-.65 2.43-1h.01c.06-.03.12-.05.18-.08.05.16.1.31.15.46 0 .01 0 .01.01.02.13.41.25.82.38 1.23.15.5.31 1 .46 1.48.17.57.33 1.12.49 1.68.13.47.26.94.4 1.41.15.55.29 1.08.43 1.62.11.45.23.9.34 1.35.13.52.26 1.04.38 1.56.1.44.2.87.3 1.3.11.5.22 1 .32 1.49.09.42.17.84.25 1.25.1.48.19.96.28 1.42.08.42.15.82.22 1.22.07.45.16.9.23 1.34.07.46.13.9.2 1.35.1.71.2 1.4.28 2.08.05.41.11.82.15 1.22.05.37.08.73.12 1.1s.08.76.11 1.12.06.69.09 1.04l.09 1.08.06.95c.02.35.04.7.05 1.04l.02.26c.01.2.01.4.02.6.02.36.03.7.04 1.04 0 .25.01.5.01.74.01.31.01.6.01.89v.21c0 .19.01.38.01.56 0 .22-.01.43-.01.66 0 .29 0 .6-.01.87-.98.12-2 .25-3.05.38h-.01c-.74.09-1.47.19-2.23.29h-.05c-3.83.51-7.94 1.09-11.89 1.68-1.58.23-3.14.46-4.64.69h-.03c-2.98.45-5.76.89-8.12 1.26l-.12.02-1.54.24-.24.04-1.36.22-.1.01-1.14.18-.34.06-.89.14c-4.86-.78-18.53-2.96-29.95-4.49-.09-.75-.16-1.51-.23-2.27-.01-.22-.03-.43-.05-.64-.04-.58-.07-1.15-.1-1.73l-.03-.59c-.03-.79-.05-1.57-.05-2.35s0-1.548.022-2.318zm-15.18 10.49c2.56.02 7.72.59 13.68 1.36.75.1 1.5.2 2.27.3 5.74.78 11.98 1.7 17.24 2.5l-19.03.01h-16.5a20.084 20.084 0 0 1 2.34-4.17zm164.25 11.93h-197.78v-5.58h29.45c.02 0 .03.01.05.01h99.22c.02 0 .03-.01.05-.01h69.01zm-108.63-38.1v.01l.01-.01zm0 0v.01l.01-.01zm0 0v.01l.01-.01zm0 0v.01l.01-.01zm0 0v.01l.01-.01zm0 0v.01l.01-.01zm0 0v.01l.01-.01zm-40.15 10.9c-.02.23-.04.46-.05.7.05-.62.1-1.23.17-1.84q-.075.572-.12 1.142zm40.82-12.2-.04.09.05-.09zm19.16-9.48h-.01c.05.16.1.31.15.46-.04-.148-.09-.298-.14-.458z"/>
            <path id="패스_2542" data-name="패스 2542" class="cls-5" d="M1266.468-25.848v5.58h-197.78v-5.58h29.45c.02 0 .03.01.05.01h99.22c.02 0 .03-.01.05-.01z"/>
            <path id="패스_2543" data-name="패스 2543" class="cls-5" d="m1135.408-28.038-19.03.01h-16.5a20.084 20.084 0 0 1 2.34-4.17c2.56.02 7.72.59 13.68 1.36.75.1 1.5.2 2.27.3 5.74.78 11.98 1.7 17.24 2.5z"/>
            <path id="패스_2544" data-name="패스 2544" class="cls-5" d="M1195.718-28.028h-35.53c7.2-1.1 16.23-2.43 23.29-3.28.26-.03.5-.06.74-.09s.48-.05.72-.08l.48-.06.47-.06 1.09-.12.66-.07.39-.04.59-.05.41-.04c.18-.02.34-.03.52-.05l.44-.04.13-.01.31-.03.45-.03.17-.01.22-.02.44-.03.32-.02.46-.02.23-.01c.22-.01.43-.01.61-.01v.01a2.182 2.182 0 0 1 .21.22v.01c.02.03.04.04.06.07.22.31.43.63.62.96s.38.65.56.99v.01l.01.01.01.02v.01c.06.12.13.24.2.37 0 0-.01.01 0 .01.06.13.13.26.2.4v.01a.262.262 0 0 1 .05.09c.08.15.15.31.23.47 0 .01 0 .01.01.01.07.16.15.328.23.5z"/>
            <path id="패스_2545" data-name="패스 2545" class="cls-5" d="M1195.928-32.318c-1.14-1.76-1.89-2.06-2.41-2.06-1.62 0-4.29.22-7.54.58l-.05-.1v-.01l.01.01v-.42a71.877 71.877 0 0 1 8.03-2.9c.75-.23 1.44-.45 2.06-.65a12.38 12.38 0 0 1-.1 5.55z"/>
            <path id="패스_2546" data-name="패스 2546" class="cls-5" d="M1197.458-41.048c-.06.03-.13.06-.19.09-.1.04-.22.09-.35.14l-.2.08-.03.01-.18.06h-.02c-.15.05-.3.11-.46.16l-.04.02c-.17.05-.34.11-.51.17h-.02l-.01.01c-.68.22-1.44.46-2.23.71-3.18 1-5.59 1.8-7.33 2.55l-.06-1.29v-.01c-.02-.45-.05-.9-.07-1.36-.04-.62-.1-1.28-.15-1.93-.01-.15-.03-.3-.04-.45s-.02-.32-.04-.48c-.08-.87-.18-1.77-.29-2.7v-.01c-.01-.12-.02-.22-.04-.34-.12-1.03-.27-2.1-.44-3.21v-.04a131.331 131.331 0 0 0-3.32-15.34c-.12-.43-.23-.85-.35-1.28s-.24-.83-.36-1.26c.35.44.69.89 1.04 1.35.15.2.3.4.46.6.21.28.41.54.63.83v.01c.08.11.17.22.26.34.11.15.23.3.35.46l.51.69.7.94c.14.2.28.39.42.58.27.36.53.72.79 1.08l.34.45v.01c.28.4.57.8.86 1.2.09.11.17.23.25.34l.93 1.32.15.21c.38.52.76 1.05 1.13 1.59.74 1.06 1.46 2.14 2.16 3.23s1.38 2.2 2.04 3.31c.31.54.63 1.08.94 1.63.06.12.13.23.19.35.21.35.4.71.59 1.06.06.12.13.23.19.35.31.57.61 1.15.91 1.72v.01c.07.14.13.27.19.41s.12.27.18.4c.16.34.3.68.43.99.032.1.09.24.09.24z"/>
            <path id="패스_2547" data-name="패스 2547" class="cls-5" d="m1149.578-50.028-1.64 5.32a59.058 59.058 0 0 1-5.88-11.63c1.34 1.17 4.02 3.26 6.34 3.59z"/>
            <path id="패스_2548" data-name="패스 2548" class="cls-5" d="M1163.738-56.258a90.82 90.82 0 0 1-5.74 12.87l-2.32-6.27 1.3-3.67a9.989 9.989 0 0 0 3.83-3.72z"/>
            <path id="패스_2549" data-name="패스 2549" class="cls-5" d="M1158.778-57.588a8.247 8.247 0 0 1-2.5 2.24c-.28.17-.47.26-.48.27a1.031 1.031 0 0 0-.54.6l-1.22 3.45-.35 1.01a1.161 1.161 0 0 0 0 .78l2.4 6.47-2.85 4.4-3.75-4.62 2.08-6.76a1.1 1.1 0 0 0-.04-.8l-.6-1.36-1.01-2.31a1.022 1.022 0 0 0-.91-.61c-.05 0-.1-.02-.15-.02-1.62-.06-4.04-1.83-5.47-3.06l.75-.76 1.28.4c.47.27.84.45 1.17.6.14.06.28.14.4.18a1.865 1.865 0 0 0 1.43 0l.86.07.46.04 2.63.22 2.19.17-.01-.01.01-.01c.03.03.19.01.2.01a7.461 7.461 0 0 0 2.37-.84l.03-.02.01-.01a.784.784 0 0 0 .18-.11 4.582 4.582 0 0 0 .49-.38 3.82 3.82 0 0 1-.49.39l.25.07z"/>
            <path id="패스_2550" data-name="패스 2550" class="cls-5" d="m1170.108-66.528-.25.7-.54 1.51-.72 2.04-1.73 4.85-.68-.19-1.78-.47-2.93-.78-2.28-.61-.68-.19h-.01l-1.03-.27a1.4 1.4 0 0 0-.54-.05 1.236 1.236 0 0 0-.39.09.8.8 0 0 0-.15.03c-.03.01-.06.01-.09.02l-.19.04-2.58.48 1.23-2.61a.142.142 0 0 0 .02-.06l2.49-2.67c.48-.03.94-.07 1.41-.11.87-.06 1.74-.13 2.58-.21 1-.11 1.96-.24 2.9-.38.11-.01.22-.03.33-.05.9-.14 1.77-.29 2.63-.46h.01c.44-.08.86-.19 1.3-.28.39-.09.79-.17 1.17-.26.16-.04.33-.07.49-.11z"/>
            <path id="패스_2551" data-name="패스 2551" class="cls-5" d="m1154.538-64.558-1.27 1.36a1.847 1.847 0 0 0-.13.16 2.4 2.4 0 0 0-.15.33l-1.45 3.09-.06.15a1.721 1.721 0 0 0-.04.39l-2.42.03a1.117 1.117 0 0 0-.37.09.037.037 0 0 0-.03.01.69.69 0 0 1-.1.04c.01-.05.05-.09.06-.13a1.787 1.787 0 0 0-.03-1.12.618.618 0 0 0-.05-.12l-2.3-4.45c.43.02.86.06 1.3.08.46.02.9.04 1.35.05 1.23.05 2.42.07 3.59.07.71 0 1.41-.02 2.1-.03z"/>
            <path id="패스_2552" data-name="패스 2552" class="cls-5" d="m1146.568-59.938-.62-.2-1.02-.31h-.01l-.61-.19a1.633 1.633 0 0 0-.43-.18 1.716 1.716 0 0 0-.45-.04h-.01a1.435 1.435 0 0 0-.46.08h-.02a1.879 1.879 0 0 0-.44.24l-3 2.23-3.03 2.26-1.33-10.03q3.075.6 6.48.97h.01c.78.08 1.57.16 2.38.22l1.38 2.68z"/>
            <path id="패스_2553" data-name="패스 2553" class="cls-5" d="M1121.358-65.988a17.527 17.527 0 0 1-2.3 8.68v.01a19.628 19.628 0 0 1-2.96 3.94c-.45.46-.83.82-1.08 1.03a21.479 21.479 0 0 1-4.75-1.06 29.94 29.94 0 0 1-11.13-7.23l-.01-.01a39.75 39.75 0 0 1-3.62-4.16 11.013 11.013 0 0 0 1.13-.34c5.57-1.91 12.64-8.07 15.13-10.36h.01v-.01a.234.234 0 0 0 .07-.07c1.94 3.41 5.94 4.25 8.44 4.42.03 0 .07.01.1.01.08.01.16.01.24.02a2.268 2.268 0 0 0 .07.28h.01a19.574 19.574 0 0 1 .63 3.96c.02.3.02.59.02.89z"/>
            <path id="패스_2554" data-name="패스 2554" class="cls-5" d="M1183.558-35.038c0 .22-.01.43-.01.66 0 .29 0 .6-.01.87-.98.12-2 .25-3.05.38h-.01c-.74.09-1.47.19-2.23.29h-.05c-3.83.51-7.94 1.09-11.89 1.68-1.58.23-3.14.46-4.64.69h-.03c-2.98.45-5.76.89-8.12 1.26l-.12.02-1.54.24-.24.04-1.36.22-.1.01-1.14.18-.34.06-.89.14c-4.86-.78-18.53-2.96-29.95-4.49-.09-.75-.16-1.51-.23-2.27-.01-.22-.03-.43-.05-.64-.04-.58-.07-1.15-.1-1.73l-.03-.59c-.03-.79-.05-1.57-.05-2.35s0-1.55.02-2.32l.02.01a.486.486 0 0 1 .01-.12c.02-.78.05-1.56.1-2.33v-.05l.03-.53a1.086 1.086 0 0 1 .01-.18q.015-.39.06-.78a.344.344 0 0 1 .01-.1c.05-.62.1-1.23.17-1.84l.12-1.13c.08-.77.16-1.53.27-2.28v-.01c.01-.06.01-.13.02-.19v-.03h.01a22.311 22.311 0 0 0 2.18-2.77c.02-.03.03-.06.05-.09.17-.25.33-.51.49-.78.04-.07.08-.15.12-.22.14-.23.28-.47.4-.72.06-.11.12-.24.18-.35.1-.22.21-.43.32-.66.07-.16.14-.33.21-.5v-.01c.08-.18.16-.37.24-.56.08-.21.15-.44.23-.66.05-.16.11-.32.17-.48.04-.14.08-.28.11-.42l.12-.42c.03-.13.07-.24.1-.37.07-.29.13-.6.18-.9v-.01c.03-.12.06-.24.08-.36.06-.35.1-.7.14-1.07l.03-.27c.01-.07.01-.15.02-.22a1.693 1.693 0 0 1-.01.23 3.025 3.025 0 0 0 .02-.31c.02-.28.03-.57.04-.86a1.64 1.64 0 0 1 .02-.23c0-.41-.01-.84-.03-1.27v-.19a21.889 21.889 0 0 0-.41-3.11 48.96 48.96 0 0 0 10 3.34 1.288 1.288 0 0 0 .01.28l1.42 10.75a1.7 1.7 0 0 0 1 1.35 1.666 1.666 0 0 0 .65.15 1.659 1.659 0 0 0 .99-.33l2.78-2.07c3.52 10.6 11.59 20.13 11.96 20.57a.867.867 0 0 0 .66.31h.1a4.355 4.355 0 0 0 .52-.11h.07a.848.848 0 0 0 .5-.2c2.65-1.16 5.54-5.37 8.79-12.8 1.12-2.56 2.1-5.1 2.87-7.2l1.01.27a1.612 1.612 0 0 0 .44.06 1.718 1.718 0 0 0 1.59-1.02c.01-.02.02-.05.03-.07l1.08-3.02-.01-.01.81-2.26.36-1.02.1-.26-.01-.01.47-1.29v-.01l.97-2.74c.4-.12.79-.25 1.17-.37.51-.17 1-.35 1.48-.53.85-.32 1.65-.65 2.43-1h.01l.33.38c0 .01 0 .01.01.02.13.41.25.82.38 1.23.15.5.31 1 .46 1.48.17.57.33 1.12.49 1.68.13.47.26.94.4 1.41.15.55.29 1.08.43 1.62.11.45.23.9.34 1.35.13.52.26 1.04.38 1.56.1.44.2.87.3 1.3.11.5.22 1 .32 1.49.09.42.17.84.25 1.25.1.48.19.96.28 1.42.08.42.15.82.22 1.22.07.45.16.9.23 1.34.07.46.13.9.2 1.35.1.71.2 1.4.28 2.08.05.41.11.82.15 1.22.05.37.08.73.12 1.1s.08.76.11 1.12.06.69.09 1.04l.09 1.08.06.95c.02.35.04.7.05 1.04l.02.26c.01.2.01.4.02.6.02.36.03.7.04 1.04 0 .25.01.5.01.74.01.31.01.6.01.89v.21c0 .19.01.38.01.56z"/>
            <path id="패스_306" data-name="패스 306" class="cls-1" d="m1150.262-28.679-.094.015.094-.015"/>
            <path id="패스_307" data-name="패스 307" class="cls-1" d="m1151.867-28.935-.235.037.235-.037"/>
            <path id="패스_308" data-name="패스 308" class="cls-1" d="m1149.035-28.483-.345.055.345-.055"/>
            <path id="패스_309" data-name="패스 309" class="cls-1" d="m1153.525-29.193-.12.019.12-.019"/>
            <path id="패스_313" data-name="패스 313" class="cls-1" d="M1161.678-30.459"/>
            <path id="패스_2555" data-name="패스 2555" class="cls-1" d="M1122.928-60.468a2.574 2.574 0 0 1-.12.42"/>
            <path id="패스_318" data-name="패스 318" class="cls-1" d="M1122.413-58.908c.08-.211.153-.434.229-.654-.076.22-.149.443-.229.654"/>
            <path id="패스_2556" data-name="패스 2556" class="cls-4" d="M1117.6-46.328c.02-.39.05-.76.09-1.14-.02.23-.04.46-.05.7a.344.344 0 0 0-.01.1q-.045.39-.06.78a3.142 3.142 0 0 1 .03-.44z"/>
            <path id="패스_2557" data-name="패스 2557" class="cls-4" d="M1117.918-49.738c-.04.38-.08.75-.11 1.13q-.075.57-.12 1.14c.03-.39.06-.78.1-1.16.02-.23.05-.45.08-.68.01-.14.032-.28.05-.43z"/>
            <path id="패스_2558" data-name="패스 2558" class="cls-1" d="M1123.648-65.028c-.01.29-.02.58-.04.86a.2.2 0 0 1-.01.08"/>
            <path id="패스_322" data-name="패스 322" class="cls-1" d="M1183.558-35.593"/>
            <path id="패스_323" data-name="패스 323" class="cls-1" d="M1120.4-55.021c.019-.027.036-.057.054-.086-.018.029-.035.059-.054.086"/>
            <path id="패스_2559" data-name="패스 2559" class="cls-1" d="m1118.218-52.218-.03.19"/>
            <path id="패스_325" data-name="패스 325" class="cls-1" d="M1180.485-33.13"/>
            <path id="패스_329" data-name="패스 329" class="cls-1" d="M1169.618-66.418"/>
            <path id="패스_330" data-name="패스 330" class="cls-1" d="M1167.141-65.875"/>
            <path id="패스_331" data-name="패스 331" class="cls-1" d="M1117.392-40.351q-.008-1.167.023-2.325-.03 1.158-.023 2.325"/>
            <path id="패스_333" data-name="패스 333" class="cls-1" d="m1192.485-32.172.234-.01-.234.01"/>
            <path id="패스_334" data-name="패스 334" class="cls-1" d="m1191.708-32.131.323-.02-.323.02"/>
            <path id="선_135" data-name="선 135" class="cls-1" transform="translate(1190.118 -32.038)" d="M.31 0 0 .02"/>
            <path id="선_136" data-name="선 136" class="cls-1" transform="translate(1191.048 -32.098)" d="M.22 0 0 .01"/>
            <path id="패스_338" data-name="패스 338" class="cls-1" d="M1188.027-31.819c.2-.021.4-.04.591-.059a42.2 42.2 0 0 0-.591.059"/>
            <path id="패스_339" data-name="패스 339" class="cls-1" d="M1187.639-31.778c-.22.022-.438.045-.663.07.225-.025.443-.047.663-.07"/>
            <path id="패스_2560" data-name="패스 2560" class="cls-1" d="M1195.718-28.028h.01v.01h-.02l.01-.01"/>
            <path id="패스_2561" data-name="패스 2561" class="cls-1" d="M1195.478-28.538h.01s-.01.01 0 .01"/>
            <path id="패스_344" data-name="패스 344" class="cls-1" d="m1123.056-72.431.008-.02-.008.02"/>
            <path id="패스_345" data-name="패스 345" class="cls-1" d="M1123.052-72.419"/>
            <path id="패스_346" data-name="패스 346" class="cls-1" d="M1123-72.269c.019-.052.038-.11.055-.162v.011l-.051.151"/>
            <path id="패스_2562" data-name="패스 2562" class="cls-4" d="M1110.448-87.278a1.278 1.278 0 0 0-.77-.51.265.265 0 0 0-.23.02 3.525 3.525 0 0 0-1.01 1.26 1.226 1.226 0 0 0-.12.26 24.711 24.711 0 0 1-.57-2.69 23.714 23.714 0 0 1-.27-2.38c.1.21.19.43.27.65 0 .01.01.02.01.04a6.28 6.28 0 0 1 .29 1.05h.01v-.01c.11-.06.21-.13.32-.19a2.59 2.59 0 0 1 1.57-.28v.01c.05.45.12.9.2 1.35.09.48.19.95.3 1.42z"/>
            <path id="패스_348" data-name="패스 348" class="cls-4" d="M1122.475-72.082a1.135 1.135 0 0 0-.2-.533 2.92 2.92 0 0 0-.708-.475 1.221 1.221 0 0 0-.319-.037c-.051 0-.154.007-.3.011-.2.567-.4 1.161-.607 1.8.278.161.574.311.858.468.136-.006.218-.011.224-.012a1.139 1.139 0 0 0 1.05-1.221z"/>
            <path id="패스_349" data-name="패스 349" class="cls-9" d="M1260.332-42.114a.629.629 0 0 1-.622.53h-44.428c-5.087 0-5.282-1.621-5.282-4.119s.2-4.936 5.282-4.936h44.428a.63.63 0 0 1 .622.53h-.726v7.994z"/>
            <path id="패스_350" data-name="패스 350" class="cls-4" d="M1259.71-50.637a.63.63 0 0 1 .622.529h-.726v8h.726a.629.629 0 0 1-.622.529h-44.428c-5.086 0-5.282-1.62-5.282-4.119s.2-4.935 5.282-4.935h44.428zm0-1.249h-44.428c-6.534 0-6.534 4.022-6.534 6.183 0 3.481 1.041 5.367 6.534 5.367h44.428a1.866 1.866 0 0 0 1.857-1.585 1.252 1.252 0 0 0-.71-1.325v-5.728a1.246 1.246 0 0 0 .71-1.324 1.868 1.868 0 0 0-1.857-1.586z"/>
            <path id="패스_351" data-name="패스 351" class="cls-9" d="M1261.94-52.227c-.048.449-.308.793-.622.793h-44.428c-5.087 0-5.282-2.424-5.282-6.162s.2-7.381 5.282-7.381h44.428c.314 0 .574.343.622.791h-.726v11.959z"/>
            <path id="패스_352" data-name="패스 352" class="cls-4" d="M1261.318-64.977c.314 0 .574.343.622.793h-.726v11.957h.726c-.048.449-.308.794-.622.794h-44.428c-5.086 0-5.282-2.425-5.282-6.162s.2-7.382 5.282-7.382zm0-1.248h-44.428c-6.534 0-6.534 5.4-6.534 8.63 0 3.3 0 7.41 6.534 7.41h44.428a1.976 1.976 0 0 0 1.866-1.911 1.249 1.249 0 0 0-.718-1.262v-9.693a1.251 1.251 0 0 0 .718-1.262 1.975 1.975 0 0 0-1.866-1.911z"/>
            <path id="패스_353" data-name="패스 353" class="cls-9" d="M1261.29-41.584a.462.462 0 0 1 .463.462.462.462 0 0 1-.463.462h-9.154l-1.021 11.492h10.175a.462.462 0 0 1 .463.462.46.46 0 0 1-.46.462H1216.7c-5.086 0-6.7-2.989-6.7-6.671s-2.525-6.671 6.7-6.671z"/>
            <path id="패스_354" data-name="패스 354" class="cls-4" d="M1261.29-41.584a.462.462 0 0 1 .463.462.462.462 0 0 1-.463.462h-9.154l-1.021 11.492h10.175a.462.462 0 0 1 .463.462.46.46 0 0 1-.46.462H1216.7c-5.086 0-6.7-2.989-6.7-6.671s-2.525-6.671 6.7-6.671h44.59zm0-1.249h-44.59c-4.056 0-6.272.552-7.41 1.846-1.1 1.252-.887 2.848-.7 4.256a13.8 13.8 0 0 1 .161 1.817c0 5.107 2.822 7.919 7.947 7.919h44.592a1.711 1.711 0 0 0 1.71-1.711 1.71 1.71 0 0 0-1.711-1.71h-8.809l.8-9h8.009a1.711 1.711 0 0 0 1.711-1.711 1.71 1.71 0 0 0-1.711-1.71z"/>
            <path id="패스_355" data-name="패스 355" class="cls-9" d="M1259.606-50.108v7.994h-40.873c-4.614 0-4.792-1.43-4.792-3.637s.178-4.357 4.792-4.357z"/>
            <path id="패스_356" data-name="패스 356" class="cls-4" d="M1259.606-50.108v7.994h-40.873c-4.614 0-4.792-1.43-4.792-3.637s.178-4.357 4.792-4.357zm0-1.248h-40.873c-6.043 0-6.043 3.647-6.043 5.6 0 3.094.989 4.885 6.043 4.885h40.873a1.248 1.248 0 0 0 1.251-1.247v-7.994a1.248 1.248 0 0 0-1.25-1.247z"/>
            <path id="패스_357" data-name="패스 357" class="cls-9" d="M1220.778-65.472c-2.746 0-2.851 3.778-2.851 7.652s.1 6.387 2.851 6.387h-1.893c-2.746 0-2.852-2.514-2.852-6.387s.106-7.652 2.852-7.652z"/>
            <path id="패스_358" data-name="패스 358" class="cls-4" d="M1220.778-65.472c-2.746 0-2.852 3.778-2.852 7.652s.106 6.387 2.852 6.387h-1.893c-2.746 0-2.852-2.514-2.852-6.387s.106-7.652 2.852-7.652zm0-1.248h-1.893c-4.1 0-4.1 5.144-4.1 8.9 0 3.579 0 7.635 4.1 7.635h1.893a1.249 1.249 0 0 0 1.25-1.25 1.25 1.25 0 0 0-1.25-1.25c-1.24 0-1.6-.675-1.6-5.139 0-4.056.263-6.4 1.6-6.4a1.249 1.249 0 0 0 1.25-1.25 1.25 1.25 0 0 0-1.25-1.25z"/>
            <path id="패스_359" data-name="패스 359" class="cls-9" d="M1229.869-64.977c-2.746 0-2.851 3.644-2.851 7.382s.105 6.162 2.851 6.162h-1.893c-2.746 0-2.851-2.425-2.851-6.162s.1-7.382 2.851-7.382z"/>
            <path id="패스_360" data-name="패스 360" class="cls-4" d="M1229.869-64.977c-2.746 0-2.851 3.644-2.851 7.382s.105 6.162 2.851 6.162h-1.893c-2.746 0-2.851-2.425-2.851-6.162s.1-7.382 2.851-7.382zm0-1.248h-1.893c-4.1 0-4.1 4.988-4.1 8.63 0 3.472 0 7.41 4.1 7.41h1.893a1.249 1.249 0 0 0 1.25-1.25 1.25 1.25 0 0 0-1.25-1.25c-1.185 0-1.6-.4-1.6-4.914 0-3.885.262-6.134 1.6-6.134a1.249 1.249 0 0 0 1.25-1.25 1.25 1.25 0 0 0-1.25-1.25z"/>
            <path id="패스_361" data-name="패스 361" class="cls-9" d="M1260.339-40.659v11.492h-35.828c-4.53 0-5-2.573-5-5.746s.471-5.746 5-5.746z"/>
            <path id="패스_362" data-name="패스 362" class="cls-4" d="M1260.339-40.659v11.492h-35.828c-4.53 0-5-2.573-5-5.746s.471-5.746 5-5.746zm0-1.248h-35.828c-6.252 0-6.252 4.724-6.252 6.994s0 6.994 6.252 6.994h35.828a1.248 1.248 0 0 0 1.251-1.247v-11.493a1.25 1.25 0 0 0-1.251-1.248z"/>
            <path id="패스_363" data-name="패스 363" class="cls-9" d="m1261.29-64.018.1 11.492-26.73.231c-4.529.039-5.023-2.532-5.051-5.7s.42-5.75 4.951-5.788z"/>
            <path id="패스_364" data-name="패스 364" class="cls-4" d="m1261.29-64.018.1 11.492-26.73.231h-.1c-4.435 0-4.923-2.556-4.95-5.7-.028-3.171.42-5.75 4.951-5.788l26.73-.231zm0-1.244h-.01l-26.731.231c-6.252.054-6.211 4.777-6.191 7.048.019 2.253.059 6.94 6.2 6.94h.111l26.731-.231a1.25 1.25 0 0 0 1.24-1.259l-.1-11.492a1.251 1.251 0 0 0-1.251-1.237z"/>
            <path id="패스_365" data-name="패스 365" class="cls-5" d="M1222.023-131.873a16.2 16.2 0 0 0-12.543-10.22c-18.45-3.232-24.452 10.285-24.511 10.425a.626.626 0 0 0 .337.815.6.6 0 0 0 .228.045l-1.068 46.1a.634.634 0 0 0-.22.031.628.628 0 0 0-.385.794c2.721 7.789 8.855 12.8 16.412 13.405.517.041 1.045.062 1.568.062a19.94 19.94 0 0 0 17.519-10.515 27.945 27.945 0 0 0 .875-25.349c3.689-5.669 5.414-16.981 1.79-25.591z"/>
            <path id="패스_366" data-name="패스 366" class="cls-4" d="M1222.651-132.136a16.848 16.848 0 0 0-13.051-10.632c-9.927-1.735-16.249 1.268-19.807 4.091a18.9 18.9 0 0 0-5.448 6.742 1.307 1.307 0 0 0 .715 1.7 1.305 1.305 0 0 0 1.695-.7c.213-.5 5.4-12.233 22.4-9.272a14.417 14.417 0 0 1 11.094 9.073c3.353 7.961 1.768 18.873-1.812 24.068a1.308 1.308 0 0 0-.055 1.389 25.783 25.783 0 0 1-.713 23.82 18.026 18.026 0 0 1-17.235 9.448c-6.871-.55-12.243-4.967-14.739-12.118a1.308 1.308 0 0 0-1.665-.806 1.308 1.308 0 0 0-.807 1.665c2.812 8.05 9.167 13.23 17 13.858a19.584 19.584 0 0 0 1.603.065 20.806 20.806 0 0 0 18.134-10.865 27.925 27.925 0 0 0 1.057-25.637c3.676-5.972 5.286-17.217 1.634-25.889z"/>
            <path id="패스_367" data-name="패스 367" class="cls-5" d="M1118.989-108.466s2.372-5.4-1.791-6.848-4.448 4.017-4.448 4.017-6.334-6.1-9.037-1.535c-2.93 4.947 2.019 10.289 8.8 8.766z"/>
            <path id="패스_368" data-name="패스 368" class="cls-4" d="M1162.267-87.321a.917.917 0 0 0-1.14-.61 41.3 41.3 0 0 1-8.281 1.667 27.486 27.486 0 0 1-5.017 2.395c.663.089 1.365.155 2.109.181a20.332 20.332 0 0 0 6.936-.944 11.151 11.151 0 0 1-1.6 4.569 16.342 16.342 0 0 0-6.755-1.893 14.922 14.922 0 0 0-6.006.822 8.82 8.82 0 0 1-.313-1.455c-.617.062-1.223.1-1.823.11a10.359 10.359 0 0 0 .6 2.49.894.894 0 0 0 .036.453 8.129 8.129 0 0 0 7.342 4.754l.267.012a8.5 8.5 0 0 0 5.344-1.48 9.337 9.337 0 0 0 3.246-3.48 13.168 13.168 0 0 0 1.471-4.655 1.559 1.559 0 0 0 .016-.182 1.809 1.809 0 0 0-.155-.788c.99-.233 2.019-.5 3.106-.827a.914.914 0 0 0 .612-1.138zm-9.353 9.563a6.481 6.481 0 0 1-.683.341 6.5 6.5 0 0 0 .661-.323 6.743 6.743 0 0 1-4.428 1.134 6.575 6.575 0 0 1-5.317-2.816l.149-.051a13.25 13.25 0 0 1 5.115-.66 14.8 14.8 0 0 1 5.544 1.446 5.741 5.741 0 0 1-1.04.929z"/>
            <path id="패스_2563" data-name="패스 2563" class="cls-5" d="M1102.808-113.348a6.455 6.455 0 0 0 .25 7.28 8.571 8.571 0 0 0 5.32 3.17l-.03.63a41.283 41.283 0 0 0-.87 10.86c0 .03.01.06.01.09a5.2 5.2 0 0 1 .26.65c-.08-.22-.17-.44-.27-.65a6.881 6.881 0 0 0-.4-.82c-1.3-2.1-3.65-3.37-6.96-3.77-4.39-.51-8.35 3.83-9.82 10.68-.03.12-.05.25-.07.37a18.121 18.121 0 0 1-1.55-2.76 25.879 25.879 0 0 1 .96-23.82 1.314 1.314 0 0 0 .05-1.39c-3.21-5.43-4.03-16.42-.12-24.13a14.4 14.4 0 0 1 11.7-8.28c11.47-1.18 17.22 3.81 19.81 7.41-5.73 5.83-9.49 13.48-11.36 23.12a6.778 6.778 0 0 0-3.81-.81 4.182 4.182 0 0 0-3.1 2.17z"/>
            <path id="패스_2564" data-name="패스 2564" class="cls-4" d="M1145-95.368a1.171 1.171 0 0 1-.32.04 1.071 1.071 0 0 1-.97-.76 4.052 4.052 0 0 0-1.07-1.8l-1.35-.99a8.564 8.564 0 0 0-1.74-.67 7.944 7.944 0 0 0-.97-.2 1.267 1.267 0 0 1-.18-.06c-.24.14-.48.27-.73.4a13.189 13.189 0 0 1-1.85.79c-.04.01-.08.03-.12.04l.08.08a8.989 8.989 0 0 1 1.24 1.58 8.743 8.743 0 0 1 1.02 2.19 2.886 2.886 0 0 1 .12.39v.01a1.032 1.032 0 0 1-.72 1.27 1.123 1.123 0 0 1-.32.04.762.762 0 0 1-.21-.03 1.015 1.015 0 0 1-.75-.72 5.441 5.441 0 0 0-.3-.97 5.915 5.915 0 0 0-1.13-1.86 6.109 6.109 0 0 0-1.79-1.43c-.29.02-.57.04-.86.04a10.333 10.333 0 0 1-2.88-.41 6.947 6.947 0 0 1 .25 3.1 6.369 6.369 0 0 1-.43 1.65 1.036 1.036 0 0 1-1.34.57 1.045 1.045 0 0 1-.59-1.35 5.555 5.555 0 0 0 .15-3.25 6.109 6.109 0 0 0-.4-1.08v-.01a6.259 6.259 0 0 0-.44-.74c-.02-.03-.02-.07-.04-.1a23.606 23.606 0 0 1-4.7-3.91 17.97 17.97 0 0 1-1.46-1.7 23.644 23.644 0 0 1-1.57-2.28c-.02-.01-.04 0-.06-.01a1.026 1.026 0 0 1-.45-.37 1.067 1.067 0 0 1-.08-1c.03-.08.06-.16.09-.25a5.754 5.754 0 0 0 .3-1 4.977 4.977 0 0 0-.06-2.91 2.4 2.4 0 0 0-1.51-1.29c-1.13-.39-1.63-.06-1.79.05-.95.63-1.25 2.45-1.28 3.04a1.025 1.025 0 0 1-.29.66 1.033 1.033 0 0 1-1.47.03c-.14-.14-.33-.3-.55-.49a15.34 15.34 0 0 0-1.83-1.32c-.1-.07-.21-.13-.32-.2a5.374 5.374 0 0 0-3.14-.91 2.121 2.121 0 0 0-1.58 1.17 4.363 4.363 0 0 0 .14 5 6.9 6.9 0 0 0 3.74 2.3 1.308 1.308 0 0 0 .27.06 6.4 6.4 0 0 0 2.05.09 3.177 3.177 0 0 0 .43-.06 7.51 7.51 0 0 0 1.04-.17h.01a1.025 1.025 0 0 1 1.02.37.179.179 0 0 1 .05.07.879.879 0 0 1 .17.35 1.029 1.029 0 0 1-.06.6c.96 4.05 7.01 12.46 16.05 16.71a24.039 24.039 0 0 0 10.77 2.39v.01c-.02.35-.01.7 0 1.05s.05.7.09 1.05c-.46.02-.91.02-1.36 0a26.735 26.735 0 0 1-10.39-2.61 37.123 37.123 0 0 1-12.48-9.83 23.779 23.779 0 0 1-4.62-7.93 7.924 7.924 0 0 1-.84.07 8.227 8.227 0 0 1-.86.01 7.847 7.847 0 0 1-1.19-.09 2.331 2.331 0 0 1-.26-.04 8.571 8.571 0 0 1-5.32-3.17 6.455 6.455 0 0 1-.25-7.28 4.182 4.182 0 0 1 3.1-2.17 6.778 6.778 0 0 1 3.81.81c.12.06.23.12.34.18a15.084 15.084 0 0 1 1.82 1.16 1.923 1.923 0 0 0 .17.13 5.019 5.019 0 0 1 1.86-2.76 3.877 3.877 0 0 1 3.62-.29 4.433 4.433 0 0 1 2.74 2.43 7.491 7.491 0 0 1-.04 5.01c.32.49.64.97.98 1.42.4.58.82 1.12 1.24 1.63a19.331 19.331 0 0 0 4.27 3.99 9.883 9.883 0 0 0 5.35 1.75 9.562 9.562 0 0 0 4.07-.92 14.385 14.385 0 0 0 1.6-.86c.39-.25.76-.51 1.12-.78.2-.16.4-.32.59-.48a20.165 20.165 0 0 0 1.92-1.81 17.234 17.234 0 0 0 1.74-2.14 1.037 1.037 0 0 1 1.44-.3h.01a1.021 1.021 0 0 1 .29 1.43l-.22.31c-.08.12-.17.23-.26.35a21.432 21.432 0 0 1-1.45 1.73 21.6 21.6 0 0 1-2.25 2.13 7.2 7.2 0 0 1 3.13 1.73 7.212 7.212 0 0 1 1.92 3.02 1.047 1.047 0 0 1-.72 1.28z"/>
            <path id="패스_370" data-name="패스 370" class="cls-4" d="M1142.127-84.7a10.973 10.973 0 0 0 .075 2.113 23.967 23.967 0 0 0 5.627-1.278 21.936 21.936 0 0 1-4.354-1.027c-.454.079-.9.145-1.348.192z"/>
            <path id="패스_371" data-name="패스 371" class="cls-4" d="M1152.846-86.263a33.743 33.743 0 0 0 3.9-2.751 1.038 1.038 0 0 0 .2-1.455 1.039 1.039 0 0 0-1.456-.2l-.062.05a28.535 28.535 0 0 1-7.233 4.371 24.854 24.854 0 0 0 4.645-.012z"/>
            <path id="패스_372" data-name="패스 372" class="cls-4" d="M1147.829-83.867a27.588 27.588 0 0 0 5.018-2.4 24.685 24.685 0 0 1-4.645.012 22.453 22.453 0 0 1-4.727 1.357 21.935 21.935 0 0 0 4.354 1.027z"/>
            <path id="패스_373" data-name="패스 373" class="cls-4" d="M1142.127-84.7c-.622.067-1.235.1-1.84.119a13.146 13.146 0 0 0 .093 2.1c.6-.012 1.2-.047 1.822-.11a10.973 10.973 0 0 1-.075-2.113z"/>
        </g>
    </g>
</svg>
