<svg xmlns="http://www.w3.org/2000/svg" width="250" height="250">
    <defs>
        <style>
            .cls-2{fill:#fff}.cls-3{fill:#567bb0}.cls-4{fill:none;stroke:#35607a;stroke-miterlimit:10;stroke-width:.32px}
        </style>
    </defs>
    <g id="그룹_3627" data-name="그룹 3627" transform="translate(-669 -495.648)">
        <circle id="타원_1284" data-name="타원 1284" cx="125" cy="125" r="125" transform="translate(669 495.648)" style="fill:#8bb3ff"/>
        <g id="그룹_3608" data-name="그룹 3608" transform="translate(0 -756)">
            <g id="그룹_2346" data-name="그룹 2346" transform="translate(784.181 -198.166)">
                <path id="패스_2762" data-name="패스 2762" class="cls-2" d="M107.9 1637.537v-.011H41.2c-1.96-7-3.444-11.324-4.229-13.449 7.115-.462 11.4-1.543 12.138-3.084a1.237 1.237 0 0 0 .078-.859c-.033-.121-.063-.248-.1-.371a24.514 24.514 0 0 0 8.9-4.6c7.189-5.892 9.22-14.435 9.73-17.429a3.211 3.211 0 0 0 1.74-.69c1.3-1.034 1.854-3.057 1.639-6.013a6.462 6.462 0 0 0-2.314-4.718c-2.132-1.759-5.173-1.964-6.772-1.936-.7-5.084-2.347-7-5.861-7a2.4 2.4 0 0 0-2.21 1.6 26.374 26.374 0 0 0-5.452-17.4 29.513 29.513 0 0 0-1.567-14.276 2.191 2.191 0 0 0 1.6-1.281 2.233 2.233 0 0 0-.331-2.3c-5.618-6.792-17.343-11.716-20.652-13.01-3.074-6.333-11.75-19-31.916-19a61.084 61.084 0 0 0-16.357 2.451c-15.03 4.216-32.511 15.338-30.843 44.357-2.22 3.863-5.966 14.187-6.7 20.667a2.222 2.222 0 0 0 1.242 2.253 2.166 2.166 0 0 0 .952.218 2.2 2.2 0 0 0 1.575-.656c.239-.243.592-.554 1-.9.268.4.539.778.813 1.121a25.63 25.63 0 0 0 4.378 21.535 16.732 16.732 0 0 0 13.386 7.092 14.749 14.749 0 0 0 2.912-.29c.239-.046.478-.1.714-.161a13.223 13.223 0 0 0 1.269-.411h.009l.22.134c.284.176.589.328.88.493a31.458 31.458 0 0 0-.001.002c.624.357 1.276.679 1.934.995v.01a32.556 32.556 0 0 1-1.934-.994 27.271 27.271 0 0 0-11.851 14.327 1.112 1.112 0 0 0 .684 1.417 1.051 1.051 0 0 0 .208.051c.012 0 .167.023.445.067-.852 4.9-.475 8.9 1.161 12.051h-49.978a.923.923 0 0 0-.92.925v7.684a.924.924 0 0 0 .92.925H-7.3l.045.062a.967.967 0 0 0 .274.231l1.918 1.093a2.658 2.658 0 0 0 3.63-.97 2.676 2.676 0 0 0 .195-.416H107.9a.924.924 0 0 0 .92-.925v-7.684a.924.924 0 0 0-.92-.927zm-159.652-58.8c.044-.031.091-.061.135-.093-.015.072-.027.145-.042.217-.03-.044-.066-.081-.094-.125z"/>
                <path id="패스_2763" data-name="패스 2763" class="cls-2" d="m60 1519.05 1.357.533v15.565a1.011 1.011 0 0 0 .648.943l13.449 5.152-.029.082.061-.069 7.444 2.851a.97.97 0 0 0 .364.068.915.915 0 0 0 .358-.067l20.925-8.013a1.012 1.012 0 0 0 .648-.943v-15.566l1.356-.533a1 1 0 0 0 .636-.94v-7.018a1 1 0 0 0-.636-.939l-5.941-2.338a2.209 2.209 0 0 0 .469-2.409 8.386 8.386 0 0 0-1.72-2.862 14.623 14.623 0 0 0-3.352-2.933c-2.007-1.214-3.156-.847-3.763-.326a38.116 38.116 0 0 0-3.7 3.966l-.115.139.157.092a.8.8 0 0 1 .174.139.757.757 0 0 1 .122.176l.015.058a.693.693 0 0 1 .02.329l-.009.066a.286.286 0 0 1-.017.087.689.689 0 0 1-.406.394.644.644 0 0 1-.252.045.382.382 0 0 0-.076-.014.629.629 0 0 1-.171-.033l-.471-.189-.071.092a23.671 23.671 0 0 0-1.894 2.793 7.2 7.2 0 0 0-3.511-.23 16.406 16.406 0 0 0-1.875-3.025l-.072-.1-.6.227a.3.3 0 0 0-.065.01.665.665 0 0 1-.281 0l-.06-.01a.3.3 0 0 1-.089-.019.7.7 0 0 1-.372-.385.743.743 0 0 1 .037-.577.73.73 0 0 1 .159-.207.719.719 0 0 1 .19-.122l.19-.078-.133-.161a40.051 40.051 0 0 0-4.115-4.473 2.422 2.422 0 0 0-2.555-.258c-2.518.9-5.976 4.576-6.379 6.779a2.073 2.073 0 0 0 .63 2.062c.157.136.336.277.557.439L60 1510.153a1 1 0 0 0-.636.939v7.018a1.007 1.007 0 0 0 .636.94z"/>
            </g>
            <g id="_-e-icon_06_off" data-name="-e-icon_06_off" transform="translate(62.063 750.344)">
                <path id="패스_1112" data-name="패스 1112" class="cls-3" d="M709.439 588.943a1.23 1.23 0 0 1-1.193-.937c-.024-.1-2.524-10.089-5.523-16a1.233 1.233 0 1 1 2.195-1.125c3.126 6.165 5.612 16.106 5.717 16.525a1.239 1.239 0 0 1-.9 1.5 1.255 1.255 0 0 1-.3.036"/>
                <path id="패스_1113" data-name="패스 1113" class="cls-3" d="M684.4 595.737a1.283 1.283 0 0 1-1.249-1.007c-2.6-11.717 8.953-22.664 9.446-23.124a1.276 1.276 0 0 1 1.81.068 1.293 1.293 0 0 1-.066 1.82c-.11.1-10.968 10.407-8.69 20.673a1.287 1.287 0 0 1-.97 1.539 1.329 1.329 0 0 1-.281.031"/>
                <path id="패스_1114" data-name="패스 1114" class="cls-3" d="M719.956 569.7c.142.028 14.171 2.993 17.421 12.583a1.232 1.232 0 0 0 1.165.839 1.176 1.176 0 0 0 .4-.067 1.237 1.237 0 0 0 .769-1.57c-3.7-10.92-18.627-14.081-19.262-14.21a1.237 1.237 0 0 0-.489 2.425"/>
                <path id="패스_1115" data-name="패스 1115" class="cls-3" d="M733.066 568.559"/>
                <path id="패스_1116" data-name="패스 1116" class="cls-2" d="M721.512 690.9c0-.018 0-.037.006-.055h-.054z"/>
                <path id="패스_1117" data-name="패스 1117" class="cls-3" d="M698.773 679.767a70.398 70.398 0 0 0-2.371-.814l-.133.438c.777.122 1.617.25 2.5.376"/>
                <path id="패스_1118" data-name="패스 1118" class="cls-3" d="M696.269 679.389c.041-.14.089-.293.132-.435-.491-.159-.985-.317-1.476-.468-.066.22-.133.437-.2.651.468.078.985.163 1.539.252"/>
                <path id="패스_1119" data-name="패스 1119" class="cls-2" d="M726.363 679.758a1.693 1.693 0 0 1-.046.549c-.033.207-.05.416-.086.623-.059.362-.647.216-.557-.154a5.386 5.386 0 0 1 .2-.592 1.319 1.319 0 0 1 .253-.488.142.142 0 0 1 .236.063"/>
                <path id="패스_1120" data-name="패스 1120" class="cls-3" d="M725.98 681.446a.648.648 0 0 1-.432-.167.582.582 0 0 1-.172-.577 5.436 5.436 0 0 1 .19-.577h.33l-.289-.107a1.4 1.4 0 0 1 .3-.543.454.454 0 0 1 .461-.107.432.432 0 0 1 .3.338 1.589 1.589 0 0 1-.029.547l-.019.1c-.015.1-.028.2-.041.3s-.026.218-.045.326a.539.539 0 0 1-.355.433.546.546 0 0 1-.2.032m.079-1.638"/>
                <path id="패스_1121" data-name="패스 1121" class="cls-2" d="M726.386 681.635a1.124 1.124 0 0 1-.332-.2 1.724 1.724 0 0 1-.3-.36.241.241 0 1 1 .415-.245 1.339 1.339 0 0 1 .273.76c0 .028-.032.059-.061.048"/>
                <path id="패스_1122" data-name="패스 1122" class="cls-3" d="M726.4 681.944a.353.353 0 0 1-.129-.024 1.4 1.4 0 0 1-.418-.256 1.992 1.992 0 0 1-.35-.424.518.518 0 0 1-.07-.409.567.567 0 0 1 .255-.358.552.552 0 0 1 .737.177 1.609 1.609 0 0 1 .328.936.412.412 0 0 1-.151.292.348.348 0 0 1-.2.066"/>
                <path id="패스_1123" data-name="패스 1123" class="cls-2" d="M725.226 681.182a4.315 4.315 0 0 1 .5-.509c.213-.149.427.168.267.347a1.05 1.05 0 0 1-.356.209 1.063 1.063 0 0 1-.37.06.064.064 0 0 1-.045-.108"/>
                <path id="패스_1124" data-name="패스 1124" class="cls-3" d="M725.276 681.6a.433.433 0 0 1-.344-.221.378.378 0 0 1 .08-.415c.054-.051.1-.109.153-.167a2.22 2.22 0 0 1 .39-.374.488.488 0 0 1 .666.083.544.544 0 0 1 0 .724 1.206 1.206 0 0 1-.433.274 1.327 1.327 0 0 1-.5.1z"/>
                <path id="패스_1125" data-name="패스 1125" class="cls-2" d="M730.6 679.623a.882.882 0 0 1 .539.148 6.494 6.494 0 0 1 .646.307.265.265 0 0 1-.266.459 6.174 6.174 0 0 1-.588-.41c-.146-.1-.344-.211-.4-.392a.093.093 0 0 1 .064-.112"/>
                <path id="패스_1126" data-name="패스 1126" class="cls-3" d="M731.652 680.879a.56.56 0 0 1-.279-.075 3.738 3.738 0 0 1-.459-.311l-.227-.163a.983.983 0 0 1-.445-.51.52.52 0 0 1 .04-.311.393.393 0 0 1 .241-.188.938.938 0 0 1 .666.131l.259.116a4.1 4.1 0 0 1 .493.244.577.577 0 0 1-.293 1.066"/>
                <path id="패스_1127" data-name="패스 1127" class="cls-2" d="M732.38 680.309c-.04.085-.135.122-.212.168s-.126.122-.219.18a.28.28 0 0 1-.407-.167.287.287 0 0 1 .27-.353c.084-.013.155.015.25 0a.433.433 0 0 1 .273 0 .126.126 0 0 1 .045.17"/>
                <path id="패스_1128" data-name="패스 1128" class="cls-3" d="M731.815 681.005a.582.582 0 0 1-.212-.041.593.593 0 0 1-.356-.393.556.556 0 0 1 .07-.465.634.634 0 0 1 .454-.275.71.71 0 0 1 .181 0l.11.306-.023-.31a.659.659 0 0 1 .425.033.54.54 0 0 1 .212.233.461.461 0 0 1-.022.349.619.619 0 0 1-.287.274l-.1.073a.935.935 0 0 1-.157.128.566.566 0 0 1-.3.087"/>
                <path id="패스_1129" data-name="패스 1129" class="cls-2" d="M731.736 681.111a2 2 0 0 1-.147-.324 1.354 1.354 0 0 1-.125-.382c-.034-.33.479-.383.563-.077a1.116 1.116 0 0 1-.005.426 1.274 1.274 0 0 1-.087.356c-.036.085-.157.065-.2 0"/>
                <path id="패스_1130" data-name="패스 1130" class="cls-3" d="M731.845 681.475a.439.439 0 0 1-.367-.2 1.9 1.9 0 0 1-.142-.3l-.029-.075a1.6 1.6 0 0 1-.148-.469.553.553 0 0 1 .464-.609.6.6 0 0 1 .7.419 1.175 1.175 0 0 1 .01.5 1.673 1.673 0 0 1-.116.489.387.387 0 0 1-.332.24h-.038m-.19-.489"/>
                <path id="패스_1131" data-name="패스 1131" class="cls-2" d="M724.738 679.957a4.4 4.4 0 0 1-1.8-6.044 8.158 8.158 0 0 1 .512-.916 7.935 7.935 0 0 1 4-3.187 8.736 8.736 0 0 1 .856-.279 4.207 4.207 0 0 1 2.439-.038 4.7 4.7 0 0 1 2.625 2.455c.968 2.014 1.221 5.345-.41 7.142a3.769 3.769 0 0 1-1.666 1.043 5.488 5.488 0 0 1-.662.166l-.908.053c-.3.017-.609.032-.915.044a13 13 0 0 1-3.309-.211 4.317 4.317 0 0 1-.765-.227"/>
                <path id="패스_1132" data-name="패스 1132" class="cls-3" d="M727.895 680.721a11.125 11.125 0 0 1-2.461-.234 4.67 4.67 0 0 1-.812-.245h-.008a4.222 4.222 0 0 1-2.257-2.542 5.034 5.034 0 0 1 .313-3.93 7.784 7.784 0 0 1 .526-.938 8.23 8.23 0 0 1 4.16-3.312c.282-.107.578-.2.875-.285a4.492 4.492 0 0 1 2.615-.032 5 5 0 0 1 2.8 2.613c1.078 2.243 1.2 5.655-.46 7.485a4.094 4.094 0 0 1-1.8 1.128 5.284 5.284 0 0 1-.7.176l-.945.058c-.307.016-.613.032-.92.042s-.617.018-.929.018m-3.036-1.047a4.128 4.128 0 0 0 .705.208 12.721 12.721 0 0 0 3.237.2c.3-.012.607-.027.908-.044l.91-.053a4.885 4.885 0 0 0 .583-.15 3.488 3.488 0 0 0 1.534-.956c1.464-1.616 1.327-4.789.359-6.8a4.391 4.391 0 0 0-2.447-2.3 3.933 3.933 0 0 0-2.261.045 9.482 9.482 0 0 0-.827.27 7.627 7.627 0 0 0-3.852 3.069 7.414 7.414 0 0 0-.493.879 4.419 4.419 0 0 0-.278 3.452 3.608 3.608 0 0 0 1.921 2.176"/>
                <path id="패스_1133" data-name="패스 1133" class="cls-2" d="M729.326 670.651a1.755 1.755 0 0 1 .942.028 2.586 2.586 0 0 1 1.694 1.909 1.678 1.678 0 0 1-.982 1.893c-1.28.389-3.217-.9-3.006-2.355a1.781 1.781 0 0 1 1.353-1.476"/>
                <path id="패스_1134" data-name="패스 1134" class="cls-3" d="M730.488 674.86a3.077 3.077 0 0 1-1.95-.771 2.245 2.245 0 0 1-.869-2 2.095 2.095 0 0 1 2.688-1.7 2.88 2.88 0 0 1 1.9 2.144 1.972 1.972 0 0 1-1.195 2.249 2.027 2.027 0 0 1-.579.081m-1.089-3.908a1.472 1.472 0 0 0-1.124 1.222 1.654 1.654 0 0 0 .663 1.448 2.234 2.234 0 0 0 1.952.566 1.375 1.375 0 0 0 .772-1.536 2.281 2.281 0 0 0-1.486-1.675 1.44 1.44 0 0 0-.777-.024"/>
                <path id="패스_1135" data-name="패스 1135" class="cls-2" d="M731.336 671.483a1.391 1.391 0 0 1 .526.974.821.821 0 0 1-.614.843 1.027 1.027 0 0 1-.676-.173 2.2 2.2 0 0 1-.621-.561c-.348-.465-.259-1.3.429-1.359a1.355 1.355 0 0 1 .956.278"/>
                <path id="패스_1136" data-name="패스 1136" class="cls-3" d="M731.135 673.616a1.4 1.4 0 0 1-.719-.226 2.493 2.493 0 0 1-.709-.642 1.309 1.309 0 0 1-.162-1.278.954.954 0 0 1 .809-.573 1.631 1.631 0 0 1 1.183.351 1.682 1.682 0 0 1 .635 1.2 1.123 1.123 0 0 1-.87 1.156 1.018 1.018 0 0 1-.166.014m-.634-2.107h-.092a.339.339 0 0 0-.305.208.7.7 0 0 0 .093.656 1.921 1.921 0 0 0 .534.483.762.762 0 0 0 .466.134.518.518 0 0 0 .359-.528 1.09 1.09 0 0 0-.419-.748 1.017 1.017 0 0 0-.636-.208"/>
                <path id="패스_1137" data-name="패스 1137" class="cls-2" d="M733.674 672a.2.2 0 0 1-.04.093 1.44 1.44 0 0 1-.59.482c-.124.054-.294.08-.372-.031a.3.3 0 0 1-.04-.09c-.072-.232-.281-.992.072-1.068.21-.045.979.407.97.614"/>
                <path id="패스_1138" data-name="패스 1138" class="cls-3" d="M732.846 672.93a.5.5 0 0 1-.424-.208.569.569 0 0 1-.081-.171 1.6 1.6 0 0 1-.045-1.214.514.514 0 0 1 .342-.252 1.748 1.748 0 0 1 1.067.447.637.637 0 0 1 .275.478.466.466 0 0 1-.1.266 1.737 1.737 0 0 1-.713.582.8.8 0 0 1-.321.072m-.033-1.219a1.844 1.844 0 0 0 .093.587l.015-.006a1.161 1.161 0 0 0 .391-.286 2 2 0 0 0-.5-.294"/>
                <path id="패스_1139" data-name="패스 1139" class="cls-2" d="M725.714 675.009a2.56 2.56 0 0 0-1.562.083.824.824 0 0 0-.537.7.732.732 0 0 0 .531.618 2.1 2.1 0 0 0 .859.036 2.146 2.146 0 0 0-1.009.495c-.18.161-.345.41-.245.632a.6.6 0 0 0 .5.275 2.627 2.627 0 0 0 1.01-.077c-.313.181-.669.434-.653.8a.657.657 0 0 0 .588.566 1.455 1.455 0 0 0 .844-.2 3.687 3.687 0 0 0 2-2.51c.072-.922-1.658-1.278-2.325-1.412"/>
                <path id="패스_1140" data-name="패스 1140" class="cls-3" d="M725.319 679.452a1.183 1.183 0 0 1-.164-.012.957.957 0 0 1-.853-.861.853.853 0 0 1 .088-.411c-.059 0-.115-.009-.175-.017a.843.843 0 0 1-.745-.451.864.864 0 0 1 .322-.992c.029-.026.06-.051.091-.076a1 1 0 0 1-.575-.832 1.115 1.115 0 0 1 .714-.989 2.785 2.785 0 0 1 1.751-.105c.728.144 2.664.529 2.57 1.738a3.951 3.951 0 0 1-2.16 2.758 1.9 1.9 0 0 1-.865.249m-.056-1.989a.308.308 0 0 1 .152.576c-.341.2-.506.366-.5.516 0 .123.155.25.319.272a1.146 1.146 0 0 0 .666-.172 3.417 3.417 0 0 0 1.832-2.26c.022-.3-.319-.734-2.079-1.086a2.22 2.22 0 0 0-1.377.062c-.175.082-.362.244-.356.41s.169.285.319.334a1.891 1.891 0 0 0 .736.023.322.322 0 0 1 .332.266.309.309 0 0 1-.248.346 1.814 1.814 0 0 0-.865.423c-.129.113-.184.235-.167.272s.079.073.258.1a2.438 2.438 0 0 0 .9-.067.287.287 0 0 1 .08-.01"/>
                <path id="패스_1141" data-name="패스 1141" class="cls-2" d="M730.75 668.577a.311.311 0 0 0 .068-.109c.034-.126-.1-.239-.231-.248a.529.529 0 0 0-.462.262 1.258 1.258 0 0 0-.166.532 1.12 1.12 0 0 0-.654-.888.668.668 0 0 0-.4-.057.385.385 0 0 0-.291.267.547.547 0 0 0 .032.281c.125.409.418 1.07.934 1.03.5-.04.889-.73 1.175-1.071"/>
                <path id="패스_1142" data-name="패스 1142" class="cls-3" d="M729.526 669.959c-.511 0-.928-.441-1.179-1.249a.819.819 0 0 1-.037-.443.685.685 0 0 1 .52-.5.958.958 0 0 1 .594.071 1.412 1.412 0 0 1 .508.382.856.856 0 0 1 .678-.311.593.593 0 0 1 .432.244.465.465 0 0 1 .07.394.6.6 0 0 1-.127.222 4.594 4.594 0 0 0-.18.236c-.284.38-.671.9-1.206.943a.636.636 0 0 1-.071 0m-.517-1.593a.168.168 0 0 0-.043.005c-.059.045-.059.072-.032.158.125.4.335.814.617.812a.461.461 0 0 0 .213-.09.305.305 0 0 1-.111-.2.819.819 0 0 0-.471-.638.467.467 0 0 0-.172-.042m1.74.212zm-.07-.059.072.058-.216-.224-.009.033z"/>
                <path id="패스_1143" data-name="패스 1143" class="cls-2" d="M721.1 675.972a.586.586 0 0 1-.189-.149.558.558 0 0 1-.043-.731.567.567 0 0 1 .713-.143 8.642 8.642 0 0 1 1.384.619.3.3 0 0 1-.069.534 2.706 2.706 0 0 1-1.74-.137"/>
                <path id="패스_1144" data-name="패스 1144" class="cls-3" d="M722.294 676.505a3.571 3.571 0 0 1-1.178-.225.326.326 0 0 1-.124-.018.719.719 0 0 1-.266-.186.878.878 0 0 1-.1-1.175.866.866 0 0 1 1.072-.235c.134.057.271.11.409.162a5.409 5.409 0 0 1 1.023.482.606.606 0 0 1-.139 1.085 2.1 2.1 0 0 1-.7.11m-1.114-.848a.264.264 0 0 1 .077.019 2.451 2.451 0 0 0 1.537.134 5.708 5.708 0 0 0-.908-.4 14.195 14.195 0 0 1-.429-.171c-.235-.1-.317.006-.353.051a.248.248 0 0 0 .014.312l.063.059"/>
                <path id="패스_1145" data-name="패스 1145" class="cls-2" d="M721.687 675.037c.056.058.079.152.149.189"/>
                <path id="패스_1146" data-name="패스 1146" class="cls-3" d="M721.84 675.535a.316.316 0 0 1-.152-.039.537.537 0 0 1-.207-.221.324.324 0 0 1 0-.448.3.3 0 0 1 .428 0 .877.877 0 0 1 .1.138.306.306 0 0 1 .11.416.317.317 0 0 1-.277.158"/>
                <path id="패스_1147" data-name="패스 1147" class="cls-2" d="M722.8 676.325a1.276 1.276 0 0 1-.448.5 2.251 2.251 0 0 1-.293.176c-.087.044-.339.245-.172.019.019-.137.036-.276.054-.414v.013a.544.544 0 0 1-.236.588l-.01.005a.54.54 0 0 1-.786-.321c-.1-.516.29-.7.694-.856a1.529 1.529 0 0 1 1.048-.077.252.252 0 0 1 .148.362"/>
                <path id="패스_1148" data-name="패스 1148" class="cls-3" d="M721.422 677.589a.875.875 0 0 1-.384-.087.764.764 0 0 1-.428-.543c-.166-.812.571-1.089.885-1.208a1.776 1.776 0 0 1 1.261-.076.559.559 0 0 1 .333.308.58.58 0 0 1-.011.468 1.572 1.572 0 0 1-.547.627 2.3 2.3 0 0 1-.333.2 1.258 1.258 0 0 1-.231.127.648.648 0 0 1-.121.08.922.922 0 0 1-.423.1m.982-1.4a2.01 2.01 0 0 0-.695.141c-.5.19-.539.306-.5.506a.152.152 0 0 0 .091.11.3.3 0 0 0 .252 0 .113.113 0 0 0 .038-.031l.045-.342a.283.283 0 0 1 .325-.267.307.307 0 0 1 .276.227.876.876 0 0 0 .281-.33l.281.125-.279-.131a1.072 1.072 0 0 0-.115-.006"/>
                <path id="패스_1149" data-name="패스 1149" class="cls-3" d="M805.476 559.88a6.657 6.657 0 0 0-1.086.1 6.54 6.54 0 0 1 1.086-.1"/>
                <path id="패스_1150" data-name="패스 1150" class="cls-4" d="M805.476 559.88a6.657 6.657 0 0 0-1.086.1 6.54 6.54 0 0 1 1.086-.1z"/>
                <path id="패스_1151" data-name="패스 1151" class="cls-3" d="M804.391 559.979a6.292 6.292 0 0 0-.838.193l.07-.014a6.378 6.378 0 0 1 .768-.175"/>
                <path id="패스_1152" data-name="패스 1152" class="cls-4" d="M804.391 559.979a6.292 6.292 0 0 0-.838.193l.07-.014a6.378 6.378 0 0 1 .768-.179z"/>
                <path id="패스_1153" data-name="패스 1153" class="cls-3" d="M804.391 559.979a6.378 6.378 0 0 0-.768.175l.77-.164z"/>
                <path id="패스_1154" data-name="패스 1154" class="cls-4" d="M804.391 559.979a6.378 6.378 0 0 0-.768.175l.77-.164z"/>
                <path id="패스_1155" data-name="패스 1155" class="cls-3" d="M700.715 646.107a.764.764 0 0 1 .6-.132c.013 0 .023.012.037.014l-.061-.331a1.059 1.059 0 0 0-.635.126z"/>
                <path id="패스_1156" data-name="패스 1156" class="cls-3" d="m700.715 646.107.073.383a.436.436 0 0 1 .464-.2.435.435 0 0 1 .167.073l-.068-.378c-.014 0-.024-.012-.037-.014a.764.764 0 0 0-.6.132"/>
                <path id="패스_1157" data-name="패스 1157" class="cls-3" d="M710.413 625.842a5.059 5.059 0 0 0-3.386 6.244 5 5 0 0 0 5.781 4.066 5.058 5.058 0 0 0 3.387-6.246 5 5 0 0 0-5.782-4.065m1.939 2.022a1.3 1.3 0 0 1 1.565.971 1.316 1.316 0 0 1-.912 1.611 1.3 1.3 0 0 1-1.564-.971 1.314 1.314 0 0 1 .911-1.611"/>
                <path id="패스_1158" data-name="패스 1158" d="M713 630.445a1.315 1.315 0 0 0 .911-1.611 1.3 1.3 0 0 0-1.565-.97 1.314 1.314 0 0 0-.911 1.611 1.3 1.3 0 0 0 1.565.97" style="fill:#f7f8f8"/>
                <path id="패스_1159" data-name="패스 1159" class="cls-3" d="M675.391 608.122a2.252 2.252 0 0 0 1.186.177 2.3 2.3 0 0 0 1.079-.374c.089-.063 9.112-6.316 34.145-13.585 16.285-4.726 25.665-6.526 30.2-7.2 2.343-.351 3.393-.4 3.425-.4.875-.035 1.631-.487 1.679-1.017s-.632-.94-1.519-.911a51.508 51.508 0 0 0-6.178.8 269.65 269.65 0 0 0-28.735 7.013c-25.856 7.5-34.991 13.886-35.368 14.154-.6.428-.561 1.032.088 1.349"/>
                <path id="패스_1160" data-name="패스 1160" d="m755.44 598.115 1.994-.267c-.644.085-1.306.173-2 .267" style="fill:#fe7d05"/>
                <path id="패스_1161" data-name="패스 1161" class="cls-3" d="M754.228 600.541h.008a44.48 44.48 0 0 0-1.118-1.845q.565.894 1.11 1.846"/>
                <path id="패스_1162" data-name="패스 1162" class="cls-3" d="M753.312 598.418c.732-.107 1.437-.206 2.13-.3q-1.033.143-2.128.3"/>
                <path id="패스_1163" data-name="패스 1163" class="cls-3" d="m752.977 598.467.141.227c-.046-.075-.089-.154-.135-.227z"/>
                <path id="패스_1164" data-name="패스 1164" class="cls-3" d="M753.075 598.425q.642 1.01 1.251 2.073c-.106.015-.217.033-.326.048a49.602 49.602 0 0 0-1.118-1.845c-.046-.075-.091-.154-.137-.227l.271-.04.059-.009.236-.006 1.368 2.009-.3.163-.351-.266z"/>
                <path id="패스_1165" data-name="패스 1165" class="cls-3" d="M783.295 645.448a2.646 2.646 0 0 1-.552-1.78l-.782-.559s-2.347 5.493 7.114 4.955l-1.361-.974c-2.748-.212-3.931-.958-4.419-1.642"/>
                <path id="패스_1166" data-name="패스 1166" class="cls-3" d="M753.31 598.418q.642 1.01 1.251 2.073c.722-.1 1.413-.2 2.091-.289q-.588-1.07-1.211-2.086c-.692.1-1.4.2-2.13.3z"/>
                <path id="패스_1167" data-name="패스 1167" class="cls-3" d="m765.832 596.719-8.395 1.129c3.453-.451 6.275-.75 8.239-.938.057-.067.1-.126.156-.191"/>
                <path id="패스_1168" data-name="패스 1168" class="cls-3" d="m765.676 596.91.56-.053a7.656 7.656 0 0 0-.091-.181l-.313.042a35.7 35.7 0 0 1-.156.191"/>
                <path id="패스_1169" data-name="패스 1169" class="cls-3" d="m765.676 596.912.56-.053-.56.053z"/>
                <path id="패스_1170" data-name="패스 1170" class="cls-3" d="m768.783 596.647-.416.029.416-.029"/>
                <path id="패스_1171" data-name="패스 1171" class="cls-3" d="m766.984 596.791-.092.008.092-.008"/>
                <path id="패스_1172" data-name="패스 1172" class="cls-3" d="m767.72 596.728-.091.008.091-.008"/>
                <path id="패스_1173" data-name="패스 1173" class="cls-3" d="M767.628 596.736c-.192.017-.407.033-.645.055.238-.022.454-.039.645-.055"/>
                <path id="패스_1174" data-name="패스 1174" class="cls-3" d="m768.365 596.676-.323.026.323-.026"/>
                <path id="패스_1175" data-name="패스 1175" class="cls-3" d="M766.237 596.859c.11-.01.224-.022.326-.03"/>
                <path id="패스_1176" data-name="패스 1176" class="cls-3" d="m766.891 596.8-.328.028.328-.03"/>
                <path id="패스_1177" data-name="패스 1177" class="cls-3" d="m768.043 596.7-.323.027.323-.027"/>
                <path id="패스_1178" data-name="패스 1178" class="cls-3" d="M698.3 661.01a30.245 30.245 0 0 1-2.71-1.22c-.75.372-1.56.814-2.4 1.328q1.154.659 2.383 1.225a31.12 31.12 0 0 1 2.731-1.333"/>
                <path id="패스_1179" data-name="패스 1179" class="cls-3" d="m692.691 660.019-.017-.01c-.115.046-.222.1-.339.144l.325-.123.028-.012"/>
                <path id="패스_1180" data-name="패스 1180" class="cls-3" d="M692.854 660.22c-.111-.068-.249-.164-.358-.232l-.05.021-.29.145c-.823.035-.2.356-.068.334a5.7 5.7 0 0 0 .752-.249"/>
                <path id="패스_1181" data-name="패스 1181" class="cls-3" d="M830.019 689.031h-66.7c-1.961-7-3.445-11.324-4.229-13.449 7.115-.462 11.4-1.543 12.137-3.084a1.232 1.232 0 0 0 .078-.859c-.033-.121-.063-.248-.095-.371a24.533 24.533 0 0 0 8.9-4.6c7.189-5.892 9.22-14.435 9.73-17.429a3.221 3.221 0 0 0 1.74-.69c1.3-1.034 1.854-3.057 1.639-6.013a6.459 6.459 0 0 0-2.314-4.718c-2.132-1.759-5.173-1.964-6.772-1.936-.7-5.084-2.346-7-5.861-7a2.4 2.4 0 0 0-2.21 1.6 26.37 26.37 0 0 0-5.451-17.4 29.51 29.51 0 0 0-1.568-14.276 2.195 2.195 0 0 0 1.6-1.281 2.234 2.234 0 0 0-.332-2.3c-5.617-6.792-17.343-11.716-20.652-13.01-3.074-6.333-11.75-19-31.916-19a61.046 61.046 0 0 0-16.357 2.451c-15.03 4.216-32.511 15.338-30.843 44.357-2.22 3.863-5.966 14.187-6.7 20.667a2.223 2.223 0 0 0 1.242 2.253 2.177 2.177 0 0 0 .953.218 2.207 2.207 0 0 0 1.573-.659c.238-.243.591-.554 1-.9.267.4.538.778.813 1.121a25.627 25.627 0 0 0 4.377 21.535 16.733 16.733 0 0 0 13.386 7.092 14.776 14.776 0 0 0 2.913-.29c.238-.046.477-.1.713-.161a13.132 13.132 0 0 0 1.271-.412l-.307-.189.377-.145c.116-.042.224-.1.339-.144l.017.01c.11.067.217.136.328.2-.121.05-.245.092-.367.14s-.259.08-.385.125l.225.137c.284.176.589.328.88.493a33.025 33.025 0 0 1 2.4-1.328c-.318-.161-.641-.315-.951-.486.1-.058.2-.113.3-.173 3.852-2.437 6.489-6.724 7.311-12.139a1.18 1.18 0 0 0-.9-1.337c-.029-.006-.056 0-.086 0l.059.316.068.36a.441.441 0 0 0-.161-.071.434.434 0 0 0-.337.072.535.535 0 0 0-.106.116l-.068-.365-.056-.308a.687.687 0 0 0-.121.053 1.12 1.12 0 0 0-.46.76c-.809 5.312-3.458 9.254-7.4 11.176-.107.053-.215.107-.324.155s-.217.1-.33.144c-.084.035-.17.066-.254.1-.23.091-.462.177-.7.254-.088.028-.179.053-.267.078-.124.037-.248.077-.373.109l-.371.093.317.244c-.1-.082-.211-.163-.317-.244a14.068 14.068 0 0 1-14.527-5.818 23.589 23.589 0 0 1-3.848-20.01 1.218 1.218 0 0 0-.243-1.193 13.051 13.051 0 0 1-1.079-1.431 88.153 88.153 0 0 1 9.433-5.832q1.909-1.042 4.133-2.172a237.931 237.931 0 0 1 28.415-11.89c14.949-5.257 30.659-8.214 41.694-9.807q-.544-.952-1.11-1.847c-.047-.074-.1-.152-.142-.226-2.761.407-5.784.9-9 1.484l-.111.021c-.393.072-.793.149-1.193.224l-.663.218.023-.1-.084.017a20.394 20.394 0 0 0-.642.122l.141.145-.2.065.06-.211-.088.017a5.455 5.455 0 0 1-.2.039l-.119.024c-.1.021-.212.041-.317.063-.456.089-.912.177-1.375.271-.276.055-.556.114-.832.171-.546.11-1.091.224-1.643.342-.321.068-.643.139-.965.208-.516.112-1.032.225-1.554.342-.351.077-.7.158-1.057.239-.5.114-1.009.231-1.518.352-.367.086-.736.175-1.105.263-.5.119-1 .24-1.5.365-.386.1-.77.191-1.156.29q-.74.187-1.482.383c-.393.1-.787.2-1.179.31-.5.134-1 .271-1.5.407l-1.18.328c-.511.144-1.023.294-1.536.443-.381.11-.763.22-1.145.333-.538.161-1.076.326-1.614.492-.36.111-.718.218-1.077.331-.594.188-1.188.382-1.782.574-.3.1-.6.194-.906.294q-1.324.439-2.645.9l-.036.013h-.01c-1.269.446-2.5.89-3.708 1.333l-.843.31c-1.183.438-2.346.874-3.472 1.306l-.308.119c-1.071.414-2.112.822-3.131 1.229l-.6.243c-1.088.438-2.151.874-3.181 1.3l-.28.12q-1.506.632-2.928 1.255a7.995 7.995 0 0 0-.263.114q-1.525.667-2.955 1.319l-.126.058q-2.942 1.343-5.492 2.613-2.453 1.216-4.553 2.347l-.011.005-.028.017q-.728.391-1.417.771l-.035.019q-.688.38-1.338.749l-.033.021c-.432.244-.848.486-1.253.722l-.035.019q-.606.355-1.174.7l-.024.015c-.115.068-.22.134-.332.2a83.33 83.33 0 0 0-.76.464l-.037.024q-.525.324-1.009.635a.238.238 0 0 1-.028.017c-.318.2-.624.4-.916.6l-.059.039c-.285.189-.56.373-.821.551l-.061.042c-.257.175-.5.344-.738.511l-.07.047-.335.242-.316.226-.079.057c-.2.145-.383.284-.562.419l-.094.072c-.166.126-.321.247-.471.364-.034.03-.073.058-.109.086-.051.041-.1.077-.144.118-.88.645-1.087 1.337-1.361.705l.454-2.6c.013-.059.027-.119.038-.18a78.173 78.173 0 0 1 3.458-11.2q.261-.665.516-1.286.161-.387.317-.753a25.907 25.907 0 0 1 1.89-3.778c-.259-3.851-.961-14.11 4.084-23.923a33.408 33.408 0 0 1 4.281-6.4c4.391-5.153 10.978-9.7 20.823-12.459h.011a67.989 67.989 0 0 1 2.6-.673c.261-.063.517-.121.776-.18q.922-.212 1.819-.391c.257-.051.515-.105.768-.152a59.272 59.272 0 0 1 2.206-.376c.064-.01.13-.023.193-.032a67.52 67.52 0 0 1 2.286-.284c.231-.023.457-.042.686-.063a50.61 50.61 0 0 1 1.6-.122c.226-.013.452-.028.676-.037a43.951 43.951 0 0 1 1.9-.051h.248c.689 0 1.358.019 2.019.05.194.009.382.024.572.036.48.03.956.063 1.421.108a37.958 37.958 0 0 1 1.948.239 34.53 34.53 0 0 1 2.05.36c.1.021.211.04.314.062a34.03 34.03 0 0 1 1.726.42c.1.027.2.059.3.086.451.127.9.261 1.33.4.156.051.309.105.462.158q.567.195 1.114.406c.149.057.3.114.446.173.392.159.775.324 1.154.495l.29.128a30.377 30.377 0 0 1 2.7 1.422l.305.186c.318.194.631.391.935.592l.325.217c.307.207.6.418.894.632.083.06.167.12.249.181q1.117.838 2.094 1.721c.064.057.123.113.185.171q.385.351.751.708l.239.238c.226.227.447.453.662.681l.2.217c.254.275.5.551.737.826a.718.718 0 0 1 .051.058c.262.306.515.611.755.916l.1.126q.3.378.572.75l.169.232c.156.216.309.43.455.642l.164.236c.155.229.3.455.445.677l.1.157c.175.277.342.551.5.818.014.022.026.045.038.067.141.239.272.471.4.7l.116.214c.1.177.19.353.279.522.04.075.077.148.112.22q.132.256.25.5c.028.058.058.117.084.173.1.213.2.42.286.615 0 0 2.031.74 4.893 2.055.238.109.483.223.732.34.3.14.612.3.921.446.194.094.379.182.578.28l.052.026c.169.083.34.171.511.258l.3.15a.392.392 0 0 0 .04.022c.466.239.943.492 1.422.75.072.04.139.073.21.11.1.053.2.112.293.164.422.234.846.471 1.271.718a54.21 54.21 0 0 1 3.124 1.958q.722.488 1.419 1c.115.086.227.175.342.263.631.475 1.241.966 1.822 1.471l.213.18 1.955 2.217-2.176.293.091.181.328-.031.327-.028.093-.008c.236-.022.453-.039.644-.055l.092-.008.323-.026.322-.026c.249-.019.4-.028.416-.029-.018 0-.169.01-.416.029l-.322.026c-.1.006-.2.015-.323.026l-.092.008c-.19.017-.408.033-.644.055l-.093.008c-.107.01-.211.018-.327.03l-.328.031c-.178.015-.363.033-.558.053l-10.236 1.2q.623 1.017 1.212 2.086c2.54-.342 4.759-.606 6.6-.805 1.63-.177 2.951-.3 3.908-.389 1.867 4.925 2.4 10.526 1.565 14.025a1.245 1.245 0 0 0 .289 1.124 24.336 24.336 0 0 1 5 18.869c-.792 5.666-4.364 10.029-9.1 11.11a9.693 9.693 0 0 1-1.118.184 23.668 23.668 0 0 0 2.582-14.341 40.722 40.722 0 0 0-2.758-10.4c-.082-.378-.183-.727-.27-1.1a6.367 6.367 0 0 0 1.551-2.021 5.51 5.51 0 0 0-.9-6.115 3.532 3.532 0 0 0-2.891-1.333 3.842 3.842 0 0 0-.526.073c-.724-2-1.492-3.927-2.346-5.732a58.104 58.104 0 0 0-1.589-3.146c-.678.091-1.371.188-2.09.29-.107.014-.22.032-.327.048q1.111 1.946 2.1 4.086c.783 1.687 1.491 3.493 2.16 5.358a11.9 11.9 0 0 0-2.117 1.867 4.243 4.243 0 0 0-1.953-2.026 3.284 3.284 0 0 0-3.047.313 3.732 3.732 0 0 0-1.891 2.443 6.381 6.381 0 0 0 .8 4.172 19.657 19.657 0 0 1-4.418 6.942 6.477 6.477 0 0 0-.142-1.962c-.671-2.9-3.117-4.793-5.463-4.23s-3.7 3.364-3.034 6.262a6.428 6.428 0 0 0 .77 1.892 16.423 16.423 0 0 1-6.371-3.914.868.868 0 0 0-1.235-.027.88.88 0 0 0-.028 1.242 18.941 18.941 0 0 0 4.155 3.13 6.131 6.131 0 0 0-3.457 4.727.878.878 0 0 0 .789.957.9.9 0 0 0 .27-.015.879.879 0 0 0 .682-.779c.259-2.779 3.655-3.831 3.69-3.841a.864.864 0 0 0 .135-.075 11.82 11.82 0 0 0 2.434.612 7.862 7.862 0 0 0-1.4 3.914.879.879 0 0 0 .79.958.855.855 0 0 0 .27-.017.879.879 0 0 0 .683-.777A5.726 5.726 0 0 1 740.9 628a3.611 3.611 0 0 0 1.62 0 3.714 3.714 0 0 0 1.757-1.021 5.989 5.989 0 0 0 .876 3.792.87.87 0 0 0 1.206.274.883.883 0 0 0 .271-1.214 4.79 4.79 0 0 1-.2-4.343.728.728 0 0 0 .033-.125 20.388 20.388 0 0 0 5.174-7.719c.018-.01.038-.01.055-.023a.887.887 0 0 0 .238-1.219 6.431 6.431 0 0 1-.517-.983 4.173 4.173 0 0 1-.39-2.437 2.013 2.013 0 0 1 1.051-1.309c.873-.5 1.334-.3 1.484-.231.883.385 1.409 1.858 1.523 2.341a.873.873 0 0 0 1.562.31 12.414 12.414 0 0 1 2.3-2.383 3.99 3.99 0 0 1 2.082-.942h.005a1.786 1.786 0 0 1 1.482.728 3.743 3.743 0 0 1 .644 4.2 4.583 4.583 0 0 1-.473.755 5.287 5.287 0 0 1-1.962 1.562 7.073 7.073 0 0 1-2.563.664 7.993 7.993 0 0 1-.9.018.865.865 0 0 0-.793.461.8.8 0 0 0 .029.875c-.18 3.528-3.9 11.464-10.733 16.39a19.8 19.8 0 0 1-9.992 3.81 17.836 17.836 0 0 1-1.828.059c-.029-.121-.294-.037-.294-.037l-.1.059c-.026.015.2-.143.166-.121s-.1.058-.151.086a18.786 18.786 0 0 1-.962-.071 19.536 19.536 0 0 1-2.376-.378c-.319-.071-.64-.145-.963-.235a24.584 24.584 0 0 1-5.494-2.261.873.873 0 0 0-1.188.347.882.882 0 0 0 .345 1.2 28.507 28.507 0 0 0 2.983 1.416 36.312 36.312 0 0 1-10.8-.52.905.905 0 0 0-.317 1.783c1.1.2 2.135.343 3.129.459a1.8 1.8 0 0 0-.061.794c.01.06.02.119.036.177a13.158 13.158 0 0 0 1.97 4.415 8.665 8.665 0 0 0 8.874 3.725c.093-.014.187-.031.28-.046a8.05 8.05 0 0 0 5.757-3.6 9.426 9.426 0 0 0 1.211-5.485 19.51 19.51 0 0 0 2.591-.373 22.291 22.291 0 0 0 8.2-3.768 31.435 31.435 0 0 0 8.824-10.1 20.209 20.209 0 0 0 2.611-7.322 9.366 9.366 0 0 0 1.416-.188 8.527 8.527 0 0 0 1.511-.488c.033.146.071.284.1.432l.054.158a40.431 40.431 0 0 1 2.639 9.92 21.383 21.383 0 0 1-2.922 14l-1.247 1.854-.064.087a27.871 27.871 0 0 1-4.622 4.768 34.828 34.828 0 0 1-2.172 1.652l-.194.064c.006.017.019.031.024.049-5.3 3.644-12.405 6.521-21.245 8.59a79.421 79.421 0 0 1-17.915 2.289 41.924 41.924 0 0 1-15.271-2.6 30.218 30.218 0 0 0-2.731 1.333 42.628 42.628 0 0 0 17.994 3.56 80.13 80.13 0 0 0 17.145-2.053 45.93 45.93 0 0 0 1.294-.3c10.065-2.355 17.989-5.763 23.7-10.166a49.235 49.235 0 0 0 9.837-1.783 144.512 144.512 0 0 0 .26 2.778 126.812 126.812 0 0 0 2.467 15.288q.211.9.44 1.8a11.71 11.71 0 0 1-2.5.762 57.036 57.036 0 0 1-8.938.98 1.237 1.237 0 0 0-1.073 1.715 138.835 138.835 0 0 1 4.484 13.82H719.98a17.384 17.384 0 0 0-3.909-6.73c-3.033-3.611-5.525-3.407-7.923-3.1l-2.307-2.969a.938.938 0 0 0-.128-.121 3.252 3.252 0 0 0-4.156.027 3.3 3.3 0 0 0-1.145 2.93c-.336-.04-.669-.081-1-.125-.364-.047-.726-.1-1.08-.144-.673-.094-1.32-.19-1.914-.284l.1-.331c.6-1.9 1.316-2.818 2.188-5.266a1.228 1.228 0 1 0-2.311-.834c-.889 2.495-1.62 3.449-2.229 5.39a97.9 97.9 0 0 0-10.261-2.265 25.859 25.859 0 0 1 11.672-12.58q-1.228-.568-2.384-1.225a27.28 27.28 0 0 0-11.851 14.327 1.113 1.113 0 0 0 .892 1.468c.012 0 .167.023.445.067-.852 4.9-.475 8.9 1.161 12.051h-49.98a.924.924 0 0 0-.921.925v7.684a.924.924 0 0 0 .921.925h80.965l.046.062a.965.965 0 0 0 .273.231l1.918 1.093a2.657 2.657 0 0 0 3.825-1.386h109.132a.924.924 0 0 0 .92-.925v-7.684a.923.923 0 0 0-.92-.925m-87.38-67.637a1.126 1.126 0 0 1-1.358-.841 1.141 1.141 0 0 1 .792-1.4 1.125 1.125 0 0 1 1.357.843 1.138 1.138 0 0 1-.791 1.4m-13.933 27.9c-.285.05-.544.063-.811.086-.208.019-.422.048-.62.051-.218 0-.42-.014-.626-.027-.188-.012-.381-.014-.558-.037-.2-.028-.378-.076-.562-.117-.167-.037-.341-.067-.5-.116-.176-.053-.336-.125-.5-.19-.083-.035-.169-.065-.25-.1a5.782 5.782 0 0 1-1.111-.79 14.493 14.493 0 0 1 5.25-2.06 12.889 12.889 0 0 1 5.071.064 6.105 6.105 0 0 1-4.781 3.238m5.357-4.965a14.53 14.53 0 0 0-5.96-.121 15.944 15.944 0 0 0-6.38 2.64c-.036-.048-.074-.1-.111-.143-.087-.11-.179-.218-.259-.329s-.158-.243-.236-.364-.149-.222-.215-.331-.132-.24-.2-.361-.121-.218-.175-.325-.1-.225-.157-.338-.1-.211-.141-.311-.08-.207-.121-.31-.077-.19-.107-.277l-.091-.266a5.66 5.66 0 0 1-.132-.422l-.058-.2a3.056 3.056 0 0 1-.043-.172l-.019-.076a2.185 2.185 0 0 1-.02-.091c.576.114 1.142.193 1.7.253.176.018.349.028.524.042.381.03.759.053 1.129.06l1.639-.032c.149-.009.3-.013.45-.026.492-.04.971-.094 1.431-.164h.011c.02 0 .038-.008.061-.012a21.37 21.37 0 0 0 1.366-.263c.135-.03.262-.062.393-.092.345-.086.677-.173 1-.267.1-.031.2-.057.3-.087.286-.087.553-.179.814-.271a20.411 20.411 0 0 0 3.742.384 9.293 9.293 0 0 1-.129 2.274m33.811 5.42a1.235 1.235 0 0 0-.62-1 1.213 1.213 0 0 0-1.172-.022 25.374 25.374 0 0 1-7.091 1.789 27.625 27.625 0 0 0 3.255-3.93c.147.005.291.033.439.033a11.278 11.278 0 0 0 2.54-.29c.208-.047.414-.1.617-.159a13.615 13.615 0 0 0 8.206-7.085 36.927 36.927 0 0 1-2.859 8.482 8.584 8.584 0 0 1-3.234 3.3 81.4 81.4 0 0 1-.083-1.116m.3 3.528a11.482 11.482 0 0 0 4.994-4.713 46.556 46.556 0 0 0 3.774-12.685c.351-1.9.83-4.5 1.334-4.771 1.551 0 3.154 0 3.789 6.072a1.108 1.108 0 0 0 .413.751 1.125 1.125 0 0 0 .821.235c.041-.008 3.985-.461 6.217 1.382a4.271 4.271 0 0 1 1.5 3.156c.213 2.933-.482 3.84-.79 4.1a1.214 1.214 0 0 1-1 .208 1.1 1.1 0 0 0-.942.13l-.005.005c-.27-.01-.507-.031-.751-.05l1.362.974c-8.723.031-6.935-4.955-6.935-4.955l.784.559a1.982 1.982 0 0 1 .06-.261.9.9 0 1 0-1.686-.605 4.261 4.261 0 0 0 .52 3.665c1.03 1.47 3.051 2.293 6.007 2.461-.491 2.743-2.425 10.7-8.948 16.038a22.4 22.4 0 0 1-8.028 4.135 128.39 128.39 0 0 1-2.5-15.828m-65.328 24.068a1.282 1.282 0 0 1 1.6 0l1.39 1.789a30.687 30.687 0 0 1-3.318-.131l-.1-.131a1.371 1.371 0 0 1 .425-1.524m-7.829 1.253c.059.017.117.037.176.055-.074.018-.144.037-.211.055.01-.037.023-.073.034-.11m-.128.416c.892.185 2.652.4 3.188.592-.705-.1-1.375-.2-1.992-.3a63.946 63.946 0 0 1-1.224-.2l.028-.1m-60.108 17.7v-5.833h50.259a15.939 15.939 0 0 0 7.59 5.1 25.541 25.541 0 0 0 2.576.733zm79.441-2.2c-.162.059-.336.11-.5.167a14.961 14.961 0 0 1-1.508.423c-5.674 1.241-14.111.442-18.855-1.219a15.466 15.466 0 0 1-5.327-3l-1.631-1.85c.119.171.258.33.387.5l-.406-.442.019-.054c-1.942-2.838-2.418-6.658-1.539-11.683 1.739.313 4.179.8 6.825 1.477l.875 1 .768.141c.325.058.732.129 1.216.212l1.224.2c.631.1 1.322.206 2.053.308.7.1 1.43.2 2.171.284.562.067 1.128.128 1.689.182.9.085 1.781.15 2.606.181.727.028 1.41.032 2.016 0 .406-.019.793-.059 1.173-.1.252-.028.5-.059.745-.09.552-.072 1.06-.136 1.546-.154 1.531-.06 2.837.337 4.621 2.46a17.259 17.259 0 0 1 3.305 5.3 6.132 6.132 0 0 1 .2.749 4.173 4.173 0 0 1 .029 1.386c-.017.111-.019.227-.043.334 0 .016 0 .036-.006.053a3.385 3.385 0 0 1-.878 1.578l.606.691c-.115.018-.209.057-.317.083l-.482-.572c-.036.033-.056.071-.095.1a7.988 7.988 0 0 1-2.484 1.36m4.618 3.66a.7.7 0 0 1-.809.06l-1.76-1-.388-.515-.271-.358a9.534 9.534 0 0 0 2.542-1.526c.031-.024.054-.054.083-.08l.165.2.5 1.769.193.681a.714.714 0 0 1-.253.777m110.263-1.488H720.94l-.708-2.513a.982.982 0 0 0-.037-.109.944.944 0 0 0-.16-.261l-.547-.647a5.52 5.52 0 0 0 .648-1.969c.015-.108.009-.223.018-.334H829.1z"/>
                <path id="패스_1182" data-name="패스 1182" class="cls-3" d="M717.3 693.643c.111-.027.209-.068.33-.086l-.63-.719c-.066.071-.126.143-.2.212z"/>
                <path id="패스_1183" data-name="패스 1183" class="cls-3" d="M705.132 620.095a.987.987 0 0 0 .488-.369 4.351 4.351 0 0 1 2.04-1.529 4.98 4.98 0 0 1 2.754-.252.986.986 0 0 0 .285-1.951 6.916 6.916 0 0 0-3.753.367 6.258 6.258 0 0 0-2.935 2.234.989.989 0 0 0 .243 1.373.976.976 0 0 0 .878.126"/>
                <path id="패스_1184" data-name="패스 1184" class="cls-3" d="M736.094 611.272a.968.968 0 0 0 .525-.312 4.346 4.346 0 0 1 2.2-1.291 4.976 4.976 0 0 1 2.763.057.985.985 0 0 0 .5-1.906 6.9 6.9 0 0 0-3.771-.054 6.253 6.253 0 0 0-3.163 1.892.991.991 0 0 0 .089 1.393.973.973 0 0 0 .859.222"/>
                <path id="패스_1185" data-name="패스 1185" class="cls-3" d="m796.726 590.43-1-.385z"/>
                <path id="패스_1186" data-name="패스 1186" class="cls-3" d="m796.871 590.485-.146-.055z"/>
                <path id="패스_1187" data-name="패스 1187" class="cls-2" d="M809.517 563.084a1.4 1.4 0 0 0-.013-.145l-.046.005-.049-.073.054.5a1.5 1.5 0 0 0 .054-.288"/>
                <path id="패스_1188" data-name="패스 1188" class="cls-2" d="m808.27 564.924.014-.008h-.01z"/>
                <path id="패스_1189" data-name="패스 1189" class="cls-3" d="m828.706 561.661-5.941-2.338a2.209 2.209 0 0 0 .47-2.409 8.39 8.39 0 0 0-1.721-2.862 14.627 14.627 0 0 0-3.351-2.933c-2.008-1.214-3.156-.847-3.764-.326a38.221 38.221 0 0 0-3.7 3.966l-.115.139.157.092a.747.747 0 0 1 .174.139.727.727 0 0 1 .123.176l.014.058a.689.689 0 0 1 .02.329l-.009.066a.253.253 0 0 1-.017.087.69.69 0 0 1-.406.394.659.659 0 0 1-.252.045.343.343 0 0 0-.075-.014.642.642 0 0 1-.172-.033l-.471-.189-.071.092a23.706 23.706 0 0 0-1.893 2.793 7.2 7.2 0 0 0-3.511-.23 16.4 16.4 0 0 0-1.875-3.025l-.072-.1-.6.227a.311.311 0 0 0-.065.01.664.664 0 0 1-.28.005l-.061-.01a.311.311 0 0 1-.088-.019.69.69 0 0 1-.372-.385.739.739 0 0 1 .036-.577.717.717 0 0 1 .16-.207.7.7 0 0 1 .189-.122l.19-.078-.132-.161a40.082 40.082 0 0 0-4.116-4.473 2.42 2.42 0 0 0-2.554-.258c-2.518.9-5.976 4.576-6.379 6.779a2.07 2.07 0 0 0 .63 2.062c.157.136.336.277.557.439l-7.239 2.848a1 1 0 0 0-.636.939v7.018a1.006 1.006 0 0 0 .636.94l1.357.533v15.565a1.01 1.01 0 0 0 .648.943l13.449 5.152-.029.082.061-.069 7.444 2.851a.961.961 0 0 0 .364.068.937.937 0 0 0 .358-.067L826.7 587.6a1.012 1.012 0 0 0 .648-.943v-15.566l1.356-.533a1 1 0 0 0 .636-.94V562.6a1 1 0 0 0-.636-.939m-12.985-9.3c.25-.2 2.3.741 4.234 3.023 1.244 1.471 1.4 2.306 1.39 2.45-2.061 1.745-6.886 3.742-10.052 4.5a3.865 3.865 0 0 0-1.062-1.95 4.871 4.871 0 0 0-.685-.565 39.326 39.326 0 0 1 6.174-7.453m-5.184 11.462-.245-.253-.243-.253v-.005c.006-.059.027-.116.028-.177a.354.354 0 0 0 .008-.04c0-.03-.008-.058-.008-.087l.114-.154.714-.122c0 .044.008.087.01.132l.012.308a2.855 2.855 0 0 1-.047.3zm.209.561-.153.026.153-.026m-5.428-3.788h.125a1.688 1.688 0 0 1 .169.01c.037.005.075.008.111.01l.1.006c.114.006.227.014.337.027a6 6 0 0 1 .968.2 4.293 4.293 0 0 1 1.152.527 3.064 3.064 0 0 1 .308.241l.825 1.242.049.073.046-.005a1.356 1.356 0 0 1 .013.145 1.575 1.575 0 0 1-.054.288 2.556 2.556 0 0 1-1.18 1.544l-.014.008.242-.28-.708.366a5.429 5.429 0 0 1-2.486.594 4.685 4.685 0 0 1-3.315-1.188 1.93 1.93 0 0 1-.542-.971 1.24 1.24 0 0 1-.014-.091l.038.005-.012-.184a.581.581 0 0 0-.015-.082.289.289 0 0 1-.006-.048 1.689 1.689 0 0 1 .286-.915c.014-.022.028-.044.045-.067a4.342 4.342 0 0 1 3.531-1.461m3.471 5.67c-.047.027-.093.058-.143.085.05-.027.1-.058.143-.085m-8.684-4.582-.627-.229-.056-.015c-3.111-.856-7.494-2.69-9.491-4.4l-.038-.05a.606.606 0 0 1-.008-.361c.294-1.608 3.336-4.765 5.25-5.448.392-.141.723-.162.846-.057 1.955 1.675 5.767 6.288 6.595 8.207l.061.14-.138.063a5.325 5.325 0 0 0-1.9 1.418 6.683 6.683 0 0 0-.489.732m-8.517 12.6v14.012l-6.1-2.335v-14.385l6.1 2.4zm.3-9.082a.7.7 0 0 0-.141.408v6.73l-8.4-3.305v-5.849l8.157-3.209.026.015a33.994 33.994 0 0 0 3.624 1.676l1.8.89-4.806 2.409a.7.7 0 0 0-.254.234m5.235 1.773a.713.713 0 0 0-.392.641v22.773l-3.475-1.368c-.019.053-.052-15.071-.081-15.026v-7.939l5.382-2.7 1.131.561a3.721 3.721 0 0 0 .685 1.421zm1.188 1.178 3.107-1.558.027-.072.049.031.174-.086.115-.058a7.174 7.174 0 0 0 4.413.879 7.531 7.531 0 0 0 1.118-.227l.253-.077a6.652 6.652 0 0 0 .924-.364l3.038 1.488v7.02l-1.4.551-4.709 1.854-5.362-2.108-1.746-.69v-1.125l-.009.022zm7.108 25.442-7.108-2.722v-13.925l6.837 2.69a.751.751 0 0 0 .271.051.77.77 0 0 0 .27-.051l5.84-2.3v13.912zm7.7-21.422v-2.406l.128.92zm3.394 1.234c-.005.014 0 .031 0 .045a.157.157 0 0 0 0 .073v.784l-.05.044.05.077v14.73l-3.246 1.4v-22.993a.872.872 0 0 0-.489-.785l-2.59-1.267a4.084 4.084 0 0 0 .654-.98l.12-.021c.53-.1 1.128-.243 1.781-.427l3.773 2.156zm8.833 12.554-7.1 2.719v-14l7.1-2.8zm2.146-16.926-9.4 3.7v-7a.725.725 0 0 0-.362-.626l-3.111-1.778a35.8 35.8 0 0 0 5.81-2.587l.342-.2 6.717 2.641z"/>
                <path id="사각형_14" data-name="사각형 14" class="cls-3" transform="translate(812.93 569.556)" d="M0 0h.31v2.638H0z"/>
                <path id="사각형_15" data-name="사각형 15" class="cls-3" transform="translate(809.866 562.515)" d="M0 0h1.244v1.251H0z"/>
                <path id="패스_1190" data-name="패스 1190" class="cls-3" d="M808.276 564.763a2.016 2.016 0 0 0 .188-3.236l1.17-.118.414 1.91-1.069 2.067-.926-.31z"/>
            </g>
        </g>
    </g>
</svg>
