<svg xmlns="http://www.w3.org/2000/svg" width="250" height="250">
    <defs>
        <style>
            .cls-2{fill:#fff}.cls-3{fill:#567bb0}
        </style>
    </defs>
    <g id="그룹_3617" data-name="그룹 3617" transform="translate(-1320 -1251.648)">
        <circle id="타원_1228" data-name="타원 1228" cx="125" cy="125" r="125" transform="translate(1320 1251.648)" style="fill:#f5f9ff"/>
        <g id="그룹_2860" data-name="그룹 2860">
            <path id="패스_3837" data-name="패스 3837" class="cls-2" d="M671.876 1614.227H646.1a23.591 23.591 0 0 0 1.193-3.468c4.133-15.92-11.862-27.591-16.032-30.318a8.86 8.86 0 0 0 1.244-.807l.674.544a19.061 19.061 0 0 0 10.248 3.512c.315.014.628.022.943.022a21.258 21.258 0 0 0 18.992-11.96 29.455 29.455 0 0 0 .132-26.759c3.58-6.3 4.883-18.1.779-27.04-2.768-6.031-7.543-9.681-13.81-10.559-9.161-1.282-15.311 1.2-19.289 4.242-.566-.517-1.124-1.042-1.726-1.521-9.237-7.361-20.372-8.905-28.086-8.905-5.971 0-17.4 1.151-26.829 8.862a35.7 35.7 0 0 0-2.609 2.383 20.063 20.063 0 0 0-2.214-2.227 21.068 21.068 0 0 0-9.97-4.675 31.27 31.27 0 0 0-1.012-3.417l.313.026-.09-.252a32.108 32.108 0 0 0-27.416-21.263 32.697 32.697 0 0 0-2.231-.1 10.347 10.347 0 0 0-4.335.22 31.67 31.67 0 0 0-16.774 7.334 32.344 32.344 0 0 0-9.216 36.284l.1.247.374-.147c.311.79.648 1.566 1.019 2.323a27.177 27.177 0 0 0-16.414 25.006 24.117 24.117 0 0 0 .214 3.279 27.272 27.272 0 0 0 10.74 18.6 26.777 26.777 0 0 0 4.334 2.624 31.928 31.928 0 0 0 15.969 4.223 32.743 32.743 0 0 0 4.957-.381 18.53 18.53 0 0 0 2.621 1.3 17.955 17.955 0 0 0 6.748 1.3 18.469 18.469 0 0 0 4.663-.591 1.08 1.08 0 0 0 .79-.813 1.1 1.1 0 0 0-.357-1.075 10.687 10.687 0 0 1-2.977-4.249 30.66 30.66 0 0 0 3.409-2.376 1.164 1.164 0 0 0-.034.311c.081 1.028 1.653 28.29 31.576 29l-.088 4.7a145.06 145.06 0 0 0-.606 4.192c-2.765.076-6.875.414-7.562 1.749a.741.741 0 0 0-.081.316.727.727 0 0 0 .051.285h-27.45a2.181 2.181 0 0 0-2.17 2.183v5.45a2.179 2.179 0 0 0 2.17 2.183h6.75v5.511a1.856 1.856 0 0 0 1.851 1.86h120.183a1.856 1.856 0 0 0 1.851-1.86v-5.5h10.266a2.178 2.178 0 0 0 2.17-2.183v-5.45a2.179 2.179 0 0 0-2.17-2.175z" transform="translate(865.953 -180.766)"/>
            <g id="_-e-icon_08_off" data-name="-e-icon_08_off" transform="translate(164.791 758.778)">
                <path id="패스_1447" data-name="패스 1447" class="cls-3" d="m1309.146 661.963-3.236-5.713a.8.8 0 0 0 .291-.265l2.825-4.559a.972.972 0 0 0 0-.865l-2.774-4.093a2.368 2.368 0 0 0-.864-.224h-6.769a1.545 1.545 0 0 0-.875.291l-2.323 4.446a.884.884 0 0 0 .018.813l2.726 4.151a.866.866 0 0 0 .38.293l-2.808 7a.6.6 0 0 0 .039.538l5.993 10.549 1.76-.008 5.054-10.4c.108-.189.118-2.979.565-1.944m-11.792-10.553 1.924-3.829h5.546l2.256 3.528-2.208 3.565a11.174 11.174 0 0 0-3.039-.447 7.929 7.929 0 0 0-2.4.352zm6.071 22.221c-.336.706-1.506.053-1.852-.649l-4.189-9.965 2.175-6.563a13.845 13.845 0 0 1 2.289-.571 12.9 12.9 0 0 1 2.786.328l3.624 7.292z"/>
                <path id="패스_1448" data-name="패스 1448" class="cls-3" d="M1308.2 607.054a5.016 5.016 0 1 0 4.366 5.051 4.712 4.712 0 0 0-4.366-5.051m-1.456 4.758a1.254 1.254 0 1 1 1.241-1.211 1.234 1.234 0 0 1-1.241 1.211"/>
                <path id="패스_1449" data-name="패스 1449" class="cls-3" d="M1312.161 591.3a6.348 6.348 0 0 0-3.466-1.454 7.087 7.087 0 0 0-3.781.6 1.213 1.213 0 0 0 .019 2.239 1.187 1.187 0 0 0 .92-.008 4.653 4.653 0 0 1 2.555-.426 4.02 4.02 0 0 1 2.19.888 1.187 1.187 0 0 0 .692.288h.09a1.2 1.2 0 0 0 .915-.424 1.217 1.217 0 0 0-.133-1.707"/>
                <path id="패스_1450" data-name="패스 1450" class="cls-3" d="M1282.368 591.3a6.373 6.373 0 0 0-3.467-1.454 7.087 7.087 0 0 0-3.781.6 1.211 1.211 0 0 0 .941 2.231 4.624 4.624 0 0 1 2.555-.426 4.016 4.016 0 0 1 2.188.888 1.181 1.181 0 0 0 .692.288h.09a1.2 1.2 0 0 0 .915-.424 1.218 1.218 0 0 0-.132-1.707"/>
                <path id="패스_1451" data-name="패스 1451" class="cls-3" d="m1258.47 562.674.448-.161-.529-.043c.025.07.056.134.081.2"/>
                <path id="패스_1452" data-name="패스 1452" class="cls-3" d="m1261.262 638.8.28-.064a9.137 9.137 0 0 1-1.776-2.333c-.082.014-.17.014-.255.027a9.4 9.4 0 0 0 1.751 2.37"/>
                <path id="패스_1453" data-name="패스 1453" class="cls-3" d="m1242.6 628.809.005.008c.063-.032.127-.062.191-.093-.067.025-.13.059-.2.085"/>
                <path id="패스_1454" data-name="패스 1454" class="cls-3" d="M1242.049 629.051c.123-.047.247-.088.367-.14.067-.029.129-.062.193-.094l-.005-.006c-.187.078-.374.157-.555.241"/>
                <path id="패스_1455" data-name="패스 1455" class="cls-3" d="m1339.858 662.533-.238-.031-.03.694a1.5 1.5 0 0 0 .268-.664"/>
                <path id="패스_1456" data-name="패스 1456" class="cls-3" d="M1302.335 674.924h.322v-.029l.024-.055c.023-.052.048-.1.071-.157h-.527l-.027.057z"/>
                <path id="패스_1457" data-name="패스 1457" class="cls-3" d="M1302.223 674.684h-.073l.046.059a.51.51 0 0 1 .028-.059"/>
                <path id="패스_1458" data-name="패스 1458" class="cls-3" d="M1303.28 674.684h-.266l-.109.241h.265l.11-.241"/>
                <path id="패스_1459" data-name="패스 1459" class="cls-3" d="M1303.015 674.684h-.266c-.024.052-.048.1-.071.157l-.024.055v.029h.248l.11-.241"/>
                <path id="패스_1460" data-name="패스 1460" class="cls-3" d="M1302.8 676.865h-.1v.243h.122z"/>
                <path id="패스_1461" data-name="패스 1461" class="cls-3" d="M1303.283 676.865h-.242l.018.243h.243z"/>
                <path id="패스_1462" data-name="패스 1462" class="cls-3" d="M1303.04 676.865h-.241l.018.243h.242z"/>
                <path id="패스_1463" data-name="패스 1463" class="cls-3" d="M1302.5 675.168h.176l-.018-.242h-.322l.114.15a1.006 1.006 0 0 1 .05.092"/>
                <path id="패스_1464" data-name="패스 1464" class="cls-3" d="m1303.144 674.982.027-.057h-.265l-.006.014.016.229h.242z"/>
                <path id="패스_1465" data-name="패스 1465" class="cls-3" d="m1302.916 675.168-.018-.229.006-.013h-.248l.018.242z"/>
                <path id="사각형_39" data-name="사각형 39" class="cls-3" transform="translate(1239.299 684.257)" d="M0 0h1.235v.242H0z"/>
                <path id="사각형_40" data-name="사각형 40" class="cls-3" transform="translate(1238.89 684.257)" d="M0 0h.204v.242H0z"/>
                <path id="사각형_41" data-name="사각형 41" class="cls-3" transform="translate(1240.738 684.257)" d="M0 0h.207v.242H0z"/>
                <path id="사각형_42" data-name="사각형 42" class="cls-3" transform="translate(1239.094 684.257)" d="M0 0h.207v.242H0z"/>
                <path id="사각형_43" data-name="사각형 43" class="cls-3" transform="translate(1240.534 684.257)" d="M0 0h.204v.242H0z"/>
                <path id="사각형_44" data-name="사각형 44" class="cls-3" transform="translate(1201.691 606.44)" d="M0 0h2.564v2.068H0z"/>
                <path id="사각형_45" data-name="사각형 45" class="cls-3" transform="translate(1205.765 606.44)" d="M0 0h2.565v2.068H0z"/>
                <path id="사각형_46" data-name="사각형 46" class="cls-3" transform="translate(1197.616 606.44)" d="M0 0h2.565v2.068H0z"/>
                <path id="사각형_47" data-name="사각형 47" class="cls-3" transform="translate(1209.839 606.44)" d="M0 0h2.565v2.068H0z"/>
                <path id="사각형_48" data-name="사각형 48" class="cls-3" transform="translate(1222.059 606.439)" d="M0 0h2.565v2.068H0z"/>
                <path id="사각형_49" data-name="사각형 49" class="cls-3" transform="translate(1213.91 606.44)" d="M0 0h2.568v2.068H0z"/>
                <path id="사각형_50" data-name="사각형 50" class="cls-3" transform="translate(1217.985 606.44)" d="M0 0h2.568v2.068H0z"/>
                <path id="사각형_51" data-name="사각형 51" class="cls-3" transform="translate(1197.616 612.586)" d="M0 0h27.007v2.068H0z"/>
                <path id="패스_1466" data-name="패스 1466" class="cls-3" d="M1301.7 674.67c.054-.122.11-.243.163-.366l-.332-.438-.272.609a.677.677 0 0 0-.036.209h.47z"/>
                <path id="패스_1467" data-name="패스 1467" class="cls-3" d="m1302.029 674.523-.167-.219c-.053.122-.109.245-.163.366l-.006.014h.265l.072-.161"/>
                <path id="패스_1468" data-name="패스 1468" class="cls-3" d="m1302.151 674.684-.122-.161-.071.161z"/>
                <path id="패스_1469" data-name="패스 1469" class="cls-3" d="M1301.037 674.376c.108-.242.218-.487.328-.729l-.167-.219c-.128.284-.256.566-.381.85a1.232 1.232 0 0 0-.093.405h.26a1 1 0 0 1 .053-.307"/>
                <path id="패스_1470" data-name="패스 1470" class="cls-3" d="M1301.259 674.475c.089-.2.182-.405.272-.609l-.166-.218c-.11.242-.22.485-.328.729a1 1 0 0 0-.053.307h.24a.683.683 0 0 1 .035-.209"/>
                <path id="패스_1471" data-name="패스 1471" class="cls-3" d="m1300.721 674.924-.005-.068a1.3 1.3 0 0 1 .009-.173h-1.609l.185.241z"/>
                <path id="패스_1472" data-name="패스 1472" class="cls-3" d="m1301.675 674.724.019-.041h-.47a.661.661 0 0 0-.025.139l.008.1h.484z"/>
                <path id="패스_1473" data-name="패스 1473" class="cls-3" d="M1302.2 674.742c-.01.024-.021.046-.03.07l.008.113h.162z"/>
                <path id="패스_1474" data-name="패스 1474" class="cls-3" d="m1301.92 674.768.037-.083h-.265l-.018.041.014.2h.243z"/>
                <path id="패스_1475" data-name="패스 1475" class="cls-3" d="M1302.165 674.812c.01-.024.022-.046.03-.07l-.046-.059h-.191c-.013.028-.027.056-.037.084l.01.158h.242z"/>
                <path id="패스_1476" data-name="패스 1476" class="cls-3" d="M1300.721 674.924h.242l-.005-.084a1 1 0 0 1 .027-.157h-.26a1.3 1.3 0 0 0-.009.173z"/>
                <path id="패스_1477" data-name="패스 1477" class="cls-3" d="M1301.2 674.822a.661.661 0 0 1 .025-.139h-.24a.978.978 0 0 0-.027.157l.005.084h.243z"/>
                <path id="패스_1478" data-name="패스 1478" class="cls-3" d="m1300.881 677.109-.019-.243h-.579v.243z"/>
                <path id="패스_1479" data-name="패스 1479" class="cls-3" d="m1301.85 677.109-.019-.243h-.483l.018.243z"/>
                <path id="패스_1480" data-name="패스 1480" class="cls-3" d="M1302.7 677.109v-.243h-.381l.019.243z"/>
                <path id="패스_1481" data-name="패스 1481" class="cls-3" d="M1302.074 676.865h-.242l.018.243h.243z"/>
                <path id="패스_1482" data-name="패스 1482" class="cls-3" d="m1302.334 677.109-.019-.243h-.241l.019.243z"/>
                <path id="패스_1483" data-name="패스 1483" class="cls-3" d="m1301.124 677.109-.019-.243h-.242l.019.243z"/>
                <path id="패스_1484" data-name="패스 1484" class="cls-3" d="m1301.366 677.109-.019-.243h-.242l.019.243z"/>
                <path id="패스_1485" data-name="패스 1485" class="cls-3" d="M1300.721 674.925h-1.42l.184.242h1.255z"/>
                <path id="패스_1486" data-name="패스 1486" class="cls-3" d="M1301.689 674.925h-.484l.019.242h.484z"/>
                <path id="패스_1487" data-name="패스 1487" class="cls-3" d="m1302.448 675.076-.114-.15h-.162l.018.242h.308a1.006 1.006 0 0 0-.05-.092"/>
                <path id="패스_1488" data-name="패스 1488" class="cls-3" d="M1301.932 674.925h-.242l.018.242h.242z"/>
                <path id="패스_1489" data-name="패스 1489" class="cls-3" d="M1302.173 674.925h-.241l.016.242h.242z"/>
                <path id="패스_1490" data-name="패스 1490" class="cls-3" d="m1300.982 675.168-.019-.242h-.242l.019.242z"/>
                <path id="패스_1491" data-name="패스 1491" class="cls-3" d="m1301.224 675.168-.019-.242h-.242l.019.242z"/>
                <path id="패스_1492" data-name="패스 1492" class="cls-3" d="M1328.8 639.958c.1-.048.193-.1.29-.148"/>
                <path id="패스_1493" data-name="패스 1493" class="cls-3" d="M1277.989 636.781c.023-.005.046-.005.068-.009-.023 0-.046 0-.068.009"/>
                <path id="패스_1494" data-name="패스 1494" class="cls-3" d="M1278.52 636.761c.051.006.1.011.151.023a1.574 1.574 0 0 0-.151-.023"/>
                <path id="패스_1495" data-name="패스 1495" class="cls-3" d="M1272.706 643.434a2.335 2.335 0 0 0-.3.06 1.334 1.334 0 0 1 .244.036c.019-.031.037-.065.054-.1"/>
                <path id="패스_1496" data-name="패스 1496" class="cls-3" d="M1270.855 645.721a2.355 2.355 0 0 0 .176 1.027 8.07 8.07 0 0 1 .2-.394 1.44 1.44 0 0 1-.372-.633"/>
                <path id="패스_1497" data-name="패스 1497" class="cls-3" d="M1271.227 646.354c.01-.02.022-.041.03-.062a1.415 1.415 0 0 1-.39-.929 2.265 2.265 0 0 0-.013.358 1.447 1.447 0 0 0 .372.633"/>
                <path id="패스_1498" data-name="패스 1498" class="cls-3" d="m1272.446 647.155-.028.059.758.5.028-.056z"/>
                <path id="패스_1499" data-name="패스 1499" class="cls-3" d="M1276.161 645.91a2.574 2.574 0 0 0-.167-.575l-.123.215a1.466 1.466 0 0 1 .29.359"/>
                <path id="패스_1500" data-name="패스 1500" class="cls-3" d="M1274.463 648.373c-.039.08-.079.159-.118.241a2.337 2.337 0 0 0 .683-.222 1.461 1.461 0 0 1-.233.028 1.4 1.4 0 0 1-.332-.047"/>
                <path id="패스_1501" data-name="패스 1501" class="cls-3" d="m1273.159 643.712.184-.294z"/>
                <path id="패스_1502" data-name="패스 1502" class="cls-3" d="m1273.159 643.712.184-.294a2.333 2.333 0 0 0-.247-.029 2.608 2.608 0 0 0-.39.045l-.054.1a1.5 1.5 0 0 1 .508.183"/>
                <path id="패스_1503" data-name="패스 1503" class="cls-3" d="m1273.2 647.654-.027.057.561.368a1.407 1.407 0 0 0 .486.192 1.192 1.192 0 0 1-.222-.09z"/>
                <path id="패스_1504" data-name="패스 1504" class="cls-3" d="M1271.493 646.525a1.371 1.371 0 0 1-.236-.234.69.69 0 0 1-.03.062 1.326 1.326 0 0 0 .232.229l.958.629.029-.059z"/>
                <path id="패스_1505" data-name="패스 1505" class="cls-3" d="m1272.615 646.814.367.242z"/>
                <path id="패스_1506" data-name="패스 1506" class="cls-3" d="M1276.161 645.91a2.308 2.308 0 0 1-.072 1.049l.242-.353a1.466 1.466 0 0 0 0-.3 1.446 1.446 0 0 0-.167-.4"/>
                <path id="패스_1507" data-name="패스 1507" class="cls-3" d="M1272.405 643.494a1.443 1.443 0 0 0-1.21.659l-.117.178a1.407 1.407 0 0 0-.209.851 2.128 2.128 0 0 1 .294-.8 2.16 2.16 0 0 1 1.245-.891"/>
                <path id="패스_1508" data-name="패스 1508" class="cls-3" d="M1273.1 644.844h-.013a1.561 1.561 0 0 1 .307.045 1.529 1.529 0 0 0-.294-.047"/>
                <path id="패스_1509" data-name="패스 1509" class="cls-3" d="M1272.63 646.591a.4.4 0 0 0-.142.133v.005-.005a.4.4 0 0 1 .142-.133"/>
                <path id="패스_1510" data-name="패스 1510" class="cls-3" d="m1272.485 646.73.13.084z"/>
                <path id="패스_1511" data-name="패스 1511" class="cls-3" d="M1273.92 647.2c.016 0 .027-.008.042-.008-.02 0-.038.006-.058.006h.016"/>
                <path id="패스_1512" data-name="패스 1512" class="cls-3" d="m1273.082 645.911.755.5z"/>
                <path id="패스_1513" data-name="패스 1513" class="cls-3" d="m1274.527 646.861-.692-.454z"/>
                <path id="패스_1514" data-name="패스 1514" class="cls-3" d="M1273.836 646.408c-.155.293-.309.6-.464.907l.109.071v-.005a.425.425 0 0 0 .066-.227 1.59 1.59 0 0 0 .353.047c.019 0 .037-.006.058-.006a1 1 0 0 0 .326-.066.686.686 0 0 0 .089-.037.614.614 0 0 0 .369-.552l-.218.321z"/>
                <path id="패스_1515" data-name="패스 1515" class="cls-3" d="m1273.082 645.911-.735-.483z"/>
                <path id="패스_1516" data-name="패스 1516" class="cls-3" d="M1271.616 645.576c.352-.675.7-1.292 1.034-1.865a1.334 1.334 0 0 0-.245-.036 2.157 2.157 0 0 0-1.245.892 2.114 2.114 0 0 0-.294.8 1.415 1.415 0 0 0 .391.93c.119-.242.24-.492.359-.716"/>
                <path id="패스_1517" data-name="패스 1517" class="cls-3" d="M1274.463 648.373c.01-.022.021-.039.03-.06a1.4 1.4 0 0 1-.27-.039 1.758 1.758 0 0 0 .24.1"/>
                <path id="패스_1518" data-name="패스 1518" class="cls-3" d="m1272.346 645.246-.1-.064.91-1.47-.91 1.47z"/>
                <path id="패스_1519" data-name="패스 1519" class="cls-3" d="m1273.547 644.918-.023-.006h.024"/>
                <path id="패스_1520" data-name="패스 1520" class="cls-3" d="M1273.524 644.912c-.046-.014-.087-.01-.133-.02.044.01.087.009.132.023"/>
                <path id="패스_1521" data-name="패스 1521" class="cls-3" d="m1273.372 647.315.109.071z"/>
                <path id="패스_1522" data-name="패스 1522" class="cls-3" d="M1278.6 675.48h-.011l-18.341-.345a.729.729 0 0 1-.63-1.063c.944-1.834 8.368-1.789 9.855-1.762s8.906.263 9.782 2.133a.736.736 0 0 1-.048.707.722.722 0 0 1-.607.33m-12.069-1.682 5.838.111c-.877-.073-1.851-.124-2.922-.144s-2.041-.008-2.916.033"/>
                <path id="패스_1523" data-name="패스 1523" class="cls-3" d="M1334.689 638.526a13.139 13.139 0 0 1-1.208-1.367 19.3 19.3 0 0 1-1.71 1.256c.206.208.4.438.612.635l1.287 1.04c.467-.417-.252-.326 1.02-1.563"/>
                <path id="패스_1524" data-name="패스 1524" class="cls-3" d="M1373.039 674.684h-25.776a23.477 23.477 0 0 0 1.193-3.468c4.133-15.92-11.862-27.591-16.032-30.318a8.8 8.8 0 0 0 1.245-.808l-1.287-1.04c-.214-.2-.405-.427-.612-.635-4.449 2.945-13.71 6.865-30.17 6.864-.434 0-.877 0-1.317-.008-14.694-.181-25.283-3.526-31.689-9.67-.033-.031-.061-.065-.094-.1l-1.776-1.961a21.31 21.31 0 0 1-4.656-11.651 40.754 40.754 0 0 1 .466-10.322l.019-.2c0-16.642 4.251-27.483 10.141-34.538l.227-.273c.077-.089.151-.182.229-.271.062-.071.122-.15.184-.22l.25-.278c.084-.092.152-.157.225-.238s.158-.164.237-.247l.239-.25c.08-.084.158-.169.239-.252 9.084-9.244 21.139-10.763 28-10.763 7.339 0 17.917 1.458 26.622 8.391q.722.577 1.406 1.191c-.256.246-.5.492-.739.739a19.292 19.292 0 0 0-3.812 5.647 1.243 1.243 0 0 0 .717 1.6 1.23 1.23 0 0 0 1.592-.719 16.328 16.328 0 0 1 3.441-5.079c.163-.168.348-.338.527-.507.125-.121.241-.241.375-.362.305-.273.631-.543.973-.809.147-.115.3-.226.455-.336 3.543-2.588 9.009-4.629 17.2-3.482a15.077 15.077 0 0 1 11.907 9.14c3.776 8.226 2.528 19.73-1.008 25.312a1.253 1.253 0 0 0-.005 1.326 27.1 27.1 0 0 1 .134 25.016 18.75 18.75 0 0 1-17.611 10.559 16.68 16.68 0 0 1-8.49-2.7q-.526-.346-1.027-.731t-.963-.8a20.37 20.37 0 0 1-5.325-7.959 1.237 1.237 0 1 0-2.3.9 23.014 23.014 0 0 0 5.173 8.04 19.125 19.125 0 0 0 1.71-1.256 13.009 13.009 0 0 0 1.208 1.367c-1.272 1.237-.552 1.148-1.02 1.563l.678.547a19.062 19.062 0 0 0 10.248 3.512c.315.014.628.022.943.022a21.256 21.256 0 0 0 18.992-11.96 29.455 29.455 0 0 0 .132-26.759c3.58-6.3 4.883-18.1.779-27.04-2.768-6.031-7.543-9.681-13.81-10.559-9.161-1.282-15.311 1.2-19.289 4.242-.566-.517-1.124-1.042-1.726-1.521-9.237-7.361-20.372-8.905-28.086-8.905-5.971 0-17.4 1.151-26.829 8.862a35.7 35.7 0 0 0-2.609 2.383 20.2 20.2 0 0 0-2.214-2.227c-3.437-2.952-9.616-6.18-19.515-4.788a16.382 16.382 0 0 0-11.7 7.33l-25.763.08v-.254a58.323 58.323 0 0 1 1.53-13.653h26.812a54.607 54.607 0 0 1 1.227 7.376l.024.262 2.167-.218-.028-.266a56.143 56.143 0 0 0-1.181-7.155h11.784a30.843 30.843 0 0 1 1.195 2.848l-.345.116 1.312.107c-.022-.056-.047-.111-.068-.167l.93.092-.331.118 1.281.106-.09-.252a32.111 32.111 0 0 0-27.416-21.263 32.697 32.697 0 0 0-2.231-.1 10.369 10.369 0 0 0-4.335.22 31.679 31.679 0 0 0-16.774 7.334 32.344 32.344 0 0 0-9.216 36.284l.1.247 2.029-.793-.093-.25a29.646 29.646 0 0 1-1.964-9.031l11.537.047a63.845 63.845 0 0 0 .557 6.8l.034.262 2.16-.306-.038-.263a60.849 60.849 0 0 1-.537-6.487l24.586.1c-.16.307-.334.594-.483.916-3.921 8.545-2.72 19.847.714 25.957a27.749 27.749 0 0 0-2.314 18.708 5.677 5.677 0 0 0-1.5 1.575 4.624 4.624 0 0 0-.505 1.269 35.386 35.386 0 0 1-3.776 5.581 1.143 1.143 0 0 0-.247.471 12.724 12.724 0 0 0 2.589 11.242 16.028 16.028 0 0 1-8.135-1 16.547 16.547 0 0 1-5.064-3.2 1.1 1.1 0 0 0-1.018-.25 24.892 24.892 0 0 1-6.5.864 24.58 24.58 0 0 1-14.8-4.913 25.094 25.094 0 0 1-9.884-17.116 22.343 22.343 0 0 1-.193-3 24.981 24.981 0 0 1 24.881-25.029 24.475 24.475 0 0 1 15.214 5.223 37.143 37.143 0 0 1 4.416 4.592l.161.21 1.711-1.348-.165-.208a38.379 38.379 0 0 0-4.755-4.951 26.694 26.694 0 0 0-16.582-5.711 27.172 27.172 0 0 0-27.057 27.222 24.247 24.247 0 0 0 .213 3.279 27.275 27.275 0 0 0 10.741 18.6 26.759 26.759 0 0 0 16.1 5.343 27.1 27.1 0 0 0 6.5-.792 18.563 18.563 0 0 0 5.281 3.216 17.967 17.967 0 0 0 6.748 1.3 18.533 18.533 0 0 0 4.663-.591 1.084 1.084 0 0 0 .79-.813 1.1 1.1 0 0 0-.357-1.075 10.7 10.7 0 0 1-3.578-6.46 10.468 10.468 0 0 1 .141-3.856 27.176 27.176 0 0 0 2.356-3.1c.044.1.078.206.127.312a3.265 3.265 0 0 0 1.823 1.683 9.413 9.413 0 0 0 1.6 2.259 13.892 13.892 0 0 0-1.862 2.111 1.151 1.151 0 0 0-.209.737c.081 1.036 1.663 28.776 32.337 29.031-.451 2.215-1.2 6.3-1.737 11.218h-34.759a2.18 2.18 0 0 0-2.17 2.183v5.45a2.179 2.179 0 0 0 2.17 2.183h6.762v-.242h2.056v.242h119.772v5.3h-119.784v-5.3h-2.056v5.511a1.857 1.857 0 0 0 1.851 1.86h120.183a1.857 1.857 0 0 0 1.851-1.86V684.5h10.266a2.178 2.178 0 0 0 2.17-2.183v-5.45a2.179 2.179 0 0 0-2.17-2.183m-117.967-117.478h-11.2c-1.687-5.935-4.311-10.563-7.552-13.348a27.861 27.861 0 0 1 18.75 13.348m-28.433-13.851a29.521 29.521 0 0 1 3.621-.168c4.9.85 9.022 6.05 11.382 14.019h-25.635c2.222-7.464 6.028-12.607 10.632-13.851m-14.927 29.7c0 .088.005.173.005.26l-11.562.036c0-.906.023-1.816.1-2.731a30.107 30.107 0 0 1 3.2-11.218h9.759a60.641 60.641 0 0 0-1.5 13.653m-7-15.846a29.99 29.99 0 0 1 15.581-12.414 22.8 22.8 0 0 0-4.009 5.785 37.913 37.913 0 0 0-2.506 6.63zm126.039 84.317-.5-.385c2.651 1.869 20.943 13.369 16.191 29.656a19.465 19.465 0 0 1-1.329 3.768l-6.009.121h-12.138c-.006-.122-.005-.242-.014-.364a18.232 18.232 0 0 0-.875-4.365 5.238 5.238 0 0 0-.759-1.914c-.2-.427-.4-.818-.583-1.156l-.2-.357h.412c7.628-.023 12.748-.959 14.616-2.616a2.144 2.144 0 0 0 .776-1.315.723.723 0 0 0-1.155-.673.719.719 0 0 0-.28.485c-.228 1.766-8.326 2.8-15.724 2.65h-.02a.72.72 0 0 0-.638.405.734.734 0 0 0 .082.776 11.063 11.063 0 0 1 .783 1.221c-2.673.023-9.369.378-12.286 3.322a4.724 4.724 0 0 0-1.431 3.639.738.738 0 0 0 .063.264l-4.048.406 11.959-13.8a1.84 1.84 0 0 0 .291-1.937l-.105-.237.763-.106a2.029 2.029 0 0 0 1.348-.81l8.74-11.953a3.281 3.281 0 0 0 .866-2.714 1.837 1.837 0 0 0-.966-1.135c.039-.017-.019-.022.019-.039zm-5.418 32.349-14.187-.2a3.31 3.31 0 0 1 .974-1.869c2.821-2.844 10.327-2.91 11.992-2.887.2.441.39.929.571 1.464a18.538 18.538 0 0 1 .65 3.49m14.286-11.373.238.031a1.513 1.513 0 0 1-.268.665zm-12.149-19.661c.432.116 1.369 1.023.281 2.268 0 .032-8.276 11.56-8.458 11.547l-.019-.028-2.16.3a1.238 1.238 0 0 0-.906.61 1.2 1.2 0 0 0-.058 1.078l.606 1.377-12.526 14.209c6.847-10.534 8.329-20.484 9.1-27.468 1.877-.27 10.269-2.046 14.137-3.889m-27.089 4.481c.452.005.893.009 1.336.009a91.3 91.3 0 0 0 9.988-.364c-.921 8.549-3.725 20.106-8.88 27.147a.491.491 0 1 1-.61-.419c-5.161-6.792-8.7-18.355-9.987-26.965 2.451.236 5.443.559 8.153.592m-22.733-3.916a76.351 76.351 0 0 0 12.847 3.323 73.283 73.283 0 0 0 9.969 26.921L1288 659.783l.554-1.448a1.233 1.233 0 0 0-1.025-1.665l-2.122-.224-8.581-11.565c-.047-.061-.06-.087-.087-.129zm-36.254-40.683a1.338 1.338 0 0 0-.008-1.418c-3.364-5.315-4.553-16.269-.955-24.107a17.866 17.866 0 0 1 1.087-2.02h.059l.033-.139a13.9 13.9 0 0 1 10.116-6.51c10.9-1.52 16.732 2.859 19.562 6.314-7.343 8.476-11.078 20.68-11.085 36.378a41.766 41.766 0 0 0-.481 10.892 23.664 23.664 0 0 0 4.98 12.685 15.792 15.792 0 0 1-4.936 1.6 9.1 9.1 0 0 0 1.775 2.333 18.287 18.287 0 0 0 4.95-1.911c.162.163.308.336.475.5 2.106 2.018 4.958 3.217 7.883 4.639.3-.008.25.5.5.486a2.986 2.986 0 0 0-.348.261c-.161-.076-.692.12-.85.043-3.235.088-10.1-.533-13.745-3.737-.1-.088 1.229-.183 1.132-.276l-.28.064a9.435 9.435 0 0 1-1.751-2.37c-.083.011-.17.014-.255.024a12.4 12.4 0 0 1-1.23-5.656.732.732 0 0 0-.459-.677 26.228 26.228 0 0 0-4.927-1.264c.053-.071.1-.145.154-.219l.156-.219a7.12 7.12 0 0 0 .5-.931l.023.029c1.21-.528 4.883-2.13 3.161-6.549a4.744 4.744 0 0 0-2.563-2.872 3.964 3.964 0 0 0-1.44-.279 4.7 4.7 0 0 0-.66.033c.02-.419.033-.981.029-1.6-.015-2.408-.342-5.911-2-7.6a3.268 3.268 0 0 0-2.674-1 3.552 3.552 0 0 0-2.551 1.37c-1.936 2.373-1.825 7.276-1.666 9.439a18.8 18.8 0 0 0-4.218.968 25.782 25.782 0 0 1 2.5-16.712m6.753 22.129a1.62 1.62 0 0 1-.161-1.314c.412-1.456 2.4-2.884 3.395-3.48.077-.045.161-.1.225-.133a2.512 2.512 0 0 1 1.733-.034c.01 0 .02 0 .03.008a2.929 2.929 0 0 1 1.472 1.776c.67 1.718.144 2.664-.774 3.322a7.394 7.394 0 0 1-1.358.735l-.26.116c-.181.08-.362.158-.542.229-1.372.54-2.677.674-3.761-1.226m2.16 3.694a9.908 9.908 0 0 1-1.876 1.334c-.138.079-.3.154-.45.232s-.294.154-.451.229c-.568.274-1.176.544-1.87.807a8.352 8.352 0 0 1-.856.273 6.178 6.178 0 0 1-2.4.182c-.13-.018-.266-.02-.393-.048-.11-.025-.217-.059-.324-.092 0 0-.38-.141-.754-.331a7.775 7.775 0 0 1-1.088-.779 6.163 6.163 0 0 1-.611-.68c.234-.013.475-.066.713-.1a9.452 9.452 0 0 0 2.1-.522c.181-.085.367-.163.556-.242.065-.027.128-.06.2-.085a6.2 6.2 0 0 0 3.4-3.509 3.675 3.675 0 0 0 .271.607 5.012 5.012 0 0 0 2.118 2.124 3.985 3.985 0 0 0 .742.28zm-12.167-.84a1.757 1.757 0 0 1-1.45-.872 5.6 5.6 0 0 1-.438-1.442 2.927 2.927 0 0 1 .319-2.057 3.258 3.258 0 0 1 .4-.515 6.4 6.4 0 0 1 2.356-1.476 17.02 17.02 0 0 1 4.879-1.03.966.966 0 0 0 .692-.34.976.976 0 0 0 .223-.74c-.215-1.842-.432-7.041 1.15-8.978a1.667 1.667 0 0 1 1.208-.668 1.387 1.387 0 0 1 1.151.431c.852.868 1.254 2.868 1.388 4.873.039.6.057 1.19.056 1.757 0 .686-.029 1.332-.077 1.879a.812.812 0 0 0 .009.1c-1.135.729-3.211 2.288-3.833 4.261-.034-.11-.048-.219-.093-.327a.965.965 0 1 0-1.785.735c.685 1.678-1 3.114-2.649 3.834-.015.008-.033.011-.048.018a7.439 7.439 0 0 1-2.687.6 4.591 4.591 0 0 1-.774-.043m30.846 36.912a1.339 1.339 0 0 0-.123-1.125c-.224-.284.414-1.357 0-1.374-.337.009-.161-.747-.493-.749-25.843-.219-29.871-22.014-30.19-26.717a.491.491 0 0 1 .105-.356 13.862 13.862 0 0 1 1.551-1.6 6.424 6.424 0 0 0 2.725.6c.071 0 .144-.009.214-.011a9.523 9.523 0 0 0 3.143-.668c.057-.022.106-.046.165-.068a18.364 18.364 0 0 0 4.5-2.385 30.3 30.3 0 0 1 5.294 1.125 14.832 14.832 0 0 0 1.084 5.043A11.893 11.893 0 0 0 1258.5 639a7.561 7.561 0 0 0 1.587 1.714c4.677 3.259 10.131 3.775 13.859 3.7.072.442 1.156 1.222 1.566 1.758l9.573 12.257a2.049 2.049 0 0 0 1.411.805l.746.079-.1.275a1.958 1.958 0 0 0 .36 1.994l12.544 14.311-32.046-.535c.737-6.668.808-9.953.984-10.738m103.816 17.454h-34.009v-.1a3.203 3.203 0 0 1-.227.1H1302.7v-.052.052h-70.327v-4.964h70.33a1.762 1.762 0 0 1 .592-.13l.01.13h69.5z"/>
                <path id="패스_1525" data-name="패스 1525" class="cls-3" d="M1276.991 606.248c-2.613-.046-4.762 2.532-4.8 5.756s2.047 5.874 4.66 5.919 4.76-2.532 4.8-5.757-2.048-5.873-4.66-5.917m-1.8 4.717a1.254 1.254 0 1 1 1.24-1.211 1.234 1.234 0 0 1-1.24 1.211"/>
                <path id="패스_1526" data-name="패스 1526" class="cls-3" d="M1302.337 627.541a.879.879 0 0 0-1.145-.5c-10.622 4.219-14.59.772-14.625.743a.877.877 0 0 0-1.24.023.865.865 0 0 0-.25.632.875.875 0 0 0 .266.623 3.824 3.824 0 0 0 .454.357 1.585 1.585 0 0 0-.312.8c0 .036-.3 3.666 1.892 6.008a6.4 6.4 0 0 0 5.059 1.9l.223-.01a6.9 6.9 0 0 0 6.325-4.308 10.439 10.439 0 0 0 .836-3.724v-.159a1.6 1.6 0 0 0-.119-.47c.7-.233 1.411-.483 2.138-.772a.89.89 0 0 0 .5-1.151m-4.308 3.016c-.138 1.5-.933 5.576-5.453 5.8-.056 0-.118.005-.182.005a4.716 4.716 0 0 1-3.729-1.344 4.373 4.373 0 0 1-.452-.575 4.644 4.644 0 0 1-.233-.418c-.036-.068-.08-.133-.111-.2-.07-.145-.122-.293-.176-.441-.025-.066-.057-.133-.08-.2-.051-.155-.089-.307-.128-.46-.015-.057-.034-.116-.048-.172a7.455 7.455 0 0 1-.09-.487c-.006-.037-.016-.076-.021-.112-.021-.141-.033-.27-.046-.4 0-.046-.013-.1-.016-.141-.028-.334-.03-.61-.028-.793a16.41 16.41 0 0 0 5.455.751h.018c.117 0 .227 0 .345-.005s.206-.022.31-.028c.2-.014.4-.032.6-.054q.334-.034.665-.082c.265-.04.532-.084.8-.139.145-.028.286-.061.427-.093.248-.057.5-.122.749-.192.12-.036.241-.066.358-.1.36-.112.722-.234 1.087-.378 0 .074-.01.164-.02.264m3.965-2.88a.527.527 0 0 0-.112-.172.517.517 0 0 0-.553-.119.517.517 0 0 1 .553.119.527.527 0 0 1 .112.172.518.518 0 0 1 .034.2.518.518 0 0 0-.034-.2"/>
                <path id="패스_1527" data-name="패스 1527" class="cls-2" d="M1287.406 605.146s-11.093 19.276-25.394-.587a1.494 1.494 0 0 0-2.037-.389l-4.263 2.638c-.664.429-.646 1.233-.6 2.039.457 7.481 24.044 32.641 45.629 12.769"/>
                <path id="패스_1528" data-name="패스 1528" class="cls-3" d="M1283.735 630.171a27.079 27.079 0 0 1-10.769-2.09 38.1 38.1 0 0 1-13.318-9.4c-3.3-3.586-5.445-7.332-5.6-9.773a3.063 3.063 0 0 1 1.086-3.006l4.279-2.648a2.559 2.559 0 0 1 3.457.672c4.228 5.873 8.517 8.745 12.742 8.531 6.445-.325 10.827-7.776 10.87-7.853a1.066 1.066 0 1 1 1.842 1.074c-.2.349-4.991 8.526-12.594 8.916-4.979.254-9.9-2.909-14.584-9.41a.431.431 0 0 0-.6-.116l-4.279 2.648c-.13.085-.123.561-.092 1.061.219 3.579 7.237 13.109 17.585 17.316 6.5 2.641 16.332 3.872 26.263-5.271a1.06 1.06 0 0 1 1.5.066 1.075 1.075 0 0 1-.066 1.512c-6.154 5.666-12.285 7.646-17.729 7.766"/>
                <path id="패스_1529" data-name="패스 1529" class="cls-3" d="M1288.764 616.6a1.067 1.067 0 0 1-1.03-.723c-1.1-3.212-5.415-3.476-5.458-3.479a1.071 1.071 0 0 1 .1-2.139c.236.011 5.8.328 7.367 4.922a1.068 1.068 0 0 1-.982 1.418"/>
                <path id="패스_1530" data-name="패스 1530" class="cls-3" d="M1281.176 619.419a1.064 1.064 0 0 1-1.029-.721 6.475 6.475 0 0 0-3.558-4.21 1.077 1.077 0 0 1-.675-1.351 1.062 1.062 0 0 1 1.329-.688c.138.045 3.405 1.133 4.916 5.552a1.065 1.065 0 0 1-.983 1.418"/>
                <path id="패스_1531" data-name="패스 1531" class="cls-3" d="M1271.884 619.967a1.066 1.066 0 0 1-1.031-1.413 5.823 5.823 0 0 0-1-5.2 1.076 1.076 0 0 1 .144-1.506 1.056 1.056 0 0 1 1.492.136 8.014 8.014 0 0 1 1.378 7.253 1.065 1.065 0 0 1-.984.728"/>
                <path id="패스_1532" data-name="패스 1532" class="cls-2" d="M1261.756 604.567s2.107-5.707-2.229-6.951-4.309 4.4-4.309 4.4-6.825-5.917-9.322-1.054c-2.7 5.269 2.663 10.483 9.5 8.518"/>
                <path id="패스_1533" data-name="패스 1533" class="cls-3" d="M1252.742 610.964a8.778 8.778 0 0 1-7.109-3 6.71 6.71 0 0 1-.683-7.492 4.318 4.318 0 0 1 3.039-2.413c2.261-.442 4.816.919 6.407 2a5.187 5.187 0 0 1 1.732-2.959 3.989 3.989 0 0 1 3.693-.508 4.521 4.521 0 0 1 2.934 2.343c1.266 2.514.052 5.869 0 6.01a1.063 1.063 0 0 1-1.368.632 1.076 1.076 0 0 1-.628-1.376c.265-.726.8-2.915.1-4.3a2.447 2.447 0 0 0-1.618-1.246c-1.174-.339-1.662.033-1.822.155-.932.712-1.134 2.6-1.131 3.21a1.071 1.071 0 0 1-.618.976 1.06 1.06 0 0 1-1.141-.161c-1.015-.875-4.088-3.067-6.131-2.666a2.17 2.17 0 0 0-1.549 1.292 4.554 4.554 0 0 0 .437 5.152c1.64 2.016 4.711 2.741 7.826 1.846a1.07 1.07 0 0 1 .585 2.059 11.655 11.655 0 0 1-2.949.455"/>
                <path id="패스_1534" data-name="패스 1534" class="cls-2" d="M1303.116 621.132a3.85 3.85 0 0 1-1.151 3.238c-2.83 2.458-8.948 6.217-18.425 2.457a3.133 3.133 0 0 1-2.2-3.494c.433-1.946 2.337-1.144 4.549-1.479a17.93 17.93 0 0 0 7.034-2.4c2.226-1.425 3.665-2.435 4.57-3.112a2.848 2.848 0 0 1 4.256 1.012c.151.242.3.511.459.807a8.018 8.018 0 0 1 .9 2.971"/>
                <path id="패스_1535" data-name="패스 1535" class="cls-3" d="M1293.922 629.274a19.665 19.665 0 0 1-10.623-1.323c-.571-.228-2.459-.782-3.1-2.317a4.153 4.153 0 0 1-.2-2.519c.489-2.2 2.606-2.339 4.042-2.341a11.506 11.506 0 0 0 1.73-.09 17.166 17.166 0 0 0 6.752-2.294 55.461 55.461 0 0 0 5.1-3.578l.21-.166a.967.967 0 0 1 1.5.53l.005.019a1.047 1.047 0 0 1-.383 1.19l-.2.158a51.411 51.411 0 0 1-5.426 3.968 18.381 18.381 0 0 1-7.317 2.51 12.75 12.75 0 0 1-1.933.106c-1.443 0-1.778.1-1.878.554a1.12 1.12 0 0 0 .047.714 2.821 2.821 0 0 0 1.531 1.3c9.248 3.67 15.7-.441 18.578-3.022a.767.767 0 0 1 1.215.274 1.414 1.414 0 0 1-.2 1.686 18.993 18.993 0 0 1-9.455 4.638"/>
                <path id="패스_1536" data-name="패스 1536" class="cls-3" d="M1277.406 637.067q.047-.038.1-.073a1.582 1.582 0 0 0-.1.073"/>
                <path id="패스_1537" data-name="패스 1537" class="cls-2" d="M1279.194 636.992a1.556 1.556 0 0 0-.523-.208 1.574 1.574 0 0 0-.151-.023 1.605 1.605 0 0 0-.462.011c-.023 0-.047 0-.068.009a1.534 1.534 0 0 0-.484.213q-.051.034-.1.073a1.5 1.5 0 0 0-.386.409l-3.677 5.942a3.127 3.127 0 0 1 .926.226 3.431 3.431 0 0 1 .547.284c.081.053.149.118.225.177a3.133 3.133 0 0 1 .7.794l3.888-5.71a1.573 1.573 0 0 0-.433-2.2"/>
                <path id="패스_1538" data-name="패스 1538" class="cls-3" d="m1273.737 648.08-.561-.368-.759-.5-.959-.629a1.353 1.353 0 0 1-.231-.228c-.067.13-.132.256-.2.392a28.373 28.373 0 0 0-3.054 11.328l-.285 15.341a1.451 1.451 0 0 0 1.419 1.482l.891.017h.027a1.451 1.451 0 0 0 1.447-1.428l.286-15.341a24.038 24.038 0 0 1 2.587-9.532c.038-.082.077-.161.117-.241a1.617 1.617 0 0 1-.24-.1 1.407 1.407 0 0 1-.486-.192m-3.424 10.039-.286 15.34-.891-.017.286-15.341a26.053 26.053 0 0 1 2.56-9.963l.7.464c.019.013.041.016.059.028a24.817 24.817 0 0 0-2.433 9.489"/>
                <path id="패스_1539" data-name="패스 1539" class="cls-3" d="M1270.868 645.362a1.629 1.629 0 0 1 .036-.436 1.467 1.467 0 0 0-.048.794 2.271 2.271 0 0 1 .013-.358"/>
                <path id="패스_1540" data-name="패스 1540" class="cls-3" d="M1281.288 637.9a3 3 0 0 0-5.5-1.009l-4.769 7.708a1.3 1.3 0 0 0-.118.327 1.233 1.233 0 0 1 .172-.413l.115-.178a1.445 1.445 0 0 1 1.21-.657 2.977 2.977 0 0 1 .3-.06 2.8 2.8 0 0 1 .39-.043c.082 0 .165.02.247.028l3.677-5.943a1.563 1.563 0 0 1 .386-.409c.033-.024.063-.05.1-.071a1.535 1.535 0 0 1 .484-.213c.022-.005.046 0 .067-.009a1.573 1.573 0 0 1 .288-.036 1.419 1.419 0 0 1 .176.026c.051.006.1.01.151.02a1.544 1.544 0 0 1 .956 2.406l-3.888 5.71a3.114 3.114 0 0 0-.7-.794c-.075-.059-.143-.122-.224-.176a3.249 3.249 0 0 0-.547-.285 3.125 3.125 0 0 0-.926-.226l-.184.3a1.471 1.471 0 0 0-.508-.185c-.336.575-.682 1.19-1.035 1.865-.118.224-.239.474-.359.716a1.364 1.364 0 0 0 .236.233l.953.629.756.5.8.528a1.192 1.192 0 0 0 .222.09 1.42 1.42 0 0 0 .271.041l-.032.06a1.466 1.466 0 0 0 .332.047 1.342 1.342 0 0 0 .234-.029 1.429 1.429 0 0 0 .975-.628l.118-.18a1.436 1.436 0 0 0 .209-.8l-.241.356a2.31 2.31 0 0 0 .071-1.049 1.4 1.4 0 0 0-.29-.362l.123-.215a2.575 2.575 0 0 1 .167.577 1.4 1.4 0 0 1 .167.4 1.372 1.372 0 0 1 0 .3l4.489-6.594a3.015 3.015 0 0 0 .467-2.295m-8.673 8.917-.129-.084v-.006a.416.416 0 0 1 .142-.133.416.416 0 0 0-.142.133v.006l.129.084.369.242zm-.267-1.386-.1-.064.1.064.735.483zm.737-.4h.011a1.445 1.445 0 0 1 .3.048c.046.009.087.006.133.019l.023.005h-.024c-.044-.013-.088-.011-.132-.02a1.476 1.476 0 0 0-.307-.045m1.561 1.835a.7.7 0 0 1-.269.227 1.136 1.136 0 0 1-.087.037 1.037 1.037 0 0 1-.327.066c-.016 0-.027.008-.042.008h-.016a1.569 1.569 0 0 1-.352-.047.42.42 0 0 1-.067.226v.005l-.109-.07a42.2 42.2 0 0 1 .464-.907l.692.454.218-.321a.675.675 0 0 1-.1.325"/>
            </g>
        </g>
    </g>
</svg>
