<svg xmlns="http://www.w3.org/2000/svg" width="250" height="250">
    <defs>
        <style>
            .cls-2{fill:#fff}.cls-3{fill:#567bb0}
        </style>
    </defs>
    <g id="그룹_3628" data-name="그룹 3628" transform="translate(-344 -495.648)">
        <circle id="타원_1283" data-name="타원 1283" cx="125" cy="125" r="125" transform="translate(344 495.648)" style="fill:#8bb3ff"/>
        <g id="그룹_3607" data-name="그룹 3607" transform="translate(0 -756)">
            <path id="패스_3839" data-name="패스 3839" class="cls-2" d="M-183.662 1540.878c-1.66-10.93-7.64-20.04-17.28-26.32-21.42-13.96-39.03-12.55-50.03-8.9-14.97 4.96-24.54 16.13-26.34 21-.54 1.46-2.8 3.73-3.55 4.42a.579.579 0 0 0-.08.07c-.05.06-4.9 5.29-9.49 4.1-3.31-.86-5.85-4.86-7.56-11.86a8.061 8.061 0 0 0 1.89-5.14 4.842 4.842 0 0 0-1.91-3.5 4.331 4.331 0 0 0-3.86-1.02 5.1 5.1 0 0 0-2.65 1.83c-1.16-1.69-2.93-3.65-5.1-4.1a4.561 4.561 0 0 0-3.98 1.1 6.939 6.939 0 0 0-2.35 7.45 9.08 9.08 0 0 0 5.58 5.7 12.412 12.412 0 0 0 1.57.49 24.045 24.045 0 0 0 .39 6.77 33.6 33.6 0 0 0 1.74 6.04h-26.58l-10.19-11.52a1.213 1.213 0 0 0-.89-.4h-21.65a1.182 1.182 0 0 0-1.18 1.18v61.62a1.355 1.355 0 0 0-.02.2 2.434 2.434 0 0 0 .03.38 1.172 1.172 0 0 0 1.13 1.21 1.123 1.123 0 0 0 .32-.04c1.9-.17 25.09.1 42.06.29 9.84.11 18.33.21 21.29.21 3.56 0 6.76-2.4 9.37-5.39h.01c.33.38.68.77 1.07 1.17a1.145 1.145 0 0 0 .34.86l6.28 6.1-.18.19.01.49v1.26c-.02 5.2.85 6.73 9.2 8.88-2.05 12.68-1.44 23.5 1.82 32.16l.23.61.66.14c.15.03 5.06.7 7.21.78q4.71.225 9.42 0h.01a12.633 12.633 0 0 0 3.16 4.42l.47.37.56-.22c.63-.25 9.97-3.9 19.61-6.75.43-.13.87-.25 1.3-.38.49-.14.98-.28 1.48-.41.65-.18 1.3-.36 1.94-.52.57-.15 1.14-.29 1.7-.43q.99-.24 1.95-.45c.74-.16 1.45-.28 2.15-.41v.01h.03l.13-.02 2.96-.49.13-.02a27.3 27.3 0 0 1 2.86-.23h.67l.28-.62a33.276 33.276 0 0 0 2.34-6.93c.6-.87 3.96-6.4-1.61-14.57-3.82-5.61-6.69-13.59-8.03-17.72a41.628 41.628 0 0 0 15.12-3.82 33.88 33.88 0 0 0 11.61-9.01c9.82-11.888 14.47-26.95 12.43-40.31z" transform="translate(743.189 -198.529)"/>
            <g id="_-e-icon_05_off" data-name="-e-icon_05_off" transform="translate(35.12 767.396)">
                <path id="패스_1004" data-name="패스 1004" class="cls-2" d="M514.216 557.882a52.511 52.511 0 0 1 7.441 15.043 34.426 34.426 0 0 0-7.441-15.043"/>
                <path id="패스_1005" data-name="패스 1005" class="cls-3" d="M457.366 540.545c7.98-2.644 19.5-4.083 33.475.861a59.828 59.828 0 0 0-13.515-3.327 48.753 48.753 0 0 0-20.045 2.2 50.974 50.974 0 0 0-13.984 7.237 51.809 51.809 0 0 0-7.586 7.248 50.459 50.459 0 0 1 21.656-14.224"/>
                <path id="패스_1006" data-name="패스 1006" class="cls-3" d="M507.494 549.926c-.267-.257-.419-.392-.419-.392a97.727 97.727 0 0 0-3.89-2.327c1.144.672 2.3 1.381 3.469 2.142.286.188.559.386.839.578"/>
                <path id="패스_1007" data-name="패스 1007" class="cls-3" d="M522.693 575.207a39.77 39.77 0 0 1 .434 4.872q.181 1.587.23 3.231a41.3 41.3 0 0 0-.391-8.144 35.678 35.678 0 0 0-13-22.658c.369.414.763.869 1.176 1.362a35.294 35.294 0 0 1 11.554 21.336"/>
                <path id="패스_1008" data-name="패스 1008" class="cls-3" d="M523.127 580.079c.33 11.574-4.16 23.989-12.487 34.067-.071.086-.148.166-.219.25a35.131 35.131 0 0 0 2.617-2.917 52.862 52.862 0 0 0 10.317-28.169q-.048-1.642-.228-3.231"/>
                <path id="패스_1009" data-name="패스 1009" class="cls-3" d="M490.843 541.406a82.353 82.353 0 0 1 12.343 5.8 71.681 71.681 0 0 0-12.343-5.8"/>
                <path id="패스_1010" data-name="패스 1010" class="cls-3" d="M434.289 607.172a51.707 51.707 0 0 1-7.907-9.582c-.065.035-.137.061-.2.093a48.714 48.714 0 0 0 8.111 9.489"/>
                <path id="패스_1011" data-name="패스 1011" class="cls-3" d="M523.228 587.773a53.186 53.186 0 0 1-6.339 18.255 41.488 41.488 0 0 0 6.339-18.255"/>
                <path id="패스_1012" data-name="패스 1012" class="cls-3" d="M523.357 583.31a52.866 52.866 0 0 1-10.317 28.17c.038-.048.077-.092.115-.138a56.447 56.447 0 0 0 3.734-5.313 53.229 53.229 0 0 0 6.341-18.256 37.933 37.933 0 0 0 .127-4.463"/>
                <path id="패스_1013" data-name="패스 1013" class="cls-3" d="M522.965 575.167a41.21 41.21 0 0 1 .391 8.144 37.933 37.933 0 0 1-.127 4.463c1.983-13.615-2.066-27.354-14.524-36.63.371.388.8.845 1.259 1.366a35.682 35.682 0 0 1 13 22.658"/>
                <path id="패스_1014" data-name="패스 1014" class="cls-3" d="M510.412 613.958c9.167-11.1 13.64-25.026 12.132-37.521-.25-1.2-.548-2.372-.887-3.514.172.782.328 1.57.449 2.372 1.937 12.708-2.521 27.091-11.923 38.474a31.081 31.081 0 0 1-6.427 5.837 35.3 35.3 0 0 0 3.741-2.6 31.017 31.017 0 0 0 2.915-3.048"/>
                <path id="패스_1015" data-name="패스 1015" class="cls-3" d="M522.543 576.437c-.048-.395-.083-.793-.142-1.185a34.9 34.9 0 0 0-9.842-19.614c.54.7 1.1 1.444 1.657 2.244a34.426 34.426 0 0 1 7.44 15.042c.339 1.141.637 2.314.887 3.514"/>
                <path id="패스_1016" data-name="패스 1016" class="cls-3" d="M477.325 538.081a45.662 45.662 0 0 0-20.817 2.169c-.232.082-.459.167-.689.252-.629.23-1.235.481-1.843.731-.961.406-1.879.842-2.776 1.293-.122.061-.248.121-.369.183q-1.266.652-2.438 1.351c-.145.086-.291.171-.432.258q-1.154.7-2.221 1.428l-.328.23a51.5 51.5 0 0 0-2.11 1.545 50.906 50.906 0 0 1 13.982-7.237 48.761 48.761 0 0 1 20.045-2.2"/>
                <path id="패스_1017" data-name="패스 1017" class="cls-3" d="M522.543 576.437c.245 1.188.443 2.4.585 3.642a40.013 40.013 0 0 0-.435-4.872 35.294 35.294 0 0 0-11.554-21.336 63.96 63.96 0 0 1 1.42 1.767 34.9 34.9 0 0 1 9.842 19.614c.059.392.094.79.142 1.185"/>
                <path id="패스_1018" data-name="패스 1018" class="cls-3" d="M523.127 580.079a39.676 39.676 0 0 0-.585-3.642c1.509 12.493-2.964 26.424-12.13 37.519a31.167 31.167 0 0 1-2.915 3.049 35.32 35.32 0 0 0 2.925-2.609c.071-.084.148-.165.219-.25 8.328-10.078 12.817-22.493 12.487-34.067"/>
                <path id="패스_1019" data-name="패스 1019" class="cls-3" d="M408.5 555.485c.055-.079.109-.162.164-.25a2.877 2.877 0 0 0-.264-.141c-.056.09-.111.173-.169.258a2.125 2.125 0 0 1 .269.133"/>
                <path id="패스_1020" data-name="패스 1020" class="cls-3" d="M408.063 555.6a2.036 2.036 0 0 1 .263.144 6.16 6.16 0 0 0 .175-.26 2.1 2.1 0 0 0-.267-.134c-.056.084-.115.175-.17.25"/>
                <path id="패스_1021" data-name="패스 1021" class="cls-3" d="M408.75 555.644c.055-.082.109-.164.164-.252a2.66 2.66 0 0 0-.249-.158 6.79 6.79 0 0 1-.164.25 2.277 2.277 0 0 1 .249.159"/>
                <path id="패스_1022" data-name="패스 1022" class="cls-3" d="M425.9 595.822c-.049.028-.1.054-.153.082q.441.768.926 1.53c.076-.044.147-.1.221-.144-.314-.5-.623-1.005-.912-1.511-.026.017-.056.028-.082.044"/>
                <path id="패스_1023" data-name="패스 1023" class="cls-3" d="M425.253 596.167c.3.509.6 1.015.926 1.516.066-.032.138-.059.2-.093a41.236 41.236 0 0 1-.918-1.537c-.072.038-.137.079-.211.114"/>
                <path id="패스_1024" data-name="패스 1024" class="cls-3" d="M425.463 596.055c.294.516.6 1.027.918 1.537.1-.051.193-.1.288-.158q-.482-.761-.926-1.53c-.092.051-.184.1-.281.15"/>
                <path id="패스_1025" data-name="패스 1025" class="cls-3" d="M426.231 595.6c.291.509.608 1.012.927 1.513.088-.059.182-.111.269-.175a41.122 41.122 0 0 1-.938-1.532 4.962 4.962 0 0 1-.258.194"/>
                <path id="패스_1026" data-name="패스 1026" class="cls-3" d="M425.979 595.778c.288.506.6 1.009.912 1.511.09-.056.178-.114.266-.174-.319-.5-.636-1.005-.927-1.514-.083.06-.165.121-.252.176"/>
                <path id="패스_1027" data-name="패스 1027" class="cls-3" d="M425.02 592.615a15.014 15.014 0 0 1 3.008 1.164c.057-.084.1-.172.158-.26a15.517 15.517 0 0 0-3.316-1.258c.054.119.094.236.15.354"/>
                <path id="패스_1028" data-name="패스 1028" class="cls-3" d="M424.278 592.423c-.049-.112-.092-.225-.139-.335-.109-.023-.226-.043-.337-.062l.143.335c.107.022.228.038.333.062"/>
                <path id="패스_1029" data-name="패스 1029" class="cls-3" d="M423.575 592.293c-.048-.111-.089-.224-.136-.335l-.167-.032c.051.162.088.281.105.33.066.011.131.024.2.037"/>
                <path id="패스_1030" data-name="패스 1030" class="cls-3" d="M423.8 592.026a16.925 16.925 0 0 0-.364-.068c.046.112.088.225.136.336.125.021.25.043.37.067-.049-.111-.094-.224-.142-.335"/>
                <path id="패스_1031" data-name="패스 1031" class="cls-3" d="M424.5 592.159c.053.118.094.237.148.355.131.032.249.067.374.1-.056-.119-.1-.236-.149-.354-.128-.033-.242-.071-.372-.1"/>
                <path id="패스_1032" data-name="패스 1032" class="cls-3" d="M424.647 592.515c-.054-.118-.1-.237-.149-.355-.115-.026-.241-.046-.359-.072.048.111.09.224.139.336.129.028.244.061.369.092"/>
                <path id="패스_1033" data-name="패스 1033" class="cls-3" d="M424.58 593.715c.053.108.1.215.154.321.128.029.249.06.369.092-.053-.1-.107-.208-.159-.312a12.555 12.555 0 0 0-.364-.1"/>
                <path id="패스_1034" data-name="패스 1034" class="cls-3" d="M425.9 595.822c.026-.016.056-.027.082-.044l-.006-.011-.076.055"/>
                <path id="패스_1035" data-name="패스 1035" class="cls-3" d="M424.177 593.614c-.1-.024-.2-.044-.308-.067.054.112.1.227.159.34l.318.062c-.056-.111-.114-.222-.169-.335"/>
                <path id="패스_1036" data-name="패스 1036" class="cls-3" d="M424.177 593.614c.055.112.112.224.169.335.133.029.263.057.388.088-.054-.106-.1-.214-.154-.321a19.47 19.47 0 0 0-.4-.1"/>
                <path id="패스_1037" data-name="패스 1037" class="cls-3" d="M426.231 595.6c.089-.062.173-.127.258-.194l-.029-.048a3.742 3.742 0 0 1-.242.221l.013.021"/>
                <path id="패스_1038" data-name="패스 1038" class="cls-3" d="M425.5 594.236c.149.043.289.086.418.128-.049-.093-.094-.186-.143-.279a7.909 7.909 0 0 0-.427-.143c.05.1.1.2.153.293"/>
                <path id="패스_1039" data-name="패스 1039" class="cls-3" d="m425.972 595.767.007.011c.087-.055.169-.116.252-.176l-.013-.021c-.074.062-.164.123-.245.186"/>
                <path id="패스_1040" data-name="패스 1040" class="cls-3" d="M424.944 593.816c.051.105.106.208.159.312.139.037.274.072.4.11-.051-.1-.1-.2-.153-.294-.131-.043-.266-.084-.407-.127"/>
                <path id="패스_1041" data-name="패스 1041" class="cls-3" d="M424.278 592.423c-.105-.024-.226-.04-.333-.062l.3.657c.12.028.221.061.336.092-.107-.228-.2-.458-.3-.687"/>
                <path id="패스_1042" data-name="패스 1042" class="cls-3" d="M423.575 592.293c-.067-.012-.132-.026-.2-.037v.011c-.022 0-.042.028-.061.062q.117.282.244.561c.1.02.209.038.309.059-.1-.22-.205-.436-.3-.656"/>
                <path id="패스_1043" data-name="패스 1043" class="cls-3" d="M423.944 592.361c-.121-.026-.245-.046-.37-.068.094.22.2.437.3.656.121.026.254.043.371.07l-.3-.657"/>
                <path id="패스_1044" data-name="패스 1044" class="cls-3" d="M424.974 593.216c.133.038.282.072.409.111-.118-.238-.253-.474-.364-.712-.123-.034-.244-.068-.374-.1.107.233.216.468.329.7"/>
                <path id="패스_1045" data-name="패스 1045" class="cls-3" d="M424.581 593.108c.136.034.265.071.393.108-.112-.235-.22-.468-.327-.7-.125-.032-.241-.064-.369-.093l.3.687"/>
                <path id="패스_1046" data-name="패스 1046" class="cls-3" d="M424.244 593.018c.109.232.221.465.335.7l.364.1c-.117-.236-.25-.469-.363-.707-.114-.029-.215-.064-.336-.09"/>
                <path id="패스_1047" data-name="패스 1047" class="cls-3" d="M423.874 592.949c-.1-.022-.206-.039-.309-.059l.3.656c.1.023.209.043.308.067-.106-.221-.2-.442-.3-.665"/>
                <path id="패스_1048" data-name="패스 1048" class="cls-3" d="M424.244 593.018c-.117-.027-.25-.044-.371-.07l.3.665.4.1a30.104 30.104 0 0 1-.335-.7"/>
                <path id="패스_1049" data-name="패스 1049" class="cls-3" d="M425.35 593.943c.145.046.292.094.427.143a39.238 39.238 0 0 1-.394-.759c-.126-.039-.275-.072-.409-.111.117.243.252.484.376.727"/>
                <path id="패스_1050" data-name="패스 1050" class="cls-3" d="M424.944 593.816c.14.043.276.084.407.127-.125-.243-.259-.484-.376-.727a9.715 9.715 0 0 0-.393-.106c.112.237.244.47.363.706"/>
                <path id="패스_1051" data-name="패스 1051" class="cls-3" d="M441.844 560.775a3.981 3.981 0 0 1 2.48.253 3.531 3.531 0 0 1 1.717 1.553.787.787 0 0 0 .408.373.843.843 0 0 0 .812-.127 1.137 1.137 0 0 0 .348-1.4 5.1 5.1 0 0 0-2.462-2.27 5.518 5.518 0 0 0-3.38-.368 1.106 1.106 0 0 0-.859 1.14.82.82 0 0 0 .935.844"/>
                <path id="패스_1052" data-name="패스 1052" class="cls-3" d="M439.126 569.4a5.726 5.726 0 0 1 2.05 2.093 3.471 3.471 0 0 1 1.55 1.461.789.789 0 0 0 .409.375.841.841 0 0 0 .811-.128 1.132 1.132 0 0 0 .349-1.4 5.1 5.1 0 0 0-2.461-2.27 5.534 5.534 0 0 0-3.383-.368 1 1 0 0 0-.657.462 1.093 1.093 0 0 1 1.331-.227"/>
                <path id="패스_1053" data-name="패스 1053" class="cls-3" d="M437.595 570.305a1.162 1.162 0 0 1 .2-.678c-.021.022-.048.034-.067.057a.822.822 0 0 0 .131 1.244.929.929 0 0 1-.264-.623"/>
                <path id="패스_1054" data-name="패스 1054" class="cls-3" d="M438.53 571.152a.744.744 0 0 1-.5-.106 3.828 3.828 0 0 1 1.531 1.727 3.539 3.539 0 0 1 .256 2.3.784.784 0 0 0 .059.552.838.838 0 0 0 .691.441 1.136 1.136 0 0 0 1.188-.815 5.107 5.107 0 0 0-.341-3.332c-.07-.159-.159-.283-.237-.425-.056-.028-.106-.062-.165-.089a3.976 3.976 0 0 0-2.482-.253"/>
                <path id="패스_1055" data-name="패스 1055" class="cls-3" d="M437.858 570.928a.778.778 0 0 0 .17.117.742.742 0 0 0 .5.106 3.968 3.968 0 0 1 2.482.253c.059.026.109.06.165.089a5.726 5.726 0 0 0-2.05-2.093 1.093 1.093 0 0 0-1.331.227 1.158 1.158 0 0 0-.2.677.929.929 0 0 0 .264.623"/>
                <path id="패스_1056" data-name="패스 1056" class="cls-3" d="M437.869 570.938c.051.033.106.073.159.107a.738.738 0 0 1-.17-.117l.011.01"/>
                <path id="패스_1057" data-name="패스 1057" class="cls-2" d="M463.5 626.711c-.076-.169-.171-.3-.254-.456-.479 2.889-.9 6.146-1.268 9.552 2.21-3.347 2.217-7.528 1.522-9.1"/>
                <path id="패스_1058" data-name="패스 1058" class="cls-3" d="m415.018 586.7-.076-.031-.208-.046.206.089c.024-.006.051-.007.077-.012"/>
                <path id="패스_1059" data-name="패스 1059" class="cls-3" d="m415.054 586.692-.112-.026.076.032.037-.006"/>
                <path id="패스_1060" data-name="패스 1060" class="cls-3" d="M416.1 586.828c-.033-.016-.068-.029-.1-.044a1.78 1.78 0 0 0-.946-.09c.427.092.873.176 1.337.258-.175-.072-.289-.123-.289-.123"/>
                <path id="패스_1061" data-name="패스 1061" class="cls-3" d="M407.5 582.643c.038.039.071.078.11.118v-.118z"/>
                <path id="패스_1062" data-name="패스 1062" class="cls-3" d="m424.209 596.163-3.325 9.519a7.414 7.414 0 0 1 2.3.578l2.611-7.473q-.848-1.3-1.582-2.624"/>
                <path id="패스_1063" data-name="패스 1063" class="cls-3" d="M405.713 623.85c-1.976 0-6.433-.043-12.1-.105l-1.56-.018-7.6-.086c-19.833-.224-30.456-.342-36.2-.342-2.052 0-3.482.015-4.487.045l.116-.325 14.329-40.376h48.221v-1.651a152.32 152.32 0 0 1-.6-.709h-48.455a1.181 1.181 0 0 0-1.111.784l-13.007 36.65v-54.193H363.2l10.19 11.517a1.186 1.186 0 0 0 .884.4h28.153c-.2-.4-.369-.788-.541-1.179s-.337-.79-.491-1.181h-26.589l-10.189-11.516a1.191 1.191 0 0 0-.884-.4H342.08a1.179 1.179 0 0 0-1.18 1.18v61.62a1.2 1.2 0 0 0-.02.2 2.321 2.321 0 0 0 .026.379 1.171 1.171 0 0 0 1.453 1.172c1.9-.171 25.088.094 42.065.286 9.831.112 18.321.209 21.288.209 3.556 0 6.756-2.394 9.368-5.384a16.006 16.006 0 0 1-1.443-1.956c-2.352 2.8-5.1 4.98-7.925 4.98"/>
                <path id="패스_1064" data-name="패스 1064" class="cls-3" d="M406.431 581.5v1.146h1.07q-.566-.568-1.07-1.146"/>
                <path id="패스_1065" data-name="패스 1065" class="cls-3" d="M435.918 581.44a1.154 1.154 0 0 0 .945-1.147 1.2 1.2 0 0 0-1.408-1.176l-.25.048c-.861.161-2.3.428-5.5.742a20.688 20.688 0 0 1-6.618-.652 15.287 15.287 0 0 1-1.568-.495c-1.348-.481-3.025-1.082-4.156.436a2.692 2.692 0 0 0-.481 1.09h13.71a1.179 1.179 0 0 1 1.114 1.57l-.078.224c2.225-.254 3.393-.47 4.063-.6z"/>
                <path id="패스_1066" data-name="패스 1066" class="cls-3" d="M415.139 616.923c-.48.668-.978 1.324-1.5 1.947a15.991 15.991 0 0 0 1.442 1.956c.509-.582 1-1.186 1.459-1.8a11.856 11.856 0 0 1-1.4-2.1"/>
                <path id="패스_1067" data-name="패스 1067" class="cls-3" d="m424.619 594.99-.02.056c.481.9 1 1.8 1.56 2.688l.017-.05q-.482-.751-.923-1.515c-.226-.39-.423-.787-.634-1.179"/>
                <path id="패스_1068" data-name="패스 1068" class="cls-3" d="M424.209 596.163q.735 1.319 1.582 2.624l.369-1.054a41.78 41.78 0 0 1-1.56-2.688z"/>
                <path id="패스_1069" data-name="패스 1069" class="cls-3" d="M457.656 623.318a80.77 80.77 0 0 0 4.638 1.643c-1.115-1.076-2.706-1.558-4.881-1.745.081.032.162.07.243.1"/>
                <path id="패스_1070" data-name="패스 1070" class="cls-3" d="M456.018 620.766c-.162-.07-.32-.144-.481-.215l-.933-.133c.238.109.469.226.708.332.236 0 .471.01.706.016"/>
                <path id="패스_1071" data-name="패스 1071" class="cls-3" d="M454.4 620.745a.591.591 0 0 0 .066 0h.131c-.336-.153-.668-.315-1-.473l-.1-.013-.083.272c.133.064.269.123.4.186.2.012.394.027.585.027"/>
                <path id="패스_1072" data-name="패스 1072" class="cls-3" d="M455.312 620.75c-.239-.106-.47-.225-.708-.332l-1.009-.145c.335.158.667.32 1 .473h.714"/>
                <path id="패스_1073" data-name="패스 1073" class="cls-3" d="m463.662 622.99.18.05.01-.05-.309-.094c.039.032.081.061.12.094"/>
                <path id="패스_1074" data-name="패스 1074" class="cls-3" d="m463.82 623.138.022-.1-.181-.049c.054.048.106.1.159.148"/>
                <path id="패스_1075" data-name="패스 1075" class="cls-3" d="m453.413 620.533-.045.151c.151.016.3.026.447.033-.133-.061-.27-.121-.4-.184"/>
                <path id="패스_1076" data-name="패스 1076" class="cls-3" d="M469.544 614.125a19.5 19.5 0 0 1-2.571-10.171 1.316 1.316 0 0 0-1.309-1.322h-.007a1.316 1.316 0 0 0-1.314 1.307 22.626 22.626 0 0 0 2.141 9.945z"/>
                <path id="패스_1077" data-name="패스 1077" class="cls-3" d="M467.266 615.36c.055.094.107.191.164.283h2.16z"/>
                <path id="패스_1078" data-name="패스 1078" class="cls-3" d="m467.266 615.36 2.324.282h.988a16.247 16.247 0 0 1-1.033-1.517l-3.06-.241c.243.5.5 1 .782 1.477"/>
                <path id="패스_1079" data-name="패스 1079" class="cls-3" d="M470.68 615.776c-.034-.044-.07-.088-.1-.133h-.988z"/>
                <path id="패스_1080" data-name="패스 1080" class="cls-3" d="M467.429 615.645a19.036 19.036 0 0 0 8.555 7.5c.285.127.572.249.86.362.15.06.305.1.458.156a20.542 20.542 0 0 0 3.593.954c.346.059.692.1 1.039.144s.675.072 1.014.1c.414.029.827.062 1.242.067.073 0 .149.009.222.009a21.383 21.383 0 0 0 14.3-5.493 28.732 28.732 0 0 0 9.8-24.446c5.592-4.517 11-14.85 10.454-24.49a17.238 17.238 0 0 0-8.939-14.737c-8.974-5.069-16.1-4.332-20.5-2.815a19.345 19.345 0 0 0-7.559 4.656 1.315 1.315 0 0 0 1.947 1.768c.377-.413 9.416-10.012 24.818-1.319a14.8 14.8 0 0 1 7.607 12.6c.506 8.861-4.769 18.891-10.012 22.7a1.325 1.325 0 0 0-.52 1.3 26.528 26.528 0 0 1-8.864 22.835 18.566 18.566 0 0 1-15.168 4.623 18.101 18.101 0 0 1-2.198-.457 18.063 18.063 0 0 1-2.529-.914 16.5 16.5 0 0 1-6.376-4.971l-1.089-.132z"/>
                <path id="패스_1081" data-name="패스 1081" class="cls-3" d="M435.516 638.246c-.06.781-.109 1.578-.154 2.386 2.248.517 4.881 1.089 7.988 1.762a37.432 37.432 0 0 0 5.166.762c.107-.789.221-1.571.341-2.341a35 35 0 0 1-5.006-.728 662.103 662.103 0 0 1-8.335-1.841"/>
                <path id="패스_1082" data-name="패스 1082" class="cls-3" d="m434.545 638.019-.435-.1c-.122.665-.236 1.339-.346 2.015l.21.05-.015.248v.074c.144.033.288.068.435.1.043-.817.1-1.61.153-2.387"/>
                <path id="패스_1083" data-name="패스 1083" class="cls-3" d="M434.545 638.019c-.057.777-.11 1.57-.153 2.387.315.075.637.149.97.226.045-.808.094-1.607.154-2.386l-.971-.227"/>
                <path id="패스_1084" data-name="패스 1084" class="cls-3" d="M463.242 626.255c.052-.315.105-.628.159-.935-.37-.111-.739-.242-1.106-.36a5.318 5.318 0 0 1 .948 1.295"/>
                <path id="패스_1085" data-name="패스 1085" class="cls-3" d="m455.131 622.808-.085.308c.855.01 1.645.039 2.366.1-.1-.04-.2-.084-.3-.127z"/>
                <path id="패스_1086" data-name="패스 1086" class="cls-3" d="M461.376 636.633c-2.2 2.71-5.671 4.132-10.189 4.239q-.185 1.171-.355 2.369c5.147-.037 8.533-1.594 10.742-3.464q.189-2.007.4-3.97a9.822 9.822 0 0 1-.6.826"/>
                <path id="패스_1087" data-name="패스 1087" class="cls-3" d="M461.081 623.659c.818.282 1.645.546 2.474.8.021-.1.038-.206.057-.307-.28-.084-.561-.161-.839-.25z"/>
                <path id="패스_1088" data-name="패스 1088" class="cls-3" d="M463.613 624.153c.009-.042.016-.086.024-.127l-.863-.123c.28.089.559.166.839.25"/>
                <path id="패스_1089" data-name="패스 1089" class="cls-3" d="m457.109 623.09.3.127c2.175.188 3.766.668 4.881 1.743.369.12.738.249 1.106.362.051-.293.1-.578.156-.863a71.325 71.325 0 0 1-2.475-.8z"/>
                <path id="패스_1090" data-name="패스 1090" class="cls-3" d="M463.2 638.124c.129-.16.248-.327.369-.491l-2 2.145a12.5 12.5 0 0 0 1.632-1.654"/>
                <path id="패스_1091" data-name="패스 1091" class="cls-3" d="M448.857 640.814c-.12.771-.232 1.553-.341 2.341h.1c.725.055 1.43.089 2.1.09h.123q.169-1.2.355-2.369c-.747.017-1.527 0-2.33-.059"/>
                <path id="패스_1092" data-name="패스 1092" class="cls-3" d="M464.092 623.406a6.9 6.9 0 0 0-.272-.269l-.035.176z"/>
                <path id="패스_1093" data-name="패스 1093" class="cls-3" d="M433.593 639.889c.044-.7.09-1.389.144-2.062-.462-.112-.9-.222-1.319-.329-.122.666-.237 1.34-.348 2.016l.114.029c.442.114.922.228 1.409.346"/>
                <path id="패스_1094" data-name="패스 1094" class="cls-3" d="M433.593 639.889c.049.012.093.024.143.035l.031.007c.109-.677.222-1.35.344-2.015a22.27 22.27 0 0 0-.374-.09c-.054.673-.1 1.365-.144 2.062"/>
                <path id="패스_1095" data-name="패스 1095" class="cls-3" d="M463.662 622.988c-.039-.033-.081-.062-.12-.094a70.313 70.313 0 0 1-5.051-1.747c-.215-.084-.423-.178-.636-.265l-.028-.011a73.972 73.972 0 0 1-10.384-5.214 72.286 72.286 0 0 1-5.03-3.321c-.177-.128-.357-.255-.534-.385a57.685 57.685 0 0 1-14.452-15.012c-.085.064-.18.115-.269.175s-.175.118-.265.175-.147.1-.222.144l-.288.158a51.651 51.651 0 0 0 7.906 9.582 48.7 48.7 0 0 1-8.11-9.489l-.018.05-.369 1.054a57.875 57.875 0 0 0 13.024 13.844c.068.051.14.1.209.153.346.266.944.66 1.3.92l2.744 1.957a78.229 78.229 0 0 0 7.546 4.453 27.509 27.509 0 0 1-8.634-4.452l-.629-.561-1.434-1.045c.01.006 0 .006.006.007a6.2 6.2 0 0 0-.653-.3 5.685 5.685 0 0 0-.569-.16 6.961 6.961 0 0 0-3.8.184l-.026.01-4-4.528a1.162 1.162 0 0 0-.337-.243 5.7 5.7 0 0 0-.573-3.152 2.924 2.924 0 0 0-1.986-1.414 3.264 3.264 0 0 0-2.993.654 3.407 3.407 0 0 0-.957 1.539 9.673 9.673 0 0 0-.848-.4 7.407 7.407 0 0 0-2.295-.578 5.639 5.639 0 0 0-3.584.9c-3.159 2.04-4.884 4.393-5.128 6.992a8.492 8.492 0 0 0 1.465 5.295 31.522 31.522 0 0 0 1.5-1.947 5.794 5.794 0 0 1-.691-3.134c.176-1.868 1.553-3.646 4.094-5.284a3.448 3.448 0 0 1 1.544-.536c.117-.011.233-.023.351-.023a4.968 4.968 0 0 1 1.993.464 7.4 7.4 0 0 1 1.741 1.1 1.144 1.144 0 0 0 1.9-.955 2.551 2.551 0 0 1 .438-1.727c.074-.066.3-.261 1.015-.118a.649.649 0 0 1 .473.332c.424.72.3 2.39-.035 3.791a57.616 57.616 0 0 1-7.66 8.113 22.878 22.878 0 0 1-2.567 1.417c-.449-.453-.837-.9-1.193-1.338-.463.615-.95 1.219-1.459 1.8.332.39.688.781 1.076 1.174a1.143 1.143 0 0 0 .341.866l6.28 6.1-.182.185.006.49v1.258c-.017 5.208.857 6.73 9.215 8.88l.051-.314.2.051c.111-.676.225-1.35.348-2.016-7.459-1.9-7.467-2.931-7.456-6.593v-.8c.68-.7 2.262-2.363 4.057-4.411 2.6-2.733 5.718-6.407 7.053-9.541a1.2 1.2 0 0 0 .045-.172c.016-.033.037-.067.053-.1a4.443 4.443 0 0 1 1.732-.022 3.737 3.737 0 0 1 .515.13 3.371 3.371 0 0 1 .608.285c.066.038.127.093.189.137a3.228 3.228 0 0 1 .464.364c.076.076.17.158.254.237a27.685 27.685 0 0 0 12.769 5.97 12.91 12.91 0 0 0 1.7.127.262.262 0 0 1 .054 0c.209 0 .391.009.591.011.031-.1.061-.215.087-.308l1.976.282 3.973.569 1.693.242.862.123c.011-.059.024-.11.035-.169.016-.088.035-.165.053-.252l.06-.291c.011-.06.024-.117.037-.176-.053-.05-.105-.1-.159-.149m-23.08-10.785-.007.02.007-.02m.039-.077.46.055zm-14.3 13.045a81.685 81.685 0 0 1-2.079 2.039l-4.941-4.8a17.383 17.383 0 0 0 2.246-1.541 20.019 20.019 0 0 0 3.357-2.671 48.474 48.474 0 0 0 4.912-5.754 1.157 1.157 0 0 0 .154-.314c.015-.046.043-.138.076-.26l.031-.037 3.477 3.936a62.143 62.143 0 0 1-7.232 9.4m28.986-4.414h-.845a.591.591 0 0 1-.066 0c-.191 0-.388-.015-.586-.027-.148-.009-.3-.018-.447-.034l.045-.151.083-.272.1.013 1.009.145.934.133c.16.071.318.145.48.215-.234-.006-.47-.013-.706-.016"/>
                <path id="패스_1096" data-name="패스 1096" class="cls-3" d="M407.611 582.643v.118c.37.368.768.726 1.178 1.081a22.153 22.153 0 0 0 12.394 5.314 36.207 36.207 0 0 0 3.025 7.005l.391-1.118.02-.055c-.2-.368-.41-.732-.592-1.1-.055-.112-.1-.226-.158-.338-.1-.219-.206-.437-.3-.656s-.194-.435-.286-.652c-.048-.111-.092-.224-.138-.336.045.007.087.016.129.024-.148-.468-.405-1.3-.594-1.906.223-.238-.427.2-.077.035a1.074 1.074 0 0 1 .326-.024h1.018c.045 0 .092-.006.137-.009.134 0 .27-.015.405-.021.267-.015.536-.033.81-.057l.465-.051q.4-.048.807-.112c.159-.027.319-.051.481-.082.291-.053.585-.119.881-.187.143-.033.283-.062.426-.1.441-.114.884-.241 1.332-.391a10.978 10.978 0 0 1-1.5 4.5c-.054.088-.1.176-.158.26a15.09 15.09 0 0 0-3.008-1.164c.111.238.245.475.364.712.126.253.26.506.393.759.049.093.094.187.143.28.648.215 1.029.414 1 .52a5.98 5.98 0 0 1-.458.474l.028.048c.3.513.614 1.023.938 1.532a9.079 9.079 0 0 0 2.62-3.042 12.89 12.89 0 0 0 1.428-4.755 1.7 1.7 0 0 0-.02-.305c.594.048 1.17.075 1.717.075a21.109 21.109 0 0 0 5-.594 1.159 1.159 0 0 0 .745-.561 1.176 1.176 0 0 0 .087-.935 1.215 1.215 0 0 0-1.431-.8 18.488 18.488 0 0 1-2.635.434 5.581 5.581 0 0 0-.887.037c-2.475.039-2.793.01-2.769-.038.011-.021-.083.033-.084-.009a18.573 18.573 0 0 1-1.054-.13 20.37 20.37 0 0 1-2.325-.5 23.173 23.173 0 0 1-6.793-3.181c-.292-.2-.583-.386-.877-.6a2.346 2.346 0 0 1-.948-1.168.287.287 0 0 1 .074-.248c.084-.12.65.055 1.53.37a16.409 16.409 0 0 0 1.772.553 22.5 22.5 0 0 0 7.4.7c.613-.06 1.147-.119 1.646-.176l.078-.224a1.182 1.182 0 0 0-1.115-1.571h-13.707a2.629 2.629 0 0 0-.022.929 3.5 3.5 0 0 0 .62 1.432 5.856 5.856 0 0 0 1.287 1.292 26.94 26.94 0 0 0 6.286 3.449c-.683.046-1.357.081-2.009.089-.212-.066.418.265 0 .033l.021-.01c-.109-.043.084-.012-.032-.022a23.309 23.309 0 0 1-12.018-4.832 21.173 21.173 0 0 1-2.225-2.019c-.107-.112-.194-.227-.3-.341-.3-.332-.608-.666-.881-1a23.785 23.785 0 0 1-1.181-1.586v3.8q.507.577 1.071 1.146zm7.331 4.024.112.026a1.773 1.773 0 0 1 .945.09 10.286 10.286 0 0 0 .391.166c-.463-.081-.91-.165-1.337-.257a.177.177 0 0 0-.037 0c-.026 0-.052.006-.078.012-.07-.028-.137-.06-.206-.089l.209.046"/>
                <path id="패스_1097" data-name="패스 1097" class="cls-3" d="M401.589 560.284c.024-.017.055-.024.077-.043a1.349 1.349 0 0 0 .51-.91 1.312 1.312 0 0 0-.158-.761 1.4 1.4 0 0 0-.144-.259c-.016-.018-.039-.029-.056-.048a1.392 1.392 0 0 0-.231-.2 1.344 1.344 0 0 0-.6-.246c-.083-.011-.16-.032-.243-.044s-.175-.032-.264-.048-.2-.032-.3-.052-.2-.031-.3-.054a6.769 6.769 0 0 1-5.158-4.316 4.23 4.23 0 0 1 1.484-4.585 1.892 1.892 0 0 1 1.677-.522c1.917.4 3.844 3.5 4.425 4.663a1.4 1.4 0 0 0 1.263.751 1.361 1.361 0 0 0 1.213-.834c.276-.66 1.152-2.1 2.085-2.337.16-.039.644-.161 1.476.507a2.168 2.168 0 0 1 .9 1.559 4.689 4.689 0 0 1-.851 2.589 2.9 2.9 0 0 1 .264.142 2.686 2.686 0 0 1 .249.158c-.055.088-.109.169-.164.252a2.268 2.268 0 0 0-.249-.159c-.059.089-.118.18-.176.26a1.9 1.9 0 0 0-.264-.144 6.234 6.234 0 0 1-.457.569l-.02.024a1.332 1.332 0 0 0-.27.437 1.413 1.413 0 0 0-.056.293 1.392 1.392 0 0 0-.026.3 1.416 1.416 0 0 0 .053.23 1.33 1.33 0 0 0 .364.662 1.4 1.4 0 0 0 .232.148c1.171 4.682 2.766 8.163 4.758 10.428v.051a5.763 5.763 0 0 1-1.077 5.156 1.064 1.064 0 1 0 1.595 1.41 7.293 7.293 0 0 0 1.8-4.635 7.874 7.874 0 0 0 2.094.894c.073.02.147.023.22.04.01.01.015.023.024.032a6.459 6.459 0 0 1 1.662 5.241 1.065 1.065 0 1 0 2.125.139 9.464 9.464 0 0 0-1.076-5.261 10.3 10.3 0 0 0 2.42-.58 8.684 8.684 0 0 1 2 1.6l.962 1.418a4.235 4.235 0 0 1 .419 2.114 1.065 1.065 0 1 0 2.125.14 7.437 7.437 0 0 0-3.267-6.334 19.345 19.345 0 0 0 4.131-3.286c.551-.508 3.346-3.151 4.14-5.3 1.663-4.509 10.67-14.883 24.886-19.595 10.515-3.485 27.384-4.816 48.031 8.64a38.507 38.507 0 0 1 8.359 7.309 59.979 59.979 0 0 0-4.252-5.373 62.755 62.755 0 0 0-1.258-1.366c12.458 9.276 16.506 23.015 14.523 36.631a41.472 41.472 0 0 1-6.339 18.255 56.313 56.313 0 0 1-3.736 5.314c-.037.046-.076.089-.115.137a35.163 35.163 0 0 1-9.283 8.127 37.533 37.533 0 0 1-19.325 6.184c-.363.02-.74.01-1.106.021-.319.011-.64.016-.962.02s-.641.022-.967.021a57.493 57.493 0 0 1-11.687-1.3 67.942 67.942 0 0 1-4.075-1.019l-.077-.022c-.57-.16-1.137-.348-1.7-.52l-.01.05-.021.1c.093.086.182.176.271.269l-.308-.094-.06.292c-.02.1-.037.164-.053.252-.011.059-.024.11-.035.167l-.023.128c-.02.1-.037.205-.056.307a71.828 71.828 0 0 0-.315 1.798c.083.154.18.287.254.456.695 1.569.69 5.749-1.522 9.1-.14 1.306-.276 2.633-.4 3.971l2-2.146c2.9-3.95 3.145-9.12 2.163-11.653 1.163.312 2.325.6 3.485.849a60.011 60.011 0 0 0 12.543 1.384c.18 0 .354-.007.53-.012l.465-.01c.164 0 .321-.017.484-.021.316-.01.63-.026.944-.04s.64-.021.954-.042c11.081-.739 20.468-5.126 26.837-12.835 9.82-11.888 14.467-26.955 12.431-40.308-1.666-10.938-7.642-20.041-17.28-26.323-21.42-13.964-39.033-12.548-50.036-8.9-14.969 4.96-24.542 16.125-26.338 21-.537 1.455-2.8 3.732-3.555 4.414a.92.92 0 0 0-.076.077c-.049.053-4.9 5.289-9.487 4.1-3.31-.865-5.85-4.862-7.558-11.866a8.052 8.052 0 0 0 1.889-5.132 4.808 4.808 0 0 0-1.916-3.5 4.314 4.314 0 0 0-3.862-1.02 5.113 5.113 0 0 0-2.645 1.825c-1.165-1.692-2.935-3.647-5.1-4.1a4.584 4.584 0 0 0-3.982 1.1 6.932 6.932 0 0 0-2.348 7.451 9.093 9.093 0 0 0 5.579 5.7 11.607 11.607 0 0 0 1.572.485 24.119 24.119 0 0 0 .388 6.773 33.495 33.495 0 0 0 1.743 6.039h2.512c-2.105-4.875-2.716-9.833-2.319-12.794m32.3-3.224c.264-.355.563-.746.917-1.191.294-.363.579-.722.907-1.1a51.825 51.825 0 0 1 7.587-7.248 51.538 51.538 0 0 1 2.111-1.544l.327-.23c.71-.485 1.453-.961 2.221-1.428.143-.087.288-.172.432-.259q1.176-.7 2.438-1.35c.122-.062.247-.122.37-.183a46.32 46.32 0 0 1 2.775-1.293c.608-.249 1.214-.5 1.843-.731.23-.084.457-.17.689-.252a45.662 45.662 0 0 1 20.817-2.169 59.743 59.743 0 0 1 13.518 3.326 71.775 71.775 0 0 1 12.343 5.8c1.281.729 2.574 1.5 3.891 2.326 0 0 .151.136.418.392-.28-.192-.553-.39-.839-.578a86.093 86.093 0 0 0-3.469-2.14 82.361 82.361 0 0 0-12.343-5.8c-13.973-4.943-25.5-3.505-33.476-.861a50.459 50.459 0 0 0-21.656 14.224c-.332.39-.629.754-.907 1.1-.33.408-.634.8-.917 1.191-.27.362-.508.69-.683.942.2-.3.451-.626.683-.942"/>
                <path id="패스_1098" data-name="패스 1098" class="cls-3" d="M402.428 575.438a25.886 25.886 0 0 0 3.4 4.846h.6V577.7l-1.373-2.259q-.319-.586-.607-1.179c-.191-.392-.37-.786-.542-1.181H401.4c.154.391.316.782.492 1.181s.346.782.54 1.179"/>
                <path id="패스_1099" data-name="패스 1099" class="cls-3" d="M434.8 555.869c.278-.346.575-.71.907-1.1-.329.376-.613.735-.907 1.1"/>
                <path id="패스_1100" data-name="패스 1100" class="cls-3" d="M433.2 558c.175-.252.413-.582.683-.942-.233.315-.481.64-.683.942"/>
                <path id="패스_1101" data-name="패스 1101" class="cls-3" d="M433.886 557.06c.283-.387.587-.783.917-1.191-.354.445-.653.836-.917 1.191"/>
                <path id="패스_1102" data-name="패스 1102" class="cls-3" d="M423.272 591.927a2.461 2.461 0 0 0-.129-.024c.046.112.09.225.138.336l.1.018c-.017-.05-.054-.167-.105-.33"/>
                <path id="패스_1103" data-name="패스 1103" class="cls-3" d="M423.381 592.268v-.012l-.1-.017q.137.326.285.652a27.209 27.209 0 0 1-.244-.561c.02-.035.039-.062.061-.062"/>
                <path id="패스_1104" data-name="패스 1104" class="cls-3" d="M405.832 580.283c.216.258.421.5.6.709v-.709z"/>
                <path id="패스_1105" data-name="패스 1105" class="cls-3" d="M451.16 673.468a12.636 12.636 0 0 0 3.156 4.414l.477.37.559-.222c.631-.248 9.966-3.9 19.606-6.745q.65-.192 1.3-.379.738-.211 1.478-.414a115.139 115.139 0 0 1 3.644-.945q.991-.242 1.953-.451c.733-.161 1.448-.281 2.147-.413v.012h.026l.134-.023a8.29 8.29 0 0 0 .247-.889 6.812 6.812 0 0 1-.247.889l2.955-.492.132-.016a27.537 27.537 0 0 1 2.864-.226l.669-.007.28-.612a33.855 33.855 0 0 0 2.342-6.939c.6-.865 3.962-6.391-1.611-14.568-3.821-5.605-6.691-13.583-8.027-17.719-.315.022-.637.027-.955.043s-.626.031-.943.04c-.162 0-.321.017-.484.02.626 2 1.636 5 2.982 8.256a78.55 78.55 0 0 0 1.785 4.015 51.143 51.143 0 0 0 3.749 6.635c4.16 6.106 2.582 10.263 1.861 11.584a54.256 54.256 0 0 0-4.376.484c-.291.043-.578.083-.871.13-.194.032-.39.066-.584.1-8.439 1.09-23.583 3.813-35.48 10.179-2.671-6.992-2.275-17.155-1-26.329H450.642c-.646 0-1.332-.038-2.035-.088-1.352 9.9-1.68 21 1.666 28.415l-10.263-.5c-.35-.046-2.392-.318-2.7-.363-.35-.051-.674-.1-.954-.145s-.537-.089-.74-.126c-2.789-7.832-3.375-17.495-1.739-28.75.022-.468.044-.933.071-1.391l-.247-.057c-.076.475-.145.955-.215 1.435.023-.495.046-.987.074-1.471-.54-.13-1.069-.258-1.555-.381l-.2-.052c-2.049 12.68-1.437 23.5 1.821 32.159l.231.611.662.141c.147.029 5.061.7 7.214.773a93.9 93.9 0 0 0 9.414 0m39.709-7.636c-.857.038-1.788.127-2.762.254-.6.077-1.225.17-1.865.277-2.241.378-4.682.925-7.186 1.572q-.74.191-1.487.393-.689.187-1.378.38c-.592.167-1.183.34-1.776.512l-1.258.375c-.39.118-.779.236-1.165.356-7.565 2.335-14.48 4.964-16.814 5.87a10.8 10.8 0 0 1-1.767-2.58c-.27-.519-.5-1.016-.678-1.44-.029-.072-.064-.149-.092-.215.061-.033.123-.065.184-.1h.038a.223.223 0 0 0-.029 0 66.057 66.057 0 0 1 7.018-3.229q.9-.354 1.815-.688l.426-.153c2.439-.88 4.9-1.647 7.33-2.313q1.061-.29 2.1-.555a133.729 133.729 0 0 1 10.759-2.249v.012c.32-.059 5.2-.6 5.519-.659.294-.049.592-.1.882-.145a54.949 54.949 0 0 1 3.888-.462 35.984 35.984 0 0 1-1.7 4.787"/>
                <path id="패스_1106" data-name="패스 1106" class="cls-3" d="M433.495 641.682c.071-.481.139-.96.216-1.437l-.14-.034c-.029.483-.051.976-.076 1.471"/>
                <path id="패스_1107" data-name="패스 1107" class="cls-3" d="m432.07 639.514-.2-.051-.051.314c.068.017.126.034.2.052.017-.106.037-.21.055-.315"/>
                <path id="패스_1108" data-name="패스 1108" class="cls-3" d="m433.975 639.982-.21-.05c-.018.105-.038.208-.055.314l.247.059v-.076z"/>
                <path id="패스_1109" data-name="패스 1109" class="cls-3" d="M448.612 643.16c.7.05 1.389.087 2.035.087h.061c-.666 0-1.37-.035-2.1-.09z"/>
                <path id="패스_1110" data-name="패스 1110" class="cls-3" d="m432.182 639.542-.114-.028c-.017.1-.038.208-.055.314.487.125 1.015.252 1.556.382.006-.11.015-.213.022-.323-.487-.117-.967-.232-1.409-.346"/>
                <path id="패스_1111" data-name="패스 1111" class="cls-3" d="m433.735 639.925-.143-.035c-.007.11-.017.213-.023.321l.14.035c.017-.106.038-.209.055-.314z"/>
            </g>
        </g>
    </g>
</svg>
