<svg xmlns="http://www.w3.org/2000/svg" width="250" height="250">
    <defs>
        <style>
            .cls-2{fill:#fff}.cls-3{fill:#567bb0}
        </style>
    </defs>
    <g id="그룹_3618" data-name="그룹 3618" transform="translate(-997 -1251.648)">
        <circle id="타원_1229" data-name="타원 1229" cx="125" cy="125" r="125" transform="translate(997 1251.648)" style="fill:#f5f9ff"/>
        <g id="그룹_2859" data-name="그룹 2859">
            <path id="패스_3838" data-name="패스 3838" class="cls-2" d="M388.818 1597.428v-2.41h-8.43v-.69h.69v-69.55h5.55v-8.9h-25.58l-29.56-24.7-29.56 24.7h-25.58v8.9h6.71v9.12a52.565 52.565 0 0 0-5.53-2.73c-11.05-4.62-29.08-7.52-52.3 4.99-10.46 5.63-17.37 14.44-20 25.48a43.192 43.192 0 0 0-1.12 9.06c-1.12 9.07.78 19.57 8.74 30.86a38.427 38.427 0 0 0 2.59 3.25 35.854 35.854 0 0 0 14.78 11.3 126.69 126.69 0 0 0-3.66 7.78c-5.29 12.46-6.88 22.48-4.7 29.76l.06.22c.54 1.82 1.44 4.88 6.54 5.3h.1a1.288 1.288 0 0 0 .55-.15l69.94-16.01a143.567 143.567 0 0 0-2.06-14.45c1.21.06 2.42.1 3.58.1h.01c14.95 0 24.9-5.18 30.42-15.85 2.78-5.36 3.09-10.48.85-14.03a3.855 3.855 0 0 1 .21-1.35zm-83.189-81.55h51.717l-12.07-10.088 12.072 10.088h-51.719zm-22.571 18.03h.01v.15h-.01zm-5.88-1.91c-.19-.08-.39-.15-.58-.22.19.06.38.13.58.21.51.22 1.01.44 1.5.67q-.75-.345-1.5-.658zm1.51.67c1 .45 1.97.94 2.93 1.46-.96-.52-1.94-1-2.93-1.46zm4.38 3.7h-.01v-.14h.01zm2.37 1.26c-.76-.52-1.56-1.02-2.38-1.5v-.01c.82.49 1.62.99 2.38 1.5zm0-15.21h-6.71v-4.18h105.51-105.509v4.177h6.709z" transform="translate(828.182 -198.529)"/>
            <g id="_-e-icon_07_off" data-name="-e-icon_07_off" transform="translate(103.146 751.068)">
                <path id="사각형_16" data-name="사각형 16" class="cls-3" transform="translate(1057.658 615.99)" d="M0 0h2.011v1.6H0z"/>
                <path id="사각형_17" data-name="사각형 17" class="cls-3" transform="translate(1064.049 615.99)" d="M0 0h2.012v1.6H0z"/>
                <path id="사각형_18" data-name="사각형 18" class="cls-3" transform="translate(1060.854 615.99)" d="M0 0h2.011v1.6H0z"/>
                <path id="사각형_19" data-name="사각형 19" class="cls-3" transform="translate(1054.462 591.58)" d="M0 0h2.015v1.6H0z"/>
                <path id="사각형_20" data-name="사각형 20" class="cls-3" transform="translate(1048.074 591.58)" d="M0 0h2.011v1.6H0z"/>
                <path id="사각형_21" data-name="사각형 21" class="cls-3" transform="translate(1051.267 591.58)" d="M0 0h2.014v1.6H0z"/>
                <path id="사각형_22" data-name="사각형 22" class="cls-3" transform="translate(1060.854 591.58)" d="M0 0h2.011v1.6H0z"/>
                <path id="사각형_23" data-name="사각형 23" class="cls-3" transform="translate(1057.659 591.58)" d="M0 0h2.011v1.6H0z"/>
                <path id="사각형_24" data-name="사각형 24" class="cls-3" transform="translate(1064.049 591.58)" d="M0 0h2.012v1.6H0z"/>
                <path id="사각형_25" data-name="사각형 25" class="cls-3" transform="translate(1066.244 601.482)" d="M0 0h10.402v1.602H0z"/>
                <path id="패스_1191" data-name="패스 1191" class="cls-3" d="M1069.257 593.18h1.12v-1.6h-3.131v1.6h2.011z"/>
                <path id="사각형_26" data-name="사각형 26" class="cls-3" transform="translate(1071.558 591.58)" d="M0 0h2.015v1.6H0z"/>
                <path id="사각형_27" data-name="사각형 27" class="cls-3" transform="translate(1081.146 591.58)" d="M0 0h2.012v1.6H0z"/>
                <path id="사각형_28" data-name="사각형 28" class="cls-3" transform="translate(1087.537 591.58)" d="M0 0h2.011v1.6H0z"/>
                <path id="사각형_29" data-name="사각형 29" class="cls-3" transform="translate(1084.342 591.58)" d="M0 0h2.011v1.6H0z"/>
                <path id="사각형_30" data-name="사각형 30" class="cls-3" transform="translate(1074.754 591.58)" d="M0 0h2.015v1.6H0z"/>
                <path id="사각형_31" data-name="사각형 31" class="cls-3" transform="translate(1077.949 591.58)" d="M0 0h2.011v1.6H0z"/>
                <path id="패스_1192" data-name="패스 1192" class="cls-3" d="M1068.365 596.334h-2.443l.642 1.6h22.983v-1.6h-21.182z"/>
                <path id="사각형_32" data-name="사각형 32" class="cls-3" transform="translate(1079.147 601.482)" d="M0 0h10.402v1.602H0z"/>
                <path id="패스_1193" data-name="패스 1193" class="cls-3" d="M1068.365 615.99h-1.12v1.6h3.131v-1.6h-2.011z"/>
                <path id="사각형_33" data-name="사각형 33" class="cls-3" transform="translate(1084.342 615.99)" d="M0 0h2.011v1.6H0z"/>
                <path id="사각형_34" data-name="사각형 34" class="cls-3" transform="translate(1087.537 615.99)" d="M0 0h2.011v1.6H0z"/>
                <path id="사각형_35" data-name="사각형 35" class="cls-3" transform="translate(1081.144 615.99)" d="M0 0h2.012v1.6H0z"/>
                <path id="사각형_36" data-name="사각형 36" class="cls-3" transform="translate(1071.557 615.99)" d="M0 0h2.015v1.6H0z"/>
                <path id="사각형_37" data-name="사각형 37" class="cls-3" transform="translate(1077.949 615.99)" d="M0 0h2.011v1.6H0z"/>
                <path id="사각형_38" data-name="사각형 38" class="cls-3" transform="translate(1074.754 615.99)" d="M0 0h2.015v1.6H0z"/>
                <path id="패스_1194" data-name="패스 1194" class="cls-3" d="M1068.365 620.743h-13.038l-.482 1.6h34.7v-1.6h-21.182z"/>
                <path id="패스_1195" data-name="패스 1195" class="cls-3" d="M1068.365 627.173h-18.335l-1.957 1.6h41.475v-1.6h-21.182z"/>
                <path id="패스_1196" data-name="패스 1196" class="cls-3" d="m1086.082 566.283-29.559-24.7-29.56 24.7h-25.579v8.9h6.714v9.129q1.223.7 2.382 1.433v-10.56h93.252v69.55h2.383v-69.55h5.546v-8.9zm-29.559-21.612 25.859 21.612h-51.72zm52.755 28.151h-105.512v-4.177h105.512z"/>
                <path id="패스_1197" data-name="패스 1197" class="cls-3" d="M1028.036 645.423h.279a39.286 39.286 0 0 0 6.563-10.737c-.08.006-.159 0-.239.01a39.29 39.29 0 0 1-6.6 10.727"/>
                <path id="패스_1198" data-name="패스 1198" class="cls-3" d="m1048.864 628.517-.021.017.021-.017"/>
                <path id="패스_1199" data-name="패스 1199" class="cls-3" d="M1029.03 643.076c-.062-.038-.121-.08-.182-.121-.632.832-1.3 1.654-2.012 2.468h.284q1.007-1.158 1.911-2.347"/>
                <path id="패스_1200" data-name="패스 1200" class="cls-3" d="M1010.479 587.878v-.253q-1.154-.766-2.382-1.489v.245q1.229.73 2.382 1.5"/>
                <path id="패스_1201" data-name="패스 1201" class="cls-3" d="M1010.479 586.813v-.253q-1.156-.751-2.382-1.458v.247q1.227.711 2.382 1.465"/>
                <path id="패스_1202" data-name="패스 1202" class="cls-3" d="M1049.461 628c-.2.173-.392.348-.6.518.2-.172.4-.341.6-.518"/>
                <path id="패스_1203" data-name="패스 1203" class="cls-3" d="M991.5 666.453c-.157.039-.313.08-.47.117.157-.038.313-.076.47-.117"/>
                <path id="패스_1204" data-name="패스 1204" class="cls-3" d="M1027.834 645.423h.2a39.29 39.29 0 0 0 6.6-10.727l-.144.005a38.961 38.961 0 0 1-6.661 10.722"/>
                <path id="패스_1205" data-name="패스 1205" class="cls-3" d="M1019.265 594.936a54.194 54.194 0 0 0-2.476-2.566 52.675 52.675 0 0 0-6.31-4.9v.152a52.321 52.321 0 0 1 8.786 7.311"/>
                <path id="패스_1206" data-name="패스 1206" class="cls-3" d="M1027.119 645.423h.166q.977-1.129 1.858-2.287c-.036-.02-.076-.037-.113-.06q-.9 1.188-1.911 2.347"/>
                <path id="패스_1207" data-name="패스 1207" class="cls-3" d="M1008.1 585.495v-.146a51.583 51.583 0 0 0-5.884-2.943c-.222-.093-.448-.169-.67-.258a47.594 47.594 0 0 1 5.124 2.547c.485.262.961.529 1.431.8"/>
                <path id="패스_1208" data-name="패스 1208" class="cls-3" d="M1010.479 586.965v-.152q-1.156-.754-2.382-1.466v.148q1.227.714 2.382 1.47"/>
                <path id="패스_1209" data-name="패스 1209" class="cls-3" d="M1010.479 587.624v-.152q-1.154-.764-2.382-1.485v.148q1.229.724 2.382 1.489"/>
                <path id="패스_1210" data-name="패스 1210" class="cls-3" d="M1027.76 645.423h.074a38.99 38.99 0 0 0 6.666-10.723h-.091a39.242 39.242 0 0 1-6.644 10.718"/>
                <path id="패스_1211" data-name="패스 1211" class="cls-3" d="M1016.789 592.371q-.823-.8-1.731-1.61a53.308 53.308 0 0 0-4.579-3.39v.1a52.819 52.819 0 0 1 6.31 4.9"/>
                <path id="패스_1212" data-name="패스 1212" class="cls-3" d="M1027.285 645.423h.111q.957-1.108 1.825-2.248c-.026-.013-.051-.024-.077-.039q-.88 1.16-1.858 2.287"/>
                <path id="패스_1213" data-name="패스 1213" class="cls-3" d="M1034 634.833c-.09.238-.181.475-.279.712-.254.619-.533 1.23-.827 1.839q.68-1.324 1.225-2.671h-.076l-.042.115"/>
                <path id="패스_1214" data-name="패스 1214" class="cls-3" d="M1008.1 585.495c-.47-.273-.945-.539-1.431-.8.488.281.963.568 1.431.858z"/>
                <path id="패스_1215" data-name="패스 1215" class="cls-3" d="M991.029 666.569c-.186.047-.372.089-.559.134.186-.043.371-.089.559-.134"/>
                <path id="패스_1216" data-name="패스 1216" class="cls-3" d="M1009.1 586.19c.469.289.928.579 1.38.876v-.1q-1.154-.755-2.382-1.47v.057c.338.211.673.423 1 .638"/>
                <path id="패스_1217" data-name="패스 1217" class="cls-3" d="M1008.1 585.552v.041l1 .6a47.73 47.73 0 0 0-1-.638"/>
                <path id="패스_1218" data-name="패스 1218" class="cls-3" d="M1010.479 587.473v-.1q-1.154-.762-2.382-1.481v.1q1.229.722 2.382 1.485"/>
                <path id="패스_1219" data-name="패스 1219" class="cls-3" d="M1027.4 645.423h.226q.9-1.074 1.719-2.183c-.04-.022-.082-.041-.121-.065q-.865 1.139-1.825 2.248"/>
                <path id="패스_1220" data-name="패스 1220" class="cls-3" d="m1032.9 637.386-.035.071c-.053.11-.1.219-.159.326q-.168.334-.343.669c-.117.22-.238.441-.36.658-.063.113-.121.227-.185.34-.439.771-.917 1.53-1.418 2.28-.34.509-.691 1.011-1.059 1.51a44.058 44.058 0 0 1-1.718 2.183h.139a39.28 39.28 0 0 0 6.644-10.718c-.094 0-.187.005-.281.01q-.543 1.345-1.225 2.671"/>
                <path id="패스_1221" data-name="패스 1221" class="cls-3" d="M1010.479 587.129v.241a53.316 53.316 0 0 1 4.579 3.391 51.846 51.846 0 0 0-4.579-3.632"/>
                <path id="패스_1222" data-name="패스 1222" class="cls-3" d="M1010.479 587.066c-.453-.3-.912-.587-1.38-.876.471.311.93.624 1.38.939z"/>
                <path id="패스_1223" data-name="패스 1223" class="cls-3" d="M1010.479 587.371v-.241c-.451-.316-.909-.63-1.38-.94-.33-.2-.665-.4-1-.6v.3q1.229.72 2.382 1.481"/>
                <path id="패스_1224" data-name="패스 1224" class="cls-3" d="M1028.377 642.61c-.032-.027-.068-.05-.1-.076a46.46 46.46 0 0 1-2.39 2.89h.172a46.91 46.91 0 0 0 2.319-2.813"/>
                <path id="패스_1225" data-name="패스 1225" class="cls-3" d="M1010.479 588.688v-.152q-1.152-.777-2.382-1.517v.148q1.231.739 2.382 1.521"/>
                <path id="패스_1226" data-name="패스 1226" class="cls-3" d="M1008.1 584.462c.817.465 1.613.944 2.382 1.438v-.153q-1.158-.737-2.382-1.433z"/>
                <path id="패스_1227" data-name="패스 1227" class="cls-3" d="m1035.023 634.675-.145.011a39.288 39.288 0 0 1-6.565 10.736h.168a39.336 39.336 0 0 0 6.542-10.747"/>
                <path id="패스_1228" data-name="패스 1228" class="cls-3" d="M1026.7 645.423h.136q1.069-1.221 2.014-2.467c-.032-.02-.06-.047-.09-.068a46.43 46.43 0 0 1-2.06 2.534"/>
                <path id="패스_1229" data-name="패스 1229" class="cls-3" d="M1028.832 610.13c.231.278.43.509.6.7l.05-.138c-.261-.3-.583-.676-.939-1.125z"/>
                <path id="패스_1230" data-name="패스 1230" class="cls-3" d="M1033.2 635.539h-.044.044"/>
                <path id="패스_1231" data-name="패스 1231" class="cls-3" d="M1010.479 586.56v-.153q-1.156-.747-2.382-1.453v.148q1.227.709 2.382 1.458"/>
                <path id="패스_1232" data-name="패스 1232" class="cls-3" d="M1010.479 588.031v-.153q-1.154-.768-2.382-1.5v.148q1.229.732 2.382 1.5"/>
                <path id="패스_1233" data-name="패스 1233" class="cls-3" d="M1026.059 645.423h.116c.81-.907 1.559-1.83 2.272-2.764l-.068-.05a47.295 47.295 0 0 1-2.319 2.813"/>
                <path id="패스_1234" data-name="패스 1234" class="cls-3" d="M1010.479 586v-.1q-1.156-.741-2.382-1.438v.1q1.225.7 2.382 1.44"/>
                <path id="패스_1235" data-name="패스 1235" class="cls-3" d="M1010.479 588.536v-.1q-1.152-.777-2.382-1.514v.1q1.229.737 2.382 1.516"/>
                <path id="패스_1236" data-name="패스 1236" class="cls-3" d="M1028.483 645.423h.112a39.329 39.329 0 0 0 6.513-10.735l.01-.024c-.032 0-.063.009-.094.011a39.39 39.39 0 0 1-6.542 10.747"/>
                <path id="패스_1237" data-name="패스 1237" class="cls-3" d="m1033.07 635.532.09.005-.09-.006z"/>
                <path id="패스_1238" data-name="패스 1238" class="cls-3" d="M1026.558 645.423h.14a45.679 45.679 0 0 0 2.06-2.534c-.028-.019-.054-.039-.081-.059a46.475 46.475 0 0 1-2.119 2.593"/>
                <path id="패스_1239" data-name="패스 1239" class="cls-3" d="m1029.4 610.921.033-.092c-.167-.19-.367-.422-.6-.7l.176.341c.149.176.275.321.388.45"/>
                <path id="패스_1240" data-name="패스 1240" class="cls-3" d="M1010.479 588.132v-.1q-1.154-.772-2.382-1.5v.1q1.229.734 2.382 1.505"/>
                <path id="패스_1241" data-name="패스 1241" class="cls-3" d="M1010.479 586.407v-.1q-1.156-.747-2.382-1.451v.1q1.225.707 2.382 1.453"/>
                <path id="패스_1242" data-name="패스 1242" class="cls-3" d="M1029.347 611.057c-.027-.029-.059-.068-.086-.1l.071.14z"/>
                <path id="패스_1243" data-name="패스 1243" class="cls-3" d="M1026.175 645.423h.207a45.94 45.94 0 0 0 2.188-2.673c-.041-.029-.082-.06-.122-.09a47.098 47.098 0 0 1-2.273 2.764"/>
                <path id="패스_1244" data-name="패스 1244" class="cls-3" d="M1010.479 586.153V586q-1.156-.741-2.382-1.44v.148q1.225.7 2.382 1.445"/>
                <path id="패스_1245" data-name="패스 1245" class="cls-3" d="M1010.479 588.435v-.152q-1.152-.774-2.382-1.509v.148q1.229.735 2.382 1.513"/>
                <path id="패스_1246" data-name="패스 1246" class="cls-3" d="M1026.382 645.423h.177a46.475 46.475 0 0 0 2.119-2.593l-.108-.08c-.688.9-1.413 1.8-2.188 2.673"/>
                <path id="패스_1247" data-name="패스 1247" class="cls-3" d="m1029.347 611.057.049-.136a43.838 43.838 0 0 1-.388-.45l.253.487.086.1"/>
                <path id="패스_1248" data-name="패스 1248" class="cls-3" d="M1033.07 635.532h-.055l.055.005"/>
                <path id="패스_1249" data-name="패스 1249" class="cls-3" d="M1010.479 586.306v-.153q-1.156-.745-2.382-1.445v.148q1.225.7 2.382 1.451"/>
                <path id="패스_1250" data-name="패스 1250" class="cls-3" d="M1008.1 586.775q1.231.735 2.382 1.509v-.153q-1.154-.774-2.382-1.5z"/>
                <path id="패스_1251" data-name="패스 1251" class="cls-3" d="M1113.855 647.833v-2.411h-56.073l.035-.115c1-3.3 1.987-6.391-.181-7.6a5.485 5.485 0 0 0-5.458.279c-2.688 1.5-4.879 6.136-5.719 8.629v.006a4.787 4.787 0 0 0-4.17-1.513 5.036 5.036 0 0 0-1.067.317h-15.336a51.454 51.454 0 0 1-2.326 2.411 65.818 65.818 0 0 1-12.552 9.471h2.011a78.062 78.062 0 0 1-21.52 9.149 79.76 79.76 0 0 0 7.406-2.216 76.789 76.789 0 0 0 14.614-6.933h.641c.042 0 .073.024.114.028a1.159 1.159 0 0 0-.669.106 1.217 1.217 0 0 0-.613.714 1.193 1.193 0 0 0 .085.926 1.206 1.206 0 0 0 .718.6c.681.2 16.706 4.8 27.076-6.305a1.207 1.207 0 0 0 .309-1.019c-.128-.79-.318-3.286.488-4.343a1.67 1.67 0 0 1 .877-.7 1.4 1.4 0 0 1 1.306.127 2.435 2.435 0 0 1 .385.33 1.782 1.782 0 0 1 .455.623 2.167 2.167 0 0 0 2.344 1.233 2.115 2.115 0 0 0 1.754-1.788 1.509 1.509 0 0 0 .038-.152 8.707 8.707 0 0 1 .642-2.259c.783-1.94 2.223-4.338 4-5.33a2.635 2.635 0 0 1 3-.155c.616.572.051 1.191-.99 4.633l-.257.852c-.274.921-.487 1.717-.618 2.411a3.651 3.651 0 0 0 .2 2.643c1.771 2.808 1.425 7.049-.949 11.636-1.859 3.591-7.52 14.522-28.389 14.522a62.38 62.38 0 0 1-3.5-.1 1.305 1.305 0 0 0-.871.312l-.01.014a1.546 1.546 0 0 0-.249-.1l-.018-.1-.4.08c-.04.005-.078-.006-.119 0s-.066.031-.1.042l-.044.009v.009a1.162 1.162 0 0 0-.263.11 1.214 1.214 0 0 0-.568 1.3 139.251 139.251 0 0 1 2.243 15.2h2.522a142.639 142.639 0 0 0-2.069-14.454c1.214.064 2.421.1 3.582.1h.008c14.95 0 24.9-5.183 30.425-15.845 2.778-5.365 3.085-10.479.846-14.029a3.856 3.856 0 0 1 .211-1.355zm-94.526 5.083q-1.476 1.158-3.045 2.249 1.566-1.093 3.045-2.249m19.36-.787c-8.256 8.371-20.092 6.242-23.333 5.455h.005a62.548 62.548 0 0 0 11.727-9.746h11.966a10.571 10.571 0 0 0-.365 4.3"/>
                <path id="패스_1252" data-name="패스 1252" class="cls-3" d="M1022.054 616.612c-.88-2.757-3.321-4.437-5.451-3.751s-3.144 3.475-2.263 6.234 3.321 4.438 5.451 3.752 3.144-3.478 2.263-6.235m-2.708.649a1.212 1.212 0 0 1-1.46-.888 1.235 1.235 0 0 1 .618-1.61 1.212 1.212 0 0 1 1.46.888 1.237 1.237 0 0 1-.618 1.61"/>
                <path id="패스_1253" data-name="패스 1253" class="cls-3" d="M1011.548 606.089a.682.682 0 0 0 .381-.293 3.765 3.765 0 0 1 1.958-1.494 3.929 3.929 0 0 1 1.355-.243 5.34 5.34 0 0 1 1.3.183.679.679 0 0 0 .541-.094.807.807 0 0 0 .334-.583 1.006 1.006 0 0 0-.695-1.1 5.591 5.591 0 0 0-3.436.093 5.132 5.132 0 0 0-2.66 2.064 1.027 1.027 0 0 0 .22 1.291.743.743 0 0 0 .7.172"/>
                <path id="패스_1254" data-name="패스 1254" class="cls-3" d="M1010.518 604.558a5.255 5.255 0 0 1 2.722-2.115 5.742 5.742 0 0 1 3.512-.1 1.133 1.133 0 0 1 .79 1.233.847.847 0 0 1-1.032.787 4.141 4.141 0 0 0-2.577.055 3.648 3.648 0 0 0-1.894 1.442.819.819 0 0 1-.452.35.882.882 0 0 1-.826-.2 1.115 1.115 0 0 1-.283-.4v.247a1.148 1.148 0 0 0 .2.25 1.032 1.032 0 0 0 .677.261.97.97 0 0 0 .265-.037.96.96 0 0 0 .526-.4 3.519 3.519 0 0 1 1.827-1.392 4.042 4.042 0 0 1 2.505-.051.937.937 0 0 0 .746-.13 1.063 1.063 0 0 0 .442-.764 1.266 1.266 0 0 0-.883-1.373 5.89 5.89 0 0 0-3.587.1 5.389 5.389 0 0 0-2.72 2.077v.26a.5.5 0 0 1 .04-.1"/>
                <path id="패스_1255" data-name="패스 1255" class="cls-3" d="M1010.479 605.86v-.247a1.116 1.116 0 0 1 0-.951v-.262c-.022.032-.049.057-.069.09a1.256 1.256 0 0 0 .069 1.369"/>
                <path id="패스_1256" data-name="패스 1256" class="cls-3" d="M1011.587 606.211a.823.823 0 0 0 .452-.349 3.643 3.643 0 0 1 1.894-1.443 4.141 4.141 0 0 1 2.577-.055.846.846 0 0 0 1.032-.786 1.134 1.134 0 0 0-.79-1.234 5.751 5.751 0 0 0-3.512.1 5.261 5.261 0 0 0-2.722 2.115.529.529 0 0 0-.04.1v.951a1.119 1.119 0 0 0 .283.4.876.876 0 0 0 .826.2m-.961-1.586a5.125 5.125 0 0 1 2.658-2.063 5.576 5.576 0 0 1 3.438-.093 1 1 0 0 1 .695 1.094.8.8 0 0 1-.335.583.678.678 0 0 1-.541.094 5.322 5.322 0 0 0-1.3-.182 3.921 3.921 0 0 0-1.355.242 3.766 3.766 0 0 0-1.958 1.494.686.686 0 0 1-.381.293.745.745 0 0 1-.7-.171 1.029 1.029 0 0 1-.22-1.293"/>
                <path id="패스_1257" data-name="패스 1257" class="cls-3" d="M1010.479 605.613v-.951a1.116 1.116 0 0 0 0 .951"/>
                <path id="패스_1258" data-name="패스 1258" d="M1019.965 615.652a1.212 1.212 0 0 0-1.461-.888 1.233 1.233 0 0 0-.616 1.608 1.212 1.212 0 0 0 1.46.889 1.237 1.237 0 0 0 .618-1.61" style="fill:#f7f8f8"/>
                <path id="패스_1259" data-name="패스 1259" class="cls-3" d="m1040.2 632.759.026-.009-.04.011h.014"/>
                <path id="패스_1260" data-name="패스 1260" class="cls-3" d="M1039.608 633.227c-.077.018-.158.029-.235.047l.235-.047"/>
                <path id="패스_1261" data-name="패스 1261" class="cls-3" d="M1043.242 630.927a1.973 1.973 0 0 1-.093.18c.32-.135.628-.28.932-.427.013-.052.023-.1.032-.155-.285.138-.574.274-.872.4"/>
                <path id="패스_1262" data-name="패스 1262" class="cls-3" d="M1038.615 632.907a35.54 35.54 0 0 0 1.158-.288c-.553.125-1.121.233-1.708.317.184-.009.37-.017.55-.029"/>
                <path id="패스_1263" data-name="패스 1263" class="cls-3" d="M1039.421 632.845c.113-.028.229-.064.343-.093-.166.037-.331.075-.5.11.055 0 .1-.011.158-.017"/>
                <path id="패스_1264" data-name="패스 1264" class="cls-3" d="M1034.932 634.557c-.081.006-.162.008-.241.013a6.757 6.757 0 0 0-.053.126c.081-.006.161 0 .24-.009.01-.025.023-.051.032-.075z"/>
                <path id="패스_1265" data-name="패스 1265" class="cls-3" d="m1034.5 634.7.143-.005c.017-.042.035-.084.051-.127l-.144.009-.05.124"/>
                <path id="패스_1266" data-name="패스 1266" class="cls-3" d="M1034.048 634.719h.074l.047-.118-.078.005c-.017.038-.03.078-.044.116"/>
                <path id="패스_1267" data-name="패스 1267" class="cls-3" d="M1034.4 634.705h.091c.017-.041.035-.082.05-.124l-.093.005-.049.122"/>
                <path id="패스_1268" data-name="패스 1268" class="cls-3" d="M1034.123 634.717c.094-.005.188-.006.281-.011.016-.041.032-.082.049-.121l-.283.014c-.017.039-.031.079-.047.118"/>
                <path id="패스_1269" data-name="패스 1269" class="cls-3" d="M1044.256 630.458c-.008.052-.021.1-.031.155.047-.023.1-.043.144-.068.01-.055.027-.108.032-.163l-.145.075"/>
                <path id="패스_1270" data-name="패스 1270" class="cls-3" d="M1034.91 634.611c-.01.027-.023.05-.032.076l.145-.011.006-.017.044-.113a2.226 2.226 0 0 1-.141.01z"/>
                <path id="패스_1271" data-name="패스 1271" class="cls-3" d="M1044.224 630.613a1.47 1.47 0 0 1-.021.1c.047-.023.1-.043.145-.066.006-.034.014-.068.019-.1-.046.024-.1.043-.144.068"/>
                <path id="패스_1272" data-name="패스 1272" class="cls-3" d="M1044.2 630.715c-.013.052-.018.107-.033.158.047-.024.1-.043.146-.068.014-.052.021-.1.031-.157-.047.023-.1.043-.144.066"/>
                <path id="패스_1273" data-name="패스 1273" class="cls-3" d="M1044.17 630.873c-.019.059-.05.115-.073.173.057-.028.115-.052.172-.08.018-.054.033-.107.048-.161-.049.024-.1.043-.146.068"/>
                <path id="패스_1274" data-name="패스 1274" class="cls-3" d="m1035.14 634.61-.023.055c.261-.022.523-.061.785-.09-.226.009-.446.031-.675.034z"/>
                <path id="패스_1275" data-name="패스 1275" class="cls-3" d="M1044.112 630.524a3.86 3.86 0 0 1-.031.155c.047-.023.1-.043.143-.066.011-.052.023-.1.031-.155-.046.023-.095.042-.143.066"/>
                <path id="패스_1276" data-name="패스 1276" class="cls-3" d="M1044.082 630.68c-.008.033-.01.069-.021.1.047-.023.1-.043.144-.066.008-.033.013-.068.019-.1-.046.023-.1.042-.143.066"/>
                <path id="패스_1277" data-name="패스 1277" class="cls-3" d="M1044.061 630.781c-.017.059-.041.113-.062.171.057-.027.114-.051.171-.079.017-.051.022-.106.033-.158-.046.023-.1.043-.143.066"/>
                <path id="패스_1278" data-name="패스 1278" class="cls-3" d="M1044 630.952a2.956 2.956 0 0 1-.076.174l.172-.08c.024-.059.054-.115.074-.173-.058.028-.115.052-.171.079"/>
                <path id="패스_1279" data-name="패스 1279" class="cls-3" d="M1040.2 632.759h-.014q-1.138.315-2.218.535c.272-.037.533-.09.8-.138a15.779 15.779 0 0 0 1.337-.367l.1-.033"/>
                <path id="패스_1280" data-name="패스 1280" class="cls-3" d="M1036.785 633.522c.762-.1 1.428-.232 1.983-.362-.265.046-.525.1-.8.136-.4.08-.8.163-1.185.225"/>
                <path id="패스_1281" data-name="패스 1281" class="cls-3" d="M1037.636 633.118c.556-.069 1.1-.153 1.627-.257-.211.019-.432.029-.648.046a30.33 30.33 0 0 1-.979.211"/>
                <path id="패스_1282" data-name="패스 1282" class="cls-2" d="M1031.581 635.412a21.492 21.492 0 0 1-.839-.111c-.161-.023-.322-.052-.484-.08q-.412-.073-.833-.167c-.164-.037-.329-.073-.493-.113-.3-.074-.6-.158-.909-.248-.146-.043-.29-.082-.438-.129-.451-.144-.9-.3-1.362-.485a11.3 11.3 0 0 0 1.287 4.737 16.1 16.1 0 0 1 3.986-1.19c.386-.7.752-1.414 1.077-2.125a16.817 16.817 0 0 1-.573-.042c-.137-.014-.28-.032-.419-.047"/>
                <path id="패스_1283" data-name="패스 1283" class="cls-2" d="M1032.326 637.523c.093-.01.182-.024.277-.033.338-.644.655-1.293.941-1.946h-.249c-.3.664-.623 1.323-.97 1.982"/>
                <path id="패스_1284" data-name="패스 1284" class="cls-2" d="M1032.6 637.489c.051-.005.1-.014.154-.019.331-.638.643-1.28.927-1.923h-.141c-.286.652-.6 1.3-.94 1.945"/>
                <path id="패스_1285" data-name="패스 1285" class="cls-2" d="M1033.685 635.547c-.284.644-.6 1.286-.928 1.924.036 0 .067-.01.1-.013l.039-.073c.294-.607.573-1.22.827-1.839z"/>
                <path id="패스_1286" data-name="패스 1286" class="cls-2" d="M1032.863 637.457c.013-.024.024-.047.035-.071l-.037.073"/>
                <path id="패스_1287" data-name="패스 1287" class="cls-2" d="M1031.494 637.627c.049-.008.1-.011.153-.02.38-.7.738-1.395 1.059-2.1l-.134-.008a32.4 32.4 0 0 1-1.079 2.125"/>
                <path id="패스_1288" data-name="패스 1288" class="cls-2" d="M1033.16 635.537a31.63 31.63 0 0 1-.985 2l.151-.018a33.78 33.78 0 0 0 .968-1.982h-.135"/>
                <path id="패스_1289" data-name="패스 1289" class="cls-2" d="M1031.647 637.606c.032-.005.071-.008.1-.013.375-.69.729-1.383 1.048-2.08l-.091-.005c-.321.7-.679 1.4-1.059 2.1"/>
                <path id="패스_1290" data-name="패스 1290" class="cls-2" d="m1032.068 637.555.107-.014c.351-.664.684-1.332.985-2l-.091-.005c-.3.676-.642 1.351-1 2.024"/>
                <path id="패스_1291" data-name="패스 1291" class="cls-2" d="M1031.75 637.594c.053-.008.109-.013.162-.02.365-.68.71-1.363 1.021-2.052-.045 0-.09-.005-.136-.008-.317.7-.672 1.389-1.047 2.08"/>
                <path id="패스_1292" data-name="패스 1292" class="cls-2" d="M1032.932 635.521a33.454 33.454 0 0 1-1.021 2.052c.051-.008.105-.011.157-.018.358-.674.7-1.347 1-2.024l-.055-.005-.081-.005"/>
                <path id="패스_1293" data-name="패스 1293" class="cls-3" d="M1028.849 642.955c.062.039.121.081.182.121.379-.5.747-1 1.1-1.509-.064-.038-.127-.075-.186-.115-.351.5-.717 1-1.1 1.5"/>
                <path id="패스_1294" data-name="패스 1294" class="cls-3" d="m1033.6 634.812-.3.728h.249c.105-.238.2-.478.3-.716-.081 0-.164-.01-.247-.015"/>
                <path id="패스_1295" data-name="패스 1295" class="cls-3" d="M1033.546 635.543h.14l.3-.713h-.137l-.3.716"/>
                <path id="패스_1296" data-name="패스 1296" class="cls-3" d="M1029.03 643.076c.036.023.077.038.113.06q.568-.747 1.094-1.5c-.037-.02-.071-.045-.108-.066q-.528.76-1.1 1.509"/>
                <path id="패스_1297" data-name="패스 1297" class="cls-3" d="M1033.686 635.544h.04c.1-.237.189-.474.279-.712h-.021c-.1.238-.194.476-.3.713"/>
                <path id="패스_1298" data-name="패스 1298" class="cls-3" d="M1029.143 643.136a.928.928 0 0 0 .077.039q.566-.743 1.09-1.5c-.024-.013-.048-.029-.072-.043q-.528.757-1.1 1.5"/>
                <path id="패스_1299" data-name="패스 1299" class="cls-3" d="M1029.22 643.175c.039.024.081.042.121.065.367-.5.718-1 1.058-1.51-.031-.015-.058-.036-.087-.053-.351.5-.714 1-1.092 1.5"/>
                <path id="패스_1300" data-name="패스 1300" class="cls-3" d="M1028.276 642.534c.033.027.069.05.1.076q.565-.737 1.086-1.481c-.035-.025-.063-.055-.1-.08-.349.5-.714.992-1.092 1.485"/>
                <path id="패스_1301" data-name="패스 1301" class="cls-3" d="M1032.909 634.764h-.026c-.105.245-.2.492-.31.735l.135.01c.112-.247.208-.5.312-.744H1032.908"/>
                <path id="패스_1302" data-name="패스 1302" class="cls-3" d="M1029.943 641.454c-.032-.022-.068-.039-.1-.061q-.522.755-1.086 1.5c.031.022.059.047.09.068.379-.5.746-1 1.1-1.5"/>
                <path id="패스_1303" data-name="패스 1303" class="cls-3" d="M1033.16 635.537h.137c.108-.242.205-.487.306-.728-.044 0-.09-.008-.134-.011-.1.245-.2.492-.308.736"/>
                <path id="패스_1304" data-name="패스 1304" class="cls-3" d="m1032.708 635.508.09.006c.112-.247.207-.5.311-.742l-.089-.008c-.1.247-.2.5-.312.744"/>
                <path id="패스_1305" data-name="패스 1305" class="cls-3" d="m1028.377 642.61.069.05c.374-.489.736-.979 1.081-1.475-.023-.017-.042-.037-.064-.055-.347.5-.71.988-1.086 1.48"/>
                <path id="패스_1306" data-name="패스 1306" class="cls-3" d="m1028.678 642.83.08.059c.375-.5.74-.993 1.086-1.5-.026-.018-.057-.032-.082-.051q-.52.749-1.084 1.489"/>
                <path id="패스_1307" data-name="패스 1307" class="cls-3" d="m1033.07 635.53.09.006c.109-.244.206-.492.31-.736-.031 0-.06-.005-.09-.008-.1.246-.2.493-.309.737"/>
                <path id="패스_1308" data-name="패스 1308" class="cls-3" d="m1032.8 635.514.134.009c.11-.247.208-.494.312-.74l-.135-.011c-.1.247-.2.5-.311.742"/>
                <path id="패스_1309" data-name="패스 1309" class="cls-3" d="M1028.447 642.66c.04.029.081.061.123.09a42.47 42.47 0 0 0 1.083-1.475c-.042-.029-.083-.06-.123-.09q-.52.741-1.083 1.475"/>
                <path id="패스_1310" data-name="패스 1310" class="cls-3" d="M1029.654 641.275c-.345.5-.713.986-1.084 1.475l.108.08q.562-.741 1.084-1.489l-.014-.008c-.03-.022-.066-.037-.094-.059"/>
                <path id="패스_1311" data-name="패스 1311" class="cls-3" d="m1032.932 635.521.081.005h.055c.11-.246.208-.492.311-.737-.046 0-.092-.008-.136-.011-.1.246-.2.494-.311.74"/>
                <path id="패스_1312" data-name="패스 1312" class="cls-3" d="M1040.621 632.613c-.036.011-.073.025-.108.038 0 0-.116.042-.284.1.24-.066.469-.115.713-.188.03-.009.06-.023.09-.032a1.9 1.9 0 0 0-.411.083"/>
                <path id="패스_1313" data-name="패스 1313" class="cls-3" d="M1032.909 634.764h.076l-.1-.009v.01h.026"/>
                <path id="패스_1314" data-name="패스 1314" class="cls-3" d="m1033.6 634.812.247.015c.016-.034.028-.069.042-.1-.086 0-.171.008-.257.009-.009.027-.022.052-.032.078"/>
                <path id="패스_1315" data-name="패스 1315" class="cls-3" d="M1033.848 634.826c.046 0 .09 0 .136.006l.046-.112-.141.005c-.014.033-.026.069-.041.1"/>
                <path id="패스_1316" data-name="패스 1316" class="cls-3" d="M1033.985 634.831h.021l.042-.115h-.018z"/>
                <path id="패스_1317" data-name="패스 1317" class="cls-3" d="M1033.021 634.764v-.005h-.037.036"/>
                <path id="패스_1318" data-name="패스 1318" class="cls-3" d="m1033.494 634.741-.026.06c.045 0 .09.009.134.011.01-.025.023-.051.032-.078l-.14.006"/>
                <path id="패스_1319" data-name="패스 1319" class="cls-3" d="m1033.021 634.764.089.008.008-.017h-.1v.005"/>
                <path id="패스_1320" data-name="패스 1320" class="cls-3" d="M1033.379 634.793c.028 0 .059.006.089.008l.026-.06h-.094l-.021.048"/>
                <path id="패스_1321" data-name="패스 1321" class="cls-3" d="m1033.11 634.77.134.011c0-.011.009-.022.014-.033-.047 0-.094.006-.14.006l-.008.015"/>
                <path id="패스_1322" data-name="패스 1322" class="cls-3" d="M1033.243 634.782c.044 0 .09.009.135.011l.021-.048c-.047 0-.1 0-.141.005a.251.251 0 0 0-.014.032"/>
                <path id="패스_1323" data-name="패스 1323" class="cls-3" d="M1040.1 632.794c-.3.1-.76.233-1.337.367a21.662 21.662 0 0 0 2.186-.48c-.239.032-.5.052-.752.08l-.1.033"/>
                <path id="패스_1324" data-name="패스 1324" class="cls-3" d="M1039.748 633.192c-.047.01-.092.024-.14.033l.14-.033"/>
                <path id="패스_1325" data-name="패스 1325" class="cls-3" d="M1031.151 634.573c.589.074 1.167.132 1.738.18l.053-.123c-.613 0-1.212-.017-1.79-.056"/>
                <path id="패스_1326" data-name="패스 1326" class="cls-3" d="M1033.89 634.724c.014-.037.028-.076.044-.115-.083 0-.172.013-.254.015l-.046.109.257-.01"/>
                <path id="패스_1327" data-name="패스 1327" class="cls-3" d="m1033.89 634.724.139-.005.049-.117c-.049 0-.1.006-.144.008l-.044.115"/>
                <path id="패스_1328" data-name="패스 1328" class="cls-3" d="M1034.03 634.72h.018c.014-.038.028-.078.044-.116h-.016c-.017.038-.031.079-.046.117"/>
                <path id="패스_1329" data-name="패스 1329" class="cls-3" d="m1032.887 634.752.1.009h.037c.019-.043.039-.087.055-.131h-.136z"/>
                <path id="패스_1330" data-name="패스 1330" class="cls-3" d="m1033.494 634.741.14-.006.047-.109h-.14c-.017.037-.031.075-.047.113"/>
                <path id="패스_1331" data-name="패스 1331" class="cls-3" d="M1033.022 634.759h.1l.052-.127h-.092a3.967 3.967 0 0 1-.055.131"/>
                <path id="패스_1332" data-name="패스 1332" class="cls-3" d="M1033.4 634.745h.094c.017-.038.032-.075.047-.113h-.092c-.017.038-.032.078-.049.117"/>
                <path id="패스_1333" data-name="패스 1333" class="cls-3" d="M1033.117 634.755c.046 0 .092-.005.14-.005.017-.041.035-.08.05-.122h-.137z"/>
                <path id="패스_1334" data-name="패스 1334" class="cls-3" d="M1033.257 634.75c.046 0 .094-.005.141-.005l.049-.117h-.14a15.28 15.28 0 0 1-.05.122"/>
                <path id="패스_1335" data-name="패스 1335" class="cls-3" d="M1032.573 635.5c-.19-.013-.379-.022-.574-.038.194.017.384.029.573.042"/>
                <path id="패스_1336" data-name="패스 1336" class="cls-3" d="M1030.742 635.3"/>
                <path id="패스_1337" data-name="패스 1337" class="cls-3" d="M1028.023 634.691"/>
                <path id="패스_1338" data-name="패스 1338" class="cls-3" d="M1029.425 635.053q.422.094.832.167c-.273-.048-.552-.1-.832-.167"/>
                <path id="패스_1339" data-name="패스 1339" class="cls-3" d="M1033.3 635.542h.249-.249z"/>
                <path id="패스_1340" data-name="패스 1340" class="cls-3" d="M1033.546 635.543h.14-.14"/>
                <path id="패스_1341" data-name="패스 1341" class="cls-3" d="M1033.685 635.547h.04-.04"/>
                <path id="패스_1342" data-name="패스 1342" class="cls-3" d="m1032.573 635.5.134.008-.134-.01"/>
                <path id="패스_1343" data-name="패스 1343" class="cls-3" d="M1033.3 635.542h-.091.091"/>
                <path id="패스_1344" data-name="패스 1344" class="cls-3" d="m1032.708 635.509.09.006-.09-.006"/>
                <path id="패스_1345" data-name="패스 1345" class="cls-3" d="M1032.8 635.515c.045 0 .09.006.135.008l-.134-.009"/>
                <path id="패스_1346" data-name="패스 1346" class="cls-3" d="m1033.015 635.527-.081-.005.081.005"/>
                <path id="패스_1347" data-name="패스 1347" class="cls-2" d="M1028.745 640.3a5.581 5.581 0 0 0 .643.718c.3-.429.575-.863.854-1.3-.944.214-1.528.446-1.5.579"/>
                <path id="패스_1348" data-name="패스 1348" class="cls-2" d="M1029.943 641.454c.06.038.123.076.188.115q.713-1.026 1.343-2.071c-.1.015-.2.028-.3.045-.393.641-.8 1.279-1.235 1.911"/>
                <path id="패스_1349" data-name="패스 1349" class="cls-2" d="M1030.13 641.567c.036.022.071.045.108.066.5-.713.959-1.433 1.4-2.159l-.161.022q-.632 1.045-1.344 2.071"/>
                <path id="패스_1350" data-name="패스 1350" class="cls-2" d="M1030.238 641.633c.026.014.047.029.073.043q.761-1.1 1.431-2.216l-.107.015c-.438.725-.9 1.444-1.4 2.157"/>
                <path id="패스_1351" data-name="패스 1351" class="cls-2" d="M1030.31 641.676c.03.018.056.037.087.053.5-.75.98-1.51 1.419-2.28l-.076.01q-.668 1.117-1.431 2.216"/>
                <path id="패스_1352" data-name="패스 1352" class="cls-2" d="M1029.388 641.023c.03.029.058.059.09.088.331-.473.636-.95.94-1.428-.065.014-.114.028-.176.041-.279.434-.555.869-.854 1.3"/>
                <path id="패스_1353" data-name="패스 1353" class="cls-2" d="M1029.844 641.392c.031.022.067.039.1.061.439-.633.842-1.271 1.235-1.911-.058.01-.105.02-.161.029a39.786 39.786 0 0 1-1.174 1.821"/>
                <path id="패스_1354" data-name="패스 1354" class="cls-2" d="M1029.478 641.111c.021.019.045.036.066.055.348-.5.668-1 .986-1.5-.035.008-.078.014-.113.022-.3.478-.607.955-.939 1.428"/>
                <path id="패스_1355" data-name="패스 1355" class="cls-2" d="M1030.894 639.594a37.326 37.326 0 0 1-1.134 1.747c.027.019.057.033.083.051.416-.6.8-1.21 1.174-1.821l-.123.023"/>
                <path id="패스_1356" data-name="패스 1356" class="cls-2" d="M1029.543 641.166c.037.032.08.065.12.1.375-.54.717-1.088 1.059-1.636-.063.013-.132.024-.191.036-.318.5-.64 1-.988 1.5"/>
                <path id="패스_1357" data-name="패스 1357" class="cls-2" d="M1029.662 641.263c.027.024.057.047.085.071l.014.008c.4-.579.773-1.163 1.134-1.749l-.173.033c-.342.549-.684 1.1-1.059 1.636"/>
                <path id="패스_1358" data-name="패스 1358" class="cls-3" d="M1027.656 639.09a15.294 15.294 0 0 1 3.659-1.121c.063-.113.117-.229.18-.343a16.082 16.082 0 0 0-3.985 1.188c.05.09.091.185.146.275"/>
                <path id="패스_1359" data-name="패스 1359" class="cls-3" d="m1032.156 637.848.276-.032.172-.326c-.1.009-.185.023-.277.033-.058.11-.112.217-.171.325"/>
                <path id="패스_1360" data-name="패스 1360" class="cls-3" d="m1032.432 637.816.154-.019.172-.326c-.054 0-.1.013-.154.018l-.172.327"/>
                <path id="패스_1361" data-name="패스 1361" class="cls-3" d="m1032.687 637.786.173-.327c-.037 0-.068.009-.1.013-.057.11-.114.219-.172.327l.1-.013"/>
                <path id="패스_1362" data-name="패스 1362" class="cls-3" d="M1032.687 637.786h.017c.055-.108.107-.218.159-.327l-.173.327"/>
                <path id="패스_1363" data-name="패스 1363" class="cls-3" d="M1031.314 637.969c.055-.01.1-.023.161-.032.06-.11.113-.22.173-.331-.049.009-.1.013-.153.019-.063.115-.117.231-.181.344"/>
                <path id="패스_1364" data-name="패스 1364" class="cls-3" d="M1032.006 637.867c.049-.008.1-.013.149-.019.059-.108.113-.216.171-.326l-.15.019c-.058.108-.11.218-.17.326"/>
                <path id="패스_1365" data-name="패스 1365" class="cls-3" d="M1031.475 637.937c.036-.006.069-.014.105-.019.06-.108.112-.216.171-.325-.033.005-.071.008-.1.013-.06.111-.113.222-.173.331"/>
                <path id="패스_1366" data-name="패스 1366" class="cls-3" d="m1031.9 637.88.105-.013c.059-.108.112-.218.17-.326l-.107.014c-.058.108-.109.216-.168.325"/>
                <path id="패스_1367" data-name="패스 1367" class="cls-3" d="M1031.58 637.918c.051-.009.11-.013.162-.02.06-.108.113-.216.171-.325-.053.008-.109.013-.162.02-.059.108-.11.216-.171.325"/>
                <path id="패스_1368" data-name="패스 1368" class="cls-3" d="M1031.742 637.9c.05-.008.108-.011.159-.019.059-.108.11-.216.168-.325-.051.006-.105.011-.157.019-.058.108-.11.217-.171.325"/>
                <path id="패스_1369" data-name="패스 1369" class="cls-3" d="m1029.368 641.049.021-.027a5.581 5.581 0 0 1-.643-.718c-.032-.134.552-.366 1.5-.579l.184-.293a14.683 14.683 0 0 0-2.028.676 7.123 7.123 0 0 0 .97.941"/>
                <path id="패스_1370" data-name="패스 1370" class="cls-3" d="M1031.178 639.542c.094-.017.2-.029.3-.045.068-.111.131-.223.2-.335l-.29.052c-.065.109-.136.218-.2.327"/>
                <path id="패스_1371" data-name="패스 1371" class="cls-3" d="M1031.475 639.5c.051-.006.108-.013.161-.022.068-.111.132-.224.2-.336-.053.008-.109.015-.162.024-.065.112-.128.224-.2.334"/>
                <path id="패스_1372" data-name="패스 1372" class="cls-3" d="m1031.635 639.476.107-.015c.069-.113.134-.225.2-.339l-.109.015c-.066.113-.13.225-.2.339"/>
                <path id="패스_1373" data-name="패스 1373" class="cls-3" d="m1031.742 639.461.076-.01c.063-.113.121-.227.184-.339l-.059.009c-.067.113-.131.227-.2.34"/>
                <path id="패스_1374" data-name="패스 1374" class="cls-3" d="m1029.388 641.023-.021.027c.035.025.063.053.1.08l.013-.019c-.032-.029-.06-.059-.09-.088"/>
                <path id="패스_1375" data-name="패스 1375" class="cls-3" d="M1030.242 639.724c.062-.014.11-.027.176-.041l.188-.3c-.063.015-.118.033-.179.05-.062.1-.122.195-.185.292"/>
                <path id="패스_1376" data-name="패스 1376" class="cls-3" d="M1031.178 639.542c.067-.11.137-.218.2-.327l-.163.036c-.064.107-.134.214-.2.321l.161-.029"/>
                <path id="패스_1377" data-name="패스 1377" class="cls-3" d="M1030.417 639.683c.033-.008.078-.014.113-.022.065-.1.13-.205.193-.307l-.118.029-.187.3"/>
                <path id="패스_1378" data-name="패스 1378" class="cls-3" d="M1029.464 641.13c.023.018.041.038.066.055l.014-.019c-.021-.018-.046-.036-.066-.055l-.014.019"/>
                <path id="패스_1379" data-name="패스 1379" class="cls-3" d="m1030.894 639.594.123-.023c.065-.107.136-.214.2-.322l-.126.028c-.064.106-.132.211-.2.317"/>
                <path id="패스_1380" data-name="패스 1380" class="cls-3" d="M1030.53 639.662c.06-.013.13-.024.191-.036.066-.1.134-.208.2-.313-.064.014-.134.027-.2.042-.062.1-.127.205-.193.307"/>
                <path id="패스_1381" data-name="패스 1381" class="cls-3" d="M1029.529 641.185c.04.031.081.061.125.09l.009-.011c-.04-.033-.082-.065-.12-.1l-.014.019"/>
                <path id="패스_1382" data-name="패스 1382" class="cls-3" d="M1029.748 641.334c-.028-.024-.058-.047-.085-.071l-.009.013c.028.022.064.037.094.059"/>
                <path id="패스_1383" data-name="패스 1383" class="cls-3" d="m1030.722 639.626.173-.032c.065-.106.134-.211.2-.317l-.175.036a7.5 7.5 0 0 1-.2.313"/>
                <path id="패스_1384" data-name="패스 1384" class="cls-3" d="M1028.008 639.607a15.5 15.5 0 0 1 2.88-.911c.144-.242.288-.484.425-.727a15.278 15.278 0 0 0-3.657 1.121c.105.174.23.346.352.517"/>
                <path id="패스_1385" data-name="패스 1385" class="cls-3" d="M1031.806 638.521c.083-.013.176-.02.261-.032.127-.223.244-.448.363-.672l-.276.033c-.12.223-.221.448-.348.671"/>
                <path id="패스_1386" data-name="패스 1386" class="cls-3" d="M1032.226 638.468c.126-.223.24-.447.358-.67l-.154.018c-.121.224-.236.45-.363.672l.159-.02"/>
                <path id="패스_1387" data-name="패스 1387" class="cls-3" d="m1032.226 638.468.107-.014c.125-.222.236-.444.353-.669l-.1.013c-.118.223-.232.447-.358.67"/>
                <path id="패스_1388" data-name="패스 1388" class="cls-3" d="M1032.333 638.454h.027q.175-.334.343-.667h-.017c-.117.223-.229.447-.353.669"/>
                <path id="패스_1389" data-name="패스 1389" class="cls-3" d="m1030.888 638.7.172-.036c.141-.242.279-.483.414-.725-.058.01-.105.023-.161.033-.137.243-.281.485-.425.727"/>
                <path id="패스_1390" data-name="패스 1390" class="cls-3" d="M1031.656 638.54c.047-.008.1-.011.15-.019.127-.222.229-.447.349-.671-.049.006-.1.011-.15.019-.121.222-.222.448-.349.671"/>
                <path id="패스_1391" data-name="패스 1391" class="cls-3" d="m1031.06 638.661.116-.024c.14-.238.27-.479.4-.718-.036.005-.068.013-.105.019a35.21 35.21 0 0 1-.414.723"/>
                <path id="패스_1392" data-name="패스 1392" class="cls-3" d="M1031.538 638.561c.04-.006.077-.015.118-.023.126-.222.229-.448.349-.671l-.105.013c-.123.228-.231.455-.362.681"/>
                <path id="패스_1393" data-name="패스 1393" class="cls-3" d="M1031.176 638.638c.066-.014.127-.028.194-.041.134-.23.245-.465.371-.7-.051.008-.11.011-.162.02-.134.239-.263.48-.4.718"/>
                <path id="패스_1394" data-name="패스 1394" class="cls-3" d="M1031.37 638.6c.058-.01.109-.024.168-.034.13-.227.238-.455.362-.681-.052.006-.109.01-.159.018-.127.233-.238.467-.371.7"/>
                <path id="패스_1395" data-name="패스 1395" class="cls-3" d="M1028.4 640.107a14.717 14.717 0 0 1 2.028-.675c.154-.247.316-.49.462-.735a15.454 15.454 0 0 0-2.88.909c.122.172.253.337.39.5"/>
                <path id="패스_1396" data-name="패스 1396" class="cls-3" d="M1031.671 639.163c.134-.224.27-.448.4-.674-.086.011-.177.019-.262.032-.131.233-.285.462-.425.694.1-.019.193-.034.29-.052"/>
                <path id="패스_1397" data-name="패스 1397" class="cls-3" d="m1031.671 639.163.162-.026c.132-.222.268-.444.394-.669l-.159.02c-.127.225-.263.45-.4.674"/>
                <path id="패스_1398" data-name="패스 1398" class="cls-3" d="m1031.833 639.137.109-.017c.131-.222.267-.442.392-.666l-.107.014c-.126.223-.262.446-.394.669"/>
                <path id="패스_1399" data-name="패스 1399" class="cls-3" d="m1031.942 639.122.059-.01c.123-.219.243-.439.36-.658h-.027c-.125.223-.261.443-.392.666"/>
                <path id="패스_1400" data-name="패스 1400" class="cls-3" d="M1030.426 639.432c.062-.016.117-.033.18-.048.15-.242.311-.48.454-.722l-.172.036c-.146.245-.308.489-.462.735"/>
                <path id="패스_1401" data-name="패스 1401" class="cls-3" d="M1031.218 639.249c.055-.011.107-.024.163-.034.139-.232.293-.462.425-.694-.048.008-.1.011-.15.018-.137.239-.3.472-.438.711"/>
                <path id="패스_1402" data-name="패스 1402" class="cls-3" d="m1030.606 639.384.118-.028c.149-.241.311-.478.452-.718l-.116.024c-.144.242-.3.481-.454.722"/>
                <path id="패스_1403" data-name="패스 1403" class="cls-3" d="M1031.094 639.277c.041-.009.082-.019.126-.027.141-.238.3-.472.437-.711-.041.008-.077.017-.117.022-.137.241-.3.478-.446.716"/>
                <path id="패스_1404" data-name="패스 1404" class="cls-3" d="M1030.724 639.355c.063-.015.132-.027.2-.042.148-.239.312-.475.452-.717-.068.013-.13.028-.194.042-.142.239-.3.478-.453.717"/>
                <path id="패스_1405" data-name="패스 1405" class="cls-3" d="m1030.919 639.313.175-.036c.144-.239.308-.475.444-.716-.058.011-.11.025-.167.036-.141.241-.306.478-.452.716"/>
                <path id="패스_1406" data-name="패스 1406" class="cls-2" d="M1040.6 631.4a2.817 2.817 0 0 0 1.567-1.006.608.608 0 0 0 .036-.492c-.081-.278-.357-.363-1.908-.367a17.793 17.793 0 0 1-2.093-.092 24.274 24.274 0 0 1-7.939-2.086c-2.708-1.318-4.165-2.138-5.084-2.68l-3.511 4.852c3.538 2.118 10.02 4.552 18.933 1.87"/>
                <path id="패스_1407" data-name="패스 1407" class="cls-3" d="M1044.047 629.325c-.511-1.718-2.215-1.721-3.719-1.724a15.827 15.827 0 0 1-1.879-.079 22.808 22.808 0 0 1-7.326-1.9c-3.235-1.577-4.654-2.429-5.525-2.952l-.23-.136a.807.807 0 0 0-.416-.116.828.828 0 0 0-.28.05.854.854 0 0 0-.515.531.83.83 0 0 0 .352.984l.218.13c.172.1.376.227.6.36l.475-.657.063-.111c1.23.7 2.891 1.563 4.935 2.559a23.4 23.4 0 0 0 7.548 1.971 17.7 17.7 0 0 0 1.957.083c1.506 0 2.694.006 3.06 1.228a1.8 1.8 0 0 1-.131 1.386c.3-.129.587-.265.872-.4a2.577 2.577 0 0 0-.067-1.2"/>
                <path id="패스_1408" data-name="패스 1408" class="cls-3" d="M1043.371 629.541c-.365-1.221-1.554-1.225-3.06-1.228a17.676 17.676 0 0 1-1.956-.083 23.368 23.368 0 0 1-7.548-1.971c-2.046-1-3.706-1.857-4.936-2.559l-.063.111c.981.557 2.536 1.389 4.942 2.561a23.736 23.736 0 0 0 7.591 1.983c2.383.278 4.43-.377 4.908 1.221a1.675 1.675 0 0 1-.194 1.428l.186-.078a1.792 1.792 0 0 0 .131-1.386"/>
                <path id="패스_1409" data-name="패스 1409" class="cls-3" d="M1044.292 629.252c-.565-1.9-2.449-1.9-3.963-1.905a16.094 16.094 0 0 1-1.85-.076 22.542 22.542 0 0 1-7.244-1.881c-3.225-1.57-4.638-2.421-5.483-2.928l-.249-.15a1.074 1.074 0 0 0-.917-.088 1.105 1.105 0 0 0-.211 1.973l.221.131c.167.1.366.22.586.349l.076-.1c-.225-.131-.426-.252-.6-.354l-.217-.131a.948.948 0 0 1-.406-1.133v-.017a.961.961 0 0 1 1.393-.517l.229.136c.845.509 2.26 1.36 5.514 2.947a22.737 22.737 0 0 0 7.286 1.892 15.6 15.6 0 0 0 1.866.078c1.547 0 3.3.008 3.84 1.815a2.713 2.713 0 0 1 .087 1.169l.145-.074a2.881 2.881 0 0 0-.109-1.132"/>
                <path id="패스_1410" data-name="패스 1410" class="cls-3" d="M1044.169 629.289c-.538-1.807-2.292-1.812-3.84-1.815a16.149 16.149 0 0 1-1.866-.078 22.726 22.726 0 0 1-7.286-1.894c-3.254-1.587-4.669-2.438-5.514-2.946l-.229-.138a.961.961 0 0 0-1.393.518l-.005.015a.952.952 0 0 0 .407 1.135l.217.131c.169.1.372.222.6.354l.076-.1a36.397 36.397 0 0 1-.6-.36l-.218-.131a.829.829 0 0 1-.352-.983.847.847 0 0 1 .515-.531.8.8 0 0 1 .28-.05.815.815 0 0 1 .416.115l.23.136c.871.523 2.29 1.375 5.525 2.952a22.784 22.784 0 0 0 7.326 1.9 16.121 16.121 0 0 0 1.879.08c1.505 0 3.208.006 3.719 1.723a2.563 2.563 0 0 1 .067 1.2c.048-.024.1-.043.143-.066a2.714 2.714 0 0 0-.086-1.169"/>
                <path id="패스_1411" data-name="패스 1411" class="cls-3" d="M1066.35 593.935a4.6 4.6 0 0 0-3.865-1.4c-2.294.286-4.307 2.239-5.625 3.888a5.228 5.228 0 0 0-2.62-2.213 4.3 4.3 0 0 0-3.9.7 4.753 4.753 0 0 0-2.186 3.292 7.923 7.923 0 0 0 1.4 5.111c-2.349 7.156-5.315 11.1-8.822 11.718-4.706.807-9.208-4.716-9.4-4.953a1.044 1.044 0 0 0-.09-.1c-.756-.8-2.841-3.249-3.271-4.772-1.175-4.149-7.26-12.927-17.49-19.462v1.383a52.034 52.034 0 0 1 4.579 3.632q.909.806 1.731 1.608c.9.875 1.729 1.737 2.476 2.566a52.422 52.422 0 0 0-8.786-7.311v1.063c8.843 6 14.077 13.543 15.1 17.187.659 2.32 3.512 5.42 3.836 5.765a19.692 19.692 0 0 0 3.849 3.619 7.692 7.692 0 0 0-3.859 6.249 1.229 1.229 0 0 0 1.211 1.237h.017a1.308 1.308 0 0 0 .358-.053 1.216 1.216 0 0 0 .871-1.149c.041-2.834 2.942-4.428 3.872-4.866a10.856 10.856 0 0 0 2.183.711 9.755 9.755 0 0 0-1.509 5.267 1.225 1.225 0 0 0 1.211 1.234h.018a1.257 1.257 0 0 0 .358-.051 1.216 1.216 0 0 0 .868-1.147c.051-3.565 2.011-5.052 2.094-5.113a1.082 1.082 0 0 0 .1-.113c.028-.005.055 0 .085-.008a8.276 8.276 0 0 0 2.091-.676 7.522 7.522 0 0 0 1.5 4.857 1.241 1.241 0 0 0 .985.487 1.265 1.265 0 0 0 .734-.242 1.215 1.215 0 0 0 .245-1.707 5.72 5.72 0 0 1-.666-5.229 1.216 1.216 0 0 0 .033-.191q3.356-3.3 5.743-10.425c0-.005.012-.005.017-.009a1.2 1.2 0 0 0 .419-.706 1.188 1.188 0 0 0 .032-.145c0-.028-.006-.056-.006-.083a1.05 1.05 0 0 0-.01-.126 1.039 1.039 0 0 0-.009-.125c-.006-.028 0-.059-.008-.085a.994.994 0 0 0-.059-.125 1.164 1.164 0 0 0-.1-.195.942.942 0 0 0-.06-.118c-.014-.018-.036-.05-.053-.069-.046-.062-.095-.126-.151-.206-.022-.031-.044-.068-.066-.1l-.071-.109a3.56 3.56 0 0 1-.118-.181c-.022-.033-.041-.073-.063-.106s-.027-.05-.041-.074-.039-.066-.057-.1a12.25 12.25 0 0 0-.1-.166c-.006-.013-.014-.023-.022-.037-.019-.036-.037-.078-.057-.115a4.866 4.866 0 0 1-.656-2.778 2.373 2.373 0 0 1 1.135-1.638c1-.669 1.537-.479 1.721-.419 1.085.367 1.875 2.094 2.065 2.671a1.236 1.236 0 0 0 2.223.25c.706-1.159 2.992-4.222 5.071-4.482a2.154 2.154 0 0 1 1.83.721 4.475 4.475 0 0 1 1.192 4.992 7.148 7.148 0 0 1-5.748 4.085l-.13.017c-.028 0-.059 0-.086.008-.042.005-.087.006-.131.011l-.128.014-.087.008-.132.014-.216.02c-.044 0-.085.01-.131.013s-.067.008-.1.01-.059.008-.089.009a.956.956 0 0 0-.135.032l-.024.006c-.026 0-.047.011-.073.018a1.017 1.017 0 0 0-.123.029 1.339 1.339 0 0 0-.2.088c-.038.023-.071.054-.108.08s-.051.034-.074.055a.981.981 0 0 0-.108.078 1.3 1.3 0 0 0-.091.141.761.761 0 0 0-.06.1 1.089 1.089 0 0 0-.093.146 1.128 1.128 0 0 0 .2 1.195c.342 3.863-1.414 11.341-6.093 17.322a22.392 22.392 0 0 1-7.447 6.221c-.005.055-.023.108-.033.163 0 .034-.013.069-.019.1-.012.052-.018.1-.032.157s-.03.107-.048.161l-.172.079c-.057.028-.113.052-.171.08.026-.059.053-.116.073-.174s.045-.112.062-.171c.01-.033.013-.068.021-.1-.306.148-.614.293-.934.427a1.686 1.686 0 0 0 .092-.178l-.186.078a1.675 1.675 0 0 0 .194-1.428c-.478-1.6-2.523-.944-4.908-1.221a23.736 23.736 0 0 1-7.591-1.983c-2.405-1.172-3.96-2-4.942-2.561l-.475.657-.074.1-.076.1c.919.543 2.376 1.363 5.084 2.681a24.306 24.306 0 0 0 7.939 2.086 17.793 17.793 0 0 0 2.093.092c1.551 0 1.826.089 1.908.367a.609.609 0 0 1-.036.492 2.821 2.821 0 0 1-1.567 1.006c-8.913 2.682-15.395.248-18.933-1.87a19.9 19.9 0 0 1-.991-.627 1.1 1.1 0 0 0-1.228 1.816c.435.3.944.61 1.5.926.1.228 0-.088.03.014a14.58 14.58 0 0 0 2.147 1.077c.447.2.916.383 1.411.564a1.839 1.839 0 0 0-.184.793 13.254 13.254 0 0 0 1.192 5 9.324 9.324 0 0 0 2.73 3.442c.378-.493.742-.986 1.092-1.485a7.123 7.123 0 0 1-.97-.941c-.139-.163-.268-.329-.39-.5s-.247-.341-.352-.517c-.055-.09-.1-.185-.146-.275a11.275 11.275 0 0 1-1.287-4.737c.457.183.912.341 1.361.485.148.047.294.087.439.129a19.136 19.136 0 0 0 2.235.528c.162.028.324.057.484.08.284.043.563.08.839.111.14.015.281.034.42.047.2.018.383.027.574.039.112-.244.2-.49.31-.736v-.009a41.214 41.214 0 0 1-1.738-.18c.579.039 1.178.056 1.79.056h.739c.083 0 .171-.011.254-.015.049 0 .1-.005.142-.008h.014l.079-.005.283-.014.093-.005.144-.009c.081-.005.161-.006.243-.013l.141-.01-.044.112-.006.017c.031 0 .063-.009.094-.011l.023-.055h.086c.23 0 .449-.024.675-.034-.262.029-.525.07-.785.09l-.009.025a39.328 39.328 0 0 1-6.515 10.733h.606a39.725 39.725 0 0 0 6.263-10.352 23.582 23.582 0 0 0 18.341-9.4 32.83 32.83 0 0 0 5.673-11.439 24.216 24.216 0 0 0 .954-7.069 12.255 12.255 0 0 0 1.577-.358 9.187 9.187 0 0 0 6.1-5.256 6.9 6.9 0 0 0-1.759-7.609m-36.92 16.893-.035.093-.049.136-.015.041-.071-.14-.253-.487-.176-.341-.29-.564c.356.45.678.83.939 1.126zm20.264-7.276a33.638 33.638 0 0 1-2.924 6.662 33.749 33.749 0 0 0 2.924-6.662m.149.214v.008-.008m-10.071 28.853c-.39.1-.777.2-1.158.286.217-.015.438-.027.648-.046.169-.033.335-.071.5-.109-.113.031-.229.065-.342.094-.054 0-.1.011-.158.015-.526.1-1.071.19-1.628.257.321-.061.651-.136.98-.211-.18.013-.366.02-.55.031a23.192 23.192 0 0 0 1.708-.317m-1.8.677q1.081-.22 2.219-.535l.04-.011c.168-.057.282-.1.282-.1q.054-.021.108-.038a1.989 1.989 0 0 1 .412-.084c-.031.01-.06.024-.091.033-.244.073-.473.122-.711.188l-.028.009c.25-.027.514-.048.752-.079a22.019 22.019 0 0 1-2.186.48c-.555.13-1.221.261-1.983.362.387-.062.785-.146 1.185-.225"/>
                <path id="패스_1412" data-name="패스 1412" class="cls-3" d="M1012.006 658.179c.5-.292 1.021-.571 1.514-.875h-.5q-.717.445-1.447.875z"/>
                <path id="패스_1413" data-name="패스 1413" class="cls-3" d="M1008.8 659.731h.411q.817-.43 1.619-.875h-.425c-.529.3-1.066.587-1.605.875"/>
                <path id="패스_1414" data-name="패스 1414" class="cls-3" d="M1014.16 658.39v.34h-.646c-.069.041-.134.084-.2.126h1.063v-.662l-.213.132z"/>
                <path id="패스_1415" data-name="패스 1415" class="cls-3" d="M1010.626 658.73c-.074.041-.145.084-.22.127h.425c.074-.042.145-.087.22-.127z"/>
                <path id="패스_1416" data-name="패스 1416" class="cls-3" d="m1011.786 658.306.221-.127h-.429c-.073.045-.146.085-.22.127z"/>
                <path id="패스_1417" data-name="패스 1417" class="cls-3" d="M1010.773 658.646c-.049.027-.1.056-.146.084h.425l.146-.084z"/>
                <path id="패스_1418" data-name="패스 1418" class="cls-3" d="M1013.514 658.73h.646v-.084h-.511l-.135.084"/>
                <path id="패스_1419" data-name="패스 1419" class="cls-3" d="M1014.16 658.39v-.064c-.035.022-.069.042-.1.064z"/>
                <path id="패스_1420" data-name="패스 1420" class="cls-3" d="M1011.212 658.39h.426c.049-.027.1-.056.146-.084h-.428l-.145.084"/>
                <path id="패스_1421" data-name="패스 1421" class="cls-3" d="M1011.638 658.39h-.426c-.146.084-.293.171-.44.255h.426c.148-.083.294-.171.44-.255"/>
                <path id="패스_1422" data-name="패스 1422" class="cls-3" d="M1013.651 658.646h.51v-.255h-.1l-.408.255"/>
                <path id="패스_1423" data-name="패스 1423" class="cls-3" d="m988.543 646.495-.13-.01z"/>
                <path id="패스_1424" data-name="패스 1424" class="cls-3" d="m988.414 646.485-.128-.01z"/>
                <path id="패스_1425" data-name="패스 1425" class="cls-3" d="m974.468 598.586-.1.078z"/>
                <path id="패스_1426" data-name="패스 1426" class="cls-3" d="m974.366 598.663-.022.016z"/>
                <path id="패스_1427" data-name="패스 1427" class="cls-3" d="M1014.374 658.179v.015c.236-.148.478-.294.711-.444a1.2 1.2 0 0 0-.925-.446h-.641c-.493.3-1.011.583-1.514.875z"/>
                <path id="패스_1428" data-name="패스 1428" class="cls-3" d="M1010.407 658.857h-2.195c-.546.29-1.077.595-1.632.875h2.222a87.788 87.788 0 0 0 1.605-.875"/>
                <path id="패스_1429" data-name="패스 1429" class="cls-3" d="M1011.578 658.179q.73-.43 1.446-.875h-2.014c-.508.3-1.027.586-1.545.875z"/>
                <path id="패스_1430" data-name="패스 1430" class="cls-3" d="M1010.832 658.857q-.8.445-1.619.875h2.6c.5-.289 1.007-.578 1.5-.875z"/>
                <path id="패스_1431" data-name="패스 1431" class="cls-3" d="M1011.051 658.73c-.074.041-.145.085-.22.127h2.478c.069-.043.135-.087.2-.127z"/>
                <path id="패스_1432" data-name="패스 1432" class="cls-3" d="m1012.006 658.179-.221.127h2.376v.02l.213-.132v-.015z"/>
                <path id="패스_1433" data-name="패스 1433" class="cls-3" d="M1011.578 658.179h-2.112c-.077.043-.158.084-.235.127h2.128l.22-.127"/>
                <path id="패스_1434" data-name="패스 1434" class="cls-3" d="M1008.447 658.73c-.078.041-.157.084-.235.127h2.195c.074-.043.146-.087.22-.127z"/>
                <path id="패스_1435" data-name="패스 1435" class="cls-3" d="M1011.358 658.306h-2.127l-.157.084h2.138l.145-.084"/>
                <path id="패스_1436" data-name="패스 1436" class="cls-3" d="M1011.2 658.646c-.049.027-.1.056-.146.084h2.463l.135-.084z"/>
                <path id="패스_1437" data-name="패스 1437" class="cls-3" d="M1010.773 658.646h-2.17l-.157.084h2.181l.146-.084"/>
                <path id="패스_1438" data-name="패스 1438" class="cls-3" d="M1014.059 658.39c.032-.022.067-.042.1-.064v-.02h-2.376l-.146.084z"/>
                <path id="패스_1439" data-name="패스 1439" class="cls-3" d="m1013.651 658.646.408-.255h-2.419c-.148.084-.293.172-.44.255z"/>
                <path id="패스_1440" data-name="패스 1440" class="cls-3" d="M1011.212 658.39h-2.138c-.155.085-.313.171-.471.255h2.169c.148-.084.294-.171.44-.255"/>
                <path id="패스_1441" data-name="패스 1441" class="cls-3" d="M956.288 673.506a1.258 1.258 0 0 0-1.482.972 110.363 110.363 0 0 0-1.924 18.948h2.509a107.787 107.787 0 0 1 1.876-18.45 1.394 1.394 0 0 0 0-.206 1.238 1.238 0 0 0-.98-1.263"/>
                <path id="패스_1442" data-name="패스 1442" class="cls-3" d="M988.518 645.106h-.1a1.505 1.505 0 0 0-1.4 1.28 19.487 19.487 0 0 1-4.076 10.923c-.248.307-.518.588-.785.875-.038.042-.073.085-.114.126l-.073.085c-.082.084-.159.173-.243.255-.03.028-.063.055-.093.084-.045.045-.095.084-.14.127-.315.3-.628.6-.964.875a17.414 17.414 0 0 1-5.263 2.938 19.016 19.016 0 0 1-14.64-.885c-.263-.129-.521-.271-.778-.411l-.116-.062c-.024-.014-.05-.025-.073-.039-.074-.042-.149-.084-.222-.127-.024-.014-.047-.031-.073-.043l-.11-.069c-.252-.15-.5-.3-.751-.462a19.327 19.327 0 0 1-3.417-2.846 26.883 26.883 0 0 1-7.233-24.006 1.388 1.388 0 0 0-.438-1.407c-5.078-4.311-9.675-14.968-8.42-23.964a15.116 15.116 0 0 1 8.853-12.209c16.58-7.619 25.054 2.919 25.407 3.37a1.416 1.416 0 0 0 1.954.248 1.372 1.372 0 0 0 .25-1.935 20.06 20.06 0 0 0-7.411-5.381c-4.409-1.912-11.7-3.255-21.371 1.188a17.712 17.712 0 0 0-10.445 14.34c-1.361 9.786 3.362 20.806 8.741 25.874-.692 3.511-1.988 15.175 8.085 25.779a21.825 21.825 0 0 0 4.093 3.338c.249.159.515.284.771.434l.115.064.073.042c.073.042.148.083.222.124l.074.042.114.065c.258.14.5.3.769.432a22.21 22.21 0 0 0 9.8 2.318 21.381 21.381 0 0 0 5.908-.825l.275-.083c.308-.092.611-.192.918-.3a19.745 19.745 0 0 0 8.284-5.544h.017c.331-.369.678-.773 1.017-1.228s.6-.833.839-1.2h-.033a22.8 22.8 0 0 0 3.485-10.716 1.393 1.393 0 0 0-1.287-1.484m-14.152-46.443.1-.076-.1.076-.022.016zm14.183 47.837-.13-.01-.127-.01.127.01z"/>
                <path id="패스_1443" data-name="패스 1443" class="cls-3" d="M1009.212 659.731a78.219 78.219 0 0 1-10.307 4.506q-3.643 1.286-7.406 2.216a78.635 78.635 0 0 0 17.3-6.722h-2.222a76.877 76.877 0 0 1-12.215 4.871 74.246 74.246 0 0 1-11.831 2.551 52.434 52.434 0 0 1-23.81-1.932c-.284-.1-.557-.2-.835-.307l-.126-.048c-.027-.011-.053-.022-.08-.031l-.239-.1-.08-.029-.125-.05c-.277-.107-.559-.21-.831-.323a33.247 33.247 0 0 1-14.632-11.5c-8.736-12.386-12.135-27.423-9.092-40.228 2.458-10.342 8.947-18.6 18.763-23.884 22.36-12.039 39.614-9.3 50.148-4.879a50.467 50.467 0 0 1 6.5 3.316v-1.614c-.467-.29-.943-.577-1.43-.858a47.2 47.2 0 0 0-5.121-2.547c.222.089.447.166.669.258a51.342 51.342 0 0 1 5.883 2.942v-1.034a52.032 52.032 0 0 0-5.533-2.728c-11.043-4.625-29.078-7.52-52.3 4.986-10.453 5.626-17.369 14.438-19.995 25.477a43.552 43.552 0 0 0-1.124 9.06c-1.118 9.078.781 19.573 8.744 30.86a36.77 36.77 0 0 0 2.589 3.249 35.855 35.855 0 0 0 14.782 11.306 119.602 119.602 0 0 0-3.661 7.781c-5.295 12.46-6.877 22.474-4.705 29.758l.064.215c.538 1.829 1.44 4.889 6.542 5.3h.1a1.224 1.224 0 0 0 1.217-1.116 1.2 1.2 0 0 0-.29-.884 1.211 1.211 0 0 0-.831-.423c-3.424-.273-3.914-1.942-4.388-3.558l-.065-.222c-3.178-10.652 3.469-26.473 8.33-35.959a50.318 50.318 0 0 0 16.828 2.73 65.883 65.883 0 0 0 8.455-.562 76.177 76.177 0 0 0 12.2-2.638 81.254 81.254 0 0 0 16.748-7.218zm-61.759-70.7c.4-.339.619-.513.619-.513a98.173 98.173 0 0 1 1.93-1.02 88.982 88.982 0 0 1 15.175-6.277 80.219 80.219 0 0 0-14.484 6.131 43.674 43.674 0 0 0-4.453 2.76c.494-.456.905-.816 1.214-1.08m-5.581 5.573a62.278 62.278 0 0 0-2.312 2.793 58.9 58.9 0 0 0-4.019 5.839 55.445 55.445 0 0 0-1.78 3.209 35.88 35.88 0 0 1 8.111-11.841"/>
                <path id="패스_1444" data-name="패스 1444" class="cls-3" d="m945.875 590.328 2-2.065 10.287-5.02 7.715-2.672v1.174l-16.166 6.963-3.307 2.227z"/>
                <path id="패스_1445" data-name="패스 1445" class="cls-3" d="m941.262 594.093 1.061.891-4.041 4.575-4.519 7.449-.583-1.619z"/>
                <path id="패스_1446" data-name="패스 1446" class="cls-3" d="m1020.831 676.666 1.011-.122-.655.464-.5-.25z"/>
            </g>
        </g>
    </g>
</svg>
