<svg xmlns="http://www.w3.org/2000/svg" width="250" height="250">
    <defs>
        <style>
            .cls-2{fill:#fff}.cls-3{fill:#567bb0}.cls-4{fill:#f7f8f8}.cls-5{fill:#8ecbed}
        </style>
    </defs>
    <g id="그룹_3636" data-name="그룹 3636" transform="translate(-997 -867.327)">
        <circle id="타원_1235" data-name="타원 1235" cx="125" cy="125" r="125" transform="translate(997 867.327)" style="fill:#8bb3ff"/>
        <g id="그룹_2347" data-name="그룹 2347" transform="translate(-71.721 699.28)">
            <path id="패스_2488" data-name="패스 2488" class="cls-2" d="M1179.008 369.712s44.754 2.032 70.86-.98l-.29-22.121 9.727-6.857 7.912-8.514-6.208-7.309z"/>
            <g id="_-e-icon_03_off" data-name="-e-icon 03 off">
                <path id="패스_2489" data-name="패스 2489" class="cls-3" d="M1251.6 236.912q-.555.435-1.05.87-1.035-.825-2.1-1.59c.32-.3.67-.6 1.04-.9.718.52 1.41 1.05 2.11 1.62z"/>
                <path id="패스_2490" data-name="패스 2490" class="cls-3" d="M1250.548 237.782c-.35.31-.67.62-.97.94-.69-.55-1.38-1.06-2.09-1.56.15-.16.31-.32.47-.48s.32-.33.49-.49q1.065.765 2.1 1.59z"/>
                <path id="패스_376" data-name="패스 376" class="cls-2" d="M1175.36 347.069a190.417 190.417 0 0 0-1.932 19.845l.136.024c13.666 2.248 32.227-4.3 55.153-19.458a276.346 276.346 0 0 0 30.588-23.651 31.741 31.741 0 0 0-13.776-10.528 61.728 61.728 0 0 1-20.944 7.114c-19.083 19.984-45.76 25.951-49.227 26.654z"/>
                <path id="패스_2491" data-name="패스 2491" class="cls-2" d="M1242.168 312.092c-.61.31-1.23.61-1.85.89-.06.03-.13.06-.19.09-.02.01-.05.02-.07.03-.29.13-.58.26-.88.39s-.63.27-.95.4c-.44.18-.89.36-1.34.53a57.19 57.19 0 0 1-9.35 2.72z"/>
                <path id="패스_2492" data-name="패스 2492" class="cls-3" d="M1249.578 238.722a17.459 17.459 0 0 0-3.72 5.47.01.01 0 0 1-.01.01 1.324 1.324 0 0 1-1.71.77 1.339 1.339 0 0 1-.78-1.72 20.856 20.856 0 0 1 4.12-6.09h.01c.712.5 1.4 1.01 2.09 1.56z"/>
                <path id="패스_379" data-name="패스 379" class="cls-2" d="M1195.18 298.369s9.791-1.891 11.6.719c2.2 3.174-.384 7.284-4.68 7s-2.48-7.572-2.48-7.572z"/>
                <path id="패스_2493" data-name="패스 2493" class="cls-3" d="M1218.148 281.022c-.04 3.09-2.3 5.55-5.05 5.51s-4.95-2.58-4.91-5.66 2.3-5.55 5.05-5.51 4.95 2.58 4.91 5.66z"/>
                <path id="패스_381" data-name="패스 381" class="cls-4" d="M1212.957 279.294a1.353 1.353 0 1 1-1.307-1.452 1.375 1.375 0 0 1 1.308 1.439v.013z"/>
                <path id="패스_2494" data-name="패스 2494" class="cls-3" d="m1215.868 268.292-.03.03a15.534 15.534 0 0 1-10.29 4.11h-.24a1.056 1.056 0 0 1-1-1.09 1.016 1.016 0 0 1 1.03-1h.06a13.667 13.667 0 0 0 9.01-3.54 1.053 1.053 0 0 1 1.48.02 1.041 1.041 0 0 1-.02 1.47z"/>
                <path id="패스_2495" data-name="패스 2495" class="cls-3" d="M1184.808 271.222a1.027 1.027 0 0 1-1.04.94c-.03 0-.1 0-.23-.01a14.65 14.65 0 0 1-9.46-4.94 1.07 1.07 0 0 1 .09-1.46.991.991 0 0 1 1.39.06c.01.01.01.02.02.03a12.842 12.842 0 0 0 8.29 4.26 1.038 1.038 0 0 1 .94 1.12z"/>
                <path id="패스_2496" data-name="패스 2496" class="cls-3" d="M1279.248 343.482c.09-.01.17-.03.26-.04a.01.01 0 0 0-.01.01z"/>
                <path id="패스_2497" data-name="패스 2497" class="cls-3" d="M1279.508 343.442c.1-.01.2-.03.3-.03l-.27.03z"/>
                <path id="패스_2498" data-name="패스 2498" class="cls-3" d="M1280.777 343.407c-.157-.009-.315-.01-.472-.009.158.002.315.002.472.009z"/>
                <path id="패스_2499" data-name="패스 2499" class="cls-3" d="M1280 343.392c.1-.006.2.007.307.006-.166 0-.332 0-.5.014a1.229 1.229 0 0 1 .193-.02z"/>
                <path id="패스_2500" data-name="패스 2500" class="cls-3" d="M1281.4 343.472a6.075 6.075 0 0 0-.621-.065h.241a.5.5 0 0 1 .12.02 2.627 2.627 0 0 1 .39.06c.13.02.26.05.39.08.17.05.34.09.5.15a6.905 6.905 0 0 0-1.02-.245z"/>
                <path id="패스_2501" data-name="패스 2501" class="cls-3" d="M1249.488 235.292c-.37.3-.72.6-1.04.9-.17.16-.34.32-.49.49-.17.15-.33.32-.48.48-10.82-7.61-24.18-9.66-34.95-9.77l-.61-.01c-10.46 0-18.5 2.96-24.68 7.22-.54-.74-1.1-1.45-1.67-2.14 6.58-4.57 15.17-7.75 26.35-7.75h.64c11.36.12 25.5 2.33 36.92 10.57a.01.01 0 0 1 .01.01z"/>
                <path id="패스_2502" data-name="패스 2502" class="cls-3" d="M1148.888 242.212c-2.69 5.63-3.17 12.74-2.19 18.72.05.35.12.69.19 1.03v.01a27.648 27.648 0 0 0 .9 3.48c.13.41.28.82.43 1.2.16.41.32.8.5 1.17a15.376 15.376 0 0 0 .89 1.67 1.364 1.364 0 0 1-.01 1.43c-.14.25-.27.51-.4.76a26.173 26.173 0 0 0-1.26 2.88c-.13.31-.24.63-.34.94-.05.14-.1.28-.14.41-.01.04-.02.07-.03.1-.03.08-.05.15-.07.22-.11.35-.21.69-.3 1.03-.07.25-.13.5-.19.75a.292.292 0 0 0-.02.09c-.05.2-.1.41-.14.62-.16.7-.28 1.41-.38 2.12a28.333 28.333 0 0 0-.28 4.32 29.355 29.355 0 0 0 1.64 9.39c.09.24.17.49.27.72a28.076 28.076 0 0 0 1.12 2.59c.03.06.06.13.09.19a20.163 20.163 0 0 0 3.98 5.58c.3.3.6.58.92.86s.67.57 1.03.84a20.229 20.229 0 0 0 12.85 4.16c.64-.02 1.26-.08 1.88-.16.46.38.94.75 1.43 1.1.24.18.49.36.74.53s.51.35.77.52h-.02a20.85 20.85 0 0 1-4.71.69c-.24.01-.48.01-.71.01a22.968 22.968 0 0 1-15.48-6.1c-.3-.28-.6-.57-.89-.87-.27-.29-.54-.58-.81-.88a22.829 22.829 0 0 1-3.48-5.32c-.05-.1-.1-.2-.14-.3-.23-.45-.43-.9-.62-1.35l-.01-.02a31.623 31.623 0 0 1-2.47-9.86v-.02c-.05-.54-.08-1.08-.1-1.62a32.23 32.23 0 0 1 .16-4.28c.07-.7.17-1.41.3-2.11a5.154 5.154 0 0 1 .09-.52q.21-1.11.51-2.22a.037.037 0 0 1 .01-.03v-.01a.936.936 0 0 1 .04-.16c.09-.34.19-.68.3-1.01a3.2 3.2 0 0 1 .14-.44 1.3 1.3 0 0 1 .09-.28c.06-.19.12-.37.19-.55q.24-.69.51-1.35c.37-.91.79-1.81 1.25-2.69a21.151 21.151 0 0 1-1.1-2.34c-.12-.31-.24-.62-.35-.94-.13-.35-.25-.7-.36-1.07a29.8 29.8 0 0 1-.62-2.26c-.07-.33-.15-.67-.21-1.01s-.14-.69-.2-1.04c-1.1-6.47-.62-14.16 2.4-20.48 3.08-6.45 8.29-10.31 15.08-11.16 10.32-1.3 16.98 1.79 20.93 4.91-.69.58-1.36 1.18-2 1.79-3.78-2.85-9.68-5.16-18.6-4.04a16.275 16.275 0 0 0-13 9.66z"/>
                <path id="패스_2503" data-name="패스 2503" class="cls-3" d="M1187.238 234.6c-.95.65-1.85 1.33-2.71 2.03-.36-.36-.74-.73-1.15-1.09-.28-.24-.58-.49-.89-.74.98-.81 2-1.59 3.08-2.34.57.692 1.132 1.402 1.67 2.14z"/>
                <path id="패스_2504" data-name="패스 2504" class="cls-3" d="M1184.528 236.632c-.69.57-1.35 1.15-1.99 1.75a19.228 19.228 0 0 0-2.05-1.78c.65-.61 1.31-1.21 2-1.8.31.25.61.5.89.74.41.358.79.73 1.15 1.09z"/>
                <path id="패스_390" data-name="패스 390" class="cls-3" d="M1244.346 317.034c-2.331 1.258-4.578 2.624-6.806 4.056.445.507.888 1.012 1.327 1.523 1-.664 2-1.321 3-1.982-.7 1.006-1.395 2.018-2.094 3.026.443.51.889 1.018 1.33 1.532 1.122-1.614 2.226-3.24 3.438-4.788l-.776-.855c.643-.343 1.285-.682 1.931-1.025q-.677-.744-1.348-1.487z"/>
                <path id="패스_391" data-name="패스 391" class="cls-3" d="M1242.568 326.9c.79-.8 1.583-1.59 2.4-2.361l.454.53c.476-.439.957-.877 1.433-1.315a47.257 47.257 0 0 0-.459-.531l2.069-1.875q-.656-.741-1.32-1.476c-2.037 1.764-3.971 3.615-5.876 5.519.434.5.865 1.009 1.3 1.509z"/>
                <path id="패스_392" data-name="패스 392" class="cls-3" d="M1236.254 329.718c1.251-1.366 2.341-2.841.977-4.474s-2.823-.59-4.2.518c-.123.1-.523.462-.633.578-1.253 1.338-2.361 2.687-1.044 4.353s2.839.76 4.25-.379c.125-.1.542-.475.653-.6zm-1.768-.949c-.438.414-1.34 1.46-1.867.8s.582-1.39 1.049-1.816c.052-.047.439-.4.486-.45.431-.41 1.3-1.5 1.842-.854s-.55 1.429-1.018 1.863l-.491.452z"/>
                <path id="패스_393" data-name="패스 393" class="cls-3" d="M1233.381 333.329c.407.527.815 1.052 1.221 1.58a151.293 151.293 0 0 0 6.259-5.807c-.423-.514-.853-1.022-1.283-1.531q-3 2.985-6.2 5.757z"/>
                <path id="패스_394" data-name="패스 394" class="cls-3" d="M1229 336.848c-.152-.207-.306-.412-.457-.618.7-.551 1.4-1.112 2.106-1.663-.383-.506-.769-1.009-1.152-1.514-.574.463-1.144.929-1.718 1.39l-.76-1.037c.571-.452 1.129-.922 1.7-1.38-.38-.5-.764-1-1.144-1.5a215.628 215.628 0 0 1-5.865 4.634c1.133 1.259 2.259 2.527 3.393 3.786.678-.521 1.34-1.056 2.008-1.587.155.206.307.411.464.616-.832.658-1.659 1.315-2.5 1.959q.57.809 1.144 1.614c2.117-1.631 4.215-3.292 6.322-4.939q-.6-.794-1.209-1.59-1.167.91-2.331 1.831zm-3.9-.3c-.29-.316-.579-.63-.865-.947l1.483-1.179c.254.344.5.693.748 1.042q-.684.54-1.365 1.084z"/>
                <path id="패스_395" data-name="패스 395" class="cls-3" d="M1218.869 337.59c.2.3.392.6.587.9-.263.19-.531.371-.8.555a82.338 82.338 0 0 0-.577-.907c-.307.211-.617.422-.921.636.443.735 1 1.571 1.4 2.259.051.087-.2.257-.254.173-.5-.731-1.048-1.673-1.555-2.47-.347.222-.693.45-1.046.665 1.381 2.24 2.771 4.476 4.119 6.735.378-.237.757-.474 1.125-.721-.493-.81-1.095-1.717-1.535-2.488-.049-.09.2-.256.258-.174.465.65.969 1.527 1.435 2.248.334-.217.661-.446.99-.669l-.579-.91c.279-.19.558-.381.834-.574l.6.9q.5-.363 1-.729-2.094-3.044-4.142-6.121c-.312.234-.627.462-.941.691zm2.487 3.75c-.278.19-.552.381-.829.573-.3-.452-.6-.9-.9-1.358.271-.189.545-.377.816-.565q.452.674.909 1.35z"/>
                <path id="패스_396" data-name="패스 396" class="cls-3" d="M1214.621 340.377c.9 1.564 1.807 3.119 2.752 4.654l-1.057.652c.327.571.659 1.137.986 1.709l2.166-1.338a493.853 493.853 0 0 0-3.838-6.3l-1.01.628z"/>
                <path id="패스_397" data-name="패스 397" class="cls-3" d="M1211.042 347.644c-.49-.847-.976-1.681-1.439-2.553.076.047.258-.226.318-.124.439.775.84 1.69 1.281 2.5a70.539 70.539 0 0 0 2.452-1.283c-.763-1.409-1.542-2.813-2.288-4.233-.355.2-.715.389-1.068.587.406.811.909 1.708 1.291 2.473.041.08-.187.2-.235.126-.435-.736-.882-1.666-1.311-2.468q-1.267.616-2.532 1.245c.813 1.417 1.58 2.858 2.379 4.285.386-.183.769-.367 1.152-.555z"/>
                <path id="패스_398" data-name="패스 398" class="cls-3" d="M1213.781 347.269c-.157 0-.188-.579-.346-.533a4.731 4.731 0 0 0-1.148.613c-.127.1.334.479.247.579a1.09 1.09 0 0 1-.509.253c-.135.009-.177-.582-.331-.537a4.767 4.767 0 0 0-1.184.585c-.13.1.348.462.244.586-.116.143-.487.221-.665.343.279.592.574 1.186.862 1.777a110.146 110.146 0 0 0 4.355-2.229c-.326-.571-.629-1.159-.937-1.733-.176.055-.431.292-.59.3z"/>
                <path id="패스_399" data-name="패스 399" class="cls-3" d="M1205.8 344.709c.82 1.761 1.659 3.513 2.493 5.269q-.6.27-1.207.527c.272.6.55 1.2.826 1.792q1.369-.584 2.716-1.212c-1.139-2.341-2.242-4.7-3.414-7.026-.467.229-.94.44-1.415.65z"/>
                <path id="패스_400" data-name="패스 400" class="cls-3" d="M1199.227 348.021a3.34 3.34 0 0 0-2.172 4.194 3.273 3.273 0 0 0 .159.406 3.143 3.143 0 0 0 4.588 1.825c2.008-.882 2.882-2.575 2.013-4.613a3.208 3.208 0 0 0-4.047-2.05 3.159 3.159 0 0 0-.541.234zm1.871 4.676c-.973.438-1.984.4-2.413-.692s.25-1.836 1.221-2.267 1.978-.388 2.415.693-.252 1.829-1.223 2.266z"/>
                <path id="패스_401" data-name="패스 401" class="cls-3" d="M1191.551 355.739c-1.184.278-2.006.416-2.333-.733s.479-1.341 1.611-1.649c.725-.2 2.3-.621 3.149-.9a15.778 15.778 0 0 0-.6-1.824c-.894.323-2.344.653-3.154.929-2.065.7-3.166 1.52-2.594 3.76s2.172 2.689 4.421 2.262c.886-.167 2.4-.678 3.365-.958a17.3 17.3 0 0 0-.617-1.815c-.884.28-2.487.753-3.246.933z"/>
                <path id="패스_402" data-name="패스 402" class="cls-3" d="M1182.312 353.069q.235 1.033.479 2.066a53.065 53.065 0 0 0-5.271 1.319q.2.939.407 1.876c1.761-.482 3.51-.978 5.3-1.33.167.725.327 1.453.486 2.183q.827-.168 1.66-.309-.729-3.043-1.452-6.089c-.539.084-1.076.182-1.611.284z"/>
                <path id="패스_403" data-name="패스 403" class="cls-3" d="M1263.448 312.332c.34.01.68.02 1.02.02a22.979 22.979 0 0 0 20.52-12.88 31.657 31.657 0 0 0 .14-28.83c3.87-6.79 5.28-19.5.84-29.12-2.99-6.5-8.15-10.43-14.92-11.38-10.47-1.46-17.3 1.61-21.57 5.14a.01.01 0 0 1 .01.01c.72.52 1.41 1.05 2.11 1.62 3.8-2.96 9.84-5.4 19.08-4.12a16.3 16.3 0 0 1 12.87 9.85c4.08 8.86 2.73 21.25-1.09 27.26a1.342 1.342 0 0 0-.01 1.43 29.1 29.1 0 0 1 .15 26.95 20.285 20.285 0 0 1-19.03 11.37 18.068 18.068 0 0 1-9.18-2.91c-.38-.24-.75-.51-1.11-.78s-.7-.57-1.04-.87a22.025 22.025 0 0 1-5.76-8.57 1.333 1.333 0 1 0-2.51.9.185.185 0 0 1 .02.07 24.674 24.674 0 0 0 6.26 9.34 43.955 43.955 0 0 1-5.31 3.71q-.645.39-1.29.75c-.47.26-.93.52-1.41.76a.251.251 0 0 0-.07.04c-.61.31-1.23.61-1.85.89-.06.03-.13.06-.19.09-.02.01-.05.02-.07.03-.29.13-.58.26-.88.39s-.63.27-.95.4c-.44.18-.89.36-1.34.53a57.19 57.19 0 0 1-9.35 2.72c-.62.13-1.24.24-1.87.36s-1.24.23-1.87.33a95.809 95.809 0 0 1-14.95 1.11c-1.8 0-3.7-.04-5.59-.13a79.69 79.69 0 0 1-15.56-3.3c-1.3-.41-2.54-.86-3.75-1.33a52.85 52.85 0 0 1-7.99-3.84 36.7 36.7 0 0 1-2.73-1.78 27.531 27.531 0 0 1-8.11-8.6c-.08-.14-.16-.29-.24-.43a21.553 21.553 0 0 1-2.05-5.38 23.176 23.176 0 0 1-.54-3.76c-.04-.72-.05-1.46-.03-2.21v-.03l-1.63-7.04c-.21.8-.39 1.58-.53 2.36v.01c-.18.98-.32 1.93-.41 2.87l-.03.41a27.124 27.124 0 0 0-.05 3.6 24.229 24.229 0 0 0 3.19 10.94c.02.03.03.05.05.08.19.32.38.63.58.93q.3.48.63.93a28.74 28.74 0 0 0 5.77 6.09c.46.38.94.75 1.43 1.1.24.18.49.36.74.53s.5.35.75.52a.01.01 0 0 0 .01.01c.3.2.63.39.94.58l-14.22 3.1a1.326 1.326 0 0 0-1.04 1.4l.16 2.23c-4.4.19-9.28.49-13.77.95-.21-1.42-.77-3.8-2.23-4.93a3.108 3.108 0 0 0-2.6-.57 5.232 5.232 0 0 0-2.57 1.23 3.482 3.482 0 0 0-.81 1.12 6.088 6.088 0 0 0-.44 2.42h-.07a8.566 8.566 0 0 0-4.48.93 8.41 8.41 0 0 0-1.57 1.02 3.469 3.469 0 0 0-.28.26c-2.28 2.19-3.24 5.83-2.87 10.82.31 4.21 1.75 6.99 4.27 8.27a7.667 7.667 0 0 0 3.19.76h.25c.27 0 .55-.01.82-.03.35-.03.69-.07 1.03-.13a18.055 18.055 0 0 0 4.38-1.38c.35-.15.68-.31.96-.45q.6-.3.96-.51a1.451 1.451 0 0 0 .18-.1l17.17.47.06.73a1.328 1.328 0 0 0 1.31 1.23l11.62.21c-.01 1.35.04 2.83.17 4.45a1.356 1.356 0 0 0-.11.34l-.06.43a187.227 187.227 0 0 0-2.03 21v.54a1.154 1.154 0 0 0 .95 1.17l1.16.21a35.493 35.493 0 0 0 5.82.45c13.5 0 30.62-6.8 51-20.27a277.091 277.091 0 0 0 31.08-24.05 43.007 43.007 0 0 1 4.32 6.06 23.39 23.39 0 0 1-1.61 1.83q-.75.795-1.65 1.65c-2.5 2.4-5.7 5.12-8.32 7.28-.65.53-1.26 1.02-1.82 1.47l-1.3 1.03c-.1-.87-.2-1.63-.29-2.29-.19-1.44-.33-2.34-.36-2.48a2.061 2.061 0 0 0-.13-.47c-.28-.73-.87-1.14-1.47-.94-.72.24-1.2.47-.99 2.3a125.806 125.806 0 0 1 1.22 25.8c-.08 1.05.45 1.99 1.18 2.1a.77.77 0 0 0 .15.02c.67 0 1.25-.73 1.32-1.71a118.122 118.122 0 0 0-.29-19.18 5.056 5.056 0 0 0 .84-.69c.13-.1.91-.71 2.05-1.62a66.746 66.746 0 0 1 5.16 6.22c4.01 5.41 7.29 6.8 9 6.96a13.809 13.809 0 0 0 2.8-.23c10.78-3.27 14.69-10.56 14.83-12.72a4.123 4.123 0 0 0-2.27-4.11c-3.25-1.65-9.48.74-11.84 1.76l-6.18-8.02a20.541 20.541 0 0 0 2.8-3.37 1.34 1.34 0 0 0-.11-1.54c-.66-.8-10.83-15.44-20.08-18.74a48.461 48.461 0 0 0 4.33-3.21 20.679 20.679 0 0 0 11.07 3.78zm-120.74 24.05a.894.894 0 0 0-.43.08 1.091 1.091 0 0 0-.15.08c-.01 0-.25.15-.65.37h-.01a1 1 0 0 0-.14.08c-.27.14-.59.3-.96.47l.11.48a9.166 9.166 0 0 1-4.28 1.79c-.33.06-.68.11-1.04.14q-.51.06-1.05.09c-.16.01-.34.02-.51.02h-.03a1.05 1.05 0 0 1-1.06-1.04 1.031 1.031 0 0 1 .04-.3c-.14-.06-.28-.12-.42-.19-1.82-.93-2.88-3.13-3.13-6.56-.27-3.56.19-6.27 1.37-8.09a6.5 6.5 0 0 1 .84-1.03c.07-.06.14-.13.22-.2a6.57 6.57 0 0 1 .7-.47 6.951 6.951 0 0 1 4.48-.94 3.035 3.035 0 0 1 .42.06 1 1 0 0 0 .64-.07.72.72 0 0 0 .24-.14 1.07 1.07 0 0 0 .39-.81l-.01-.53v-.46c0-1.65.22-2.51 2.16-2.91a.984.984 0 0 1 .89.18c.97.74 1.46 3.14 1.53 4.48a1.062 1.062 0 0 0 .37.74 1.081 1.081 0 0 0 .79.24c4.75-.52 10.02-.85 14.75-1.05l1.2 15.97zm127.68 9.01a.7.7 0 0 0 .8.21 41.586 41.586 0 0 1 7.7-2.03 5.985 5.985 0 0 1 .61-.12.01.01 0 0 1 .01-.01h.03l.27-.03a1.229 1.229 0 0 1 .19-.02h.13a2.087 2.087 0 0 1 .25-.01.487.487 0 0 1 .12.01h.11c.11 0 .22.01.32.02h.09a.5.5 0 0 1 .12.02 2.019 2.019 0 0 1 .26.04.584.584 0 0 1 .13.02c.13.02.26.05.39.08.17.05.34.09.5.15a1.87 1.87 0 0 1 1.02 1.9c-.19 2.73-7.67 10-14.33 10.52-.03 0-3.33.78-8.17-5.74a65.376 65.376 0 0 0-5.2-6.3c2.4-1.97 5.49-4.59 8.06-7.05zm-97.14-7.12h-.01l-10.5-.29-.08-1.05-1.22-16.15-.08-1.05-.08-1.04-.08-1.17 15.79-3.55c1.55.81 3.2 1.58 4.95 2.29 1.58.65 3.23 1.25 4.97 1.8a80.16 80.16 0 0 0 16.2 3.43c1.97.09 3.91.13 5.76.13a100.81 100.81 0 0 0 11.91-.67c-17.11 16.51-39.35 22.36-44.89 23.62-.56-8.94 1.57-13.29 1.6-13.36.17-.56-.26-1.12-.98-1.26a1.386 1.386 0 0 0-1.61.76 23.4 23.4 0 0 0-1.65 7.56zm79.65-20.86c.02.02.05.04.07.06 1.02.81 1.97 1.62 2.84 2.42l.09.09c.04.04.09.08.13.12.23.2.44.41.66.61a26.012 26.012 0 0 1 2.63 3.12h-.01c-1.2 1.08-2.42 2.14-3.64 3.19q-1.77 1.53-3.57 3.02a1.933 1.933 0 0 1-.23.19q-1.815 1.515-3.64 2.97-3.765 3.045-7.64 5.92h-.01q-3.87 2.895-7.85 5.64h-.01q-1.98 1.38-3.99 2.72h-.01q-1.875 1.245-3.7 2.4h-.01q-1.83 1.17-3.62 2.25c-.6.36-1.2.72-1.8 1.07-1.18.7-2.34 1.37-3.5 2.01 0 .01 0 .01-.01 0-1.16.65-2.31 1.28-3.44 1.87s-2.25 1.17-3.35 1.71a.916.916 0 0 1-.1.05q-2.43 1.2-4.78 2.22c-.53.24-1.07.47-1.59.68-.52.23-1.04.44-1.56.64-.52.22-1.04.42-1.55.61s-1.02.38-1.52.56-1.01.36-1.51.53-.98.33-1.46.48-.98.31-1.48.45c-1.93.58-3.8 1.04-5.62 1.4h-.02c-.46.1-.91.18-1.36.26s-.9.15-1.34.21c-.41.07-.82.12-1.23.17a1.49 1.49 0 0 1-.21.02c-.83.1-1.64.17-2.44.22-.42.03-.84.05-1.25.06s-.81.02-1.21.02a33.435 33.435 0 0 1-5.48-.43h-.03l-.11-.02v-.01a190.919 190.919 0 0 1 1.94-19.83c3.46-.7 30.14-6.68 49.22-26.66a61.772 61.772 0 0 0 20.95-7.11 36.633 36.633 0 0 1 7.22 4.01c.04.03.09.06.132.09zm-88.61-39.12c.25-.69.52-1.39.82-2.1.21-.52.45-1.05.69-1.58l.09-.2.02-.22a67.02 67.02 0 0 1 7.08-23.12 47.994 47.994 0 0 1 9.55-12.69 19.228 19.228 0 0 0-2.05-1.78 51.1 51.1 0 0 0-9.86 13.22 70.048 70.048 0 0 0-7.35 23.87c-.04.1-.09.19-.13.29-.33.74-.64 1.48-.93 2.21a21.609 21.609 0 0 0 2.07 2.1z"/>
                <path id="패스_2505" data-name="패스 2505" class="cls-2" d="M1283.438 345.622c-.19 2.73-7.67 10-14.33 10.52-.03 0-3.33.78-8.17-5.74a65.376 65.376 0 0 0-5.2-6.3c2.4-1.97 5.49-4.59 8.06-7.05l6.59 8.34a.7.7 0 0 0 .8.21 41.586 41.586 0 0 1 7.7-2.03 5.985 5.985 0 0 1 .61-.12.01.01 0 0 1 .01-.01h.03l.27-.03a6.042 6.042 0 0 1 1.59.06 6.905 6.905 0 0 1 1.02.25 1.87 1.87 0 0 1 1.02 1.9z"/>
                <path id="패스_2506" data-name="패스 2506" class="cls-2" d="m1159.978 336.862-17.27-.48a.894.894 0 0 0-.43.08l-.15-.62a8.168 8.168 0 0 0 .31-5.58 11.07 11.07 0 0 0-2.91-5.7l-1.24-5.35c0-1.65.22-2.51 2.16-2.91a.984.984 0 0 1 .89.18c.97.74 1.46 3.14 1.53 4.48a1.062 1.062 0 0 0 .37.74 1.081 1.081 0 0 0 .79.24c4.75-.52 10.02-.85 14.75-1.05z"/>
                <path id="패스_2507" data-name="패스 2507" class="cls-2" d="M1220.778 320.952c-17.11 16.51-39.35 22.36-44.89 23.62-.56-8.94 1.57-13.29 1.6-13.36.17-.56-.26-1.12-.98-1.26a1.386 1.386 0 0 0-1.61.76 23.4 23.4 0 0 0-1.65 7.56h-.01l-10.5-.29-.08-1.05-1.22-16.15-.08-1.05-.08-1.04-.08-1.17 15.79-3.55c1.55.81 3.2 1.58 4.95 2.29 1.58.65 3.23 1.25 4.97 1.8a80.16 80.16 0 0 0 16.2 3.43c1.97.09 3.91.13 5.76.13a100.81 100.81 0 0 0 11.91-.67z"/>
                <path id="패스_2508" data-name="패스 2508" class="cls-3" d="M1160.168 273.492h-.01a.126.126 0 0 1-.06-.01h-.01a1.037 1.037 0 0 1-.58-.6c.03 0 .05.01.08.01.01 0 .02.01.03.01a.418.418 0 0 1 .18.11.3.3 0 0 1 .08.08l.15.21a1.252 1.252 0 0 0 .09.12v.01a.267.267 0 0 1 .05.06z"/>
                <path id="패스_405" data-name="패스 405" class="cls-3" d="M1154.729 277.221a1.047 1.047 0 0 0-1.275-.747 10.21 10.21 0 0 1-1.135.227 2.75 2.75 0 0 0 .155.522l.061.149c.156.375.344.822.55 1.3.3-.056.6-.1.9-.177a1.048 1.048 0 0 0 .746-1.277z"/>
                <path id="패스_407" data-name="패스 407" class="cls-5" d="M1169.618 281.162a7.238 7.238 0 0 1 1.1 6.512z"/>
                <path id="패스_2509" data-name="패스 2509" class="cls-3" d="M1182.108 278.962v.12c-.03 1.53-.76 1.42-1.74 2.28a3.859 3.859 0 0 1-2.67.85c-1.47-.04-2.68-.32-3.34-1.2a3.264 3.264 0 0 1-.57-2.15c.06-2.66 1.98-4.76 4.27-4.7 2.27.06 4.06 2.19 4.05 4.8z"/>
                <path id="패스_2510" data-name="패스 2510" class="cls-5" d="m1188.448 284.552-2.04-1.46-1.77-1.26-2.33-1.66s4.81.22 6.14 4.38z"/>
                <path id="패스_410" data-name="패스 410" class="cls-5" d="M1176.132 282.136s2.989 1.024 4.315 5.18z"/>
                <path id="패스_411" data-name="패스 411" class="cls-4" d="M1178.108 277.209a1.153 1.153 0 1 1-1.1-1.249 1.171 1.171 0 0 1 1.1 1.239v.01z"/>
                <path id="패스_2511" data-name="패스 2511" class="cls-2" d="M1160.988 269.972a6.193 6.193 0 0 1-.87 3.45v.01a.219.219 0 0 1-.03.05 5.847 5.847 0 0 1-.8 1.07l-.12.22-.77 1.36v.01l-.09.17-.55 1.65-.24.71-1.99.38-.03.01s-.98-.39-.98-.59a1.54 1.54 0 0 0-.08-.23 5.384 5.384 0 0 0-.31-.75 4.622 4.622 0 0 0-1.11.2c-.11.02-.21.05-.32.06a6.753 6.753 0 0 1-.76.14h-.01a12.181 12.181 0 0 1-1.91.13l-.42-.03h-.01a6.9 6.9 0 0 1-1.56-.34h-.01a5.686 5.686 0 0 1-.96-.39c-.1-.05-.21-.1-.31-.16a6.619 6.619 0 0 1-.71-.46 3.371 3.371 0 0 1-.38-.28 7.491 7.491 0 0 1-.92-.86c-.1-.11-.2-.22-.29-.33s-.16-.21-.24-.32a3.272 3.272 0 0 1-.72-1.42 6.8 6.8 0 0 1-.2-3.2c.13-1.11.59-1.18 1.18-2.42a1.8 1.8 0 0 1 1-.9 6.108 6.108 0 0 1 2.66-.28c.03.01.06.01.09.02a7.447 7.447 0 0 1 3.5 1.75 8.32 8.32 0 0 0 1.37.98 7.449 7.449 0 0 0 .52-.85c.07-.2.65-1.25 1.17-2.36a1.118 1.118 0 0 1 .19-.29 1.626 1.626 0 0 1 .94-.53 4.9 4.9 0 0 1 1.06-.1c.58 0 1.23.06 1.93.13 1.96.2 1.76 2.1 2.09 4.59z"/>
                <path id="패스_2512" data-name="패스 2512" class="cls-3" d="M1202.818 293.492a65.662 65.662 0 0 1-6.06 3.84 46.023 46.023 0 0 1-5.06 2.4 30.082 30.082 0 0 1-11.22 2.35 22.536 22.536 0 0 1-6.32-.88 25.207 25.207 0 0 1-10.29-6.03c-.36-.33-.71-.67-1.04-1.02-.12-.12-.23-.24-.35-.36-.5-.53-.99-1.08-1.44-1.63-.51-.59-.98-1.19-1.43-1.8a57.335 57.335 0 0 1-6.53-11.69c-.3.05-.61.09-.92.13q-.63.075-1.26.09a9.161 9.161 0 0 1-3.13-.44c-.31-.1-.62-.22-.92-.35-.04-.02-.07-.03-.11-.05a9.141 9.141 0 0 1-1.76-1.08 6.52 6.52 0 0 1-.4-.34 1.492 1.492 0 0 1-.14-.12 7.964 7.964 0 0 1-.85-.89 1.428 1.428 0 0 1-.14-.2 1.658 1.658 0 0 1-.22-.32 6.086 6.086 0 0 1-.71-1.42 6.857 6.857 0 0 1 .53-5.8 4.383 4.383 0 0 1 2.06-2.04 4.333 4.333 0 0 1 1.12-.37 5.1 5.1 0 0 1 1.56-.02 12.142 12.142 0 0 1 5.13 2.29 5.429 5.429 0 0 1 1.78-3.02c.03-.03.06-.05.09-.08a4.111 4.111 0 0 1 .86-.44 4.007 4.007 0 0 1 1.02-.25 4.12 4.12 0 0 1 1.93.26 4.634 4.634 0 0 1 2.98 2.47 8.138 8.138 0 0 1 .13 5.38q.7 1.02 1.44 1.92a25.4 25.4 0 0 0 1.96 2.21c2.95 3 6.05 4.61 9.25 4.82a4.3 4.3 0 0 0 .62.04 13.662 13.662 0 0 0 7.13-2.09 25.067 25.067 0 0 0 6.79-6.14.209.209 0 0 0 .04-.06 1.047 1.047 0 0 1 1.65 1.29 27.317 27.317 0 0 1-5.76 5.6 7.131 7.131 0 0 1 4.6 4.57v.01a1.044 1.044 0 1 1-1.99.63 4.6 4.6 0 0 0-1.03-1.77 5.354 5.354 0 0 0-1.77-1.26 7.438 7.438 0 0 0-2.33-.62 16.867 16.867 0 0 1-3.57 1.4 10.023 10.023 0 0 1 2.69 4.38l.01.01a1.05 1.05 0 0 1-.69 1.31 1.04 1.04 0 0 1-1.3-.69 6.862 6.862 0 0 0-3.67-4.51c-.01 0-.02-.01-.04-.02-.26.02-.52.05-.78.05a13.752 13.752 0 0 1-3.38-.51 7.64 7.64 0 0 1 .11 5.39 1.041 1.041 0 0 1-1.34.62 1.03 1.03 0 0 1-.62-1.33 6.178 6.178 0 0 0-.94-5.5 1.215 1.215 0 0 1-.18-.36 24.812 24.812 0 0 1-4.32-3.16 21.609 21.609 0 0 1-2.07-2.1 23.471 23.471 0 0 1-2.06-2.7c-.01-.02-.03-.04-.04-.06v-.01a1.252 1.252 0 0 1-.09-.12l-.15-.21a.3.3 0 0 0-.08-.08.418.418 0 0 0-.18-.11c-.01 0-.02-.01-.03-.01a.292.292 0 0 0-.09-.02 1.074 1.074 0 0 1 0-.75 8.212 8.212 0 0 0 .37-1.31 5.482 5.482 0 0 0-.17-3.23 2.631 2.631 0 0 0-1.7-1.37 2.129 2.129 0 0 0-.85-.18h-.01a2 2 0 0 0-1.01.26.467.467 0 0 0-.1.05 2.621 2.621 0 0 0-.74.95 6.643 6.643 0 0 0-.55 2.42 1.03 1.03 0 0 1-.27.69 1.042 1.042 0 0 1-1.47.07 14.747 14.747 0 0 0-4.28-2.65 4.4 4.4 0 0 0-2.13-.28 2.267 2.267 0 0 0-.77.31 2.38 2.38 0 0 0-.93 1.03 4.8 4.8 0 0 0-.33 4.28 4.189 4.189 0 0 0 .6 1.07.763.763 0 0 0 .08.11 5.718 5.718 0 0 0 2.06 1.61c.04.02.08.04.13.06.08.04.17.08.26.12.06.03.13.05.2.08a2.178 2.178 0 0 0 .36.12 9.181 9.181 0 0 0 3.41.46c.23-.01.45-.03.67-.06a1.494 1.494 0 0 0 .21-.02v-.02a10.727 10.727 0 0 0 1.13-.22.821.821 0 0 1 .22-.02 1.063 1.063 0 0 1 .58.14.95.95 0 0 1 .47.62 1.014 1.014 0 0 1 0 .49c.17.41.37.86.59 1.35a57.469 57.469 0 0 0 4.13 7.71c.06.1.13.19.2.29.49.76 1.02 1.52 1.59 2.27.27.36.55.72.84 1.07.21.27.44.54.67.8a24.78 24.78 0 0 0 11.78 8.01 21.565 21.565 0 0 0 8.52.63 27.656 27.656 0 0 0 4.46-.92 34.927 34.927 0 0 0 4.94-1.85 53.716 53.716 0 0 0 8.96-5.27h.01a1.041 1.041 0 0 1 1.45.25.838.838 0 0 1 .13.29 1.039 1.039 0 0 1-.39 1.16z"/>
                <path id="패스_2513" data-name="패스 2513" class="cls-2" d="M1138.248 323.672a4.883 4.883 0 0 0-1.17-.45 1.212 1.212 0 0 0-.18-.05 8.035 8.035 0 0 0-4.4.53 6.145 6.145 0 0 0-.96.48l-.33-1.41-.52-2.27-2.09-9.02-.23-1.03-.24-1.01-.04-.18 6.49-1.5.04.17.23 1.02.24 1.02 1.53 6.63 1.05 4.55z"/>
                <path id="패스_2514" data-name="패스 2514" class="cls-2" d="m1142.638 342.682-6.48 1.5-.72-3.13-.28-1.18c.36-.03.71-.08 1.04-.14a9.166 9.166 0 0 0 4.28-1.79l-.11-.48c.37-.17.69-.33.96-.47l.02.08.46 2.02z"/>
                <path id="패스_414" data-name="패스 414" class="cls-3" d="m1143.658 342.452-.89-3.87-.49-2.12-.15-.62a5.244 5.244 0 0 1-.63 1.04c-.01.01-.02.02-.02.03h-.01a1 1 0 0 0-.14.08c-.27.14-.59.3-.96.47l.11.48.37 1.6.55 2.37-4.46 1.03-.47-2.02-.27-1.19c-.33.06-.68.11-1.04.14q-.51.06-1.05.09l.26 1.12.77 3.35a1.036 1.036 0 0 0 1.01.81 1.938 1.938 0 0 0 .24-.02l6.49-1.51a1.048 1.048 0 0 0 .78-1.26zm-5.37-23.24-.86-3.73-1.33-5.74-.23-1.03-.24-1.01-.04-.18a1.035 1.035 0 0 0-1.25-.78l-6.49 1.5a1.058 1.058 0 0 0-.78 1.26l.04.17.23 1.02.24 1.02 2.2 9.52.59 2.57.24 1.01a6.333 6.333 0 0 1 .93-.63 6.145 6.145 0 0 1 .96-.48l-.37-1.6-.5-2.15-2.01-8.71-.24-1.02-.04-.18 4.46-1.03.04.17.24 1.03 2.03 8.81.5 2.14.47 2.06a4.883 4.883 0 0 1 1.17.45 5.55 5.55 0 0 1 1.28.89z"/>
                <path id="패스_2487" data-name="패스 2487" class="cls-2" d="m1089.767 275.218 64.939-15.068 9.689 41.94-64.94 15.068z"/>
                <path id="패스_415" data-name="패스 415" class="cls-3" d="m1165.418 301.862-.54-2.33-1.01-4.36-.91-3.98-.7-3.01v-.03l-1.63-7.04-1.46-6.34-2.02-8.74h-.01l-.17-.78-.3-1.3-.94-4.05a1.043 1.043 0 0 0-1.25-.78l-7.78 1.81-2.62.6-54.55 12.67a1.042 1.042 0 0 0-.78 1.25l9.69 41.96a1.049 1.049 0 0 0 1.02.81.851.851 0 0 0 .23-.03l27.89-6.48 1.02-.23 1.02-.24 4.46-1.03 1.01-.24 1.01-.23 15.75-3.66 3.25-.75 8.96-2.09.58-.13a1.042 1.042 0 0 0 .78-1.25zm-2.57-.48-9.7 2.25-3 .7-14.52 3.37-1.01.23-6.49 1.51-1.02.23-26.87 6.24-9.22-39.91 53.47-12.42 2.61-.6 6.83-1.59.77 3.33.27 1.16.32 1.41 2.47 10.67 1.93 8.39.17.7 1.18 5.11 2.11 9.15z"/>
                <path id="패스_2515" data-name="패스 2515" class="cls-2" d="M1169.828 309.332c-.62.08-1.24.14-1.88.16a20.229 20.229 0 0 1-12.85-4.16l8.96-2.09a28.74 28.74 0 0 0 5.77 6.09z"/>
                <path id="패스_2516" data-name="패스 2516" class="cls-2" d="M1182.488 234.8c-.69.59-1.35 1.19-2 1.8a51.1 51.1 0 0 0-9.86 13.22 70.048 70.048 0 0 0-7.35 23.87c-.04.1-.09.19-.13.29q-.735-.9-1.44-1.92a8.138 8.138 0 0 0-.13-5.38 4.634 4.634 0 0 0-2.98-2.47 4.12 4.12 0 0 0-1.93-.26l-.94-4.05a1.043 1.043 0 0 0-1.25-.78l-7.78 1.81c-.98-5.98-.5-13.09 2.19-18.72a16.275 16.275 0 0 1 13-9.66c8.92-1.12 14.82 1.19 18.6 4.04a46.741 46.741 0 0 1 2-1.79z"/>
                <path id="패스_416" data-name="패스 416" class="cls-3" d="m1118.732 292.569 3.29-.827 1.567 6.255c.611 2.438 1.245 3.411 3.017 2.964s1.871-1.6 1.26-4.041l-1.567-6.255 3.289-.828 1.567 6.256c1 3.977.424 6.7-3.824 7.767s-6.036-1.057-7.032-5.034z"/>
                <path id="패스_417" data-name="패스 417" class="cls-3" d="m1137.6 300.959-2.368-9.464-3.733.939-.725-2.9 10.765-2.711.726 2.9-3.747.943 2.369 9.463z"/>
                <path id="패스_418" data-name="패스 418" class="cls-3" d="m1102.657 293.123-2.359.592-.284-9.447 2.357-.591.078 2.652 1.355-.34 2.818 6.136-2.359.593-1.734-3.767zm5.9-7.744.555 2.215-.8.2.921 3.671-2.309.581-2.292-9.155 2.307-.581.818 3.269z"/>
                <path id="패스_419" data-name="패스 419" class="cls-3" d="M1109.312 286.207c-.713-2.849-.184-4.231 1.954-4.771s3.256.432 3.968 3.277l.251 1.006c.713 2.849.186 4.234-1.953 4.772s-3.255-.431-3.967-3.28zm3.739-.836c-.459-1.831-.754-2.163-1.305-2.023s-.658.573-.2 2.4l.2.806c.461 1.832.757 2.163 1.308 2.023s.657-.571.2-2.4zm6.619 3.469-2.308.581-2.293-9.155 2.308-.581z"/>
                <path id="패스_420" data-name="패스 420" class="cls-3" d="M1107.15 302.054c-1.014-4.049.443-7 4.5-8.019s6.726.889 7.742 4.938-.444 6.995-4.5 8.016-6.729-.882-7.743-4.935zm3.288-.828c.63 2.515 2 3.3 3.729 2.866s2.564-1.777 1.934-4.29-2-3.3-3.728-2.866-2.565 1.777-1.935 4.29z"/>
                <path id="패스_421" data-name="패스 421" class="cls-3" d="m1146.869 272.582.818 3.268-3.31.834.111.443 3.366-1.04.379 1.51-5.648 1.732-.869-3.47 3.31-.836-.087-.351-3.313.834-.378-1.508zm3.5 8.851-.378-1.508-6.825 1.717-.479-1.91 9.131-2.3.858 3.422zm1.351-4.4-2.308.582-.227-.907-.8.2-.4-1.613.8-.2-.175-.7-.8.2-.4-1.607.8-.2-.2-.806 2.306-.581z" transform="translate(-3 .599)"/>
                <path id="패스_422" data-name="패스 422" class="cls-3" d="m1141.519 278.495.383 1.53-9.234 2.324-.382-1.531 3.463-.873-.1-.4-3.162.8-.344-1.378 1.255-.317-.3-1.187-1.253.316-.359-1.432 8.631-2.172.359 1.428-1.256.316.3 1.187 1.253-.316.346 1.378-3.162.8.1.4zm-8.1 5.558-.371-1.479 8.632-2.173.733 2.928-2.309.582-.362-1.449zm2.088-5.938 1.907-.478-.3-1.188-1.907.479z" transform="translate(-3 .599)"/>
                <path id="패스_423" data-name="패스 423" class="cls-3" d="m1145.35 295.141-2.309-9.226 3.289-.827 2.31 9.226zm.912 3.637-.726-2.9 3.29-.827.726 2.9z"/>
                <path id="패스_424" data-name="패스 424" class="cls-3" d="m1125.566 283.4.757 3.019-5.745 2.2-2.217-8.852 2.208-.557.63 2.516 1.507-.38-.631-2.515 2.206-.557.758 3.019.9-.227-.832-3.32 2.308-.582 2.293 9.156-2.308.581-.931-3.724zm-3.325 2.485 1.46-.561-.519-2.072-1.506.379z"/>
                <path id="패스_2517" data-name="패스 2517" class="cls-2" d="M1140.588 333.812v.01a3.913 3.913 0 0 1-.67 1.68l-.08.11a5.155 5.155 0 0 1-2.41 1.63 10.639 10.639 0 0 1-1.71.44 17.148 17.148 0 0 1-2.09.2h-.09a1.223 1.223 0 0 0-.19.02 1.043 1.043 0 0 0-.8.74c-.14-.06-.28-.12-.42-.19-1.82-.93-2.88-3.13-3.13-6.56-.27-3.56.19-6.27 1.37-8.09l.24 1.01a4.6 4.6 0 0 0-.54.45 1.183 1.183 0 0 0-.19 1.17 1.066 1.066 0 0 0 .42.47 1.028 1.028 0 0 0 .76.12c.02 0 .04-.01.06-.01a1.034 1.034 0 0 0 .61-.48 2.342 2.342 0 0 1 .3-.22 6.714 6.714 0 0 1 .94-.55 5.476 5.476 0 0 1 3.59-.53 3.524 3.524 0 0 1 1.11.52 4.961 4.961 0 0 1 1.42 1.57.01.01 0 0 0 .01.01 12.1 12.1 0 0 1 1.31 3.42 7.446 7.446 0 0 1 .18 3.06z"/>
                <path id="패스_426" data-name="패스 426" d="M1131.818 325.662a.235.235 0 0 0-.02-.08m8.68 12.36a7.153 7.153 0 0 0 .87-.87 1.682 1.682 0 0 0 .12-.16" style="fill:none"/>
                <path id="패스_2518" data-name="패스 2518" class="cls-3" d="M1142.128 335.842a5.244 5.244 0 0 1-.63 1.04c-.01.01-.02.02-.02.03h-.01a1 1 0 0 0-.14.08c-.27.14-.59.3-.96.47l.11.48a9.166 9.166 0 0 1-4.28 1.79c-.33.06-.68.11-1.04.14q-.51.06-1.05.09c-.16.01-.34.02-.51.02h-.03a1.05 1.05 0 0 1-1.06-1.04 1.031 1.031 0 0 1 .04-.3 1.043 1.043 0 0 1 .8-.74 1.223 1.223 0 0 1 .19-.02h.09a17.148 17.148 0 0 0 2.09-.2 10.639 10.639 0 0 0 1.71-.44 5.155 5.155 0 0 0 2.41-1.63l.08-.11a3.913 3.913 0 0 0 .67-1.68v-.01a7.446 7.446 0 0 0-.18-3.06 12.1 12.1 0 0 0-1.31-3.42.01.01 0 0 1-.01-.01 4.961 4.961 0 0 0-1.42-1.57 3.524 3.524 0 0 0-1.11-.52 5.476 5.476 0 0 0-3.59.53 6.714 6.714 0 0 0-.94.55 2.342 2.342 0 0 0-.3.22 1.034 1.034 0 0 1-.61.48c-.02 0-.04.01-.06.01a1.028 1.028 0 0 1-.76-.12 1.066 1.066 0 0 1-.42-.47 1.183 1.183 0 0 1 .19-1.17 4.6 4.6 0 0 1 .54-.45 6.333 6.333 0 0 1 .93-.63 6.145 6.145 0 0 1 .96-.48 8.035 8.035 0 0 1 4.4-.53 1.212 1.212 0 0 1 .18.05 4.883 4.883 0 0 1 1.17.45 5.55 5.55 0 0 1 1.28.89 11.07 11.07 0 0 1 2.91 5.7 8.168 8.168 0 0 1-.31 5.58z"/>
                <path id="패스_2519" data-name="패스 2519" class="cls-2" d="M1204 292.182a3.673 3.673 0 0 1-1.36 2 23.739 23.739 0 0 1-5.88 3.15 26.248 26.248 0 0 1-9.04 1.58 34.3 34.3 0 0 1-9.37-1.34c-1.43-.4-3.5-1.55-2.98-3.57.52-2.05 3.05-1.3 5.97-1.74a28.322 28.322 0 0 0 9.24-2.83c2.9-1.59 4.78-2.71 5.96-3.46a4.245 4.245 0 0 1 2.21-.68 4.3 4.3 0 0 1 3.44 1.55c.2.25.41.52.63.83a7.157 7.157 0 0 1 1.26 3.07 3.66 3.66 0 0 1-.08 1.44z"/>
                <path id="패스_428" data-name="패스 428" class="cls-3" d="M1207.808 298.832v-.01c-1.02-1.65-3.99-2.12-6.82-2.17a28.038 28.038 0 0 0 3.52-2.25 1.271 1.271 0 0 0 .22-1.78 1.089 1.089 0 0 0-.73-.44 1.225 1.225 0 0 0-.19-.02 1.1 1.1 0 0 0-.6.17l-.09.06a25.961 25.961 0 0 1-10.46 4.67 29.762 29.762 0 0 1-14.02-.68 3.576 3.576 0 0 1-2.05-1.3.954.954 0 0 1-.09-.74c.13-.48.57-.6 2.48-.67a19.9 19.9 0 0 0 2.55-.2 28.765 28.765 0 0 0 9.61-2.95 75.805 75.805 0 0 0 6.82-4.08l.27-.17a1.188 1.188 0 0 0 .52-.98 1.006 1.006 0 0 0-.07-.48l-.01-.02a1.159 1.159 0 0 0-1.47-.73.905.905 0 0 0-.26.13q-.12.075-.27.18a78.293 78.293 0 0 1-6.65 3.97 27.079 27.079 0 0 1-8.87 2.7 19.43 19.43 0 0 1-2.28.17c-1.9.07-4.05.14-4.65 2.47a3.524 3.524 0 0 0 .33 2.62 5.891 5.891 0 0 0 3.51 2.46 32.079 32.079 0 0 0 13.64.97l.43-.06a25.871 25.871 0 0 0 2.9-.65 1.038 1.038 0 0 0 .49.06c1.01-.14 2.07-.24 3.1-.3-.35 1.43-.93 4.69.39 6.72a3.69 3.69 0 0 0 2.75 1.65c.16.02.32.03.48.04a6.088 6.088 0 0 0 5.57-2.7 5.226 5.226 0 0 0 0-5.66zm-5.81 6.25a1.614 1.614 0 0 1-1.24-.72c-.93-1.43-.27-4.61.03-5.62 2.61.03 4.75.39 5.24 1.19a3.117 3.117 0 0 1 .02 3.44 4.14 4.14 0 0 1-4.048 1.71z"/>
                <path id="패스_2520" data-name="패스 2520" class="cls-2" d="M1282.458 269.9c3.82-6.01 5.17-18.4 1.09-27.26a16.3 16.3 0 0 0-12.87-9.85c-9.24-1.28-15.28 1.16-19.08 4.12q-.555.435-1.05.87c-.35.31-.67.62-.97.94a17.459 17.459 0 0 0-3.72 5.47.01.01 0 0 1-.01.01 1.324 1.324 0 0 1-1.71.77 1.339 1.339 0 0 1-.78-1.72 20.856 20.856 0 0 1 4.12-6.09c-10.82-7.61-24.18-9.66-34.95-9.77l-.61-.01c-10.46 0-18.5 2.96-24.68 7.22-.95.65-1.85 1.33-2.71 2.03-.69.57-1.35 1.15-1.99 1.75a47.994 47.994 0 0 0-9.55 12.69 67.02 67.02 0 0 0-7.08 23.12l-.02.22-.09.2c-.24.53-.48 1.06-.69 1.58 2.95 3 6.05 4.61 9.25 4.82a3.264 3.264 0 0 1-.57-2.15c.06-2.66 1.98-4.76 4.27-4.7 2.27.06 4.06 2.19 4.05 4.8a25.067 25.067 0 0 0 6.79-6.14.209.209 0 0 0 .04-.06 1.047 1.047 0 0 1 1.65 1.29 27.317 27.317 0 0 1-5.76 5.6 7.131 7.131 0 0 1 4.6 4.57v.01a1.044 1.044 0 1 1-1.99.63 4.6 4.6 0 0 0-1.03-1.77l-1.77-1.26a7.438 7.438 0 0 0-2.33-.62 16.867 16.867 0 0 1-3.57 1.4 10.023 10.023 0 0 1 2.69 4.38l.01.01a1.05 1.05 0 0 1-.69 1.31 1.04 1.04 0 0 1-1.3-.69 6.862 6.862 0 0 0-3.67-4.51c-.01 0-.02-.01-.04-.02-.26.02-.52.05-.78.05a13.752 13.752 0 0 1-3.38-.51 7.64 7.64 0 0 1 .11 5.39 1.041 1.041 0 0 1-1.34.62 1.03 1.03 0 0 1-.62-1.33 6.178 6.178 0 0 0-.94-5.5 1.215 1.215 0 0 1-.18-.36 24.812 24.812 0 0 1-4.32-3.16 21.609 21.609 0 0 1-2.07-2.1 23.471 23.471 0 0 1-2.06-2.7.126.126 0 0 1-.06-.01h-.01a5.847 5.847 0 0 1-.8 1.07l-.12.22 1.46 6.34 1.63 7.04v.03l.7 3.01a24.78 24.78 0 0 0 11.78 8.01 21.565 21.565 0 0 0 8.52.63 31.781 31.781 0 0 1-5.2-1.07 5.891 5.891 0 0 1-3.51-2.46 3.524 3.524 0 0 1-.33-2.62c.6-2.33 2.75-2.4 4.65-2.47a19.43 19.43 0 0 0 2.28-.17 27.079 27.079 0 0 0 8.87-2.7c2.28-1.21 4.5-2.54 6.65-3.97q.15-.105.27-.18a.905.905 0 0 1 .26-.13 1.159 1.159 0 0 1 1.47.73l.01.02a1.006 1.006 0 0 1 .07.48 4.3 4.3 0 0 1 3.44 1.55c.2.25.41.52.63.83a7.157 7.157 0 0 1 1.26 3.07 3.66 3.66 0 0 1-.08 1.44 1.089 1.089 0 0 1 .73.44 1.271 1.271 0 0 1-.22 1.78 28.038 28.038 0 0 1-3.52 2.25c2.83.05 5.8.52 6.82 2.17v.01a5.226 5.226 0 0 1 0 5.66 6.088 6.088 0 0 1-5.57 2.7c-.16-.01-.32-.02-.48-.04a3.69 3.69 0 0 1-2.75-1.65c-1.32-2.03-.74-5.29-.39-6.72-1.03.06-2.09.16-3.1.3a1.038 1.038 0 0 1-.49-.06 25.871 25.871 0 0 1-2.9.65l-.43.06a30.082 30.082 0 0 1-11.22 2.35 22.536 22.536 0 0 1-6.32-.88 25.207 25.207 0 0 1-10.29-6.03l1.01 4.36c.08.14.16.29.24.43a27.531 27.531 0 0 0 8.11 8.6 36.7 36.7 0 0 0 2.73 1.78 52.85 52.85 0 0 0 7.99 3.84c1.21.47 2.45.92 3.75 1.33a79.69 79.69 0 0 0 15.56 3.3c1.89.09 3.79.13 5.59.13a95.809 95.809 0 0 0 14.95-1.11c.63-.1 1.24-.21 1.87-.33s1.25-.23 1.87-.36l14.63-5.05a.251.251 0 0 1 .07-.04c.48-.24.94-.5 1.41-.76q.645-.36 1.29-.75a43.955 43.955 0 0 0 5.31-3.71 24.674 24.674 0 0 1-6.26-9.34.185.185 0 0 0-.02-.07 1.333 1.333 0 1 1 2.51-.9 22.025 22.025 0 0 0 5.76 8.57c.34.3.68.59 1.04.87s.73.54 1.11.78a18.068 18.068 0 0 0 9.18 2.91 20.285 20.285 0 0 0 19.03-11.37 29.1 29.1 0 0 0-.15-26.95 1.342 1.342 0 0 1 .01-1.43zm-98.69 2.26c-.03 0-.1 0-.23-.01a14.65 14.65 0 0 1-9.46-4.94 1.07 1.07 0 0 1 .09-1.46.991.991 0 0 1 1.39.06c.01.01.01.02.02.03a12.842 12.842 0 0 0 8.29 4.26 1.038 1.038 0 0 1 .94 1.12 1.027 1.027 0 0 1-1.04.942zm21.78.27h-.24a1.056 1.056 0 0 1-1-1.09 1.016 1.016 0 0 1 1.03-1h.06a13.667 13.667 0 0 0 9.01-3.54 1.053 1.053 0 0 1 1.48.02 1.041 1.041 0 0 1-.02 1.47l-.03.03a15.534 15.534 0 0 1-10.29 4.112zm7.55 14.1c-2.76-.04-4.95-2.58-4.91-5.66s2.3-5.55 5.05-5.51 4.95 2.58 4.91 5.66-2.3 5.552-5.048 5.512z"/>
            </g>
        </g>
    </g>
</svg>
