<svg xmlns="http://www.w3.org/2000/svg" width="250" height="250">
    <defs>
        <style>
            .cls-3{fill:#36607b}.cls-4{fill:#567bb0}.cls-5,.cls-8{fill:none}.cls-6{fill:#35607a}.cls-7,.cls-8{stroke-linecap:round;stroke-linejoin:round}.cls-7{fill:#c44d58;stroke:#35607a;stroke-width:1.984px}.cls-8{stroke:#567bb0;stroke-width:2.5px}
        </style>
    </defs>
    <g id="그룹_3614" data-name="그룹 3614" transform="translate(-677 -867.327)">
        <circle id="타원_1234" data-name="타원 1234" cx="125" cy="125" r="125" transform="translate(677 867.327)" style="fill:#f5f9ff"/>
        <g id="그룹_2349" data-name="그룹 2349" transform="translate(298.831 -926.923)">
            <path id="패스_2760" data-name="패스 2760" d="M412.5 757.619a.627.627 0 0 0-.146.012 29.489 29.489 0 0 0-1.536-11.984 8.047 8.047 0 0 0 .9-1.118 6.7 6.7 0 0 0-.056-7.546 4.465 4.465 0 0 0-2.294-1.9c1.6-7.217.915-17.835-4.462-25.165a17.545 17.545 0 0 0-13.7-7.376c-11.194-.542-17.609 3.807-21.133 7.885-6.8-4.823-15.745-7.85-27.469-6.823-13.622 1.2-24.6 5.185-32.644 11.883a18.758 18.758 0 0 0-1.581-1.276c-3.874-2.835-10.673-5.727-21.087-3.456-6.325 1.377-10.911 5.455-13.26 11.78-3.513 9.431-1.232 21.359 2.937 27.47a29.818 29.818 0 0 0 2.2 27.232 21.773 21.773 0 0 0 18.67 10.719 22.473 22.473 0 0 0 2.6-.158 19.682 19.682 0 0 0 11.951-6 39.862 39.862 0 0 0 5.375 3.2c-4.36 11.622-8.37 27.548-11.34 44.977a1.174 1.174 0 0 0 .249.937 1.158 1.158 0 0 0 .881.407h69.667a1.183 1.183 0 0 0 .825-.339 1.15 1.15 0 0 0 .327-.836c-.08-5.015-.362-10.346-.847-15.926 9.567-1.378 16.66-5.174 20.534-10.991a34.675 34.675 0 0 0 3.344-6.246l5.343 2.609a1.265 1.265 0 0 0 .406.1.7.7 0 0 0 .181.012 6.662 6.662 0 0 0 4.3-1.887c3.49-3.128 5.433-9.431 5.76-18.727.294-8.516-.294-14.639-1.728-18.185-1.216-2.99-2.741-3.273-3.167-3.284z" transform="translate(157.506 1146.592)" style="fill:#fff"/>
            <g id="그룹_429" data-name="그룹 429">
                <g id="그룹_427" data-name="그룹 427" transform="translate(157.31 1146.418)">
                    <g id="그룹_404" data-name="그룹 404" transform="translate(377.191 804.523)">
                        <g id="그룹_403" data-name="그룹 403">
                            <path id="패스_2734" data-name="패스 2734" class="cls-3" d="M363.2 790.868v.046h-.058a.2.2 0 0 0 .058-.046z" transform="translate(-363.138 -790.868)"/>
                        </g>
                    </g>
                    <g id="그룹_405" data-name="그룹 405" transform="translate(402.42 795.061)">
                        <path id="패스_2735" data-name="패스 2735" class="cls-3" d="m385.42 782.842-.392-.184a.146.146 0 0 1 .069.012 1.485 1.485 0 0 1 .323.172z" transform="translate(-385.028 -782.658)"/>
                    </g>
                    <g id="그룹_406" data-name="그룹 406" transform="translate(370.183 711.812)">
                        <path id="패스_2736" data-name="패스 2736" class="cls-3" d="M357.427 710.7a1.384 1.384 0 0 1-.242-.15.416.416 0 0 1-.127-.127c.127.087.254.189.369.277z" transform="translate(-357.058 -710.428)"/>
                    </g>
                    <g id="그룹_407" data-name="그룹 407" transform="translate(271.019 701.357)">
                        <path id="패스_2737" data-name="패스 2737" class="cls-4" d="M417.311 760.957c-1.245-3.054-2.8-3.342-3.239-3.354a.654.654 0 0 0-.15.012 30.081 30.081 0 0 0-1.567-12.229 8.083 8.083 0 0 0 .922-1.141 6.829 6.829 0 0 0-.058-7.7 4.559 4.559 0 0 0-2.34-1.936c1.637-7.365.934-18.2-4.553-25.679a17.905 17.905 0 0 0-13.98-7.526c-11.422-.553-17.968 3.885-21.564 8.045-6.938-4.921-16.067-8.01-28.03-6.961-13.9 1.222-25.1 5.29-33.309 12.125a19.373 19.373 0 0 0-1.614-1.3c-3.953-2.893-10.892-5.844-21.518-3.528-6.454 1.406-11.134 5.568-13.531 12.021-3.584 9.624-1.256 21.8 3 28.03a30.428 30.428 0 0 0 2.247 27.788 22.219 22.219 0 0 0 19.052 10.939 22.637 22.637 0 0 0 2.651-.162 20.068 20.068 0 0 0 12.194-6.12 40.739 40.739 0 0 0 5.486 3.262c-4.449 11.86-8.54 28.111-11.572 45.9a1.163 1.163 0 0 0 1.153 1.37h71.089a1.205 1.205 0 0 0 .841-.346 1.173 1.173 0 0 0 .334-.853c-.081-5.117-.369-10.557-.864-16.25 9.762-1.407 17-5.28 20.953-11.215a35.464 35.464 0 0 0 3.412-6.373l5.452 2.661a1.294 1.294 0 0 0 .415.1.72.72 0 0 0 .184.011 6.8 6.8 0 0 0 4.391-1.924c3.561-3.193 5.544-9.625 5.878-19.11.298-8.692-.301-14.938-1.765-18.557zm-25.08-57.2a15.4 15.4 0 0 1 12.194 6.558c4.921 6.708 5.751 17.069 4.069 24.123a11.143 11.143 0 0 0-4.9 2.525 5.273 5.273 0 0 0-2.04-2.733 4.181 4.181 0 0 0-3.861-.149 4.7 4.7 0 0 0-2.732 2.546 7.692 7.692 0 0 0 .184 5.417 29.672 29.672 0 0 1-2.763 3.956c-.254-.473-.519-.956-.784-1.441-.415-2.305-4.38-22-18.925-33.678 3.25-3.714 9.163-7.631 19.559-7.126zm-78.777 76.727a24.24 24.24 0 0 0 3.919-7.78 1.18 1.18 0 0 0-2.259-.681 21.96 21.96 0 0 1-4.092 7.78l-.023.011a1.117 1.117 0 0 1-.254.288s.023.011-.012.011a17.436 17.436 0 0 1-11.295 5.947 19.81 19.81 0 0 1-19.4-9.634 28.393 28.393 0 0 1-1.867-26.164 1.205 1.205 0 0 0-.092-1.256c-4.172-5.555-6.408-17.484-3.1-26.382a15.944 15.944 0 0 1 11.825-10.546c18.522-4.034 24.78 8.679 25.045 9.232a1.17 1.17 0 0 0 2.121-.991 17.472 17.472 0 0 0-2.847-4.045c7.814-6.43 18.521-10.281 31.833-11.445 10.627-.934 19.732 1.406 27.223 6.984.127.082.254.184.369.277a43.673 43.673 0 0 1 10.292 11.456 64.091 64.091 0 0 1 8.471 21.6 1.126 1.126 0 0 0 .138.392c.438.784.841 1.556 1.21 2.305a12.532 12.532 0 0 1-7.538 3.723c-7.5.658-13.911-6.789-13.969-6.857a1.177 1.177 0 1 0-1.8 1.52 26.993 26.993 0 0 0 5.867 4.933 6.894 6.894 0 0 0-3.93 4.691 1.092 1.092 0 0 0 .807 1.3 1.127 1.127 0 0 0 .334.022 1.086 1.086 0 0 0 .968-.83c.669-2.835 3.515-3.642 4.426-3.814a16.587 16.587 0 0 0 3.561 1.13 9.753 9.753 0 0 0-2.144 4.263 1.085 1.085 0 0 0 2.109.507 6.821 6.821 0 0 1 2.985-4.482 8.983 8.983 0 0 0 .98-.047 13.213 13.213 0 0 0 3.066-.645 7.458 7.458 0 0 0 .38 4.992 1.1 1.1 0 0 0 1.072.634 1.218 1.218 0 0 0 .357-.093 1.069 1.069 0 0 0 .542-1.429 5.853 5.853 0 0 1 .5-5.325.673.673 0 0 0 .092-.184 24.064 24.064 0 0 0 7.711-8.4c.012 0 .023-.012.035-.012a1.182 1.182 0 0 0 .542-1.566 3.188 3.188 0 0 1-.127-.3c-.012-.023-.023-.059-.035-.082-.265-.668-.91-2.582-.323-3.929a2.355 2.355 0 0 1 1.429-1.292c1.095-.437 1.6-.138 1.763-.035.98.6 1.36 2.445 1.418 3.044a1.18 1.18 0 0 0 2.029.7c.934-.968 3.792-3.446 5.855-3.262a2.085 2.085 0 0 1 1.625 1.108 4.474 4.474 0 0 1 .069 5.116 5.356 5.356 0 0 1-1.06 1.164 8 8 0 0 1-6.57 1.429 1.58 1.58 0 0 0-.219-.023 1.183 1.183 0 0 0-.357.059c-.081.035-.15.068-.219.1a.75.75 0 0 0-.173.115 1.193 1.193 0 0 0-.254.3.731.731 0 0 0-.081.161.2.2 0 0 0-.023.058 52.13 52.13 0 0 1-8.125 15.052 1.332 1.332 0 0 0-.242.519l-18.2 3.92-.069-.37c-.53-2.305-2.466-2.374-4.172-2.443a14.212 14.212 0 0 1-2.052-.173 22.631 22.631 0 0 1-7.964-2.674 67.744 67.744 0 0 1-5.982-3.942 3.226 3.226 0 0 0-.242-.184 1.016 1.016 0 0 0-1.556.6v.023a1.3 1.3 0 0 0 .4 1.452 2.371 2.371 0 0 0 .242.174 66.2 66.2 0 0 0 6.132 4.046 24.253 24.253 0 0 0 8.633 2.926 15.272 15.272 0 0 0 2.294.2c1.706.07 2.109.184 2.213.668a.978.978 0 0 1 .023.4 8.515 8.515 0 0 1-2.755 1.845c-.012.012-.035.012-.046.023-10.592 2.915-17.865-1.464-21.126-4.208a.975.975 0 0 0-1.452.23 1.337 1.337 0 0 0 .2 1.763.867.867 0 0 0 .161.127 11.724 11.724 0 0 0-4.633 3.493 8.6 8.6 0 0 0-1.256 7.767 9.3 9.3 0 0 0 1.337 2.789l.069.1c2.455 3.364 7.215 5.116 14.142 5.233a4.738 4.738 0 0 0 .7 2.327 32.74 32.74 0 0 1-.726.138c-15.721 1.936-28.733.53-38.83-4.194a1.054 1.054 0 0 1-.173-.082 39.585 39.585 0 0 1-5.849-3.368zm98.071-22.372-14.188 3.055a55.213 55.213 0 0 0 6.915-13.175c.4.035.8.058 1.187.058a10.342 10.342 0 0 0 4.921-1.187 27.95 27.95 0 0 1 1.166 11.247zm-50.632 17.081a29.77 29.77 0 0 0-15.34 2.975 6.786 6.786 0 0 1-.5-1.269 6.248 6.248 0 0 1 .669-5.429 9.275 9.275 0 0 1 5.129-3.422 1.42 1.42 0 0 0 .231-.024 23.963 23.963 0 0 0 8.552 3.365c.4.069.83.14 1.256.184a5.329 5.329 0 0 0-.288 1.719 6.1 6.1 0 0 0 .292 1.899zm1.5 2.512h.012a5.377 5.377 0 0 0 .98.853c.046.023.081.046.127.069l1.141.553a7.32 7.32 0 0 0-.807 2.7 4.369 4.369 0 0 0-4.749 1.452c-6.754.012-10.258-1.6-12.079-3.263 6.949-3.461 14.533-2.48 15.374-2.369zm-54.009 52.752c2.962-17.012 6.892-32.5 11.168-43.911 7.261 3.18 15.882 4.782 25.806 4.782a108.454 108.454 0 0 0 13.289-.864s.127-.023.357-.069c-11.088 7.837-22.025 1.3-22.509 1a1.177 1.177 0 0 0-1.233 2.005 25.389 25.389 0 0 0 12.067 3.122 22.8 22.8 0 0 0 15.456-6.12 1.179 1.179 0 0 0-.092-1.833c-.023-.022-2.72-2.05-1.8-3.7.9-1.614 3.584-.323 3.607-.311a1.168 1.168 0 0 0 1.222-.1 1.182 1.182 0 0 0 .461-1.14 5.111 5.111 0 0 1 1.037-3.759c1.164-1.382 3.239-2.1 6.166-2.121h.069c4.553 0 7.5 2.778 8.1 7.62 0 .035.012.079.012.126a21.1 21.1 0 0 1-1.049 8.542c-.035.1-.058.206-.1.311v.022a34.974 34.974 0 0 1-1.982 4.771c-5.947 11.837-25.01 15.63-40.2 14.166a1.176 1.176 0 0 0-.231 2.34q3.786.361 7.284.356c13.5 0 23.65-3.884 29.828-9.14 1.014 8.5 1.6 16.516 1.763 23.9zm73.948-28.674-3.066.229a16.808 16.808 0 0 0 1.268-2.121c.242-.473.461-.922.68-1.395v-.012a.163.163 0 0 1 .023-.069c.081.334.173.645.265.957v.012a16.435 16.435 0 0 0 .829 2.397zm15.052 1.059c-4.426 6.65-12.678 9.22-19.2 10.178-.265-2.756-.576-5.58-.934-8.449h-.058a.2.2 0 0 0 .058-.046v.046l7.031-.542h.023a1.728 1.728 0 0 0 .242-.023.951.951 0 0 0 .3-.115.65.65 0 0 0 .15-.091c.023-.012.035-.023.058-.036l3.169-2.557a1.189 1.189 0 0 0 .242-1.592 21.582 21.582 0 0 1-2.916-10.234l15.087 7.364a33.066 33.066 0 0 1-3.252 6.095zm-14.6-8.483a.6.6 0 0 1 .035-.08c.23-.75.426-1.476.576-2.2a24.173 24.173 0 0 0 2.536 7.918l-1.222.98a22.32 22.32 0 0 1-.911-2.236l-.035-.137a18.6 18.6 0 0 1-.922-4 .923.923 0 0 0-.06-.246zm34-14.926c-.38 10.88-2.939 15.457-5.014 17.392a4.9 4.9 0 0 1-2.8 1.429l-6.143-3-.012-.011-.392-.184-.012-.011-18.418-8.978a14.465 14.465 0 0 0-.069-1.013c0-.047-.012-.093-.012-.14-.692-6.153-4.6-9.831-10.454-9.831h-.081c-3.193.023-5.636.785-7.284 2.259l-1.51-.738a4.206 4.206 0 0 1-1.683-3.307 3.03 3.03 0 0 1 .392-1.509 18.523 18.523 0 0 0 7.238-.83c.012 0 .023-.012.046-.012.565-.139 1.13-.3 1.706-.474a5.3 5.3 0 0 0 3.031-2.236l38.645-8.31c.599.405 3.388 3.194 2.823 19.503z" transform="translate(-271.019 -701.357)"/>
                    </g>
                    <g id="그룹_408" data-name="그룹 408" transform="translate(310.746 779.812)">
                        <path id="패스_2738" data-name="패스 2738" class="cls-3" d="M305.742 769.428a1.117 1.117 0 0 1-.254.288c.023-.023.035-.058.058-.081a1.168 1.168 0 0 1 .196-.207z" transform="translate(-305.488 -769.428)"/>
                    </g>
                    <g id="그룹_409" data-name="그룹 409" transform="translate(375.969 795.326)">
                        <path id="선_140" data-name="선 140" class="cls-5" transform="translate(0 8.068)" d="M.876 0 0 .069"/>
                        <path id="패스_2739" data-name="패스 2739" class="cls-5" d="M367.37 784.087c-.092-.392-.173-.8-.242-1.2" transform="translate(-361.308 -782.888)"/>
                    </g>
                    <g id="그룹_410" data-name="그룹 410" transform="translate(377.191 794.278)">
                        <path id="패스_2740" data-name="패스 2740" class="cls-6" d="M368.968 786.3a18.6 18.6 0 0 1-.922-4 .921.921 0 0 0-.058-.243.6.6 0 0 1 .035-.079 41.606 41.606 0 0 0 .945 4.322z" transform="translate(-362.398 -781.979)"/>
                        <path id="패스_2741" data-name="패스 2741" class="cls-6" d="M363.2 790.868v.046h-.058a.2.2 0 0 0 .058-.046z" transform="translate(-363.138 -780.623)"/>
                    </g>
                    <g id="그룹_413" data-name="그룹 413" transform="translate(382.781 794.278)">
                        <path id="패스_2744" data-name="패스 2744" class="cls-5" d="M368.023 781.979a.6.6 0 0 0-.035.079.921.921 0 0 1 .058.243 18.6 18.6 0 0 0 .922 4 41.606 41.606 0 0 1-.945-4.322z" transform="translate(-367.988 -781.979)"/>
                    </g>
                    <g id="그룹_414" data-name="그룹 414" transform="translate(381.213 798.414)">
                        <path id="패스_2745" data-name="패스 2745" class="cls-6" d="M366.916 786.525c-.1-.3-.207-.588-.288-.876v-.012a.164.164 0 0 1 .023-.069c.081.332.173.645.265.957z" transform="translate(-366.628 -785.568)"/>
                    </g>
                    <g id="그룹_415" data-name="그룹 415" transform="translate(422.043 763.875)">
                        <path id="패스_2746" data-name="패스 2746" class="cls-4" d="m403.939 762.6 5.093-5.122a1.1 1.1 0 1 0-1.565-1.556l-5.093 5.123a1.1 1.1 0 1 0 1.565 1.555z" transform="translate(-402.053 -755.6)"/>
                    </g>
                    <g id="그룹_416" data-name="그룹 416" transform="translate(422.089 784.785)">
                        <path id="패스_2747" data-name="패스 2747" class="cls-4" d="m403.974 774.062 5.123 5.093a1.1 1.1 0 1 1-1.557 1.564l-5.122-5.092a1.1 1.1 0 1 1 1.556-1.565z" transform="translate(-402.094 -773.742)"/>
                    </g>
                    <g id="그룹_417" data-name="그룹 417" transform="translate(424.237 777.485)">
                        <path id="패스_2748" data-name="패스 2748" class="cls-4" d="M405.061 769.616h5.82a1.1 1.1 0 0 0 0-2.207h-5.82a1.1 1.1 0 1 0 0 2.207z" transform="translate(-403.957 -767.409)"/>
                    </g>
                    <g id="그룹_418" data-name="그룹 418" transform="translate(339.571 742.437)">
                        <path id="패스_2749" data-name="패스 2749" class="cls-4" d="M339.05 740.663a.849.849 0 0 1-.438.8l-6.823 3.862a.828.828 0 0 1-.426.114.857.857 0 0 1-.749-.438.87.87 0 0 1 .323-1.187l5.29-2.985-5.2-2.167a.863.863 0 0 1 .668-1.591l6.823 2.847a.839.839 0 0 1 .532.745z" transform="translate(-330.497 -737)"/>
                    </g>
                    <g id="그룹_419" data-name="그룹 419" transform="translate(338.984 734.426)">
                        <path id="패스_2750" data-name="패스 2750" class="cls-4" d="M338.528 733.264a9.343 9.343 0 0 1-2.9.474 7.318 7.318 0 0 1-5.429-2.272.856.856 0 0 1 .092-1.209.872.872 0 0 1 1.222.091c.1.115 2.317 2.593 6.5 1.268a.879.879 0 0 1 1.083.565.858.858 0 0 1-.568 1.083z" transform="translate(-329.988 -730.049)"/>
                    </g>
                    <g id="그룹_420" data-name="그룹 420" transform="translate(369.003 731.361)">
                        <path id="패스_2751" data-name="패스 2751" class="cls-4" d="M363.957 728.759a6.461 6.461 0 0 1-5.336 3.055 5.094 5.094 0 0 1-2.086-.416.863.863 0 0 1 .726-1.566c.127.056 2.939 1.255 5.29-2.076a.854.854 0 0 1 1.2-.207.868.868 0 0 1 .206 1.21z" transform="translate(-356.034 -727.39)"/>
                    </g>
                    <g id="그룹_421" data-name="그룹 421" transform="translate(373.478 739.722)">
                        <path id="패스_2752" data-name="패스 2752" class="cls-4" d="m367.087 736.262-4.357 2.443 3.331 1.429a.865.865 0 0 1 .461 1.129.879.879 0 0 1-.8.519.744.744 0 0 1-.346-.069l-4.944-2.109a.874.874 0 0 1-.519-.749.858.858 0 0 1 .438-.807l5.89-3.3a.864.864 0 1 1 .841 1.509z" transform="translate(-359.916 -734.644)"/>
                    </g>
                    <g id="그룹_422" data-name="그룹 422" transform="translate(302.492 743.2)">
                        <path id="패스_2753" data-name="패스 2753" class="cls-4" d="M314.706 742.175c-1.141-.611-11.237-5.888-14.891-4.172a2.488 2.488 0 0 0-1.429 1.81 2.452 2.452 0 0 0 .6 2.224c1.51 1.671 5.751 2.064 9.428 2.064a63.04 63.04 0 0 0 5.97-.3.871.871 0 0 0 .761-.7.844.844 0 0 0-.439-.926zm-14.441-1.3a.712.712 0 0 1-.184-.7.748.748 0 0 1 .473-.6 2.786 2.786 0 0 1 1.153-.207c2.224 0 6.109 1.441 9.37 2.939-4.358.193-9.545-.039-10.813-1.434z" transform="translate(-298.327 -737.662)"/>
                    </g>
                    <g id="그룹_423" data-name="그룹 423" transform="translate(280.895 751.948)">
                        <path id="패스_2754" data-name="패스 2754" class="cls-4" d="M293.58 745.593a.877.877 0 0 0-1.026-.277c-1.2.5-11.721 4.933-12.851 8.656a2.268 2.268 0 0 0 .277 2.005 2.1 2.1 0 0 0 1.717.968h.081c3.631 0 10.454-8.575 11.791-10.3a.865.865 0 0 0 .011-1.052zm-11.78 9.624h-.035a.38.38 0 0 1-.346-.195.542.542 0 0 1-.058-.542c.507-1.7 4.679-4.185 8.494-6.051-2.948 3.4-6.475 6.788-8.055 6.788z" transform="translate(-279.588 -745.251)"/>
                    </g>
                    <g id="그룹_424" data-name="그룹 424" transform="translate(296.599 752.317)">
                        <path id="패스_2755" data-name="패스 2755" class="cls-4" d="M314.31 746.017a.88.88 0 0 0-.876-.438c-.668.092-16.528 2.294-19.651 7.988a4.437 4.437 0 0 0-.092 4.183 3.818 3.818 0 0 0 3.054 2.4 3.916 3.916 0 0 0 .519.035c5.97 0 15.825-11.814 16.954-13.2a.875.875 0 0 0 .092-.968zm-17.346 12.414a2.126 2.126 0 0 1-1.706-1.406 2.755 2.755 0 0 1 .046-2.628c1.913-3.5 10.811-5.787 16.067-6.732-3.78 4.265-10.787 11.226-14.406 10.766z" transform="translate(-293.213 -745.572)"/>
                    </g>
                    <g id="그룹_425" data-name="그룹 425" transform="translate(322.376 749.332)">
                        <path id="패스_2756" data-name="패스 2756" class="cls-4" d="M327.23 743.093a3.251 3.251 0 0 0-1.729.485 5.49 5.49 0 0 0-4.679-.14 4.429 4.429 0 0 0-1.9-.414c-1.879 0-3.342 1.048-3.342 2.4s1.464 2.4 3.342 2.4h.046a4.907 4.907 0 0 0 8.149-.081 2.383 2.383 0 1 0 .115-4.645zm0 3.273a2.073 2.073 0 0 1-.426-.046.686.686 0 0 0-.8.507 3.434 3.434 0 0 1-5.947.069.678.678 0 0 0-.645-.484h-.092a2.183 2.183 0 0 1-.4.036c-1.13 0-1.971-.542-1.971-1.027s.841-1.026 1.971-1.026a2.758 2.758 0 0 1 1.51.4.693.693 0 0 0 .715.023 3.97 3.97 0 0 1 4 .15.679.679 0 0 0 .864-.069 1.8 1.8 0 0 1 1.222-.437c.8 0 1.487.448 1.487.956s-.692.948-1.488.948z" transform="translate(-315.578 -742.982)"/>
                    </g>
                    <g id="그룹_426" data-name="그룹 426" transform="translate(407.302 761.014)">
                        <path id="패스_2757" data-name="패스 2757" class="cls-4" d="M394.363 753.118c-1.475-.035-2.662 1.694-3.6 5.5a68.423 68.423 0 0 0-.83 23.732c.669 3.848 1.683 5.669 3.2 5.727h.069c1.487 0 2.616-1.752 3.538-5.5a60.5 60.5 0 0 0 1.452-11.825c.032-.715.562-17.471-3.829-17.634zm-2.789 17.451a16.045 16.045 0 0 1 .726-4.738l1.014.6a16.848 16.848 0 0 1-.115 7.585l-1.349.99a18.577 18.577 0 0 1-.276-4.437zm4.668.114c-.323 9.278-2.075 14.753-3.031 15.4-.645-.508-1.51-3.493-1.844-8.518a.926.926 0 0 0 .565-.2l2.7-1.982a.917.917 0 0 0 .369-.529 17.925 17.925 0 0 0 .092-9.36.95.95 0 0 0-.438-.553l-2.282-1.336a1.008 1.008 0 0 0-.507-.139c.68-4.99 1.763-7.894 2.432-8.356.902.718 2.266 6.29 1.944 15.573z" transform="translate(-389.263 -753.118)"/>
                    </g>
                </g>
                <g id="그룹_428" data-name="그룹 428" transform="translate(19.166 1164.849)">
                    <path id="패스_2758" data-name="패스 2758" class="cls-8" d="M471.642 824.771c-1.665-1.358-3.984-2.383-6.164-1.868a4.387 4.387 0 0 0-3.5 4.383c.23 3.053 3.586 3.87 5.94 4.782 2.4.929 4.931 2.938 4.269 5.838-.514 2.25-2.743 3-4.821 2.968a12.486 12.486 0 0 1-6.532-2.385"/>
                    <path id="패스_2759" data-name="패스 2759" class="cls-8" d="M501.266 824.771c-1.665-1.358-3.984-2.383-6.164-1.868a4.387 4.387 0 0 0-3.5 4.383c.23 3.053 3.586 3.87 5.94 4.782 2.4.929 4.931 2.938 4.269 5.838-.514 2.25-2.743 3-4.821 2.968a12.486 12.486 0 0 1-6.532-2.385"/>
                    <ellipse id="타원_632" data-name="타원 632" class="cls-8" cx="6.11" cy="8.728" rx="6.11" ry="8.728" transform="translate(475.817 822.768)"/>
                </g>
            </g>
        </g>
    </g>
</svg>
