<svg xmlns="http://www.w3.org/2000/svg" xmlns:xlink="http://www.w3.org/1999/xlink" viewBox="0 0 200 200"><defs><style>.cls-1{fill:none;}.cls-2{fill:#fff;}.cls-3{clip-path:url(#clip-path);}.cls-4{fill:#a99d9c;}.cls-5{fill:#9ee630;}.cls-6{fill:#355e78;}.cls-7{fill:#36607b;}.cls-8{fill:#8cc7ea;}.cls-9{fill:#ffbfc5;}.cls-10{fill:#cf7575;}.cls-11{fill:#f7f8f8;}.cls-12{fill:#35607a;}</style><clipPath id="clip-path"><rect class="cls-1" x="49.64" y="147.17" width="109" height="23"/></clipPath></defs><g id="레이어_2" data-name="레이어 2"><g id="레이어_1-2" data-name="레이어 1"><rect class="cls-1" width="200" height="200"/><g id="그룹_2864" data-name="그룹 2864"><circle id="타원_653" data-name="타원 653" class="cls-2" cx="103.64" cy="103.17" r="59"/><g class="cls-3"><g id="마스크_그룹_27" data-name="마스크 그룹 27"><path id="패스_6936" data-name="패스 6936" class="cls-4" d="M103.64,44.17a59,59,0,1,1-59,59A59,59,0,0,1,103.64,44.17Z"/></g></g><g id="그룹_2833" data-name="그룹 2833"><g id="그룹_2790" data-name="그룹 2790"><path id="패스_6876" data-name="패스 6876" class="cls-5" d="M105.87,146.22s-3.86,1.75-6-1.15a6.57,6.57,0,0,1-1.48-5.38c8.55-.61,7.74,5.56,7.74,5.56"/><path id="패스_6877" data-name="패스 6877" class="cls-6" d="M99.28,145.47a7.18,7.18,0,0,1-1.59-6,.69.69,0,0,1,.61-.49c3.22-.23,5.58.44,7,2a5.69,5.69,0,0,1,1.44,4.35.65.65,0,0,1-.33.5l.06.1a.69.69,0,0,1-.34.9,7.05,7.05,0,0,1-2.79.59,4.89,4.89,0,0,1-4.08-1.95Zm6.13-.31a4.38,4.38,0,0,0-1.09-3.26c-1.08-1.13-2.89-1.66-5.39-1.56a6.35,6.35,0,0,0,1.44,4.32c1.7,2.27,4.67,1.16,5.15,1A.68.68,0,0,1,105.41,145.16Z"/></g><g id="그룹_2791" data-name="그룹 2791"><path id="패스_6878" data-name="패스 6878" class="cls-7" d="M103.54,145.47a11.28,11.28,0,0,1-3.75-3.39.61.61,0,0,1,.25-.83.6.6,0,0,1,.82.25c.9,1.63,4.19,3.6,4.83,3.56a.61.61,0,0,1,.72.47.61.61,0,0,1-.44.72,4,4,0,0,1-2.43-.78"/></g><g id="그룹_2792" data-name="그룹 2792"><path id="패스_6879" data-name="패스 6879" class="cls-8" d="M107.1,151.6s-9.48.21-9.24-1.56c.44-3.27,4-3.15,4-3.15,1.07-19.27,8.78-28.48,8.78-28.48l24.23,2.53,5.39-1.2,5.51,17a6.09,6.09,0,0,1,3.22,4.37l6.52,1.58a14.51,14.51,0,0,1-.16,12.48S142,157.29,137.43,157c0,0-1.2,3.48-3.65,3.48s-26.22.38-27.18-12.76a39.37,39.37,0,0,1,4.62-21.91"/><path id="패스_6880" data-name="패스 6880" class="cls-7" d="M107.32,152.24a.49.49,0,0,1-.21,0c-1.93.05-8.33.07-9.62-1.37a1.21,1.21,0,0,1-.31-1,4.27,4.27,0,0,1,4-3.71c1.2-18.87,8.59-27.89,8.9-28.27a.66.66,0,0,1,.6-.24l24.12,2.51,5.27-1.17a.68.68,0,0,1,.8.46l5.45,16.76.12.08a6.39,6.39,0,0,1,3.1,4.16l6.1,1.48a.7.7,0,0,1,.45.34,15.13,15.13,0,0,1-.15,13.09.71.71,0,0,1-.5.38c-.53.08-12.6,2-17.55,1.91-.46,1.06-1.78,3.47-4.11,3.47h-.46c-17,0-23.54-4.76-26-9Zm30.15,4.12c4,.22,15.25-1.5,17.39-1.83a14.1,14.1,0,0,0,.15-11.28l-6.21-1.5a.66.66,0,0,1-.51-.55,5,5,0,0,0-2.57-3.68,2.42,2.42,0,0,1-.42-.29.69.69,0,0,1-.2-.3l-5.33-16.39L135,121.61a.83.83,0,0,1-.22,0l-23.85-2.49c-1.25,1.67-7.47,10.82-8.42,27.81a.66.66,0,0,1-.7.64c-.11,0-2.85-.05-3.25,2.47.59.55,4.18.94,8.11.89a10.23,10.23,0,0,1-.74-3.12,39.64,39.64,0,0,1,4.71-22.32.68.68,0,0,1,1-.2.67.67,0,0,1,.21.91,39,39,0,0,0-4.51,21.5c.82,11.33,20.32,12.16,26.3,12.13h.2c1.94,0,3-3,3-3a.68.68,0,0,1,.64-.46Z"/></g><g id="그룹_2793" data-name="그룹 2793"><path id="패스_6881" data-name="패스 6881" class="cls-8" d="M140.07,78.12s3.63-8.88,15.83-6.84c11.18,1.88,10.95,17.53,6.93,23.46a17.94,17.94,0,0,1-.34,16.77c-4.84,9.12-18.79,9.83-22.92-1.74"/><path id="패스_6882" data-name="패스 6882" class="cls-7" d="M151.14,119.09a13.55,13.55,0,0,0,12-7.26,18.59,18.59,0,0,0,.53-17.06c2.42-3.93,3.48-11.45,1-17.23A11.07,11.07,0,0,0,156,70.61c-12.6-2.11-16.54,7.16-16.57,7.25a.67.67,0,0,0,.37.89.68.68,0,0,0,.89-.37c.14-.34,3.6-8.35,15.09-6.43a9.79,9.79,0,0,1,7.58,6.13c2.3,5.36,1.28,12.74-1.11,16.28a.69.69,0,0,0,0,.72,17.44,17.44,0,0,1-.35,16.11,12.19,12.19,0,0,1-11.62,6.5c-4.67-.34-8.33-3.31-10.06-8.15a.68.68,0,0,0-1.28.46c1.89,5.29,6.09,8.68,11.24,9,.32,0,.65,0,1,0Z"/></g><g id="그룹_2794" data-name="그룹 2794"><path id="패스_6883" data-name="패스 6883" class="cls-9" d="M144.8,84.13s2.51-6.11,10.32-4.51c7.14,1.46,6.69,12.32,4,16.38a13.31,13.31,0,0,1-.55,11.63c-3.29,6.26-12.27,6.55-14.7-1.54"/></g><g id="그룹_2795" data-name="그룹 2795"><path id="패스_6884" data-name="패스 6884" class="cls-8" d="M125.74,68.38C94.46,67.43,93.51,92.9,93.51,92.9s-3.12,28.9,35.55,28.72c0,0,32.39-1.6,22.68-24.67,0,0-1.06-27.81-26-28.57"/><path id="패스_6885" data-name="패스 6885" class="cls-7" d="M99.36,112.07a26.54,26.54,0,0,1-6.53-19.19c0-.27,1.33-26.15,32.93-25.18,24.4.74,26.53,27,26.66,29.09,2.48,6,2.42,11.1-.18,15.24-2.47,3.93-7.13,6.86-13.85,8.7a48.3,48.3,0,0,1-9.32,1.58h-.36c-13.35,0-23.23-3.45-29.35-10.24ZM98.5,80.61A26.73,26.73,0,0,0,94.19,93c0,.1-1,10.25,6.19,18.2,5.86,6.49,15.39,9.78,28.3,9.78H129c.16,0,16.57-.92,22.06-9.65,2.37-3.76,2.37-8.5,0-14.09a.59.59,0,0,1-.05-.23,39.21,39.21,0,0,0-3.6-13.77c-4.37-9.08-11.69-13.84-21.74-14.14C113,68.68,103.87,72.56,98.5,80.61Z"/></g><g id="그룹_2796" data-name="그룹 2796"><path id="패스_6886" data-name="패스 6886" class="cls-7" d="M131.88,109.79c4.44.18,6.29-1.61,6.4-1.71a.66.66,0,0,0,0-.94.65.65,0,0,0-.9,0c-.06,0-3.3,3-11.81-.07-.63-.22-1.26-.47-1.87-.73a.66.66,0,1,0-.56,1.2l0,0c.65.28,1.3.53,1.94.76a22.91,22.91,0,0,0,6.8,1.47"/></g><g id="그룹_2797" data-name="그룹 2797"><path id="패스_6887" data-name="패스 6887" class="cls-10" d="M136.77,109.47a14.31,14.31,0,0,1-10.36-.42s-.09,6.2,5.35,6.39,5-6,5-6"/></g><g id="그룹_2798" data-name="그룹 2798"><path id="패스_6888" data-name="패스 6888" class="cls-7" d="M136.77,109.47s.42,6.16-5,6h0c-5.38-.22-5.3-6.38-5.3-6.38a14.21,14.21,0,0,0,10.36.41m0-1.32a1.3,1.3,0,0,0-.55.09,12.7,12.7,0,0,1-4.74.67,12.49,12.49,0,0,1-4.55-1,1.32,1.32,0,0,0-.48-.13h0a1.32,1.32,0,0,0-1.37,1.27v.1a9.94,9.94,0,0,0,.73,3.57,6.32,6.32,0,0,0,5.84,4.09h.05a5.71,5.71,0,0,0,4.52-1.65c2.08-2.15,1.87-5.59,1.86-5.73a1.32,1.32,0,0,0-1.27-1.24"/></g><g id="그룹_2799" data-name="그룹 2799"><path id="패스_6889" data-name="패스 6889" class="cls-7" d="M141.69,100.81A2.5,2.5,0,1,0,144.22,98a2.68,2.68,0,0,0-2.53,2.82"/></g><g id="그룹_2800" data-name="그룹 2800"><path id="패스_6890" data-name="패스 6890" class="cls-7" d="M120.5,100.57a3,3,0,1,0,3.06-3.25,3.16,3.16,0,0,0-3.06,3.23v0"/></g><g id="그룹_2801" data-name="그룹 2801"><path id="패스_6891" data-name="패스 6891" class="cls-7" d="M121.55,92.65a.64.64,0,0,0,.4-.11,2.85,2.85,0,0,1,1.65-.46,3.27,3.27,0,0,1,1.8.51.66.66,0,0,0,.9-.26.65.65,0,0,0-.24-.89,4.73,4.73,0,0,0-2.46-.69,4.3,4.3,0,0,0-2.39.69.67.67,0,0,0-.18.92.68.68,0,0,0,.52.29"/></g><g id="그룹_2802" data-name="그룹 2802"><path id="패스_6892" data-name="패스 6892" class="cls-7" d="M142,93.49a.62.62,0,0,0,.38-.1A2.66,2.66,0,0,1,144,93a3.15,3.15,0,0,1,1.68.48.62.62,0,0,0,.61-1.08,4.34,4.34,0,0,0-2.3-.64,3.9,3.9,0,0,0-2.24.64.63.63,0,0,0-.17.86.65.65,0,0,0,.49.27"/></g><g id="그룹_2803" data-name="그룹 2803"><path id="패스_6893" data-name="패스 6893" class="cls-11" d="M123.63,99.67a.81.81,0,0,0,.83.78.81.81,0,0,0,0-1.61.82.82,0,0,0-.81.82h0"/></g><g id="그룹_2804" data-name="그룹 2804"><path id="패스_6894" data-name="패스 6894" class="cls-11" d="M144.12,99.79a.69.69,0,0,0,1.37-.05.69.69,0,0,0-1.37.05"/></g><g id="그룹_2805" data-name="그룹 2805"><path id="패스_6895" data-name="패스 6895" class="cls-9" d="M136.62,113.61a8.7,8.7,0,0,0-4.55-1.32,10.05,10.05,0,0,0-4.93,1.06,5,5,0,0,0,4.61,2.91,5.1,5.1,0,0,0,4.87-2.65"/></g><g id="그룹_2806" data-name="그룹 2806"><path id="패스_6896" data-name="패스 6896" class="cls-7" d="M131.67,116.92a5.56,5.56,0,0,1-5.15-3.35.66.66,0,0,1,.3-.8,10.71,10.71,0,0,1,5.27-1.14h.08a9.21,9.21,0,0,1,4.84,1.45.66.66,0,0,1,.21.81,5.73,5.73,0,0,1-5.49,3h-.06m4-3.08a8.92,8.92,0,0,0-3.65-.89,10,10,0,0,0-4,.7,4.42,4.42,0,0,0,3.67,1.95h0a4.55,4.55,0,0,0,3.93-1.76Z"/></g><g id="그룹_2807" data-name="그룹 2807"><path id="패스_6897" data-name="패스 6897" class="cls-1" d="M136.77,109.47s.42,6.16-5,6-5.35-6.39-5.35-6.39a14.31,14.31,0,0,0,10.36.42"/></g><g id="그룹_2808" data-name="그룹 2808"><path id="패스_6898" data-name="패스 6898" class="cls-8" d="M138.19,95.65s8.14,12.28,17.28.16a.93.93,0,0,1,1.27-.22l2.63,1.69a1,1,0,0,1,.34,1.27c-2,4.24-12.31,23.4-29.41,8.19"/><path id="패스_6899" data-name="패스 6899" class="cls-7" d="M142.87,113.2a13.36,13.36,0,0,0,2.67-.27C154,111.19,159,101.7,160.33,98.84a1.71,1.71,0,0,0-.59-2.13L157.11,95a1.62,1.62,0,0,0-2.18.38c-2.6,3.45-5.33,5.14-8.13,5.07-4.63-.13-8-5.14-8.05-5.2a.68.68,0,0,0-.94-.19.69.69,0,0,0-.19,1c.15.23,3.8,5.64,9.13,5.8,3.26.1,6.38-1.79,9.26-5.61a.25.25,0,0,1,.35-.06L159,97.85a.35.35,0,0,1,.1.41c-1.28,2.72-6,11.72-13.84,13.33-4.57.94-9.45-.86-14.51-5.36a.68.68,0,0,0-.9,1c4.44,4,8.81,6,13,6Z"/></g><g id="그룹_2809" data-name="그룹 2809"><path id="패스_6900" data-name="패스 6900" class="cls-8" d="M142.45,99.82s-2.86,0-3.75,2.45"/><path id="패스_6901" data-name="패스 6901" class="cls-7" d="M139,102.38c.8-2.2,3.43-2.23,3.45-2.23V99.5c-.12,0-3.1,0-4,2.66Z"/></g><g id="그룹_2810" data-name="그룹 2810"><path id="패스_6902" data-name="패스 6902" class="cls-7" d="M138.67,102.94a.67.67,0,0,0,.65-.44,3.46,3.46,0,0,1,3.14-2,.67.67,0,0,0,0-1.33c-.14,0-3.34,0-4.38,2.88a.66.66,0,0,0,.39.85.8.8,0,0,0,.21,0"/></g><g id="그룹_2811" data-name="그룹 2811"><path id="패스_6903" data-name="패스 6903" class="cls-8" d="M146.08,101.14a4.66,4.66,0,0,0-2.7,3"/><path id="패스_6904" data-name="패스 6904" class="cls-7" d="M143.69,104.22a4.3,4.3,0,0,1,2.48-2.77l-.18-.61a4.94,4.94,0,0,0-2.91,3.16Z"/></g><g id="그룹_2812" data-name="그룹 2812"><path id="패스_6905" data-name="패스 6905" class="cls-7" d="M143.36,104.78a.67.67,0,0,0,.65-.44,4,4,0,0,1,2.26-2.56.66.66,0,0,0,.44-.83.66.66,0,0,0-.82-.44,5.31,5.31,0,0,0-3.13,3.38.67.67,0,0,0,.4.85l.2,0"/></g><g id="그룹_2813" data-name="그룹 2813"><path id="패스_6906" data-name="패스 6906" class="cls-8" d="M150,100.73a4.27,4.27,0,0,0-.82,3.83"/><path id="패스_6907" data-name="패스 6907" class="cls-7" d="M148.86,104.66l.61-.19a4,4,0,0,1,.75-3.53l-.48-.42a4.58,4.58,0,0,0-.88,4.14Z"/></g><g id="그룹_2814" data-name="그룹 2814"><path id="패스_6908" data-name="패스 6908" class="cls-7" d="M149.14,105.23a.83.83,0,0,0,.22,0,.67.67,0,0,0,.44-.84,3.59,3.59,0,0,1,.68-3.2.66.66,0,0,0-1-.86,4.91,4.91,0,0,0-.94,4.47.66.66,0,0,0,.6.46"/></g><g id="그룹_2815" data-name="그룹 2815"><path id="패스_6909" data-name="패스 6909" class="cls-8" d="M155.63,95.82s-1.24-3.56,1.47-4.28,2.63,2.78,2.63,2.78,4.32-3.58,5.82-.54c1.62,3.29-1.79,6.46-6,5.16"/><path id="패스_6910" data-name="패스 6910" class="cls-7" d="M161.44,99.91a5.43,5.43,0,0,0,4.2-1.78,4.14,4.14,0,0,0,.52-4.65,2.69,2.69,0,0,0-1.87-1.54,5.84,5.84,0,0,0-4,1.15,3.15,3.15,0,0,0-1-1.84,2.51,2.51,0,0,0-2.31-.37,2.83,2.83,0,0,0-1.86,1.43A5.32,5.32,0,0,0,155,96a.69.69,0,0,0,.87.42.68.68,0,0,0,.42-.87h0a4,4,0,0,1,0-2.65,1.5,1.5,0,0,1,1-.74,1.19,1.19,0,0,1,1.12.11,2.94,2.94,0,0,1,.66,2,.68.68,0,0,0,.67.7.65.65,0,0,0,.44-.16c.64-.53,2.59-1.84,3.84-1.57a1.33,1.33,0,0,1,.93.81,2.78,2.78,0,0,1-.33,3.16,4.56,4.56,0,0,1-4.87,1,.69.69,0,0,0-.88.41.67.67,0,0,0,.41.87l.07,0a6.83,6.83,0,0,0,2.1.33Z"/></g><g id="그룹_2816" data-name="그룹 2816"><path id="패스_6911" data-name="패스 6911" class="cls-8" d="M106.28,76.66s-3-9.11-15.32-7.91c-11.28,1.1-12.13,16.73-8.53,22.92a18,18,0,0,0-.82,16.76c4.2,9.43,18.07,11.1,23-.16"/><path id="패스_6912" data-name="패스 6912" class="cls-7" d="M93.34,116.8h0c5.16,0,9.59-3.1,11.83-8.25a.67.67,0,0,0-.37-.89.68.68,0,0,0-.88.34c-2,4.71-5.91,7.42-10.59,7.44h0a12.2,12.2,0,0,1-11.1-7.28A17.46,17.46,0,0,1,83,92.06a.69.69,0,0,0,0-.73C80.88,87.64,80.37,80.21,83,75a9.8,9.8,0,0,1,8-5.58c11.6-1.13,14.5,7.1,14.62,7.44a.68.68,0,0,0,.86.44.69.69,0,0,0,.43-.86h0c0-.1-3.32-9.61-16-8.38a11.09,11.09,0,0,0-9.07,6.32C79,80,79.49,87.57,81.64,91.65A18.65,18.65,0,0,0,81,108.71a13.56,13.56,0,0,0,12.35,8.09Z"/></g><g id="그룹_2817" data-name="그룹 2817"><path id="패스_6913" data-name="패스 6913" class="cls-9" d="M102.23,81.22S100.15,75,92.26,76C85,77,84.73,87.85,87.14,92.08a13.34,13.34,0,0,0-.25,11.65c2.85,6.47,11.79,7.37,14.77-.53"/></g><g id="그룹_2818" data-name="그룹 2818"><path id="패스_6914" data-name="패스 6914" class="cls-8" d="M142.47,119.05a13.9,13.9,0,0,1-2.5.85"/><path id="패스_6915" data-name="패스 6915" class="cls-7" d="M140,120.22a13.63,13.63,0,0,0,2.59-.88l-.26-.58a13.52,13.52,0,0,1-2.42.82Z"/></g><g id="그룹_2819" data-name="그룹 2819"><path id="패스_6916" data-name="패스 6916" class="cls-12" d="M140,120.18a13.74,13.74,0,0,0,2.58-.87l-.23-.52a13.65,13.65,0,0,1-2.43.83Z"/></g><g id="그룹_2820" data-name="그룹 2820"><path id="패스_6917" data-name="패스 6917" class="cls-8" d="M136.52,158.8c3.08-5.23,1.84-9.14,1.07-10.75a1.79,1.79,0,0,0-1.23-1l-6.15-1.43"/><path id="패스_6918" data-name="패스 6918" class="cls-7" d="M136.53,159.49a.67.67,0,0,0,.58-.34c3.14-5.33,2-9.42,1.1-11.39a2.49,2.49,0,0,0-1.69-1.37L130.37,145a.67.67,0,0,0-.81.51.68.68,0,0,0,.51.82h0l6.14,1.42a1.13,1.13,0,0,1,.77.62c.82,1.73,1.78,5.34-1,10.12a.68.68,0,0,0,.24.93.88.88,0,0,0,.35.1Z"/></g><g id="그룹_2821" data-name="그룹 2821"><path id="패스_6919" data-name="패스 6919" class="cls-8" d="M135.72,148.19s-2.33.66-3.3,5.07c-1,4.63,1.26,5.54,1.26,5.54"/><path id="패스_6920" data-name="패스 6920" class="cls-7" d="M133.56,159.1l.24-.6c-.08,0-2-.91-1.07-5.17s3.06-4.83,3.08-4.84l-.17-.61c-.1,0-2.53.76-3.54,5.31-1.06,4.84,1.35,5.87,1.46,5.91Z"/></g><g id="그룹_2822" data-name="그룹 2822"><path id="패스_6921" data-name="패스 6921" class="cls-8" d="M135.72,148.19s-2.33.66-3.3,5.07c-1,4.63,1.26,5.54,1.26,5.54"/><path id="패스_6922" data-name="패스 6922" class="cls-7" d="M133.68,159.48a.67.67,0,0,0,.68-.67.69.69,0,0,0-.43-.64c-.06,0-1.72-.84-.85-4.76s2.76-4.55,2.84-4.57a.68.68,0,0,0,.45-.85.67.67,0,0,0-.83-.46c-.11,0-2.74.83-3.79,5.58-1.13,5.13,1.56,6.28,1.67,6.32A.58.58,0,0,0,133.68,159.48Z"/></g><g id="그룹_2823" data-name="그룹 2823"><path id="패스_6923" data-name="패스 6923" class="cls-2" d="M134.59,148.8a9,9,0,0,0-1.51,2s-3-1-2.1-2.24,3.61.27,3.61.27"/></g><g id="그룹_2824" data-name="그룹 2824"><path id="패스_6924" data-name="패스 6924" class="cls-12" d="M132.9,151.31c-.36-.12-2.19-.78-2.57-1.89a1.31,1.31,0,0,1,.18-1.2c1.09-1.61,4-.09,4.35.08a.57.57,0,0,1,.23.77.38.38,0,0,1-.11.14,8.31,8.31,0,0,0-1.4,1.83.58.58,0,0,1-.5.3.57.57,0,0,1-.18,0Zm-1.45-2.46a.21.21,0,0,0,0,.2c.11.33.8.75,1.42,1a8.45,8.45,0,0,1,.81-1.08c-.84-.33-1.89-.57-2.19-.14Z"/></g><g id="그룹_2825" data-name="그룹 2825"><path id="패스_6925" data-name="패스 6925" class="cls-2" d="M153.79,144.16a9,9,0,0,0-1.35,2.09s-3-.75-2.27-2.07,3.62,0,3.62,0"/></g><g id="그룹_2826" data-name="그룹 2826"><path id="패스_6926" data-name="패스 6926" class="cls-12" d="M152.3,146.8c-.37-.09-2.24-.6-2.71-1.69a1.33,1.33,0,0,1,.09-1.21c1-1.69,4-.41,4.34-.26a.56.56,0,0,1,.29.75.4.4,0,0,1-.1.15,9,9,0,0,0-1.25,1.93.57.57,0,0,1-.52.35l-.14,0Zm-1.63-2.34c-.07.12,0,.17,0,.2a2.92,2.92,0,0,0,1.5.9,9,9,0,0,1,.72-1.13C152,144.16,150.93,144,150.67,144.46Z"/></g><g id="그룹_2827" data-name="그룹 2827"><path id="패스_6927" data-name="패스 6927" class="cls-8" d="M154.19,143.84s-1.93,1.18-2,5.34,2,4.77,2,4.77"/><path id="패스_6928" data-name="패스 6928" class="cls-7" d="M154.17,154.63a.68.68,0,0,0,.19-1.33c-.05,0-1.6-.6-1.52-4.1.08-3.67,1.65-4.74,1.72-4.78a.69.69,0,0,0,.2-.94.67.67,0,0,0-.92-.22c-.09.06-2.26,1.43-2.36,5.91s2.39,5.41,2.5,5.44l.19,0Z"/></g><g id="그룹_2828" data-name="그룹 2828"><path id="패스_6929" data-name="패스 6929" class="cls-8" d="M105.06,147.88s-2.89-.5-3,1c-.06,1.3,2.65,1.16,2.65,1.16"/><path id="패스_6930" data-name="패스 6930" class="cls-7" d="M104.48,150.73h.3a.68.68,0,0,0,.63-.73.67.67,0,0,0-.69-.63,3.5,3.5,0,0,1-1.91-.36.11.11,0,0,1,0-.09.23.23,0,0,1,.1-.19,3.5,3.5,0,0,1,2.07-.18.68.68,0,0,0,.23-1.34c-.35-.06-2.18-.33-3.15.45a1.57,1.57,0,0,0-.6,1.2,1.41,1.41,0,0,0,.43,1.11,3.94,3.94,0,0,0,2.63.76Z"/></g><g id="그룹_2829" data-name="그룹 2829"><path id="패스_6931" data-name="패스 6931" class="cls-2" d="M129.68,133.51l9.34.24a1.25,1.25,0,0,0,1.28-1.22l.42-16.65a1.25,1.25,0,0,0-1.22-1.28l-9.34-.24a1.26,1.26,0,0,0-1.28,1.22h0l-.42,16.64a1.26,1.26,0,0,0,1.22,1.28h0"/></g><g id="그룹_2830" data-name="그룹 2830"><path id="패스_6932" data-name="패스 6932" class="cls-12" d="M139,134.31l-9.33-.23a1.83,1.83,0,0,1-1.78-1.87l.42-16.64a1.84,1.84,0,0,1,1.87-1.77l9.33.23a1.83,1.83,0,0,1,1.78,1.87l-.42,16.64a1.82,1.82,0,0,1-1.82,1.77Zm-9.55-18.71L129,132.25a.69.69,0,0,0,.67.7h0l9.33.23a.7.7,0,0,0,.7-.67l.42-16.64a.68.68,0,0,0-.67-.7l-9.34-.23h0a.68.68,0,0,0-.68.66Z"/></g><g id="그룹_2831" data-name="그룹 2831"><path id="패스_6933" data-name="패스 6933" class="cls-7" d="M137.53,120.53h1.4a.42.42,0,0,0,.42-.42v-3.64a.42.42,0,0,0-.42-.42h-1.4a.43.43,0,0,0-.42.42v3.64a.42.42,0,0,0,.42.42"/></g><g id="그룹_2832" data-name="그룹 2832"><path id="패스_6934" data-name="패스 6934" class="cls-8" d="M150,126.7c-1.63-.35-5.48-3.58-5.48-3.58s-.68-2.21-1.78-2.76a1.55,1.55,0,0,0-1.72.41l1.42,1.54c-3.36-3.72-4.9-3.5-6.8-2.56-1.61.8-2.27,2.56-2.08,4.68.88,9.93,15.71,17.25,19.09,9.74,4.25-9.45-10.21-15.12-10.21-15.12a8.53,8.53,0,0,1-2.36,1.07"/><path id="패스_6935" data-name="패스 6935" class="cls-7" d="M145.86,137.79c-5.77-1-12.36-6.55-13-13.3-.22-2.5.67-4.45,2.46-5.34a4.29,4.29,0,0,1,4.91.24,9.8,9.8,0,0,0,1.83-.92.69.69,0,0,1,.61-.06c.35.14,8.43,3.36,10.79,9.15a8.45,8.45,0,0,1-.21,6.89,5.91,5.91,0,0,1-5.76,3.49,9.34,9.34,0,0,1-1.67-.15Zm-.72-15.07c1.46,1.22,4,3.09,5,3.32a.68.68,0,0,1-.28,1.33h0c-1.74-.38-5.36-3.39-5.77-3.73a.69.69,0,0,1-.21-.32,4.67,4.67,0,0,0-1.43-2.35.5.5,0,0,0-.36,0l.43.47c.14.15.29.3.43.46a.68.68,0,1,1-1,.92h0l-.44-.47a13.55,13.55,0,0,0-1.67-1.54.66.66,0,0,1-.29-.21,2.92,2.92,0,0,0-3.6-.18c-1.72.86-1.81,2.88-1.71,4,.54,6,6.66,11.2,11.83,12.07,1.67.28,4.66.32,6-2.56a7.09,7.09,0,0,0,.19-5.81c-1.5-3.7-5.83-6.34-8.28-7.59a7.83,7.83,0,0,1,1.18,2.23Z"/></g></g></g></g></g></svg>