<svg xmlns="http://www.w3.org/2000/svg" xmlns:xlink="http://www.w3.org/1999/xlink" viewBox="0 0 196.27 196.27"><defs><style>.cls-1{fill:none;}.cls-2{fill:#fff;}.cls-3{clip-path:url(#clip-path);}.cls-4{fill:#8cc7ea;}.cls-5{fill:#36607b;}.cls-6{fill:#9ee630;}.cls-7{fill:#36637f;}.cls-8{fill:#505cef;}.cls-9{fill:#4f39aa;}.cls-10{fill:#ffbfc5;}.cls-11{fill:#f7f8f8;}.cls-12{fill:#cf7575;}.cls-13{fill:#35607a;}.cls-14{fill:#3e6bdd;}.cls-15{clip-path:url(#clip-path-2);}</style><clipPath id="clip-path"><circle class="cls-1" cx="96.71" cy="98.45" r="59"/></clipPath><clipPath id="clip-path-2"><circle class="cls-1" cx="147.71" cy="95.45" r="43"/></clipPath></defs><g id="레이어_2" data-name="레이어 2"><g id="레이어_1-2" data-name="레이어 1"><rect class="cls-1" width="196.27" height="196.27"/><g id="그룹_4387" data-name="그룹 4387"><g id="그룹_2862" data-name="그룹 2862"><g id="그룹_443" data-name="그룹 443"><circle id="타원_653-4" data-name="타원 653-4" class="cls-2" cx="96.71" cy="98.45" r="59"/></g></g><g class="cls-3"><g id="마스크_그룹_29" data-name="마스크 그룹 29"><g id="그룹_4386" data-name="그룹 4386"><g id="그룹_4384" data-name="그룹 4384"><g id="그룹_4331" data-name="그룹 4331"><path id="패스_8908" data-name="패스 8908" class="cls-4" d="M90.41,125.13,88,138.58s-4.37,0-5.51,1.78,1.14,4.87,9.56,3.73c0,0,2,.49,2.11-5s2.59-8.43,2.59-8.43"/><path id="패스_8909" data-name="패스 8909" class="cls-5" d="M88.63,145a27.62,27.62,0,0,0,3.4-.24,1.71,1.71,0,0,0,1.15-.37c1-.74,1.52-2.53,1.61-5.3a14,14,0,0,1,2.44-8,.65.65,0,1,0-1-.83c-.1.13-2.58,3.16-2.74,8.83-.09,3.07-.76,4-1,4.25a.46.46,0,0,1-.31.15.34.34,0,0,0-.2,0c-5.38.72-8.12-.31-8.89-1.52a1.09,1.09,0,0,1,0-1.22c.69-1.08,3.41-1.48,5-1.48a.64.64,0,0,0,.63-.54L91,125.24a.64.64,0,0,0-.5-.76.65.65,0,0,0-.77.5v0l-2.34,12.93c-1.31.07-4.44.39-5.51,2.07a2.38,2.38,0,0,0,0,2.62c.5.79,2.09,2.36,6.67,2.36Z"/></g><g id="그룹_4332" data-name="그룹 4332"><path id="패스_8910" data-name="패스 8910" class="cls-4" d="M85.38,154.38A6.76,6.76,0,0,0,90.1,152a7.17,7.17,0,0,0,1.31.11,8,8,0,0,0,6-2.85.81.81,0,0,0,0-1L96.2,146.7a.78.78,0,0,0-.63-.31h-.06a.78.78,0,0,0-.64.4,6.88,6.88,0,0,1-4.81,2.91,6,6,0,0,0-5.2-3.09,10.07,10.07,0,0,0-5.53,2,.81.81,0,0,0-.33.84c0,.12.71,2.91,4.44,4.48a5.13,5.13,0,0,0,1.93.4"/><path id="패스_8911" data-name="패스 8911" class="cls-5" d="M83.2,154.58c-4-1.66-4.75-4.6-4.83-4.93a1.45,1.45,0,0,1,.59-1.52,10.64,10.64,0,0,1,5.9-2.16,6.62,6.62,0,0,1,5.5,3,6.06,6.06,0,0,0,4-2.51,1.45,1.45,0,0,1,1.18-.73h.08a1.44,1.44,0,0,1,1.14.56l1.19,1.55a1.44,1.44,0,0,1,0,1.77,8.66,8.66,0,0,1-6.49,3.1,7.45,7.45,0,0,1-1.06-.07,7.26,7.26,0,0,1-5,2.38,5.77,5.77,0,0,1-2.17-.45Zm7-3.26a6.78,6.78,0,0,0,1.2.1,7.44,7.44,0,0,0,5.47-2.6.17.17,0,0,0,0-.19l-1.19-1.54a.16.16,0,0,0-.13-.06.13.13,0,0,0-.12.08,7.55,7.55,0,0,1-5.28,3.23.66.66,0,0,1-.66-.31,5.35,5.35,0,0,0-4.63-2.77,9.5,9.5,0,0,0-5.17,1.93.15.15,0,0,0-.06.16c0,.1.63,2.59,4.06,4a4.38,4.38,0,0,0,1.68.34,6.09,6.09,0,0,0,4.23-2.2.65.65,0,0,1,.49-.21Z"/></g><g id="그룹_4333" data-name="그룹 4333"><path id="패스_8912" data-name="패스 8912" class="cls-6" d="M90,151.22s-2.61,3.7-6.19,2.2-4.26-4.16-4.26-4.16c7.54-5.17,10.13.94,10.13.94"/></g><g id="그룹_4334" data-name="그룹 4334"><path id="패스_8913" data-name="패스 8913" class="cls-7" d="M87.26,151.9a4.32,4.32,0,0,0,2.69-.62.79.79,0,0,0,0-1.13.8.8,0,0,0-1,0,10.32,10.32,0,0,1-5.86-.65.8.8,0,1,0-.92,1.3l.1.07a11.57,11.57,0,0,0,5.08,1.07Z"/></g><g id="그룹_4335" data-name="그룹 4335"><path id="패스_8914" data-name="패스 8914" class="cls-4" d="M95.53,129.46a82.92,82.92,0,0,0-.19,32.77,2.87,2.87,0,0,0,1.36,1.88,14.36,14.36,0,0,0,7.17,1.56,18.54,18.54,0,0,0,5.69-.68,2.84,2.84,0,0,0,1.86-2l1-4.8a2.88,2.88,0,0,1,2.36-2.13h.07c1.6-.24,3.08,1.72,3.28,3.32l.2,1.64a2.85,2.85,0,0,0,2.05,2.42c5.13,1.43,8.09.7,9.5,0a2.87,2.87,0,0,0,1.38-1.41c5.82-13.22,4.21-28.59,3-34.57"/><path id="패스_8915" data-name="패스 8915" class="cls-5" d="M103.87,166.32a19.82,19.82,0,0,0,5.89-.71,3.46,3.46,0,0,0,2.29-2.46l1-4.83a2.21,2.21,0,0,1,1.82-1.62H115a1.57,1.57,0,0,1,1.17.37,3.84,3.84,0,0,1,1.37,2.39l.2,1.63a3.51,3.51,0,0,0,2.52,3c5.13,1.44,8.24.8,9.94,0a3.43,3.43,0,0,0,1.7-1.74c6.76-15.33,3.44-33,3-35a.64.64,0,0,0-.76-.5.65.65,0,0,0-.51.76h0c.39,1.93,3.64,19.22-2.95,34.18a2.16,2.16,0,0,1-1.06,1.09c-1.23.57-4,1.31-9-.09a2.22,2.22,0,0,1-1.59-1.87l-.2-1.64a5.09,5.09,0,0,0-1.87-3.27,2.85,2.85,0,0,0-2.14-.62,3.54,3.54,0,0,0-3,2.62l-1,4.83a2.16,2.16,0,0,1-1.43,1.53,18.11,18.11,0,0,1-5.49.64A13.63,13.63,0,0,1,97,163.54a2.2,2.2,0,0,1-1-1.45,82.31,82.31,0,0,1,.19-32.5.65.65,0,0,0-.51-.76.63.63,0,0,0-.76.5,83.66,83.66,0,0,0-.19,33,3.48,3.48,0,0,0,1.67,2.31,15,15,0,0,0,7.49,1.65Z"/></g><g id="그룹_4336" data-name="그룹 4336"><path id="패스_8916" data-name="패스 8916" class="cls-2" d="M130.36,162.88s.07-2.95-2-2.95-2.4,4.15-2.4,4.15a6.88,6.88,0,0,0,2.54-.38,5.3,5.3,0,0,0,1.85-.82"/><path id="패스_8917" data-name="패스 8917" class="cls-5" d="M125.91,164.72a.64.64,0,0,1-.58-.7c0-.48.46-4.74,3-4.74A2.28,2.28,0,0,1,130,160a4.48,4.48,0,0,1,1,2.92.68.68,0,0,1-.19.45,5.74,5.74,0,0,1-2.11,1,8.37,8.37,0,0,1-2.48.41A1.71,1.71,0,0,1,125.91,164.72Zm3.2-3.85a1,1,0,0,0-.74-.29c-.9,0-1.44,1.62-1.66,2.84a7.86,7.86,0,0,0,1.6-.34,8.69,8.69,0,0,0,1.39-.54,2.87,2.87,0,0,0-.59-1.67Z"/></g><g id="그룹_4337" data-name="그룹 4337"><path id="패스_8918" data-name="패스 8918" class="cls-2" d="M124.37,164a13.6,13.6,0,0,1-4.41-.82s.35-3.59,2.77-3.33c1.87.2,1.64,4.15,1.64,4.15"/><path id="패스_8919" data-name="패스 8919" class="cls-5" d="M119.74,163.82a.65.65,0,0,1-.42-.68,5.52,5.52,0,0,1,1.54-3.35,2.52,2.52,0,0,1,1.94-.56c2.41.26,2.25,4.37,2.22,4.83a.66.66,0,0,1-.64.62h0a14.75,14.75,0,0,1-4.6-.86Zm1.94-3a3.63,3.63,0,0,0-1,2,14.32,14.32,0,0,0,3,.58c0-1.14-.3-2.75-1.07-2.83h-.18a1.19,1.19,0,0,0-.8.28Z"/></g><g id="그룹_4338" data-name="그룹 4338"><path id="패스_8920" data-name="패스 8920" class="cls-2" d="M110,164.58s-.16-3.45-2.22-3.45-2.41,4.31-2.41,4.31a13.94,13.94,0,0,0,2.81-.2,8.43,8.43,0,0,0,1.82-.66"/><path id="패스_8921" data-name="패스 8921" class="cls-5" d="M105.28,166.09a.65.65,0,0,1-.61-.68v0c0-.5.49-4.91,3.06-4.91,2.12,0,2.8,2.56,2.87,4.07a.64.64,0,0,1-.36.61,8.68,8.68,0,0,1-2,.72,15.46,15.46,0,0,1-2.54.22Zm2.45-4.31c-.91,0-1.46,1.73-1.67,3a13,13,0,0,0,2-.2,6.18,6.18,0,0,0,1.24-.4c-.11-.79-.47-2.41-1.53-2.41Z"/></g><g id="그룹_4339" data-name="그룹 4339"><path id="패스_8922" data-name="패스 8922" class="cls-2" d="M103.3,165.55a18.41,18.41,0,0,1-4.48-.74s.4-3.79,2.82-3.52c1.87.2,1.66,4.26,1.66,4.26Z"/><path id="패스_8923" data-name="패스 8923" class="cls-5" d="M103.29,166.2a19.23,19.23,0,0,1-4.65-.76.65.65,0,0,1-.47-.69,5.85,5.85,0,0,1,1.63-3.56,2.55,2.55,0,0,1,1.9-.55c2.41.27,2.26,4.47,2.24,4.94a.65.65,0,0,1-.65.62Zm-2.67-4a4,4,0,0,0-1.07,2.14,19.3,19.3,0,0,0,3.1.52c0-1.18-.3-2.84-1.09-2.93h-.17a1.22,1.22,0,0,0-.77.28Z"/></g><g id="그룹_4340" data-name="그룹 4340"><path id="패스_8924" data-name="패스 8924" class="cls-4" d="M136.17,113.21s9.55,0,17,.82c0,0,.21-3.7,2.16-3.29s1.74,1.75,1.74,2.88c0,0,6.06-1.34,5.45,6.88s-8.63,3.18-8.63,3.18l-18.48.51"/><path id="패스_8925" data-name="패스 8925" class="cls-5" d="M158.65,125.85a4.42,4.42,0,0,0,2-.45c1.49-.75,2.34-2.38,2.53-4.86.23-3-.4-5.23-1.86-6.5a5.11,5.11,0,0,0-3.58-1.14,2.55,2.55,0,0,0-2.26-2.79,1.84,1.84,0,0,0-1.55.34,4.58,4.58,0,0,0-1.31,2.87c-7.34-.75-16.38-.76-16.47-.76a.65.65,0,0,0,0,1.3c.1,0,9.6,0,17,.82a.67.67,0,0,0,.49-.15.68.68,0,0,0,.23-.46,4.24,4.24,0,0,1,.88-2.59.54.54,0,0,1,.49-.1c1.21.25,1.25.81,1.24,1.93v.31a.65.65,0,0,0,.65.65l.13,0a4.14,4.14,0,0,1,3.25.78c1.13,1,1.61,2.82,1.41,5.42-.15,2-.76,3.26-1.82,3.8-2.2,1.12-5.78-1.09-5.81-1.11a.61.61,0,0,0-.37-.1l-18.48.51a.65.65,0,0,0-.63.66h0a.66.66,0,0,0,.67.63l18.29-.5a10.81,10.81,0,0,0,4.89,1.51Z"/></g><g id="그룹_4341" data-name="그룹 4341"><path id="패스_8926" data-name="패스 8926" class="cls-8" d="M130.19,109.64l12.2,2.43a51.49,51.49,0,0,1-.37,14.56l-6.94-.43s.21,12-.17,19.26a160.19,160.19,0,0,1-20.3,1.59,147.31,147.31,0,0,1-21.07-2s-.61-10.27-.38-13.22a29.69,29.69,0,0,1-6.67-3s3.87-14.46,13-17.94Z"/><path id="패스_8927" data-name="패스 8927" class="cls-5" d="M93.43,145.7a.65.65,0,0,1-.54-.6c0-.4-.54-9.35-.4-12.8a28.51,28.51,0,0,1-6.36-2.89.65.65,0,0,1-.26-.7c.16-.6,4.06-14.82,13.42-18.38a.73.73,0,0,1,.2,0L130.16,109a.43.43,0,0,1,.16,0l12.19,2.42a.64.64,0,0,1,.51.55,51.07,51.07,0,0,1-.37,14.76.63.63,0,0,1-.68.53l-6.23-.38c0,2.68.14,12.41-.18,18.61a.65.65,0,0,1-.55.6,163.8,163.8,0,0,1-20.39,1.6,149.11,149.11,0,0,1-21.19-2Zm41-19.49a.67.67,0,0,1,.2-.48.64.64,0,0,1,.49-.18l6.36.39a51.73,51.73,0,0,0,.32-13.33l-11.66-2.31-30.48,1.27c-7.79,3.05-11.67,14.6-12.4,17a31.3,31.3,0,0,0,6.1,2.61.66.66,0,0,1,.46.67c-.2,2.5.23,10.5.35,12.62a144.52,144.52,0,0,0,20.45,1.9,159.89,159.89,0,0,0,19.68-1.51C134.63,137.69,134.43,126.33,134.43,126.21Z"/></g><g id="그룹_4342" data-name="그룹 4342"><path id="패스_8928" data-name="패스 8928" class="cls-4" d="M127.49,69s3.2-8.88,15.28-7.36c11.06,1.38,11.47,16.77,7.77,22.76a17.68,17.68,0,0,1,.34,16.5c-4.38,9.16-18.06,10.42-22.59-.78"/><path id="패스_8929" data-name="패스 8929" class="cls-5" d="M139.49,108.8a13.32,13.32,0,0,0,12-7.61,18.3,18.3,0,0,0-.18-16.78c2.22-4,3-11.38.29-17A10.88,10.88,0,0,0,142.85,61c-12.44-1.56-15.93,7.69-16,7.79a.64.64,0,1,0,1.21.44h0c.13-.34,3.21-8.37,14.59-6.94A9.65,9.65,0,0,1,150.41,68c2.48,5.18,1.78,12.49-.43,16.06a.66.66,0,0,0,0,.69,17.18,17.18,0,0,1,.31,15.87,12,12,0,0,1-11.18,6.87c-4.6-.15-8.33-2.92-10.23-7.62a.65.65,0,0,0-1.22.43s0,0,0,.06c2.07,5.12,6.33,8.27,11.39,8.42Z"/></g><g id="그룹_4343" data-name="그룹 4343"><path id="패스_8930" data-name="패스 8930" class="cls-9" d="M106.08,108.56s-12.73,3.75-14.87,9.51c0,0,22.91,32.15,42.87,31.75a117.52,117.52,0,0,0,.8-13s-20.36-7.57-28.8-28.27"/><path id="패스_8931" data-name="패스 8931" class="cls-5" d="M104.71,134.56a134.3,134.3,0,0,1-14-16.11.68.68,0,0,1-.08-.6c2.23-6,14.76-9.76,15.3-9.91a.64.64,0,0,1,.78.37c8.23,20.19,28.23,27.83,28.44,27.91a.66.66,0,0,1,.42.62,124.09,124.09,0,0,1-.81,13.07.65.65,0,0,1-.63.56h-.39c-8.38,0-18.13-5.34-29-15.91Zm1-25.21c-2.38.78-11.7,4.06-13.77,8.63,2.32,3.15,23.3,31,41.57,31.2.17-1.46.6-5.69.72-11.92-3-1.24-20.63-9.25-28.52-27.91Z"/></g><g id="그룹_4344" data-name="그룹 4344"><path id="패스_8932" data-name="패스 8932" class="cls-10" d="M132.39,74.72s2.22-6.1,10-4.85c7.08,1.15,7.08,11.83,4.59,15.93a13.13,13.13,0,0,1-.06,11.46c-3,6.28-11.8,6.93-14.51-.93"/></g><g id="그룹_4345" data-name="그룹 4345"><path id="패스_8933" data-name="패스 8933" class="cls-4" d="M115.17,113.07c1.08,0,2.19,0,3.32-.07a46.83,46.83,0,0,0,9.13-1.94c6.55-2.09,11-5.17,13.33-9.17,2.4-4.2,2.26-9.27-.44-15.07-.23-2.21-3.43-27.6-27.13-27.6H113c-31.21.34-31.46,25.94-31.46,26.2A26.31,26.31,0,0,0,88.4,103.7c5.82,6.22,14.83,9.37,26.78,9.37"/><path id="패스_8934" data-name="패스 8934" class="cls-5" d="M87.92,104.15a26.7,26.7,0,0,1-7-18.72c0-.27.23-26.51,32.1-26.86h.36c10,0,17.95,4.6,22.93,13.3a40.72,40.72,0,0,1,4.84,14.78c2.75,6,2.87,11.2.36,15.57-2.37,4.14-7,7.32-13.7,9.46a46.8,46.8,0,0,1-9.3,2c-1.13,0-2.26.08-3.34.08-12.12,0-21.29-3.23-27.24-9.58ZM113,59.87c-30.46.33-30.82,25.3-30.82,25.6a25.84,25.84,0,0,0,6.67,17.79c5.69,6.08,14.54,9.17,26.3,9.17,1.06,0,2.17,0,3.26-.08a45.41,45.41,0,0,0,9-1.91c6.4-2,10.75-5,13-8.87,2.3-4,2.14-8.88-.46-14.48a.46.46,0,0,1,0-.21,40.17,40.17,0,0,0-4.69-14.37c-4.8-8.39-12.14-12.64-21.8-12.64Z"/></g><g id="그룹_4346" data-name="그룹 4346"><path id="패스_8935" data-name="패스 8935" class="cls-5" d="M130.83,89.6a2.46,2.46,0,1,0,2.38-2.87,2.65,2.65,0,0,0-2.38,2.87"/></g><g id="그룹_4347" data-name="그룹 4347"><path id="패스_8936" data-name="패스 8936" class="cls-5" d="M109.73,90.74a2.94,2.94,0,1,0,2.88-3.31,3.08,3.08,0,0,0-2.88,3.29v0"/></g><g id="그룹_4348" data-name="그룹 4348"><path id="패스_8937" data-name="패스 8937" class="cls-11" d="M112.77,89.73a.79.79,0,1,0,.77-.85.8.8,0,0,0-.77.83v0"/></g><g id="그룹_4349" data-name="그룹 4349"><path id="패스_8938" data-name="패스 8938" class="cls-11" d="M133.18,88.51a.67.67,0,1,0,1.34-.11.66.66,0,0,0-.7-.62.68.68,0,0,0-.64.72h0"/></g><g id="그룹_4350" data-name="그룹 4350"><path id="패스_8939" data-name="패스 8939" class="cls-4" d="M94.24,69s-3.33-8.83-15.38-7.15c-11,1.53-11.23,16.92-7.45,22.87a17.64,17.64,0,0,0-.12,16.5c4.51,9.1,18.2,10.17,22.57-1.09"/><path id="패스_8940" data-name="패스 8940" class="cls-5" d="M82.61,108.9h.59c5.06-.23,9.27-3.44,11.27-8.58a.65.65,0,1,0-1.21-.47h0c-1.83,4.72-5.52,7.55-10.12,7.76a12,12,0,0,1-11.27-6.72A17.18,17.18,0,0,1,72,85a.66.66,0,0,0,0-.69c-2.26-3.55-3-10.84-.65-16.06A9.66,9.66,0,0,1,79,62.44c11.37-1.58,14.55,6.4,14.68,6.74a.65.65,0,0,0,1.22-.46c0-.1-3.66-9.29-16.08-7.57a10.86,10.86,0,0,0-8.63,6.57c-2.6,5.61-1.76,13,.52,17a18.3,18.3,0,0,0,0,16.78,13.32,13.32,0,0,0,11.9,7.45Z"/></g><g id="그룹_4351" data-name="그룹 4351"><path id="패스_8941" data-name="패스 8941" class="cls-10" d="M90.45,73.59s-2.3-6.07-10-4.71c-7.07,1.24-6.91,11.93-4.37,16a13.08,13.08,0,0,0,.22,11.45c3.06,6.24,11.89,6.77,14.49-1.12"/></g><g id="그룹_4352" data-name="그룹 4352"><path id="패스_8942" data-name="패스 8942" class="cls-4" d="M117.22,85.1a8.52,8.52,0,0,1-5.72-2.23"/><path id="패스_8943" data-name="패스 8943" class="cls-5" d="M117.11,85.75h.14a.64.64,0,0,0,.62-.67.66.66,0,0,0-.68-.63,8,8,0,0,1-5.25-2,.64.64,0,1,0-.89.93h0A9.15,9.15,0,0,0,117.11,85.75Z"/></g><g id="그룹_4353" data-name="그룹 4353"><path id="패스_8944" data-name="패스 8944" class="cls-4" d="M130.06,85.1a8.56,8.56,0,0,0,5.72-2.23"/><path id="패스_8945" data-name="패스 8945" class="cls-5" d="M130.17,85.75a9.12,9.12,0,0,0,6.05-2.41.64.64,0,0,0,0-.91.65.65,0,0,0-.91,0,8,8,0,0,1-5.25,2.06.63.63,0,0,0-.67.62.65.65,0,0,0,.62.68Z"/></g><g id="그룹_4354" data-name="그룹 4354"><path id="패스_8946" data-name="패스 8946" class="cls-12" d="M123.18,100.87s-5.73-1.1-6.79.42c-1.29,1.85.22,4.25,2.74,4.08s1.45-4.42,1.45-4.42"/></g><g id="그룹_4355" data-name="그룹 4355"><path id="패스_8947" data-name="패스 8947" class="cls-7" d="M115.55,104.34a3.24,3.24,0,0,1,.18-3.5c1.26-1.81,6.14-1,7.6-.75a.8.8,0,1,1-.18,1.59l-.12,0c-.5-.1-1-.18-1.54-.24a5.5,5.5,0,0,1-.51,3.8,2.33,2.33,0,0,1-1.8,1h-.3a3.75,3.75,0,0,1-3.33-1.84Zm1.49-2.6a1.65,1.65,0,0,0-.1,1.81,2.2,2.2,0,0,0,2.14,1,.73.73,0,0,0,.6-.3,4.58,4.58,0,0,0,.16-3c-1.39-.06-2.54.08-2.79.45Z"/></g><g id="그룹_4358" data-name="그룹 4358"><g id="그룹_4356" data-name="그룹 4356"><path id="패스_8948" data-name="패스 8948" class="cls-10" d="M119.13,105.35a1.19,1.19,0,0,0,.88-.4,3.1,3.1,0,0,0,.5-2v-.11l-.07-.08a2.26,2.26,0,0,0-1.61-.65,14.52,14.52,0,0,0-2.27.28l-.24.05,0,.23a2.21,2.21,0,0,0,.49,1.83,3.07,3.07,0,0,0,2.25.86Z"/></g><g id="그룹_4357" data-name="그룹 4357"><path id="패스_8949" data-name="패스 8949" class="cls-5" d="M118.82,102.43a1.9,1.9,0,0,1,1.36.54s.16,2-1.06,2H119c-1.15,0-2.63-.54-2.41-2.32a14.69,14.69,0,0,1,2.2-.27m0-.66a15.58,15.58,0,0,0-2.34.29l-.46.1-.06.47a2.53,2.53,0,0,0,.57,2.08,3.4,3.4,0,0,0,2.5,1h.11a1.55,1.55,0,0,0,1.12-.51,3.4,3.4,0,0,0,.58-2.25v-.22l-.15-.17a2.54,2.54,0,0,0-1.85-.76Z"/></g></g><g id="그룹_4359" data-name="그룹 4359"><path id="패스_8950" data-name="패스 8950" class="cls-4" d="M126.36,86.31s8.5,11.73,17-.55a.92.92,0,0,1,1.24-.26l2.64,1.55a1,1,0,0,1,.4,1.23c-1.78,4.25-9.4,22.87-28.57,9.25"/><path id="패스_8951" data-name="패스 8951" class="cls-5" d="M131.79,103.08a13.6,13.6,0,0,0,3.7-.51c7.8-2.23,11.49-11,12.7-13.95l0-.09a1.65,1.65,0,0,0-.65-2l-2.66-1.55a1.55,1.55,0,0,0-2.09.45c-2.43,3.5-5,5.29-7.81,5.33h-.07c-4.52,0-8-4.75-8.06-4.79a.64.64,0,0,0-.9-.15.65.65,0,0,0-.15.91c.16.22,3.92,5.32,9.1,5.32H135c3.2,0,6.18-2,8.86-5.88a.27.27,0,0,1,.37-.08l2.65,1.56A.35.35,0,0,1,147,88l0,.09c-1.15,2.75-4.66,11.14-11.85,13.2-4.55,1.3-9.84-.15-15.71-4.33a.65.65,0,0,0-.9.16.64.64,0,0,0,.15.9h0c4.71,3.35,9.1,5,13.11,5Z"/></g><g id="그룹_4360" data-name="그룹 4360"><path id="패스_8952" data-name="패스 8952" class="cls-4" d="M130.72,90.24s-2.81.13-3.59,2.56"/><path id="패스_8953" data-name="패스 8953" class="cls-5" d="M127.44,92.9a3.71,3.71,0,0,1,3.29-2.33l0-.66c-.12,0-3,.17-3.89,2.79Z"/></g><g id="그룹_4361" data-name="그룹 4361"><path id="패스_8954" data-name="패스 8954" class="cls-13" d="M127.13,93.59a.8.8,0,0,0,.76-.55,3.27,3.27,0,0,1,2.87-2,.8.8,0,0,0,.76-.83.79.79,0,0,0-.82-.76h0c-.13,0-3.38.19-4.31,3.11a.8.8,0,0,0,.52,1A.61.61,0,0,0,127.13,93.59Z"/></g><g id="그룹_4362" data-name="그룹 4362"><path id="패스_8955" data-name="패스 8955" class="cls-4" d="M134.34,91.39a4.54,4.54,0,0,0-2.53,3"/><path id="패스_8956" data-name="패스 8956" class="cls-5" d="M132.12,94.51a4.29,4.29,0,0,1,2.32-2.82l-.21-.62a4.87,4.87,0,0,0-2.73,3.24Z"/></g><g id="그룹_4363" data-name="그룹 4363"><path id="패스_8957" data-name="패스 8957" class="cls-13" d="M131.81,95.21a.8.8,0,0,0,.76-.55,3.81,3.81,0,0,1,2-2.52.8.8,0,0,0-.52-1.51,5.37,5.37,0,0,0-3,3.54.8.8,0,0,0,.52,1,.64.64,0,0,0,.24,0Z"/></g><g id="그룹_4364" data-name="그룹 4364"><path id="패스_8958" data-name="패스 8958" class="cls-4" d="M138.15,90.82a4.23,4.23,0,0,0-.64,3.8"/><path id="패스_8959" data-name="패스 8959" class="cls-5" d="M137.2,94.74l.62-.23a3.9,3.9,0,0,1,.59-3.48l-.52-.42a4.52,4.52,0,0,0-.69,4.13Z"/></g><g id="그룹_4365" data-name="그룹 4365"><path id="패스_8960" data-name="패스 8960" class="cls-13" d="M137.51,95.42a.79.79,0,0,0,.79-.8.84.84,0,0,0,0-.27,3.39,3.39,0,0,1,.51-3,.8.8,0,0,0-.18-1.12.79.79,0,0,0-1.06.12,5,5,0,0,0-.77,4.57A.79.79,0,0,0,137.51,95.42Z"/></g><g id="그룹_4366" data-name="그룹 4366"><path id="패스_8961" data-name="패스 8961" class="cls-4" d="M143.5,85.77s-1.36-3.45,1.28-4.27,2.7,2.62,2.7,2.62,4.1-3.69,5.69-.76c1.72,3.17-1.49,6.42-5.71,5.31"/><path id="패스_8962" data-name="패스 8962" class="cls-5" d="M149.11,89.54a5.43,5.43,0,0,0,4.31-1.93,4,4,0,0,0,.31-4.56,2.6,2.6,0,0,0-1.89-1.43,5.88,5.88,0,0,0-3.9,1.3,3.13,3.13,0,0,0-1.1-1.78,2.45,2.45,0,0,0-2.26-.26,2.78,2.78,0,0,0-1.76,1.47A5.16,5.16,0,0,0,142.9,86a.65.65,0,1,0,1.2-.48A3.87,3.87,0,0,1,144,82.9a1.49,1.49,0,0,1,1-.78c.72-.22,1,0,1.12.07a2.81,2.81,0,0,1,.74,2,.65.65,0,0,0,.66.63.59.59,0,0,0,.42-.17c.61-.54,2.47-1.92,3.73-1.7a1.3,1.3,0,0,1,1,.77,2.76,2.76,0,0,1-.19,3.14A4.53,4.53,0,0,1,147.62,88a.65.65,0,1,0-.32,1.26,7.81,7.81,0,0,0,1.81.24Z"/></g><g id="그룹_4367" data-name="그룹 4367"><path id="패스_8963" data-name="패스 8963" class="cls-2" d="M118,96.41a2.1,2.1,0,0,0,.85,2c2.15,1.58,6.83,4,14.22,2,.83-.23,2.05-.9,1.75-2.08s-1.8-.76-3.5-1a16.74,16.74,0,0,1-5.41-1.65c-1.7-.93-2.8-1.58-3.49-2a2.53,2.53,0,0,0-3.31.51c-.12.14-.24.3-.37.48a4.16,4.16,0,0,0-.74,1.79"/></g><g id="그룹_4368" data-name="그룹 4368"><path id="패스_8964" data-name="패스 8964" class="cls-5" d="M125,101.63a19,19,0,0,0,8.24-.53,3.47,3.47,0,0,0,2-1.44,2,2,0,0,0,.19-1.53c-.34-1.36-1.6-1.4-2.71-1.44a11.9,11.9,0,0,1-1.34-.1A16,16,0,0,1,126.21,95a42.61,42.61,0,0,1-3.9-2.32l-.17-.1a.68.68,0,0,0-.94.2,1,1,0,0,0-.07.15h0a.71.71,0,0,0,.27.85l.15.1a46.56,46.56,0,0,0,4,2.39A17.11,17.11,0,0,0,131.18,98a12.3,12.3,0,0,0,1.49.12c1.12,0,1.38.1,1.45.38a.56.56,0,0,1-.05.44,2.07,2.07,0,0,1-1.2.75c-7.21,2-12.14-.67-14.33-2.32a.67.67,0,0,0-1,.13.75.75,0,0,0,.13,1h0a16.66,16.66,0,0,0,7.25,3.08"/></g><g id="그룹_4369" data-name="그룹 4369"><path id="사각형_2094" data-name="사각형 2094" class="cls-2" d="M154,126.76l4.72-20.41,3.8.88-4.72,20.41Z"/></g><g id="그룹_4370" data-name="그룹 4370"><path id="패스_8965" data-name="패스 8965" class="cls-13" d="M157.57,128.41l-3.8-.88a.79.79,0,0,1-.6-1l4.72-20.4a.8.8,0,0,1,1-.6l3.8.88a.79.79,0,0,1,.6,1l-4.73,20.41a.79.79,0,0,1-.77.62A.57.57,0,0,1,157.57,128.41Zm1.7-21.1-4.37,18.85,2.25.52,4.36-18.85Z"/></g><g id="그룹_4371" data-name="그룹 4371"><path id="사각형_2095" data-name="사각형 2095" class="cls-2" d="M141.2,103.05l5.69-24.51,38,8.83-5.69,24.5Z"/></g><g id="그룹_4372" data-name="그룹 4372"><path id="패스_8966" data-name="패스 8966" class="cls-13" d="M179.06,112.63l-38-8.81a.8.8,0,0,1-.6-1l5.67-24.5a.8.8,0,0,1,1-.6l38,8.81a.79.79,0,0,1,.6,1L180,112a.79.79,0,0,1-.77.62l-.18,0ZM147.48,79.5l-5.32,23,36.48,8.44,5.31-23Z"/></g><g id="그룹_4373" data-name="그룹 4373"><path id="패스_8967" data-name="패스 8967" class="cls-4" d="M160.86,117c.08-.18-4.68-3.7-6.2,2.63-.76,3.18,3,5.83,4.33,4.86s1.88-4,1.88-4Z"/><path id="패스_8968" data-name="패스 8968" class="cls-5" d="M159.25,125.21c-2.22-.06-3.78-.67-4.66-1.82a4.43,4.43,0,0,1-.56-3.9c.58-2.4,1.68-3.8,3.27-4.17a4.84,4.84,0,0,1,4,1.23.76.76,0,0,1,.11.73.65.65,0,0,1-.86.32.67.67,0,0,1-.28-.25,3.59,3.59,0,0,0-2.8-.75c-1,.28-1.78,1.35-2.23,3.19a3.27,3.27,0,0,0,.33,2.81c.62.81,1.89,1.27,3.67,1.32a.65.65,0,0,1,.64.65.66.66,0,0,1-.66.65Zm1-8.4a.14.14,0,0,1,0-.06l0,.06Z"/></g><g id="그룹_4374" data-name="그룹 4374"><path id="패스_8969" data-name="패스 8969" class="cls-2" d="M101.35,116.3l-1.52-1.49c.3.66.59,1.33.88,2l-.94.74c-.48-1.06-.93-2.13-1.46-3.16l.54-.41-1-.81,1-.71q1.8,1.48,3.5,3.12l-.94.73m-4.77-.24.32-.26-1-1.31.93-.71c1,1.25,1.9,2.54,2.8,3.86l-.93.73c-.37-.55-.74-1.1-1.12-1.64l-.33.25-.68-.92"/></g><g id="그룹_4375" data-name="그룹 4375"><path id="패스_8970" data-name="패스 8970" class="cls-2" d="M104.39,118.78c.06.07.25.32.3.4.58.92,1.07,1.83.12,2.64s-1.74.12-2.43-.7a4.56,4.56,0,0,1-.31-.42c-.57-.93-1-1.91-.07-2.7s1.71,0,2.39.77M103,120l.23.32c.21.29.62,1,1,.68s-.18-.88-.41-1.17a3.71,3.71,0,0,0-.23-.32c-.2-.29-.58-1-1-.7s.16.89.38,1.19m-.52,3.87c-1-1.33-2-2.69-3-4.07l.91-.74q1.41,2.07,3,4l-.89.78"/></g><g id="그룹_4376" data-name="그룹 4376"><path id="패스_8971" data-name="패스 8971" class="cls-2" d="M106.53,126.16l-.34.31,1.23,1.41-.84.81c-1-1.19-2.08-2.38-3.12-3.57l.88-.79,1.15,1.32.33-.3-1-1.2.84-.75.84,1,.56-.52c-.28-.32-.55-.66-.83-1l.83-.74c1,1.13,1.9,2.25,2.89,3.35l-2.4,1.81c-.34-.38-.66-.76-1-1.15m1.87-.69-.73-.85-.56.52.68.78.61-.45"/></g><g id="그룹_4377" data-name="그룹 4377"><path id="패스_8972" data-name="패스 8972" class="cls-2" d="M113.45,129.31c-.7.8-1.4,1.6-2.12,2.39l.54.5-.77.88-1.11-1q1.45-1.62,2.94-3.22l.52.48m-4.24,2.21c.37-.42.82-.88,1.17-1.28,0,0-.09-.17-.13-.13-.35.33-.74.78-1.09,1.15l-.5-.5.44-.47-.42-.42-.45.45-.5-.53q1.56-1.53,3.09-3.09l.47.51-.44.46.4.41.44-.46.46.47c-.34.38-.76.8-1.07,1.15,0,.05.09.17.13.13.37-.37.8-.85,1.18-1.26l.54.5c-1.06,1.15-2.11,2.29-3.15,3.44-.19-.17-.39-.35-.57-.54m1.3-2.67-.41-.42-.68.68.42.43.67-.69"/></g><g id="그룹_4378" data-name="그룹 4378"><path id="패스_8973" data-name="패스 8973" class="cls-2" d="M116.69,136,116,137c-.49-.33-1-.66-1.45-1,.93-1.23,1.83-2.47,2.77-3.68l.75.53c-.67.93-1.35,1.85-2,2.77.21.15.42.3.64.44m-3.33-3.24c.6-.73,1.21-1.45,1.8-2.2l.55.46c-.33.43-.72.89-1,1.29,0,0,.09.14.12.1.34-.37.7-.86,1-1.28l1.33,1c-.63.74-1.23,1.48-1.86,2.22l-.6-.45c.38-.44.75-.86,1.12-1.32,0,0-.13-.16-.17-.11-.35.4-.68.89-1,1.3l-1.28-1m1,3.05c-.78-.57-1.54-1.17-2.28-1.78.25-.29.49-.6.74-.9.1,0,.21.22.3.24s.18-.31.27-.27a3.09,3.09,0,0,1,.6.48c.06.07-.25.24-.21.31a.71.71,0,0,0,.27.21c.07,0,.16-.32.25-.28a3.16,3.16,0,0,1,.62.47c.06.08-.25.23-.21.32s.26.18.35.27l-.7.93"/></g><g id="그룹_4379" data-name="그룹 4379"><path id="패스_8974" data-name="패스 8974" class="cls-2" d="M121.53,135.47a2,2,0,0,1,.8,2.67l-.14.22a1.86,1.86,0,0,1-2.51.79,2.25,2.25,0,0,1-.36-.24,2,2,0,0,1-.82-2.64,1.4,1.4,0,0,1,.16-.26,1.9,1.9,0,0,1,2.59-.73,1.73,1.73,0,0,1,.28.19m-.59.92c-.51-.36-1.1-.45-1.48.13s0,1.09.46,1.45,1.11.46,1.48-.13.06-1.09-.46-1.45"/></g><g id="그룹_4380" data-name="그룹 4380"><path id="패스_8975" data-name="패스 8975" class="cls-2" d="M124.64,137.64a9.66,9.66,0,0,0-.56,1c.47.26,1.33.68,1.73.87.62.3,1.07.51.75,1.14s-.78.46-1.43.16c-.42-.19-1.3-.64-1.78-.9a9.75,9.75,0,0,0-.57,1c.53.27,1.36.73,1.85.93,1.26.5,2.24.42,2.82-.81s0-1.84-1.08-2.48c-.44-.25-1.25-.6-1.73-.89"/></g><g id="그룹_4381" data-name="그룹 4381"><path id="패스_8976" data-name="패스 8976" class="cls-2" d="M133.2,142.8a31,31,0,0,0-2.92-1.36l.51-1.14-.9-.35-1.53,3.37.93.36c.18-.4.35-.8.53-1.21,1,.41,2,.89,2.93,1.37l.45-1"/></g><g id="그룹_4382" data-name="그룹 4382"><path id="패스_8977" data-name="패스 8977" class="cls-8" d="M94.61,124.94a22,22,0,0,0-1.45,6.89"/></g><g id="그룹_4383" data-name="그룹 4383"><path id="패스_8978" data-name="패스 8978" class="cls-4" d="M89.85,139.89s-3.23.2-3.08,1.58,3.42.92,3.42.92"/><path id="패스_8979" data-name="패스 8979" class="cls-5" d="M89,142.8a8.42,8.42,0,0,0,1.22-.08l-.1-.65c-.58.08-2.22.2-2.83-.28a.49.49,0,0,1-.12-.69l0,0a4.83,4.83,0,0,1,2.64-.84l0-.65c-.24,0-2.35.16-3.1,1.07a1.15,1.15,0,0,0,.1,1.62l.08.06A3.69,3.69,0,0,0,89,142.8Z"/></g></g><path id="패스_4719" data-name="패스 4719" class="cls-14" d="M151.08,90.63l-1.32-.3L152,85.56l1.32.3-.62,1.34.76.17-.14,3.77-1.32-.3.08-2.32ZM156,88.27l-.27,1.24-.46-.1-.46,2.06-1.3-.3L154.64,86l1.3.29-.42,1.84Z"/><path id="패스_4720" data-name="패스 4720" class="cls-14" d="M156.14,88.87c.36-1.6,1-2.15,2.18-1.88s1.51,1,1.15,2.63l-.12.56c-.36,1.6-1,2.15-2.18,1.88s-1.51-1-1.15-2.63Zm2.08.52c.23-1,.17-1.26-.14-1.33s-.48.12-.7,1.14l-.1.46c-.24,1-.17,1.26.14,1.33s.47-.12.7-1.14Zm2.43,3.4-1.3-.3,1.16-5.13,1.3.29Z"/><path id="패스_4721" data-name="패스 4721" class="cls-14" d="M165,91.56l-.38,1.7-3.42-.36,1.12-5,1.24.28-.32,1.41.85.19.32-1.41,1.24.28-.38,1.69.51.11.41-1.86,1.3.29-1.15,5.14-1.3-.29.47-2.09Zm-2.29.4.87.09.27-1.16L163,90.7Z"/><path id="패스_4722" data-name="패스 4722" class="cls-14" d="M172.42,92.78l-.19.86L167,92.47l.19-.86,2,.44,0-.22-1.78-.4.18-.77.7.15.15-.66-.7-.16.18-.8,4.85,1.09-.18.8-.7-.16-.15.67.7.16-.17.77-1.78-.4-.05.23Zm-5.44.73.19-.83L172,93.77l-.37,1.64-1.3-.29.19-.81Zm2.54-2.43,1.07.24.15-.66-1.07-.25Z"/><path id="패스_4723" data-name="패스 4723" class="cls-14" d="M176.58,91.19,176.16,93l-1.86-.42-.05.25,1.94.33L176,94l-3.26-.56.44-2,1.86.42.05-.2-1.86-.42.19-.85Zm-.48,5.28.19-.85-3.84-.86.24-1.07,5.14,1.16-.43,1.91Zm1.78-1.85-1.3-.29.11-.51-.45-.1.2-.9.45.1.09-.39-.45-.1.2-.9.45.1.1-.46,1.3.3Z"/><path id="패스_4724" data-name="패스 4724" class="cls-14" d="M151.05,95.33c.52-2.27,2-3.37,4.26-2.86s3.14,2.14,2.63,4.41-2,3.37-4.26,2.85-3.14-2.13-2.62-4.4m1.84.42c-.31,1.41.18,2.14,1.15,2.36s1.72-.24,2-1.64-.17-2.15-1.14-2.37-1.73.24-2,1.65"/><path id="패스_4725" data-name="패스 4725" class="cls-14" d="M159.21,93.52l1.85.42-.79,3.51c-.3,1.37-.23,2,.76,2.23s1.34-.32,1.65-1.69l.79-3.51,1.84.42-.79,3.5c-.5,2.23-1.47,3.44-3.85,2.9s-2.75-2-2.25-4.27Z"/><path id="패스_4726" data-name="패스 4726" class="cls-14" d="M166.52,102.45l1.2-5.31-2.1-.47.36-1.62L172,96.41,171.67,98l-2.11-.48-1.2,5.31Z"/><path id="패스_4727" data-name="패스 4727" class="cls-14" d="M171.85,101.51,173,96.34l1.85.41-1.17,5.17Zm-.46,2,.36-1.63,1.85.42-.36,1.62Z"/></g></g></g><g class="cls-15"><g id="마스크_그룹_30" data-name="마스크 그룹 30"><g id="그룹_3682" data-name="그룹 3682"><g id="그룹_4384-2" data-name="그룹 4384-2"><g id="그룹_4331-2" data-name="그룹 4331-2"><path id="패스_8908-2" data-name="패스 8908-2" class="cls-4" d="M90.41,125.13,88,138.58s-4.37,0-5.51,1.78,1.14,4.87,9.56,3.73c0,0,2,.49,2.11-5s2.59-8.43,2.59-8.43"/><path id="패스_8909-2" data-name="패스 8909-2" class="cls-5" d="M88.63,145a27.62,27.62,0,0,0,3.4-.24,1.71,1.71,0,0,0,1.15-.37c1-.74,1.52-2.53,1.61-5.3a14,14,0,0,1,2.44-8,.65.65,0,1,0-1-.83c-.1.13-2.58,3.16-2.74,8.83-.09,3.07-.76,4-1,4.25a.46.46,0,0,1-.31.15.34.34,0,0,0-.2,0c-5.38.72-8.12-.31-8.89-1.52a1.09,1.09,0,0,1,0-1.22c.69-1.08,3.41-1.48,5-1.48a.64.64,0,0,0,.63-.54L91,125.24a.64.64,0,0,0-.5-.76.65.65,0,0,0-.77.5v0l-2.34,12.93c-1.31.07-4.44.39-5.51,2.07a2.38,2.38,0,0,0,0,2.62c.5.79,2.09,2.36,6.67,2.36Z"/></g><g id="그룹_4332-2" data-name="그룹 4332-2"><path id="패스_8910-2" data-name="패스 8910-2" class="cls-4" d="M85.38,154.38A6.76,6.76,0,0,0,90.1,152a7.17,7.17,0,0,0,1.31.11,8,8,0,0,0,6-2.85.81.81,0,0,0,0-1L96.2,146.7a.78.78,0,0,0-.63-.31h-.06a.78.78,0,0,0-.64.4,6.88,6.88,0,0,1-4.81,2.91,6,6,0,0,0-5.2-3.09,10.07,10.07,0,0,0-5.53,2,.81.81,0,0,0-.33.84c0,.12.71,2.91,4.44,4.48a5.13,5.13,0,0,0,1.93.4"/><path id="패스_8911-2" data-name="패스 8911-2" class="cls-5" d="M83.2,154.58c-4-1.66-4.75-4.6-4.83-4.93a1.45,1.45,0,0,1,.59-1.52,10.64,10.64,0,0,1,5.9-2.16,6.62,6.62,0,0,1,5.5,3,6.06,6.06,0,0,0,4-2.51,1.45,1.45,0,0,1,1.18-.73h.08a1.44,1.44,0,0,1,1.14.56l1.19,1.55a1.44,1.44,0,0,1,0,1.77,8.66,8.66,0,0,1-6.49,3.1,7.45,7.45,0,0,1-1.06-.07,7.26,7.26,0,0,1-5,2.38,5.77,5.77,0,0,1-2.17-.45Zm7-3.26a6.78,6.78,0,0,0,1.2.1,7.44,7.44,0,0,0,5.47-2.6.17.17,0,0,0,0-.19l-1.19-1.54a.16.16,0,0,0-.13-.06.13.13,0,0,0-.12.08,7.55,7.55,0,0,1-5.28,3.23.66.66,0,0,1-.66-.31,5.35,5.35,0,0,0-4.63-2.77,9.5,9.5,0,0,0-5.17,1.93.15.15,0,0,0-.06.16c0,.1.63,2.59,4.06,4a4.38,4.38,0,0,0,1.68.34,6.09,6.09,0,0,0,4.23-2.2.65.65,0,0,1,.49-.21Z"/></g><g id="그룹_4333-2" data-name="그룹 4333-2"><path id="패스_8912-2" data-name="패스 8912-2" class="cls-6" d="M90,151.22s-2.61,3.7-6.19,2.2-4.26-4.16-4.26-4.16c7.54-5.17,10.13.94,10.13.94"/></g><g id="그룹_4334-2" data-name="그룹 4334-2"><path id="패스_8913-2" data-name="패스 8913-2" class="cls-7" d="M87.26,151.9a4.32,4.32,0,0,0,2.69-.62.79.79,0,0,0,0-1.13.8.8,0,0,0-1,0,10.32,10.32,0,0,1-5.86-.65.8.8,0,1,0-.92,1.3l.1.07a11.57,11.57,0,0,0,5.08,1.07Z"/></g><g id="그룹_4335-2" data-name="그룹 4335-2"><path id="패스_8914-2" data-name="패스 8914-2" class="cls-4" d="M95.53,129.46a82.92,82.92,0,0,0-.19,32.77,2.87,2.87,0,0,0,1.36,1.88,14.36,14.36,0,0,0,7.17,1.56,18.54,18.54,0,0,0,5.69-.68,2.84,2.84,0,0,0,1.86-2l1-4.8a2.88,2.88,0,0,1,2.36-2.13h.07c1.6-.24,3.08,1.72,3.28,3.32l.2,1.64a2.85,2.85,0,0,0,2.05,2.42c5.13,1.43,8.09.7,9.5,0a2.87,2.87,0,0,0,1.38-1.41c5.82-13.22,4.21-28.59,3-34.57"/><path id="패스_8915-2" data-name="패스 8915-2" class="cls-5" d="M103.87,166.32a19.82,19.82,0,0,0,5.89-.71,3.46,3.46,0,0,0,2.29-2.46l1-4.83a2.21,2.21,0,0,1,1.82-1.62H115a1.57,1.57,0,0,1,1.17.37,3.84,3.84,0,0,1,1.37,2.39l.2,1.63a3.51,3.51,0,0,0,2.52,3c5.13,1.44,8.24.8,9.94,0a3.43,3.43,0,0,0,1.7-1.74c6.76-15.33,3.44-33,3-35a.64.64,0,0,0-.76-.5.65.65,0,0,0-.51.76h0c.39,1.93,3.64,19.22-2.95,34.18a2.16,2.16,0,0,1-1.06,1.09c-1.23.57-4,1.31-9-.09a2.22,2.22,0,0,1-1.59-1.87l-.2-1.64a5.09,5.09,0,0,0-1.87-3.27,2.85,2.85,0,0,0-2.14-.62,3.54,3.54,0,0,0-3,2.62l-1,4.83a2.16,2.16,0,0,1-1.43,1.53,18.11,18.11,0,0,1-5.49.64A13.63,13.63,0,0,1,97,163.54a2.2,2.2,0,0,1-1-1.45,82.31,82.31,0,0,1,.19-32.5.65.65,0,0,0-.51-.76.63.63,0,0,0-.76.5,83.66,83.66,0,0,0-.19,33,3.48,3.48,0,0,0,1.67,2.31,15,15,0,0,0,7.49,1.65Z"/></g><g id="그룹_4336-2" data-name="그룹 4336-2"><path id="패스_8916-2" data-name="패스 8916-2" class="cls-2" d="M130.36,162.88s.07-2.95-2-2.95-2.4,4.15-2.4,4.15a6.88,6.88,0,0,0,2.54-.38,5.3,5.3,0,0,0,1.85-.82"/><path id="패스_8917-2" data-name="패스 8917-2" class="cls-5" d="M125.91,164.72a.64.64,0,0,1-.58-.7c0-.48.46-4.74,3-4.74A2.28,2.28,0,0,1,130,160a4.48,4.48,0,0,1,1,2.92.68.68,0,0,1-.19.45,5.74,5.74,0,0,1-2.11,1,8.37,8.37,0,0,1-2.48.41A1.71,1.71,0,0,1,125.91,164.72Zm3.2-3.85a1,1,0,0,0-.74-.29c-.9,0-1.44,1.62-1.66,2.84a7.86,7.86,0,0,0,1.6-.34,8.69,8.69,0,0,0,1.39-.54,2.87,2.87,0,0,0-.59-1.67Z"/></g><g id="그룹_4337-2" data-name="그룹 4337-2"><path id="패스_8918-2" data-name="패스 8918-2" class="cls-2" d="M124.37,164a13.6,13.6,0,0,1-4.41-.82s.35-3.59,2.77-3.33c1.87.2,1.64,4.15,1.64,4.15"/><path id="패스_8919-2" data-name="패스 8919-2" class="cls-5" d="M119.74,163.82a.65.65,0,0,1-.42-.68,5.52,5.52,0,0,1,1.54-3.35,2.52,2.52,0,0,1,1.94-.56c2.41.26,2.25,4.37,2.22,4.83a.66.66,0,0,1-.64.62h0a14.75,14.75,0,0,1-4.6-.86Zm1.94-3a3.63,3.63,0,0,0-1,2,14.32,14.32,0,0,0,3,.58c0-1.14-.3-2.75-1.07-2.83h-.18a1.19,1.19,0,0,0-.8.28Z"/></g><g id="그룹_4338-2" data-name="그룹 4338-2"><path id="패스_8920-2" data-name="패스 8920-2" class="cls-2" d="M110,164.58s-.16-3.45-2.22-3.45-2.41,4.31-2.41,4.31a13.94,13.94,0,0,0,2.81-.2,8.43,8.43,0,0,0,1.82-.66"/><path id="패스_8921-2" data-name="패스 8921-2" class="cls-5" d="M105.28,166.09a.65.65,0,0,1-.61-.68v0c0-.5.49-4.91,3.06-4.91,2.12,0,2.8,2.56,2.87,4.07a.64.64,0,0,1-.36.61,8.68,8.68,0,0,1-2,.72,15.46,15.46,0,0,1-2.54.22Zm2.45-4.31c-.91,0-1.46,1.73-1.67,3a13,13,0,0,0,2-.2,6.18,6.18,0,0,0,1.24-.4c-.11-.79-.47-2.41-1.53-2.41Z"/></g><g id="그룹_4339-2" data-name="그룹 4339-2"><path id="패스_8922-2" data-name="패스 8922-2" class="cls-2" d="M103.3,165.55a18.41,18.41,0,0,1-4.48-.74s.4-3.79,2.82-3.52c1.87.2,1.66,4.26,1.66,4.26Z"/><path id="패스_8923-2" data-name="패스 8923-2" class="cls-5" d="M103.29,166.2a19.23,19.23,0,0,1-4.65-.76.65.65,0,0,1-.47-.69,5.85,5.85,0,0,1,1.63-3.56,2.55,2.55,0,0,1,1.9-.55c2.41.27,2.26,4.47,2.24,4.94a.65.65,0,0,1-.65.62Zm-2.67-4a4,4,0,0,0-1.07,2.14,19.3,19.3,0,0,0,3.1.52c0-1.18-.3-2.84-1.09-2.93h-.17a1.22,1.22,0,0,0-.77.28Z"/></g><g id="그룹_4340-2" data-name="그룹 4340-2"><path id="패스_8924-2" data-name="패스 8924-2" class="cls-4" d="M136.17,113.21s9.55,0,17,.82c0,0,.21-3.7,2.16-3.29s1.74,1.75,1.74,2.88c0,0,6.06-1.34,5.45,6.88s-8.63,3.18-8.63,3.18l-18.48.51"/><path id="패스_8925-2" data-name="패스 8925-2" class="cls-5" d="M158.65,125.85a4.42,4.42,0,0,0,2-.45c1.49-.75,2.34-2.38,2.53-4.86.23-3-.4-5.23-1.86-6.5a5.11,5.11,0,0,0-3.58-1.14,2.55,2.55,0,0,0-2.26-2.79,1.84,1.84,0,0,0-1.55.34,4.58,4.58,0,0,0-1.31,2.87c-7.34-.75-16.38-.76-16.47-.76a.65.65,0,0,0,0,1.3c.1,0,9.6,0,17,.82a.67.67,0,0,0,.49-.15.68.68,0,0,0,.23-.46,4.24,4.24,0,0,1,.88-2.59.54.54,0,0,1,.49-.1c1.21.25,1.25.81,1.24,1.93v.31a.65.65,0,0,0,.65.65l.13,0a4.14,4.14,0,0,1,3.25.78c1.13,1,1.61,2.82,1.41,5.42-.15,2-.76,3.26-1.82,3.8-2.2,1.12-5.78-1.09-5.81-1.11a.61.61,0,0,0-.37-.1l-18.48.51a.65.65,0,0,0-.63.66h0a.66.66,0,0,0,.67.63l18.29-.5a10.81,10.81,0,0,0,4.89,1.51Z"/></g><g id="그룹_4341-2" data-name="그룹 4341-2"><path id="패스_8926-2" data-name="패스 8926-2" class="cls-8" d="M130.19,109.64l12.2,2.43a51.49,51.49,0,0,1-.37,14.56l-6.94-.43s.21,12-.17,19.26a160.19,160.19,0,0,1-20.3,1.59,147.31,147.31,0,0,1-21.07-2s-.61-10.27-.38-13.22a29.69,29.69,0,0,1-6.67-3s3.87-14.46,13-17.94Z"/><path id="패스_8927-2" data-name="패스 8927-2" class="cls-5" d="M93.43,145.7a.65.65,0,0,1-.54-.6c0-.4-.54-9.35-.4-12.8a28.51,28.51,0,0,1-6.36-2.89.65.65,0,0,1-.26-.7c.16-.6,4.06-14.82,13.42-18.38a.73.73,0,0,1,.2,0L130.16,109a.43.43,0,0,1,.16,0l12.19,2.42a.64.64,0,0,1,.51.55,51.07,51.07,0,0,1-.37,14.76.63.63,0,0,1-.68.53l-6.23-.38c0,2.68.14,12.41-.18,18.61a.65.65,0,0,1-.55.6,163.8,163.8,0,0,1-20.39,1.6,149.11,149.11,0,0,1-21.19-2Zm41-19.49a.67.67,0,0,1,.2-.48.64.64,0,0,1,.49-.18l6.36.39a51.73,51.73,0,0,0,.32-13.33l-11.66-2.31-30.48,1.27c-7.79,3.05-11.67,14.6-12.4,17a31.3,31.3,0,0,0,6.1,2.61.66.66,0,0,1,.46.67c-.2,2.5.23,10.5.35,12.62a144.52,144.52,0,0,0,20.45,1.9,159.89,159.89,0,0,0,19.68-1.51C134.63,137.69,134.43,126.33,134.43,126.21Z"/></g><g id="그룹_4342-2" data-name="그룹 4342-2"><path id="패스_8928-2" data-name="패스 8928-2" class="cls-4" d="M127.49,69s3.2-8.88,15.28-7.36c11.06,1.38,11.47,16.77,7.77,22.76a17.68,17.68,0,0,1,.34,16.5c-4.38,9.16-18.06,10.42-22.59-.78"/><path id="패스_8929-2" data-name="패스 8929-2" class="cls-5" d="M139.49,108.8a13.32,13.32,0,0,0,12-7.61,18.3,18.3,0,0,0-.18-16.78c2.22-4,3-11.38.29-17A10.88,10.88,0,0,0,142.85,61c-12.44-1.56-15.93,7.69-16,7.79a.64.64,0,1,0,1.21.44h0c.13-.34,3.21-8.37,14.59-6.94A9.65,9.65,0,0,1,150.41,68c2.48,5.18,1.78,12.49-.43,16.06a.66.66,0,0,0,0,.69,17.18,17.18,0,0,1,.31,15.87,12,12,0,0,1-11.18,6.87c-4.6-.15-8.33-2.92-10.23-7.62a.65.65,0,0,0-1.22.43s0,0,0,.06c2.07,5.12,6.33,8.27,11.39,8.42Z"/></g><g id="그룹_4343-2" data-name="그룹 4343-2"><path id="패스_8930-2" data-name="패스 8930-2" class="cls-9" d="M106.08,108.56s-12.73,3.75-14.87,9.51c0,0,22.91,32.15,42.87,31.75a117.52,117.52,0,0,0,.8-13s-20.36-7.57-28.8-28.27"/><path id="패스_8931-2" data-name="패스 8931-2" class="cls-5" d="M104.71,134.56a134.3,134.3,0,0,1-14-16.11.68.68,0,0,1-.08-.6c2.23-6,14.76-9.76,15.3-9.91a.64.64,0,0,1,.78.37c8.23,20.19,28.23,27.83,28.44,27.91a.66.66,0,0,1,.42.62,124.09,124.09,0,0,1-.81,13.07.65.65,0,0,1-.63.56h-.39c-8.38,0-18.13-5.34-29-15.91Zm1-25.21c-2.38.78-11.7,4.06-13.77,8.63,2.32,3.15,23.3,31,41.57,31.2.17-1.46.6-5.69.72-11.92-3-1.24-20.63-9.25-28.52-27.91Z"/></g><g id="그룹_4344-2" data-name="그룹 4344-2"><path id="패스_8932-2" data-name="패스 8932-2" class="cls-10" d="M132.39,74.72s2.22-6.1,10-4.85c7.08,1.15,7.08,11.83,4.59,15.93a13.13,13.13,0,0,1-.06,11.46c-3,6.28-11.8,6.93-14.51-.93"/></g><g id="그룹_4345-2" data-name="그룹 4345-2"><path id="패스_8933-2" data-name="패스 8933-2" class="cls-4" d="M115.17,113.07c1.08,0,2.19,0,3.32-.07a46.83,46.83,0,0,0,9.13-1.94c6.55-2.09,11-5.17,13.33-9.17,2.4-4.2,2.26-9.27-.44-15.07-.23-2.21-3.43-27.6-27.13-27.6H113c-31.21.34-31.46,25.94-31.46,26.2A26.31,26.31,0,0,0,88.4,103.7c5.82,6.22,14.83,9.37,26.78,9.37"/><path id="패스_8934-2" data-name="패스 8934-2" class="cls-5" d="M87.92,104.15a26.7,26.7,0,0,1-7-18.72c0-.27.23-26.51,32.1-26.86h.36c10,0,17.95,4.6,22.93,13.3a40.72,40.72,0,0,1,4.84,14.78c2.75,6,2.87,11.2.36,15.57-2.37,4.14-7,7.32-13.7,9.46a46.8,46.8,0,0,1-9.3,2c-1.13,0-2.26.08-3.34.08-12.12,0-21.29-3.23-27.24-9.58ZM113,59.87c-30.46.33-30.82,25.3-30.82,25.6a25.84,25.84,0,0,0,6.67,17.79c5.69,6.08,14.54,9.17,26.3,9.17,1.06,0,2.17,0,3.26-.08a45.41,45.41,0,0,0,9-1.91c6.4-2,10.75-5,13-8.87,2.3-4,2.14-8.88-.46-14.48a.46.46,0,0,1,0-.21,40.17,40.17,0,0,0-4.69-14.37c-4.8-8.39-12.14-12.64-21.8-12.64Z"/></g><g id="그룹_4346-2" data-name="그룹 4346-2"><path id="패스_8935-2" data-name="패스 8935-2" class="cls-5" d="M130.83,89.6a2.46,2.46,0,1,0,2.38-2.87,2.65,2.65,0,0,0-2.38,2.87"/></g><g id="그룹_4347-2" data-name="그룹 4347-2"><path id="패스_8936-2" data-name="패스 8936-2" class="cls-5" d="M109.73,90.74a2.94,2.94,0,1,0,2.88-3.31,3.08,3.08,0,0,0-2.88,3.29v0"/></g><g id="그룹_4348-2" data-name="그룹 4348-2"><path id="패스_8937-2" data-name="패스 8937-2" class="cls-11" d="M112.77,89.73a.79.79,0,1,0,.77-.85.8.8,0,0,0-.77.83v0"/></g><g id="그룹_4349-2" data-name="그룹 4349-2"><path id="패스_8938-2" data-name="패스 8938-2" class="cls-11" d="M133.18,88.51a.67.67,0,1,0,1.34-.11.66.66,0,0,0-.7-.62.68.68,0,0,0-.64.72h0"/></g><g id="그룹_4350-2" data-name="그룹 4350-2"><path id="패스_8939-2" data-name="패스 8939-2" class="cls-4" d="M94.24,69s-3.33-8.83-15.38-7.15c-11,1.53-11.23,16.92-7.45,22.87a17.64,17.64,0,0,0-.12,16.5c4.51,9.1,18.2,10.17,22.57-1.09"/><path id="패스_8940-2" data-name="패스 8940-2" class="cls-5" d="M82.61,108.9h.59c5.06-.23,9.27-3.44,11.27-8.58a.65.65,0,1,0-1.21-.47h0c-1.83,4.72-5.52,7.55-10.12,7.76a12,12,0,0,1-11.27-6.72A17.18,17.18,0,0,1,72,85a.66.66,0,0,0,0-.69c-2.26-3.55-3-10.84-.65-16.06A9.66,9.66,0,0,1,79,62.44c11.37-1.58,14.55,6.4,14.68,6.74a.65.65,0,0,0,1.22-.46c0-.1-3.66-9.29-16.08-7.57a10.86,10.86,0,0,0-8.63,6.57c-2.6,5.61-1.76,13,.52,17a18.3,18.3,0,0,0,0,16.78,13.32,13.32,0,0,0,11.9,7.45Z"/></g><g id="그룹_4351-2" data-name="그룹 4351-2"><path id="패스_8941-2" data-name="패스 8941-2" class="cls-10" d="M90.45,73.59s-2.3-6.07-10-4.71c-7.07,1.24-6.91,11.93-4.37,16a13.08,13.08,0,0,0,.22,11.45c3.06,6.24,11.89,6.77,14.49-1.12"/></g><g id="그룹_4352-2" data-name="그룹 4352-2"><path id="패스_8942-2" data-name="패스 8942-2" class="cls-4" d="M117.22,85.1a8.52,8.52,0,0,1-5.72-2.23"/><path id="패스_8943-2" data-name="패스 8943-2" class="cls-5" d="M117.11,85.75h.14a.64.64,0,0,0,.62-.67.66.66,0,0,0-.68-.63,8,8,0,0,1-5.25-2,.64.64,0,1,0-.89.93h0A9.15,9.15,0,0,0,117.11,85.75Z"/></g><g id="그룹_4353-2" data-name="그룹 4353-2"><path id="패스_8944-2" data-name="패스 8944-2" class="cls-4" d="M130.06,85.1a8.56,8.56,0,0,0,5.72-2.23"/><path id="패스_8945-2" data-name="패스 8945-2" class="cls-5" d="M130.17,85.75a9.12,9.12,0,0,0,6.05-2.41.64.64,0,0,0,0-.91.65.65,0,0,0-.91,0,8,8,0,0,1-5.25,2.06.63.63,0,0,0-.67.62.65.65,0,0,0,.62.68Z"/></g><g id="그룹_4354-2" data-name="그룹 4354-2"><path id="패스_8946-2" data-name="패스 8946-2" class="cls-12" d="M123.18,100.87s-5.73-1.1-6.79.42c-1.29,1.85.22,4.25,2.74,4.08s1.45-4.42,1.45-4.42"/></g><g id="그룹_4355-2" data-name="그룹 4355-2"><path id="패스_8947-2" data-name="패스 8947-2" class="cls-7" d="M115.55,104.34a3.24,3.24,0,0,1,.18-3.5c1.26-1.81,6.14-1,7.6-.75a.8.8,0,1,1-.18,1.59l-.12,0c-.5-.1-1-.18-1.54-.24a5.5,5.5,0,0,1-.51,3.8,2.33,2.33,0,0,1-1.8,1h-.3a3.75,3.75,0,0,1-3.33-1.84Zm1.49-2.6a1.65,1.65,0,0,0-.1,1.81,2.2,2.2,0,0,0,2.14,1,.73.73,0,0,0,.6-.3,4.58,4.58,0,0,0,.16-3c-1.39-.06-2.54.08-2.79.45Z"/></g><g id="그룹_4358-2" data-name="그룹 4358-2"><g id="그룹_4356-2" data-name="그룹 4356-2"><path id="패스_8948-2" data-name="패스 8948-2" class="cls-10" d="M119.13,105.35a1.19,1.19,0,0,0,.88-.4,3.1,3.1,0,0,0,.5-2v-.11l-.07-.08a2.26,2.26,0,0,0-1.61-.65,14.52,14.52,0,0,0-2.27.28l-.24.05,0,.23a2.21,2.21,0,0,0,.49,1.83,3.07,3.07,0,0,0,2.25.86Z"/></g><g id="그룹_4357-2" data-name="그룹 4357-2"><path id="패스_8949-2" data-name="패스 8949-2" class="cls-5" d="M118.82,102.43a1.9,1.9,0,0,1,1.36.54s.16,2-1.06,2H119c-1.15,0-2.63-.54-2.41-2.32a14.69,14.69,0,0,1,2.2-.27m0-.66a15.58,15.58,0,0,0-2.34.29l-.46.1-.06.47a2.53,2.53,0,0,0,.57,2.08,3.4,3.4,0,0,0,2.5,1h.11a1.55,1.55,0,0,0,1.12-.51,3.4,3.4,0,0,0,.58-2.25v-.22l-.15-.17a2.54,2.54,0,0,0-1.85-.76Z"/></g></g><g id="그룹_4359-2" data-name="그룹 4359-2"><path id="패스_8950-2" data-name="패스 8950-2" class="cls-4" d="M126.36,86.31s8.5,11.73,17-.55a.92.92,0,0,1,1.24-.26l2.64,1.55a1,1,0,0,1,.4,1.23c-1.78,4.25-9.4,22.87-28.57,9.25"/><path id="패스_8951-2" data-name="패스 8951-2" class="cls-5" d="M131.79,103.08a13.6,13.6,0,0,0,3.7-.51c7.8-2.23,11.49-11,12.7-13.95l0-.09a1.65,1.65,0,0,0-.65-2l-2.66-1.55a1.55,1.55,0,0,0-2.09.45c-2.43,3.5-5,5.29-7.81,5.33h-.07c-4.52,0-8-4.75-8.06-4.79a.64.64,0,0,0-.9-.15.65.65,0,0,0-.15.91c.16.22,3.92,5.32,9.1,5.32H135c3.2,0,6.18-2,8.86-5.88a.27.27,0,0,1,.37-.08l2.65,1.56A.35.35,0,0,1,147,88l0,.09c-1.15,2.75-4.66,11.14-11.85,13.2-4.55,1.3-9.84-.15-15.71-4.33a.65.65,0,0,0-.9.16.64.64,0,0,0,.15.9h0c4.71,3.35,9.1,5,13.11,5Z"/></g><g id="그룹_4360-2" data-name="그룹 4360-2"><path id="패스_8952-2" data-name="패스 8952-2" class="cls-4" d="M130.72,90.24s-2.81.13-3.59,2.56"/><path id="패스_8953-2" data-name="패스 8953-2" class="cls-5" d="M127.44,92.9a3.71,3.71,0,0,1,3.29-2.33l0-.66c-.12,0-3,.17-3.89,2.79Z"/></g><g id="그룹_4361-2" data-name="그룹 4361-2"><path id="패스_8954-2" data-name="패스 8954-2" class="cls-13" d="M127.13,93.59a.8.8,0,0,0,.76-.55,3.27,3.27,0,0,1,2.87-2,.8.8,0,0,0,.76-.83.79.79,0,0,0-.82-.76h0c-.13,0-3.38.19-4.31,3.11a.8.8,0,0,0,.52,1A.61.61,0,0,0,127.13,93.59Z"/></g><g id="그룹_4362-2" data-name="그룹 4362-2"><path id="패스_8955-2" data-name="패스 8955-2" class="cls-4" d="M134.34,91.39a4.54,4.54,0,0,0-2.53,3"/><path id="패스_8956-2" data-name="패스 8956-2" class="cls-5" d="M132.12,94.51a4.29,4.29,0,0,1,2.32-2.82l-.21-.62a4.87,4.87,0,0,0-2.73,3.24Z"/></g><g id="그룹_4363-2" data-name="그룹 4363-2"><path id="패스_8957-2" data-name="패스 8957-2" class="cls-13" d="M131.81,95.21a.8.8,0,0,0,.76-.55,3.81,3.81,0,0,1,2-2.52.8.8,0,0,0-.52-1.51,5.37,5.37,0,0,0-3,3.54.8.8,0,0,0,.52,1,.64.64,0,0,0,.24,0Z"/></g><g id="그룹_4364-2" data-name="그룹 4364-2"><path id="패스_8958-2" data-name="패스 8958-2" class="cls-4" d="M138.15,90.82a4.23,4.23,0,0,0-.64,3.8"/><path id="패스_8959-2" data-name="패스 8959-2" class="cls-5" d="M137.2,94.74l.62-.23a3.9,3.9,0,0,1,.59-3.48l-.52-.42a4.52,4.52,0,0,0-.69,4.13Z"/></g><g id="그룹_4365-2" data-name="그룹 4365-2"><path id="패스_8960-2" data-name="패스 8960-2" class="cls-13" d="M137.51,95.42a.79.79,0,0,0,.79-.8.84.84,0,0,0,0-.27,3.39,3.39,0,0,1,.51-3,.8.8,0,0,0-.18-1.12.79.79,0,0,0-1.06.12,5,5,0,0,0-.77,4.57A.79.79,0,0,0,137.51,95.42Z"/></g><g id="그룹_4366-2" data-name="그룹 4366-2"><path id="패스_8961-2" data-name="패스 8961-2" class="cls-4" d="M143.5,85.77s-1.36-3.45,1.28-4.27,2.7,2.62,2.7,2.62,4.1-3.69,5.69-.76c1.72,3.17-1.49,6.42-5.71,5.31"/><path id="패스_8962-2" data-name="패스 8962-2" class="cls-5" d="M149.11,89.54a5.43,5.43,0,0,0,4.31-1.93,4,4,0,0,0,.31-4.56,2.6,2.6,0,0,0-1.89-1.43,5.88,5.88,0,0,0-3.9,1.3,3.13,3.13,0,0,0-1.1-1.78,2.45,2.45,0,0,0-2.26-.26,2.78,2.78,0,0,0-1.76,1.47A5.16,5.16,0,0,0,142.9,86a.65.65,0,1,0,1.2-.48A3.87,3.87,0,0,1,144,82.9a1.49,1.49,0,0,1,1-.78c.72-.22,1,0,1.12.07a2.81,2.81,0,0,1,.74,2,.65.65,0,0,0,.66.63.59.59,0,0,0,.42-.17c.61-.54,2.47-1.92,3.73-1.7a1.3,1.3,0,0,1,1,.77,2.76,2.76,0,0,1-.19,3.14A4.53,4.53,0,0,1,147.62,88a.65.65,0,1,0-.32,1.26,7.81,7.81,0,0,0,1.81.24Z"/></g><g id="그룹_4367-2" data-name="그룹 4367-2"><path id="패스_8963-2" data-name="패스 8963-2" class="cls-2" d="M118,96.41a2.1,2.1,0,0,0,.85,2c2.15,1.58,6.83,4,14.22,2,.83-.23,2.05-.9,1.75-2.08s-1.8-.76-3.5-1a16.74,16.74,0,0,1-5.41-1.65c-1.7-.93-2.8-1.58-3.49-2a2.53,2.53,0,0,0-3.31.51c-.12.14-.24.3-.37.48a4.16,4.16,0,0,0-.74,1.79"/></g><g id="그룹_4368-2" data-name="그룹 4368-2"><path id="패스_8964-2" data-name="패스 8964-2" class="cls-5" d="M125,101.63a19,19,0,0,0,8.24-.53,3.47,3.47,0,0,0,2-1.44,2,2,0,0,0,.19-1.53c-.34-1.36-1.6-1.4-2.71-1.44a11.9,11.9,0,0,1-1.34-.1A16,16,0,0,1,126.21,95a42.61,42.61,0,0,1-3.9-2.32l-.17-.1a.68.68,0,0,0-.94.2,1,1,0,0,0-.07.15h0a.71.71,0,0,0,.27.85l.15.1a46.56,46.56,0,0,0,4,2.39A17.11,17.11,0,0,0,131.18,98a12.3,12.3,0,0,0,1.49.12c1.12,0,1.38.1,1.45.38a.56.56,0,0,1-.05.44,2.07,2.07,0,0,1-1.2.75c-7.21,2-12.14-.67-14.33-2.32a.67.67,0,0,0-1,.13.75.75,0,0,0,.13,1h0a16.66,16.66,0,0,0,7.25,3.08"/></g><g id="그룹_4369-2" data-name="그룹 4369-2"><path id="사각형_2094-2" data-name="사각형 2094-2" class="cls-2" d="M154,126.76l4.72-20.41,3.8.88-4.72,20.41Z"/></g><g id="그룹_4370-2" data-name="그룹 4370-2"><path id="패스_8965-2" data-name="패스 8965-2" class="cls-13" d="M157.57,128.41l-3.8-.88a.79.79,0,0,1-.6-1l4.72-20.4a.8.8,0,0,1,1-.6l3.8.88a.79.79,0,0,1,.6,1l-4.73,20.41a.79.79,0,0,1-.77.62A.57.57,0,0,1,157.57,128.41Zm1.7-21.1-4.37,18.85,2.25.52,4.36-18.85Z"/></g><g id="그룹_4371-2" data-name="그룹 4371-2"><path id="사각형_2095-2" data-name="사각형 2095-2" class="cls-2" d="M141.2,103.05l5.69-24.51,38,8.83-5.69,24.5Z"/></g><g id="그룹_4372-2" data-name="그룹 4372-2"><path id="패스_8966-2" data-name="패스 8966-2" class="cls-13" d="M179.06,112.63l-38-8.81a.8.8,0,0,1-.6-1l5.67-24.5a.8.8,0,0,1,1-.6l38,8.81a.79.79,0,0,1,.6,1L180,112a.79.79,0,0,1-.77.62l-.18,0ZM147.48,79.5l-5.32,23,36.48,8.44,5.31-23Z"/></g><g id="그룹_4373-2" data-name="그룹 4373-2"><path id="패스_8967-2" data-name="패스 8967-2" class="cls-4" d="M160.86,117c.08-.18-4.68-3.7-6.2,2.63-.76,3.18,3,5.83,4.33,4.86s1.88-4,1.88-4Z"/><path id="패스_8968-2" data-name="패스 8968-2" class="cls-5" d="M159.25,125.21c-2.22-.06-3.78-.67-4.66-1.82a4.43,4.43,0,0,1-.56-3.9c.58-2.4,1.68-3.8,3.27-4.17a4.84,4.84,0,0,1,4,1.23.76.76,0,0,1,.11.73.65.65,0,0,1-.86.32.67.67,0,0,1-.28-.25,3.59,3.59,0,0,0-2.8-.75c-1,.28-1.78,1.35-2.23,3.19a3.27,3.27,0,0,0,.33,2.81c.62.81,1.89,1.27,3.67,1.32a.65.65,0,0,1,.64.65.66.66,0,0,1-.66.65Zm1-8.4a.14.14,0,0,1,0-.06l0,.06Z"/></g><g id="그룹_4374-2" data-name="그룹 4374-2"><path id="패스_8969-2" data-name="패스 8969-2" class="cls-2" d="M101.35,116.3l-1.52-1.49c.3.66.59,1.33.88,2l-.94.74c-.48-1.06-.93-2.13-1.46-3.16l.54-.41-1-.81,1-.71q1.8,1.48,3.5,3.12l-.94.73m-4.77-.24.32-.26-1-1.31.93-.71c1,1.25,1.9,2.54,2.8,3.86l-.93.73c-.37-.55-.74-1.1-1.12-1.64l-.33.25-.68-.92"/></g><g id="그룹_4375-2" data-name="그룹 4375-2"><path id="패스_8970-2" data-name="패스 8970-2" class="cls-2" d="M104.39,118.78c.06.07.25.32.3.4.58.92,1.07,1.83.12,2.64s-1.74.12-2.43-.7a4.56,4.56,0,0,1-.31-.42c-.57-.93-1-1.91-.07-2.7s1.71,0,2.39.77M103,120l.23.32c.21.29.62,1,1,.68s-.18-.88-.41-1.17a3.71,3.71,0,0,0-.23-.32c-.2-.29-.58-1-1-.7s.16.89.38,1.19m-.52,3.87c-1-1.33-2-2.69-3-4.07l.91-.74q1.41,2.07,3,4l-.89.78"/></g><g id="그룹_4376-2" data-name="그룹 4376-2"><path id="패스_8971-2" data-name="패스 8971-2" class="cls-2" d="M106.53,126.16l-.34.31,1.23,1.41-.84.81c-1-1.19-2.08-2.38-3.12-3.57l.88-.79,1.15,1.32.33-.3-1-1.2.84-.75.84,1,.56-.52c-.28-.32-.55-.66-.83-1l.83-.74c1,1.13,1.9,2.25,2.89,3.35l-2.4,1.81c-.34-.38-.66-.76-1-1.15m1.87-.69-.73-.85-.56.52.68.78.61-.45"/></g><g id="그룹_4377-2" data-name="그룹 4377-2"><path id="패스_8972-2" data-name="패스 8972-2" class="cls-2" d="M113.45,129.31c-.7.8-1.4,1.6-2.12,2.39l.54.5-.77.88-1.11-1q1.45-1.62,2.94-3.22l.52.48m-4.24,2.21c.37-.42.82-.88,1.17-1.28,0,0-.09-.17-.13-.13-.35.33-.74.78-1.09,1.15l-.5-.5.44-.47-.42-.42-.45.45-.5-.53q1.56-1.53,3.09-3.09l.47.51-.44.46.4.41.44-.46.46.47c-.34.38-.76.8-1.07,1.15,0,.05.09.17.13.13.37-.37.8-.85,1.18-1.26l.54.5c-1.06,1.15-2.11,2.29-3.15,3.44-.19-.17-.39-.35-.57-.54m1.3-2.67-.41-.42-.68.68.42.43.67-.69"/></g><g id="그룹_4378-2" data-name="그룹 4378-2"><path id="패스_8973-2" data-name="패스 8973-2" class="cls-2" d="M116.69,136,116,137c-.49-.33-1-.66-1.45-1,.93-1.23,1.83-2.47,2.77-3.68l.75.53c-.67.93-1.35,1.85-2,2.77.21.15.42.3.64.44m-3.33-3.24c.6-.73,1.21-1.45,1.8-2.2l.55.46c-.33.43-.72.89-1,1.29,0,0,.09.14.12.1.34-.37.7-.86,1-1.28l1.33,1c-.63.74-1.23,1.48-1.86,2.22l-.6-.45c.38-.44.75-.86,1.12-1.32,0,0-.13-.16-.17-.11-.35.4-.68.89-1,1.3l-1.28-1m1,3.05c-.78-.57-1.54-1.17-2.28-1.78.25-.29.49-.6.74-.9.1,0,.21.22.3.24s.18-.31.27-.27a3.09,3.09,0,0,1,.6.48c.06.07-.25.24-.21.31a.71.71,0,0,0,.27.21c.07,0,.16-.32.25-.28a3.16,3.16,0,0,1,.62.47c.06.08-.25.23-.21.32s.26.18.35.27l-.7.93"/></g><g id="그룹_4379-2" data-name="그룹 4379-2"><path id="패스_8974-2" data-name="패스 8974-2" class="cls-2" d="M121.53,135.47a2,2,0,0,1,.8,2.67l-.14.22a1.86,1.86,0,0,1-2.51.79,2.25,2.25,0,0,1-.36-.24,2,2,0,0,1-.82-2.64,1.4,1.4,0,0,1,.16-.26,1.9,1.9,0,0,1,2.59-.73,1.73,1.73,0,0,1,.28.19m-.59.92c-.51-.36-1.1-.45-1.48.13s0,1.09.46,1.45,1.11.46,1.48-.13.06-1.09-.46-1.45"/></g><g id="그룹_4380-2" data-name="그룹 4380-2"><path id="패스_8975-2" data-name="패스 8975-2" class="cls-2" d="M124.64,137.64a9.66,9.66,0,0,0-.56,1c.47.26,1.33.68,1.73.87.62.3,1.07.51.75,1.14s-.78.46-1.43.16c-.42-.19-1.3-.64-1.78-.9a9.75,9.75,0,0,0-.57,1c.53.27,1.36.73,1.85.93,1.26.5,2.24.42,2.82-.81s0-1.84-1.08-2.48c-.44-.25-1.25-.6-1.73-.89"/></g><g id="그룹_4381-2" data-name="그룹 4381-2"><path id="패스_8976-2" data-name="패스 8976-2" class="cls-2" d="M133.2,142.8a31,31,0,0,0-2.92-1.36l.51-1.14-.9-.35-1.53,3.37.93.36c.18-.4.35-.8.53-1.21,1,.41,2,.89,2.93,1.37l.45-1"/></g><g id="그룹_4382-2" data-name="그룹 4382-2"><path id="패스_8977-2" data-name="패스 8977-2" class="cls-8" d="M94.61,124.94a22,22,0,0,0-1.45,6.89"/></g><g id="그룹_4383-2" data-name="그룹 4383-2"><path id="패스_8978-2" data-name="패스 8978-2" class="cls-4" d="M89.85,139.89s-3.23.2-3.08,1.58,3.42.92,3.42.92"/><path id="패스_8979-2" data-name="패스 8979-2" class="cls-5" d="M89,142.8a8.42,8.42,0,0,0,1.22-.08l-.1-.65c-.58.08-2.22.2-2.83-.28a.49.49,0,0,1-.12-.69l0,0a4.83,4.83,0,0,1,2.64-.84l0-.65c-.24,0-2.35.16-3.1,1.07a1.15,1.15,0,0,0,.1,1.62l.08.06A3.69,3.69,0,0,0,89,142.8Z"/></g></g><path id="패스_4719-2" data-name="패스 4719-2" class="cls-14" d="M151.08,90.63l-1.32-.3L152,85.56l1.32.3-.62,1.34.76.17-.14,3.77-1.32-.3.08-2.32ZM156,88.27l-.27,1.24-.46-.1-.46,2.06-1.3-.3L154.64,86l1.3.29-.42,1.84Z"/><path id="패스_4720-2" data-name="패스 4720-2" class="cls-14" d="M156.14,88.87c.36-1.6,1-2.15,2.18-1.88s1.51,1,1.15,2.63l-.12.56c-.36,1.6-1,2.15-2.18,1.88s-1.51-1-1.15-2.63Zm2.08.52c.23-1,.17-1.26-.14-1.33s-.48.12-.7,1.14l-.1.46c-.24,1-.17,1.26.14,1.33s.47-.12.7-1.14Zm2.43,3.4-1.3-.3,1.16-5.13,1.3.29Z"/><path id="패스_4721-2" data-name="패스 4721-2" class="cls-14" d="M165,91.56l-.38,1.7-3.42-.36,1.12-5,1.24.28-.32,1.41.85.19.32-1.41,1.24.28-.38,1.69.51.11.41-1.86,1.3.29-1.15,5.14-1.3-.29.47-2.09Zm-2.29.4.87.09.27-1.16L163,90.7Z"/><path id="패스_4722-2" data-name="패스 4722-2" class="cls-14" d="M172.42,92.78l-.19.86L167,92.47l.19-.86,2,.44,0-.22-1.78-.4.18-.77.7.15.15-.66-.7-.16.18-.8,4.85,1.09-.18.8-.7-.16-.15.67.7.16-.17.77-1.78-.4-.05.23Zm-5.44.73.19-.83L172,93.77l-.37,1.64-1.3-.29.19-.81Zm2.54-2.43,1.07.24.15-.66-1.07-.25Z"/><path id="패스_4723-2" data-name="패스 4723-2" class="cls-14" d="M176.58,91.19,176.16,93l-1.86-.42-.05.25,1.94.33L176,94l-3.26-.56.44-2,1.86.42.05-.2-1.86-.42.19-.85Zm-.48,5.28.19-.85-3.84-.86.24-1.07,5.14,1.16-.43,1.91Zm1.78-1.85-1.3-.29.11-.51-.45-.1.2-.9.45.1.09-.39-.45-.1.2-.9.45.1.1-.46,1.3.3Z"/><path id="패스_4724-2" data-name="패스 4724-2" class="cls-14" d="M151.05,95.33c.52-2.27,2-3.37,4.26-2.86s3.14,2.14,2.63,4.41-2,3.37-4.26,2.85-3.14-2.13-2.62-4.4m1.84.42c-.31,1.41.18,2.14,1.15,2.36s1.72-.24,2-1.64-.17-2.15-1.14-2.37-1.73.24-2,1.65"/><path id="패스_4725-2" data-name="패스 4725-2" class="cls-14" d="M159.21,93.52l1.85.42-.79,3.51c-.3,1.37-.23,2,.76,2.23s1.34-.32,1.65-1.69l.79-3.51,1.84.42-.79,3.5c-.5,2.23-1.47,3.44-3.85,2.9s-2.75-2-2.25-4.27Z"/><path id="패스_4726-2" data-name="패스 4726-2" class="cls-14" d="M166.52,102.45l1.2-5.31-2.1-.47.36-1.62L172,96.41,171.67,98l-2.11-.48-1.2,5.31Z"/><path id="패스_4727-2" data-name="패스 4727-2" class="cls-14" d="M171.85,101.51,173,96.34l1.85.41-1.17,5.17Zm-.46,2,.36-1.63,1.85.42-.36,1.62Z"/></g></g></g></g></g></g></svg>