<svg xmlns="http://www.w3.org/2000/svg" xmlns:xlink="http://www.w3.org/1999/xlink" viewBox="0 0 200 200"><defs><style>.cls-1{fill:none;}.cls-2{fill:#fff;}.cls-3{clip-path:url(#clip-path);}.cls-4{fill:#8cc7ea;}.cls-5{fill:#36607b;}.cls-6{fill:#9ee630;}.cls-7{fill:#ffbfc5;}.cls-8{fill:#cf7575;}.cls-9{fill:#f7f8f8;}.cls-10{fill:#c44d58;}.cls-11{fill:#35607a;}.cls-12{fill:#8c2c37;}.cls-13{clip-path:url(#clip-path-2);}</style><clipPath id="clip-path"><circle class="cls-1" cx="99.37" cy="102.15" r="59"/></clipPath><clipPath id="clip-path-2"><rect class="cls-1" x="143.37" y="59.15" width="37" height="71"/></clipPath></defs><g id="레이어_2" data-name="레이어 2"><g id="레이어_1-2" data-name="레이어 1"><rect class="cls-1" width="200" height="200"/><g id="그룹_2863" data-name="그룹 2863"><circle id="타원_653" data-name="타원 653" class="cls-2" cx="99.37" cy="102.15" r="59"/><g class="cls-3"><g id="마스크_그룹_25" data-name="마스크 그룹 25"><g id="그룹_2788" data-name="그룹 2788"><g id="그룹_2739" data-name="그룹 2739"><path id="패스_6810" data-name="패스 6810" class="cls-4" d="M128.94,119.28a13.18,13.18,0,0,0,15.49.19s-1.92-1.78-.88-3.21,3.07-.09,3.07-.09-.21-4.3,5.41-3.64,6.47,7.1,1.92,13.94-16.25,7.7-25.26,5.7"/><path id="패스_6811" data-name="패스 6811" class="cls-5" d="M137.39,133.87a41,41,0,0,1-8.84-1A.7.7,0,0,1,128,132h0a.71.71,0,0,1,.83-.53c8.78,1.95,20.2,1.09,24.52-5.4,2.59-3.89,3.47-7.86,2.31-10.38a4.39,4.39,0,0,0-3.73-2.49,4.57,4.57,0,0,0-3.75.79,3.07,3.07,0,0,0-.89,2.13.69.69,0,0,1-1.07.61s-1.49-1-2.13-.08.77,2.28.79,2.29a.74.74,0,0,1,.22.56.72.72,0,0,1-.3.52c-8.52,5.88-16.24-.16-16.31-.22a.69.69,0,0,1,.86-1.08,12.36,12.36,0,0,0,14,.59,2.87,2.87,0,0,1-.38-3.48,2.53,2.53,0,0,1,3.06-.72,4.16,4.16,0,0,1,1.19-2.12c1.09-1,2.73-1.42,4.87-1.17a5.76,5.76,0,0,1,4.83,3.29c1.38,3,.48,7.38-2.42,11.73-2.57,3.87-8.59,7-17.13,7Z"/></g><g id="그룹_2742" data-name="그룹 2742"><g id="그룹_2740" data-name="그룹 2740"><path id="패스_6812" data-name="패스 6812" class="cls-4" d="M87.58,156.21a5.51,5.51,0,0,1-2.16-.46c-4.11-1.78-4.82-4.85-4.85-5a.71.71,0,0,1,.29-.72A11.21,11.21,0,0,1,87,147.84a6.64,6.64,0,0,1,5.81,3.57,10.18,10.18,0,0,0,6.44-3.74.68.68,0,0,1,.56-.3h.1a.7.7,0,0,1,.56.47l.69,2.11a.69.69,0,0,1-.11.65,8.89,8.89,0,0,1-6.54,3.07,8.25,8.25,0,0,1-1.65-.17,7.47,7.47,0,0,1-5.24,2.69Z"/></g><g id="그룹_2741" data-name="그룹 2741"><path id="패스_6813" data-name="패스 6813" class="cls-5" d="M99.76,148.07l.7,2.11a8.21,8.21,0,0,1-6,2.81,7.63,7.63,0,0,1-1.91-.24s-2.08,2.77-5,2.77a4.84,4.84,0,0,1-1.88-.4c-3.83-1.66-4.45-4.49-4.45-4.49a10.37,10.37,0,0,1,5.7-2.09,6.13,6.13,0,0,1,5.4,3.62,10.71,10.71,0,0,0,7.4-4.09m0-1.39a1.38,1.38,0,0,0-1.13.59,9.3,9.3,0,0,1-5.52,3.39,7.23,7.23,0,0,0-6.16-3.5,11.91,11.91,0,0,0-6.47,2.32,1.4,1.4,0,0,0-.58,1.45c0,.14.81,3.55,5.25,5.46a6,6,0,0,0,2.43.51,8,8,0,0,0,5.48-2.63,9.33,9.33,0,0,0,1.4.11,9.62,9.62,0,0,0,7.08-3.34,1.38,1.38,0,0,0,.23-1.3l-.69-2.11a1.38,1.38,0,0,0-1.12-.93l-.2,0Z"/></g></g><g id="그룹_2743" data-name="그룹 2743"><path id="패스_6814" data-name="패스 6814" class="cls-6" d="M92.46,152.86s-2.85,3.94-6.68,2.29-4.54-4.52-4.54-4.52c8.18-5.48,10.89,1.13,10.89,1.13Z"/></g><g id="그룹_2744" data-name="그룹 2744"><path id="패스_6815" data-name="패스 6815" class="cls-5" d="M89.9,153.47a4.36,4.36,0,0,0,2.71-.62.73.73,0,0,0,0-1h0a.72.72,0,0,0-1,0c-.63.39-5,.29-6.8-.81a.75.75,0,0,0-1,.24.74.74,0,0,0,.24,1,13.25,13.25,0,0,0,5.87,1.25"/></g><g id="그룹_2745" data-name="그룹 2745"><path id="패스_6816" data-name="패스 6816" class="cls-4" d="M107.57,169.45a16.26,16.26,0,0,1-8.09-1.86A3.19,3.19,0,0,1,98,165.44c-.86-4.28,2.53-33.28,9.45-50.66l31.45.09c1.3,6.78,6.5,36-.26,50.86a3.2,3.2,0,0,1-1.58,1.58c-1.6.72-5,1.5-10.73-.19a3.23,3.23,0,0,1-2.3-2.76l-.2-1.85c-.2-1.82-1.85-4.06-3.67-3.8h-.07a3.25,3.25,0,0,0-2.7,2.37l-1.22,5.42a3.22,3.22,0,0,1-2.13,2.25,21.2,21.2,0,0,1-6.44.7"/><path id="패스_6817" data-name="패스 6817" class="cls-5" d="M108,170.15h-.47a16.94,16.94,0,0,1-8.43-2,3.88,3.88,0,0,1-1.84-2.6c-.87-4.3,2.42-33.3,9.49-51.07a.69.69,0,0,1,.64-.43l31.45.09a.69.69,0,0,1,.68.56c6.16,32.11,1.83,46.56-.31,51.28a3.84,3.84,0,0,1-1.93,1.92c-1.92.87-5.44,1.54-11.21-.15a3.91,3.91,0,0,1-2.79-3.35l-.2-1.85a4.36,4.36,0,0,0-1.53-2.75,1.86,1.86,0,0,0-1.35-.44h-.08a2.55,2.55,0,0,0-2.12,1.86l-1.21,5.39a3.93,3.93,0,0,1-2.6,2.76,21.55,21.55,0,0,1-6.19.73Zm-.45-1.39a20.73,20.73,0,0,0,6.22-.66,2.48,2.48,0,0,0,1.67-1.77l1.21-5.39A4,4,0,0,1,120,158l.17.68L120,158a3.14,3.14,0,0,1,2.39.72,5.77,5.77,0,0,1,2.06,3.69l.2,1.86a2.55,2.55,0,0,0,1.8,2.17c5.65,1.65,8.86.84,10.26.22a2.48,2.48,0,0,0,1.23-1.24c6.31-13.89,2-41,.31-49.88l-30.4-.09c-6.72,17.23-10,45.79-9.24,49.84A2.53,2.53,0,0,0,99.82,167a15.6,15.6,0,0,0,7.75,1.77Z"/></g><g id="그룹_2746" data-name="그룹 2746"><path id="패스_6818" data-name="패스 6818" class="cls-2" d="M137.56,166.64s.12-3.33-2.21-3.36-2.77,4.66-2.77,4.66a7.82,7.82,0,0,0,2.88-.4,6,6,0,0,0,2.1-.9"/><path id="패스_6819" data-name="패스 6819" class="cls-5" d="M132.94,168.64a3.09,3.09,0,0,1-.43,0l-.68-.08.07-.68c0-.54.58-5.28,3.43-5.28h0a2.49,2.49,0,0,1,1.85.78,4.94,4.94,0,0,1,1,3.29v.28l-.2.19a6.35,6.35,0,0,1-2.38,1.08,9.6,9.6,0,0,1-2.72.43Zm2.39-4.67c-1.05,0-1.69,1.88-2,3.27a8.56,8.56,0,0,0,1.88-.36,9.41,9.41,0,0,0,1.6-.61,3.37,3.37,0,0,0-.66-2,1.15,1.15,0,0,0-.86-.35Z"/></g><g id="그룹_2747" data-name="그룹 2747"><path id="패스_6820" data-name="패스 6820" class="cls-2" d="M130.77,167.85a15.63,15.63,0,0,1-5-1s.44-4.07,3.17-3.73c2.12.25,1.8,4.71,1.8,4.71"/><path id="패스_6821" data-name="패스 6821" class="cls-5" d="M130.77,168.55a16.64,16.64,0,0,1-5.22-1l-.5-.19.06-.53a6.25,6.25,0,0,1,1.77-3.75,2.87,2.87,0,0,1,2.18-.61c2.69.33,2.45,4.93,2.41,5.46l-.05.64h-.65Zm-4.19-2.14a15.59,15.59,0,0,0,3.52.71c0-1.31-.3-3.19-1.21-3.3a1.53,1.53,0,0,0-1.15.3A4.3,4.3,0,0,0,126.58,166.41Z"/></g><g id="그룹_2748" data-name="그룹 2748"><path id="패스_6822" data-name="패스 6822" class="cls-2" d="M109.2,169.21a15.51,15.51,0,0,0,3.19-.2,8.81,8.81,0,0,0,2.06-.71s-.13-3.92-2.46-3.94-2.79,4.85-2.79,4.85"/><path id="패스_6823" data-name="패스 6823" class="cls-5" d="M109.79,169.92c-.38,0-.6,0-.63,0l-.71,0,.07-.71c0-.57.6-5.48,3.45-5.48h0c2.36,0,3.09,2.91,3.15,4.6v.45l-.4.2a9.6,9.6,0,0,1-2.26.78A17.69,17.69,0,0,1,109.79,169.92Zm2.19-4.87c-1.07,0-1.72,2-2,3.48a15.69,15.69,0,0,0,2.27-.2,7.41,7.41,0,0,0,1.45-.46c-.11-.89-.5-2.8-1.74-2.82Z"/></g><g id="그룹_2749" data-name="그룹 2749"><path id="패스_6824" data-name="패스 6824" class="cls-2" d="M106.92,169.31a21.14,21.14,0,0,1-5.06-.89s.5-4.29,3.23-3.95c2.12.25,1.83,4.84,1.83,4.84"/><path id="패스_6825" data-name="패스 6825" class="cls-5" d="M107.57,170h-.67a21.65,21.65,0,0,1-5.24-.92l-.55-.17.07-.57c0-.12.33-2.76,1.87-4a2.74,2.74,0,0,1,2.13-.59c2.68.32,2.46,5,2.43,5.57Zm-4.92-2.09a21,21,0,0,0,3.59.65c0-1.35-.31-3.3-1.23-3.41a1.41,1.41,0,0,0-1.1.3,4.62,4.62,0,0,0-1.26,2.46Z"/></g><g id="그룹_2750" data-name="그룹 2750"><path id="패스_6826" data-name="패스 6826" class="cls-4" d="M136,75.33s2.46-8.89,14.34-8.32c10.88.53,12.43,15.5,9.27,21.62a17.27,17.27,0,0,1,1.57,16.06c-3.59,9.25-16.83,11.5-22.08.92"/><path id="패스_6827" data-name="패스 6827" class="cls-5" d="M149.73,113.32c-4.74,0-8.91-2.73-11.22-7.4a.69.69,0,0,1,1.24-.62h0c2.18,4.42,6,6.84,10.48,6.63a11.69,11.69,0,0,0,10.33-7.5A16.72,16.72,0,0,0,159.08,89a.71.71,0,0,1-.06-.74c1.88-3.63,2-10.78-.78-15.63a9.41,9.41,0,0,0-7.9-5c-11.17-.53-13.55,7.47-13.65,7.81a.69.69,0,1,1-1.33-.37,11.86,11.86,0,0,1,2.88-4.67c2-2.06,5.78-4.46,12.16-4.15a10.67,10.67,0,0,1,9,5.66c3,5.24,2.86,12.55,1,16.58a18,18,0,0,1,1.41,16.37,13.06,13.06,0,0,1-11.55,8.38,5.42,5.42,0,0,1-.57,0Z"/></g><g id="그룹_2751" data-name="그룹 2751"><path id="패스_6828" data-name="패스 6828" class="cls-7" d="M141.22,80.53s1.7-6.12,9.34-5.47c7,.59,7.78,11,5.67,15.19a12.83,12.83,0,0,1,.79,11.17c-2.44,6.35-11,7.64-14.21.19"/></g><g id="그룹_2752" data-name="그룹 2752"><path id="패스_6829" data-name="패스 6829" class="cls-4" d="M121.25,67.65c-30,2.62-28,27.05-28,27.05s.28,28,37.19,23.41c0,0,30.74-5.18,18.87-26.12,0,0-4.16-26.43-28.06-24.34"/><path id="패스_6830" data-name="패스 6830" class="cls-5" d="M122.7,119.31c-9.19,0-16.48-2.32-21.74-6.94a25.53,25.53,0,0,1-8.41-17.66c0-.2-1.68-25.1,28.63-27.75l.06.69-.06-.69c23.4-2,28.41,22.76,28.78,24.79,3,5.43,3.57,10.35,1.55,14.6-1.92,4.05-6,7.37-12.26,9.89a46.42,46.42,0,0,1-8.7,2.56,64.53,64.53,0,0,1-7.85.51Zm-1.4-51c-12.15,1.06-20.44,5.8-24.66,14.08a25.55,25.55,0,0,0-2.71,12.23c0,.14.21,9.92,8,16.7,6.37,5.57,15.94,7.62,28.45,6.08.13,0,15.68-2.74,19.92-11.68,1.83-3.84,1.3-8.36-1.57-13.42a.9.9,0,0,1-.08-.23,37.6,37.6,0,0,0-5-12.73c-5.19-8.16-12.71-11.87-22.32-11Z"/></g><g id="그룹_2753" data-name="그룹 2753"><path id="패스_6831" data-name="패스 6831" class="cls-5" d="M131.78,106.5c4.26-.33,5.83-2.25,5.92-2.36a.66.66,0,0,0-.11-.9.64.64,0,0,0-.89.1c0,.06-2.81,3.25-11.29,1.28-.63-.15-1.25-.31-1.87-.5a.64.64,0,0,0-.36,1.23c.66.19,1.31.36,1.94.51a22,22,0,0,0,6.66.63"/></g><g id="그룹_2754" data-name="그룹 2754"><path id="패스_6832" data-name="패스 6832" class="cls-8" d="M136.41,105.64a13.73,13.73,0,0,1-9.94.77s.62,5.93,5.83,5.5,4.11-6.27,4.11-6.27"/></g><g id="그룹_2755" data-name="그룹 2755"><path id="패스_6833" data-name="패스 6833" class="cls-5" d="M136.41,105.64s1.1,5.83-4.11,6.27h-.05c-5.16.4-5.78-5.5-5.78-5.5a13.09,13.09,0,0,0,5,.55,13.4,13.4,0,0,0,5-1.33m-.1-1.27a1.32,1.32,0,0,0-.51.16,12.54,12.54,0,0,1-4.46,1.17,12,12,0,0,1-4.46-.49,1.25,1.25,0,0,0-.47-.07h0a1.28,1.28,0,0,0-1.17,1.37s0,.07,0,.1a10,10,0,0,0,1.1,3.33,6.08,6.08,0,0,0,6,3.24h.05a5.48,5.48,0,0,0,4.13-2.09c1.75-2.28,1.16-5.54,1.13-5.68a1.25,1.25,0,0,0-.71-.91,1.18,1.18,0,0,0-.64-.12"/></g><g id="그룹_2756" data-name="그룹 2756"><path id="패스_6834" data-name="패스 6834" class="cls-5" d="M140.82,95.16a2.41,2.41,0,1,0,2.1-3,2.57,2.57,0,0,0-2.1,3"/></g><g id="그룹_2757" data-name="그룹 2757"><path id="패스_6835" data-name="패스 6835" class="cls-5" d="M120.32,97.84a2.87,2.87,0,1,0,2.56-3.44,3,3,0,0,0-2.56,3.44"/></g><g id="그룹_2758" data-name="그룹 2758"><path id="패스_6836" data-name="패스 6836" class="cls-5" d="M121.36,89.72a.61.61,0,0,0,.36-.15,2.81,2.81,0,0,1,1.53-.63,3.31,3.31,0,0,1,1.78.29.64.64,0,0,0,.83-.34h0a.64.64,0,0,0-.34-.84,4.58,4.58,0,0,0-2.42-.37,4.11,4.11,0,0,0-2.21.92.64.64,0,0,0-.07.9h0a.62.62,0,0,0,.54.22"/></g><g id="그룹_2759" data-name="그룹 2759"><path id="패스_6837" data-name="패스 6837" class="cls-5" d="M139.73,87.88a.61.61,0,0,0,.37-.15,2.81,2.81,0,0,1,1.53-.63,3.26,3.26,0,0,1,1.77.29.64.64,0,0,0,.84-.34h0a.65.65,0,0,0-.34-.84h0a4.6,4.6,0,0,0-2.43-.37,4,4,0,0,0-2.2.92.64.64,0,0,0-.07.9h0a.6.6,0,0,0,.53.22"/></g><g id="그룹_2760" data-name="그룹 2760"><path id="패스_6838" data-name="패스 6838" class="cls-9" d="M123.22,96.63a.78.78,0,0,0,.85.71h0a.8.8,0,0,0-.17-1.59h0a.78.78,0,0,0-.68.88"/></g><g id="그룹_2761" data-name="그룹 2761"><path id="패스_6839" data-name="패스 6839" class="cls-9" d="M143,93.92a.68.68,0,0,0,.73.6h0a.69.69,0,0,0,.57-.76.66.66,0,0,0-.73-.6h0a.68.68,0,0,0-.57.76"/></g><g id="그룹_2762" data-name="그룹 2762"><path id="패스_6840" data-name="패스 6840" class="cls-7" d="M136.74,109.61a8.29,8.29,0,0,0-4.49-.75,9.75,9.75,0,0,0-4.59,1.56,4.75,4.75,0,0,0,4.73,2.27,4.93,4.93,0,0,0,4.35-3.08"/></g><g id="그룹_2763" data-name="그룹 2763"><path id="패스_6841" data-name="패스 6841" class="cls-5" d="M132.39,113.33a5.35,5.35,0,0,1-5.3-2.62.64.64,0,0,1,.19-.8,10.43,10.43,0,0,1,4.91-1.69h.08a8.85,8.85,0,0,1,4.78.84.62.62,0,0,1,.29.75,5.52,5.52,0,0,1-4.9,3.52h-.05m3.5-3.4a8.59,8.59,0,0,0-3.59-.44,9.57,9.57,0,0,0-3.73,1.13,4.26,4.26,0,0,0,3.73,1.44h0a4.38,4.38,0,0,0,3.55-2.13Z"/></g><g id="SVGID"><path id="패스_6842" data-name="패스 6842" class="cls-1" d="M132.3,111.9c-5.21.44-5.83-5.49-5.83-5.49a13.73,13.73,0,0,0,9.94-.77s1.1,5.83-4.11,6.26"/></g><g id="그룹_2764" data-name="그룹 2764"><path id="패스_6843" data-name="패스 6843" class="cls-4" d="M136.21,92.28s9.16,10.8,16.52-1.8a.9.9,0,0,1,1.19-.35l2.69,1.32a1,1,0,0,1,.48,1.17c-1.42,4.27-9.12,23.74-27.17,11.15"/><path id="패스_6844" data-name="패스 6844" class="cls-5" d="M141.12,108.64c-3.6,0-7.48-1.44-11.59-4.3a.7.7,0,0,1-.17-1,.69.69,0,0,1,1-.17h0c5.33,3.72,10.18,4.89,14.43,3.47,7.25-2.41,10.77-11.53,11.68-14.27a.29.29,0,0,0-.13-.34l-2.68-1.3a.21.21,0,0,0-.29.07h0c-2.33,4-5.1,6.16-8.25,6.43-5.11.45-9.23-4.32-9.4-4.52a.7.7,0,0,1,.08-1,.68.68,0,0,1,1,.08s3.82,4.43,8.24,4c2.66-.24,5.07-2.17,7.16-5.74a1.6,1.6,0,0,1,2.1-.62l2.68,1.31a1.67,1.67,0,0,1,.83,2c-1,2.89-4.69,12.53-12.56,15.15a13,13,0,0,1-4.06.65Z"/></g><g id="그룹_2765" data-name="그룹 2765"><path id="패스_6845" data-name="패스 6845" class="cls-4" d="M140.75,95.79s-2.73.33-3.31,2.76"/><path id="패스_6846" data-name="패스 6846" class="cls-5" d="M137.77,98.63l-.66-.16c.62-2.63,3.48-3,3.6-3l.08.67a3.62,3.62,0,0,0-3,2.51Z"/></g><g id="그룹_2766" data-name="그룹 2766"><path id="패스_6847" data-name="패스 6847" class="cls-5" d="M137.49,99.18a.64.64,0,0,0,.57-.48,3.31,3.31,0,0,1,2.77-2.28.64.64,0,0,0-.16-1.27c-.13,0-3.18.43-3.85,3.25a.64.64,0,0,0,.47.77.67.67,0,0,0,.2,0"/></g><g id="그룹_2767" data-name="그룹 2767"><path id="패스_6848" data-name="패스 6848" class="cls-4" d="M144.36,96.64a4.43,4.43,0,0,0-2.23,3.14"/><path id="패스_6849" data-name="패스 6849" class="cls-5" d="M142.46,99.85l-.66-.15a4.79,4.79,0,0,1,2.43-3.38l.27.63-.14-.31.14.31a4.09,4.09,0,0,0-2,2.9Z"/></g><g id="그룹_2768" data-name="그룹 2768"><path id="패스_6850" data-name="패스 6850" class="cls-5" d="M142.18,100.41a.64.64,0,0,0,.57-.48,3.82,3.82,0,0,1,1.87-2.7.64.64,0,0,0,.32-.84.63.63,0,0,0-.83-.33,5.05,5.05,0,0,0-2.6,3.57.64.64,0,0,0,.47.77.65.65,0,0,0,.2,0"/></g><g id="그룹_2769" data-name="그룹 2769"><path id="패스_6851" data-name="패스 6851" class="cls-4" d="M148,95.8a4.12,4.12,0,0,0-.34,3.75"/><path id="패스_6852" data-name="패스 6852" class="cls-5" d="M147.39,99.69a4.46,4.46,0,0,1,.37-4.09l.56.39a3.8,3.8,0,0,0-.31,3.42Z"/></g><g id="그룹_2770" data-name="그룹 2770"><path id="패스_6853" data-name="패스 6853" class="cls-5" d="M147.74,100.19a.79.79,0,0,0,.22-.06.64.64,0,0,0,.32-.84,3.43,3.43,0,0,1,.29-3.14.64.64,0,0,0-1.06-.71,4.76,4.76,0,0,0-.4,4.38.64.64,0,0,0,.63.37"/></g><g id="그룹_2771" data-name="그룹 2771"><path id="패스_6854" data-name="패스 6854" class="cls-4" d="M152.88,90.47s-1.58-3.26.93-4.25,2.82,2.35,2.82,2.35,3.72-3.9,5.49-1.17c1.92,3-1,6.37-5.16,5.6"/><path id="패스_6855" data-name="패스 6855" class="cls-5" d="M158.11,93.81a6.85,6.85,0,0,1-1.28-.12.7.7,0,0,1-.56-.8h0a.69.69,0,0,1,.8-.55,4.37,4.37,0,0,0,4.5-1.53,2.65,2.65,0,0,0,0-3,1.28,1.28,0,0,0-1-.65c-1.21-.11-2.9,1.35-3.46,1.92a.67.67,0,0,1-.72.18.7.7,0,0,1-.47-.59,2.71,2.71,0,0,0-.83-1.79,1.08,1.08,0,0,0-1,0,1.42,1.42,0,0,0-.86.8,3.74,3.74,0,0,0,.31,2.5.69.69,0,0,1-1.25.6,5.09,5.09,0,0,1-.35-3.6,2.79,2.79,0,0,1,1.64-1.59,2.45,2.45,0,0,1,2.28.09,3.07,3.07,0,0,1,1.2,1.61,5.62,5.62,0,0,1,3.69-1.53,2.65,2.65,0,0,1,2,1.27,4,4,0,0,1,0,4.54,5.45,5.45,0,0,1-4.63,2.25Z"/></g><g id="그룹_2772" data-name="그룹 2772"><path id="패스_6856" data-name="패스 6856" class="cls-4" d="M103.6,77.76s-3.9-8.36-15.53-5.82c-10.65,2.32-9.69,17.34-5.55,22.85a17.23,17.23,0,0,0,1.11,16.09c5.08,8.53,18.51,8.56,21.93-2.75"/><path id="패스_6857" data-name="패스 6857" class="cls-5" d="M94.27,117.68A13.1,13.1,0,0,1,83,111.24a17.93,17.93,0,0,1-1.32-16.38C79.21,91.19,77.84,84,80,78.34a10.67,10.67,0,0,1,8-7.08c6.26-1.37,10.35.37,12.68,2.07a12,12,0,0,1,3.62,4.13.69.69,0,0,1-.33.92h0a.68.68,0,0,1-.92-.33h0c-.16-.33-3.84-7.82-14.75-5.44a9.39,9.39,0,0,0-7,6.21c-2,5.25-.64,12.28,1.82,15.55a.71.71,0,0,1,.06.74,16.74,16.74,0,0,0,1.1,15.42,11.68,11.68,0,0,0,11.43,5.68c4.45-.55,7.81-3.56,9.24-8.28a.68.68,0,0,1,.86-.46h0a.69.69,0,0,1,.47.86c-1.57,5.19-5.46,8.65-10.4,9.25a13.61,13.61,0,0,1-1.56.1Z"/></g><g id="그룹_2773" data-name="그룹 2773"><path id="패스_6858" data-name="패스 6858" class="cls-7" d="M100.24,82.57s-2.69-5.75-10.11-3.85c-6.8,1.74-5.85,12.15-3.07,15.92a12.82,12.82,0,0,0,1.08,11.15c3.45,5.86,12.09,5.71,14-2.18"/></g><g id="그룹_2774" data-name="그룹 2774"><path id="패스_6859" data-name="패스 6859" class="cls-10" d="M143.35,115.2s.65,8.92,2.31,10.89l-7,.53s-2-8.79-1.62-12c0,0,6.37.64,6.31.58"/></g><g id="그룹_2775" data-name="그룹 2775"><path id="패스_6860" data-name="패스 6860" class="cls-11" d="M138.65,127.32a.7.7,0,0,1-.68-.55c-.08-.36-2-8.94-1.63-12.23a.71.71,0,0,1,.77-.62c2.17.22,5.69.56,6.18.58a.37.37,0,0,1,.18,0,.68.68,0,0,1,.58.64c.25,3.36,1,9.18,2.15,10.48a.71.71,0,0,1,.11.73.71.71,0,0,1-.6.43l-7,.53Zm-1-11.93c0,2.92,1.12,8.63,1.51,10.48l5.29-.4c-1.12-2.6-1.64-7.77-1.8-9.62-.86,0-2.34-.19-5-.46Z"/></g><g id="그룹_2776" data-name="그룹 2776"><path id="패스_6861" data-name="패스 6861" class="cls-10" d="M133.87,106.41l29.31-6.3s2.71.09,2.29,12.22S160,124.06,160,124.06L133.7,111.22a3.2,3.2,0,0,1-1.33-2.54,2.54,2.54,0,0,1,1.5-2.27"/><path id="패스_6862" data-name="패스 6862" class="cls-11" d="M160.09,124.74H160a.67.67,0,0,1-.24-.07l-26.34-12.84-.07,0a3.88,3.88,0,0,1-1.64-3.1,3.21,3.21,0,0,1,1.92-2.9l.11,0L163,99.46l.16,0c.26,0,1.17.18,1.91,2,.87,2.13,1.22,5.81,1,10.93-.2,5.59-1.36,9.37-3.47,11.26a4,4,0,0,1-2.59,1.12ZM134,110.64l26.15,12.75a2.88,2.88,0,0,0,1.65-.84c1.23-1.14,2.74-3.84,3-10.25.33-9.61-1.31-11.25-1.67-11.5l-29,6.25a1.86,1.86,0,0,0-1,1.63,2.51,2.51,0,0,0,1,2Z"/></g><g id="그룹_2777" data-name="그룹 2777"><path id="패스_6863" data-name="패스 6863" class="cls-12" d="M159.82,111.67c-.19,5.37.57,9.76,1.7,9.8s2.19-4.29,2.38-9.65-.58-9.76-1.7-9.8-2.2,4.29-2.38,9.65"/><path id="패스_6864" data-name="패스 6864" class="cls-11" d="M161.54,122h0c-.9,0-1.5-1.1-1.89-3.38a35.72,35.72,0,0,1-.37-7,36.38,36.38,0,0,1,.85-7c.56-2.24,1.22-3.26,2.13-3.24,2.59.1,2.27,10,2.26,10.39a35.53,35.53,0,0,1-.86,7C163.08,121,162.42,122,161.54,122Zm.64-19.42c-.56.38-1.59,3.6-1.78,9.07s.61,8.75,1.14,9.18c.56-.39,1.59-3.61,1.78-9.08s-.61-8.75-1.14-9.17Z"/></g><g id="그룹_2778" data-name="그룹 2778"><path id="패스_6865" data-name="패스 6865" class="cls-10" d="M160.75,108.12l1.35.79a10,10,0,0,1-.07,5.19l-1.59,1.17s-.54-.77-.44-3.57.75-3.58.75-3.58"/><path id="패스_6866" data-name="패스 6866" class="cls-11" d="M160.44,115.85h-.09a.56.56,0,0,1-.38-.24c-.11-.15-.65-1.06-.55-3.91s.76-3.78.89-3.94a.57.57,0,0,1,.73-.13l1.35.8a.63.63,0,0,1,.26.32,10.55,10.55,0,0,1-.06,5.52.6.6,0,0,1-.21.31l-1.6,1.17a.58.58,0,0,1-.34.11Zm.56-6.91a9.39,9.39,0,0,0-.42,2.79,11.41,11.41,0,0,0,.15,2.61l.8-.58a9.79,9.79,0,0,0,.07-4.47Z"/></g><g id="그룹_2779" data-name="그룹 2779"><path id="패스_6867" data-name="패스 6867" class="cls-10" d="M145.66,126.09l1.87-1.51a13.38,13.38,0,0,1-1.85-7l-1.6,2.4a11.12,11.12,0,0,0,1.59,6.11"/></g><g id="그룹_2780" data-name="그룹 2780"><path id="패스_6868" data-name="패스 6868" class="cls-11" d="M145.66,126.79l-.14,0a.72.72,0,0,1-.48-.35,11.89,11.89,0,0,1-1.67-6.53.79.79,0,0,1,.12-.3l1.6-2.4a.7.7,0,0,1,.79-.29.72.72,0,0,1,.5.68,12.67,12.67,0,0,0,1.73,6.61.7.7,0,0,1-.14.94l-1.87,1.51a.71.71,0,0,1-.44.15Zm-.9-6.58A10.85,10.85,0,0,0,145.9,125l.72-.58a14.12,14.12,0,0,1-1.5-4.74Z"/></g><g id="그룹_2781" data-name="그룹 2781"><path id="패스_6869" data-name="패스 6869" class="cls-4" d="M117.13,119.94a13.17,13.17,0,0,0,15.39-1.7s-2.12-1.53-1.26-3.08,3-.46,3-.46-.74-4.24,4.93-4.27,7.28,6.27,3.59,13.61-15.19,9.61-24.37,8.72"/><path id="패스_6870" data-name="패스 6870" class="cls-5" d="M122.67,133.66q-2.06,0-4.29-.21a.69.69,0,0,1-.62-.75h0a.68.68,0,0,1,.75-.62h0c8.95.87,20.18-1.37,23.69-8.34,2.1-4.17,2.49-8.23,1-10.58a4.37,4.37,0,0,0-4-2h0a4.57,4.57,0,0,0-3.64,1.24,3,3,0,0,0-.61,2.21.71.71,0,0,1-.27.68.69.69,0,0,1-.72.06s-1.59-.76-2.13.18,1,2.17,1.07,2.18a.7.7,0,0,1,.28.53.71.71,0,0,1-.23.55c-7.74,6.87-16.14,1.82-16.22,1.77a.7.7,0,0,1-.23-1,.71.71,0,0,1,1-.22,12.4,12.4,0,0,0,14-1.11,2.84,2.84,0,0,1-.8-3.41,2.51,2.51,0,0,1,2.94-1.09,4.2,4.2,0,0,1,.93-2.26c1-1.14,2.54-1.73,4.69-1.74h.05a5.72,5.72,0,0,1,5.14,2.67c1.74,2.8,1.37,7.27-1,11.94C141,129.22,133.74,133.66,122.67,133.66Z"/></g><g id="그룹_2782" data-name="그룹 2782"><path id="패스_6871" data-name="패스 6871" class="cls-5" d="M169,107.26l3-3a.65.65,0,1,0-.92-.92l-3,3a.65.65,0,0,0,.92.92"/></g><g id="그룹_2783" data-name="그룹 2783"><path id="패스_6872" data-name="패스 6872" class="cls-5" d="M169,115.64l3,3a.65.65,0,0,1-.92.92l-3-3a.65.65,0,1,1,.92-.92"/></g><g id="그룹_2784" data-name="그룹 2784"><path id="패스_6873" data-name="패스 6873" class="cls-5" d="M169.84,112.45h3.43a.65.65,0,0,0,.65-.65.66.66,0,0,0-.65-.65h-3.43a.65.65,0,0,0,0,1.3"/></g><g id="그룹_2785" data-name="그룹 2785"><path id="패스_6874" data-name="패스 6874" class="cls-2" d="M124.8,102.33a2.2,2.2,0,0,0,.77,2c1.94,1.58,6.18,4,12.85,2,.76-.24,1.86-.9,1.58-2.09s-1.62-.76-3.16-1a13.88,13.88,0,0,1-4.89-1.65c-1.54-.93-2.53-1.59-3.16-2a2.13,2.13,0,0,0-3,.49v0a5,5,0,0,0-.33.48,4.42,4.42,0,0,0-.67,1.79"/></g><g id="그룹_2786" data-name="그룹 2786"><path id="패스_6875" data-name="패스 6875" class="cls-5" d="M131.13,107.56a15.56,15.56,0,0,0,7.45-.54,3.09,3.09,0,0,0,1.85-1.43,2.28,2.28,0,0,0,.18-1.54c-.31-1.36-1.45-1.4-2.46-1.44a9.87,9.87,0,0,1-1.21-.1,13.22,13.22,0,0,1-4.69-1.58,41.27,41.27,0,0,1-3.53-2.32l-.14-.11a.6.6,0,0,0-.83.15.78.78,0,0,0-.09.21h0a.76.76,0,0,0,.24.85l.14.1a41.14,41.14,0,0,0,3.62,2.39,14.36,14.36,0,0,0,5.08,1.72,10.26,10.26,0,0,0,1.36.12c1,0,1.24.11,1.3.39a.58.58,0,0,1,0,.43,1.84,1.84,0,0,1-1.09.76,13.4,13.4,0,0,1-13-2.33.57.57,0,0,0-.8.07l-.05.06a.78.78,0,0,0,.12,1,14.34,14.34,0,0,0,6.55,3.09"/></g></g></g></g><g class="cls-13"><g id="마스크_그룹_26" data-name="마스크 그룹 26"><g id="그룹_2789" data-name="그룹 2789"><g id="그룹_2739-2" data-name="그룹 2739-2"><path id="패스_6810-2" data-name="패스 6810-2" class="cls-4" d="M128.94,119.28a13.18,13.18,0,0,0,15.49.19s-1.92-1.78-.88-3.21,3.07-.09,3.07-.09-.21-4.3,5.41-3.64,6.47,7.1,1.92,13.94-16.25,7.7-25.26,5.7"/><path id="패스_6811-2" data-name="패스 6811-2" class="cls-5" d="M137.39,133.87a41,41,0,0,1-8.84-1A.7.7,0,0,1,128,132h0a.71.71,0,0,1,.83-.53c8.78,1.95,20.2,1.09,24.52-5.4,2.59-3.89,3.47-7.86,2.31-10.38a4.39,4.39,0,0,0-3.73-2.49,4.57,4.57,0,0,0-3.75.79,3.07,3.07,0,0,0-.89,2.13.69.69,0,0,1-1.07.61s-1.49-1-2.13-.08.77,2.28.79,2.29a.74.74,0,0,1,.22.56.72.72,0,0,1-.3.52c-8.52,5.88-16.24-.16-16.31-.22a.69.69,0,0,1,.86-1.08,12.36,12.36,0,0,0,14,.59,2.87,2.87,0,0,1-.38-3.48,2.53,2.53,0,0,1,3.06-.72,4.16,4.16,0,0,1,1.19-2.12c1.09-1,2.73-1.42,4.87-1.17a5.76,5.76,0,0,1,4.83,3.29c1.38,3,.48,7.38-2.42,11.73-2.57,3.87-8.59,7-17.13,7Z"/></g><g id="그룹_2742-2" data-name="그룹 2742-2"><g id="그룹_2740-2" data-name="그룹 2740-2"><path id="패스_6812-2" data-name="패스 6812-2" class="cls-4" d="M87.58,156.21a5.51,5.51,0,0,1-2.16-.46c-4.11-1.78-4.82-4.85-4.85-5a.71.71,0,0,1,.29-.72A11.21,11.21,0,0,1,87,147.84a6.64,6.64,0,0,1,5.81,3.57,10.18,10.18,0,0,0,6.44-3.74.68.68,0,0,1,.56-.3h.1a.7.7,0,0,1,.56.47l.69,2.11a.69.69,0,0,1-.11.65,8.89,8.89,0,0,1-6.54,3.07,8.25,8.25,0,0,1-1.65-.17,7.47,7.47,0,0,1-5.24,2.69Z"/></g><g id="그룹_2741-2" data-name="그룹 2741-2"><path id="패스_6813-2" data-name="패스 6813-2" class="cls-5" d="M99.76,148.07l.7,2.11a8.21,8.21,0,0,1-6,2.81,7.63,7.63,0,0,1-1.91-.24s-2.08,2.77-5,2.77a4.84,4.84,0,0,1-1.88-.4c-3.83-1.66-4.45-4.49-4.45-4.49a10.37,10.37,0,0,1,5.7-2.09,6.13,6.13,0,0,1,5.4,3.62,10.71,10.71,0,0,0,7.4-4.09m0-1.39a1.38,1.38,0,0,0-1.13.59,9.3,9.3,0,0,1-5.52,3.39,7.23,7.23,0,0,0-6.16-3.5,11.91,11.91,0,0,0-6.47,2.32,1.4,1.4,0,0,0-.58,1.45c0,.14.81,3.55,5.25,5.46a6,6,0,0,0,2.43.51,8,8,0,0,0,5.48-2.63,9.33,9.33,0,0,0,1.4.11,9.62,9.62,0,0,0,7.08-3.34,1.38,1.38,0,0,0,.23-1.3l-.69-2.11a1.38,1.38,0,0,0-1.12-.93l-.2,0Z"/></g></g><g id="그룹_2743-2" data-name="그룹 2743-2"><path id="패스_6814-2" data-name="패스 6814-2" class="cls-6" d="M92.46,152.86s-2.85,3.94-6.68,2.29-4.54-4.52-4.54-4.52c8.18-5.48,10.89,1.13,10.89,1.13Z"/></g><g id="그룹_2744-2" data-name="그룹 2744-2"><path id="패스_6815-2" data-name="패스 6815-2" class="cls-5" d="M89.9,153.47a4.36,4.36,0,0,0,2.71-.62.73.73,0,0,0,0-1h0a.72.72,0,0,0-1,0c-.63.39-5,.29-6.8-.81a.75.75,0,0,0-1,.24.74.74,0,0,0,.24,1,13.25,13.25,0,0,0,5.87,1.25"/></g><g id="그룹_2745-2" data-name="그룹 2745-2"><path id="패스_6816-2" data-name="패스 6816-2" class="cls-4" d="M107.57,169.45a16.26,16.26,0,0,1-8.09-1.86A3.19,3.19,0,0,1,98,165.44c-.86-4.28,2.53-33.28,9.45-50.66l31.45.09c1.3,6.78,6.5,36-.26,50.86a3.2,3.2,0,0,1-1.58,1.58c-1.6.72-5,1.5-10.73-.19a3.23,3.23,0,0,1-2.3-2.76l-.2-1.85c-.2-1.82-1.85-4.06-3.67-3.8h-.07a3.25,3.25,0,0,0-2.7,2.37l-1.22,5.42a3.22,3.22,0,0,1-2.13,2.25,21.2,21.2,0,0,1-6.44.7"/><path id="패스_6817-2" data-name="패스 6817-2" class="cls-5" d="M108,170.15h-.47a16.94,16.94,0,0,1-8.43-2,3.88,3.88,0,0,1-1.84-2.6c-.87-4.3,2.42-33.3,9.49-51.07a.69.69,0,0,1,.64-.43l31.45.09a.69.69,0,0,1,.68.56c6.16,32.11,1.83,46.56-.31,51.28a3.84,3.84,0,0,1-1.93,1.92c-1.92.87-5.44,1.54-11.21-.15a3.91,3.91,0,0,1-2.79-3.35l-.2-1.85a4.36,4.36,0,0,0-1.53-2.75,1.86,1.86,0,0,0-1.35-.44h-.08a2.55,2.55,0,0,0-2.12,1.86l-1.21,5.39a3.93,3.93,0,0,1-2.6,2.76,21.55,21.55,0,0,1-6.19.73Zm-.45-1.39a20.73,20.73,0,0,0,6.22-.66,2.48,2.48,0,0,0,1.67-1.77l1.21-5.39A4,4,0,0,1,120,158l.17.68L120,158a3.14,3.14,0,0,1,2.39.72,5.77,5.77,0,0,1,2.06,3.69l.2,1.86a2.55,2.55,0,0,0,1.8,2.17c5.65,1.65,8.86.84,10.26.22a2.48,2.48,0,0,0,1.23-1.24c6.31-13.89,2-41,.31-49.88l-30.4-.09c-6.72,17.23-10,45.79-9.24,49.84A2.53,2.53,0,0,0,99.82,167a15.6,15.6,0,0,0,7.75,1.77Z"/></g><g id="그룹_2746-2" data-name="그룹 2746-2"><path id="패스_6818-2" data-name="패스 6818-2" class="cls-2" d="M137.56,166.64s.12-3.33-2.21-3.36-2.77,4.66-2.77,4.66a7.82,7.82,0,0,0,2.88-.4,6,6,0,0,0,2.1-.9"/><path id="패스_6819-2" data-name="패스 6819-2" class="cls-5" d="M132.94,168.64a3.09,3.09,0,0,1-.43,0l-.68-.08.07-.68c0-.54.58-5.28,3.43-5.28h0a2.49,2.49,0,0,1,1.85.78,4.94,4.94,0,0,1,1,3.29v.28l-.2.19a6.35,6.35,0,0,1-2.38,1.08,9.6,9.6,0,0,1-2.72.43Zm2.39-4.67c-1.05,0-1.69,1.88-2,3.27a8.56,8.56,0,0,0,1.88-.36,9.41,9.41,0,0,0,1.6-.61,3.37,3.37,0,0,0-.66-2,1.15,1.15,0,0,0-.86-.35Z"/></g><g id="그룹_2747-2" data-name="그룹 2747-2"><path id="패스_6820-2" data-name="패스 6820-2" class="cls-2" d="M130.77,167.85a15.63,15.63,0,0,1-5-1s.44-4.07,3.17-3.73c2.12.25,1.8,4.71,1.8,4.71"/><path id="패스_6821-2" data-name="패스 6821-2" class="cls-5" d="M130.77,168.55a16.64,16.64,0,0,1-5.22-1l-.5-.19.06-.53a6.25,6.25,0,0,1,1.77-3.75,2.87,2.87,0,0,1,2.18-.61c2.69.33,2.45,4.93,2.41,5.46l-.05.64h-.65Zm-4.19-2.14a15.59,15.59,0,0,0,3.52.71c0-1.31-.3-3.19-1.21-3.3a1.53,1.53,0,0,0-1.15.3A4.3,4.3,0,0,0,126.58,166.41Z"/></g><g id="그룹_2748-2" data-name="그룹 2748-2"><path id="패스_6822-2" data-name="패스 6822-2" class="cls-2" d="M109.2,169.21a15.51,15.51,0,0,0,3.19-.2,8.81,8.81,0,0,0,2.06-.71s-.13-3.92-2.46-3.94-2.79,4.85-2.79,4.85"/><path id="패스_6823-2" data-name="패스 6823-2" class="cls-5" d="M109.79,169.92c-.38,0-.6,0-.63,0l-.71,0,.07-.71c0-.57.6-5.48,3.45-5.48h0c2.36,0,3.09,2.91,3.15,4.6v.45l-.4.2a9.6,9.6,0,0,1-2.26.78A17.69,17.69,0,0,1,109.79,169.92Zm2.19-4.87c-1.07,0-1.72,2-2,3.48a15.69,15.69,0,0,0,2.27-.2,7.41,7.41,0,0,0,1.45-.46c-.11-.89-.5-2.8-1.74-2.82Z"/></g><g id="그룹_2749-2" data-name="그룹 2749-2"><path id="패스_6824-2" data-name="패스 6824-2" class="cls-2" d="M106.92,169.31a21.14,21.14,0,0,1-5.06-.89s.5-4.29,3.23-3.95c2.12.25,1.83,4.84,1.83,4.84"/><path id="패스_6825-2" data-name="패스 6825-2" class="cls-5" d="M107.57,170h-.67a21.65,21.65,0,0,1-5.24-.92l-.55-.17.07-.57c0-.12.33-2.76,1.87-4a2.74,2.74,0,0,1,2.13-.59c2.68.32,2.46,5,2.43,5.57Zm-4.92-2.09a21,21,0,0,0,3.59.65c0-1.35-.31-3.3-1.23-3.41a1.41,1.41,0,0,0-1.1.3,4.62,4.62,0,0,0-1.26,2.46Z"/></g><g id="그룹_2750-2" data-name="그룹 2750-2"><path id="패스_6826-2" data-name="패스 6826-2" class="cls-4" d="M136,75.33s2.46-8.89,14.34-8.32c10.88.53,12.43,15.5,9.27,21.62a17.27,17.27,0,0,1,1.57,16.06c-3.59,9.25-16.83,11.5-22.08.92"/><path id="패스_6827-2" data-name="패스 6827-2" class="cls-5" d="M149.73,113.32c-4.74,0-8.91-2.73-11.22-7.4a.69.69,0,0,1,1.24-.62h0c2.18,4.42,6,6.84,10.48,6.63a11.69,11.69,0,0,0,10.33-7.5A16.72,16.72,0,0,0,159.08,89a.71.71,0,0,1-.06-.74c1.88-3.63,2-10.78-.78-15.63a9.41,9.41,0,0,0-7.9-5c-11.17-.53-13.55,7.47-13.65,7.81a.69.69,0,1,1-1.33-.37,11.86,11.86,0,0,1,2.88-4.67c2-2.06,5.78-4.46,12.16-4.15a10.67,10.67,0,0,1,9,5.66c3,5.24,2.86,12.55,1,16.58a18,18,0,0,1,1.41,16.37,13.06,13.06,0,0,1-11.55,8.38,5.42,5.42,0,0,1-.57,0Z"/></g><g id="그룹_2751-2" data-name="그룹 2751-2"><path id="패스_6828-2" data-name="패스 6828-2" class="cls-7" d="M141.22,80.53s1.7-6.12,9.34-5.47c7,.59,7.78,11,5.67,15.19a12.83,12.83,0,0,1,.79,11.17c-2.44,6.35-11,7.64-14.21.19"/></g><g id="그룹_2752-2" data-name="그룹 2752-2"><path id="패스_6829-2" data-name="패스 6829-2" class="cls-4" d="M121.25,67.65c-30,2.62-28,27.05-28,27.05s.28,28,37.19,23.41c0,0,30.74-5.18,18.87-26.12,0,0-4.16-26.43-28.06-24.34"/><path id="패스_6830-2" data-name="패스 6830-2" class="cls-5" d="M122.7,119.31c-9.19,0-16.48-2.32-21.74-6.94a25.53,25.53,0,0,1-8.41-17.66c0-.2-1.68-25.1,28.63-27.75l.06.69-.06-.69c23.4-2,28.41,22.76,28.78,24.79,3,5.43,3.57,10.35,1.55,14.6-1.92,4.05-6,7.37-12.26,9.89a46.42,46.42,0,0,1-8.7,2.56,64.53,64.53,0,0,1-7.85.51Zm-1.4-51c-12.15,1.06-20.44,5.8-24.66,14.08a25.55,25.55,0,0,0-2.71,12.23c0,.14.21,9.92,8,16.7,6.37,5.57,15.94,7.62,28.45,6.08.13,0,15.68-2.74,19.92-11.68,1.83-3.84,1.3-8.36-1.57-13.42a.9.9,0,0,1-.08-.23,37.6,37.6,0,0,0-5-12.73c-5.19-8.16-12.71-11.87-22.32-11Z"/></g><g id="그룹_2753-2" data-name="그룹 2753-2"><path id="패스_6831-2" data-name="패스 6831-2" class="cls-5" d="M131.78,106.5c4.26-.33,5.83-2.25,5.92-2.36a.66.66,0,0,0-.11-.9.64.64,0,0,0-.89.1c0,.06-2.81,3.25-11.29,1.28-.63-.15-1.25-.31-1.87-.5a.64.64,0,0,0-.36,1.23c.66.19,1.31.36,1.94.51a22,22,0,0,0,6.66.63"/></g><g id="그룹_2754-2" data-name="그룹 2754-2"><path id="패스_6832-2" data-name="패스 6832-2" class="cls-8" d="M136.41,105.64a13.73,13.73,0,0,1-9.94.77s.62,5.93,5.83,5.5,4.11-6.27,4.11-6.27"/></g><g id="그룹_2755-2" data-name="그룹 2755-2"><path id="패스_6833-2" data-name="패스 6833-2" class="cls-5" d="M136.41,105.64s1.1,5.83-4.11,6.27h-.05c-5.16.4-5.78-5.5-5.78-5.5a13.09,13.09,0,0,0,5,.55,13.4,13.4,0,0,0,5-1.33m-.1-1.27a1.32,1.32,0,0,0-.51.16,12.54,12.54,0,0,1-4.46,1.17,12,12,0,0,1-4.46-.49,1.25,1.25,0,0,0-.47-.07h0a1.28,1.28,0,0,0-1.17,1.37s0,.07,0,.1a10,10,0,0,0,1.1,3.33,6.08,6.08,0,0,0,6,3.24h.05a5.48,5.48,0,0,0,4.13-2.09c1.75-2.28,1.16-5.54,1.13-5.68a1.25,1.25,0,0,0-.71-.91,1.18,1.18,0,0,0-.64-.12"/></g><g id="그룹_2756-2" data-name="그룹 2756-2"><path id="패스_6834-2" data-name="패스 6834-2" class="cls-5" d="M140.82,95.16a2.41,2.41,0,1,0,2.1-3,2.57,2.57,0,0,0-2.1,3"/></g><g id="그룹_2757-2" data-name="그룹 2757-2"><path id="패스_6835-2" data-name="패스 6835-2" class="cls-5" d="M120.32,97.84a2.87,2.87,0,1,0,2.56-3.44,3,3,0,0,0-2.56,3.44"/></g><g id="그룹_2758-2" data-name="그룹 2758-2"><path id="패스_6836-2" data-name="패스 6836-2" class="cls-5" d="M121.36,89.72a.61.61,0,0,0,.36-.15,2.81,2.81,0,0,1,1.53-.63,3.31,3.31,0,0,1,1.78.29.64.64,0,0,0,.83-.34h0a.64.64,0,0,0-.34-.84,4.58,4.58,0,0,0-2.42-.37,4.11,4.11,0,0,0-2.21.92.64.64,0,0,0-.07.9h0a.62.62,0,0,0,.54.22"/></g><g id="그룹_2759-2" data-name="그룹 2759-2"><path id="패스_6837-2" data-name="패스 6837-2" class="cls-5" d="M139.73,87.88a.61.61,0,0,0,.37-.15,2.81,2.81,0,0,1,1.53-.63,3.26,3.26,0,0,1,1.77.29.64.64,0,0,0,.84-.34h0a.65.65,0,0,0-.34-.84h0a4.6,4.6,0,0,0-2.43-.37,4,4,0,0,0-2.2.92.64.64,0,0,0-.07.9h0a.6.6,0,0,0,.53.22"/></g><g id="그룹_2760-2" data-name="그룹 2760-2"><path id="패스_6838-2" data-name="패스 6838-2" class="cls-9" d="M123.22,96.63a.78.78,0,0,0,.85.71h0a.8.8,0,0,0-.17-1.59h0a.78.78,0,0,0-.68.88"/></g><g id="그룹_2761-2" data-name="그룹 2761-2"><path id="패스_6839-2" data-name="패스 6839-2" class="cls-9" d="M143,93.92a.68.68,0,0,0,.73.6h0a.69.69,0,0,0,.57-.76.66.66,0,0,0-.73-.6h0a.68.68,0,0,0-.57.76"/></g><g id="그룹_2762-2" data-name="그룹 2762-2"><path id="패스_6840-2" data-name="패스 6840-2" class="cls-7" d="M136.74,109.61a8.29,8.29,0,0,0-4.49-.75,9.75,9.75,0,0,0-4.59,1.56,4.75,4.75,0,0,0,4.73,2.27,4.93,4.93,0,0,0,4.35-3.08"/></g><g id="그룹_2763-2" data-name="그룹 2763-2"><path id="패스_6841-2" data-name="패스 6841-2" class="cls-5" d="M132.39,113.33a5.35,5.35,0,0,1-5.3-2.62.64.64,0,0,1,.19-.8,10.43,10.43,0,0,1,4.91-1.69h.08a8.85,8.85,0,0,1,4.78.84.62.62,0,0,1,.29.75,5.52,5.52,0,0,1-4.9,3.52h-.05m3.5-3.4a8.59,8.59,0,0,0-3.59-.44,9.57,9.57,0,0,0-3.73,1.13,4.26,4.26,0,0,0,3.73,1.44h0a4.38,4.38,0,0,0,3.55-2.13Z"/></g><g id="SVGID-2"><path id="패스_6842-2" data-name="패스 6842-2" class="cls-1" d="M132.3,111.9c-5.21.44-5.83-5.49-5.83-5.49a13.73,13.73,0,0,0,9.94-.77s1.1,5.83-4.11,6.26"/></g><g id="그룹_2764-2" data-name="그룹 2764-2"><path id="패스_6843-2" data-name="패스 6843-2" class="cls-4" d="M136.21,92.28s9.16,10.8,16.52-1.8a.9.9,0,0,1,1.19-.35l2.69,1.32a1,1,0,0,1,.48,1.17c-1.42,4.27-9.12,23.74-27.17,11.15"/><path id="패스_6844-2" data-name="패스 6844-2" class="cls-5" d="M141.12,108.64c-3.6,0-7.48-1.44-11.59-4.3a.7.7,0,0,1-.17-1,.69.69,0,0,1,1-.17h0c5.33,3.72,10.18,4.89,14.43,3.47,7.25-2.41,10.77-11.53,11.68-14.27a.29.29,0,0,0-.13-.34l-2.68-1.3a.21.21,0,0,0-.29.07h0c-2.33,4-5.1,6.16-8.25,6.43-5.11.45-9.23-4.32-9.4-4.52a.7.7,0,0,1,.08-1,.68.68,0,0,1,1,.08s3.82,4.43,8.24,4c2.66-.24,5.07-2.17,7.16-5.74a1.6,1.6,0,0,1,2.1-.62l2.68,1.31a1.67,1.67,0,0,1,.83,2c-1,2.89-4.69,12.53-12.56,15.15a13,13,0,0,1-4.06.65Z"/></g><g id="그룹_2765-2" data-name="그룹 2765-2"><path id="패스_6845-2" data-name="패스 6845-2" class="cls-4" d="M140.75,95.79s-2.73.33-3.31,2.76"/><path id="패스_6846-2" data-name="패스 6846-2" class="cls-5" d="M137.77,98.63l-.66-.16c.62-2.63,3.48-3,3.6-3l.08.67a3.62,3.62,0,0,0-3,2.51Z"/></g><g id="그룹_2766-2" data-name="그룹 2766-2"><path id="패스_6847-2" data-name="패스 6847-2" class="cls-5" d="M137.49,99.18a.64.64,0,0,0,.57-.48,3.31,3.31,0,0,1,2.77-2.28.64.64,0,0,0-.16-1.27c-.13,0-3.18.43-3.85,3.25a.64.64,0,0,0,.47.77.67.67,0,0,0,.2,0"/></g><g id="그룹_2767-2" data-name="그룹 2767-2"><path id="패스_6848-2" data-name="패스 6848-2" class="cls-4" d="M144.36,96.64a4.43,4.43,0,0,0-2.23,3.14"/><path id="패스_6849-2" data-name="패스 6849-2" class="cls-5" d="M142.46,99.85l-.66-.15a4.79,4.79,0,0,1,2.43-3.38l.27.63-.14-.31.14.31a4.09,4.09,0,0,0-2,2.9Z"/></g><g id="그룹_2768-2" data-name="그룹 2768-2"><path id="패스_6850-2" data-name="패스 6850-2" class="cls-5" d="M142.18,100.41a.64.64,0,0,0,.57-.48,3.82,3.82,0,0,1,1.87-2.7.64.64,0,0,0,.32-.84.63.63,0,0,0-.83-.33,5.05,5.05,0,0,0-2.6,3.57.64.64,0,0,0,.47.77.65.65,0,0,0,.2,0"/></g><g id="그룹_2769-2" data-name="그룹 2769-2"><path id="패스_6851-2" data-name="패스 6851-2" class="cls-4" d="M148,95.8a4.12,4.12,0,0,0-.34,3.75"/><path id="패스_6852-2" data-name="패스 6852-2" class="cls-5" d="M147.39,99.69a4.46,4.46,0,0,1,.37-4.09l.56.39a3.8,3.8,0,0,0-.31,3.42Z"/></g><g id="그룹_2770-2" data-name="그룹 2770-2"><path id="패스_6853-2" data-name="패스 6853-2" class="cls-5" d="M147.74,100.19a.79.79,0,0,0,.22-.06.64.64,0,0,0,.32-.84,3.43,3.43,0,0,1,.29-3.14.64.64,0,0,0-1.06-.71,4.76,4.76,0,0,0-.4,4.38.64.64,0,0,0,.63.37"/></g><g id="그룹_2771-2" data-name="그룹 2771-2"><path id="패스_6854-2" data-name="패스 6854-2" class="cls-4" d="M152.88,90.47s-1.58-3.26.93-4.25,2.82,2.35,2.82,2.35,3.72-3.9,5.49-1.17c1.92,3-1,6.37-5.16,5.6"/><path id="패스_6855-2" data-name="패스 6855-2" class="cls-5" d="M158.11,93.81a6.85,6.85,0,0,1-1.28-.12.7.7,0,0,1-.56-.8h0a.69.69,0,0,1,.8-.55,4.37,4.37,0,0,0,4.5-1.53,2.65,2.65,0,0,0,0-3,1.28,1.28,0,0,0-1-.65c-1.21-.11-2.9,1.35-3.46,1.92a.67.67,0,0,1-.72.18.7.7,0,0,1-.47-.59,2.71,2.71,0,0,0-.83-1.79,1.08,1.08,0,0,0-1,0,1.42,1.42,0,0,0-.86.8,3.74,3.74,0,0,0,.31,2.5.69.69,0,0,1-1.25.6,5.09,5.09,0,0,1-.35-3.6,2.79,2.79,0,0,1,1.64-1.59,2.45,2.45,0,0,1,2.28.09,3.07,3.07,0,0,1,1.2,1.61,5.62,5.62,0,0,1,3.69-1.53,2.65,2.65,0,0,1,2,1.27,4,4,0,0,1,0,4.54,5.45,5.45,0,0,1-4.63,2.25Z"/></g><g id="그룹_2772-2" data-name="그룹 2772-2"><path id="패스_6856-2" data-name="패스 6856-2" class="cls-4" d="M103.6,77.76s-3.9-8.36-15.53-5.82c-10.65,2.32-9.69,17.34-5.55,22.85a17.23,17.23,0,0,0,1.11,16.09c5.08,8.53,18.51,8.56,21.93-2.75"/><path id="패스_6857-2" data-name="패스 6857-2" class="cls-5" d="M94.27,117.68A13.1,13.1,0,0,1,83,111.24a17.93,17.93,0,0,1-1.32-16.38C79.21,91.19,77.84,84,80,78.34a10.67,10.67,0,0,1,8-7.08c6.26-1.37,10.35.37,12.68,2.07a12,12,0,0,1,3.62,4.13.69.69,0,0,1-.33.92h0a.68.68,0,0,1-.92-.33h0c-.16-.33-3.84-7.82-14.75-5.44a9.39,9.39,0,0,0-7,6.21c-2,5.25-.64,12.28,1.82,15.55a.71.71,0,0,1,.06.74,16.74,16.74,0,0,0,1.1,15.42,11.68,11.68,0,0,0,11.43,5.68c4.45-.55,7.81-3.56,9.24-8.28a.68.68,0,0,1,.86-.46h0a.69.69,0,0,1,.47.86c-1.57,5.19-5.46,8.65-10.4,9.25a13.61,13.61,0,0,1-1.56.1Z"/></g><g id="그룹_2773-2" data-name="그룹 2773-2"><path id="패스_6858-2" data-name="패스 6858-2" class="cls-7" d="M100.24,82.57s-2.69-5.75-10.11-3.85c-6.8,1.74-5.85,12.15-3.07,15.92a12.82,12.82,0,0,0,1.08,11.15c3.45,5.86,12.09,5.71,14-2.18"/></g><g id="그룹_2774-2" data-name="그룹 2774-2"><path id="패스_6859-2" data-name="패스 6859-2" class="cls-10" d="M143.35,115.2s.65,8.92,2.31,10.89l-7,.53s-2-8.79-1.62-12c0,0,6.37.64,6.31.58"/></g><g id="그룹_2775-2" data-name="그룹 2775-2"><path id="패스_6860-2" data-name="패스 6860-2" class="cls-11" d="M138.65,127.32a.7.7,0,0,1-.68-.55c-.08-.36-2-8.94-1.63-12.23a.71.71,0,0,1,.77-.62c2.17.22,5.69.56,6.18.58a.37.37,0,0,1,.18,0,.68.68,0,0,1,.58.64c.25,3.36,1,9.18,2.15,10.48a.71.71,0,0,1,.11.73.71.71,0,0,1-.6.43l-7,.53Zm-1-11.93c0,2.92,1.12,8.63,1.51,10.48l5.29-.4c-1.12-2.6-1.64-7.77-1.8-9.62-.86,0-2.34-.19-5-.46Z"/></g><g id="그룹_2776-2" data-name="그룹 2776-2"><path id="패스_6861-2" data-name="패스 6861-2" class="cls-10" d="M133.87,106.41l29.31-6.3s2.71.09,2.29,12.22S160,124.06,160,124.06L133.7,111.22a3.2,3.2,0,0,1-1.33-2.54,2.54,2.54,0,0,1,1.5-2.27"/><path id="패스_6862-2" data-name="패스 6862-2" class="cls-11" d="M160.09,124.74H160a.67.67,0,0,1-.24-.07l-26.34-12.84-.07,0a3.88,3.88,0,0,1-1.64-3.1,3.21,3.21,0,0,1,1.92-2.9l.11,0L163,99.46l.16,0c.26,0,1.17.18,1.91,2,.87,2.13,1.22,5.81,1,10.93-.2,5.59-1.36,9.37-3.47,11.26a4,4,0,0,1-2.59,1.12ZM134,110.64l26.15,12.75a2.88,2.88,0,0,0,1.65-.84c1.23-1.14,2.74-3.84,3-10.25.33-9.61-1.31-11.25-1.67-11.5l-29,6.25a1.86,1.86,0,0,0-1,1.63,2.51,2.51,0,0,0,1,2Z"/></g><g id="그룹_2777-2" data-name="그룹 2777-2"><path id="패스_6863-2" data-name="패스 6863-2" class="cls-12" d="M159.82,111.67c-.19,5.37.57,9.76,1.7,9.8s2.19-4.29,2.38-9.65-.58-9.76-1.7-9.8-2.2,4.29-2.38,9.65"/><path id="패스_6864-2" data-name="패스 6864-2" class="cls-11" d="M161.54,122h0c-.9,0-1.5-1.1-1.89-3.38a35.72,35.72,0,0,1-.37-7,36.38,36.38,0,0,1,.85-7c.56-2.24,1.22-3.26,2.13-3.24,2.59.1,2.27,10,2.26,10.39a35.53,35.53,0,0,1-.86,7C163.08,121,162.42,122,161.54,122Zm.64-19.42c-.56.38-1.59,3.6-1.78,9.07s.61,8.75,1.14,9.18c.56-.39,1.59-3.61,1.78-9.08s-.61-8.75-1.14-9.17Z"/></g><g id="그룹_2778-2" data-name="그룹 2778-2"><path id="패스_6865-2" data-name="패스 6865-2" class="cls-10" d="M160.75,108.12l1.35.79a10,10,0,0,1-.07,5.19l-1.59,1.17s-.54-.77-.44-3.57.75-3.58.75-3.58"/><path id="패스_6866-2" data-name="패스 6866-2" class="cls-11" d="M160.44,115.85h-.09a.56.56,0,0,1-.38-.24c-.11-.15-.65-1.06-.55-3.91s.76-3.78.89-3.94a.57.57,0,0,1,.73-.13l1.35.8a.63.63,0,0,1,.26.32,10.55,10.55,0,0,1-.06,5.52.6.6,0,0,1-.21.31l-1.6,1.17a.58.58,0,0,1-.34.11Zm.56-6.91a9.39,9.39,0,0,0-.42,2.79,11.41,11.41,0,0,0,.15,2.61l.8-.58a9.79,9.79,0,0,0,.07-4.47Z"/></g><g id="그룹_2779-2" data-name="그룹 2779-2"><path id="패스_6867-2" data-name="패스 6867-2" class="cls-10" d="M145.66,126.09l1.87-1.51a13.38,13.38,0,0,1-1.85-7l-1.6,2.4a11.12,11.12,0,0,0,1.59,6.11"/></g><g id="그룹_2780-2" data-name="그룹 2780-2"><path id="패스_6868-2" data-name="패스 6868-2" class="cls-11" d="M145.66,126.79l-.14,0a.72.72,0,0,1-.48-.35,11.89,11.89,0,0,1-1.67-6.53.79.79,0,0,1,.12-.3l1.6-2.4a.7.7,0,0,1,.79-.29.72.72,0,0,1,.5.68,12.67,12.67,0,0,0,1.73,6.61.7.7,0,0,1-.14.94l-1.87,1.51a.71.71,0,0,1-.44.15Zm-.9-6.58A10.85,10.85,0,0,0,145.9,125l.72-.58a14.12,14.12,0,0,1-1.5-4.74Z"/></g><g id="그룹_2781-2" data-name="그룹 2781-2"><path id="패스_6869-2" data-name="패스 6869-2" class="cls-4" d="M117.13,119.94a13.17,13.17,0,0,0,15.39-1.7s-2.12-1.53-1.26-3.08,3-.46,3-.46-.74-4.24,4.93-4.27,7.28,6.27,3.59,13.61-15.19,9.61-24.37,8.72"/><path id="패스_6870-2" data-name="패스 6870-2" class="cls-5" d="M122.67,133.66q-2.06,0-4.29-.21a.69.69,0,0,1-.62-.75h0a.68.68,0,0,1,.75-.62h0c8.95.87,20.18-1.37,23.69-8.34,2.1-4.17,2.49-8.23,1-10.58a4.37,4.37,0,0,0-4-2h0a4.57,4.57,0,0,0-3.64,1.24,3,3,0,0,0-.61,2.21.71.71,0,0,1-.27.68.69.69,0,0,1-.72.06s-1.59-.76-2.13.18,1,2.17,1.07,2.18a.7.7,0,0,1,.28.53.71.71,0,0,1-.23.55c-7.74,6.87-16.14,1.82-16.22,1.77a.7.7,0,0,1-.23-1,.71.71,0,0,1,1-.22,12.4,12.4,0,0,0,14-1.11,2.84,2.84,0,0,1-.8-3.41,2.51,2.51,0,0,1,2.94-1.09,4.2,4.2,0,0,1,.93-2.26c1-1.14,2.54-1.73,4.69-1.74h.05a5.72,5.72,0,0,1,5.14,2.67c1.74,2.8,1.37,7.27-1,11.94C141,129.22,133.74,133.66,122.67,133.66Z"/></g><g id="그룹_2782-2" data-name="그룹 2782-2"><path id="패스_6871-2" data-name="패스 6871-2" class="cls-5" d="M169,107.26l3-3a.65.65,0,1,0-.92-.92l-3,3a.65.65,0,0,0,.92.92"/></g><g id="그룹_2783-2" data-name="그룹 2783-2"><path id="패스_6872-2" data-name="패스 6872-2" class="cls-5" d="M169,115.64l3,3a.65.65,0,0,1-.92.92l-3-3a.65.65,0,1,1,.92-.92"/></g><g id="그룹_2784-2" data-name="그룹 2784-2"><path id="패스_6873-2" data-name="패스 6873-2" class="cls-5" d="M169.84,112.45h3.43a.65.65,0,0,0,.65-.65.66.66,0,0,0-.65-.65h-3.43a.65.65,0,0,0,0,1.3"/></g><g id="그룹_2785-2" data-name="그룹 2785-2"><path id="패스_6874-2" data-name="패스 6874-2" class="cls-2" d="M124.8,102.33a2.2,2.2,0,0,0,.77,2c1.94,1.58,6.18,4,12.85,2,.76-.24,1.86-.9,1.58-2.09s-1.62-.76-3.16-1a13.88,13.88,0,0,1-4.89-1.65c-1.54-.93-2.53-1.59-3.16-2a2.13,2.13,0,0,0-3,.49v0a5,5,0,0,0-.33.48,4.42,4.42,0,0,0-.67,1.79"/></g><g id="그룹_2786-2" data-name="그룹 2786-2"><path id="패스_6875-2" data-name="패스 6875-2" class="cls-5" d="M131.13,107.56a15.56,15.56,0,0,0,7.45-.54,3.09,3.09,0,0,0,1.85-1.43,2.28,2.28,0,0,0,.18-1.54c-.31-1.36-1.45-1.4-2.46-1.44a9.87,9.87,0,0,1-1.21-.1,13.22,13.22,0,0,1-4.69-1.58,41.27,41.27,0,0,1-3.53-2.32l-.14-.11a.6.6,0,0,0-.83.15.78.78,0,0,0-.09.21h0a.76.76,0,0,0,.24.85l.14.1a41.14,41.14,0,0,0,3.62,2.39,14.36,14.36,0,0,0,5.08,1.72,10.26,10.26,0,0,0,1.36.12c1,0,1.24.11,1.3.39a.58.58,0,0,1,0,.43,1.84,1.84,0,0,1-1.09.76,13.4,13.4,0,0,1-13-2.33.57.57,0,0,0-.8.07l-.05.06a.78.78,0,0,0,.12,1,14.34,14.34,0,0,0,6.55,3.09"/></g></g></g></g></g></g></g></svg>