<svg xmlns="http://www.w3.org/2000/svg" width="280.658" height="193.523">
    <defs>
        <clipPath id="clip-path">
            <path id="SVGID" class="cls-1" transform="rotate(180 113.501 90.922)" d="M0 0h227.002v181.844H0z"/>
        </clipPath>
        <clipPath id="clip-path-2">
            <path id="SVGID-2" data-name="SVGID" class="cls-1" d="M83.846 83.428c-10.995.266-11.526-11.614-11.526-11.614a30.357 30.357 0 0 0 20.956-.384s1.564 11.806-9.43 12" transform="translate(-72.32 -71.43)"/>
        </clipPath>
        <style>
            .cls-1{fill:none}.cls-12,.cls-3{fill:#8cc7ea}.cls-10,.cls-12,.cls-3,.cls-9{stroke:#36607b}.cls-3{stroke-miterlimit:10}.cls-4{fill:#335e77}.cls-6{fill:#355e77}.cls-7{fill:#fff}.cls-10,.cls-8{fill:#1771a5}.cls-9{fill:#f7eee4}.cls-10,.cls-12,.cls-9{stroke-linecap:round;stroke-linejoin:round;stroke-width:1.98px}.cls-11{fill:#bababa}.cls-13{fill:#ffbfc5}.cls-16{fill:#f6f8f8}.cls-18{fill:#2b2b2b}.cls-20,.cls-23{fill-rule:evenodd}.cls-20{fill:#fcf0ef}.cls-23{fill:#f8d8c2}
        </style>
    </defs>
    <g id="레이어_2" data-name="레이어 2" transform="translate(.67)">
        <g id="레이어_1" data-name="레이어 1">
            <g id="그룹_673" data-name="그룹 673" transform="translate(1.948)" style="clip-path:url(#clip-path)">
                <path id="패스_3250" data-name="패스 3250" class="cls-3" d="M62.758 145.055a16.411 16.411 0 0 1-14.994 8.013s-4.634 9.179-12.942 7.216-10.552-7.379-10.552-7.379c14.492-13.946 22.9-.915 22.9-.915 9.611-2.611 12.297-9.99 12.297-9.99z" transform="translate(8.61 67.559)"/>
                <path id="패스_3251" data-name="패스 3251" class="cls-4" d="m60.443 142.99 3.291 3.07a16.5 16.5 0 0 1-13.872 8.058H48.74s-3.793 7.5-10.64 7.5a9.9 9.9 0 0 1-2.3-.28c-8.294-1.948-10.552-7.379-10.552-7.379 5.047-4.87 9.371-6.449 12.839-6.449a12.884 12.884 0 0 1 10.065 5.534c9.607-2.671 12.293-10.05 12.293-10.05m0-3.07a2.954 2.954 0 0 0-.708.074 3.084 3.084 0 0 0-2.169 1.933 14.758 14.758 0 0 1-8.382 7.467 15.318 15.318 0 0 0-11.053-5.062c-4.9 0-9.932 2.465-14.964 7.379a3.04 3.04 0 0 0-.708 3.38c.118.28 2.952 6.966 12.692 9.253a12.986 12.986 0 0 0 2.952.354c6.375 0 10.537-4.811 12.337-7.467a19.613 19.613 0 0 0 16-9.651 3.07 3.07 0 0 0-.605-3.7l-3.291-3.07a3.04 3.04 0 0 0-2.1-.826" transform="translate(7.635 66.569)"/>
                <path id="패스_3252" data-name="패스 3252" d="M47.636 151.961s-4.324 8.973-12.633 7.01S24.26 151.5 24.26 151.5c14.492-13.946 22.314-1.623 22.314-1.623z" transform="translate(8.605 68.917)" style="fill:#9ee630"/>
                <path id="패스_3253" data-name="패스 3253" class="cls-4" d="M38.3 145.84a11.644 11.644 0 0 1 9.268 5.032l1.063 2.081s-3.512 7.29-10.33 7.29a10.242 10.242 0 0 1-2.332-.28c-8.294-1.948-10.744-7.467-10.744-7.467 5.239-5.047 9.607-6.656 13.046-6.656m0-3.07c-4.885 0-9.991 2.538-15.171 7.512a3.084 3.084 0 0 0-.679 3.453c.133.28 3.173 6.936 12.854 9.224a13.281 13.281 0 0 0 2.952.354c8.6 0 12.883-8.663 13.061-9.032a2.952 2.952 0 0 0 0-2.715l-1.063-2.1-.133-.251a14.758 14.758 0 0 0-11.806-6.449" transform="translate(7.608 67.925)"/>
                <path id="패스_3254" data-name="패스 3254" class="cls-4" d="M35.251 153.145a19.362 19.362 0 0 1-6.493-.9 1.534 1.534 0 1 1 1.136-2.848c3.955 1.55 12.81.192 13.946-.812a1.527 1.527 0 0 1 2.435 1.845c-1.284 1.756-6.39 2.715-11.024 2.715m8.559-4.531z" transform="translate(10.277 70.404)"/>
                <path id="패스_3255" data-name="패스 3255" class="cls-3" d="M139.173 110.226c2.819 13.828 6.538 49.35-6.936 79.913a6.479 6.479 0 0 1-3.173 3.276c-3.261 1.476-10.109 3.188-21.959-.133a6.611 6.611 0 0 1-4.826-5.534l-.443-3.734c-.457-3.719-3.881-8.25-7.585-7.674H94.1a6.656 6.656 0 0 0-5.46 4.914l-2.361 11.113A6.582 6.582 0 0 1 81.973 197a43.269 43.269 0 0 1-13.149 1.579c-8.545 0-13.784-2.037-16.573-3.63a6.508 6.508 0 0 1-3.1-4.368 191.584 191.584 0 0 1 .428-75.766A151.267 151.267 0 0 1 59.792 84.71l72.308 3.306a221.487 221.487 0 0 1 7.069 22.21" transform="translate(18.749 40.302)"/>
                <path id="패스_3256" data-name="패스 3256" class="cls-4" d="M69.309 202.643c-8.781 0-14.271-2.081-17.326-3.822a8.131 8.131 0 0 1-3.822-5.372 193.325 193.325 0 0 1 .428-76.4 150.97 150.97 0 0 1 10.33-30.46l2.952-6.08a1.514 1.514 0 0 1 2.952.679 1.476 1.476 0 0 1-.162.679l-1.948 3.985 69.922 3.188a1.476 1.476 0 0 1 1.358.989 221.633 221.633 0 0 1 7.157 22.432c.915 4.545 8.589 45.395-7.039 80.842a7.91 7.91 0 0 1-3.94 4.044c-3.94 1.815-11.127 3.291-23.007 0a8.117 8.117 0 0 1-5.9-6.877l-.457-3.778a8.855 8.855 0 0 0-3.158-5.5 3.6 3.6 0 0 0-2.656-.856h-.183a5.047 5.047 0 0 0-4.176 3.719l-2.391 11.165a8.058 8.058 0 0 1-5.313 5.711 45.647 45.647 0 0 1-13.621 1.653m26.076-25.324a6.774 6.774 0 0 1 4.1 1.476 11.9 11.9 0 0 1 4.427 7.585l.458 3.778a5.062 5.062 0 0 0 3.645 4.294c11.555 3.232 18.049 1.476 20.9.207a4.84 4.84 0 0 0 2.42-2.479c15.215-34.5 7.777-74.379 6.833-78.968a218.892 218.892 0 0 0-6.744-21.03l-70.232-3.276a152.459 152.459 0 0 0-9.652 28.836 190.374 190.374 0 0 0-.443 75.131 5.062 5.062 0 0 0 2.403 3.336c2.73 1.564 7.7 3.424 15.805 3.424a41.453 41.453 0 0 0 12.68-1.474 4.973 4.973 0 0 0 3.276-3.5l2.376-11.171a8.19 8.19 0 0 1 6.729-6.051h.148a5.624 5.624 0 0 1 .871-.074" transform="translate(18.263 37.744)"/>
                <path id="패스_3257" data-name="패스 3257" class="cls-3" d="M102.005 126.6s-3.1 15.259 2.3 16.233 5.4-4.752 5.4-4.752-1.092 8.456 8.412 7.556 6.759-16.986 3.94-24.97" transform="translate(45.173 57.411)"/>
                <path id="패스_3258" data-name="패스 3258" class="cls-6" d="M117.257 147.76a13.6 13.6 0 0 0 1.476-.074 7.733 7.733 0 0 0 6.021-3.616c3.807-5.9 1.3-17.517-.782-23.391a1.561 1.561 0 0 0-2.952 1.018c2.051 5.8 4.044 16.1 1.092 20.661a4.678 4.678 0 0 1-3.734 2.214 6.493 6.493 0 0 1-5.416-1.343 5.785 5.785 0 0 1-1.343-4.058v-.62a1.531 1.531 0 1 0-3.055-.207v.605a3.866 3.866 0 0 1-1.107 2.45 2.952 2.952 0 0 1-2.45.384 1.284 1.284 0 0 1-.9-.649c-1.668-2.464-.989-9.77-.177-13.784a1.508 1.508 0 0 0-2.952-.62c-.251 1.2-2.287 11.806.62 16.115a4.427 4.427 0 0 0 2.952 1.963 5.9 5.9 0 0 0 4.988-1.048l.118-.118a6.523 6.523 0 0 0 1.21 1.7 8.456 8.456 0 0 0 6.4 2.361" transform="translate(44.665 56.914)"/>
                <path id="패스_3259" data-name="패스 3259" class="cls-7" d="M119.556 154.994A172.342 172.342 0 0 0 65.1 158.3l8.855-68.446 34.961-2.214 13.284 66.985" transform="translate(28.036 41.696)"/>
                <path id="패스_3260" data-name="패스 3260" class="cls-6" d="M65.565 160.336a1.529 1.529 0 0 1-1.52-1.727l8.8-68.461a1.476 1.476 0 0 1 1.476-1.343l34.961-2.214a1.476 1.476 0 0 1 1.594 1.24l13.282 66.985a1.482 1.482 0 0 1-2.671 1.284 1.55 1.55 0 0 1-1.609.9 172.665 172.665 0 0 0-53.924 3.276 1.254 1.254 0 0 1-.339 0m37.9-7.187a146.011 146.011 0 0 1 16.765.826 1.639 1.639 0 0 1 .635.221l-12.803-64.371-32.32 2.035-8.382 65.024a173.1 173.1 0 0 1 36.1-3.675" transform="translate(27.526 41.194)"/>
                <path id="패스_3261" data-name="패스 3261" class="cls-8" d="m101.31 124.2.266 7.881s5.165 2.863 13.282.635 9.607-3.129 9.607-3.129l-1-9.814z" transform="translate(45.263 56.982)"/>
                <path id="패스_3262" data-name="패스 3262" class="cls-6" d="M109.277 135.568a17.709 17.709 0 0 1-7.94-1.7 1.476 1.476 0 0 1-.782-1.284l-.266-7.9a1.476 1.476 0 0 1 1.24-1.476l22.136-4.427a1.579 1.579 0 0 1 1.21.266 1.476 1.476 0 0 1 .62 1.092l1 9.814a1.476 1.476 0 0 1-.723 1.476c-.28.162-2.051 1.122-10.02 3.291a24.692 24.692 0 0 1-6.523.9m13.385-13.488-19.288 3.837.177 5.623a18.9 18.9 0 0 0 11.437.177c4.87-1.343 7.276-2.169 8.382-2.6z" transform="translate(44.778 56.502)"/>
                <path id="패스_3263" data-name="패스 3263" class="cls-9" d="M109.144 87s-17.709 5.106-15.259 28.527a165.28 165.28 0 0 1 4.885 17s1.919 9.135 7 9.77c0 0 14.108-.221 20.661-6.006s5.977-15.023-3.748-33.234C114.133 87 109.144 87 109.144 87" transform="translate(41.62 41.392)"/>
                <path id="패스_3264" data-name="패스 3264" class="cls-10" d="M88.73 85.79s6.7 42.192 4.132 75.884c0 0 20.749-1.476 28.91 3.2a12.19 12.19 0 0 0 2.612-11.511c-1.756-7.379-7.733-54.042-12.913-66.985 0 0-9.489-4.324-22.742-.59" transform="translate(39.278 40.093)"/>
                <path id="패스_3265" data-name="패스 3265" class="cls-10" d="m104.593 88.856-5.15 72.652s-28.955 4.147-53.378-.1c0 0-11.806-2.524-5.711-19.642 6.493-18.023 18.018-58.916 18.018-58.916z" transform="translate(15.431 39.417)"/>
                <path id="패스_3266" data-name="패스 3266" class="cls-8" d="m96.877 136.15.723 12.042s-28.335 8.855-53.334-.339L44 137.065s28.718 2.435 52.921-.915" transform="translate(17.997 64.775)"/>
                <path id="패스_3267" data-name="패스 3267" class="cls-6" d="M70.394 154.11a76.4 76.4 0 0 1-26.136-4.265 1.564 1.564 0 0 1-1.018-1.4l-.31-10.788a1.567 1.567 0 0 1 1.668-1.579c.28 0 28.836 2.391 52.567-.9a1.527 1.527 0 0 1 1.741 1.431l.738 12.042a1.476 1.476 0 0 1-1.077 1.55 104.013 104.013 0 0 1-28.172 3.911m25.56-15.673c-20.336 2.568-43.506 1.269-49.91.826l.236 8.043c21.162 7.305 44.79 1.756 50.176.3z" transform="translate(17.488 64.303)"/>
                <path id="패스_3268" data-name="패스 3268" class="cls-7" d="m34.333 161.57 71.781-5.534c2.583-.236 4.9-1.225 4.678-3.807l-4.092-46.694a4.722 4.722 0 0 0-5.106-4.28l-72 6.3a4.723 4.723 0 0 0-4.28 5.106l3.97 44.627a4.722 4.722 0 0 0 5.106 4.28" transform="translate(9.099 48.166)"/>
                <path id="패스_3269" data-name="패스 3269" class="cls-4" d="M34.4 163.631a6.257 6.257 0 0 1-6.2-5.7l-3.911-44.642a6.228 6.228 0 0 1 5.667-6.759l72-6.316a6.242 6.242 0 0 1 6.759 5.682l4.1 46.693a4.427 4.427 0 0 1-1.874 4.176 8.559 8.559 0 0 1-4.147 1.284L34.943 163.6H34.4m68.1-60.372h-.28l-72 6.361a3.188 3.188 0 0 0-2.878 3.439l3.911 44.627a3.188 3.188 0 0 0 3.439 2.951L106.518 155a5.9 5.9 0 0 0 2.656-.753 1.328 1.328 0 0 0 .62-1.387l-4.088-46.693a3.188 3.188 0 0 0-3.158-2.952" transform="translate(8.607 47.669)"/>
                <path id="패스_3270" data-name="패스 3270" class="cls-7" d="m32.438 162.22 72-6.3a4.708 4.708 0 0 0 4.28-5.106l-3.911-44.627a4.693 4.693 0 0 0-5.091-4.28l-72 6.3a4.722 4.722 0 0 0-4.28 5.106l3.911 44.642a4.708 4.708 0 0 0 5.091 4.265" transform="translate(8.205 48.474)"/>
                <path id="패스_3271" data-name="패스 3271" class="cls-4" d="M32.54 164.281a6.272 6.272 0 0 1-6.272-5.652l-3.911-44.642a6.242 6.242 0 0 1 5.682-6.759l72.017-6.361a6.243 6.243 0 0 1 6.759 5.667l3.955 44.716a6.257 6.257 0 0 1-5.682 6.774l-72 6.3h-.548m72.313-9.4a3.173 3.173 0 0 0 2.947-3.424l-3.911-44.642a3.173 3.173 0 0 0-3.439-2.952l-72 6.316a3.173 3.173 0 0 0-2.952 3.424l3.911 44.642a3.173 3.173 0 0 0 3.439 2.952z" transform="translate(7.689 47.978)"/>
                <path id="패스_3272" data-name="패스 3272" class="cls-11" d="m66.739 123.036.148 2.066-1.358.133-.4-5.652 2.287-.221A1.107 1.107 0 0 1 68.8 120.5l.1 1.313c0 .856-.133 1.476-1.21 1.328zm-.089-1.107h.531c.28 0 .4 0 .369-.31v-.767a.4.4 0 0 0-.487-.4h-.457z" transform="translate(28.05 56.771)"/>
                <path id="패스_3273" data-name="패스 3273" class="cls-11" d="m71.411 119 .31 4.427c.074.959-.723 1.372-1.712 1.476s-1.815-.177-1.889-1.136l-.31-4.427 1.358-.133.31 4.265c0 .251.207.354.457.339a.38.38 0 0 0 .4-.428l-.3-4.25z" transform="translate(29.325 56.616)"/>
                <path id="패스_3274" data-name="패스 3274" class="cls-11" d="M74.477 122.346v.841c0 .974-.723 1.387-1.712 1.476s-1.845-.177-1.919-1.136l-.236-3.276c0-.974.723-1.387 1.712-1.476s1.815.177 1.889 1.136v.649l-1.358.133v-.443c0-.251-.221-.354-.472-.339a.4.4 0 0 0-.413.428l.207 2.863a.459.459 0 0 0 .9-.074v-.649z" transform="translate(30.657 56.501)"/>
                <path id="패스_3275" data-name="패스 3275" class="cls-11" d="M73.38 119.992c0-.959.708-1.372 1.7-1.476s1.83.177 1.889 1.136l.236 3.291c0 .959-.708 1.372-1.7 1.476s-1.83-.177-1.9-1.136zm1.564 2.952c0 .251.221.354.472.339a.411.411 0 0 0 .428-.428l-.207-2.863c0-.251-.221-.354-.472-.339a.411.411 0 0 0-.428.428z" transform="translate(31.975 56.376)"/>
                <path id="패스_3276" data-name="패스 3276" class="cls-8" d="m120.44 140.084-2.3 10.965s-18.477-4.87-26.328-2.952l-.28-11.26s17.591-2.243 28.91 3.2" transform="translate(40.61 64.885)"/>
                <path id="패스_3277" data-name="패스 3277" class="cls-6" d="M118.634 153.07a1.858 1.858 0 0 1-.4 0c-.177 0-18.181-4.737-25.56-2.952a1.532 1.532 0 0 1-1.9-1.446l-.28-11.275a1.476 1.476 0 0 1 1.343-1.55c.738-.1 18.181-2.243 29.766 3.335a1.476 1.476 0 0 1 .841 1.7l-2.317 10.965a1.551 1.551 0 0 1-1.491 1.225m.546-11.614c-8.943-3.763-21.458-3.07-25.59-2.7l.207 8.058c7.261-.885 19.347 1.8 23.612 2.848l1.727-8.205" transform="translate(40.115 64.399)"/>
                <path id="패스_3278" data-name="패스 3278" class="cls-3" d="M65.079 123.568s4.9 14.758-.339 16.411-5.9-4.073-5.9-4.073 2.1 8.264-7.379 8.5-8.737-16.071-6.877-24.335" transform="translate(17.726 57.125)"/>
                <path id="패스_3279" data-name="패스 3279" class="cls-6" d="M51.654 146.422h.236c3.5-.089 6.051-1.166 7.6-3.2a7.468 7.468 0 0 0 1-1.83l.133.089a5.9 5.9 0 0 0 5.077.457 4.427 4.427 0 0 0 2.686-2.3c2.391-4.634-.9-14.905-1.284-16.071a1.554 1.554 0 1 0-2.952.974c1.284 3.9 2.819 11.068 1.476 13.71a1.328 1.328 0 0 1-.812.753 2.951 2.951 0 0 1-2.494-.1 3.97 3.97 0 0 1-1.4-2.332 3.35 3.35 0 0 0-.1-.546 1.5 1.5 0 0 0-2.952.561 1.9 1.9 0 0 0 .118.605 5.9 5.9 0 0 1-.856 4.191 6.449 6.449 0 0 1-5.224 1.978 4.693 4.693 0 0 1-3.97-1.756c-3.468-4.235-2.715-14.758-1.358-20.661a1.535 1.535 0 1 0-3-.664c-1.372 6.08-2.494 17.842 1.992 23.3a7.674 7.674 0 0 0 6.169 2.952" transform="translate(17.22 56.643)"/>
                <path id="패스_3280" data-name="패스 3280" class="cls-8" d="m65.564 121.046.679 7.866s-4.811 3.453-13.179 2.2-9.917-1.918-9.917-1.918L43 119.29z" transform="translate(17.521 56.754)"/>
                <path id="패스_3281" data-name="패스 3281" class="cls-6" d="M57.127 133.422a25.278 25.278 0 0 1-3.807-.3c-8.176-1.21-10.05-1.948-10.33-2.081a1.549 1.549 0 0 1-.885-1.372l-.1-9.858a1.476 1.476 0 0 1 .472-1.151 1.594 1.594 0 0 1 1.181-.413l22.579 1.756a1.476 1.476 0 0 1 1.476 1.476l.679 7.866a1.476 1.476 0 0 1-.635 1.372 18.772 18.772 0 0 1-10.482 2.783m7.5-10.448-19.613-1.476.133 7.054c1.151.31 3.645.841 8.618 1.594a18.787 18.787 0 0 0 11.334-1.476z" transform="translate(17.045 56.258)"/>
                <path id="패스_3282" data-name="패스 3282" class="cls-9" d="M56.863 86s9.814.753 16.351 11.57c0 0 0 22.86-.782 31.316 0 0-.826 9.3-5.785 10.537 0 0-14.035 1.476-21.266-3.512s-8-14.33-.207-33.441C51.58 86.738 56.863 86 56.863 86" transform="translate(15.922 40.916)"/>
                <path id="패스_3283" data-name="패스 3283" class="cls-12" d="M107 29.262s7.231-19.185 33.456-15.555c24.011 3.35 24.453 36.894 16.233 49.763a38.37 38.37 0 0 1 .266 35.891c-9.8 19.775-39.624 22.136-49.113-2.361" transform="translate(47.97 6.304)"/>
                <path id="패스_3284" data-name="패스 3284" class="cls-13" d="M112.838 34.468s5-13.282 21.8-10.33c15.363 2.7 15.038 25.959 9.5 34.8a28.527 28.527 0 0 1-.487 24.926C137 97.439 117.8 98.62 112.13 81.412" transform="translate(50.411 11.28)"/>
                <path id="패스_3285" data-name="패스 3285" class="cls-12" d="M103.256 128.641c-44.981.546-59.68-18.462-63.945-32.039-3.188-10.139-.767-17.311-.767-17.311 0-60.314 38.886-69.951 61.613-69.951 21.133 0 59.178 9.637 59.178 69.361a58.778 58.778 0 0 1 .694 15.2c-.856 9.386-6.582 34.12-56.773 34.739" transform="translate(14.982 4.444)"/>
                <path id="패스_3286" data-name="패스 3286" class="cls-4" d="M85.328 74.25c9.356 0 13.031-3.778 13.282-4a1.3 1.3 0 0 0-1.889-1.8c-.118.118-7.246 7.025-27.8 0a1.316 1.316 0 1 0-.885 2.479 54.013 54.013 0 0 0 17.3 3.291" transform="translate(29.015 32.374)"/>
                <path id="패스_3287" data-name="패스 3287" d="M93.276 71.43a30.357 30.357 0 0 1-20.956.384s.531 11.806 11.526 11.614 9.43-12 9.43-12" transform="translate(31.471 33.984)" style="fill:#cf7575"/>
                <path id="패스_3288" data-name="패스 3288" class="cls-4" d="M94.1 72.258s1.476 11.806-9.43 12h-.354c-10.64 0-11.172-11.629-11.172-11.629A29.028 29.028 0 0 0 83 74.324a29.8 29.8 0 0 0 11.127-2.066M94.111 69.69a2.42 2.42 0 0 0-1.063.236A27.641 27.641 0 0 1 83 71.727a26.46 26.46 0 0 1-8.855-1.476 2.583 2.583 0 0 0-.841-.177h-.1a2.6 2.6 0 0 0-2.6 2.612 1.343 1.343 0 0 0 0 .251 18.742 18.742 0 0 0 1.859 6.73 12.588 12.588 0 0 0 11.909 7.261h.413a11.688 11.688 0 0 0 9.045-3.868c3.748-4.427 2.952-10.817 2.952-11.083a2.612 2.612 0 0 0-1.3-1.933A2.656 2.656 0 0 0 94.2 69.7" transform="translate(30.65 33.156)"/>
                <g id="그룹_672" data-name="그룹 672" transform="translate(103.791 105.414)" style="clip-path:url(#clip-path-2)">
                    <path id="패스_3289" data-name="패스 3289" class="cls-13" d="M92.815 77.481a17.975 17.975 0 0 0-9.327-2.022 21.192 21.192 0 0 0-9.829 2.583s2.376 5.224 9.622 5.062a10.33 10.33 0 0 0 9.533-5.623" transform="translate(-71.682 -69.526)"/>
                    <path id="패스_3290" data-name="패스 3290" class="cls-4" d="M83.416 84.863a11.231 11.231 0 0 1-10.478-5.9 1.328 1.328 0 0 1 .5-1.668 22.638 22.638 0 0 1 10.478-2.774 19.51 19.51 0 0 1 10.065 2.214 1.313 1.313 0 0 1 .517 1.623 11.57 11.57 0 0 1-10.7 6.42h-.384m8.03-6.378a18.684 18.684 0 0 0-7.379-1.284 21.207 21.207 0 0 0-7.984 1.784 9.091 9.091 0 0 0 7.719 3.248 9.386 9.386 0 0 0 7.718-3.748m1.844-.561z" transform="translate(-72.082 -69.973)"/>
                </g>
                <path id="패스_3291" data-name="패스 3291" class="cls-4" d="M62.775 59.308a6.4 6.4 0 1 0 6.243-7.157 6.744 6.744 0 0 0-6.243 7.157" transform="translate(26.923 24.811)"/>
                <path id="패스_3292" data-name="패스 3292" class="cls-4" d="M64.454 44.683a1.476 1.476 0 0 0 .841-.266 6.183 6.183 0 0 1 3.512-1.136 7.29 7.29 0 0 1 3.9.944A1.476 1.476 0 1 0 74 41.687a10.138 10.138 0 0 0-5.328-1.254 9.106 9.106 0 0 0-5.062 1.682 1.418 1.418 0 0 0 .841 2.568" transform="translate(27.059 19.232)"/>
                <path id="패스_3293" data-name="패스 3293" class="cls-16" d="M67.231 56.19a1.727 1.727 0 1 0 1.669-1.86 1.771 1.771 0 0 0-1.668 1.859" transform="translate(29.048 25.848)"/>
                <path id="패스_3294" data-name="패스 3294" class="cls-4" d="M92.89 59.826c0 4.6 3.143 8.294 6.892 8.235s6.759-3.852 6.7-8.456-3.143-8.294-6.892-8.235-6.759 3.881-6.7 8.456" transform="translate(41.257 24.44)"/>
                <path id="패스_3295" data-name="패스 3295" class="cls-4" d="M95.185 44.683a1.476 1.476 0 0 0 .841-.266 6.184 6.184 0 0 1 3.512-1.136 7.29 7.29 0 0 1 3.9.944 1.476 1.476 0 0 0 1.3-2.538 10.138 10.138 0 0 0-5.328-1.254 9.194 9.194 0 0 0-5.077 1.682 1.424 1.424 0 0 0 .856 2.568" transform="translate(41.677 19.232)"/>
                <path id="패스_3296" data-name="패스 3296" class="cls-16" d="M98 55.37a1.729 1.729 0 1 0 1.668-1.859A1.756 1.756 0 0 0 98 55.37" transform="translate(43.688 25.458)"/>
                <path id="패스_3297" data-name="패스 3297" class="cls-12" d="M65.205 30.492S57.974 11.307 31.75 14.937C7.739 18.273 7.311 51.772 15.561 64.7a38.37 38.37 0 0 0-.266 35.891c9.814 19.79 39.61 22.136 49.114-2.376" transform="translate(2.163 6.889)"/>
                <path id="패스_3298" data-name="패스 3298" class="cls-13" d="M52.444 35.221s-5-13.282-21.782-10.257c-15.377 2.7-15.053 25.959-9.548 34.8a28.512 28.512 0 0 0 .486 24.925c6.656 13.577 25.855 14.758 31.522-2.45" transform="translate(5.465 11.664)"/>
                <path id="패스_3299" data-name="패스 3299" class="cls-7" d="M87.392 68.622a5 5 0 0 0 2.1 4.339c4.56 2.952 14.256 7.29 28.2.738 1.579-.738 3.793-2.568 2.952-5.136s-3.66-1.24-7.054-1.387a28.7 28.7 0 0 1-10.921-2.3c-3.527-1.638-5.9-2.833-7.276-3.63a4.6 4.6 0 0 0-6.346 2.007c-.192.354-.4.738-.59 1.181a10.331 10.331 0 0 0-1.048 4.221" transform="translate(38.638 28.867)"/>
                <path id="패스_3300" data-name="패스 3300" class="cls-4" d="M102.455 79.154a32.733 32.733 0 0 0 15.953-3.35 7.143 7.143 0 0 0 3.689-3.763 5.4 5.4 0 0 0 0-3.512c-.989-2.952-3.453-2.73-5.637-2.524a16.971 16.971 0 0 1-2.627.118 27.434 27.434 0 0 1-10.493-2.184 86 86 0 0 1-8.117-4.206l-.339-.192a1.313 1.313 0 0 0-1.933 1.048 1.756 1.756 0 0 0 .708 1.859l.325.192a89.679 89.679 0 0 0 8.338 4.309 29.515 29.515 0 0 0 11.378 2.406 20.659 20.659 0 0 0 2.952-.118c2.184-.207 2.7-.118 2.952.487a1.476 1.476 0 0 1 0 .989 4.28 4.28 0 0 1-2.184 2.022c-13.607 6.39-23.848 1.653-28.5-1.476a1.225 1.225 0 0 0-1.8.561 1.815 1.815 0 0 0 .472 2.3 29.678 29.678 0 0 0 14.846 5.032" transform="translate(38.407 28.252)"/>
                <path id="패스_3301" data-name="패스 3301" class="cls-12" d="M91.329 51.8s16.042 26.372 35.418-1.579a2.1 2.1 0 0 1 2.819-.605l6.021 3.527c.944.576.944 1.7.9 2.8-.413 10.337-32.467 45.957-63.207 19.088" transform="translate(31.927 23.461)"/>
                <path id="패스_3302" data-name="패스 3302" class="cls-3" d="M93.285 56.65s-7.039.487-8.855 6.021" transform="translate(37.232 26.952)"/>
                <path id="패스_3303" data-name="패스 3303" class="cls-6" d="M84.921 64.624a1.476 1.476 0 0 0 1.479-1.033c1.476-4.427 7.379-4.973 7.5-4.988a1.479 1.479 0 0 0-.207-2.952c-.325 0-8.072.62-10.124 7.039a1.476 1.476 0 0 0 .959 1.859 1.284 1.284 0 0 0 .457 0" transform="translate(36.786 26.475)"/>
                <path id="패스_3304" data-name="패스 3304" class="cls-3" d="M97.435 58.55a10.463 10.463 0 0 0-5.756 6.892" transform="translate(40.682 27.856)"/>
                <path id="패스_3305" data-name="패스 3305" class="cls-6" d="M92.137 67.394a1.476 1.476 0 0 0 1.476-1.033 9.032 9.032 0 0 1 4.826-5.9 1.482 1.482 0 0 0-.959-2.8 11.806 11.806 0 0 0-6.685 7.836 1.315 1.315 0 0 0 1.4 1.874" transform="translate(40.224 27.394)"/>
                <path id="패스_3306" data-name="패스 3306" class="cls-3" d="M102.079 57.68a9.607 9.607 0 0 0-1.476 8.648" transform="translate(44.716 27.442)"/>
                <path id="패스_3307" data-name="패스 3307" class="cls-6" d="M101.069 68.3a1.476 1.476 0 0 0 1.476-1.992 8.058 8.058 0 0 1 1.225-7.231 1.481 1.481 0 1 0-2.317-1.845 11.039 11.039 0 0 0-1.7 10.094 1.476 1.476 0 0 0 1.387.974" transform="translate(44.264 26.962)"/>
                <path id="패스_3308" data-name="패스 3308" class="cls-12" d="M109.978 53.1s-3.114-7.836 2.952-9.7 6.139 5.9 6.139 5.9 9.342-8.4 12.957-1.741c3.94 7.216-3.394 14.61-12.987 12.087" transform="translate(49.007 20.513)"/>
                <path id="패스_3309" data-name="패스 3309" class="cls-7" d="M70.1 68.735a5.3 5.3 0 0 0 1.7 4.427c4.073 3.35 12.662 8.412 25.752 2.878a4.427 4.427 0 0 0 2.952-4.914c-.664-2.686-3.291-1.476-6.375-1.9a25.162 25.162 0 0 1-9.888-3.114c-3.143-1.9-5.18-3.261-6.449-4.176a3.985 3.985 0 0 0-5.9 1.476c-.207.339-.413.708-.62 1.136a11.186 11.186 0 0 0-1.172 4.128" transform="translate(30.402 29.108)"/>
                <path id="패스_3310" data-name="패스 3310" class="cls-4" d="M83.363 80.3a27.553 27.553 0 0 0 14.757-2.157c.782-.339 3.409-1.166 4.25-3.306a5.756 5.756 0 0 0 .266-3.5c-.753-2.952-3.7-3.158-5.711-3.114a16.632 16.632 0 0 1-2.405 0 23.981 23.981 0 0 1-9.489-2.952 78.211 78.211 0 0 1-7.216-4.8l-.3-.221a1.343 1.343 0 0 0-2.066.782 1.476 1.476 0 0 0 .576 1.638l.28.221A70.835 70.835 0 0 0 84 68.226a25.693 25.693 0 0 0 10.33 3.261 18.95 18.95 0 0 0 2.686.089c2.022 0 2.479 0 2.642.708a1.594 1.594 0 0 1 0 .989 4 4 0 0 1-2.1 1.859c-12.78 5.357-21.9-.148-25.988-3.63a1.077 1.077 0 0 0-1.682.413 1.963 1.963 0 0 0 .325 2.332A26.416 26.416 0 0 0 83.5 80.386" transform="translate(30.198 28.555)"/>
                <path id="패스_3311" data-name="패스 3311" d="M109.926 105.788c-.472 4.722-4.058 8.22-8.013 7.836s-6.789-4.545-6.316-9.268 4.058-8.235 8.013-7.836 6.789 4.545 6.316 9.268" transform="translate(42.52 45.906)" style="fill:#e9f2f4"/>
                <path id="패스_3312" data-name="패스 3312" class="cls-18" d="M101.884 108.175H96.94l2.14-9.415.531.118-.915 4.029h3.365a3.38 3.38 0 0 1 2.169.723 2.169 2.169 0 0 1 .664 1.609c0 1.919-1.948 2.789-2.952 2.952m-4.265-.561h4.223s2.568-.487 2.524-2.42a1.7 1.7 0 0 0-.5-1.225 2.8 2.8 0 0 0-1.786-.576H98.5z" transform="translate(43.184 46.987)"/>
                <path id="패스_3313" data-name="패스 3313" class="cls-18" d="M102.475 103.486H97.9v-.546h4.545a1.889 1.889 0 0 0 1.874-1.963 1.7 1.7 0 0 0-.517-1.3 2.273 2.273 0 0 0-1.476-.487H98.7v-.531h3.675a2.8 2.8 0 0 1 1.874.635 2.214 2.214 0 0 1 .694 1.682 2.361 2.361 0 0 1-2.405 2.509" transform="translate(43.641 46.938)"/>
                <path id="패스_3314" data-name="패스 3314" class="cls-18" d="m98.56 101.082 2.1-9.622h6.24v.546h-5.8l-1.859 8.515 6.08-.192.015.531z" transform="translate(43.955 55.821)"/>
                <path id="사각형_329" data-name="사각형 329" class="cls-18" transform="translate(143.917 151.325)" d="M0 0h5.8v.546H0z"/>
            </g>
            <path id="패스_3315" data-name="패스 3315" d="M100.084 126.211a.767.767 0 0 1-.546-.236.753.753 0 0 1-.546.236H29.247a.767.767 0 0 1-.767-.753v-4.545a.767.767 0 0 1 .767-.753h140.375a.753.753 0 0 1 .767.753v4.545a.753.753 0 0 1-.767.753z" transform="translate(12.561 57.168)" style="fill-rule:evenodd;fill:#c06f59"/>
            <path id="패스_3316" data-name="패스 3316" class="cls-6" d="M169.88 121.146v4.545h-69.567l-.546-.9-.546.9H29.476v-4.545h140.375m0-1.476H29.476A1.476 1.476 0 0 0 28 121.146v4.545a1.476 1.476 0 0 0 1.476 1.476h69.671a1.386 1.386 0 0 0 .546-.1 1.475 1.475 0 0 0 .546.1h69.641a1.476 1.476 0 0 0 1.476-1.476v-4.545a1.476 1.476 0 0 0-1.476-1.476" transform="translate(12.333 56.935)"/>
            <path id="패스_3317" data-name="패스 3317" class="cls-20" d="M75.293 124.52a.738.738 0 0 1-.753-.694.767.767 0 0 1 .635-.812c2.214-.354 54.4-8.855 66.247-8.855 1.815 0 4.339 5.091 6.124 9.371a.753.753 0 0 1-.694 1.048z" transform="translate(34.474 54.313)"/>
            <path id="패스_3318" data-name="패스 3318" class="cls-6" d="M141.676 115.106c1.682 0 5.431 8.855 5.431 8.855h-71.56s54.2-8.855 66.129-8.855m0-1.476c-11.909 0-64.152 8.574-66.41 8.943a1.558 1.558 0 0 0 .221 3.084h71.56a1.476 1.476 0 0 0 1.4-2.11c-4.132-9.843-6.095-9.843-6.833-9.843" transform="translate(34.22 54.061)"/>
            <path id="패스_3319" data-name="패스 3319" class="cls-20" d="M29.861 124.539a.767.767 0 0 1-.694-1.048c1.8-4.28 4.324-9.371 6.124-9.371 11.806 0 64.034 8.559 66.262 8.855a.753.753 0 0 1 .62.812.738.738 0 0 1-.753.694z" transform="translate(12.863 54.294)"/>
            <path id="패스_3320" data-name="패스 3320" class="cls-6" d="M35.543 115.115c11.924 0 66.129 8.855 66.129 8.855h-71.56s3.748-8.855 5.431-8.855m0-1.476c-.738 0-2.686 0-6.818 9.843a1.538 1.538 0 0 0 1.387 2.155h71.56a1.556 1.556 0 0 0 .207-3.084c-2.214-.369-54.471-8.943-66.41-8.943" transform="translate(12.612 54.052)"/>
            <path id="패스_3321" data-name="패스 3321" d="M134.641 114.615c-7.6 0-8.191-2.73-8.191-6.582s.635-7.733 8.191-7.733h61.982a1.7 1.7 0 0 1 1.682 1.476.8.8 0 0 1-.192.65.782.782 0 0 1-.62.3h-.193v9.563h.192a.782.782 0 0 1 .62.3.8.8 0 0 1 .192.649 1.7 1.7 0 0 1-1.682 1.476z" transform="translate(59.172 47.719)" style="fill:#ed7c68;fill-rule:evenodd"/>
            <path id="패스_3322" data-name="패스 3322" class="cls-6" d="M196.884 101.333a.871.871 0 0 1 .856.753h-1v11.186h1a.871.871 0 0 1-.856.753H134.9c-7.1 0-7.379-2.273-7.379-5.77s.28-6.921 7.379-6.921h61.982m0-1.623H134.9c-8.294 0-9 4.427-9 8.545s.679 7.379 9 7.379h61.982a2.494 2.494 0 0 0 2.465-2.125 1.594 1.594 0 0 0-.369-1.3 1.7 1.7 0 0 0-.62-.458v-8.176a1.7 1.7 0 0 0 .62-.457 1.608 1.608 0 0 0 .369-1.3 2.494 2.494 0 0 0-2.465-2.11" transform="translate(58.91 47.438)"/>
            <path id="패스_3323" data-name="패스 3323" d="M136.121 107.252c-8.191 0-8.191-4.59-8.191-9.445s0-11.157 8.191-11.157h62.056a1.845 1.845 0 0 1 1.668 1.845.753.753 0 0 1-.207.62.782.782 0 0 1-.59.28h-.177v15.112h.207a.782.782 0 0 1 .59.28.753.753 0 0 1 .207.62 1.845 1.845 0 0 1-1.668 1.845z" transform="translate(59.876 41.225)" style="fill:#cb7864;fill-rule:evenodd"/>
            <path id="패스_3324" data-name="패스 3324" class="cls-6" d="M198.438 87.719c.428 0 .8.487.871 1.122h-1.018v16.735h1.018c-.074.635-.443 1.122-.871 1.122h-62.056c-7.113 0-7.379-3.394-7.379-8.633s.266-10.33 7.379-10.33h62.056m0-1.623h-62.056c-9 0-9 7.5-9 11.968 0 4.811 0 10.33 9 10.33h62.056a2.627 2.627 0 0 0 2.479-2.568 1.623 1.623 0 0 0-.413-1.254 1.476 1.476 0 0 0-.59-.413v-13.8a1.683 1.683 0 0 0 .59-.428 1.623 1.623 0 0 0 .413-1.254 2.627 2.627 0 0 0-2.479-2.568" transform="translate(59.614 40.968)"/>
            <path id="패스_3325" data-name="패스 3325" class="cls-23" d="M136.707 129.167c-6.641 0-10.168-3.512-10.168-10.153a22.22 22.22 0 0 0-.221-2.671c-.266-1.948-.5-3.793.753-5.224s4.339-2.258 9.637-2.258H199a1.476 1.476 0 0 1 0 2.952h-12.043l-1.284 14.477h13.282a1.476 1.476 0 0 1 0 2.952z" transform="translate(59.009 51.792)"/>
            <path id="패스_3326" data-name="패스 3326" class="cls-6" d="M199.268 109.933a.649.649 0 1 1 0 1.284h-12.78l-1.476 16.1h14.212a.649.649 0 1 1 0 1.3h-62.248c-7.1 0-9.356-4.191-9.356-9.342s-3.527-9.342 9.356-9.342h62.292m0-1.623h-62.292c-5.623 0-8.692.753-10.257 2.538s-1.21 3.822-.945 5.9a18.447 18.447 0 0 1 .221 2.568c0 7.069 3.911 10.965 10.98 10.965h62.292a2.273 2.273 0 1 0 0-4.545h-12.439l1.136-12.854h11.3a2.273 2.273 0 1 0 0-4.531" transform="translate(58.74 51.53)"/>
            <path id="패스_3327" data-name="패스 3327" class="cls-20" d="M137.642 113.58c-6.966 0-7.512-2.45-7.512-5.9s.59-6.907 7.512-6.907h57.1a.812.812 0 0 1 .812.812v11.186a.812.812 0 0 1-.812.812z" transform="translate(60.923 47.943)"/>
            <path id="패스_3328" data-name="패스 3328" class="cls-6" d="M195 101.843v11.187h-57.1c-6.449 0-6.685-2.007-6.685-5.091s.236-6.095 6.685-6.095H195m0-1.623h-57.1c-8.309 0-8.309 5.018-8.309 7.718 0 4.427 1.313 6.715 8.309 6.715H195a1.623 1.623 0 0 0 1.623-1.623v-11.188A1.623 1.623 0 0 0 195 100.22" transform="translate(60.666 47.681)"/>
            <path id="패스_3329" data-name="패스 3329" class="cls-23" d="M136.906 107.252c-4.8 0-4.8-4.59-4.8-9.445s0-11.157 4.8-11.157h2.656a.812.812 0 0 1 0 1.623c-2.952 0-3.173 4.132-3.173 9.533s.28 7.822 3.173 7.822a.812.812 0 0 1 0 1.623z" transform="translate(61.865 41.225)"/>
            <path id="패스_3330" data-name="패스 3330" class="cls-6" d="M139.824 87.723c-3.837 0-3.985 5.106-3.985 10.33s.148 8.633 3.985 8.633h-2.656c-3.822 0-3.97-3.394-3.97-8.633s.148-10.33 3.97-10.33h2.656m0-1.623h-2.656c-5.608 0-5.608 6.921-5.608 11.968 0 4.811 0 10.33 5.608 10.33h2.656a1.623 1.623 0 1 0 0-3.247c-1.859 0-2.361-.871-2.361-7.01 0-5.652.369-8.722 2.361-8.722a1.623 1.623 0 1 0 0-3.247" transform="translate(61.603 40.963)"/>
            <path id="패스_3331" data-name="패스 3331" class="cls-23" d="M145.546 107.252c-4.8 0-4.8-4.59-4.8-9.445s0-11.157 4.8-11.157h2.642a.812.812 0 0 1 .812.812.8.8 0 0 1-.812.812c-2.952 0-3.173 4.132-3.173 9.533 0 5.9.443 7.822 3.173 7.822a.8.8 0 0 1 .812.812.812.812 0 0 1-.812.812z" transform="translate(65.975 41.225)"/>
            <path id="패스_3332" data-name="패스 3332" class="cls-6" d="M148.405 87.723c-3.837 0-3.985 5.106-3.985 10.33s.148 8.633 3.985 8.633h-2.6c-3.837 0-3.985-3.394-3.985-8.633s.148-10.33 3.985-10.33h2.642m0-1.623h-2.642c-5.608 0-5.608 6.921-5.608 11.968 0 4.811 0 10.33 5.608 10.33h2.642a1.623 1.623 0 0 0 0-3.247c-1.859 0-2.361-.871-2.361-7.01 0-5.652.384-8.722 2.361-8.722a1.623 1.623 0 1 0 0-3.247" transform="translate(65.714 40.963)"/>
            <path id="패스_3333" data-name="패스 3333" class="cls-20" d="M143.2 127.449c-7.2 0-7.792-4.575-7.792-8.855s.59-8.855 7.792-8.855h50.043a.812.812 0 0 1 .812.812v16.1a.812.812 0 0 1-.812.812z" transform="translate(63.435 52.21)"/>
            <path id="패스_3334" data-name="패스 3334" class="cls-6" d="M193.507 110.8v16.1h-50.043c-6.331 0-6.98-3.6-6.98-8.043s.649-8.058 6.98-8.058h50.043m0-1.623h-50.043c-8.6 0-8.6 6.3-8.6 9.681s0 9.666 8.6 9.666h50.043a1.623 1.623 0 0 0 1.623-1.623v-16.1a1.623 1.623 0 0 0-1.623-1.623" transform="translate(63.173 51.944)"/>
            <path id="패스_3335" data-name="패스 3335" class="cls-20" d="M152.767 105.409c-7.2 0-7.807-4.575-7.807-8.855s.605-8.855 7.807-8.855H190.1a.812.812 0 0 1 .812.812V104.6a.812.812 0 0 1-.812.812z" transform="translate(67.978 41.725)"/>
            <path id="패스_3336" data-name="패스 3336" class="cls-6" d="M190.365 88.763v16.1h-37.337c-6.331 0-7-3.6-7-8.043s.664-8.058 7-8.058h37.337m0-1.623h-37.337c-8.618 0-8.618 6.3-8.618 9.681s0 9.666 8.618 9.666h37.337a1.623 1.623 0 0 0 1.623-1.623v-16.1a1.623 1.623 0 0 0-1.623-1.623" transform="translate(67.717 41.458)"/>
            <path id="사각형_330" data-name="사각형 330" transform="translate(0 181.977)" style="fill:#d8a853" d="M0 0h279.318v10.876H0z"/>
            <path id="사각형_331" data-name="사각형 331" transform="translate(0 181.977)" style="stroke:#355e77;stroke-width:1.34px;stroke-linecap:round;stroke-linejoin:round;fill:none" d="M0 0h279.318v10.876H0z"/>
        </g>
    </g>
</svg>
