<svg xmlns="http://www.w3.org/2000/svg" width="116.472" height="175.66">
    <defs>
        <clipPath id="clip-path">
            <path id="패스_7812" data-name="패스 7812" d="M663.932-429.069s-.809 8.446 7.061 8.343 7.948-8.62 7.948-8.62a21.733 21.733 0 0 1-15.009.278" transform="translate(-663.908 429.347)" style="fill:none"/>
        </clipPath>
        <style>
            .cls-3{fill:#8cc7ea}.cls-4{fill:#36607b}.cls-5{fill:#ffbfc5}.cls-6{fill:#efbe31}.cls-8{fill:#335d76}.cls-10{fill:#fff}.cls-12{fill:#e1913f}.cls-13{fill:#f2c931}.cls-17{fill:#f7f8f8}.cls-19{fill:#df862c}
        </style>
    </defs>
    <g id="그룹_3582" data-name="그룹 3582">
        <g id="그룹_3512" data-name="그룹 3512" transform="translate(4.058 39.812)">
            <path id="패스_7750" data-name="패스 7750" d="M636.068-453.166s6.629 9.374 43.241 15.767 59.671 3.134 63.793 1.845c0 0-11.836-10.987-33.689-17.859s-57.964-7.426-73.344.247" transform="translate(-636.068 458.744)" style="fill:#dc772b"/>
        </g>
        <g id="그룹_3513" data-name="그룹 3513" transform="translate(79.811 52.699)">
            <path id="패스_7751" data-name="패스 7751" class="cls-3" d="M717.377-444.6a47.292 47.292 0 0 0-10.292-4.9c-1.171.364-2.339.724-3.512 1.092-5.581 1.75-11.185 3.383-16.861 4.638l.082 25.622c5.367 15.208 22.585 13.928 28.345 1.743a25.229 25.229 0 0 0 .026-22.2 19.692 19.692 0 0 0 2.212-5.989" transform="translate(-685.576 450.644)"/>
            <path id="패스_7752" data-name="패스 7752" class="cls-4" d="M701.371-405.485c-.267 0-.536-.006-.8-.021-6.545-.336-11.95-4.778-14.457-11.883a1.118 1.118 0 0 1-.065-.373l-.081-25.623a1.133 1.133 0 0 1 .89-1.113c6.187-1.368 12.21-3.184 16.767-4.612l3.513-1.093a1.133 1.133 0 0 1 .706.011 47.942 47.942 0 0 1 10.54 5.021 1.14 1.14 0 0 1 .5 1.195 21.886 21.886 0 0 1-2.03 5.778 26.408 26.408 0 0 1-.293 22.661 16.992 16.992 0 0 1-15.19 10.052zm-13.054-12.481c2.245 6.191 6.744 9.9 12.366 10.19a14.689 14.689 0 0 0 13.817-8.734 24.334 24.334 0 0 0 .065-21.153 1.142 1.142 0 0 1 .015-1.152 17.688 17.688 0 0 0 1.9-4.867 46.011 46.011 0 0 0-9.024-4.239l-3.152.981c-4.382 1.374-10.11 3.1-16.061 4.461z" transform="translate(-685.964 450.256)"/>
        </g>
        <g id="그룹_3514" data-name="그룹 3514" transform="translate(85.669 53.836)">
            <path id="패스_7753" data-name="패스 7753" class="cls-5" d="M710.488-447.494a51.308 51.308 0 0 0-5.018-2.013q-1.754.544-3.507 1.092c-3.884 1.218-7.778 2.378-11.7 3.393l-.442 19.983c3.185 10.647 14.274 10.046 18.19 1.687a18.763 18.763 0 0 0 .4-15.41 18.847 18.847 0 0 0 2.074-8.731" transform="translate(-689.822 449.507)"/>
        </g>
        <g id="그룹_3515" data-name="그룹 3515" transform="translate(39.864 90.622)">
            <path id="패스_7754" data-name="패스 7754" class="cls-6" d="m706-364.25-35.534-.575a10.263 10.263 0 0 1-10.064-10.4l.638-39.241a10.261 10.261 0 0 1 10.4-10.064l35.532.577a10.261 10.261 0 0 1 10.064 10.4l-.636 39.241A10.261 10.261 0 0 1 706-364.25" transform="translate(-659.264 425.666)"/>
            <path id="패스_7755" data-name="패스 7755" d="M706.556-362.724h-.187l-35.534-.575a11.287 11.287 0 0 1-7.975-3.468 11.289 11.289 0 0 1-3.206-8.083l.636-39.243a11.386 11.386 0 0 1 11.551-11.18l35.532.577a11.381 11.381 0 0 1 11.183 11.549l-.638 39.243a11.381 11.381 0 0 1-11.362 11.18zm-.15-2.274a9.158 9.158 0 0 0 9.24-8.945l.638-39.242a9.1 9.1 0 0 0-8.947-9.24L671.8-423a9.159 9.159 0 0 0-9.24 8.945l-.638 39.242a9.028 9.028 0 0 0 2.569 6.465 9.024 9.024 0 0 0 6.378 2.777z" transform="translate(-659.652 425.278)" style="fill:#355e78"/>
        </g>
        <g id="그룹_3516" data-name="그룹 3516" transform="translate(86.284 143.991)">
            <path id="패스_7756" data-name="패스 7756" class="cls-3" d="M690.722-386.974a11.429 11.429 0 0 0 11.125 4.046s4.1 5.865 9.629 3.7 6.542-6.166 6.542-6.166c-11.365-8.182-15.871 1.634-15.871 1.634-6.885-.849-9.46-5.658-9.46-5.658z" transform="translate(-689.971 390.49)"/>
            <path id="패스_7757" data-name="패스 7757" class="cls-4" d="M709.282-377.791c-3.8 0-6.609-3.106-7.426-4.117-7.089 1.274-11.312-4.289-11.355-4.347l-.275-.367 2.812-3.5.428.788a11.966 11.966 0 0 0 8.6 5.294 9.579 9.579 0 0 1 5.683-4.556c3.2-.846 6.852.2 10.87 3.088l.328.235-.1.393c-.046.175-1.154 4.321-6.9 6.572a7.263 7.263 0 0 1-2.665.517zm-6.586-4.971c.656.867 4.2 5.154 8.819 3.343 4.233-1.659 5.658-4.382 6.053-5.381-3.566-2.478-6.761-3.37-9.5-2.652a8.6 8.6 0 0 0-5.124 4.3l-.182.393zm-10.951-3.852a10.7 10.7 0 0 0 9.384 3.614 13.214 13.214 0 0 1-8.236-5.042z" transform="translate(-690.227 390.125)"/>
        </g>
        <g id="그룹_3517" data-name="그룹 3517" transform="translate(84.904 142.94)">
            <path id="패스_7758" data-name="패스 7758" class="cls-8" d="M693.414-388.7s2.575 4.81 9.458 5.657c0 0 2.285-4.975 7.7-4.887 2.191.035 4.9.9 8.169 3.257 0 0-1.014 4-6.542 6.164a6.71 6.71 0 0 1-2.577.48c-4.178-.067-7.052-4.178-7.052-4.178a11.338 11.338 0 0 1-2.537.251 11.661 11.661 0 0 1-8.589-4.3l1.964-2.446m.036-2.121a2.136 2.136 0 0 0-1.7.786l-1.963 2.446a2.131 2.131 0 0 0-.05 2.605A13.809 13.809 0 0 0 700-379.822a13.518 13.518 0 0 0 1.708-.085c1.348 1.477 4.157 3.952 7.882 4.013a8.88 8.88 0 0 0 3.387-.625c6.474-2.538 7.778-7.42 7.831-7.628a2.13 2.13 0 0 0-.821-2.252c-3.305-2.381-6.46-3.61-9.38-3.659a10.447 10.447 0 0 0-8.806 4.673 10.094 10.094 0 0 1-6.521-4.334 2.151 2.151 0 0 0-1.688-1.09 1.194 1.194 0 0 0-.146-.008" transform="translate(-689.318 390.817)"/>
        </g>
        <g id="그룹_3518" data-name="그룹 3518" transform="translate(98.275 145.712)">
            <path id="패스_7759" data-name="패스 7759" d="M698.125-382.992s3.87 5.756 9.4 3.589 6.668-6.213 6.668-6.213c-11.365-8.183-15.541 1.081-15.541 1.081z" transform="translate(-698.125 388.992)" style="fill:#9ee630"/>
        </g>
        <g id="그룹_3519" data-name="그룹 3519" transform="translate(96.143 143.58)">
            <path id="패스_7760" data-name="패스 7760" class="cls-8" d="M706.55-388.263c2.2.036 4.96.92 8.368 3.375 0 0-1.14 4.045-6.668 6.213a6.79 6.79 0 0 1-2.6.486c-4.105-.065-6.8-4.073-6.8-4.073l.527-1.544a7.989 7.989 0 0 1 7.171-4.456m.035-2.132a10.1 10.1 0 0 0-9.149 5.712 3.075 3.075 0 0 0-.076.188l-.525 1.544a2.137 2.137 0 0 0 .249 1.877c.137.2 3.376 4.933 8.534 5.016a8.9 8.9 0 0 0 3.411-.633c6.439-2.525 7.883-7.412 7.94-7.618a2.131 2.131 0 0 0-.8-2.309c-3.414-2.458-6.638-3.729-9.58-3.776" transform="translate(-696.721 390.396)"/>
        </g>
        <g id="그룹_3520" data-name="그룹 3520" transform="translate(96.366 149.529)">
            <path id="패스_7761" data-name="패스 7761" class="cls-8" d="M701.4-382.988c-1.919-.03-3.566-.345-4.224-1.017a1.064 1.064 0 0 1 .017-1.508 1.066 1.066 0 0 1 1.485 0c.872.58 7.11.651 9.7-.82a1.063 1.063 0 0 1 1.451.4 1.063 1.063 0 0 1-.4 1.453c-1.685.96-5.161 1.544-8.027 1.5" transform="translate(-696.868 386.477)"/>
        </g>
        <g id="그룹_3521" data-name="그룹 3521" transform="translate(25.33 101.114)">
            <path id="패스_7762" data-name="패스 7762" class="cls-3" d="M655.321-416.638c-2.185 9.58-8.876 42.972.018 64.468a4.489 4.489 0 0 0 2.163 2.323c2.244 1.1 6.987 2.382 15.281.261a4.609 4.609 0 0 0 3.4-3.814l.38-2.627c.372-2.579 2.828-5.681 5.394-5.227.036.008.073.012.111.02a4.625 4.625 0 0 1 3.72 3.507l1.468 7.769a4.582 4.582 0 0 0 2.922 3.3 30.237 30.237 0 0 0 9.126 1.3c5.948.137 9.63-1.2 11.595-2.258a4.351 4.351 0 0 0 2.255-2.976c3.486-18.484-1.02-40.919-5.707-67.028" transform="translate(-649.681 418.755)"/>
            <path id="패스_7763" data-name="패스 7763" class="cls-4" d="M700.537-343.821q-.421 0-.858-.009a31.847 31.847 0 0 1-9.479-1.37 5.684 5.684 0 0 1-3.653-4.113l-1.479-7.816a3.467 3.467 0 0 0-2.8-2.6 2.539 2.539 0 0 0-1.933.515 6.037 6.037 0 0 0-2.255 3.735l-.38 2.627a5.724 5.724 0 0 1-4.246 4.754c-8.337 2.13-13.335.99-16.06-.342a5.624 5.624 0 0 1-2.718-2.91c-8.686-21-2.945-52.559-.074-65.156a1.131 1.131 0 0 1 1.36-.855 1.138 1.138 0 0 1 .856 1.36c-2.2 9.663-8.713 42.817-.041 63.782a3.346 3.346 0 0 0 1.614 1.735c1.949.953 6.427 2.245 14.5.182a3.459 3.459 0 0 0 2.56-2.875l.38-2.627a8.362 8.362 0 0 1 3.172-5.252 4.625 4.625 0 0 1 3.547-.932 5.788 5.788 0 0 1 4.75 4.388l1.479 7.816a3.4 3.4 0 0 0 2.182 2.437 29.076 29.076 0 0 0 8.775 1.24c5.631.123 9.1-1.084 11.03-2.121a3.241 3.241 0 0 0 1.678-2.188c3.228-17.127-.51-37.823-4.839-61.787l-.87-4.829a1.137 1.137 0 0 1 .917-1.319 1.132 1.132 0 0 1 1.319.919l.871 4.826c4.368 24.185 8.141 45.073 4.834 62.612a5.455 5.455 0 0 1-2.833 3.768c-2.066 1.116-5.675 2.405-11.306 2.405z" transform="translate(-650.079 418.367)"/>
        </g>
        <g id="그룹_3522" data-name="그룹 3522" transform="translate(32.435 164.376)">
            <path id="패스_7764" data-name="패스 7764" class="cls-10" d="M654.759-372.029s0-4.744 3.307-4.669 3.708 6.759 3.708 6.759a11.147 11.147 0 0 1-4.066-.7 8.442 8.442 0 0 1-2.948-1.391" transform="translate(-654.759 376.699)"/>
        </g>
        <g id="그룹_3523" data-name="그룹 3523" transform="translate(31.369 163.31)">
            <path id="패스_7765" data-name="패스 7765" class="cls-8" d="M661.754-368.5a13.3 13.3 0 0 1-4.031-.764 8.978 8.978 0 0 1-3.37-1.662 1.065 1.065 0 0 1-.3-.736c0-.313.046-3.1 1.669-4.688a3.67 3.67 0 0 1 2.728-1.046c4.169.1 4.7 6.978 4.747 7.763a1.069 1.069 0 0 1-.982 1.127c-.023 0-.185.012-.465.008m-5.531-3.7a13.727 13.727 0 0 0 2.192.925 12.33 12.33 0 0 0 2.523.588c-.305-1.96-1.1-4.543-2.534-4.576h-.015a1.543 1.543 0 0 0-1.172.437 4.584 4.584 0 0 0-.994 2.627" transform="translate(-654.057 377.401)"/>
        </g>
        <g id="그룹_3524" data-name="그룹 3524" transform="translate(25.408 102.011)">
            <path id="패스_7766" data-name="패스 7766" class="cls-10" d="M655.682-416.8s-8.189 27.242-4.676 51.129c0 0 35.488 4.878 64.98.556 0 0 .855-15.853-5.338-30.238l-2.836-22.426z" transform="translate(-650.13 417.776)"/>
        </g>
        <g id="그룹_3525" data-name="그룹 3525" transform="translate(24.281 100.875)">
            <path id="패스_7767" data-name="패스 7767" d="M688.815-361.814a312.569 312.569 0 0 1-37.579-2.34 1.138 1.138 0 0 1-.97-.961c-3.509-23.862 4.63-51.348 4.713-51.621a1.135 1.135 0 0 1 1.067-.809l52.13-.979a1.118 1.118 0 0 1 1.149.994l2.815 22.266c6.159 14.422 5.4 29.945 5.365 30.6a1.138 1.138 0 0 1-.97 1.063 194.872 194.872 0 0 1-27.72 1.787zm-36.421-4.486c5.5.688 36.582 4.245 62.868.583.059-3.569-.106-16.795-5.274-28.8a1.175 1.175 0 0 1-.083-.307l-2.705-21.408-50.267.943c-1.273 4.579-7.355 28.089-4.539 48.989z" transform="translate(-649.388 418.524)" style="fill:#35607a"/>
        </g>
        <g id="그룹_3526" data-name="그룹 3526" transform="translate(42.027 164.469)">
            <path id="패스_7768" data-name="패스 7768" class="cls-10" d="M661.08-370a22.371 22.371 0 0 0 7.127-1.158s-.427-5.8-4.333-5.466c-3.02.263-2.794 6.624-2.794 6.624" transform="translate(-661.076 376.637)"/>
        </g>
        <g id="그룹_3527" data-name="그룹 3527" transform="translate(40.959 163.404)">
            <path id="패스_7769" data-name="패스 7769" class="cls-8" d="M661.511-368.568h-.1a1.069 1.069 0 0 1-1.028-1.028c-.027-.755-.15-7.385 3.765-7.723a4.152 4.152 0 0 1 3.123.973c2.034 1.734 2.338 5.1 2.365 5.476a1.066 1.066 0 0 1-.723 1.089 23.509 23.509 0 0 1-7.4 1.215m3.087-6.638a2.293 2.293 0 0 0-.267.009c-1.237.106-1.711 2.643-1.808 4.473a22.361 22.361 0 0 0 4.867-.817 5.88 5.88 0 0 0-1.506-3.187 1.969 1.969 0 0 0-1.286-.478" transform="translate(-660.373 377.339)"/>
        </g>
        <g id="그룹_3528" data-name="그룹 3528" transform="translate(65.223 167.054)">
            <path id="패스_7770" data-name="패스 7770" class="cls-10" d="M676.355-369.454s.381-5.555 3.689-5.479 3.73 7.035 3.73 7.035a22.315 22.315 0 0 1-4.515-.436 12.723 12.723 0 0 1-2.9-1.12" transform="translate(-676.355 374.935)"/>
        </g>
        <g id="그룹_3529" data-name="그룹 3529" transform="translate(64.157 165.988)">
            <path id="패스_7771" data-name="패스 7771" class="cls-8" d="M683.636-366.469a24.278 24.278 0 0 1-4.221-.456 13.747 13.747 0 0 1-3.2-1.227 1.063 1.063 0 0 1-.557-1.013c.167-2.434 1.356-6.527 4.749-6.472h.029c4.168.1 4.719 7.224 4.769 8.037a1.068 1.068 0 0 1-.278.782 1.064 1.064 0 0 1-.755.346c-.024 0-.216.006-.534 0m-5.763-3.241a9.6 9.6 0 0 0 1.957.7 22.611 22.611 0 0 0 3.12.387c-.3-2.063-1.113-4.845-2.566-4.877h-.011c-1.668-.027-2.292 2.528-2.5 3.794" transform="translate(-675.653 375.636)"/>
        </g>
        <g id="그룹_3530" data-name="그룹 3530" transform="translate(75.887 167.527)">
            <path id="패스_7772" data-name="패스 7772" class="cls-10" d="M683.382-367.814a29.6 29.6 0 0 0 7.231-1.02s-.495-6.114-4.4-5.775c-3.02.261-2.832 6.8-2.832 6.8" transform="translate(-683.379 374.623)"/>
        </g>
        <g id="그룹_3531" data-name="그룹 3531" transform="translate(74.819 166.462)">
            <path id="패스_7773" data-name="패스 7773" class="cls-8" d="M683.73-366.385a1.069 1.069 0 0 1-1.049-1.034c-.023-.773-.1-7.55 3.8-7.889a4.1 4.1 0 0 1 3.059.958c2.115 1.789 2.464 5.388 2.5 5.794a1.066 1.066 0 0 1-.788 1.116 30.589 30.589 0 0 1-7.52 1.055zm3.2-6.809c-.083 0-.168 0-.256.011-1.24.106-1.731 2.739-1.837 4.631a30.417 30.417 0 0 0 4.954-.718 6.4 6.4 0 0 0-1.62-3.452 1.9 1.9 0 0 0-1.24-.471" transform="translate(-682.676 375.324)"/>
        </g>
        <g id="그룹_3532" data-name="그룹 3532" transform="translate(27.794 100.857)">
            <path id="패스_7774" data-name="패스 7774" class="cls-6" d="m654.417-417.623 13.165-.164s-4.485 5.959-4.568 21.112l-9.615-.22s-2.692-7.433 1.019-20.728" transform="translate(-651.312 418.924)"/>
            <path id="패스_7775" data-name="패스 7775" class="cls-4" d="M663.4-395.151h-.026l-9.615-.219a1.136 1.136 0 0 1-1.043-.75c-.115-.317-2.772-7.931.993-21.421a1.135 1.135 0 0 1 1.081-.832l13.163-.164a1.241 1.241 0 0 1 1.029.624 1.134 1.134 0 0 1-.106 1.2c-.04.053-4.26 5.939-4.339 20.435a1.137 1.137 0 0 1-.345.809 1.135 1.135 0 0 1-.792.318zm-8.75-2.473 7.629.175c.206-10.13 2.364-16.052 3.71-18.788l-10.313.129c-2.621 9.95-1.53 16.401-1.023 18.484z" transform="translate(-651.702 418.536)"/>
        </g>
        <g id="그룹_3533" data-name="그룹 3533" transform="translate(66.009 100.88)">
            <path id="패스_7776" data-name="패스 7776" class="cls-6" d="m679.589-417.609 13.163-.164s-4.485 5.959-4.568 21.112l-9.615-.22s-2.692-7.435 1.02-20.728" transform="translate(-676.483 418.909)"/>
            <path id="패스_7777" data-name="패스 7777" class="cls-4" d="M688.574-395.137h-.026l-9.615-.22a1.136 1.136 0 0 1-1.043-.748c-.115-.317-2.772-7.931.994-21.421a1.135 1.135 0 0 1 1.081-.832l13.161-.162a1.152 1.152 0 0 1 1.029.622 1.137 1.137 0 0 1-.106 1.2c-.039.053-4.259 5.939-4.339 20.435a1.136 1.136 0 0 1-.345.809 1.135 1.135 0 0 1-.791.317zm-8.75-2.473 7.629.175c.207-10.13 2.364-16.052 3.711-18.788l-10.313.129c-2.625 9.95-1.534 16.4-1.027 18.483z" transform="translate(-676.873 418.521)"/>
        </g>
        <g id="그룹_3534" data-name="그룹 3534" transform="translate(66.606 100.491)">
            <path id="패스_7778" data-name="패스 7778" class="cls-3" d="M696.474-403.883s-4.441-5.907-7.447-2.9 4.21 6.919 4.21 6.919-8.627-9.387-14.428 1.41c-5.522 10.275 19.676 30.091 28.609 15.355s-14.756-34.925-14.756-34.925a18.582 18.582 0 0 0-3.744 10.461" transform="translate(-676.872 419.166)"/>
            <path id="패스_7779" data-name="패스 7779" class="cls-4" d="M698.664-376.3a20.333 20.333 0 0 1-9.8-2.9c-7.761-4.433-14.047-13.113-10.666-19.4 1.855-3.455 4.215-5.385 7.011-5.737a7.732 7.732 0 0 1 2.38.082l-.007-.046a3.216 3.216 0 0 1 .66-2.472 1.118 1.118 0 0 1-.071-.44 19.634 19.634 0 0 1 4.011-11.153 1.134 1.134 0 0 1 .776-.4 1.1 1.1 0 0 1 .832.267c1 .85 24.316 20.994 14.989 36.381a11.31 11.31 0 0 1-10.115 5.818zm-12.531-25.822a5.123 5.123 0 0 0-.644.041c-2.021.258-3.8 1.79-5.283 4.556-2.607 4.852 3.067 12.513 9.791 16.354 2.71 1.547 11.935 5.97 16.843-2.127 7.354-12.131-9.392-28.758-13.6-32.64a18.041 18.041 0 0 0-2.711 7.652 3.85 3.85 0 0 1 1.133-.085c3.033.214 5.806 3.789 6.112 4.2a1.137 1.137 0 0 1-.226 1.591 1.136 1.136 0 0 1-1.591-.223c-.618-.817-2.763-3.178-4.458-3.3a1.579 1.579 0 0 0-1.278.516 1.051 1.051 0 0 0-.387.958 3.2 3.2 0 0 0 .873 1.514 15.716 15.716 0 0 1 3.758 2.874 1.138 1.138 0 0 1 .059 1.468 1.136 1.136 0 0 1-1.438.3 17.254 17.254 0 0 1-3.77-2.8 7.187 7.187 0 0 0-3.184-.854z" transform="translate(-677.266 418.777)"/>
        </g>
        <g id="그룹_3535" data-name="그룹 3535" transform="translate(11.715 101.02)">
            <path id="패스_7780" data-name="패스 7780" class="cls-3" d="M649.442-402.157s4.707-5.7 7.571-2.56-4.52 6.721-4.52 6.721 13.767-11.352 17.815-.413-18.494 30.073-26.744 14.944 16.336-34.214 16.336-34.214-2.962 9.465-1.461 15.565" transform="translate(-640.717 418.817)"/>
            <path id="패스_7781" data-name="패스 7781" class="cls-4" d="M652.759-376.343c-4.113 0-7.579-2.119-9.8-6.19-8.613-15.8 15.6-34.854 16.638-35.657a1.137 1.137 0 0 1 1.345-.036 1.139 1.139 0 0 1 .437 1.274c-.027.087-2.56 8.3-1.63 14.025a11.35 11.35 0 0 1 6.84-.72c2.39.645 4.133 2.4 5.179 5.232 2.642 7.139-4.638 16.918-12.662 20.567a15.41 15.41 0 0 1-6.347 1.505zm5.534-37.745c-5.994 5.414-19.42 19.309-13.336 30.468 3.692 6.768 9.861 5.224 13.209 3.7 6.987-3.178 13.662-11.786 11.472-17.709-.786-2.125-1.977-3.377-3.638-3.826-2.706-.732-6.138.732-8.7 2.218a17.225 17.225 0 0 1-3.912 2.648 1.134 1.134 0 0 1-1.453-.408 1.137 1.137 0 0 1 .232-1.491 31.5 31.5 0 0 1 3.756-2.578 3.28 3.28 0 0 0 .991-1.523 1.049 1.049 0 0 0-.343-.976 1.507 1.507 0 0 0-1.253-.572c-1.7.041-3.949 2.3-4.6 3.091a1.14 1.14 0 0 1-1.6.15 1.136 1.136 0 0 1-.152-1.6c.323-.393 3.257-3.84 6.3-3.915a3.658 3.658 0 0 1 2.016.515 40.669 40.669 0 0 1 1.011-8.191z" transform="translate(-641.111 418.428)"/>
        </g>
        <g id="그룹_3536" data-name="그룹 3536" transform="translate(12.864 100.383)">
            <path id="패스_7782" data-name="패스 7782" class="cls-10" d="M655.2-392.414c-3.386-1.667-7.248-6.878-11.27-7.884a1.714 1.714 0 0 1-1-2.649c2.071-2.961 2.419-4.58 6.211-8.807a32.122 32.122 0 0 1 7.735-6.052 1.713 1.713 0 0 1 1.429-.228l1.5.428a1.716 1.716 0 0 1 1.225 1.91l-3.378 22a1.712 1.712 0 0 1-2.449 1.28" transform="translate(-641.481 419.236)"/>
            <path id="패스_7783" data-name="패스 7783" class="cls-4" d="M656.343-390.708a2.852 2.852 0 0 1-1.259-.3 23.933 23.933 0 0 1-4.725-3.551c-2.088-1.834-4.246-3.732-6.319-4.25a2.866 2.866 0 0 1-1.992-1.775 2.846 2.846 0 0 1 .334-2.628c.657-.94 1.125-1.725 1.621-2.555a35.274 35.274 0 0 1 4.676-6.361 29.7 29.7 0 0 1 7.114-5.716c.333-.2.615-.374.832-.519a2.839 2.839 0 0 1 2.376-.376l1.5.427a2.859 2.859 0 0 1 2.036 3.176l-3.377 22a2.834 2.834 0 0 1-1.5 2.1 2.842 2.842 0 0 1-1.317.328zm1.877-25.867a.591.591 0 0 0-.323.1c-.238.163-.55.352-.918.577a27.73 27.73 0 0 0-6.606 5.292 32.984 32.984 0 0 0-4.415 6.009c-.495.829-1.006 1.685-1.709 2.692a.556.556 0 0 0-.07.528.589.589 0 0 0 .414.366c2.607.653 4.977 2.734 7.268 4.747a22.565 22.565 0 0 0 4.23 3.219.564.564 0 0 0 .518-.006.571.571 0 0 0 .305-.428l3.378-22a.58.58 0 0 0-.415-.644l-1.5-.427a.527.527 0 0 0-.158-.025z" transform="translate(-641.868 418.848)"/>
        </g>
        <g id="그룹_3537" data-name="그룹 3537" transform="translate(14.426 114.28)">
            <path id="패스_7784" data-name="패스 7784" class="cls-3" d="M643.646-396.638s1.363-6 4.166-9.217c1.409-1.62 4.005-4.682 6.537-2.084 2.592 2.661-2.775 5.419-2.775 5.419s11.611-9.519 16.549-2.658c6.3 8.748-3.434 16.776-6.871 19.049" transform="translate(-642.509 410.083)"/>
            <path id="패스_7785" data-name="패스 7785" class="cls-4" d="M661.639-384.605a1.14 1.14 0 0 1-.949-.51 1.137 1.137 0 0 1 .322-1.576c1.207-.8 7.278-5.059 8.3-10.6a8.707 8.707 0 0 0-1.72-6.832 4.547 4.547 0 0 0-3.247-1.962c-3.131-.417-6.982 1.649-9.381 3.208a11.569 11.569 0 0 1-2.476 1.758 1.138 1.138 0 0 1-1.471-.389 1.134 1.134 0 0 1 .231-1.5c.1-.083.973-.792 2.309-1.67a2.482 2.482 0 0 0 .744-1.2.972.972 0 0 0-.374-.881 1.75 1.75 0 0 0-1.324-.662c-1.225.035-2.64 1.664-3.486 2.637-2.634 3.026-3.957 8.73-3.97 8.786a1.138 1.138 0 0 1-1.36.856 1.137 1.137 0 0 1-.856-1.36c.058-.255 1.461-6.314 4.417-9.711 1.143-1.318 2.968-3.418 5.191-3.481a3.976 3.976 0 0 1 3.018 1.348 3.41 3.41 0 0 1 1 1.918c2.453-1.242 5.4-2.267 8.083-1.916a6.8 6.8 0 0 1 4.8 2.889 10.893 10.893 0 0 1 2.109 8.57c-1.183 6.451-7.934 11.2-9.276 12.09a1.136 1.136 0 0 1-.634.19z" transform="translate(-642.897 409.695)"/>
        </g>
        <g id="그룹_3538" data-name="그룹 3538" transform="translate(77.483 100.987)">
            <path id="패스_7786" data-name="패스 7786" class="cls-10" d="M694.106-402.151s4.224-4.913 8.69-1.966c0 0-5.185-9.888-14.031-13.585 0 0-3.979 1.722-3.554 9.967 0 0 3.433-.841 8.895 5.584z" transform="translate(-684.042 418.839)"/>
            <path id="패스_7787" data-name="패스 7787" class="cls-4" d="M694.494-400.627h-.006a1.14 1.14 0 0 1-.861-.4c-4.8-5.649-7.761-5.212-7.795-5.207a1.175 1.175 0 0 1-.923-.228 1.146 1.146 0 0 1-.446-.826c-.46-8.932 4.046-10.986 4.237-11.069a1.138 1.138 0 0 1 .89-.006c9.122 3.811 14.381 13.688 14.6 14.106a1.136 1.136 0 0 1-.245 1.371 1.136 1.136 0 0 1-1.388.106c-3.565-2.349-7.058 1.591-7.205 1.761a1.143 1.143 0 0 1-.858.392zm-7.792-7.849c1.552.2 4.3 1.192 7.843 5.054a8.834 8.834 0 0 1 6.02-2.367c-2.053-2.992-5.985-7.814-11.323-10.245-.783.609-2.561 2.54-2.542 7.557z" transform="translate(-684.43 418.451)"/>
        </g>
        <g id="그룹_3539" data-name="그룹 3539" transform="translate(50.009 123.121)">
            <path id="패스_7788" data-name="패스 7788" class="cls-12" d="M666.915-403.787a1.375 1.375 0 0 1-.044.445c-.03.169-.045.339-.076.506-.053.295-.531.169-.452-.131a3.816 3.816 0 0 1 .168-.48 1.072 1.072 0 0 1 .211-.393.117.117 0 0 1 .193.053" transform="translate(-666.334 403.871)"/>
        </g>
        <g id="그룹_3540" data-name="그룹 3540" transform="translate(50.057 123.972)">
            <path id="패스_7789" data-name="패스 7789" class="cls-12" d="M666.9-402.554a.908.908 0 0 1-.269-.169 1.377 1.377 0 0 1-.237-.295.2.2 0 0 1 .073-.269.2.2 0 0 1 .269.074 1.089 1.089 0 0 1 .216.619c0 .024-.027.049-.052.038" transform="translate(-666.366 403.311)"/>
        </g>
        <g id="그룹_3541" data-name="그룹 3541" transform="translate(49.632 123.912)">
            <path id="패스_7790" data-name="패스 7790" class="cls-12" d="M666.1-402.912a3.549 3.549 0 0 1 .417-.408c.176-.118.348.143.214.285a.835.835 0 0 1-.293.166.848.848 0 0 1-.3.046.052.052 0 0 1-.035-.088" transform="translate(-666.086 403.351)"/>
        </g>
        <g id="그룹_3542" data-name="그룹 3542" transform="translate(53.999 123.133)">
            <path id="패스_7791" data-name="패스 7791" class="cls-12" d="M669.016-403.857a.719.719 0 0 1 .439.128 5.073 5.073 0 0 1 .525.255.215.215 0 0 1-.222.369 4.725 4.725 0 0 1-.475-.339c-.118-.087-.279-.175-.319-.323a.074.074 0 0 1 .052-.09" transform="translate(-668.962 403.864)"/>
        </g>
        <g id="그룹_3543" data-name="그룹 3543" transform="translate(54.805 123.558)">
            <path id="패스_7792" data-name="패스 7792" class="cls-12" d="M670.187-403.425c-.033.068-.112.1-.176.135s-.1.1-.178.143a.229.229 0 0 1-.333-.14.234.234 0 0 1 .223-.284c.071-.008.129.015.206 0a.351.351 0 0 1 .223 0 .1.1 0 0 1 .033.138" transform="translate(-669.493 403.584)"/>
        </g>
        <g id="그룹_3544" data-name="그룹 3544" transform="translate(54.748 123.562)">
            <path id="패스_7793" data-name="패스 7793" class="cls-12" d="M669.672-402.782a1.642 1.642 0 0 1-.117-.264 1.164 1.164 0 0 1-.1-.311c-.024-.267.4-.305.463-.056a.859.859 0 0 1-.011.346 1.045 1.045 0 0 1-.073.288c-.03.068-.129.052-.164 0" transform="translate(-669.455 403.581)"/>
        </g>
        <g id="그룹_3545" data-name="그룹 3545" transform="translate(47.394 114.769)">
            <path id="패스_7794" data-name="패스 7794" class="cls-13" d="M666.48-400.792a3.559 3.559 0 0 1-1.406-4.928 6.317 6.317 0 0 1 .428-.739 6.471 6.471 0 0 1 3.3-2.546 7.34 7.34 0 0 1 .7-.217 3.474 3.474 0 0 1 1.992-.006 3.84 3.84 0 0 1 2.118 2.022c.77 1.649.941 4.357-.412 5.8a3.073 3.073 0 0 1-1.371.831 4.269 4.269 0 0 1-.542.126 86.277 86.277 0 0 1-1.489.059 10.623 10.623 0 0 1-2.7-.206 3.551 3.551 0 0 1-.621-.193" transform="translate(-664.612 409.372)"/>
        </g>
        <g id="그룹_3546" data-name="그룹 3546" transform="translate(51.972 115.803)">
            <path id="패스_7795" data-name="패스 7795" class="cls-10" d="M668.763-408.656a1.448 1.448 0 0 1 .77.035 2.105 2.105 0 0 1 1.363 1.568 1.366 1.366 0 0 1-.823 1.527c-1.051.3-2.619-.764-2.431-1.945a1.453 1.453 0 0 1 1.12-1.186" transform="translate(-667.627 408.692)"/>
        </g>
        <g id="그룹_3547" data-name="그룹 3547" transform="translate(53.442 116.297)">
            <path id="패스_7796" data-name="패스 7796" d="M669.894-408.126a1.128 1.128 0 0 1 .421.794.668.668 0 0 1-.512.679.837.837 0 0 1-.55-.147 1.809 1.809 0 0 1-.5-.463c-.279-.381-.2-1.055.364-1.1a1.1 1.1 0 0 1 .779.237" transform="translate(-668.595 408.366)"/>
        </g>
        <g id="그룹_3548" data-name="그룹 3548" transform="translate(55.694 116.471)">
            <path id="패스_7797" data-name="패스 7797" d="M671.03-407.741a.133.133 0 0 1-.033.074 1.179 1.179 0 0 1-.487.386c-.1.042-.24.062-.3-.029a.261.261 0 0 1-.032-.074c-.056-.19-.219-.809.07-.865.172-.035.8.34.785.509" transform="translate(-670.078 408.252)" style="fill:#d0372e"/>
        </g>
        <g id="그룹_3549" data-name="그룹 3549" transform="translate(48.389 119.267)">
            <path id="패스_7798" data-name="패스 7798" class="cls-12" d="M666.989-406.337a2.1 2.1 0 0 0-1.277.052.667.667 0 0 0-.445.563.593.593 0 0 0 .427.507 1.757 1.757 0 0 0 .7.039 1.753 1.753 0 0 0-.831.39c-.15.129-.287.329-.208.51a.481.481 0 0 0 .408.228 2.133 2.133 0 0 0 .826-.05c-.258.144-.551.346-.544.642a.536.536 0 0 0 .475.465 1.179 1.179 0 0 0 .692-.156 3 3 0 0 0 1.658-2.018c.068-.749-1.341-1.057-1.884-1.172" transform="translate(-665.267 406.41)"/>
        </g>
        <g id="그룹_3550" data-name="그룹 3550" transform="translate(52.54 113.729)">
            <path id="패스_7799" data-name="패스 7799" class="cls-13" d="M669.755-409.617a.252.252 0 0 0 .056-.09c.029-.1-.08-.194-.185-.2a.438.438 0 0 0-.383.208 1.055 1.055 0 0 0-.14.43.916.916 0 0 0-.525-.727.552.552 0 0 0-.329-.05.312.312 0 0 0-.24.214.434.434 0 0 0 .023.228c.1.333.329.875.751.847s.735-.583.972-.856" transform="translate(-668.001 410.057)"/>
        </g>
        <g id="그룹_3551" data-name="그룹 3551" transform="translate(46.05 119.192)">
            <path id="패스_7800" data-name="패스 7800" class="cls-13" d="M665.47-405.452a2.226 2.226 0 0 1-1.421-.131l.449-.748a1.175 1.175 0 0 1 .118.156.445.445 0 0 1-.612.6 1.106 1.106 0 0 1-.152-.123.449.449 0 0 1-.029-.594.46.46 0 0 1 .583-.108 6.989 6.989 0 0 1 1.125.516.241.241 0 0 1-.062.434" transform="translate(-663.726 406.46)"/>
        </g>
        <g id="그룹_3552" data-name="그룹 3552" transform="translate(46.154 120.028)">
            <path id="패스_7801" data-name="패스 7801" class="cls-13" d="M665.356-405.558a1.016 1.016 0 0 1-.369.4 1.846 1.846 0 0 1-.243.141c-.071.035-.278.2-.14.014l.049-.336v.011a.438.438 0 0 1-.2.477h-.008a.442.442 0 0 1-.638-.27c-.08-.421.244-.568.575-.686a1.263 1.263 0 0 1 .856-.053.206.206 0 0 1 .117.3" transform="translate(-663.795 405.909)"/>
        </g>
        <g id="그룹_3553" data-name="그룹 3553" transform="translate(.61 34.634)">
            <path id="패스_7802" data-name="패스 7802" class="cls-3" d="M663.967-450.66s-2.853-11.675-16.171-10.687c-12.2.9-13.77 20.678-10.158 28.687a26.164 26.164 0 0 0-1.59 21.206c4.125 12.135 19 14.85 24.764.789" transform="translate(-633.405 462.543)"/>
            <path id="패스_7803" data-name="패스 7803" class="cls-4" d="M649.2-399.668h-.383c-5.956-.184-11.236-4.512-13.45-11.027a27.432 27.432 0 0 1 1.4-21.648c-2.359-5.9-2.245-16.685 1.764-23.426 2.282-3.838 5.593-6.023 9.577-6.317 14.12-1.06 17.329 11.425 17.359 11.551a1.134 1.134 0 0 1-.832 1.371 1.14 1.14 0 0 1-1.375-.829c-.109-.439-2.822-10.723-14.983-9.826-3.257.241-5.879 1.995-7.792 5.212-3.671 6.173-3.774 16.638-1.413 21.873a1.143 1.143 0 0 1-.074 1.072 25.286 25.286 0 0 0-1.476 20.236c1.907 5.608 6.367 9.331 11.367 9.486 4.826.125 8.923-3.044 11.268-8.763a1.135 1.135 0 0 1 1.483-.619 1.138 1.138 0 0 1 .621 1.483c-2.631 6.394-7.493 10.171-13.061 10.171z" transform="translate(-633.797 462.155)"/>
        </g>
        <g id="그룹_3554" data-name="그룹 3554" transform="translate(8.064 45.001)">
            <path id="패스_7804" data-name="패스 7804" class="cls-5" d="M657.26-448.207s-1.974-8.033-10.526-7.034c-7.831.917-8.607 14.674-6.188 20.145a19.522 19.522 0 0 0-.768 14.753c2.8 8.323 12.392 9.855 15.932-.036" transform="translate(-638.707 455.327)"/>
        </g>
        <g id="그룹_3555" data-name="그룹 3555" transform="translate(11.711 17.809)">
            <path id="패스_7805" data-name="패스 7805" class="cls-3" d="M681.858-384.754c32.182 1.319 43.1-11.988 46.436-21.62 2.491-7.19.9-12.37.9-12.37 1.242-43.175-26.4-53.259-42.665-53.728-15.125-.436-42.557 8.065-43.787 50.806a41.878 41.878 0 0 0-.808 10.867c.445 6.738 4.008 24.574 39.925 26.045" transform="translate(-640.72 473.625)"/>
            <path id="패스_7806" data-name="패스 7806" class="cls-4" d="M686.618-383.138c-1.427 0-2.9-.03-4.417-.093-34.219-1.4-40.385-17.584-41.015-27.106A42.9 42.9 0 0 1 642-421.42c.571-19.119 6.32-33.358 17.089-42.327a42.444 42.444 0 0 1 27.864-9.475c7.558.219 45.153 3.879 43.773 54.726a22.968 22.968 0 0 1-.966 12.882c-2.97 8.561-12.517 22.474-43.142 22.476zm-.656-87.823c-8.569 0-40.356 3.162-41.7 49.716a1.108 1.108 0 0 1-.029.223 41.2 41.2 0 0 0-.782 10.535c1.35 20.411 24.914 24.414 38.839 24.985 32.695 1.33 42.416-12.492 45.314-20.856 2.344-6.762.9-11.616.887-11.664a1.157 1.157 0 0 1-.05-.366c1.406-48.844-34.374-52.353-41.561-52.559-.264-.01-.572-.014-.918-.014z" transform="translate(-641.109 473.237)"/>
        </g>
        <g id="그룹_3556" data-name="그룹 3556" transform="translate(43.969 80.701)">
            <path id="패스_7807" data-name="패스 7807" class="cls-8" d="M672.217-427.2c-6.7.244-9.424-2.355-9.586-2.516a.935.935 0 0 1 0-1.322.936.936 0 0 1 1.316-.009c.088.083 5.372 4.836 19.893-.7a.936.936 0 0 1 1.207.542.935.935 0 0 1-.547 1.205 38.78 38.78 0 0 1-12.287 2.8" transform="translate(-662.356 431.812)"/>
        </g>
        <g id="그룹_3557" data-name="그룹 3557" transform="translate(46.325 84.445)">
            <path id="패스_7808" data-name="패스 7808" d="M663.931-429.07a21.743 21.743 0 0 0 15.011-.276s-.079 8.517-7.948 8.62-7.063-8.344-7.063-8.344" transform="translate(-663.908 429.346)" style="fill:#cf7575"/>
        </g>
        <g id="그룹_3558" data-name="그룹 3558" transform="translate(44.457 82.575)">
            <path id="패스_7809" data-name="패스 7809" class="cls-8" d="M664.568-428.431a21.3 21.3 0 0 0 8.013 1.19 20.656 20.656 0 0 0 7-1.467s-.077 8.337-7.7 8.613l-.25.008c-7.87.1-7.063-8.344-7.063-8.344M664.5-430.3a1.866 1.866 0 0 0-.906.272 1.864 1.864 0 0 0-.888 1.416c-.02.2-.425 4.807 2.378 7.851a8.364 8.364 0 0 0 6.569 2.54l.293-.006a9.023 9.023 0 0 0 8.338-5.5 13.544 13.544 0 0 0 1.16-4.864v-.187a1.868 1.868 0 0 0-1.927-1.8h-.077a1.856 1.856 0 0 0-.6.146 18.88 18.88 0 0 1-6.329 1.319 19.716 19.716 0 0 1-7.248-1.058 1.857 1.857 0 0 0-.762-.131" transform="translate(-662.677 430.578)"/>
        </g>
        <g id="그룹_3562" data-name="그룹 3562" transform="translate(46.326 84.444)">
            <g id="그룹_3561" data-name="그룹 3561" style="clip-path:url(#clip-path)">
                <g id="그룹_3559" data-name="그룹 3559" transform="translate(.099 4.277)">
                    <path id="패스_7810" data-name="패스 7810" class="cls-5" d="M663.974-424.839a13.007 13.007 0 0 1 6.63-1.69 15.243 15.243 0 0 1 7.1 1.594s-1.573 3.808-6.764 3.875a7.415 7.415 0 0 1-6.967-3.779" transform="translate(-663.974 426.53)"/>
                </g>
                <g id="그룹_3560" data-name="그룹 3560" transform="translate(-.835 3.342)">
                    <path id="패스_7811" data-name="패스 7811" class="cls-8" d="M671.544-419.812c-.088 0-.179.006-.272.006a8.305 8.305 0 0 1-7.828-4.321.937.937 0 0 1 .33-1.171 13.9 13.9 0 0 1 7.139-1.848 16.107 16.107 0 0 1 7.573 1.717.935.935 0 0 1 .4 1.171 8.025 8.025 0 0 1-7.345 4.445m-5.918-4.353a6.715 6.715 0 0 0 5.622 2.488 6.54 6.54 0 0 0 5.443-2.525 15.085 15.085 0 0 0-5.756-1.073 13.415 13.415 0 0 0-5.309 1.11m-1.333-.355z" transform="translate(-663.358 427.146)"/>
                </g>
            </g>
        </g>
        <g id="그룹_3563" data-name="그룹 3563" transform="translate(62.62 65.68)">
            <path id="패스_7813" data-name="패스 7813" class="cls-8" d="M684.422-436.02a5.189 5.189 0 0 1-5.116 5.247 5.222 5.222 0 0 1-4.659-5.683 5.187 5.187 0 0 1 5.116-5.245 5.22 5.22 0 0 1 4.659 5.681" transform="translate(-674.64 441.706)"/>
        </g>
        <g id="그룹_3564" data-name="그룹 3564" transform="translate(63.842 53.657)">
            <path id="패스_7814" data-name="패스 7814" class="cls-8" d="M682.8-446.472a1.028 1.028 0 0 1-.6-.216 4.535 4.535 0 0 0-2.491-.885 5.187 5.187 0 0 0-2.81.6 1.019 1.019 0 0 1-1.357-.481 1.018 1.018 0 0 1 .481-1.359 7.215 7.215 0 0 1 3.837-.786 6.517 6.517 0 0 1 3.594 1.309 1.018 1.018 0 0 1 .176 1.43 1.016 1.016 0 0 1-.833.393" transform="translate(-675.445 449.625)"/>
        </g>
        <g id="그룹_3565" data-name="그룹 3565" transform="translate(64.74 68.109)">
            <path id="패스_7815" data-name="패스 7815" class="cls-17" d="M678.689-438.646a1.347 1.347 0 0 1-1.409 1.289 1.358 1.358 0 0 1-1.24-1.457 1.349 1.349 0 0 1 1.409-1.289 1.356 1.356 0 0 1 1.24 1.457" transform="translate(-676.037 440.106)"/>
        </g>
        <g id="그룹_3566" data-name="그룹 3566" transform="translate(30.902 63.005)">
            <path id="패스_7816" data-name="패스 7816" class="cls-8" d="M662.819-437.7c-.126 3.07-2.258 5.467-4.76 5.353s-4.43-2.7-4.3-5.769 2.258-5.467 4.76-5.352 4.43 2.7 4.3 5.768" transform="translate(-653.749 443.468)"/>
        </g>
        <g id="그룹_3567" data-name="그룹 3567" transform="translate(31.37 52.724)">
            <path id="패스_7817" data-name="패스 7817" class="cls-8" d="M661.411-447.088a1.007 1.007 0 0 1-.6-.216 4.523 4.523 0 0 0-2.491-.884 5.189 5.189 0 0 0-2.81.594 1.018 1.018 0 0 1-1.357-.481 1.018 1.018 0 0 1 .481-1.359 7.23 7.23 0 0 1 3.836-.785 6.518 6.518 0 0 1 3.594 1.309 1.019 1.019 0 0 1 .176 1.43 1.015 1.015 0 0 1-.834.392" transform="translate(-654.057 450.24)"/>
        </g>
        <g id="그룹_3568" data-name="그룹 3568" transform="translate(32.734 65.067)">
            <path id="패스_7818" data-name="패스 7818" class="cls-17" d="M657.258-440.841a1.169 1.169 0 0 1-1.222 1.117 1.177 1.177 0 0 1-1.078-1.265 1.17 1.17 0 0 1 1.224-1.119 1.178 1.178 0 0 1 1.076 1.266" transform="translate(-654.956 442.11)"/>
        </g>
        <g id="그룹_3569" data-name="그룹 3569" transform="translate(17.23 62.815)">
            <path id="패스_7819" data-name="패스 7819" class="cls-3" d="M673.184-440.662s-10.284 15.862-21.625-1.593a1.282 1.282 0 0 0-1.722-.417l-3.745 2.051c-.584.337-.606 1.02-.6 1.7.071 6.361 19.1 28.7 38.358 12.789" transform="translate(-644.356 443.981)"/>
            <path id="패스_7820" data-name="패스 7820" class="cls-4" d="M669.965-418.983a23.276 23.276 0 0 1-9.782-2.267c-9.214-4.275-15.393-13.225-15.437-17.268a2.782 2.782 0 0 1 1.166-2.7l3.767-2.063a2.425 2.425 0 0 1 3.22.8c3.308 5.089 6.776 7.672 10.306 7.675h.006c5.381 0 9.369-6.021 9.408-6.082a1.141 1.141 0 0 1 1.573-.334 1.137 1.137 0 0 1 .336 1.571c-.188.29-4.69 7.116-11.312 7.117-4.351 0-8.461-2.93-12.217-8.708a.148.148 0 0 0-.2-.05l-3.762 2.062c-.014.074-.009.54-.008.692.033 3 5.558 11.258 14.121 15.232 5.368 2.491 13.608 3.94 22.374-3.307a1.14 1.14 0 0 1 1.6.152 1.14 1.14 0 0 1-.152 1.6c-5.316 4.381-10.46 5.877-15.007 5.878z" transform="translate(-644.744 443.593)"/>
        </g>
        <g id="그룹_3570" data-name="그룹 3570" transform="translate(41.405 70.561)">
            <path id="패스_7821" data-name="패스 7821" class="cls-3" d="M660.706-438.1s4.3.422 5.286 3.837" transform="translate(-660.647 438.693)"/>
            <path id="패스_7822" data-name="패스 7822" class="cls-4" d="M665.44-433.9c-.859-2.979-4.734-3.405-4.773-3.408l.117-1.186c.191.02 4.716.5 5.8 4.263z" transform="translate(-660.667 438.491)"/>
        </g>
        <g id="그룹_3571" data-name="그룹 3571" transform="translate(40.556 70.246)">
            <path id="패스_7823" data-name="패스 7823" class="cls-4" d="M666.275-433.045a.909.909 0 0 1-.846-.657c-.8-2.771-4.468-3.181-4.5-3.184a.911.911 0 0 1-.812-1 .908.908 0 0 1 .991-.812c.2.02 4.928.525 6.071 4.488a.909.909 0 0 1-.621 1.125.929.929 0 0 1-.279.036" transform="translate(-660.108 438.699)"/>
        </g>
        <g id="그룹_3572" data-name="그룹 3572" transform="translate(36.548 72.181)">
            <path id="패스_7824" data-name="패스 7824" class="cls-3" d="M657.608-437.057a6.376 6.376 0 0 1 3.4 4.318" transform="translate(-657.396 437.614)"/>
            <path id="패스_7825" data-name="패스 7825" class="cls-4" d="M660.509-432.384a5.78 5.78 0 0 0-3.041-3.928l.421-1.113a6.927 6.927 0 0 1 3.764 4.71z" transform="translate(-657.468 437.424)"/>
        </g>
        <g id="그룹_3573" data-name="그룹 3573" transform="translate(35.856 71.829)">
            <path id="패스_7826" data-name="패스 7826" class="cls-4" d="M661.29-431.521a.909.909 0 0 1-.846-.656 5.5 5.5 0 0 0-2.854-3.723.912.912 0 0 1-.518-1.172.907.907 0 0 1 1.163-.527 7.266 7.266 0 0 1 3.955 4.916.908.908 0 0 1-.621 1.125.889.889 0 0 1-.279.036" transform="translate(-657.012 437.656)"/>
        </g>
        <g id="그룹_3574" data-name="그룹 3574" transform="translate(30.994 71.434)">
            <path id="패스_7827" data-name="패스 7827" class="cls-3" d="M654.123-437.68a5.885 5.885 0 0 1 .744 5.326" transform="translate(-653.648 438.038)"/>
            <path id="패스_7828" data-name="패스 7828" class="cls-4" d="m655.583-432.012-1.107-.437a5.285 5.285 0 0 0-.667-4.751l.95-.717a6.451 6.451 0 0 1 .824 5.905z" transform="translate(-653.81 437.916)"/>
        </g>
        <g id="그룹_3575" data-name="그룹 3575" transform="translate(30.563 70.885)">
            <path id="패스_7829" data-name="패스 7829" class="cls-4" d="M655.151-431.135a.916.916 0 0 1-.307-.064.909.909 0 0 1-.512-1.18 4.925 4.925 0 0 0-.629-4.448.912.912 0 0 1 .185-1.271.91.91 0 0 1 1.269.181 6.774 6.774 0 0 1 .864 6.208.912.912 0 0 1-.871.574" transform="translate(-653.526 438.278)"/>
        </g>
        <g id="그룹_3576" data-name="그룹 3576" transform="translate(8.976 57.208)">
            <path id="패스_7830" data-name="패스 7830" class="cls-3" d="M654.156-440.343s2.042-4.746-1.6-5.989-3.862 3.544-3.862 3.544-5.567-5.309-7.9-1.3c-2.531 4.35 1.82 9 7.737 7.631" transform="translate(-638.919 447.674)"/>
            <path id="패스_7831" data-name="패스 7831" class="cls-4" d="M646.857-434.691a7.8 7.8 0 0 1-6.387-2.948 5.886 5.886 0 0 1-.275-6.629 3.893 3.893 0 0 1 2.859-2.025c1.9-.269 3.937.855 5.289 1.825a4.419 4.419 0 0 1 1.594-2.253 3.638 3.638 0 0 1 3.37-.3 4.128 4.128 0 0 1 2.537 2.236c.994 2.238-.126 4.974-.257 5.277a1.136 1.136 0 0 1-1.492.6 1.137 1.137 0 0 1-.6-1.492 5.177 5.177 0 0 0 .267-3.463 1.846 1.846 0 0 0-1.192-1c-.876-.3-1.236-.055-1.354.024a3.766 3.766 0 0 0-1.005 2.5 1.136 1.136 0 0 1-.715 1 1.138 1.138 0 0 1-1.2-.229c-.753-.715-3.281-2.7-4.925-2.464a1.606 1.606 0 0 0-1.212.917 3.628 3.628 0 0 0 .14 4.136c1.259 1.707 3.756 2.417 6.358 1.814a1.134 1.134 0 0 1 1.363.852 1.135 1.135 0 0 1-.85 1.363 10.27 10.27 0 0 1-2.313.259z" transform="translate(-639.307 447.286)"/>
        </g>
        <g id="그룹_3577" data-name="그룹 3577">
            <path id="패스_7832" data-name="패스 7832" d="M746.829-421.673a1.379 1.379 0 0 1-.791-.246c-3.316-2.282-18.815-9.238-50.309-13.957a217.271 217.271 0 0 0-31.949-2.182 258.943 258.943 0 0 0-28.07 1.456 1.292 1.292 0 0 1-.17.012 1.4 1.4 0 0 1-1.155-.616 1.394 1.394 0 0 1-.064-1.454c4.48-8.085 15.978-15.478 18.559-17.069 1.8-6.835 9.513-28.488 38.93-28.488 2.022 0 4.137.093 6.288.273 15.868 1.342 35.516 11.5 39.245 40.91 2.634 2.954 8.684 12.679 10.819 19.555a1.394 1.394 0 0 1-.505 1.535 1.394 1.394 0 0 1-.826.272" transform="translate(-633.006 485.355)" style="fill:#ebb430"/>
            <path id="패스_7833" data-name="패스 7833" class="cls-4" d="M747.216-420.148a2.512 2.512 0 0 1-1.435-.448c-3.255-2.239-18.556-9.083-49.833-13.767a216.213 216.213 0 0 0-31.781-2.17 259.518 259.518 0 0 0-27.931 1.447 2.56 2.56 0 0 1-2.408-1.1 2.518 2.518 0 0 1-.115-2.64c4.369-7.884 14.866-14.929 18.572-17.247 2.49-9.043 11.233-28.9 39.911-28.9 2.05 0 4.2.094 6.384.278 8.265.7 35.525 5.762 40.233 41.557 2.743 3.238 8.649 12.706 10.82 19.7a2.534 2.534 0 0 1-.917 2.787 2.513 2.513 0 0 1-1.5.503zm-83.048-18.657a218.5 218.5 0 0 1 32.118 2.192c31.7 4.749 47.41 11.821 50.785 14.145a.223.223 0 0 0 .3 0 .259.259 0 0 0 .093-.282c-2.112-6.8-8.136-16.391-10.582-19.136a1.134 1.134 0 0 1-.279-.613c-1.1-8.7-7.119-37.292-38.212-39.919a73.3 73.3 0 0 0-6.193-.272c-27.569 0-35.64 19.332-37.831 27.642a1.133 1.133 0 0 1-.5.677c-2.265 1.4-13.787 8.762-18.161 16.652a.256.256 0 0 0 .012.269.255.255 0 0 0 .213.115 262.436 262.436 0 0 1 28.237-1.471z" transform="translate(-633.395 484.967)"/>
        </g>
        <g id="그룹_3578" data-name="그룹 3578" transform="translate(33.164 4.609)">
            <path id="패스_7834" data-name="패스 7834" class="cls-19" d="M656.659-463.377a1.411 1.411 0 0 1-.659-.164 1.418 1.418 0 0 1-.6-1.916c.289-.551 7.236-13.544 20.924-16.442a1.416 1.416 0 0 1 1.684 1.1 1.419 1.419 0 0 1-1.095 1.682c-12.358 2.617-18.932 14.86-19 14.985a1.423 1.423 0 0 1-1.254.755z" transform="translate(-655.239 481.931)"/>
        </g>
        <g id="그룹_3579" data-name="그룹 3579" transform="translate(59.96 5.396)">
            <path id="패스_7835" data-name="패스 7835" class="cls-19" d="M674.31-460.979h-.082a1.421 1.421 0 0 1-1.338-1.5c.026-.448.648-11.033 2.655-17.911a1.417 1.417 0 0 1 1.761-.966 1.42 1.42 0 0 1 .966 1.761c-1.917 6.571-2.54 17.17-2.546 17.276a1.418 1.418 0 0 1-1.416 1.34z" transform="translate(-672.889 481.413)"/>
        </g>
        <g id="그룹_3580" data-name="그룹 3580" transform="translate(76.72 9.121)">
            <path id="패스_7836" data-name="패스 7836" class="cls-19" d="M698.3-454.072h-.046a1.42 1.42 0 0 1-1.374-1.465c.334-10.468-12.293-20.8-12.421-20.9a1.422 1.422 0 0 1-.214-2 1.422 1.422 0 0 1 2-.213c.565.456 13.855 11.312 13.476 23.2a1.42 1.42 0 0 1-1.421 1.378z" transform="translate(-683.928 478.96)"/>
        </g>
        <g id="그룹_3581" data-name="그룹 3581" transform="translate(20.886 28.438)">
            <path id="패스_7837" data-name="패스 7837" class="cls-19" d="M727.566-449.865a1.89 1.89 0 0 1-1.034-.307c-.111-.073-11.845-7.471-40.025-10.676-27.815-3.166-36.832-.638-36.919-.612a1.9 1.9 0 0 1-2.355-1.268 1.891 1.891 0 0 1 1.248-2.356c.378-.115 9.566-2.815 38.453.472 29.211 3.322 41.171 10.943 41.666 11.267a1.894 1.894 0 0 1 .553 2.62 1.892 1.892 0 0 1-1.587.86z" transform="translate(-647.152 466.236)"/>
        </g>
    </g>
</svg>
