<svg id="그룹_3400" data-name="그룹 3400" xmlns="http://www.w3.org/2000/svg" width="166.118" height="183.849">
    <defs>
        <clipPath id="clip-path">
            <path id="사각형_1602" data-name="사각형 1602" class="cls-1" d="M.138 0H7.05a.138.138 0 0 1 .138.138v8.838a.139.139 0 0 1-.139.139H.139A.139.139 0 0 1 0 8.976V.138A.138.138 0 0 1 .138 0z"/>
        </clipPath>
        <clipPath id="clip-path-2">
            <path id="패스_7532" data-name="패스 7532" class="cls-1" d="M494.988-227.76c.463.011.486-.49.486-.49a1.284 1.284 0 0 1-.884-.017s-.065.5.4.507" transform="translate(-494.587 228.267)"/>
        </clipPath>
        <clipPath id="clip-path-4">
            <path id="패스_7587" data-name="패스 7587" class="cls-1" d="M499.28-256.3c9.159.214 9.61-9.689 9.61-9.689a25.3 25.3 0 0 1-17.47-.314s-1.3 9.789 7.86 10" transform="translate(-491.357 266.299)"/>
        </clipPath>
        <style>
            .cls-1{fill:none}.cls-2{fill:#393a3a}.cls-3{fill:#36607b}.cls-4{fill:#8cc7ea}.cls-5{fill:#335d76}.cls-6{fill:#9ee630}.cls-7{fill:#fff}.cls-9{clip-path:url(#clip-path)}.cls-10{fill:#ffbfc5}.cls-11{fill:#cf7575}.cls-13{fill:#f7f8f8}.cls-15{fill:#f2ebdd}
        </style>
    </defs>
    <g id="그룹_3093" data-name="그룹 3093" transform="translate(23.053 129.62)">
        <g id="그룹_3091" data-name="그룹 3091" transform="translate(1.1 1.1)">
            <path id="패스_7466" data-name="패스 7466" class="cls-2" d="m484.6-231.233-21.413 4.048s-2.683-.147-2.408 9.466 4.665 19.23 4.665 19.23-.275 3.542 7.412 2.025 19.766-4.3 19.766-4.3z" transform="translate(-460.755 231.233)"/>
        </g>
        <g id="그룹_3092" data-name="그룹 3092">
            <path id="패스_7467" data-name="패스 7467" class="cls-3" d="M469.868-194.614a6 6 0 0 1-4.083-1.2 3.1 3.1 0 0 1-1.06-2.045c-.651-1.477-4.417-10.379-4.675-19.454-.147-5.145.515-8.472 1.966-9.885a2.325 2.325 0 0 1 1.407-.706l21.342-4.035a1.1 1.1 0 0 1 1.268.8l8.024 30.466a1.1 1.1 0 0 1-.121.849 1.1 1.1 0 0 1-.7.5c-.121.027-12.185 2.8-19.8 4.307a18.65 18.65 0 0 1-3.568.403zm-2.956-3.414a.957.957 0 0 0 .38.61c.41.334 1.79 1.026 5.724.25 6.231-1.231 15.466-3.319 18.626-4.04l-7.473-28.379-20.4 3.859c-.032 0-.062.009-.094.012-.181.117-1.621 1.284-1.42 8.341.264 9.27 4.523 18.711 4.567 18.8a1.108 1.108 0 0 1 .1.542zm-3.4-27.682zm0 0zm0 0zm0 0z" transform="translate(-460.031 231.958)"/>
        </g>
    </g>
    <g id="그룹_3096" data-name="그룹 3096" transform="translate(108.924 157.165)">
        <g id="그룹_3094" data-name="그룹 3094" transform="translate(.752 1.072)">
            <path id="패스_7468" data-name="패스 7468" class="cls-4" d="M517.086-210.645a11.31 11.31 0 0 0 11.1 3.752s4.19 5.71 9.61 3.44 6.331-6.246 6.331-6.246c-11.429-7.839-15.665 1.974-15.665 1.974-6.831-.685-9.487-5.384-9.487-5.384z" transform="translate(-517.086 213.109)"/>
        </g>
        <g id="그룹_3095" data-name="그룹 3095">
            <path id="패스_7469" data-name="패스 7469" class="cls-3" d="M535.493-201.962c-3.677 0-6.463-2.935-7.284-3.906-6.981 1.423-11.293-3.988-11.335-4.046l-.282-.361 2.712-3.539.445.777a11.837 11.837 0 0 0 8.62 5.037 9.49 9.49 0 0 1 5.52-4.635c3.146-.909 6.789.038 10.83 2.809l.334.229-.091.395c-.039.175-1.044 4.3-6.682 6.663a7.179 7.179 0 0 1-2.787.577zm-6.459-4.769c.691.867 4.278 4.98 8.786 3.1 4.142-1.734 5.491-4.453 5.862-5.453-3.58-2.367-6.759-3.176-9.449-2.4a8.513 8.513 0 0 0-4.971 4.371l-.173.4zm-10.925-3.569a10.593 10.593 0 0 0 9.322 3.364 13.1 13.1 0 0 1-8.229-4.792z" transform="translate(-516.591 213.815)"/>
        </g>
    </g>
    <g id="그룹_3098" data-name="그룹 3098" transform="translate(107.765 156.327)">
        <g id="그룹_3097" data-name="그룹 3097">
            <path id="패스_7470" data-name="패스 7470" class="cls-5" d="M519.625-212.457s2.657 4.7 9.487 5.382c0 0 2.162-5.01 7.568-5.009 2.159 0 4.835.8 8.1 3.036 0 0-.911 3.978-6.333 6.246a6.609 6.609 0 0 1-2.579.533c-4.113 0-7.029-3.973-7.029-3.973a11.259 11.259 0 0 1-2.575.305 11.548 11.548 0 0 1-8.523-4.057l1.887-2.464m0-1.91a1.913 1.913 0 0 0-1.517.748l-1.887 2.464a1.909 1.909 0 0 0 .009 2.333 13.46 13.46 0 0 0 10.031 4.793 12.885 12.885 0 0 0 1.845-.134c1.309 1.389 4.105 3.8 7.76 3.8a8.546 8.546 0 0 0 3.317-.682c6.254-2.616 7.41-7.38 7.456-7.582a1.908 1.908 0 0 0-.78-2c-3.261-2.236-6.349-3.37-9.178-3.37a10.161 10.161 0 0 0-8.587 4.843 11.067 11.067 0 0 1-5.066-2.341 8.236 8.236 0 0 1-1.74-1.907 1.909 1.909 0 0 0-1.529-.963 1.315 1.315 0 0 0-.134-.006" transform="translate(-515.828 214.367)"/>
        </g>
    </g>
    <g id="그룹_3100" data-name="그룹 3100" transform="translate(120.89 158.496)">
        <g id="그룹_3099" data-name="그룹 3099">
            <path id="패스_7471" data-name="패스 7471" class="cls-6" d="M524.473-206.829s3.958 5.607 9.378 3.337 6.457-6.3 6.457-6.3c-11.429-7.839-15.349 1.42-15.349 1.42" transform="translate(-524.473 212.938)"/>
        </g>
    </g>
    <g id="그룹_3102" data-name="그룹 3102" transform="translate(120.211 157.814)">
        <g id="그룹_3101" data-name="그룹 3101">
            <path id="패스_7472" data-name="패스 7472" class="cls-5" d="M531.5-202.041c-4.353 0-7.318-4.113-7.353-4.163a.679.679 0 0 1 .164-.946.683.683 0 0 1 .946.162c.149.21 3.717 5.132 8.561 3.1a10.412 10.412 0 0 0 5.907-5.4c-3.647-2.4-6.828-3.232-9.465-2.47a7.526 7.526 0 0 0-4.448 3.887.68.68 0 0 1-.891.358.679.679 0 0 1-.358-.89 8.784 8.784 0 0 1 5.3-4.653c3.156-.923 6.873.065 11.059 2.938a.677.677 0 0 1 .273.729c-.046.178-1.186 4.382-6.852 6.755a7.34 7.34 0 0 1-2.844.591" transform="translate(-524.025 213.387)"/>
        </g>
    </g>
    <g id="그룹_3104" data-name="그룹 3104" transform="translate(120.421 161.964)">
        <g id="그룹_3103" data-name="그룹 3103">
            <path id="패스_7473" data-name="패스 7473" class="cls-5" d="M528.486-207.156c-1.823 0-3.381-.272-4.025-.9a.99.99 0 0 1-.017-1.4.99.99 0 0 1 1.383-.03c.853.574 7.066.521 9.647-1.028a.99.99 0 0 1 1.357.339.988.988 0 0 1-.34 1.356c-1.665 1-5.159 1.662-8.005 1.662" transform="translate(-524.164 210.654)"/>
        </g>
    </g>
    <g id="그룹_3107" data-name="그룹 3107" transform="translate(45.434 107.237)">
        <g id="그룹_3105" data-name="그룹 3105" transform="translate(1.063 1.082)">
            <path id="패스_7474" data-name="패스 7474" class="cls-4" d="M537.409-245.942s13.334 43.335 5.06 69.8c-.568 1.82-4.142 3.026-6.023 3.343a85.645 85.645 0 0 1-11.472 1.245 19.908 19.908 0 0 1-5.806-.926 5.5 5.5 0 0 1-3.691-3.935c-.478-1.921-1.1-4.365-1.482-5.639-.386-1.3-1.379-3.053-3.367-3.053s-2.982 1.752-3.369 3.053c-.38 1.274-1 3.718-1.482 5.639a5.5 5.5 0 0 1-3.689 3.935 19.919 19.919 0 0 1-5.807.926 114.552 114.552 0 0 1-13.3-1.245c-1.88-.317-2.712-1.523-3.278-3.343-10.968-35.217 2.859-69.144 2.859-69.144s54.592-.909 54.847-.653" transform="translate(-475.473 245.988)"/>
        </g>
        <g id="그룹_3106" data-name="그룹 3106">
            <path id="패스_7475" data-name="패스 7475" class="cls-3" d="M525.338-170.089a20.791 20.791 0 0 1-6.131-.975 6.632 6.632 0 0 1-4.432-4.719c-.46-1.848-1.089-4.316-1.47-5.593-.2-.682-.832-2.267-2.314-2.267s-2.112 1.585-2.315 2.267c-.38 1.28-1.008 3.747-1.468 5.593a6.635 6.635 0 0 1-4.432 4.719 20.793 20.793 0 0 1-6.132.975 115.108 115.108 0 0 1-13.485-1.259c-2.684-.454-3.624-2.429-4.143-4.1-10.958-35.185 2.751-69.542 2.889-69.885l.275-.673.726-.012c55.057-.917 55.193-.782 55.641-.332l.194.193.081.263c.548 1.782 13.341 43.966 5.059 70.45-.956 3.064-6.829 4.089-6.888 4.1a87.92 87.92 0 0 1-11.655 1.255zm-14.346-15.751c2.056 0 3.708 1.435 4.423 3.84.392 1.315 1.028 3.818 1.494 5.686a4.422 4.422 0 0 0 2.948 3.15 18.609 18.609 0 0 0 5.481.878 85.566 85.566 0 0 0 11.289-1.23c2.167-.366 4.831-1.55 5.154-2.586 7.5-23.97-3.158-62.605-4.843-68.411-4.866-.059-33.484.352-53.252.68-1.826 4.924-12.451 36-2.57 67.731.528 1.7 1.158 2.374 2.409 2.586a114.264 114.264 0 0 0 13.119 1.23 18.6 18.6 0 0 0 5.481-.878 4.424 4.424 0 0 0 2.95-3.15c.465-1.866 1.1-4.368 1.494-5.687.715-2.404 2.369-3.839 4.423-3.839z" transform="translate(-474.773 246.701)"/>
        </g>
    </g>
    <g id="그룹_3110" data-name="그룹 3110" transform="translate(52.794 173.492)">
        <g id="그룹_3108" data-name="그룹 3108" transform="translate(1.131 1.099)">
            <path id="패스_7476" data-name="패스 7476" class="cls-7" d="M480.365-196.363s.273-5.974 3.826-5.974 4.177 7.459 4.177 7.459a23.966 23.966 0 0 1-4.858-.355 13.638 13.638 0 0 1-3.144-1.13" transform="translate(-480.365 202.337)"/>
        </g>
        <g id="그룹_3109" data-name="그룹 3109">
            <path id="패스_7477" data-name="패스 7477" class="cls-3" d="M488.1-193.39a26.157 26.157 0 0 1-4.4-.386 14.652 14.652 0 0 1-3.454-1.233l-.632-.322.032-.709c.12-2.607 1.291-7.022 4.925-7.022 4.436 0 5.2 7.6 5.271 8.467l.094 1.13-1.131.059a8.942 8.942 0 0 1-.705.016zm-6.175-3.264a10.3 10.3 0 0 0 2.157.712 24.219 24.219 0 0 0 3.419.343c-.373-2.227-1.325-5.264-2.926-5.264-1.846 0-2.461 2.842-2.649 4.209z" transform="translate(-479.62 203.061)"/>
        </g>
    </g>
    <g id="그룹_3113" data-name="그룹 3113" transform="translate(64.49 173.492)">
        <g id="그룹_3111" data-name="그룹 3111" transform="translate(1.192 1.099)">
            <path id="패스_7478" data-name="패스 7478" class="cls-7" d="M496.11-196.363s-.272-5.974-3.826-5.974-4.175 7.459-4.175 7.459a23.954 23.954 0 0 0 4.857-.355 13.637 13.637 0 0 0 3.144-1.13" transform="translate(-488.109 202.337)"/>
        </g>
        <g id="그룹_3112" data-name="그룹 3112">
            <path id="패스_7479" data-name="패스 7479" class="cls-3" d="M489.167-193.39c-.425 0-.68-.014-.711-.015l-1.133-.059.1-1.13c.071-.867.835-8.467 5.271-8.467 3.635 0 4.807 4.415 4.925 7.022l.032.709-.63.322a14.671 14.671 0 0 1-3.457 1.233 26.106 26.106 0 0 1-4.397.385zm3.524-7.473c-1.6 0-2.557 3.038-2.927 5.264a24.177 24.177 0 0 0 3.419-.343 10.3 10.3 0 0 0 2.16-.712c-.188-1.367-.803-4.209-2.652-4.209z" transform="translate(-487.324 203.061)"/>
        </g>
    </g>
    <g id="그룹_3116" data-name="그룹 3116" transform="translate(89.073 173.492)">
        <g id="그룹_3114" data-name="그룹 3114" transform="translate(1.131 1.099)">
            <path id="패스_7480" data-name="패스 7480" class="cls-7" d="M504.261-196.363s.272-5.974 3.826-5.974 4.175 7.459 4.175 7.459a23.954 23.954 0 0 1-4.857-.355 13.638 13.638 0 0 1-3.144-1.13" transform="translate(-504.261 202.337)"/>
        </g>
        <g id="그룹_3115" data-name="그룹 3115">
            <path id="패스_7481" data-name="패스 7481" class="cls-3" d="M512-193.39a26.133 26.133 0 0 1-4.4-.386 14.676 14.676 0 0 1-3.456-1.233l-.63-.322.032-.709c.118-2.607 1.291-7.022 4.925-7.022 4.436 0 5.2 7.6 5.271 8.467l.1 1.13-1.133.059a9.408 9.408 0 0 1-.709.016zm-6.176-3.264a10.318 10.318 0 0 0 2.159.712 24.2 24.2 0 0 0 3.419.343c-.373-2.227-1.327-5.264-2.926-5.264-1.852 0-2.467 2.842-2.655 4.209z" transform="translate(-503.516 203.061)"/>
        </g>
    </g>
    <g id="그룹_3119" data-name="그룹 3119" transform="translate(100.769 173.492)">
        <g id="그룹_3117" data-name="그룹 3117" transform="translate(1.19 1.099)">
            <path id="패스_7482" data-name="패스 7482" class="cls-7" d="M520.007-196.363s-.273-5.974-3.826-5.974-4.181 7.459-4.181 7.459a23.966 23.966 0 0 0 4.858-.355 13.637 13.637 0 0 0 3.144-1.13" transform="translate(-512.004 202.337)"/>
        </g>
        <g id="그룹_3118" data-name="그룹 3118">
            <path id="패스_7483" data-name="패스 7483" class="cls-3" d="M513.062-193.39c-.425 0-.679-.014-.709-.015l-1.133-.059.094-1.13c.073-.867.837-8.467 5.273-8.467 3.635 0 4.805 4.415 4.925 7.022l.032.709-.632.322a14.647 14.647 0 0 1-3.455 1.233 26.133 26.133 0 0 1-4.395.385zm3.525-7.473c-1.606 0-2.557 3.038-2.929 5.264a24.214 24.214 0 0 0 3.421-.343 10.289 10.289 0 0 0 2.159-.712c-.189-1.367-.803-4.209-2.651-4.209z" transform="translate(-511.22 203.061)"/>
        </g>
    </g>
    <g id="그룹_3122" data-name="그룹 3122" transform="translate(35.785 92.879)">
        <g id="그룹_3120" data-name="그룹 3120" transform="translate(1.096 1.099)">
            <path id="패스_7484" data-name="패스 7484" class="cls-7" d="m546.462-255.434-59.309.419s-18.5 9.788-18 36.931c0 0-.129 1.8 9.305 1.36 0 0-1.541 20.428-.443 26.353 0 0 21.284 2.194 30.061.439l1.316-3.95 1.755 4.136s19.309 3.982 32.475-1.722a178.815 178.815 0 0 0-3.565-41.8" transform="translate(-469.14 255.434)"/>
        </g>
        <g id="그룹_3121" data-name="그룹 3121">
            <path id="패스_7485" data-name="패스 7485" class="cls-3" d="M526.131-186.9a80.342 80.342 0 0 1-14.836-1.392 1.1 1.1 0 0 1-.789-.647l-.618-1.459-.4 1.192a1.1 1.1 0 0 1-.827.73c-8.842 1.767-29.514-.332-30.39-.424a1.1 1.1 0 0 1-.969-.894c-.966-5.212.024-20.854.342-25.406-4.811.143-7.675-.325-8.733-1.412a1.534 1.534 0 0 1-.484-1.174c-.266-14.245 4.772-23.774 9.044-29.242a33.261 33.261 0 0 1 9.541-8.583 1.091 1.091 0 0 1 .507-.128l59.311-.418h.008a1.1 1.1 0 0 1 1.1 1.093 1.1 1.1 0 0 1-1.093 1.107l-59.022.414c-2.04 1.212-17.505 11.217-17.2 35.482.446.246 2.2.893 8.159.615a1.1 1.1 0 0 1 .841.333 1.1 1.1 0 0 1 .307.849c-.014.194-1.391 18.662-.581 25.257 3.922.37 20.438 1.8 28.265.487l1.111-3.334a1.1 1.1 0 0 1 1-.752 1.074 1.074 0 0 1 1.055.67l1.526 3.592c3.181.574 19.2 3.112 30.623-1.492a179.858 179.858 0 0 0-3.569-40.827 1.1 1.1 0 0 1 .843-1.307 1.1 1.1 0 0 1 1.307.843 181.534 181.534 0 0 1 3.588 42.093 1.1 1.1 0 0 1-.66.952c-5.694 2.461-12.411 3.182-18.307 3.182zm-55.509-30.944v.118a.511.511 0 0 0-.001-.121z" transform="translate(-468.417 256.158)"/>
        </g>
    </g>
    <g id="그룹_3125" data-name="그룹 3125" transform="translate(107.827 137.632)">
        <g id="그룹_3123" data-name="그룹 3123" transform="translate(1.096 1.101)">
            <path id="패스_7486" data-name="패스 7486" class="cls-4" d="M518.205-223.234s-3.809 11.517.272 12.786 4.625-3.175 4.625-3.175-2.455 4.763 4.977 5.113c8 .375 7.629-11.007 6.179-17.447" transform="translate(-516.59 225.956)"/>
        </g>
        <g id="그룹_3124" data-name="그룹 3124">
            <path id="패스_7487" data-name="패스 7487" class="cls-3" d="M528.839-207.025c-.144 0-.292 0-.439-.011-2.935-.138-4.9-.961-5.832-2.447-.056.041-.114.08-.173.12a4.43 4.43 0 0 1-3.872.342 3.352 3.352 0 0 1-1.993-1.735c-1.842-3.581.708-11.551 1-12.448a1.1 1.1 0 0 1 1.389-.7 1.1 1.1 0 0 1 .7 1.388c-1.01 3.053-2.208 8.671-1.137 10.754a1.137 1.137 0 0 0 .692.641 2.338 2.338 0 0 0 2.024-.09 2.458 2.458 0 0 0 .843-1.061 5.225 5.225 0 0 1 .452-1.479 1.1 1.1 0 0 1 1.3-.547 1.1 1.1 0 0 1 .768 1.184 6.253 6.253 0 0 1-.378 1.432 1.756 1.756 0 0 0 .216.985c.5.843 1.952 1.363 4.1 1.464a4.489 4.489 0 0 0 3.909-1.559c2.408-2.871 2.311-9.375 1.145-14.548a1.1 1.1 0 0 1 .832-1.315 1.1 1.1 0 0 1 1.313.832c.431 1.913 2.379 11.695-1.6 16.444a6.541 6.541 0 0 1-5.259 2.354z" transform="translate(-515.868 226.681)"/>
        </g>
    </g>
    <g id="그룹_3127" data-name="그룹 3127" transform="translate(59.507 98.94)">
        <g id="그룹_3126" data-name="그룹 3126">
            <path id="패스_7488" data-name="패스 7488" class="cls-3" d="m499.406-219.668-1.137-1.445c-9.518-12.094-14.039-29.689-14.227-30.433l2.455-.619c.043.169 4.213 16.383 12.639 28 2.765-4.7 10.831-18.568 15.144-27.831l2.292 1.067c-5.288 11.361-16.114 29.5-16.224 29.683z" transform="translate(-484.042 252.166)"/>
        </g>
    </g>
    <g id="그룹_3130" data-name="그룹 3130" transform="translate(99.004 92.788)">
        <g id="그룹_3128" data-name="그룹 3128" transform="translate(1.098 1.1)">
            <path id="패스_7489" data-name="패스 7489" class="cls-7" d="M510.78-231.327s8.365 8.595 7.108 25.111c0 0 13.029 1.57 22.547-1.283 0 0 4.758-25.409-16.3-47.994" transform="translate(-510.78 255.493)"/>
        </g>
        <g id="그룹_3129" data-name="그룹 3129">
            <path id="패스_7490" data-name="패스 7490" class="cls-3" d="M526.615-204.3a77.4 77.4 0 0 1-8.484-.446 1.1 1.1 0 0 1-.966-1.175c1.2-15.774-6.72-24.181-6.8-24.263a1.1 1.1 0 0 1 .026-1.555 1.1 1.1 0 0 1 1.553.021c.348.358 8.341 8.774 7.485 24.891 3.143.281 12.826.909 20.4-1.157.533-4.1 2.429-26.487-16.119-46.382a1.1 1.1 0 0 1 .055-1.555 1.1 1.1 0 0 1 1.555.053c21.19 22.731 16.623 48.688 16.575 48.947a1.1 1.1 0 0 1-.765.852 52.693 52.693 0 0 1-14.515 1.769z" transform="translate(-510.057 256.218)"/>
        </g>
    </g>
    <g id="그룹_3133" data-name="그룹 3133" transform="translate(107.618 145.575)">
        <g id="그룹_3131" data-name="그룹 3131" transform="translate(1.1 1.101)">
            <path id="패스_7491" data-name="패스 7491" class="cls-4" d="M517.036-220.724c-.688 3.419-1.222 8.373 1.195 9.126 4.081 1.269 4.69-5.464 4.69-5.464" transform="translate(-516.456 220.724)"/>
        </g>
        <g id="그룹_3132" data-name="그룹 3132">
            <path id="패스_7492" data-name="패스 7492" class="cls-3" d="M519.584-209.965a4.366 4.366 0 0 1-1.306-.208c-2.519-.783-3.175-4.28-1.945-10.392a1.1 1.1 0 0 1 1.294-.861 1.1 1.1 0 0 1 .862 1.294c-1.01 5.021-.5 7.565.443 7.86a1.552 1.552 0 0 0 1.439-.129c1.236-.824 1.747-3.509 1.829-4.385a1.1 1.1 0 0 1 1.195-.993 1.1 1.1 0 0 1 .994 1.193c-.041.451-.466 4.454-2.8 6.012a3.571 3.571 0 0 1-2.005.609z" transform="translate(-515.731 221.449)"/>
        </g>
    </g>
    <g id="그룹_3136" data-name="그룹 3136" transform="translate(113.42 144.013)">
        <g id="그룹_3134" data-name="그룹 3134" transform="translate(1.099 1.1)">
            <path id="패스_7493" data-name="패스 7493" class="cls-4" d="M520.581-218.149s-2.2 7.907 5.229 8.255c5.871.276 7.644-6.071 7.38-11.859" transform="translate(-520.276 221.753)"/>
        </g>
        <g id="그룹_3135" data-name="그룹 3135">
            <path id="패스_7494" data-name="패스 7494" class="cls-3" d="M526.557-208.41q-.21 0-.424-.009a6.586 6.586 0 0 1-5.34-2.516c-2.059-2.845-.946-6.96-.9-7.134a1.1 1.1 0 0 1 1.351-.764 1.1 1.1 0 0 1 .768 1.351c-.009.033-.875 3.282.565 5.264a4.511 4.511 0 0 0 3.656 1.6 4.685 4.685 0 0 0 3.767-1.359c1.731-1.728 2.651-5.223 2.463-9.351a1.1 1.1 0 0 1 1.049-1.149 1.107 1.107 0 0 1 1.149 1.049c.219 4.805-.914 8.816-3.106 11.007a6.824 6.824 0 0 1-4.998 2.011z" transform="translate(-519.553 222.478)"/>
        </g>
    </g>
    <g id="그룹_3141" data-name="그룹 3141" transform="translate(67.832 126.483)">
        <g id="그룹_3138" data-name="그룹 3138" transform="translate(.844 .842)">
            <g id="그룹_3137" data-name="그룹 3137">
                <rect id="사각형_1601" data-name="사각형 1601" class="cls-7" width="14.695" height="19.033" rx=".556"/>
            </g>
        </g>
        <g id="그룹_3140" data-name="그룹 3140">
            <g id="그룹_3139" data-name="그룹 3139">
                <path id="패스_7495" data-name="패스 7495" class="cls-3" d="M504.221-232.339v17.346h-13.01v-17.346h13.01m0-1.685h-13.01a1.687 1.687 0 0 0-1.687 1.685v17.346a1.688 1.688 0 0 0 1.687 1.687h13.01a1.687 1.687 0 0 0 1.685-1.687v-17.346a1.685 1.685 0 0 0-1.685-1.685z" transform="translate(-489.525 234.024)"/>
            </g>
        </g>
    </g>
    <g id="그룹_3143" data-name="그룹 3143" transform="translate(72.66 141.374)">
        <g id="그룹_3142" data-name="그룹 3142">
            <path id="선_433" data-name="선 433" class="cls-7" d="M0 0h7.131"/>
        </g>
    </g>
    <g id="그룹_3145" data-name="그룹 3145" transform="translate(72.237 140.952)">
        <g id="그룹_3144" data-name="그룹 3144">
            <path id="패스_7496" data-name="패스 7496" class="cls-3" d="M499.982-223.648h-7.131a.424.424 0 0 1-.424-.424.423.423 0 0 1 .424-.422h7.131a.422.422 0 0 1 .421.422.422.422 0 0 1-.421.424" transform="translate(-492.427 224.494)"/>
        </g>
    </g>
    <g id="그룹_3147" data-name="그룹 3147" transform="translate(72.66 143.249)">
        <g id="그룹_3146" data-name="그룹 3146">
            <path id="선_434" data-name="선 434" class="cls-7" d="M0 0h7.131"/>
        </g>
    </g>
    <g id="그룹_3149" data-name="그룹 3149" transform="translate(72.237 142.825)">
        <g id="그룹_3148" data-name="그룹 3148">
            <path id="패스_7497" data-name="패스 7497" class="cls-3" d="M499.982-222.414h-7.131a.423.423 0 0 1-.424-.422.425.425 0 0 1 .424-.424h7.131a.423.423 0 0 1 .421.424.422.422 0 0 1-.421.422" transform="translate(-492.427 223.26)"/>
        </g>
    </g>
    <g id="그룹_3151" data-name="그룹 3151" transform="translate(72.553 130.128)">
        <g id="그룹_3150" data-name="그룹 3150">
            <path id="패스_7498" data-name="패스 7498" d="M499.613-222.509h-6.767a.211.211 0 0 1-.211-.211v-8.692a.212.212 0 0 1 .211-.211h6.767a.212.212 0 0 1 .211.211v8.692a.211.211 0 0 1-.211.211" transform="translate(-492.635 231.623)" style="fill:#d0e7f5"/>
        </g>
    </g>
    <g id="그룹_3215" data-name="그룹 3215" transform="translate(72.553 130.128)">
        <g id="그룹_3214" data-name="그룹 3214" class="cls-9">
            <g id="그룹_3153" data-name="그룹 3153" transform="translate(4.938 9.178)">
                <g id="그룹_3152" data-name="그룹 3152">
                    <path id="패스_7499" data-name="패스 7499" class="cls-4" d="M495.888-225.452a.568.568 0 0 0 .56.188s.213.29.486.175a.513.513 0 0 0 .322-.316c-.578-.4-.792.1-.792.1a.628.628 0 0 1-.48-.273z" transform="translate(-495.888 225.578)"/>
                </g>
            </g>
            <g id="그룹_3155" data-name="그룹 3155" transform="translate(4.842 9.082)">
                <g id="그룹_3154" data-name="그룹 3154">
                    <path id="패스_7500" data-name="패스 7500" class="cls-5" d="M496.017-225.544a.629.629 0 0 0 .48.272.437.437 0 0 1 .383-.254.733.733 0 0 1 .41.153.516.516 0 0 1-.32.316.325.325 0 0 1-.131.027.5.5 0 0 1-.355-.2.588.588 0 0 1-.131.015.582.582 0 0 1-.431-.206l.1-.123m0-.1a.1.1 0 0 0-.077.038l-.1.125a.1.1 0 0 0 0 .118.679.679 0 0 0 .507.241.634.634 0 0 0 .093-.006.57.57 0 0 0 .393.193.457.457 0 0 0 .167-.035.605.605 0 0 0 .377-.383.1.1 0 0 0-.038-.1.835.835 0 0 0-.465-.17.519.519 0 0 0-.434.243.54.54 0 0 1-.257-.118.43.43 0 0 1-.088-.1.094.094 0 0 0-.078-.049z" transform="translate(-495.824 225.641)"/>
                </g>
            </g>
            <g id="그룹_3157" data-name="그룹 3157" transform="translate(5.506 9.192)">
                <g id="그룹_3156" data-name="그룹 3156">
                    <path id="패스_7501" data-name="패스 7501" class="cls-6" d="M496.262-225.259a.422.422 0 0 0 .474.169.535.535 0 0 0 .326-.319c-.578-.4-.776.071-.776.071" transform="translate(-496.262 225.569)"/>
                </g>
            </g>
            <g id="그룹_3159" data-name="그룹 3159" transform="translate(5.471 9.158)">
                <g id="그룹_3158" data-name="그룹 3158">
                    <path id="패스_7502" data-name="패스 7502" class="cls-5" d="M496.617-225.017a.516.516 0 0 1-.372-.213.034.034 0 0 1 .008-.047.037.037 0 0 1 .049.008.382.382 0 0 0 .433.158.526.526 0 0 0 .3-.273.593.593 0 0 0-.478-.126.389.389 0 0 0-.226.2.033.033 0 0 1-.044.018.033.033 0 0 1-.018-.044.443.443 0 0 1 .269-.235.673.673 0 0 1 .559.147.036.036 0 0 1 .014.036.556.556 0 0 1-.346.343.4.4 0 0 1-.144.03" transform="translate(-496.239 225.591)"/>
                </g>
            </g>
            <g id="그룹_3161" data-name="그룹 3161" transform="translate(5.482 9.368)">
                <g id="그룹_3160" data-name="그룹 3160">
                    <path id="패스_7503" data-name="패스 7503" class="cls-5" d="M496.465-225.277a.324.324 0 0 1-.2-.046.049.049 0 0 1 0-.07.047.047 0 0 1 .068 0 .851.851 0 0 0 .489-.053.051.051 0 0 1 .068.018.051.051 0 0 1-.017.068.94.94 0 0 1-.405.083" transform="translate(-496.246 225.453)"/>
                </g>
            </g>
            <g id="그룹_3163" data-name="그룹 3163" transform="translate(1.744 6.654)">
                <g id="그룹_3162" data-name="그룹 3162">
                    <path id="패스_7504" data-name="패스 7504" class="cls-4" d="M496.916-227.238a7.615 7.615 0 0 1 .255 3.531c-.029.09-.21.152-.3.169a4.483 4.483 0 0 1-.58.062 1.014 1.014 0 0 1-.295-.047.278.278 0 0 1-.187-.2 6.424 6.424 0 0 0-.074-.285.19.19 0 0 0-.17-.153.19.19 0 0 0-.17.153 6.21 6.21 0 0 0-.076.285.273.273 0 0 1-.185.2 1.014 1.014 0 0 1-.295.047 5.992 5.992 0 0 1-.673-.062c-.1-.017-.137-.079-.166-.169a5.746 5.746 0 0 1 .144-3.5s2.76-.046 2.774-.033" transform="translate(-493.784 227.24)"/>
                </g>
            </g>
            <g id="그룹_3165" data-name="그룹 3165" transform="translate(1.698 6.606)">
                <g id="그룹_3164" data-name="그룹 3164">
                    <path id="패스_7505" data-name="패스 7505" class="cls-3" d="M496.3-223.411a1.014 1.014 0 0 1-.308-.05.329.329 0 0 1-.22-.234c-.033-.134-.059-.232-.073-.282s-.046-.118-.125-.118-.114.082-.125.118c-.02.07-.055.206-.074.282a.324.324 0 0 1-.219.234 1.014 1.014 0 0 1-.308.05 5.879 5.879 0 0 1-.68-.064.252.252 0 0 1-.2-.2 5.817 5.817 0 0 1 .146-3.527.047.047 0 0 1 .043-.03s.691-.012 1.383-.021a6.828 6.828 0 0 1 1.426 0 .03.03 0 0 1 .012.018 10.708 10.708 0 0 1 .287 1.271 5.434 5.434 0 0 1-.03 2.286c-.049.152-.34.2-.343.2a4.583 4.583 0 0 1-.588.064m-.726-.782a.232.232 0 0 1 .217.188l.076.287a.229.229 0 0 0 .153.165.965.965 0 0 0 .279.044 4.106 4.106 0 0 0 .571-.062c.112-.018.249-.079.267-.135a7.472 7.472 0 0 0-.246-3.468c-.231 0-1.7.017-2.7.033a5.725 5.725 0 0 0-.132 3.434c.027.087.062.123.128.135a5.641 5.641 0 0 0 .665.062.972.972 0 0 0 .279-.044.233.233 0 0 0 .155-.165c.023-.094.055-.219.074-.287a.233.233 0 0 1 .217-.188" transform="translate(-493.754 227.272)"/>
                </g>
            </g>
            <g id="그룹_3167" data-name="그룹 3167" transform="translate(2.121 10.007)">
                <g id="그룹_3166" data-name="그룹 3166">
                    <path id="패스_7506" data-name="패스 7506" class="cls-7" d="M494.032-224.731s.014-.3.193-.3.211.375.211.375a1.118 1.118 0 0 1-.246-.017.727.727 0 0 1-.158-.058" transform="translate(-494.032 225.032)"/>
                </g>
            </g>
            <g id="그룹_3169" data-name="그룹 3169" transform="translate(2.066 9.951)">
                <g id="그룹_3168" data-name="그룹 3168">
                    <path id="패스_7507" data-name="패스 7507" class="cls-5" d="M494.423-224.582a1.316 1.316 0 0 1-.223-.02.7.7 0 0 1-.175-.062.054.054 0 0 1-.029-.05c.006-.132.064-.355.247-.355.223 0 .261.383.264.428a.048.048 0 0 1-.012.039.053.053 0 0 1-.038.018h-.035m-.314-.162a.529.529 0 0 0 .111.035.916.916 0 0 0 .173.018c-.018-.112-.067-.269-.149-.269s-.126.146-.135.216" transform="translate(-493.996 225.069)"/>
                </g>
            </g>
            <g id="그룹_3171" data-name="그룹 3171" transform="translate(2.714 10.007)">
                <g id="그룹_3170" data-name="그룹 3170">
                    <path id="패스_7508" data-name="패스 7508" class="cls-7" d="M494.828-224.731s-.015-.3-.194-.3-.211.375-.211.375a1.117 1.117 0 0 0 .246-.017.755.755 0 0 0 .159-.058" transform="translate(-494.423 225.032)"/>
                </g>
            </g>
            <g id="그룹_3173" data-name="그룹 3173" transform="translate(2.66 9.952)">
                <g id="그룹_3172" data-name="그룹 3172">
                    <path id="패스_7509" data-name="패스 7509" class="cls-5" d="M494.439-224.584a.053.053 0 0 1-.038-.018.062.062 0 0 1-.014-.039c0-.044.043-.427.266-.427.182 0 .241.222.247.354a.049.049 0 0 1-.03.049.634.634 0 0 1-.173.064 1.326 1.326 0 0 1-.222.02h-.036m.214-.377c-.082 0-.131.156-.15.269a1.552 1.552 0 0 0 .176-.017.733.733 0 0 0 .111-.036c-.011-.07-.041-.216-.137-.216" transform="translate(-494.387 225.068)"/>
                </g>
            </g>
            <g id="그룹_3175" data-name="그룹 3175" transform="translate(3.955 10.007)">
                <g id="그룹_3174" data-name="그룹 3174">
                    <path id="패스_7510" data-name="패스 7510" class="cls-7" d="M495.24-224.731s.014-.3.193-.3.211.375.211.375a1.118 1.118 0 0 1-.246-.017.765.765 0 0 1-.158-.058" transform="translate(-495.24 225.032)"/>
                </g>
            </g>
            <g id="그룹_3177" data-name="그룹 3177" transform="translate(3.9 9.951)">
                <g id="그룹_3176" data-name="그룹 3176">
                    <path id="패스_7511" data-name="패스 7511" class="cls-5" d="M495.629-224.582a1.326 1.326 0 0 1-.222-.02.681.681 0 0 1-.173-.062.053.053 0 0 1-.03-.05c.006-.132.065-.355.247-.355.223 0 .261.383.266.428a.062.062 0 0 1-.014.039.053.053 0 0 1-.038.018h-.036m-.313-.162a.541.541 0 0 0 .109.035.956.956 0 0 0 .176.018c-.02-.112-.068-.269-.15-.269s-.126.146-.135.216" transform="translate(-495.204 225.069)"/>
                </g>
            </g>
            <g id="그룹_3179" data-name="그룹 3179" transform="translate(4.548 10.007)">
                <g id="그룹_3178" data-name="그룹 3178">
                    <path id="패스_7512" data-name="패스 7512" class="cls-7" d="M496.036-224.731s-.015-.3-.194-.3-.211.375-.211.375a1.117 1.117 0 0 0 .246-.017.755.755 0 0 0 .159-.058" transform="translate(-495.631 225.032)"/>
                </g>
            </g>
            <g id="그룹_3181" data-name="그룹 3181" transform="translate(4.495 9.952)">
                <g id="그룹_3180" data-name="그룹 3180">
                    <path id="패스_7513" data-name="패스 7513" class="cls-5" d="M495.646-224.584a.053.053 0 0 1-.038-.018.053.053 0 0 1-.012-.039c0-.044.041-.427.264-.427.184 0 .241.222.247.354a.05.05 0 0 1-.029.049.677.677 0 0 1-.175.064 1.314 1.314 0 0 1-.222.02h-.036m.214-.377c-.082 0-.131.156-.149.269a1.558 1.558 0 0 0 .175-.017.675.675 0 0 0 .111-.036c-.011-.07-.041-.216-.137-.216" transform="translate(-495.596 225.068)"/>
                </g>
            </g>
            <g id="그룹_3183" data-name="그룹 3183" transform="translate(1.2 8.266)">
                <g id="그룹_3182" data-name="그룹 3182">
                    <path id="패스_7514" data-name="패스 7514" class="cls-4" d="M494.283-226.041s.194.583-.012.647-.234-.159-.234-.159.082.323-.295.334-.345-.633-.27-.96" transform="translate(-493.425 226.179)"/>
                </g>
            </g>
            <g id="그룹_3185" data-name="그룹 3185" transform="translate(1.139 8.206)">
                <g id="그룹_3184" data-name="그룹 3184">
                    <path id="패스_7515" data-name="패스 7515" class="cls-3" d="M493.755-225.14a.3.3 0 0 1-.243-.112 1.266 1.266 0 0 1-.079-.919.06.06 0 0 1 .073-.046.061.061 0 0 1 .046.071 1.181 1.181 0 0 0 .053.815.18.18 0 0 0 .156.07.256.256 0 0 0 .206-.079.227.227 0 0 0 .033-.16v-.024a.058.058 0 0 1 .049-.065.058.058 0 0 1 .07.043v.024a.167.167 0 0 0 .055.091.12.12 0 0 0 .1 0 .057.057 0 0 0 .032-.03 1.017 1.017 0 0 0-.058-.539.061.061 0 0 1 .038-.077.061.061 0 0 1 .076.039 1.12 1.12 0 0 1 .05.633.167.167 0 0 1-.1.09.226.226 0 0 1-.2-.018h-.006a.272.272 0 0 1-.038.071.359.359 0 0 1-.3.126z" transform="translate(-493.386 226.218)"/>
                </g>
            </g>
            <g id="그룹_3187" data-name="그룹 3187" transform="translate(1.185 5.931)">
                <g id="그룹_3186" data-name="그룹 3186">
                    <path id="패스_7516" data-name="패스 7516" class="cls-7" d="m497.4-227.717-3 .02a3.926 3.926 0 0 0-.984 2.548s.023.167.5.144a2.211 2.211 0 0 0 .023.577 7.764 7.764 0 0 0 1.52.023l.068-.2.088.21a3.274 3.274 0 0 0 1.641-.087 9.027 9.027 0 0 0-.179-2.113" transform="translate(-493.416 227.717)"/>
                </g>
            </g>
            <g id="그룹_3189" data-name="그룹 3189" transform="translate(1.125 5.87)">
                <g id="그룹_3188" data-name="그룹 3188">
                    <path id="패스_7517" data-name="패스 7517" class="cls-3" d="M496.371-224.245a3.9 3.9 0 0 1-.75-.071.061.061 0 0 1-.044-.035l-.027-.062-.015.049a.06.06 0 0 1-.046.039 7.63 7.63 0 0 1-1.538-.021.061.061 0 0 1-.053-.049 2.312 2.312 0 0 1-.029-.527h-.017c-.427 0-.471-.162-.477-.2v-.009a4.013 4.013 0 0 1 1-2.589.068.068 0 0 1 .041-.018l3-.02a.061.061 0 0 1 .061.059.061.061 0 0 1-.061.061l-2.973.021a3.924 3.924 0 0 0-.949 2.479c.017.033.118.106.436.091a.069.069 0 0 1 .047.02.057.057 0 0 1 .015.049 2.217 2.217 0 0 0 .014.515 7.717 7.717 0 0 0 1.423.024l.056-.165a.057.057 0 0 1 .055-.041.058.058 0 0 1 .058.036l.076.179a3.222 3.222 0 0 0 1.541-.074 9.163 9.163 0 0 0-.182-2.06.062.062 0 0 1 .047-.071.059.059 0 0 1 .071.046 9.112 9.112 0 0 1 .182 2.13.058.058 0 0 1-.036.052 2.4 2.4 0 0 1-.928.162" transform="translate(-493.376 227.757)"/>
                </g>
            </g>
            <g id="그룹_3191" data-name="그룹 3191" transform="translate(2.816 6.169)">
                <g id="그룹_3190" data-name="그룹 3190">
                    <path id="패스_7518" data-name="패스 7518" class="cls-4" d="m494.49-227.553.915-.008-.506.589z" transform="translate(-494.49 227.56)"/>
                </g>
            </g>
            <g id="그룹_3193" data-name="그룹 3193" transform="translate(4.901 8.193)">
                <g id="그룹_3192" data-name="그룹 3192">
                    <path id="패스_7519" data-name="패스 7519" class="cls-4" d="M495.945-226.089s-.193.581.014.647.234-.161.234-.161-.125.241.25.258c.405.02.387-.557.313-.882" transform="translate(-495.863 226.227)"/>
                </g>
            </g>
            <g id="그룹_3195" data-name="그룹 3195" transform="translate(4.841 8.132)">
                <g id="그룹_3194" data-name="그룹 3194">
                    <path id="패스_7520" data-name="패스 7520" class="cls-3" d="M496.485-225.263h-.023a.355.355 0 0 1-.3-.123.23.23 0 0 1-.2.018.174.174 0 0 1-.1-.091 1.118 1.118 0 0 1 .05-.633.061.061 0 0 1 .076-.038.06.06 0 0 1 .039.076.994.994 0 0 0-.058.54.056.056 0 0 0 .03.03.119.119 0 0 0 .1 0 .117.117 0 0 0 .041-.05.221.221 0 0 1 .024-.077.057.057 0 0 1 .07-.029.059.059 0 0 1 .042.065.288.288 0 0 1-.018.073.072.072 0 0 0 .011.046c.023.043.1.067.2.071a.221.221 0 0 0 .194-.077.985.985 0 0 0 .058-.73.06.06 0 0 1 .046-.073.062.062 0 0 1 .073.046 1.142 1.142 0 0 1-.083.837.333.333 0 0 1-.269.12" transform="translate(-495.824 226.267)"/>
                </g>
            </g>
            <g id="그룹_3197" data-name="그룹 3197" transform="translate(2.403 6.181)">
                <g id="그룹_3196" data-name="그룹 3196">
                    <path id="패스_7521" data-name="패스 7521" class="cls-3" d="m494.994-225.909-.058-.073a4.673 4.673 0 0 1-.718-1.538l.123-.032a4.888 4.888 0 0 0 .639 1.415c.14-.237.548-.938.765-1.407l.117.055c-.269.575-.815 1.491-.821 1.5z" transform="translate(-494.218 227.552)"/>
                </g>
            </g>
            <g id="그룹_3199" data-name="그룹 3199" transform="translate(-.55 1.478)">
                <g id="그룹_3198" data-name="그룹 3198">
                    <path id="패스_7522" data-name="패스 7522" class="cls-4" d="M494.569-229.976a1.221 1.221 0 0 0-1.409-.654c-1.013.14-1.031 1.552-.683 2.1a1.618 1.618 0 0 0-.011 1.514 1.117 1.117 0 0 0 2.069-.1" transform="translate(-492.273 230.65)"/>
                </g>
            </g>
            <g id="그룹_3201" data-name="그룹 3201" transform="translate(-.61 1.417)">
                <g id="그룹_3200" data-name="그룹 3200">
                    <path id="패스_7523" data-name="패스 7523" class="cls-3" d="M493.523-226.29h.055a1.164 1.164 0 0 0 1.034-.786.059.059 0 0 0-.035-.077.06.06 0 0 0-.077.033 1.03 1.03 0 0 1-.928.711 1.1 1.1 0 0 1-1.032-.615 1.575 1.575 0 0 1 .008-1.454.063.063 0 0 0 0-.065 1.745 1.745 0 0 1-.059-1.471.888.888 0 0 1 .7-.533 1.161 1.161 0 0 1 1.347.616.059.059 0 0 0 .076.035.059.059 0 0 0 .035-.077 1.115 1.115 0 0 0-.307-.41 1.424 1.424 0 0 0-1.168-.284 1 1 0 0 0-.791.6 1.862 1.862 0 0 0 .047 1.553 1.683 1.683 0 0 0 0 1.539 1.224 1.224 0 0 0 1.092.683" transform="translate(-492.233 230.69)"/>
                </g>
            </g>
            <g id="그룹_3203" data-name="그룹 3203" transform="translate(-.067 2.127)">
                <g id="그룹_3202" data-name="그룹 3202">
                    <path id="패스_7524" data-name="패스 7524" class="cls-10" d="M494.056-229.771a.783.783 0 0 0-.919-.433c-.647.114-.633 1.095-.4 1.468a1.2 1.2 0 0 0 .02 1.049.7.7 0 0 0 1.328-.1" transform="translate(-492.591 230.222)"/>
                </g>
            </g>
            <g id="그룹_3205" data-name="그룹 3205" transform="translate(.894 1.233)">
                <g id="그룹_3204" data-name="그룹 3204">
                    <path id="패스_7525" data-name="패스 7525" class="cls-4" d="M495.626-225.783c1.9.023 2.514-.777 2.695-1.351a1.265 1.265 0 0 0 .032-.727c0-2.543-1.638-2.95-2.6-2.95-.891 0-2.494.407-2.494 2.923a2.5 2.5 0 0 0-.029.642c.038.395.278 1.439 2.393 1.464" transform="translate(-493.224 230.811)"/>
                </g>
            </g>
            <g id="그룹_3207" data-name="그룹 3207" transform="translate(.843 1.183)">
                <g id="그룹_3206" data-name="그룹 3206">
                    <path id="패스_7526" data-name="패스 7526" class="cls-5" d="M495.724-225.714h-.08a2.913 2.913 0 0 1-2.01-.607 1.39 1.39 0 0 1-.433-.9 2.577 2.577 0 0 1 .027-.651 2.979 2.979 0 0 1 .934-2.438 2.592 2.592 0 0 1 1.612-.53 2.721 2.721 0 0 1 1.69.533 2.967 2.967 0 0 1 .958 2.458 1.342 1.342 0 0 1-.035.753c-.164.521-.729 1.386-2.663 1.386m-.08-.1c1.936.023 2.488-.814 2.646-1.315a1.223 1.223 0 0 0 .032-.7v-.017a2.877 2.877 0 0 0-.919-2.387 2.624 2.624 0 0 0-1.626-.509c-.735 0-2.443.278-2.443 2.871v.009a2.489 2.489 0 0 0-.029.627 1.3 1.3 0 0 0 .4.838 2.827 2.827 0 0 0 1.94.58" transform="translate(-493.191 230.844)"/>
                </g>
            </g>
            <g id="그룹_3209" data-name="그룹 3209" transform="translate(2.832 4.886)">
                <g id="그룹_3208" data-name="그룹 3208">
                    <path id="패스_7527" data-name="패스 7527" class="cls-5" d="M495.073-228.144a.763.763 0 0 1-.559-.17.057.057 0 0 1 0-.077.056.056 0 0 1 .077 0c.006 0 .305.3 1.172 0a.054.054 0 0 1 .07.035.057.057 0 0 1-.033.07 2.327 2.327 0 0 1-.73.138" transform="translate(-494.501 228.405)"/>
                </g>
            </g>
            <g id="그룹_3211" data-name="그룹 3211" transform="translate(2.963 5.095)">
                <g id="그룹_3210" data-name="그룹 3210">
                    <path id="패스_7528" data-name="패스 7528" class="cls-11" d="M494.59-228.267a1.284 1.284 0 0 0 .884.017s-.023.5-.486.489-.4-.506-.4-.506" transform="translate(-494.587 228.267)"/>
                </g>
            </g>
            <g id="그룹_3213" data-name="그룹 3213" transform="translate(2.854 4.986)">
                <g id="그룹_3212" data-name="그룹 3212">
                    <path id="패스_7529" data-name="패스 7529" class="cls-5" d="M494.627-228.23a1.252 1.252 0 0 0 .469.088 1.221 1.221 0 0 0 .414-.071s-.023.489-.471.489h-.015c-.463-.011-.4-.506-.4-.506m0-.109a.111.111 0 0 0-.053.014.108.108 0 0 0-.055.082.649.649 0 0 0 .123.466.486.486 0 0 0 .38.164h.018a.53.53 0 0 0 .5-.305.768.768 0 0 0 .079-.284v-.011a.11.11 0 0 0-.109-.111.156.156 0 0 0-.036.008 1.105 1.105 0 0 1-.375.064 1.145 1.145 0 0 1-.424-.077.121.121 0 0 0-.046-.009" transform="translate(-494.515 228.339)"/>
                </g>
            </g>
        </g>
    </g>
    <g id="그룹_3221" data-name="그룹 3221" transform="translate(75.517 135.224)">
        <g id="그룹_3220" data-name="그룹 3220" style="clip-path:url(#clip-path-2)">
            <g id="그룹_3217" data-name="그룹 3217" transform="translate(-.004 .25)">
                <g id="그룹_3216" data-name="그룹 3216">
                    <path id="패스_7530" data-name="패스 7530" class="cls-10" d="M494.584-228.017a.766.766 0 0 1 .395-.085.882.882 0 0 1 .413.108.42.42 0 0 1-.405.214.439.439 0 0 1-.4-.237" transform="translate(-494.584 228.102)"/>
                </g>
            </g>
            <g id="그룹_3219" data-name="그룹 3219" transform="translate(-.059 .194)">
                <g id="그룹_3218" data-name="그룹 3218">
                    <path id="패스_7531" data-name="패스 7531" class="cls-5" d="M495.02-227.7H495a.491.491 0 0 1-.451-.272.055.055 0 0 1 .021-.068.829.829 0 0 1 .424-.094.945.945 0 0 1 .443.118.053.053 0 0 1 .02.068.469.469 0 0 1-.44.247m-.34-.27a.4.4 0 0 0 .326.159.391.391 0 0 0 .325-.137.873.873 0 0 0-.336-.076.829.829 0 0 0-.316.053M494.6-228" transform="translate(-494.548 228.139)"/>
                </g>
            </g>
        </g>
    </g>
    <g id="그룹_3307" data-name="그룹 3307" transform="translate(72.553 130.128)">
        <g id="그룹_3306" data-name="그룹 3306" class="cls-9">
            <g id="그룹_3223" data-name="그룹 3223" transform="translate(3.908 3.898)">
                <g id="그룹_3222" data-name="그룹 3222">
                    <path id="패스_7533" data-name="패스 7533" class="cls-5" d="M495.745-228.752a.282.282 0 0 1-.272.295.284.284 0 0 1-.264-.3.283.283 0 0 1 .272-.295.284.284 0 0 1 .264.3" transform="translate(-495.209 229.056)"/>
                </g>
            </g>
            <g id="그룹_3225" data-name="그룹 3225" transform="translate(3.933 3.168)">
                <g id="그룹_3224" data-name="그룹 3224">
                    <path id="패스_7534" data-name="패스 7534" class="cls-5" d="M495.66-229.357a.053.053 0 0 1-.035-.014.284.284 0 0 0-.149-.047.311.311 0 0 0-.162.039.062.062 0 0 1-.082-.026.06.06 0 0 1 .026-.08.424.424 0 0 1 .225-.052.387.387 0 0 1 .214.07.06.06 0 0 1 .012.083.056.056 0 0 1-.049.026" transform="translate(-495.226 229.536)"/>
                </g>
            </g>
            <g id="그룹_3227" data-name="그룹 3227" transform="translate(4.021 4.033)">
                <g id="그룹_3226" data-name="그룹 3226">
                    <path id="패스_7535" data-name="패스 7535" class="cls-13" d="M495.43-228.89a.074.074 0 0 1-.076.073.074.074 0 0 1-.07-.077.074.074 0 0 1 .074-.073.076.076 0 0 1 .071.077" transform="translate(-495.284 228.967)"/>
                </g>
            </g>
            <g id="그룹_3229" data-name="그룹 3229" transform="translate(1.998 3.847)">
                <g id="그룹_3228" data-name="그룹 3228">
                    <path id="패스_7536" data-name="패스 7536" class="cls-5" d="M494.525-228.732a.323.323 0 0 1-.292.346.323.323 0 0 1-.282-.357.323.323 0 0 1 .292-.346.327.327 0 0 1 .282.357" transform="translate(-493.951 229.089)"/>
                </g>
            </g>
            <g id="그룹_3231" data-name="그룹 3231" transform="translate(2.021 3.168)">
                <g id="그룹_3230" data-name="그룹 3230">
                    <path id="패스_7537" data-name="패스 7537" class="cls-5" d="M494.4-229.357a.061.061 0 0 1-.036-.014.274.274 0 0 0-.147-.047.322.322 0 0 0-.164.039.06.06 0 0 1-.08-.026.06.06 0 0 1 .026-.08.424.424 0 0 1 .225-.052.387.387 0 0 1 .214.07.06.06 0 0 1 .012.083.058.058 0 0 1-.049.026" transform="translate(-493.967 229.536)"/>
                </g>
            </g>
            <g id="그룹_3233" data-name="그룹 3233" transform="translate(2.108 3.981)">
                <g id="그룹_3232" data-name="그룹 3232">
                    <path id="패스_7538" data-name="패스 7538" class="cls-13" d="M494.17-228.922a.074.074 0 0 1-.074.073.077.077 0 0 1-.071-.079.074.074 0 0 1 .075-.072.075.075 0 0 1 .07.079" transform="translate(-494.024 229.001)"/>
                </g>
            </g>
            <g id="그룹_3235" data-name="그룹 3235" transform="translate(5.439 1.554)">
                <g id="그룹_3234" data-name="그룹 3234">
                    <path id="패스_7539" data-name="패스 7539" class="cls-4" d="M496.218-229.925a1.226 1.226 0 0 1 1.41-.656c1.011.141 1.029 1.552.682 2.1a1.62 1.62 0 0 1 .012 1.514 1.118 1.118 0 0 1-2.071-.1" transform="translate(-496.218 230.6)"/>
                </g>
            </g>
            <g id="그룹_3237" data-name="그룹 3237" transform="translate(5.38 1.494)">
                <g id="그룹_3236" data-name="그룹 3236">
                    <path id="패스_7540" data-name="패스 7540" class="cls-3" d="M497.3-226.241h-.053a1.158 1.158 0 0 1-1.034-.786.06.06 0 0 1 .033-.077.06.06 0 0 1 .077.033 1.033 1.033 0 0 0 .928.712 1.1 1.1 0 0 0 1.034-.616 1.568 1.568 0 0 0-.009-1.454.06.06 0 0 1 0-.064 1.739 1.739 0 0 0 .061-1.471.889.889 0 0 0-.7-.534 1.157 1.157 0 0 0-1.345.616.059.059 0 0 1-.077.035.06.06 0 0 1-.035-.077 1.133 1.133 0 0 1 .308-.408 1.422 1.422 0 0 1 1.166-.284.994.994 0 0 1 .792.6 1.875 1.875 0 0 1-.047 1.556 1.675 1.675 0 0 1-.006 1.538 1.222 1.222 0 0 1-1.092.683" transform="translate(-496.179 230.639)"/>
                </g>
            </g>
            <g id="그룹_3239" data-name="그룹 3239" transform="translate(5.808 2.179)">
                <g id="그룹_3238" data-name="그룹 3238">
                    <path id="패스_7541" data-name="패스 7541" class="cls-10" d="M496.491-229.739a.782.782 0 0 1 .917-.431c.648.114.635 1.093.4 1.467a1.2 1.2 0 0 1-.02 1.051.7.7 0 0 1-1.328-.1" transform="translate(-496.461 230.188)"/>
                </g>
            </g>
            <g id="그룹_3241" data-name="그룹 3241" transform="translate(1.504 4.425)">
                <g id="그룹_3240" data-name="그룹 3240">
                    <path id="패스_7542" data-name="패스 7542" class="cls-7" d="M495.035-228.372a.213.213 0 0 1-.09.182 1.164 1.164 0 0 1-1.189.032c-.065-.032-.159-.109-.123-.219s.155-.052.3-.058a1.2 1.2 0 0 0 .46-.1c.149-.068.246-.12.307-.152a.193.193 0 0 1 .267.083c.009.015.017.032.026.05a.444.444 0 0 1 .044.178" transform="translate(-493.626 228.708)"/>
                </g>
            </g>
            <g id="그룹_3243" data-name="그룹 3243" transform="translate(1.447 4.346)">
                <g id="그룹_3242" data-name="그룹 3242">
                    <path id="패스_7543" data-name="패스 7543" class="cls-5" d="M494.429-227.926a1.382 1.382 0 0 1-.673-.141.3.3 0 0 1-.155-.159.223.223 0 0 1 0-.147c.041-.124.146-.115.237-.108a.673.673 0 0 0 .111.006 1.179 1.179 0 0 0 .442-.093 3.1 3.1 0 0 0 .343-.178l.015-.008c.032-.02.07 0 .079.046a.074.074 0 0 1-.029.077l-.014.009c-.055.032-.146.085-.352.182a1.236 1.236 0 0 1-.48.1.791.791 0 0 1-.123 0c-.093-.009-.114 0-.123.02a.052.052 0 0 0 0 .043.179.179 0 0 0 .091.085 1.17 1.17 0 0 0 1.2-.064.053.053 0 0 1 .076.024.074.074 0 0 1-.02.1 1.245 1.245 0 0 1-.625.214" transform="translate(-493.588 228.761)"/>
                </g>
            </g>
            <g id="그룹_3245" data-name="그룹 3245" transform="translate(1.127 3.717)">
                <g id="그룹_3244" data-name="그룹 3244">
                    <path id="패스_7544" data-name="패스 7544" class="cls-4" d="M495.281-229.069s-.677 1.11-1.491-.068a.087.087 0 0 0-.118-.024l-.255.149c-.039.024-.039.071-.038.118.018.437 1.372 1.936 2.664.8" transform="translate(-493.378 229.175)"/>
                </g>
            </g>
            <g id="그룹_3247" data-name="그룹 3247" transform="translate(1.066 3.655)">
                <g id="그룹_3246" data-name="그룹 3246">
                    <path id="패스_7545" data-name="패스 7545" class="cls-5" d="M495.054-227.592a1.572 1.572 0 0 1-.63-.137 2.245 2.245 0 0 1-.771-.565 1.121 1.121 0 0 1-.314-.578.176.176 0 0 1 .067-.173l.255-.149a.15.15 0 0 1 .2.043c.241.349.489.521.738.513a.947.947 0 0 0 .648-.443.062.062 0 0 1 .085-.021.064.064 0 0 1 .021.087 1.055 1.055 0 0 1-.752.5 1.058 1.058 0 0 1-.844-.568.025.025 0 0 0-.035-.008l-.255.149c-.008 0-.008.032-.008.062a1.776 1.776 0 0 0 1.013 1.034 1.394 1.394 0 0 0 1.549-.275.063.063 0 0 1 .088.006.063.063 0 0 1-.006.088 1.564 1.564 0 0 1-1.051.431" transform="translate(-493.338 229.216)"/>
                </g>
            </g>
            <g id="그룹_3249" data-name="그룹 3249" transform="translate(2.661 4.115)">
                <g id="그룹_3248" data-name="그룹 3248">
                    <path id="패스_7546" data-name="패스 7546" class="cls-3" d="M494.822-228.535a.065.065 0 0 1-.061-.044c-.059-.188-.313-.211-.316-.211a.062.062 0 0 1-.058-.065.063.063 0 0 1 .067-.058.491.491 0 0 1 .427.3.063.063 0 0 1-.041.079h-.018" transform="translate(-494.388 228.913)"/>
                </g>
            </g>
            <g id="그룹_3251" data-name="그룹 3251" transform="translate(2.341 4.233)">
                <g id="그룹_3250" data-name="그룹 3250">
                    <path id="패스_7547" data-name="패스 7547" class="cls-3" d="M494.482-228.42a.06.06 0 0 1-.059-.044.384.384 0 0 0-.2-.25.063.063 0 0 1-.038-.079.063.063 0 0 1 .081-.038.5.5 0 0 1 .281.329.063.063 0 0 1-.039.079h-.02" transform="translate(-494.177 228.835)"/>
                </g>
            </g>
            <g id="그룹_3253" data-name="그룹 3253" transform="translate(1.975 4.178)">
                <g id="그룹_3252" data-name="그룹 3252">
                    <path id="패스_7548" data-name="패스 7548" class="cls-3" d="M494.06-228.382h-.021a.064.064 0 0 1-.038-.08.333.333 0 0 0-.052-.3.063.063 0 0 1 .011-.088.06.06 0 0 1 .087.011.461.461 0 0 1 .071.424.059.059 0 0 1-.058.041" transform="translate(-493.936 228.871)"/>
                </g>
            </g>
            <g id="그룹_3255" data-name="그룹 3255" transform="translate(.551 3.335)">
                <g id="그룹_3254" data-name="그룹 3254">
                    <path id="패스_7549" data-name="패스 7549" class="cls-4" d="M493.971-229.005s.131-.331-.123-.41-.258.252-.258.252-.393-.355-.547-.073c-.165.3.144.615.548.509" transform="translate(-492.998 229.427)"/>
                </g>
            </g>
            <g id="그룹_3257" data-name="그룹 3257" transform="translate(.489 3.272)">
                <g id="그룹_3256" data-name="그룹 3256">
                    <path id="패스_7550" data-name="패스 7550" class="cls-5" d="M493.455-228.622a.52.52 0 0 1-.414-.184.392.392 0 0 1-.03-.439.259.259 0 0 1 .182-.138.569.569 0 0 1 .374.125.3.3 0 0 1 .106-.17.232.232 0 0 1 .216-.024.261.261 0 0 1 .17.14.5.5 0 0 1-.008.352.063.063 0 0 1-.082.035.064.064 0 0 1-.035-.08.363.363 0 0 0 .012-.252.141.141 0 0 0-.094-.074.111.111 0 0 0-.106.006.269.269 0 0 0-.071.187.064.064 0 0 1-.036.056.066.066 0 0 1-.067-.011c-.059-.053-.237-.185-.357-.164a.122.122 0 0 0-.093.073.265.265 0 0 0 .018.3.436.436 0 0 0 .457.118.063.063 0 0 1 .077.044.064.064 0 0 1-.044.076.708.708 0 0 1-.175.023" transform="translate(-492.957 229.468)"/>
                </g>
            </g>
            <g id="그룹_3259" data-name="그룹 3259" transform="translate(2.703 4.458)">
                <g id="그룹_3258" data-name="그룹 3258">
                    <path id="패스_7551" data-name="패스 7551" class="cls-7" d="M495.7-228.368a.226.226 0 0 1-.071.188 1 1 0 0 1-1.086.118.179.179 0 0 1-.123-.206c.027-.112.138-.062.269-.081a1.044 1.044 0 0 0 .416-.131c.132-.08.219-.138.272-.176a.168.168 0 0 1 .249.065c.009.014.017.03.026.047a.444.444 0 0 1 .049.175" transform="translate(-494.415 228.687)"/>
                </g>
            </g>
            <g id="그룹_3261" data-name="그룹 3261" transform="translate(2.622 4.382)">
                <g id="그룹_3260" data-name="그룹 3260">
                    <path id="패스_7552" data-name="패스 7552" class="cls-5" d="M495.179-227.879a1.161 1.161 0 0 1-.622-.09c-.033-.014-.144-.049-.179-.14a.255.255 0 0 1-.008-.147c.03-.128.156-.134.24-.132a.573.573 0 0 0 .1 0 1 1 0 0 0 .4-.126 2.9 2.9 0 0 0 .3-.2l.012-.008a.056.056 0 0 1 .088.032.063.063 0 0 1-.023.07l-.012.008a3.04 3.04 0 0 1-.325.225 1.061 1.061 0 0 1-.433.137.572.572 0 0 1-.112 0c-.085 0-.1 0-.111.03a.048.048 0 0 0 0 .041.158.158 0 0 0 .088.079 1.01 1.01 0 0 0 1.095-.155.048.048 0 0 1 .071.018.087.087 0 0 1-.014.1 1.14 1.14 0 0 1-.562.257" transform="translate(-494.362 228.737)"/>
                </g>
            </g>
            <g id="그룹_3263" data-name="그룹 3263" transform="translate(3.234 6.217)">
                <g id="그룹_3262" data-name="그룹 3262">
                    <path id="패스_7553" data-name="패스 7553" class="cls-7" d="m494.765-227.129.266-.275s.691-.083.914-.124l-.322.692-.565-.458-.176.194" transform="translate(-494.765 227.528)"/>
                </g>
            </g>
            <g id="그룹_3265" data-name="그룹 3265" transform="translate(3.173 6.157)">
                <g id="그룹_3264" data-name="그룹 3264">
                    <path id="패스_7554" data-name="패스 7554" class="cls-3" d="M495.642-226.754a.062.062 0 0 1-.038-.014l-.519-.422-.137.152a.062.062 0 0 1-.085 0 .062.062 0 0 1-.02-.046l-.015.012a.057.057 0 0 1-.085 0 .06.06 0 0 1 0-.085l.266-.275a.063.063 0 0 1 .036-.017c.006 0 .691-.085.908-.125a.059.059 0 0 1 .059.023.061.061 0 0 1 .008.062l-.323.692a.062.062 0 0 1-.039.033h-.015m-.537-.574.014.009.5.408.241-.518c-.235.035-.625.083-.758.1" transform="translate(-494.725 227.568)"/>
                </g>
            </g>
            <g id="그룹_3267" data-name="그룹 3267" transform="translate(3.209 6.708)">
                <g id="그룹_3266" data-name="그룹 3266">
                    <path id="패스_7555" data-name="패스 7555" class="cls-7" d="M494.786-227.205a12.863 12.863 0 0 0 .039 2.326" transform="translate(-494.749 227.205)"/>
                </g>
            </g>
            <g id="그룹_3269" data-name="그룹 3269" transform="translate(3.146 6.644)">
                <g id="그룹_3268" data-name="그룹 3268">
                    <path id="패스_7556" data-name="패스 7556" class="cls-3" d="M494.846-224.793a.062.062 0 0 1-.062-.053 12.9 12.9 0 0 1-.039-2.341.063.063 0 0 1 .067-.059.064.064 0 0 1 .059.068 12.878 12.878 0 0 0 .039 2.312.066.066 0 0 1-.053.073h-.011" transform="translate(-494.708 227.247)"/>
                </g>
            </g>
            <g id="그룹_3271" data-name="그룹 3271" transform="translate(2.102 6.129)">
                <g id="그룹_3270" data-name="그룹 3270">
                    <path id="패스_7557" data-name="패스 7557" class="cls-7" d="m495.165-227.1-.244-.293s-.682-.137-.9-.2l.267.717.6-.413.159.206" transform="translate(-494.02 227.586)"/>
                </g>
            </g>
            <g id="그룹_3273" data-name="그룹 3273" transform="translate(2.041 6.07)">
                <g id="그룹_3272" data-name="그룹 3272">
                    <path id="패스_7558" data-name="패스 7558" class="cls-3" d="M494.308-226.788h-.018a.059.059 0 0 1-.038-.038l-.269-.715a.063.063 0 0 1 .012-.062.063.063 0 0 1 .061-.017c.214.058.89.193.9.2a.051.051 0 0 1 .035.02l.244.295a.06.06 0 0 1-.008.085.062.062 0 0 1-.085-.009l-.014-.015a.053.053 0 0 1-.023.044.059.059 0 0 1-.085-.011l-.125-.162-.55.381a.06.06 0 0 1-.035.012m-.172-.691.2.534.534-.367.014-.008c-.132-.026-.516-.1-.748-.159" transform="translate(-493.98 227.625)"/>
                </g>
            </g>
            <g id="그룹_3275" data-name="그룹 3275" transform="translate(4.454 5.926)">
                <g id="그룹_3274" data-name="그룹 3274">
                    <path id="패스_7559" data-name="패스 7559" class="cls-7" d="M495.569-226.5a1.692 1.692 0 0 1 .36 1.271 3.374 3.374 0 0 0 1.14-.065 2.993 2.993 0 0 0-.824-2.426" transform="translate(-495.569 227.72)"/>
                </g>
            </g>
            <g id="그룹_3277" data-name="그룹 3277" transform="translate(4.394 5.865)">
                <g id="그룹_3276" data-name="그룹 3276">
                    <path id="패스_7560" data-name="패스 7560" class="cls-3" d="M496.371-225.126a3.567 3.567 0 0 1-.43-.023.059.059 0 0 1-.052-.065 1.657 1.657 0 0 0-.343-1.222.062.062 0 0 1 0-.087.062.062 0 0 1 .087 0 1.717 1.717 0 0 1 .38 1.256 3.26 3.26 0 0 0 1.022-.056 2.98 2.98 0 0 0-.814-2.34.06.06 0 0 1 0-.085.061.061 0 0 1 .085 0 3.08 3.08 0 0 1 .84 2.479.061.061 0 0 1-.043.047 2.71 2.71 0 0 1-.735.09" transform="translate(-495.529 227.76)"/>
                </g>
            </g>
            <g id="그룹_3279" data-name="그룹 3279" transform="translate(1.657 7.08)">
                <g id="그룹_3278" data-name="그룹 3278">
                    <path id="패스_7561" data-name="패스 7561" class="cls-7" d="M493.929-226.96a6.716 6.716 0 0 0-.169 2.119" transform="translate(-493.727 226.96)"/>
                </g>
            </g>
            <g id="그룹_3281" data-name="그룹 3281" transform="translate(1.586 7.03)">
                <g id="그룹_3280" data-name="그룹 3280">
                    <path id="패스_7562" data-name="패스 7562" class="cls-3" d="M493.774-224.754a.058.058 0 0 1-.059-.052 6.66 6.66 0 0 1 .169-2.142.058.058 0 0 1 .073-.043.06.06 0 0 1 .046.073 6.62 6.62 0 0 0-.168 2.1.06.06 0 0 1-.05.068h-.009" transform="translate(-493.68 226.993)"/>
                </g>
            </g>
            <g id="그룹_3283" data-name="그룹 3283" transform="translate(4.89 8.593)">
                <g id="그룹_3282" data-name="그룹 3282">
                    <path id="패스_7563" data-name="패스 7563" class="cls-4" d="M495.885-225.963c-.035.175-.061.424.061.462.206.065.237-.276.237-.276" transform="translate(-495.856 225.963)"/>
                </g>
            </g>
            <g id="그룹_3285" data-name="그룹 3285" transform="translate(4.83 8.533)">
                <g id="그룹_3284" data-name="그룹 3284">
                    <path id="패스_7564" data-name="패스 7564" class="cls-3" d="M496.016-225.413a.262.262 0 0 1-.067-.009c-.131-.041-.165-.22-.1-.531a.062.062 0 0 1 .071-.049.062.062 0 0 1 .049.071c-.05.252-.027.378.018.392a.067.067 0 0 0 .068-.006c.062-.041.087-.173.091-.217a.062.062 0 0 1 .065-.056.062.062 0 0 1 .055.067.452.452 0 0 1-.144.308.175.175 0 0 1-.1.03" transform="translate(-495.816 226.003)"/>
                </g>
            </g>
            <g id="그룹_3287" data-name="그룹 3287" transform="translate(5.184 8.516)">
                <g id="그룹_3286" data-name="그룹 3286">
                    <path id="패스_7565" data-name="패스 7565" class="cls-4" d="M496.065-225.832s-.112.4.264.416c.3.014.386-.307.372-.6" transform="translate(-496.05 226.014)"/>
                </g>
            </g>
            <g id="그룹_3289" data-name="그룹 3289" transform="translate(5.123 8.455)">
                <g id="그룹_3288" data-name="그룹 3288">
                    <path id="패스_7566" data-name="패스 7566" class="cls-3" d="M496.368-225.333h-.021a.346.346 0 0 1-.275-.129.47.47 0 0 1-.044-.364.057.057 0 0 1 .073-.041.059.059 0 0 1 .043.073.358.358 0 0 0 .027.261.222.222 0 0 0 .181.08.235.235 0 0 0 .188-.068.642.642 0 0 0 .123-.468.061.061 0 0 1 .058-.064.058.058 0 0 1 .062.058.745.745 0 0 1-.158.56.35.35 0 0 1-.257.1" transform="translate(-496.01 226.054)"/>
                </g>
            </g>
            <g id="그룹_3291" data-name="그룹 3291" transform="translate(2.908 7.658)">
                <g id="그룹_3290" data-name="그룹 3290">
                    <path id="사각형_1603" data-name="사각형 1603" class="cls-7" d="M0 0h.658v.878H0z"/>
                </g>
            </g>
            <g id="그룹_3293" data-name="그룹 3293" transform="translate(2.822 7.573)">
                <g id="그룹_3292" data-name="그룹 3292">
                    <path id="패스_7567" data-name="패스 7567" class="cls-3" d="M495.238-225.672h-.657v-.878h.657zm0-.963h-.657a.085.085 0 0 0-.087.085v.878a.085.085 0 0 0 .087.085h.657a.085.085 0 0 0 .085-.085v-.878a.085.085 0 0 0-.085-.085" transform="translate(-494.494 226.635)"/>
                </g>
            </g>
            <g id="그룹_3295" data-name="그룹 3295" transform="translate(3.073 7.768)">
                <g id="그룹_3294" data-name="그룹 3294">
                    <path id="사각형_1604" data-name="사각형 1604" class="cls-7" d="M0 0h.342v.439H0z"/>
                </g>
            </g>
            <g id="그룹_3297" data-name="그룹 3297" transform="translate(3.03 7.727)">
                <g id="그룹_3296" data-name="그룹 3296">
                    <path id="패스_7568" data-name="패스 7568" class="cls-3" d="M495.015-226.053h-.342v-.439h.342zm0-.481h-.342a.041.041 0 0 0-.042.043v.439a.041.041 0 0 0 .042.043h.342a.041.041 0 0 0 .042-.043v-.439a.041.041 0 0 0-.042-.043" transform="translate(-494.631 226.534)"/>
                </g>
            </g>
            <g id="그룹_3299" data-name="그룹 3299" transform="translate(3.067 8.326)">
                <g id="그룹_3298" data-name="그룹 3298">
                    <path id="선_435" data-name="선 435" class="cls-7" d="M0 0h.361"/>
                </g>
            </g>
            <g id="그룹_3301" data-name="그룹 3301" transform="translate(3.045 8.305)">
                <g id="그룹_3300" data-name="그룹 3300">
                    <path id="패스_7569" data-name="패스 7569" class="cls-3" d="M495.024-226.11h-.361a.022.022 0 0 1-.021-.02.023.023 0 0 1 .021-.023h.361a.023.023 0 0 1 .021.023.022.022 0 0 1-.021.02" transform="translate(-494.641 226.153)"/>
                </g>
            </g>
            <g id="그룹_3303" data-name="그룹 3303" transform="translate(3.067 8.421)">
                <g id="그룹_3302" data-name="그룹 3302">
                    <path id="선_436" data-name="선 436" class="cls-7" d="M0 0h.361"/>
                </g>
            </g>
            <g id="그룹_3305" data-name="그룹 3305" transform="translate(3.045 8.399)">
                <g id="그룹_3304" data-name="그룹 3304">
                    <path id="패스_7570" data-name="패스 7570" class="cls-3" d="M495.024-226.047h-.361a.023.023 0 0 1-.021-.021.023.023 0 0 1 .021-.023h.361a.023.023 0 0 1 .021.023.023.023 0 0 1-.021.021" transform="translate(-494.641 226.091)"/>
                </g>
            </g>
        </g>
    </g>
    <g id="그룹_3312" data-name="그룹 3312" transform="translate(43.603 96.243)">
        <g id="그룹_3309" data-name="그룹 3309" transform="translate(.838 .843)">
            <g id="그룹_3308" data-name="그룹 3308">
                <path id="패스_7571" data-name="패스 7571" class="cls-2" d="M475.691-214.405a.843.843 0 0 1-.832-.77c-3.1-35.025 4.5-37.968 5.379-38.186a.774.774 0 0 1 .2-.026.786.786 0 0 1 .146.012l5.054.888a.843.843 0 0 1 .694.745.843.843 0 0 1-.531.87c-4.11 1.609-7.866 22.76-9.267 35.713a.845.845 0 0 1-.84.753z" transform="translate(-474.119 253.387)"/>
            </g>
        </g>
        <g id="그룹_3311" data-name="그룹 3311">
            <g id="그룹_3310" data-name="그룹 3310">
                <path id="패스_7572" data-name="패스 7572" class="cls-3" d="m480.729-252.257 5.054.888c-6.118 2.394-9.8 36.407-9.8 36.407-3.131-35.32 4.743-37.3 4.743-37.3m0-1.685a1.691 1.691 0 0 0-.41.05c-1.549.387-9.114 4.1-6.014 39.081a1.684 1.684 0 0 0 1.664 1.536h.017a1.686 1.686 0 0 0 1.676-1.5c1.717-15.87 5.546-33.77 8.736-35.019a1.687 1.687 0 0 0 1.064-1.738 1.687 1.687 0 0 0-1.388-1.492l-5.054-.888a1.719 1.719 0 0 0-.292-.024z" transform="translate(-473.567 253.942)"/>
            </g>
        </g>
    </g>
    <g id="그룹_3315" data-name="그룹 3315" transform="translate(54.821 96.831)">
        <g id="그룹_3313" data-name="그룹 3313" transform="translate(1.1 1.101)">
            <path id="패스_7573" data-name="패스 7573" class="cls-7" d="m481.68-251.938 2.262 11.044 17.163-9.181-7.69-2.755z" transform="translate(-481.68 252.83)"/>
        </g>
        <g id="그룹_3314" data-name="그룹 3314">
            <path id="패스_7574" data-name="패스 7574" class="cls-3" d="M484.318-239.419a1.086 1.086 0 0 1-.466-.1 1.1 1.1 0 0 1-.61-.774l-2.264-11.045a1.1 1.1 0 0 1 .2-.884 1.094 1.094 0 0 1 .794-.433l11.736-.893a1.072 1.072 0 0 1 .454.061l7.69 2.756a1.1 1.1 0 0 1 .726.955 1.1 1.1 0 0 1-.577 1.051l-17.164 9.181a1.1 1.1 0 0 1-.519.125zm-.935-11.141 1.717 8.378 13.678-7.318-5.136-1.84z" transform="translate(-480.955 253.555)"/>
        </g>
    </g>
    <g id="그룹_3318" data-name="그룹 3318" transform="translate(76.019 96.92)">
        <g id="그룹_3316" data-name="그룹 3316" transform="translate(1.099 1.1)">
            <path id="패스_7575" data-name="패스 7575" class="cls-7" d="m515.068-251.88-2.262 11.043-17.163-9.18 7.69-2.755z" transform="translate(-495.642 252.772)"/>
        </g>
        <g id="그룹_3317" data-name="그룹 3317">
            <path id="패스_7576" data-name="패스 7576" class="cls-3" d="M513.181-239.363a1.1 1.1 0 0 1-.519-.129l-17.162-9.181a1.1 1.1 0 0 1-.577-1.051 1.1 1.1 0 0 1 .726-.955l7.69-2.754a1.123 1.123 0 0 1 .454-.061l11.736.893a1.094 1.094 0 0 1 .794.433 1.1 1.1 0 0 1 .2.884l-2.264 11.044a1.094 1.094 0 0 1-.609.774 1.1 1.1 0 0 1-.469.103zm-14.458-10.079 13.676 7.316 1.717-8.376-10.259-.78z" transform="translate(-494.918 253.496)"/>
        </g>
    </g>
    <g id="그룹_3321" data-name="그룹 3321" transform="translate(0 4.815)">
        <g id="그룹_3319" data-name="그룹 3319" transform="translate(1.116 1.095)">
            <path id="패스_7577" data-name="패스 7577" class="cls-4" d="M491.006-300.09s-6.03-16.01-27.89-12.967c-20.015 2.786-20.373 30.7-13.509 41.473a32.024 32.024 0 0 0-.22 29.923c8.179 16.5 33.02 18.449 40.945-1.978" transform="translate(-445.582 313.441)"/>
        </g>
        <g id="그룹_3320" data-name="그룹 3320">
            <path id="패스_7578" data-name="패스 7578" class="cls-3" d="M470.3-227.329a24.087 24.087 0 0 1-21.512-13.47 33.067 33.067 0 0 1-.074-30.4c-4.136-7.076-5.669-20.534-.967-30.714 3.129-6.776 8.523-10.878 15.6-11.863 11.692-1.629 18.967 2.144 23.009 5.595a21.885 21.885 0 0 1 6.061 8.072 1.1 1.1 0 0 1-.639 1.415 1.1 1.1 0 0 1-1.418-.638c-.235-.619-6.038-15.138-26.709-12.266a17.585 17.585 0 0 0-13.91 10.606c-4.379 9.48-2.927 22.745 1.177 29.185a1.1 1.1 0 0 1 .006 1.174 31.208 31.208 0 0 0-.167 28.854 21.881 21.881 0 0 0 20.507 12.225c8.378-.378 15.093-5.522 18.425-14.113a1.1 1.1 0 0 1 1.424-.627 1.1 1.1 0 0 1 .627 1.424c-3.609 9.3-11.226 15.1-20.376 15.513-.364.019-.715.028-1.064.028z" transform="translate(-444.847 314.162)"/>
        </g>
    </g>
    <g id="그룹_3323" data-name="그룹 3323" transform="translate(10.673 18.774)">
        <g id="그룹_3322" data-name="그룹 3322">
            <path id="패스_7579" data-name="패스 7579" class="cls-10" d="M480.863-296.06s-4.168-11.015-18.161-8.548c-12.815 2.258-12.537 21.638-7.928 29.006a23.777 23.777 0 0 0 .4 20.774c5.557 11.318 21.559 12.272 26.28-2.034" transform="translate(-451.876 304.968)"/>
        </g>
    </g>
    <g id="그룹_3326" data-name="그룹 3326" transform="translate(28.575)">
        <g id="그룹_3324" data-name="그룹 3324" transform="translate(1.101 1.099)">
            <path id="패스_7580" data-name="패스 7580" class="cls-4" d="M511.9-217.166c37.486.458 49.74-15.39 53.3-26.707 2.66-8.45.632-14.423.632-14.423 0-50.274-32.413-58.313-51.358-58.313-17.608 0-49.323 8.039-49.323 57.808a48.777 48.777 0 0 0-.575 12.67c.744 7.825 5.487 28.458 47.325 28.966" transform="translate(-464.393 316.61)"/>
        </g>
        <g id="그룹_3325" data-name="그룹 3325">
            <path id="패스_7581" data-name="패스 7581" class="cls-3" d="M513.86-215.681c-.528 0-1.06 0-1.6-.011-39.685-.483-47.361-18.979-48.4-29.962a49.631 49.631 0 0 1 .571-12.879c.047-53.068 35.271-58.8 50.422-58.8 15.756 0 52.382 5.775 52.458 59.244.334 1.114 1.826 6.952-.682 14.921-3.253 10.326-14.435 27.485-52.769 27.487zm.99-99.454c-14.5 0-48.223 5.526-48.223 56.709a1.017 1.017 0 0 1-.021.216 48.191 48.191 0 0 0-.559 12.349c2.268 23.876 29.945 27.773 46.242 27.972 38.229.452 49.128-16.051 52.239-25.937 2.507-7.966.657-13.687.638-13.743a1.147 1.147 0 0 1-.056-.351c0-49.78-31.49-57.216-50.26-57.216z" transform="translate(-463.668 317.334)"/>
        </g>
    </g>
    <g id="그룹_3328" data-name="그룹 3328" transform="translate(68.017 73.319)">
        <g id="그룹_3327" data-name="그룹 3327">
            <path id="패스_7582" data-name="패스 7582" class="cls-5" d="M500.984-263.878c-7.8 0-10.863-3.137-11.044-3.332a1.087 1.087 0 0 1 .053-1.538 1.086 1.086 0 0 1 1.53.046c.1.1 6.043 5.853 23.168.029a1.089 1.089 0 0 1 1.382.68 1.089 1.089 0 0 1-.679 1.382 45.146 45.146 0 0 1-14.411 2.734" transform="translate(-489.647 269.041)"/>
        </g>
    </g>
    <g id="그룹_3330" data-name="그룹 3330" transform="translate(70.613 77.482)">
        <g id="그룹_3329" data-name="그룹 3329">
            <path id="패스_7583" data-name="패스 7583" class="cls-11" d="M491.421-266.3a25.3 25.3 0 0 0 17.47.314s-.451 9.9-9.609 9.689-7.861-10-7.861-10" transform="translate(-491.357 266.299)"/>
        </g>
    </g>
    <g id="그룹_3332" data-name="그룹 3332" transform="translate(68.439 75.308)">
        <g id="그룹_3331" data-name="그룹 3331">
            <path id="패스_7584" data-name="패스 7584" class="cls-5" d="M492.163-265.557a24.791 24.791 0 0 0 9.27 1.725 24.12 24.12 0 0 0 8.2-1.41s-.443 9.692-9.319 9.692h-.29c-9.159-.214-7.861-10-7.861-10m0-2.174a2.176 2.176 0 0 0-1.067.279 2.181 2.181 0 0 0-1.096 1.603c-.029.226-.7 5.573 2.435 9.232a9.737 9.737 0 0 0 7.533 3.232h.342a10.5 10.5 0 0 0 9.932-6.044 15.756 15.756 0 0 0 1.553-5.608 2.064 2.064 0 0 0 .012-.217 2.175 2.175 0 0 0-2.164-2.177h-.091a2.182 2.182 0 0 0-.707.143 21.935 21.935 0 0 1-7.417 1.266 22.946 22.946 0 0 1-8.387-1.536 2.173 2.173 0 0 0-.881-.185" transform="translate(-489.925 267.731)"/>
        </g>
    </g>
    <g id="그룹_3338" data-name="그룹 3338" transform="translate(70.613 77.482)">
        <g id="그룹_3337" data-name="그룹 3337" style="clip-path:url(#clip-path-4)">
            <g id="그룹_3334" data-name="그룹 3334" transform="translate(-.088 4.932)">
                <g id="그룹_3333" data-name="그룹 3333">
                    <path id="패스_7585" data-name="패스 7585" class="cls-10" d="M491.3-261.36a15.152 15.152 0 0 1 7.784-1.685 17.745 17.745 0 0 1 8.192 2.156s-1.992 4.362-8.031 4.221a8.637 8.637 0 0 1-7.945-4.691" transform="translate(-491.299 263.05)"/>
                </g>
            </g>
            <g id="그룹_3336" data-name="그룹 3336" transform="translate(-1.177 3.842)">
                <g id="그룹_3335" data-name="그룹 3335">
                    <path id="패스_7586" data-name="패스 7586" class="cls-5" d="M499.905-255.207h-.317c-6.668-.156-8.832-5.145-8.921-5.358a1.09 1.09 0 0 1 .431-1.347 16.2 16.2 0 0 1 8.382-1.849 18.762 18.762 0 0 1 8.736 2.318 1.088 1.088 0 0 1 .421 1.38c-.093.2-2.294 4.858-8.731 4.858m-6.7-5.312a7.811 7.811 0 0 0 6.434 3.134 7.622 7.622 0 0 0 6.437-2.708 17.591 17.591 0 0 0-6.65-1.492 15.632 15.632 0 0 0-6.222 1.067m-1.536-.469z" transform="translate(-490.582 263.768)"/>
                </g>
            </g>
        </g>
    </g>
    <g id="그룹_3340" data-name="그룹 3340" transform="translate(89.276 53.764)">
        <g id="그룹_3339" data-name="그룹 3339">
            <path id="패스_7588" data-name="패스 7588" class="cls-5" d="M514.272-275.9c-.044 3.278-2.457 5.9-5.388 5.851s-5.276-2.74-5.233-6.02 2.455-5.9 5.388-5.851 5.276 2.74 5.233 6.02" transform="translate(-503.65 281.921)"/>
        </g>
    </g>
    <g id="그룹_3342" data-name="그룹 3342" transform="translate(89.788 39.342)">
        <g id="그룹_3341" data-name="그룹 3341">
            <path id="패스_7589" data-name="패스 7589" class="cls-5" d="M512.592-287.868a1.171 1.171 0 0 1-.7-.229 5.247 5.247 0 0 0-2.929-.944 6.029 6.029 0 0 0-3.249.783 1.186 1.186 0 0 1-1.6-.513 1.188 1.188 0 0 1 .515-1.6 8.428 8.428 0 0 1 4.438-1.042 7.577 7.577 0 0 1 4.224 1.4 1.186 1.186 0 0 1 .255 1.658 1.182 1.182 0 0 1-.956.484" transform="translate(-503.987 291.421)"/>
        </g>
    </g>
    <g id="그룹_3344" data-name="그룹 3344" transform="translate(91.527 56.448)">
        <g id="그룹_3343" data-name="그룹 3343">
            <path id="패스_7590" data-name="패스 7590" class="cls-13" d="M508.013-278.61a1.465 1.465 0 0 1-1.489 1.442 1.472 1.472 0 0 1-1.391-1.543 1.464 1.464 0 0 1 1.489-1.442 1.473 1.473 0 0 1 1.391 1.543" transform="translate(-505.133 280.154)"/>
        </g>
    </g>
    <g id="그룹_3346" data-name="그룹 3346" transform="translate(51.507 52.803)">
        <g id="그룹_3345" data-name="그룹 3345">
            <path id="패스_7591" data-name="패스 7591" class="cls-5" d="M490.111-275.5c-.047 3.841-2.622 6.911-5.754 6.858s-5.631-3.21-5.584-7.052 2.622-6.911 5.753-6.858 5.631 3.21 5.586 7.052" transform="translate(-478.773 282.554)"/>
        </g>
    </g>
    <g id="그룹_3348" data-name="그룹 3348" transform="translate(51.977 39.342)">
        <g id="그룹_3347" data-name="그룹 3347">
            <path id="패스_7592" data-name="패스 7592" class="cls-5" d="M487.687-287.868a1.17 1.17 0 0 1-.7-.229 5.255 5.255 0 0 0-2.929-.944 6.024 6.024 0 0 0-3.249.783 1.188 1.188 0 0 1-1.6-.513 1.189 1.189 0 0 1 .515-1.6 8.438 8.438 0 0 1 4.439-1.042 7.585 7.585 0 0 1 4.224 1.4 1.185 1.185 0 0 1 .253 1.658 1.182 1.182 0 0 1-.956.484" transform="translate(-479.082 291.421)"/>
        </g>
    </g>
    <g id="그룹_3350" data-name="그룹 3350" transform="translate(53.711 55.439)">
        <g id="그룹_3349" data-name="그룹 3349">
            <path id="패스_7593" data-name="패스 7593" class="cls-13" d="M483.105-279.275a1.463 1.463 0 0 1-1.488 1.442 1.473 1.473 0 0 1-1.392-1.543 1.464 1.464 0 0 1 1.489-1.442 1.472 1.472 0 0 1 1.391 1.543" transform="translate(-480.225 280.819)"/>
        </g>
    </g>
    <g id="그룹_3353" data-name="그룹 3353" transform="translate(118.478 6.325)">
        <g id="그룹_3351" data-name="그룹 3351" transform="translate(1.1 1.097)">
            <path id="패스_7594" data-name="패스 7594" class="cls-4" d="M523.609-299.1s6.03-16.008 27.888-12.966c20.016 2.787 20.375 30.7 13.511 41.473a32.025 32.025 0 0 1 .219 29.924c-8.177 16.5-33.018 18.448-40.943-1.978" transform="translate(-523.609 312.445)"/>
        </g>
        <g id="그룹_3352" data-name="그룹 3352">
            <path id="패스_7595" data-name="패스 7595" class="cls-3" d="M545.076-226.332c-.355 0-.709-.008-1.066-.024-9.15-.411-16.767-6.213-20.376-15.513a1.1 1.1 0 0 1 .627-1.424 1.1 1.1 0 0 1 1.423.629c3.334 8.59 10.049 13.734 18.425 14.112a21.87 21.87 0 0 0 20.508-12.225 31.209 31.209 0 0 0-.167-28.854 1.1 1.1 0 0 1 .006-1.172c4.1-6.44 5.555-19.705 1.177-29.186a17.587 17.587 0 0 0-13.912-10.611c-20.669-2.88-26.472 11.648-26.709 12.267a1.1 1.1 0 0 1-1.416.638 1.1 1.1 0 0 1-.641-1.415c.064-.167 6.6-16.8 29.069-13.667 7.08.985 12.475 5.088 15.6 11.863 4.7 10.18 3.169 23.639-.969 30.714a33.069 33.069 0 0 1-.073 30.4 24.087 24.087 0 0 1-21.506 13.468z" transform="translate(-522.884 313.168)"/>
        </g>
    </g>
    <g id="그룹_3355" data-name="그룹 3355" transform="translate(126.874 19.783)">
        <g id="그룹_3354" data-name="그룹 3354">
            <path id="패스_7596" data-name="패스 7596" class="cls-10" d="M529.008-295.4s4.167-11.015 18.161-8.549c12.814 2.258 12.537 21.636 7.928 29.006a23.778 23.778 0 0 1-.4 20.775c-5.555 11.318-21.559 12.272-26.279-2.036" transform="translate(-528.414 304.304)"/>
        </g>
    </g>
    <g id="그룹_3357" data-name="그룹 3357" transform="translate(41.743 64.213)">
        <g id="그룹_3356" data-name="그룹 3356">
            <path id="패스_7597" data-name="패스 7597" class="cls-7" d="M500.2-268.374a4.16 4.16 0 0 1-1.75 3.586c-3.8 2.488-11.879 6.079-23.5.616-1.316-.616-3.161-2.139-2.45-4.281.726-2.186 3.058-1.035 5.882-1.155a24 24 0 0 0 9.108-1.918c2.942-1.371 4.852-2.361 6.061-3.03a3.837 3.837 0 0 1 5.285 1.673c.167.3.334.622.5.982a8.719 8.719 0 0 1 .867 3.527" transform="translate(-472.341 275.039)"/>
        </g>
    </g>
    <g id="그룹_3359" data-name="그룹 3359" transform="translate(40.613 62.65)">
        <g id="그룹_3358" data-name="그룹 3358">
            <path id="패스_7598" data-name="패스 7598" class="cls-5" d="M488.226-259.575a27.382 27.382 0 0 1-13.3-2.8 5.96 5.96 0 0 1-3.071-3.138 4.409 4.409 0 0 1-.021-2.921c.82-2.469 2.877-2.277 4.691-2.106a16.146 16.146 0 0 0 2.2.1 23.035 23.035 0 0 0 8.74-1.828 69.451 69.451 0 0 0 6.773-3.506c.1-.058.193-.114.281-.164a1.092 1.092 0 0 1 1.581.882v.024a1.443 1.443 0 0 1-.594 1.543l-.267.158a71.833 71.833 0 0 1-6.953 3.6 24.574 24.574 0 0 1-9.474 2.009 17.715 17.715 0 0 1-2.452-.108c-1.823-.173-2.256-.1-2.426.413a1.19 1.19 0 0 0 0 .826 3.573 3.573 0 0 0 1.814 1.682c11.346 5.331 19.875 1.372 23.748-1.249a1.027 1.027 0 0 1 1.509.458 1.513 1.513 0 0 1-.4 1.916 24.657 24.657 0 0 1-12.372 4.2" transform="translate(-471.597 276.068)"/>
        </g>
    </g>
    <g id="그룹_3362" data-name="그룹 3362" transform="translate(33.708 49.617)">
        <g id="그룹_3360" data-name="그룹 3360" transform="translate(.597 .594)">
            <path id="패스_7599" data-name="패스 7599" class="cls-4" d="M505.057-282.181s-13.371 21.981-29.485-1.319a1.744 1.744 0 0 0-2.356-.5l-5.016 2.939c-.782.478-.782 1.409-.745 2.338.343 8.652 27.111 38.3 52.685 15.9" transform="translate(-467.442 284.261)"/>
        </g>
        <g id="그룹_3361" data-name="그룹 3361">
            <path id="패스_7600" data-name="패스 7600" class="cls-3" d="M500.354-253.82a30.966 30.966 0 0 1-12.19-2.625c-11.936-5.129-20.891-16.732-21.1-22.052-.035-.871-.087-2.188 1.031-2.871l5.025-2.944a2.342 2.342 0 0 1 3.146.676c4.9 7.079 10.008 10.614 15.141 10.447 7.848-.226 13.294-9.011 13.347-9.1l1.017.618c-.234.384-5.827 9.422-14.324 9.67-5.6.155-11.016-3.524-16.158-10.96a1.147 1.147 0 0 0-1.558-.331l-5.025 2.945c-.433.264-.492.793-.451 1.8.168 4.278 8.239 15.79 20.381 21.006 7.653 3.287 19.3 5 31.316-5.532l.785.9c-7.153 6.263-14.182 8.353-20.383 8.353z" transform="translate(-467.049 284.653)"/>
        </g>
    </g>
    <g id="그룹_3364" data-name="그룹 3364" transform="translate(33.068 48.974)">
        <g id="그룹_3363" data-name="그룹 3363">
            <path id="패스_7601" data-name="패스 7601" class="cls-5" d="M500.586-252.952a31.651 31.651 0 0 1-12.457-2.684 44.332 44.332 0 0 1-15.235-11.188c-3.744-4.225-6.141-8.6-6.254-11.428-.035-.9-.1-2.564 1.336-3.443l5.036-2.951a2.986 2.986 0 0 1 4 .864c4.764 6.888 9.674 10.313 14.587 10.172 7.5-.213 12.773-8.707 12.824-8.794a1.237 1.237 0 0 1 1.7-.41 1.236 1.236 0 0 1 .413 1.7c-.241.395-6.011 9.718-14.853 9.976-5.792.165-11.432-3.61-16.705-11.236a.506.506 0 0 0-.7-.149l-5.036 2.95c-.155.1-.158.645-.135 1.224.164 4.14 8.078 15.322 19.993 20.441 7.483 3.214 18.875 4.884 30.641-5.425a1.237 1.237 0 0 1 1.745.115 1.236 1.236 0 0 1-.115 1.746c-7.291 6.387-14.463 8.52-20.789 8.52" transform="translate(-466.627 285.076)"/>
        </g>
    </g>
    <g id="그룹_3367" data-name="그룹 3367" transform="translate(65.826 58.708)">
        <g id="그룹_3365" data-name="그룹 3365" transform="translate(.041 .594)">
            <path id="패스_7602" data-name="패스 7602" class="cls-4" d="M488.231-278.274s5.868.405 7.342 5.012" transform="translate(-488.231 278.274)"/>
        </g>
        <g id="그룹_3366" data-name="그룹 3366">
            <path id="패스_7603" data-name="패스 7603" class="cls-3" d="M495.022-272.879c-1.338-4.174-6.764-4.594-6.818-4.6l.082-1.187c.255.018 6.29.489 7.869 5.423z" transform="translate(-488.204 278.665)"/>
        </g>
    </g>
    <g id="그룹_3369" data-name="그룹 3369" transform="translate(64.631 58.066)">
        <g id="그룹_3368" data-name="그룹 3368">
            <path id="패스_7604" data-name="패스 7604" class="cls-3" d="M496-271.6a1.239 1.239 0 0 1-1.178-.859c-1.195-3.736-6.2-4.152-6.252-4.157a1.239 1.239 0 0 1-1.145-1.321 1.237 1.237 0 0 1 1.318-1.145c.273.017 6.724.522 8.435 5.868a1.237 1.237 0 0 1-.8 1.555 1.267 1.267 0 0 1-.378.059" transform="translate(-487.417 279.088)"/>
        </g>
    </g>
    <g id="그룹_3372" data-name="그룹 3372" transform="translate(59.336 61.078)">
        <g id="그룹_3370" data-name="그룹 3370" transform="translate(.194 .563)">
            <path id="패스_7605" data-name="패스 7605" class="cls-4" d="M484.057-276.733s3.322 1.133 4.8 5.74" transform="translate(-484.057 276.733)"/>
        </g>
        <g id="그룹_3371" data-name="그룹 3371">
            <path id="패스_7606" data-name="패스 7606" class="cls-3" d="M488.352-270.62c-1.356-4.239-4.3-5.315-4.423-5.359l.387-1.125c.147.05 3.622 1.286 5.17 6.121z" transform="translate(-483.929 277.104)"/>
        </g>
    </g>
    <g id="그룹_3374" data-name="그룹 3374" transform="translate(58.3 60.404)">
        <g id="그룹_3373" data-name="그룹 3373">
            <path id="패스_7607" data-name="패스 7607" class="cls-3" d="M489.271-269.333a1.239 1.239 0 0 1-1.177-.859c-1.249-3.9-3.915-4.911-4.028-4.952a1.244 1.244 0 0 1-.75-1.576 1.232 1.232 0 0 1 1.561-.761c.159.055 3.928 1.392 5.572 6.533a1.238 1.238 0 0 1-.8 1.556 1.258 1.258 0 0 1-.378.059" transform="translate(-483.247 277.548)"/>
        </g>
    </g>
    <g id="그룹_3377" data-name="그룹 3377" transform="translate(51.828 60.191)">
        <g id="그룹_3375" data-name="그룹 3375" transform="translate(.466 .372)">
            <path id="패스_7608" data-name="패스 7608" class="cls-4" d="M479.291-277.443a8.008 8.008 0 0 1 1.222 7.216" transform="translate(-479.291 277.443)"/>
        </g>
        <g id="그룹_3376" data-name="그룹 3376">
            <path id="패스_7609" data-name="패스 7609" class="cls-3" d="m481.233-269.9-1.12-.405a7.463 7.463 0 0 0-1.128-6.642l.931-.742a8.534 8.534 0 0 1 1.317 7.789z" transform="translate(-478.984 277.688)"/>
        </g>
    </g>
    <g id="그룹_3379" data-name="그룹 3379" transform="translate(51.059 59.326)">
        <g id="그룹_3378" data-name="그룹 3378">
            <path id="패스_7610" data-name="패스 7610" class="cls-3" d="M480.935-268.569a1.214 1.214 0 0 1-.422-.074 1.236 1.236 0 0 1-.741-1.583 6.7 6.7 0 0 0-1.029-6.027 1.238 1.238 0 0 1 .2-1.735 1.233 1.233 0 0 1 1.732.2 9.216 9.216 0 0 1 1.42 8.411 1.238 1.238 0 0 1-1.163.814" transform="translate(-478.478 278.258)"/>
        </g>
    </g>
    <g id="그룹_3382" data-name="그룹 3382" transform="translate(22.315 42.058)">
        <g id="그룹_3380" data-name="그룹 3380" transform="translate(.588 .596)">
            <path id="패스_7611" data-name="패스 7611" class="cls-4" d="M479.166-280.917s2.592-6.536-2.412-8.085-5.118 4.972-5.118 4.972-7.781-7.008-10.8-1.451c-3.273 6.015 2.83 12.173 10.825 10.076" transform="translate(-459.932 289.239)"/>
        </g>
        <g id="그룹_3381" data-name="그룹 3381">
            <path id="패스_7612" data-name="패스 7612" class="cls-3" d="M468.733-274.195a9.582 9.582 0 0 1-7.675-3.4 7.083 7.083 0 0 1-.547-7.965 4.33 4.33 0 0 1 3.137-2.384c2.813-.486 6.15 1.747 7.708 2.954a6.107 6.107 0 0 1 2.037-3.975 4.056 4.056 0 0 1 3.735-.4 4.633 4.633 0 0 1 2.962 2.444c1.286 2.686-.111 6.276-.17 6.428l-1.107-.439c.012-.032 1.265-3.266.2-5.479a3.443 3.443 0 0 0-2.238-1.817 2.9 2.9 0 0 0-2.675.228c-1.587 1.146-1.664 4.158-1.664 4.189l-.026 1.3-.967-.87c-.042-.038-4.42-3.928-7.591-3.389a3.16 3.16 0 0 0-2.291 1.779 5.857 5.857 0 0 0 .439 6.661c2.013 2.569 5.825 3.574 9.714 2.554l.3 1.151a12.945 12.945 0 0 1-3.281.43z" transform="translate(-459.545 289.632)"/>
        </g>
    </g>
    <g id="그룹_3384" data-name="그룹 3384" transform="translate(21.67 41.42)">
        <g id="그룹_3383" data-name="그룹 3383">
            <path id="패스_7613" data-name="패스 7613" class="cls-5" d="M468.957-273.336a10.227 10.227 0 0 1-8.183-3.648 7.712 7.712 0 0 1-.606-8.667 5.01 5.01 0 0 1 3.592-2.71c2.637-.454 5.57 1.183 7.392 2.467a5.979 5.979 0 0 1 2.086-3.374 4.66 4.66 0 0 1 4.3-.493 5.243 5.243 0 0 1 3.351 2.78c1.406 2.935-.088 6.779-.152 6.941a1.236 1.236 0 0 1-1.606.694 1.236 1.236 0 0 1-.694-1.6c.325-.832 1-3.346.219-4.969a2.838 2.838 0 0 0-1.848-1.48c-1.356-.419-1.931 0-2.119.135-1.1.8-1.385 2.977-1.4 3.677a1.236 1.236 0 0 1-.744 1.113 1.237 1.237 0 0 1-1.321-.216c-1.155-1.037-4.673-3.645-7.054-3.234a2.525 2.525 0 0 0-1.834 1.454 5.238 5.238 0 0 0 .38 5.961c1.855 2.368 5.4 3.284 9.044 2.329a1.237 1.237 0 0 1 1.511.884 1.237 1.237 0 0 1-.882 1.509 13.59 13.59 0 0 1-3.437.451" transform="translate(-459.12 290.052)"/>
        </g>
    </g>
    <g id="그룹_3386" data-name="그룹 3386" transform="translate(65.445 64.873)">
        <g id="그룹_3385" data-name="그룹 3385">
            <path id="패스_7614" data-name="패스 7614" class="cls-7" d="M513.4-268.3a4.426 4.426 0 0 1-1.419 3.709c-3.346 2.768-10.55 6.955-21.463 2.373-1.236-.519-3-1.9-2.463-4.092.551-2.235 2.743-1.262 5.321-1.593a20.879 20.879 0 0 0 8.23-2.595c2.62-1.587 4.318-2.718 5.387-3.477a3.323 3.323 0 0 1 4.922 1.277c.165.282.337.6.51.943a9.234 9.234 0 0 1 .975 3.454" transform="translate(-487.953 274.604)"/>
        </g>
    </g>
    <g id="그룹_3388" data-name="그룹 3388" transform="translate(63.838 63.353)">
        <g id="그룹_3387" data-name="그룹 3387">
            <path id="패스_7615" data-name="패스 7615" class="cls-5" d="M503.063-258.614a22.97 22.97 0 0 1-12.305-1.795c-.66-.276-2.839-.966-3.544-2.754a4.79 4.79 0 0 1-.17-2.913c.622-2.526 3.087-2.636 4.755-2.6a13.3 13.3 0 0 0 2.013-.062 20.013 20.013 0 0 0 7.9-2.478 64.62 64.62 0 0 0 6.015-4c.088-.065.17-.128.249-.185a1.123 1.123 0 0 1 1.728.648l.006.023a1.206 1.206 0 0 1-.474 1.365c-.073.055-.153.112-.238.178a60.317 60.317 0 0 1-6.4 4.445 21.471 21.471 0 0 1-8.561 2.713 14.807 14.807 0 0 1-2.248.073c-1.678-.035-2.068.07-2.2.6a1.279 1.279 0 0 0 .036.823 3.277 3.277 0 0 0 1.746 1.533c10.652 4.471 18.249-.114 21.657-3.021a.894.894 0 0 1 1.4.346 1.627 1.627 0 0 1-.27 1.943 22.109 22.109 0 0 1-11.1 5.115" transform="translate(-486.895 275.605)"/>
        </g>
    </g>
    <g id="그룹_3391" data-name="그룹 3391" transform="translate(105.1 129.113)">
        <g id="그룹_3389" data-name="그룹 3389" transform="translate(1.1 1.099)">
            <path id="패스_7616" data-name="패스 7616" class="cls-7" d="M514.8-228.562a40.607 40.607 0 0 1 .164 9.856s9.946 3.656 23.74-1.193c0 0 1.306-6.466.032-11.669 0 0-9.135 4.857-23.936 3.006" transform="translate(-514.797 231.568)"/>
        </g>
        <g id="그룹_3390" data-name="그룹 3390">
            <path id="패스_7617" data-name="패스 7617" class="cls-3" d="M524.777-215.9a30.554 30.554 0 0 1-9.82-1.4 1.1 1.1 0 0 1-.711-1.18 39.721 39.721 0 0 0-.162-9.545 1.1 1.1 0 0 1 .3-.932 1.113 1.113 0 0 1 .923-.323c14.289 1.788 23.2-2.839 23.286-2.886a1.106 1.106 0 0 1 .966-.032 1.1 1.1 0 0 1 .618.742c1.315 5.381.032 11.874-.023 12.149a1.1 1.1 0 0 1-.714.818 44.162 44.162 0 0 1-14.663 2.589zm-8.241-3.222c2.557.691 10.851 2.364 21.571-1.236a31.924 31.924 0 0 0 .2-9.263c-2.959 1.231-10.714 3.794-21.87 2.677a41.208 41.208 0 0 1 .099 7.827z" transform="translate(-514.072 232.292)"/>
        </g>
    </g>
    <g id="그룹_3393" data-name="그룹 3393" transform="translate(70.945 108.737)">
        <g id="그룹_3392" data-name="그룹 3392">
            <path id="패스_7618" data-name="패스 7618" class="cls-3" d="M493.975-244.064c0 .911-.537 1.649-1.2 1.649s-1.2-.738-1.2-1.649.536-1.649 1.2-1.649 1.2.738 1.2 1.649" transform="translate(-491.576 245.713)"/>
        </g>
    </g>
    <g id="그룹_3395" data-name="그룹 3395" transform="translate(70.768 108.661)">
        <g id="그룹_3394" data-name="그룹 3394">
            <path id="패스_7619" data-name="패스 7619" class="cls-15" d="M493.856-244.114c0 .909-.536 1.647-1.2 1.647s-1.2-.738-1.2-1.647.536-1.649 1.2-1.649 1.2.738 1.2 1.649" transform="translate(-491.459 245.763)"/>
        </g>
    </g>
    <g id="그룹_3397" data-name="그룹 3397" transform="translate(71.897 148.974)">
        <g id="그룹_3396" data-name="그룹 3396">
            <path id="패스_7620" data-name="패스 7620" class="cls-3" d="M494.6-217.561c0 .911-.537 1.649-1.2 1.649s-1.2-.738-1.2-1.649.537-1.649 1.2-1.649 1.2.738 1.2 1.649" transform="translate(-492.203 219.21)"/>
        </g>
    </g>
    <g id="그룹_3399" data-name="그룹 3399" transform="translate(71.72 148.897)">
        <g id="그룹_3398" data-name="그룹 3398">
            <path id="패스_7621" data-name="패스 7621" class="cls-15" d="M494.485-217.612c0 .911-.537 1.649-1.2 1.649s-1.2-.738-1.2-1.649.537-1.649 1.2-1.649 1.2.739 1.2 1.649" transform="translate(-492.086 219.261)"/>
        </g>
    </g>
</svg>
