<svg id="그룹_2974" data-name="그룹 2974" xmlns="http://www.w3.org/2000/svg" width="140.467" height="139.464">
    <defs>
        <clipPath id="clip-path">
            <path id="패스_7242" data-name="패스 7242" d="M498.293-412.033c7.864.284 8.359-8.221 8.359-8.221a21.725 21.725 0 0 1-15-.459s-1.221 8.4 6.645 8.68" transform="translate(-491.579 420.713)" style="fill:none"/>
        </clipPath>
        <style>
            .cls-2{fill:#8cc7ea}.cls-3{fill:#36607b}.cls-4{fill:#ffbfc5}.cls-5{fill:#335d76}.cls-8{fill:#f7f8f8}.cls-10{fill:#fff}.cls-12{fill:#d69494}
        </style>
    </defs>
    <g id="그룹_2919" data-name="그룹 2919" transform="translate(30.59 77.972)">
        <path id="패스_7230" data-name="패스 7230" class="cls-2" d="M481.335-411.263a32.533 32.533 0 0 0-7.146 20.373s34.2-.469 61.653 4.333a46.483 46.483 0 0 0-7.977-25.386z" transform="translate(-473.052 413.081)"/>
        <path id="패스_7231" data-name="패스 7231" class="cls-3" d="M536.231-385.031a1.212 1.212 0 0 1-.2-.017c-27.033-4.729-61.1-4.321-61.442-4.316a1.072 1.072 0 0 1-.812-.325 1.14 1.14 0 0 1-.34-.808 33.4 33.4 0 0 1 7.436-21.137 1.137 1.137 0 0 1 .83-.378l46.53-.68a1.082 1.082 0 0 1 .947.484 47.192 47.192 0 0 1 8.183 26.072 1.134 1.134 0 0 1-.419.847 1.137 1.137 0 0 1-.713.258zm-59.331-6.618c8.042 0 35.311.3 58.169 4.128a46.049 46.049 0 0 0-7.407-22.887l-45.4.663a32 32 0 0 0-6.534 18.1c.328-.004.72-.004 1.172-.004z" transform="translate(-473.44 412.693)"/>
    </g>
    <g id="그룹_2920" data-name="그룹 2920" transform="translate(0 4.437)">
        <path id="패스_7232" data-name="패스 7232" class="cls-2" d="M495.164-447.683s-4.325-14.047-23.229-12.592c-17.312 1.333-19.093 25.248-13.776 34.852a27.51 27.51 0 0 0-1.769 25.649c6.14 14.578 27.34 17.563 35.214.465" transform="translate(-452.896 461.515)"/>
        <path id="패스_7233" data-name="패스 7233" class="cls-3" d="M474.891-386.1h-.329a20.868 20.868 0 0 1-18.824-12.84 28.632 28.632 0 0 1 1.5-26.154c-3.152-6.354-3.732-17.979.844-26.47a17.025 17.025 0 0 1 14.162-9.449c19.6-1.5 24.358 13.242 24.4 13.391a1.134 1.134 0 0 1-.748 1.418 1.138 1.138 0 0 1-1.424-.747c-.169-.537-4.336-13.157-22.057-11.8a14.926 14.926 0 0 0-12.336 8.261c-4.225 7.843-3.686 19.21-.533 24.906a1.143 1.143 0 0 1-.068 1.21 26.626 26.626 0 0 0-1.647 24.548 18.592 18.592 0 0 0 16.769 11.447h.3c6.99 0 12.832-4 16.064-11.019a1.136 1.136 0 0 1 1.509-.557 1.137 1.137 0 0 1 .556 1.509C489.464-390.7 482.7-386.1 474.891-386.1z" transform="translate(-453.291 461.128)"/>
    </g>
    <g id="그룹_2921" data-name="그룹 2921" transform="translate(10.044 16.704)">
        <path id="패스_7234" data-name="패스 7234" class="cls-4" d="M485.788-444.623s-2.992-9.667-15.123-8.291c-11.109 1.26-11.894 17.894-8.332 24.456a20.431 20.431 0 0 0-.751 17.836c4.167 10 17.841 11.661 22.646-.357" transform="translate(-459.907 453.048)"/>
    </g>
    <g id="그룹_2922" data-name="그룹 2922" transform="translate(23.247)">
        <path id="패스_7235" data-name="패스 7235" class="cls-2" d="M509.813-377.9c32.2.8 42.9-12.685 46.078-22.37 2.376-7.231.7-12.384.7-12.384.542-43.189-27.217-50.444-43.493-50.649-15.128-.19-42.459 6.374-43 49.13a41.922 41.922 0 0 0-.63 10.878c.553 6.73 4.406 24.507 40.342 25.4" transform="translate(-468.214 464.438)"/>
        <path id="패스_7236" data-name="패스 7236" class="cls-3" d="M512.909-376.336q-1.341 0-2.736-.035c-34.242-.847-40.666-16.928-41.448-26.438a42.878 42.878 0 0 1 .629-11.1c.622-45.746 31.111-50.256 44.145-50.142 7.931.1 19.357 1.822 28.757 9.46 10.734 8.724 16.07 22.911 15.861 42.17a22.961 22.961 0 0 1-.756 12.9c-2.878 8.762-12.481 23.185-44.452 23.185zm-2.68-2.308c32.663.782 42.208-13.18 44.971-21.589 2.217-6.748.711-11.631.7-11.678a1.148 1.148 0 0 1-.055-.364c.234-18.615-4.82-32.258-15.02-40.547-8.891-7.227-19.781-8.856-27.349-8.951-12.407-.182-41.294 4.212-41.845 48.006a1.109 1.109 0 0 1-.026.223 41.129 41.129 0 0 0-.612 10.544c1.674 20.389 25.307 24.012 39.236 24.356z" transform="translate(-468.603 464.05)"/>
    </g>
    <g id="그룹_2923" data-name="그룹 2923" transform="translate(55.945 62.203)">
        <path id="패스_7237" data-name="패스 7237" class="cls-5" d="M499.835-418.533c-6.7-.084-9.3-2.813-9.451-2.982a.934.934 0 0 1 .062-1.321.935.935 0 0 1 1.315.056c.085.086 5.127 5.092 19.9.275a.936.936 0 0 1 1.18.6.937.937 0 0 1-.6 1.18 38.781 38.781 0 0 1-12.41 2.194" transform="translate(-490.14 423.079)"/>
    </g>
    <g id="그룹_2924" data-name="그룹 2924" transform="translate(58.129 65.797)">
        <path id="패스_7238" data-name="패스 7238" d="M491.647-420.712a21.74 21.74 0 0 0 15 .457s-.493 8.5-8.359 8.221-6.645-8.678-6.645-8.678" transform="translate(-491.579 420.712)" style="fill:#cf7575"/>
    </g>
    <g id="그룹_2925" data-name="그룹 2925" transform="translate(56.261 63.928)">
        <path id="패스_7239" data-name="패스 7239" class="cls-5" d="M492.285-420.074a21.3 21.3 0 0 0 7.945 1.581 20.7 20.7 0 0 0 7.06-1.123s-.484 8.323-8.109 8.227c-.083 0-.167 0-.25-.006-7.866-.282-6.645-8.678-6.645-8.678M492.304-421.942a1.891 1.891 0 0 0-.92.228 1.87 1.87 0 0 0-.956 1.371c-.029.194-.66 4.781 1.992 7.959a8.366 8.366 0 0 0 6.436 2.859c.1 0 .2.006.295.008a9.022 9.022 0 0 0 8.6-5.086 13.566 13.566 0 0 0 1.4-4.8c.008-.062.011-.124.012-.188a1.87 1.87 0 0 0-1.836-1.893h-.079a1.894 1.894 0 0 0-.609.117 18.856 18.856 0 0 1-6.386 1.008 19.756 19.756 0 0 1-7.187-1.412 1.875 1.875 0 0 0-.755-.169" transform="translate(-490.349 421.943)"/>
    </g>
    <g id="그룹_2929" data-name="그룹 2929" transform="translate(58.129 65.796)">
        <g id="그룹_2928" data-name="그룹 2928" style="clip-path:url(#clip-path)">
            <g id="그룹_2926" data-name="그룹 2926" transform="translate(-.133 4.313)">
                <path id="패스_7240" data-name="패스 7240" class="cls-4" d="M491.491-416.5a13.01 13.01 0 0 1 6.706-1.365 15.242 15.242 0 0 1 7.014 1.94s-1.758 3.726-6.946 3.539a7.418 7.418 0 0 1-6.774-4.114" transform="translate(-491.491 417.872)"/>
            </g>
            <g id="그룹_2927" data-name="그룹 2927" transform="translate(-1.069 3.378)">
                <path id="패스_7241" data-name="패스 7241" class="cls-5" d="M498.823-411.122c-.088 0-.181 0-.272-.006a8.308 8.308 0 0 1-7.608-4.7.934.934 0 0 1 .386-1.152 13.882 13.882 0 0 1 7.221-1.5 16.118 16.118 0 0 1 7.48 2.086.935.935 0 0 1 .346 1.189 8.024 8.024 0 0 1-7.553 4.081m-5.7-4.637a6.71 6.71 0 0 0 5.495 2.761 6.551 6.551 0 0 0 5.56-2.256 15.088 15.088 0 0 0-5.695-1.354 13.419 13.419 0 0 0-5.358.849m-1.315-.419z" transform="translate(-490.875 418.488)"/>
            </g>
        </g>
    </g>
    <g id="그룹_2930" data-name="그룹 2930" transform="translate(74.038 45.309)">
        <path id="패스_7243" data-name="패스 7243" class="cls-3" d="M511.84-428.6a5.188 5.188 0 0 1-5.03 5.329 5.22 5.22 0 0 1-4.75-5.605 5.187 5.187 0 0 1 5.03-5.329 5.22 5.22 0 0 1 4.75 5.605" transform="translate(-502.058 434.207)"/>
    </g>
    <g id="그룹_2931" data-name="그룹 2931" transform="translate(75.004 33.286)">
        <path id="패스_7244" data-name="패스 7244" class="cls-3" d="M510.071-439.031a1.021 1.021 0 0 1-.6-.2 4.507 4.507 0 0 0-2.505-.844 5.187 5.187 0 0 0-2.8.639 1.02 1.02 0 0 1-1.366-.458 1.019 1.019 0 0 1 .46-1.366 7.206 7.206 0 0 1 3.823-.847 6.5 6.5 0 0 1 3.615 1.249 1.019 1.019 0 0 1 .2 1.427 1.023 1.023 0 0 1-.827.405" transform="translate(-502.694 442.126)"/>
    </g>
    <g id="그룹_2932" data-name="그룹 2932" transform="translate(76.132 47.764)">
        <path id="패스_7245" data-name="패스 7245" class="cls-8" d="M506.091-431.152a1.35 1.35 0 0 1-1.389 1.312 1.356 1.356 0 0 1-1.263-1.438 1.347 1.347 0 0 1 1.388-1.31 1.357 1.357 0 0 1 1.265 1.436" transform="translate(-503.437 432.59)"/>
    </g>
    <g id="그룹_2933" data-name="그룹 2933" transform="translate(42.284 43.154)">
        <path id="패스_7246" data-name="패스 7246" class="cls-3" d="M490.213-429.927c-.076 3.073-2.168 5.5-4.672 5.428s-4.473-2.623-4.4-5.7 2.167-5.5 4.67-5.429 4.473 2.625 4.4 5.7" transform="translate(-481.143 435.626)"/>
    </g>
    <g id="그룹_2934" data-name="그룹 2934" transform="translate(42.522 32.878)">
        <path id="패스_7247" data-name="패스 7247" class="cls-3" d="M488.676-439.3a1 1 0 0 1-.6-.2 4.51 4.51 0 0 0-2.505-.843 5.187 5.187 0 0 0-2.8.638 1.019 1.019 0 0 1-1.366-.458 1.02 1.02 0 0 1 .458-1.366 7.229 7.229 0 0 1 3.824-.847 6.514 6.514 0 0 1 3.613 1.249 1.02 1.02 0 0 1 .2 1.427 1.019 1.019 0 0 1-.827.405" transform="translate(-481.299 442.394)"/>
    </g>
    <g id="그룹_2935" data-name="그룹 2935" transform="translate(44.077 45.54)">
        <path id="패스_7248" data-name="패스 7248" class="cls-8" d="M484.628-432.806a1.169 1.169 0 0 1-1.205 1.139 1.179 1.179 0 0 1-1.1-1.248 1.172 1.172 0 0 1 1.205-1.139 1.178 1.178 0 0 1 1.1 1.248" transform="translate(-482.323 434.055)"/>
    </g>
    <g id="그룹_2936" data-name="그룹 2936" transform="translate(74.395 44.949)">
        <path id="패스_7249" data-name="패스 7249" class="cls-5" d="M511.363-428.745c-.076 3.073-2.168 5.5-4.672 5.429s-4.473-2.625-4.4-5.7 2.167-5.5 4.67-5.429 4.474 2.625 4.4 5.7" transform="translate(-502.293 434.444)"/>
    </g>
    <g id="그룹_2937" data-name="그룹 2937" transform="translate(76.187 47.038)">
        <path id="패스_7250" data-name="패스 7250" class="cls-8" d="M505.778-431.819a1.17 1.17 0 0 1-1.205 1.139 1.179 1.179 0 0 1-1.1-1.248 1.17 1.17 0 0 1 1.205-1.139 1.178 1.178 0 0 1 1.1 1.248" transform="translate(-503.473 433.068)"/>
    </g>
    <g id="그룹_2938" data-name="그룹 2938" transform="translate(99.257 6.078)">
        <path id="패스_7251" data-name="패스 7251" class="cls-2" d="M519.446-448.071s5.353-13.688 24.1-10.839c17.165 2.61 17.173 26.592 11.159 35.775a27.513 27.513 0 0 1-.134 25.71c-7.2 14.083-28.565 15.492-35.153-2.141" transform="translate(-518.28 460.434)"/>
        <path id="패스_7252" data-name="패스 7252" class="cls-3" d="M537.429-385.076c-.393 0-.786-.011-1.183-.033-7.934-.457-14.478-5.567-17.505-13.672a1.137 1.137 0 0 1 .667-1.464 1.14 1.14 0 0 1 1.464.668c2.742 7.341 8.394 11.786 15.507 12.2a18.617 18.617 0 0 0 17.567-10.177 26.629 26.629 0 0 0 .175-24.6 1.137 1.137 0 0 1 .021-1.212c3.566-5.447 4.943-16.743 1.31-24.878a14.923 14.923 0 0 0-11.69-9.15c-17.561-2.661-22.661 9.607-22.869 10.131a1.136 1.136 0 0 1-1.474.639 1.138 1.138 0 0 1-.644-1.471c.059-.144 5.92-14.5 25.33-11.548a17.03 17.03 0 0 1 13.424 10.471c3.934 8.809 2.5 20.356-1.117 26.461a28.634 28.634 0 0 1-.44 26.192 20.894 20.894 0 0 1-18.543 11.443z" transform="translate(-518.668 460.047)"/>
    </g>
    <g id="그룹_2939" data-name="그룹 2939" transform="translate(106.181 17.827)">
        <path id="패스_7253" data-name="패스 7253" class="cls-4" d="M524.163-444.808s3.7-9.418 15.694-7.148c10.986 2.078 10.538 18.724 6.5 25.005a20.426 20.426 0 0 1-.572 17.842c-4.895 9.663-18.653 10.309-22.555-2.033" transform="translate(-523.229 452.309)"/>
    </g>
    <g id="그룹_2940" data-name="그룹 2940" transform="translate(28.598 43.16)">
        <path id="패스_7254" data-name="패스 7254" class="cls-2" d="M500.539-433.059s-10.025 16.025-21.65-1.242a1.28 1.28 0 0 0-1.726-.389l-3.712 2.112c-.578.345-.589 1.028-.569 1.711.172 6.36 19.564 28.391 38.558 12.167" transform="translate(-471.74 436.011)"/>
        <path id="패스_7255" data-name="패스 7255" class="cls-3" d="M497.331-411.321a23.413 23.413 0 0 1-9.486-2.11c-9.281-4.128-15.6-12.975-15.711-17.016a2.776 2.776 0 0 1 1.124-2.719l3.732-2.122a2.419 2.419 0 0 1 3.231.741c3.355 4.983 6.826 7.508 10.318 7.508h.122c5.4-.091 9.266-6.172 9.3-6.234a1.137 1.137 0 0 1 1.567-.36 1.137 1.137 0 0 1 .361 1.567c-.184.293-4.574 7.19-11.194 7.3-4.321.074-8.513-2.79-12.363-8.51a.145.145 0 0 0-.2-.047L474.4-431.2c-.014.074 0 .539 0 .691.081 2.994 5.736 11.165 14.362 15 5.406 2.4 13.67 3.721 22.321-3.665a1.136 1.136 0 0 1 1.6.126 1.136 1.136 0 0 1-.126 1.6c-5.357 4.583-10.597 6.127-15.226 6.127z" transform="translate(-472.128 435.622)"/>
    </g>
    <g id="그룹_2941" data-name="그룹 2941" transform="translate(52.835 50.612)">
        <path id="패스_7256" data-name="패스 7256" class="cls-2" d="M488.125-430.323s4.307.351 5.349 3.75" transform="translate(-488.075 430.917)"/>
        <path id="패스_7257" data-name="패스 7257" class="cls-3" d="M492.921-426.2c-.908-2.964-4.79-3.328-4.829-3.331l.1-1.186c.193.015 4.723.427 5.868 4.169z" transform="translate(-488.092 430.714)"/>
    </g>
    <g id="그룹_2942" data-name="그룹 2942" transform="translate(51.979 50.298)">
        <path id="패스_7258" data-name="패스 7258" class="cls-3" d="M493.771-425.355a.909.909 0 0 1-.858-.642c-.843-2.757-4.518-3.106-4.555-3.109a.909.909 0 0 1-.827-.982.906.906 0 0 1 .976-.829c.2.015 4.937.446 6.144 4.388a.909.909 0 0 1-.6 1.136.884.884 0 0 1-.278.039" transform="translate(-487.528 430.921)"/>
    </g>
    <g id="그룹_2943" data-name="그룹 2943" transform="translate(48.006 52.305)">
        <path id="패스_7259" data-name="패스 7259" class="cls-2" d="M485.045-429.23a6.374 6.374 0 0 1 3.469 4.263" transform="translate(-484.842 429.79)"/>
        <path id="패스_7260" data-name="패스 7260" class="cls-3" d="M488.014-424.6a5.783 5.783 0 0 0-3.1-3.876l.4-1.12a6.93 6.93 0 0 1 3.838 4.649z" transform="translate(-484.911 429.599)"/>
    </g>
    <g id="그룹_2944" data-name="그룹 2944" transform="translate(47.305 51.957)">
        <path id="패스_7261" data-name="패스 7261" class="cls-3" d="M488.811-423.749a.908.908 0 0 1-.856-.642 5.5 5.5 0 0 0-2.913-3.674.913.913 0 0 1-.536-1.164.907.907 0 0 1 1.154-.547 7.269 7.269 0 0 1 4.032 4.852.909.909 0 0 1-.6 1.136.872.872 0 0 1-.278.039" transform="translate(-484.45 429.828)"/>
    </g>
    <g id="그룹_2945" data-name="그룹 2945" transform="translate(42.431 51.641)">
        <path id="패스_7262" data-name="패스 7262" class="cls-2" d="M481.549-429.795a5.883 5.883 0 0 1 .832 5.312" transform="translate(-481.078 430.161)"/>
        <path id="패스_7263" data-name="패스 7263" class="cls-3" d="m483.1-424.148-1.114-.419a5.329 5.329 0 0 0-.745-4.74l.941-.729a6.444 6.444 0 0 1 .918 5.888z" transform="translate(-481.239 430.036)"/>
    </g>
    <g id="그룹_2946" data-name="그룹 2946" transform="translate(41.996 51.099)">
        <path id="패스_7264" data-name="패스 7264" class="cls-3" d="M482.679-423.263a.889.889 0 0 1-.31-.059.909.909 0 0 1-.53-1.171 4.925 4.925 0 0 0-.7-4.438.91.91 0 0 1 .165-1.272.907.907 0 0 1 1.271.159 6.773 6.773 0 0 1 .964 6.191.91.91 0 0 1-.861.589" transform="translate(-480.953 430.393)"/>
    </g>
    <g id="그룹_2947" data-name="그룹 2947" transform="translate(20.274 37.585)">
        <path id="패스_7265" data-name="패스 7265" class="cls-2" d="M481.512-432.4s1.965-4.778-1.7-5.961-3.8 3.606-3.8 3.606-5.651-5.22-7.922-1.168c-2.459 4.391 1.966 8.97 7.86 7.5" transform="translate(-466.258 439.682)"/>
        <path id="패스_7266" data-name="패스 7266" class="cls-3" d="M474.143-426.618a7.771 7.771 0 0 1-6.279-2.845 5.9 5.9 0 0 1-.383-6.626 3.9 3.9 0 0 1 2.827-2.071c1.895-.3 3.95.792 5.32 1.74a4.43 4.43 0 0 1 1.556-2.279 3.639 3.639 0 0 1 3.366-.354 4.126 4.126 0 0 1 2.573 2.194c1.029 2.221-.046 4.975-.172 5.282a1.137 1.137 0 0 1-1.485.619 1.135 1.135 0 0 1-.619-1.48 5.189 5.189 0 0 0 .211-3.469 1.843 1.843 0 0 0-1.207-.981c-.882-.287-1.237-.036-1.354.046a3.779 3.779 0 0 0-.964 2.514 1.138 1.138 0 0 1-.7 1.01 1.136 1.136 0 0 1-1.208-.211c-.764-.7-3.311-2.651-4.965-2.384a1.607 1.607 0 0 0-1.2.937 3.63 3.63 0 0 0 .207 4.133c1.287 1.685 3.792 2.356 6.387 1.711a1.137 1.137 0 0 1 1.379.829 1.139 1.139 0 0 1-.831 1.378 10.221 10.221 0 0 1-2.459.307z" transform="translate(-466.645 439.294)"/>
    </g>
    <g id="그룹_2948" data-name="그룹 2948" transform="translate(90.647 98.647)">
        <path id="패스_7267" data-name="패스 7267" class="cls-2" d="M513.451-389.8a9.789 9.789 0 0 0 10.1-.82s5.285 3.1 8.815-.557 2.894-7.133 2.894-7.133c-11.768-2.314-11.774 6.932-11.774 6.932a10.7 10.7 0 0 1-9.383-1.026z" transform="translate(-512.762 399.278)"/>
        <path id="패스_7268" data-name="패스 7268" class="cls-3" d="M518.2-387.942a10.723 10.723 0 0 1-4.8-1.136l-.4-.22.988-3.917.715.537a9.961 9.961 0 0 0 8.455 1.052 8.276 8.276 0 0 1 2.822-5.573c2.207-1.814 5.446-2.315 9.635-1.492l.4.079.073.4c.029.153.65 3.817-3.049 7.652-3.264 3.384-7.895 1.479-9.194.84a9.766 9.766 0 0 1-5.645 1.778zm-3.82-1.983a9.127 9.127 0 0 0 8-.291 11.366 11.366 0 0 1-7.659-1.052zm9.937-.884c1.005.521 5.053 2.331 7.858-.58a8.614 8.614 0 0 0 2.771-6.216c-3.6-.638-6.358-.194-8.2 1.316a7.284 7.284 0 0 0-2.425 5.113z" transform="translate(-512.997 399.075)"/>
    </g>
    <g id="그룹_2949" data-name="그룹 2949" transform="translate(89.145 97.053)">
        <path id="패스_7269" data-name="패스 7269" class="cls-5" d="M532.439-397.936a18.079 18.079 0 0 1 3.572.373s.638 3.472-2.892 7.131a5.756 5.756 0 0 1-4.26 1.785 10.03 10.03 0 0 1-4.556-1.228 9.221 9.221 0 0 1-5.542 1.867 10.253 10.253 0 0 1-4.562-1.048l.657-2.605a9.958 9.958 0 0 0 5.7 1.628 12.342 12.342 0 0 0 3.68-.6s0-7.268 8.2-7.306m-.009-2.189c-5.286.024-7.851 2.614-9.071 4.782a10.386 10.386 0 0 0-1.1 2.956 9.718 9.718 0 0 1-1.709.164 7.829 7.829 0 0 1-4.386-1.2 2.171 2.171 0 0 0-1.318-.44 2.245 2.245 0 0 0-.721.126 2.186 2.186 0 0 0-1.389 1.539l-.657 2.6a2.189 2.189 0 0 0 1.07 2.455 12.323 12.323 0 0 0 5.626 1.321 11.272 11.272 0 0 0 5.7-1.553 11.643 11.643 0 0 0 4.394.911 7.96 7.96 0 0 0 5.825-2.453c3.4-3.527 3.782-7.348 3.471-9.049a2.19 2.19 0 0 0-1.732-1.754 20.414 20.414 0 0 0-4-.413" transform="translate(-512.008 400.125)"/>
    </g>
    <g id="그룹_2950" data-name="그룹 2950" transform="translate(100.857 99.22)">
        <path id="패스_7270" data-name="패스 7270" d="M520.451-390.532s5.065 3.1 8.595-.559 2.976-7.216 2.976-7.216c-11.766-2.315-12.3 6.4-12.3 6.4z" transform="translate(-519.722 398.698)" style="fill:#9ee630"/>
    </g>
    <g id="그룹_2951" data-name="그룹 2951" transform="translate(98.667 97.03)">
        <path id="패스_7271" data-name="패스 7271" class="cls-5" d="M529.006-397.951a19.2 19.2 0 0 1 3.762.392s.556 3.556-2.976 7.215a5.669 5.669 0 0 1-4.195 1.785 9.377 9.377 0 0 1-4.4-1.224l-.727-1.377s.41-6.752 8.535-6.791M529-400.14c-10.06.047-10.706 8.759-10.711 8.848a2.169 2.169 0 0 0 .25 1.158l.727 1.375a2.2 2.2 0 0 0 .792.843 11.458 11.458 0 0 0 5.554 1.547 7.886 7.886 0 0 0 5.762-2.455c4.236-4.392 3.592-8.885 3.562-9.073a2.188 2.188 0 0 0-1.741-1.811 21.234 21.234 0 0 0-4.195-.432" transform="translate(-518.28 400.14)"/>
    </g>
    <g id="그룹_2952" data-name="그룹 2952" transform="translate(100.646 101.09)">
        <path id="패스_7272" data-name="패스 7272" class="cls-5" d="M521.018-390.809a2.05 2.05 0 0 1-.732-.112 1.1 1.1 0 0 1-.63-1.417 1.1 1.1 0 0 1 1.363-.647c1.005.076 5.71-2.136 7.069-4.026a1.093 1.093 0 0 1 1.527-.249 1.1 1.1 0 0 1 .249 1.529c-1.514 2.1-6.422 4.91-8.847 4.922m.053-2.159" transform="translate(-519.583 397.466)"/>
    </g>
    <g id="그룹_2953" data-name="그룹 2953" transform="translate(11.877 100.312)">
        <path id="패스_7273" data-name="패스 7273" class="cls-2" d="M470.392-368.574a4.129 4.129 0 0 1-3.1-1.328c-1.362-1.494-3.334-4.432-4.514-9.683a27.321 27.321 0 0 1-.85-8.293 4.141 4.141 0 0 1 2.256-3.284l6.5-2.988 8.164-3.081s7.365 10.863 8 27.887c0 0-14.516.747-16.444.77" transform="translate(-460.726 398.366)"/>
        <path id="패스_7274" data-name="패스 7274" class="cls-3" d="M470.73-367.049a5.264 5.264 0 0 1-3.9-1.7c-1.508-1.653-3.56-4.767-4.781-10.2a28.943 28.943 0 0 1-.875-8.649 5.25 5.25 0 0 1 2.871-4.19l6.539-3.008 8.236-3.112a1.14 1.14 0 0 1 1.342.427c.308.454 7.556 11.33 8.192 28.482a1.136 1.136 0 0 1-1.076 1.178c-.594.03-14.56.748-16.491.77zm8.024-28.4-7.287 2.751-6.424 2.956a2.966 2.966 0 0 0-1.6 2.358 26.17 26.17 0 0 0 .827 7.939c1.111 4.945 2.921 7.714 4.243 9.165a2.9 2.9 0 0 0 2.251.956c1.571-.018 11.821-.534 15.269-.711a57.943 57.943 0 0 0-7.279-25.414z" transform="translate(-461.114 397.978)"/>
    </g>
    <g id="그룹_2954" data-name="그룹 2954" transform="translate(12.044 108.844)">
        <path id="패스_7275" data-name="패스 7275" class="cls-10" d="M462.327-391.476s4.96-.879 5.616 2.04-5.359 4.81-5.359 4.81a20.23 20.23 0 0 1-.6-4.058 11.546 11.546 0 0 1 .348-2.792" transform="translate(-460.837 392.751)"/>
        <path id="패스_7276" data-name="패스 7276" class="cls-3" d="M462.973-383.1a1.158 1.158 0 0 1-.542-.137 1.14 1.14 0 0 1-.553-.692 21.255 21.255 0 0 1-.647-4.312 12.621 12.621 0 0 1 .383-3.129 1.136 1.136 0 0 1 .9-.836c2.239-.4 6.219-.231 6.923 2.91.861 3.829-5.408 5.918-6.126 6.144a1.185 1.185 0 0 1-.338.052zm.683-6.944a8.249 8.249 0 0 0-.153 1.694 20.175 20.175 0 0 0 .3 2.586c1.691-.732 3.66-1.963 3.421-3.033-.29-1.28-2.413-1.315-3.568-1.243z" transform="translate(-461.225 392.358)"/>
    </g>
    <g id="그룹_2955" data-name="그룹 2955" transform="translate(13.147 118.255)">
        <path id="패스_7277" data-name="패스 7277" class="cls-10" d="M462.7-384.927a26.827 26.827 0 0 0 2.473 6.123s5.258-1.77 4.108-5.124c-.89-2.593-6.581-1-6.581-1" transform="translate(-461.563 386.547)"/>
        <path id="패스_7278" data-name="패스 7278" class="cls-3" d="M465.561-377.282a1.139 1.139 0 0 1-.994-.586 27.753 27.753 0 0 1-2.586-6.413 1.137 1.137 0 0 1 .8-1.354c.689-.191 6.762-1.782 7.963 1.725a3.864 3.864 0 0 1-.182 3.026c-1.137 2.309-4.283 3.424-4.638 3.544a1.114 1.114 0 0 1-.363.058zm-1.046-6.417a27.1 27.1 0 0 0 1.568 3.831 5.391 5.391 0 0 0 2.441-2.024 1.57 1.57 0 0 0 .068-1.28c-.281-.828-2.306-.843-4.077-.528z" transform="translate(-461.951 386.16)"/>
    </g>
    <g id="그룹_2956" data-name="그룹 2956" transform="translate(28.152 98.31)">
        <path id="패스_7279" data-name="패스 7279" class="cls-10" d="M473.189-395.413s32.246-7.394 64.254.469c0 0 4.391 32.337-33.668 32.514s-30.586-32.983-30.586-32.983" transform="translate(-471.44 399.677)"/>
        <path id="패스_7280" data-name="패스 7280" class="cls-3" d="M503.864-360.913c-12.173 0-21.059-3.377-26.414-10.042-8.075-10.049-5.107-23.751-4.977-24.329a1.136 1.136 0 0 1 .855-.858c.325-.076 32.879-7.363 64.781.472a1.138 1.138 0 0 1 .855.952c.074.548 1.723 13.526-6.818 23.352-5.979 6.878-15.389 10.394-27.972 10.453zm-29.3-33.167c-.471 2.854-1.735 13.758 4.67 21.715 4.948 6.144 13.348 9.2 24.932 9.179 11.886-.056 20.719-3.3 26.25-9.656 6.742-7.741 6.565-17.965 6.366-20.81-28.491-6.77-57.321-1.432-62.22-.428z" transform="translate(-471.834 399.297)"/>
    </g>
    <g id="그룹_2957" data-name="그룹 2957" transform="translate(76.671 107.101)">
        <path id="패스_7281" data-name="패스 7281" class="cls-2" d="M519.889-362.9a4.127 4.127 0 0 0 3.366-.273c1.764-.984 4.568-3.143 7.356-7.747a27.35 27.35 0 0 0 3.44-7.594 4.146 4.146 0 0 0-1.1-3.83l-5.212-4.9-6.761-5.513s-10.435 7.959-16.441 23.9c0 0 13.526 5.32 15.348 5.953" transform="translate(-503.404 393.895)"/>
        <path id="패스_7282" data-name="패스 7282" class="cls-3" d="M521.668-361.143a5.365 5.365 0 0 1-1.764-.3c-1.822-.635-14.838-5.751-15.39-5.968a1.138 1.138 0 0 1-.648-1.459c6.052-16.063 16.38-24.071 16.816-24.405a1.136 1.136 0 0 1 1.407.024l6.761 5.513 5.273 4.948a5.276 5.276 0 0 1 1.424 4.919 28.965 28.965 0 0 1-3.574 7.924c-2.883 4.76-5.819 7.06-7.775 8.151a5.19 5.19 0 0 1-2.53.653zm-1.017-2.446a2.985 2.985 0 0 0 2.438-.193c1.716-.958 4.312-3.009 6.937-7.344a26.212 26.212 0 0 0 3.307-7.265 2.988 2.988 0 0 0-.8-2.775l-5.179-4.863-5.974-4.87a57.908 57.908 0 0 0-14.98 21.786c3.216 1.262 12.768 5.006 14.253 5.523z" transform="translate(-503.792 393.507)"/>
    </g>
    <g id="그룹_2958" data-name="그룹 2958" transform="translate(99.6 119.432)">
        <path id="패스_7283" data-name="패스 7283" class="cls-10" d="M525.913-383.607s-4.424-2.409-5.974.15 3.554 6.263 3.554 6.263a20.14 20.14 0 0 0 1.863-3.654 11.515 11.515 0 0 0 .557-2.759" transform="translate(-518.505 385.773)"/>
        <path id="패스_7284" data-name="패스 7284" class="cls-3" d="M523.883-375.668a1.142 1.142 0 0 1-.668-.216c-.609-.442-5.889-4.415-3.858-7.772 1.669-2.756 5.493-1.649 7.49-.562a1.134 1.134 0 0 1 .589 1.081 12.609 12.609 0 0 1-.63 3.088 21.314 21.314 0 0 1-1.983 3.884 1.14 1.14 0 0 1-.745.48 1.039 1.039 0 0 1-.195.017zm-1.2-7.441a1.5 1.5 0 0 0-1.38.63c-.568.938.908 2.733 2.28 3.964a20.172 20.172 0 0 0 1.1-2.358 8.3 8.3 0 0 0 .393-1.655 6.892 6.892 0 0 0-2.394-.581z" transform="translate(-518.894 385.385)"/>
    </g>
    <g id="그룹_2959" data-name="그룹 2959" transform="translate(94.912 127.594)">
        <path id="패스_7285" data-name="패스 7285" class="cls-10" d="M523.706-377.38a26.856 26.856 0 0 1-4.292 5.021s-4.421-3.349-2.267-6.164c1.667-2.176 6.559 1.143 6.559 1.143" transform="translate(-515.419 380.395)"/>
        <path id="패스_7286" data-name="패스 7286" class="cls-3" d="M519.8-370.838a1.129 1.129 0 0 1-.686-.231c-.3-.226-2.926-2.282-3.272-4.833a3.874 3.874 0 0 1 .788-2.927c2.258-2.942 7.509.492 8.1.893a1.138 1.138 0 0 1 .329 1.539 27.8 27.8 0 0 1-4.489 5.259 1.138 1.138 0 0 1-.77.3zm-.563-6.9a.961.961 0 0 0-.8.3 1.582 1.582 0 0 0-.34 1.24 5.476 5.476 0 0 0 1.673 2.692 27.553 27.553 0 0 0 2.7-3.134 7.993 7.993 0 0 0-3.232-1.102z" transform="translate(-515.807 380.009)"/>
    </g>
    <g id="그룹_2960" data-name="그룹 2960" transform="translate(41.419 81.788)">
        <path id="패스_7287" data-name="패스 7287" class="cls-10" d="M498.487-376.187a13.726 13.726 0 0 1-10.585-1.25c-7.283-4.259-6.562-8.775-6.562-8.775l13.574-23.218 17.147 10.025z" transform="translate(-480.185 410.568)"/>
        <path id="패스_7288" data-name="패스 7288" class="cls-3" d="M495.025-374.117a14.385 14.385 0 0 1-7.309-1.949c-7.866-4.6-7.146-9.72-7.113-9.937a1.151 1.151 0 0 1 .141-.395l13.576-23.218a1.138 1.138 0 0 1 1.556-.408L513.022-400a1.139 1.139 0 0 1 .408 1.556l-13.574 23.218a1.138 1.138 0 0 1-.612.5 13.956 13.956 0 0 1-4.219.609zm3.849-1.682zm-16.034-9.676c-.011.783.308 4.1 6.023 7.445a12.709 12.709 0 0 0 9.261 1.262l12.77-21.843-15.184-8.877z" transform="translate(-480.573 410.179)"/>
    </g>
    <g id="그룹_2961" data-name="그룹 2961" transform="translate(54.826 71.941)">
        <path id="패스_7289" data-name="패스 7289" d="m506.452-409.755 1.611-2.757a2.269 2.269 0 0 0-.811-3.1 2.272 2.272 0 0 0-3.1.811l-1.623 2.774c-7.436-2.406-12.38 6.178-12.38 6.178a18.855 18.855 0 0 0 7.111 7.038c4.213 2.464 10.245 3.109 10.245 3.109s4.854-8.739-1.057-14.057" transform="translate(-489.016 417.054)" style="fill:#fbf8e9"/>
        <path id="패스_7290" data-name="패스 7290" class="cls-3" d="M507.9-394.172c-.041 0-.081 0-.121-.006-.257-.029-6.323-.7-10.7-3.258a19.889 19.889 0 0 1-7.556-7.518 1.135 1.135 0 0 1 .033-1.069c1.784-3.1 6.66-8.321 12.824-6.937l1.183-2.022a3.4 3.4 0 0 1 4.65-1.219 3.406 3.406 0 0 1 1.221 4.652l-1.166 1.995c4.351 4.7 2.37 11.651.622 14.8a1.14 1.14 0 0 1-.99.582zm-16.03-11.253a18.732 18.732 0 0 0 6.355 6.026 27.814 27.814 0 0 0 9.017 2.854c.935-2.036 3.165-8.082-1.163-11.977a1.137 1.137 0 0 1-.222-1.418l1.612-2.757a1.129 1.129 0 0 0-.4-1.541 1.125 1.125 0 0 0-1.541.4l-1.623 2.774a1.138 1.138 0 0 1-1.332.509c-5.473-1.768-9.531 3.408-10.703 5.13z" transform="translate(-489.404 416.665)"/>
    </g>
    <g id="그룹_2962" data-name="그룹 2962" transform="translate(51.014 80.199)">
        <path id="패스_7291" data-name="패스 7291" class="cls-12" d="m506.769-395.154-17.825-10.421a2.64 2.64 0 0 1-.943-3.6 2.64 2.64 0 0 1 3.6-.944l17.823 10.419a2.639 2.639 0 0 1 .944 3.6 2.64 2.64 0 0 1-3.6.944" transform="translate(-486.504 411.615)"/>
        <path id="패스_7292" data-name="패스 7292" class="cls-3" d="M508.478-393.27a3.738 3.738 0 0 1-1.895-.515l-17.825-10.421a3.742 3.742 0 0 1-1.74-2.3 3.744 3.744 0 0 1 .389-2.857 3.774 3.774 0 0 1 5.154-1.351l17.826 10.423a3.738 3.738 0 0 1 1.74 2.3 3.741 3.741 0 0 1-.387 2.856 3.774 3.774 0 0 1-3.262 1.865zm-.748-2.478a1.5 1.5 0 0 0 2.047-.536 1.485 1.485 0 0 0 .152-1.131 1.481 1.481 0 0 0-.689-.912l-17.825-10.423a1.5 1.5 0 0 0-2.045.536 1.483 1.483 0 0 0-.152 1.133 1.479 1.479 0 0 0 .688.912z" transform="translate(-486.892 411.226)"/>
    </g>
    <g id="그룹_2963" data-name="그룹 2963" transform="translate(45.508 93.465)">
        <path id="패스_7293" data-name="패스 7293" d="M494.855-382.13a26.229 26.229 0 0 1-6.569-2.244 22.474 22.474 0 0 1-5.019-4.532l7.94-13.582 11.589 6.776z" transform="translate(-483.266 402.488)" style="fill:#f1e2ca"/>
    </g>
    <g id="그룹_2964" data-name="그룹 2964" transform="translate(53.04 89.125)">
        <path id="선_429" data-name="선 429" class="cls-12" d="m0 0 4.253 2.487"/>
    </g>
    <g id="그룹_2965" data-name="그룹 2965" transform="translate(51.836 87.922)">
        <path id="패스_7294" data-name="패스 7294" class="cls-5" d="M492.494-401.312a1.154 1.154 0 0 1-.211-.1l-4.253-2.485a1.2 1.2 0 0 1-.431-1.649 1.2 1.2 0 0 1 1.646-.43l4.254 2.487a1.2 1.2 0 0 1 .431 1.647 1.205 1.205 0 0 1-1.436.528" transform="translate(-487.434 406.139)"/>
    </g>
    <g id="그룹_2966" data-name="그룹 2966" transform="translate(49.679 94.875)">
        <path id="선_430" data-name="선 430" class="cls-12" d="m0 0 4.253 2.487"/>
    </g>
    <g id="그룹_2967" data-name="그룹 2967" transform="translate(48.475 93.671)">
        <path id="패스_7295" data-name="패스 7295" class="cls-5" d="M490.28-397.525a1.257 1.257 0 0 1-.211-.1l-4.253-2.487a1.2 1.2 0 0 1-.431-1.647 1.2 1.2 0 0 1 1.646-.431l4.254 2.487a1.2 1.2 0 0 1 .431 1.646 1.2 1.2 0 0 1-1.436.53" transform="translate(-485.22 402.353)"/>
    </g>
    <g id="그룹_2968" data-name="그룹 2968" transform="translate(46.7 99.97)">
        <path id="선_431" data-name="선 431" class="cls-12" d="m0 0 4.253 2.487"/>
    </g>
    <g id="그룹_2969" data-name="그룹 2969" transform="translate(45.496 98.765)">
        <path id="패스_7296" data-name="패스 7296" class="cls-5" d="M488.318-394.169a1.263 1.263 0 0 1-.211-.1l-4.253-2.487a1.2 1.2 0 0 1-.433-1.647 1.2 1.2 0 0 1 1.647-.431l4.254 2.487a1.2 1.2 0 0 1 .431 1.646 1.2 1.2 0 0 1-1.436.53" transform="translate(-483.258 398.997)"/>
    </g>
    <g id="그룹_2970" data-name="그룹 2970" transform="translate(43.688 105.122)">
        <path id="선_432" data-name="선 432" class="cls-12" d="m0 0 4.253 2.487"/>
    </g>
    <g id="그룹_2971" data-name="그룹 2971" transform="translate(42.484 103.918)">
        <path id="패스_7297" data-name="패스 7297" class="cls-5" d="M486.334-390.776a1.15 1.15 0 0 1-.211-.1l-4.254-2.487a1.2 1.2 0 0 1-.43-1.647 1.2 1.2 0 0 1 1.646-.431l4.254 2.487a1.206 1.206 0 0 1 .431 1.647 1.2 1.2 0 0 1-1.436.528" transform="translate(-481.274 395.603)"/>
    </g>
    <g id="그룹_2972" data-name="그룹 2972" transform="translate(58.45 85.077)">
        <path id="패스_7298" data-name="패스 7298" class="cls-2" d="M522.385-407.264c.887 2.751 4.788 9.6.677 18.7-4.741 10.5-25.956 21.862-29.859 10.609-3.27-9.425 6.626-9.375 6.626-9.375s-4.284.3-4.391-2.7c-.123-3.427 2.488-3.457 4.382-3.823 2.706-.524 9.085-1.1 9.572-5.475" transform="translate(-491.401 408.402)"/>
        <path id="패스_7299" data-name="패스 7299" class="cls-3" d="M500.627-371.776c-.184 0-.364 0-.544-.011-3.782-.172-6.4-2.042-7.567-5.409-1.1-3.161-.952-5.745.43-7.676a6.931 6.931 0 0 1 2.842-2.245 3.489 3.489 0 0 1-1.1-2.484c-.144-4.063 2.9-4.571 4.71-4.877l.594-.1c.295-.058.635-.115 1.005-.179 2.734-.468 7.313-1.248 7.653-4.306a1.131 1.131 0 0 1 1.256-1 1.137 1.137 0 0 1 1 1.256c-.528 4.758-6.384 5.759-9.53 6.295-.352.061-.676.115-.956.17-.21.041-.427.077-.648.114-1.949.328-2.883.572-2.813 2.554a1.223 1.223 0 0 0 .4.92 4.238 4.238 0 0 0 2.525.689c.19-.011.307-.012.339-.009a1.139 1.139 0 0 1 1.131 1.1 1.138 1.138 0 0 1-1.058 1.172c-.05 0-.172.011-.346.012-.891.05-3.809.36-5.159 2.256-.923 1.3-.966 3.181-.126 5.6a5.576 5.576 0 0 0 5.522 3.882c7.338.305 18.938-7.306 22.228-14.587 3.351-7.42 1.045-13.3-.194-16.461-.217-.55-.4-1.025-.528-1.419a1.137 1.137 0 0 1 .733-1.432 1.136 1.136 0 0 1 1.43.735c.115.357.285.788.481 1.287 1.362 3.471 3.9 9.932.15 18.225-3.581 7.924-15.661 15.928-23.86 15.928z" transform="translate(-491.79 408.013)"/>
    </g>
    <g id="그룹_2973" data-name="그룹 2973" transform="translate(28.372 81.389)">
        <path id="패스_7300" data-name="패스 7300" class="cls-2" d="M485.684-401.991c.124 4.4 6.436 5.5 9.09 6.243 1.855.519 4.454.764 4.052 4.171-.352 2.979-4.6 2.326-4.6 2.326s4.7 2.5.3 8.7c-5.13 7.227-19.641.043-21.588-11.312-1.265-7.368 3.43-14.394 7.222-17.832" transform="translate(-471.59 410.831)"/>
        <path id="패스_7301" data-name="패스 7301" class="cls-3" d="M488.924-376.118a12.39 12.39 0 0 1-2.733-.32c-5.771-1.315-12.632-6.963-13.983-14.842-1.315-7.662 3.261-14.951 7.579-18.867a1.134 1.134 0 0 1 1.6.079 1.136 1.136 0 0 1-.077 1.6c-3.134 2.841-8.1 9.575-6.865 16.8a16.944 16.944 0 0 0 12.255 13.012c1.854.421 5.262.7 7.3-2.163 1.363-1.921 1.9-3.589 1.588-4.958a3.363 3.363 0 0 0-1.5-2.088 1.143 1.143 0 0 1-.527-1.365 1.135 1.135 0 0 1 1.243-.758 4.514 4.514 0 0 0 2.824-.451 1.219 1.219 0 0 0 .472-.884c.232-1.969-.679-2.289-2.595-2.775a22.317 22.317 0 0 1-.636-.167c-.278-.077-.6-.159-.943-.249-3.09-.794-8.841-2.273-8.977-7.057a1.137 1.137 0 0 1 1.1-1.169 1.124 1.124 0 0 1 1.169 1.1c.088 3.073 4.583 4.23 7.271 4.919.364.094.7.181.99.263l.582.152c1.784.452 4.77 1.208 4.293 5.247a3.484 3.484 0 0 1-1.356 2.429 4.648 4.648 0 0 1-1.8.8 5.462 5.462 0 0 1 .6 1.5c.483 2.039-.17 4.338-1.94 6.832a8.165 8.165 0 0 1-6.934 3.38z" transform="translate(-471.979 410.442)"/>
    </g>
</svg>
