<svg xmlns="http://www.w3.org/2000/svg" width="247" height="223">
    <defs>
        <clipPath id="clip-path">
            <path id="패스_7242" data-name="패스 7242" class="cls-1" d="M497.863-412.589c7.361.266 7.824-7.695 7.824-7.695a20.334 20.334 0 0 1-14.044-.429s-1.142 7.86 6.22 8.124" transform="translate(-491.579 420.713)"/>
        </clipPath>
        <style>
            .cls-1,.cls-16,.cls-19{fill:none}.cls-2{fill:#8cc7ea}.cls-3{fill:#36607b}.cls-4{fill:#ffbfc5}.cls-5{fill:#335d76}.cls-8{fill:#f7f8f8}.cls-10{fill:#fff}.cls-12{fill:#d69494}.cls-15{fill:#8bb3ff}.cls-16,.cls-19{stroke:#5d85d0;stroke-width:1.534px;stroke-linecap:round;stroke-linejoin:round}.cls-19{stroke:#edffad;stroke-width:1.942px}
        </style>
    </defs>
    <g id="그룹_4418" data-name="그룹 4418" transform="translate(-772 -769)">
        <g id="그룹_3591" data-name="그룹 3591" transform="translate(821.528 817.464)">
            <g id="그룹_2919" data-name="그룹 2919" transform="translate(28.631 72.98)">
                <path id="패스_7230" data-name="패스 7230" class="cls-2" d="M480.878-411.306a30.45 30.45 0 0 0-6.689 19.069s32.014-.439 57.706 4.056a43.508 43.508 0 0 0-7.466-23.761z" transform="translate(-473.124 413.009)"/>
                <path id="패스_7231" data-name="패스 7231" class="cls-3" d="M532.211-386.8a1.133 1.133 0 0 1-.183-.016c-25.3-4.426-57.186-4.044-57.509-4.04a1 1 0 0 1-.76-.3 1.067 1.067 0 0 1-.318-.756A31.264 31.264 0 0 1 480.4-411.7a1.064 1.064 0 0 1 .777-.354l43.552-.637a1.013 1.013 0 0 1 .887.453 44.171 44.171 0 0 1 7.659 24.4 1.062 1.062 0 0 1-.392.793 1.064 1.064 0 0 1-.672.245zm-55.532-6.2c7.527 0 33.05.283 54.445 3.864a43.1 43.1 0 0 0-6.933-21.422l-42.492.621a29.949 29.949 0 0 0-6.116 16.939c.306-.002.672-.002 1.096-.002z" transform="translate(-473.44 412.693)"/>
            </g>
            <g id="그룹_2920" data-name="그룹 2920" transform="translate(0 4.153)">
                <path id="패스_7232" data-name="패스 7232" class="cls-2" d="M492.532-448.5s-4.049-13.147-21.742-11.786c-16.2 1.248-17.871 23.632-12.894 32.621a25.748 25.748 0 0 0-1.656 24.007c5.747 13.645 25.59 16.438 32.959.435" transform="translate(-452.97 461.443)"/>
                <path id="패스_7233" data-name="패스 7233" class="cls-3" d="M473.508-390.907h-.308a19.532 19.532 0 0 1-17.619-12.018 26.8 26.8 0 0 1 1.4-24.48c-2.95-5.947-3.493-16.828.79-24.776a15.935 15.935 0 0 1 13.255-8.845c18.344-1.408 22.8 12.394 22.842 12.533a1.061 1.061 0 0 1-.7 1.327 1.065 1.065 0 0 1-1.333-.7c-.158-.5-4.058-12.315-20.645-11.04a13.971 13.971 0 0 0-11.546 7.732c-3.955 7.341-3.45 17.98-.5 23.312a1.07 1.07 0 0 1-.064 1.133 24.921 24.921 0 0 0-1.542 22.977 17.4 17.4 0 0 0 15.692 10.716h.284c6.542 0 12.011-3.746 15.036-10.314a1.063 1.063 0 0 1 1.413-.522 1.064 1.064 0 0 1 .52 1.412c-3.335 7.253-9.667 11.553-16.975 11.553z" transform="translate(-453.291 461.128)"/>
            </g>
            <g id="그룹_2921" data-name="그룹 2921" transform="translate(9.401 15.634)">
                <path id="패스_7234" data-name="패스 7234" class="cls-4" d="M484.131-445.163s-2.8-9.048-14.155-7.76c-10.4 1.179-11.132 16.748-7.8 22.89a19.123 19.123 0 0 0-.7 16.694c3.9 9.359 16.7 10.915 21.2-.334" transform="translate(-459.907 453.048)"/>
            </g>
            <g id="그룹_2922" data-name="그룹 2922" transform="translate(21.759)">
                <path id="패스_7235" data-name="패스 7235" class="cls-2" d="M507.223-383.363c30.137.747 40.151-11.873 43.128-20.937 2.224-6.768.654-11.591.654-11.591.507-40.424-25.475-47.215-40.708-47.407-14.159-.178-39.74 5.966-40.243 45.984a39.239 39.239 0 0 0-.59 10.182c.517 6.3 4.124 22.938 37.759 23.769" transform="translate(-468.287 464.365)"/>
                <path id="패스_7236" data-name="패스 7236" class="cls-3" d="M510.073-381.951q-1.255 0-2.561-.033c-32.05-.793-38.062-15.844-38.794-24.746a40.133 40.133 0 0 1 .588-10.386c.583-42.817 29.12-47.039 41.319-46.932 7.423.094 18.118 1.705 26.916 8.854 10.047 8.165 15.042 21.445 14.845 39.47a21.491 21.491 0 0 1-.708 12.07c-2.693 8.203-11.678 21.703-41.605 21.703zm-2.508-2.16c30.572.732 39.506-12.336 42.092-20.207a19.345 19.345 0 0 0 .651-10.931 1.076 1.076 0 0 1-.051-.341c.219-17.423-4.512-30.193-14.058-37.951-8.322-6.764-18.515-8.289-25.6-8.378-11.613-.171-38.651 3.942-39.166 44.933a1.034 1.034 0 0 1-.024.209 38.5 38.5 0 0 0-.57 9.873c1.568 19.079 23.683 22.47 36.726 22.793z" transform="translate(-468.603 464.05)"/>
            </g>
            <g id="그룹_2923" data-name="그룹 2923" transform="translate(52.364 58.221)">
                <path id="패스_7237" data-name="패스 7237" class="cls-5" d="M499.215-418.824c-6.274-.078-8.7-2.633-8.846-2.791a.874.874 0 0 1 .058-1.236.875.875 0 0 1 1.231.053c.08.081 4.8 4.766 18.63.257a.876.876 0 0 1 1.1.56.877.877 0 0 1-.561 1.1 36.3 36.3 0 0 1-11.616 2.053" transform="translate(-490.14 423.079)"/>
            </g>
            <g id="그룹_2924" data-name="그룹 2924" transform="translate(54.408 61.585)">
                <path id="패스_7238" data-name="패스 7238" d="M491.643-420.712a20.349 20.349 0 0 0 14.044.428s-.462 7.959-7.824 7.695-6.22-8.123-6.22-8.123" transform="translate(-491.579 420.712)" style="fill:#cf7575"/>
            </g>
            <g id="그룹_2925" data-name="그룹 2925" transform="translate(52.659 59.836)">
                <path id="패스_7239" data-name="패스 7239" class="cls-5" d="M492.161-420.194a19.938 19.938 0 0 0 7.436 1.479 19.377 19.377 0 0 0 6.608-1.052s-.453 7.79-7.59 7.7l-.234-.006c-7.362-.264-6.22-8.123-6.22-8.123M492.182-421.945a1.77 1.77 0 0 0-.861.213 1.75 1.75 0 0 0-.9 1.283c-.027.182-.618 4.475 1.864 7.449a7.831 7.831 0 0 0 6.024 2.676l.276.007a8.444 8.444 0 0 0 8.047-4.76 12.7 12.7 0 0 0 1.306-4.493c.007-.058.01-.116.011-.176a1.75 1.75 0 0 0-1.718-1.772h-.074a1.773 1.773 0 0 0-.57.109 17.649 17.649 0 0 1-5.977.944 18.492 18.492 0 0 1-6.727-1.322 1.755 1.755 0 0 0-.706-.158" transform="translate(-490.349 421.943)"/>
            </g>
            <g id="그룹_2929" data-name="그룹 2929" transform="translate(54.408 61.584)">
                <g id="그룹_2928" data-name="그룹 2928" style="clip-path:url(#clip-path)">
                    <g id="그룹_2926" data-name="그룹 2926" transform="translate(-.125 4.037)">
                        <path id="패스_7240" data-name="패스 7240" class="cls-4" d="M491.491-416.585a12.177 12.177 0 0 1 6.277-1.277 14.266 14.266 0 0 1 6.565 1.816s-1.646 3.487-6.5 3.312a6.943 6.943 0 0 1-6.341-3.851" transform="translate(-491.491 417.872)"/>
                    </g>
                    <g id="그룹_2927" data-name="그룹 2927" transform="translate(-1 3.162)">
                        <path id="패스_7241" data-name="패스 7241" class="cls-5" d="m498.314-411.593-.254-.006a7.776 7.776 0 0 1-7.121-4.4.874.874 0 0 1 .361-1.079 12.994 12.994 0 0 1 6.758-1.4 15.086 15.086 0 0 1 7 1.952.875.875 0 0 1 .324 1.113 7.51 7.51 0 0 1-7.07 3.82m-5.333-4.34a6.28 6.28 0 0 0 5.141 2.585 6.131 6.131 0 0 0 5.2-2.112 14.122 14.122 0 0 0-5.33-1.268 12.56 12.56 0 0 0-5.015.794m-1.231-.392z" transform="translate(-490.875 418.488)"/>
                    </g>
                </g>
            </g>
            <g id="그룹_2930" data-name="그룹 2930" transform="translate(69.298 42.408)">
                <path id="패스_7243" data-name="패스 7243" class="cls-3" d="M511.214-428.959a4.856 4.856 0 0 1-4.708 4.988 4.886 4.886 0 0 1-4.446-5.246 4.855 4.855 0 0 1 4.708-4.988 4.886 4.886 0 0 1 4.446 5.246" transform="translate(-502.058 434.207)"/>
            </g>
            <g id="그룹_2931" data-name="그룹 2931" transform="translate(70.202 31.156)">
                <path id="패스_7244" data-name="패스 7244" class="cls-3" d="M509.6-439.229a.956.956 0 0 1-.561-.192 4.218 4.218 0 0 0-2.345-.79 4.855 4.855 0 0 0-2.62.6.954.954 0 0 1-1.279-.429.954.954 0 0 1 .431-1.279 6.744 6.744 0 0 1 3.578-.793 6.085 6.085 0 0 1 3.383 1.169.954.954 0 0 1 .188 1.336.958.958 0 0 1-.774.379" transform="translate(-502.694 442.126)"/>
            </g>
            <g id="그룹_2932" data-name="그룹 2932" transform="translate(71.258 44.706)">
                <path id="패스_7245" data-name="패스 7245" class="cls-8" d="M505.921-431.244a1.263 1.263 0 0 1-1.3 1.228 1.269 1.269 0 0 1-1.182-1.346 1.261 1.261 0 0 1 1.3-1.226 1.27 1.27 0 0 1 1.184 1.344" transform="translate(-503.437 432.59)"/>
            </g>
            <g id="그룹_2933" data-name="그룹 2933" transform="translate(39.577 40.392)">
                <path id="패스_7246" data-name="패스 7246" class="cls-3" d="M489.632-430.291c-.071 2.876-2.029 5.151-4.372 5.08s-4.186-2.456-4.115-5.332 2.028-5.151 4.371-5.082 4.186 2.457 4.117 5.333" transform="translate(-481.143 435.626)"/>
            </g>
            <g id="그룹_2934" data-name="그룹 2934" transform="translate(39.799 30.774)">
                <path id="패스_7247" data-name="패스 7247" class="cls-3" d="M488.2-439.5a.934.934 0 0 1-.561-.192 4.221 4.221 0 0 0-2.345-.789 4.855 4.855 0 0 0-2.62.6.954.954 0 0 1-1.279-.429.955.955 0 0 1 .429-1.279 6.766 6.766 0 0 1 3.58-.793 6.1 6.1 0 0 1 3.382 1.169.954.954 0 0 1 .189 1.336.954.954 0 0 1-.775.379" transform="translate(-481.299 442.394)"/>
            </g>
            <g id="그룹_2935" data-name="그룹 2935" transform="translate(41.255 42.625)">
                <path id="패스_7248" data-name="패스 7248" class="cls-8" d="M484.48-432.886a1.094 1.094 0 0 1-1.128 1.066 1.1 1.1 0 0 1-1.027-1.168 1.1 1.1 0 0 1 1.128-1.066 1.1 1.1 0 0 1 1.027 1.168" transform="translate(-482.323 434.055)"/>
            </g>
            <g id="그룹_2936" data-name="그룹 2936" transform="translate(69.632 42.071)">
                <path id="패스_7249" data-name="패스 7249" class="cls-5" d="M510.782-429.109c-.071 2.876-2.029 5.151-4.372 5.082s-4.186-2.457-4.115-5.333 2.028-5.151 4.371-5.082 4.188 2.457 4.117 5.333" transform="translate(-502.293 434.444)"/>
            </g>
            <g id="그룹_2937" data-name="그룹 2937" transform="translate(71.31 44.027)">
                <path id="패스_7250" data-name="패스 7250" class="cls-8" d="M505.63-431.9a1.1 1.1 0 0 1-1.128 1.066 1.1 1.1 0 0 1-1.028-1.166 1.1 1.1 0 0 1 1.128-1.066 1.1 1.1 0 0 1 1.027 1.168" transform="translate(-503.473 433.068)"/>
            </g>
            <g id="그룹_2938" data-name="그룹 2938" transform="translate(92.903 5.689)">
                <path id="패스_7251" data-name="패스 7251" class="cls-2" d="M519.444-448.79s5.011-12.81 22.556-10.145c16.066 2.443 16.073 24.889 10.445 33.485a25.752 25.752 0 0 1-.125 24.064c-6.743 13.181-26.737 14.5-32.9-2" transform="translate(-518.353 460.361)"/>
                <path id="패스_7252" data-name="패스 7252" class="cls-3" d="M536.228-389.875c-.368 0-.736-.01-1.107-.031-7.426-.428-13.551-5.211-16.384-12.8a1.065 1.065 0 0 1 .624-1.37 1.067 1.067 0 0 1 1.37.625c2.566 6.871 7.857 11.031 14.514 11.417a17.425 17.425 0 0 0 16.443-9.525 24.925 24.925 0 0 0 .163-23.028 1.064 1.064 0 0 1 .02-1.134c3.338-5.1 4.627-15.671 1.226-23.285a13.967 13.967 0 0 0-10.942-8.565c-16.437-2.491-21.21 8.992-21.4 9.483a1.063 1.063 0 0 1-1.38.6 1.065 1.065 0 0 1-.6-1.377c.055-.135 5.541-13.574 23.708-10.808a15.94 15.94 0 0 1 12.565 9.8c3.682 8.245 2.336 19.053-1.046 24.767a26.8 26.8 0 0 1-.412 24.516 19.556 19.556 0 0 1-17.362 10.715z" transform="translate(-518.668 460.047)"/>
            </g>
            <g id="그룹_2939" data-name="그룹 2939" transform="translate(99.383 16.685)">
                <path id="패스_7253" data-name="패스 7253" class="cls-4" d="M524.1-445.288s3.462-8.815 14.689-6.69c10.282 1.945 9.863 17.526 6.083 23.4a19.119 19.119 0 0 1-.536 16.7c-4.581 9.045-17.459 9.649-21.111-1.9" transform="translate(-523.229 452.309)"/>
            </g>
            <g id="그룹_2940" data-name="그룹 2940" transform="translate(26.767 40.397)">
                <path id="패스_7254" data-name="패스 7254" class="cls-2" d="M498.768-433.175s-9.383 15-20.264-1.162a1.2 1.2 0 0 0-1.616-.364l-3.474 1.977c-.541.323-.551.962-.533 1.6.161 5.953 18.311 26.573 36.09 11.388" transform="translate(-471.812 435.938)"/>
                <path id="패스_7255" data-name="패스 7255" class="cls-3" d="M495.717-412.877a21.915 21.915 0 0 1-8.879-1.975c-8.687-3.864-14.6-12.144-14.7-15.927a2.6 2.6 0 0 1 1.052-2.545l3.493-1.987a2.265 2.265 0 0 1 3.024.693c3.14 4.664 6.389 7.027 9.657 7.027h.114c5.053-.085 8.673-5.776 8.708-5.835a1.064 1.064 0 0 1 1.466-.337 1.064 1.064 0 0 1 .338 1.466c-.172.274-4.282 6.73-10.477 6.832-4.044.07-7.968-2.612-11.571-7.965a.136.136 0 0 0-.188-.044l-3.493 1.988c-.013.07 0 .5 0 .647.075 2.8 5.369 10.45 13.443 14.04 5.06 2.251 12.795 3.483 20.892-3.43a1.063 1.063 0 0 1 1.5.118 1.063 1.063 0 0 1-.118 1.5c-5.021 4.289-9.928 5.734-14.261 5.734z" transform="translate(-472.128 435.622)"/>
            </g>
            <g id="그룹_2941" data-name="그룹 2941" transform="translate(49.453 47.372)">
                <path id="패스_7256" data-name="패스 7256" class="cls-2" d="M488.125-430.323s4.031.328 5.006 3.51" transform="translate(-488.078 430.879)"/>
                <path id="패스_7257" data-name="패스 7257" class="cls-3" d="M492.612-426.486c-.85-2.774-4.483-3.115-4.52-3.118l.092-1.11c.18.014 4.421.4 5.492 3.9z" transform="translate(-488.092 430.714)"/>
            </g>
            <g id="그룹_2942" data-name="그룹 2942" transform="translate(48.651 47.078)">
                <path id="패스_7258" data-name="패스 7258" class="cls-3" d="M493.371-425.712a.851.851 0 0 1-.8-.6c-.789-2.581-4.229-2.907-4.263-2.91a.851.851 0 0 1-.774-.919.848.848 0 0 1 .914-.776c.189.014 4.621.418 5.751 4.107a.851.851 0 0 1-.564 1.063.827.827 0 0 1-.26.037" transform="translate(-487.528 430.921)"/>
            </g>
            <g id="그룹_2943" data-name="그룹 2943" transform="translate(44.932 48.956)">
                <path id="패스_7259" data-name="패스 7259" class="cls-2" d="M485.045-429.23a5.966 5.966 0 0 1 3.247 3.99" transform="translate(-484.855 429.754)"/>
                <path id="패스_7260" data-name="패스 7260" class="cls-3" d="M487.816-424.922a5.412 5.412 0 0 0-2.9-3.628l.377-1.049a6.486 6.486 0 0 1 3.592 4.351z" transform="translate(-484.911 429.599)"/>
            </g>
            <g id="그룹_2944" data-name="그룹 2944" transform="translate(44.277 48.631)">
                <path id="패스_7261" data-name="패스 7261" class="cls-3" d="M488.531-424.138a.85.85 0 0 1-.8-.6 5.15 5.15 0 0 0-2.731-3.44.855.855 0 0 1-.5-1.09.849.849 0 0 1 1.08-.512 6.8 6.8 0 0 1 3.774 4.542.851.851 0 0 1-.564 1.063.817.817 0 0 1-.26.037" transform="translate(-484.45 429.828)"/>
            </g>
            <g id="그룹_2945" data-name="그룹 2945" transform="translate(39.714 48.335)">
                <path id="패스_7262" data-name="패스 7262" class="cls-2" d="M481.549-429.795a5.506 5.506 0 0 1 .779 4.972" transform="translate(-481.109 430.137)"/>
                <path id="패스_7263" data-name="패스 7263" class="cls-3" d="m482.98-424.525-1.043-.392a4.988 4.988 0 0 0-.7-4.436l.881-.682a6.031 6.031 0 0 1 .862 5.51z" transform="translate(-481.239 430.036)"/>
            </g>
            <g id="그룹_2946" data-name="그룹 2946" transform="translate(39.307 47.828)">
                <path id="패스_7264" data-name="패스 7264" class="cls-3" d="M482.569-423.72a.833.833 0 0 1-.29-.055.851.851 0 0 1-.5-1.1 4.61 4.61 0 0 0-.655-4.154.851.851 0 0 1 .155-1.191.849.849 0 0 1 1.189.149 6.339 6.339 0 0 1 .9 5.795.852.852 0 0 1-.806.551" transform="translate(-480.953 430.393)"/>
            </g>
            <g id="그룹_2947" data-name="그룹 2947" transform="translate(18.976 35.179)">
                <path id="패스_7265" data-name="패스 7265" class="cls-2" d="M480.608-432.791s1.839-4.472-1.59-5.579-3.561 3.375-3.561 3.375-5.289-4.885-7.415-1.093c-2.3 4.11 1.84 8.4 7.357 7.023" transform="translate(-466.33 439.61)"/>
                <path id="패스_7266" data-name="패스 7266" class="cls-3" d="M473.663-427.43a7.274 7.274 0 0 1-5.877-2.663 5.519 5.519 0 0 1-.358-6.2 3.654 3.654 0 0 1 2.646-1.938c1.773-.279 3.7.742 4.979 1.628a4.146 4.146 0 0 1 1.457-2.133 3.406 3.406 0 0 1 3.15-.331 3.862 3.862 0 0 1 2.409 2.053c.963 2.079-.043 4.657-.161 4.944a1.064 1.064 0 0 1-1.39.58 1.063 1.063 0 0 1-.58-1.385 4.857 4.857 0 0 0 .2-3.247 1.725 1.725 0 0 0-1.13-.918c-.826-.269-1.158-.034-1.268.043a3.537 3.537 0 0 0-.9 2.353 1.065 1.065 0 0 1-.654.945 1.063 1.063 0 0 1-1.131-.2c-.715-.656-3.1-2.481-4.647-2.231a1.5 1.5 0 0 0-1.12.877 3.4 3.4 0 0 0 .193 3.868c1.205 1.577 3.55 2.205 5.978 1.6a1.064 1.064 0 0 1 1.29.776 1.066 1.066 0 0 1-.777 1.29 9.566 9.566 0 0 1-2.309.289z" transform="translate(-466.645 439.294)"/>
            </g>
            <g id="그룹_2948" data-name="그룹 2948" transform="translate(84.843 92.332)">
                <path id="패스_7267" data-name="패스 7267" class="cls-2" d="M513.451-390.37a9.163 9.163 0 0 0 9.457-.767s4.947 2.9 8.25-.521 2.708-6.676 2.708-6.676c-11.014-2.166-11.02 6.488-11.02 6.488a10.018 10.018 0 0 1-8.782-.961z" transform="translate(-512.806 399.24)"/>
                <path id="패스_7268" data-name="패스 7268" class="cls-3" d="M517.868-388.655a10.037 10.037 0 0 1-4.495-1.063l-.377-.206.925-3.666.669.5a9.323 9.323 0 0 0 7.914.985 7.746 7.746 0 0 1 2.642-5.217c2.066-1.7 5.1-2.167 9.018-1.4l.372.074.068.372c.027.144.608 3.572-2.853 7.162-3.055 3.167-7.389 1.384-8.606.786a9.141 9.141 0 0 1-5.277 1.673zm-3.575-1.856a8.542 8.542 0 0 0 7.487-.273 10.639 10.639 0 0 1-7.169-.985zm9.3-.827c.941.487 4.729 2.181 7.355-.543a8.062 8.062 0 0 0 2.593-5.818c-3.371-.6-5.951-.182-7.678 1.232a6.818 6.818 0 0 0-2.269 4.786z" transform="translate(-512.997 399.075)"/>
            </g>
            <g id="그룹_2949" data-name="그룹 2949" transform="translate(83.438 90.839)">
                <path id="패스_7269" data-name="패스 7269" class="cls-5" d="M531.131-398.076a16.922 16.922 0 0 1 3.344.35s.6 3.25-2.707 6.675a5.387 5.387 0 0 1-3.987 1.671 9.389 9.389 0 0 1-4.264-1.15 8.63 8.63 0 0 1-5.187 1.748 9.6 9.6 0 0 1-4.27-.981l.615-2.438a9.32 9.32 0 0 0 5.336 1.523 11.551 11.551 0 0 0 3.445-.56s0-6.8 7.677-6.838m-.009-2.049c-4.948.023-7.348 2.447-8.491 4.476a9.723 9.723 0 0 0-1.029 2.767 9.093 9.093 0 0 1-1.6.154 7.327 7.327 0 0 1-4.105-1.12 2.032 2.032 0 0 0-1.233-.412 2.1 2.1 0 0 0-.675.118 2.046 2.046 0 0 0-1.3 1.441l-.615 2.437a2.049 2.049 0 0 0 1 2.3 11.535 11.535 0 0 0 5.266 1.236 10.55 10.55 0 0 0 5.339-1.454 10.9 10.9 0 0 0 4.113.853 7.451 7.451 0 0 0 5.452-2.3c3.186-3.3 3.54-6.878 3.248-8.469a2.05 2.05 0 0 0-1.621-1.641 19.105 19.105 0 0 0-3.747-.387" transform="translate(-512.008 400.125)"/>
            </g>
            <g id="그룹_2950" data-name="그룹 2950" transform="translate(94.4 92.868)">
                <path id="패스_7270" data-name="패스 7270" d="M520.4-391.054s4.741 2.9 8.044-.523 2.785-6.754 2.785-6.754c-11.013-2.167-11.512 5.99-11.512 5.99z" transform="translate(-519.722 398.698)" style="fill:#9ee630"/>
            </g>
            <g id="그룹_2951" data-name="그룹 2951" transform="translate(92.351 90.818)">
                <path id="패스_7271" data-name="패스 7271" class="cls-5" d="M528.32-398.091a17.97 17.97 0 0 1 3.521.367s.52 3.328-2.785 6.753a5.306 5.306 0 0 1-3.926 1.671 8.777 8.777 0 0 1-4.118-1.145l-.681-1.289s.384-6.319 7.989-6.356m-.01-2.049c-9.416.044-10.021 8.2-10.025 8.282a2.031 2.031 0 0 0 .234 1.084l.681 1.287a2.06 2.06 0 0 0 .742.789 10.724 10.724 0 0 0 5.2 1.448 7.381 7.381 0 0 0 5.393-2.3c3.965-4.111 3.362-8.316 3.334-8.492a2.048 2.048 0 0 0-1.63-1.7 19.876 19.876 0 0 0-3.926-.4" transform="translate(-518.28 400.14)"/>
            </g>
            <g id="그룹_2952" data-name="그룹 2952" transform="translate(94.203 94.618)">
                <path id="패스_7272" data-name="패스 7272" class="cls-5" d="M520.926-391.235a1.919 1.919 0 0 1-.685-.105 1.028 1.028 0 0 1-.59-1.326 1.025 1.025 0 0 1 1.276-.605c.941.071 5.344-2 6.616-3.769a1.023 1.023 0 0 1 1.43-.233 1.025 1.025 0 0 1 .233 1.431c-1.417 1.97-6.011 4.6-8.28 4.607m.05-2.021" transform="translate(-519.583 397.466)"/>
            </g>
            <g id="그룹_2953" data-name="그룹 2953" transform="translate(11.117 93.89)">
                <path id="패스_7273" data-name="패스 7273" class="cls-2" d="M469.846-370.408a3.865 3.865 0 0 1-2.906-1.243c-1.275-1.4-3.121-4.148-4.225-9.063a25.572 25.572 0 0 1-.8-7.762 3.876 3.876 0 0 1 2.112-3.074l6.081-2.8 7.641-2.883s6.893 10.167 7.485 26.1c0 0-13.586.7-15.391.72" transform="translate(-460.799 398.293)"/>
                <path id="패스_7274" data-name="패스 7274" class="cls-3" d="M470.115-369.029a4.927 4.927 0 0 1-3.646-1.592c-1.411-1.547-3.332-4.462-4.475-9.545a27.093 27.093 0 0 1-.819-8.1 4.914 4.914 0 0 1 2.687-3.922l6.12-2.815 7.709-2.913a1.067 1.067 0 0 1 1.256.4c.288.425 7.072 10.605 7.668 26.658a1.063 1.063 0 0 1-1.008 1.1c-.556.028-13.628.7-15.435.72h-.058zm7.51-26.582-6.821 2.575-6.012 2.767a2.777 2.777 0 0 0-1.5 2.207 24.494 24.494 0 0 0 .775 7.431c1.04 4.628 2.734 7.22 3.972 8.579a2.715 2.715 0 0 0 2.107.9c1.471-.017 11.064-.5 14.291-.665a54.234 54.234 0 0 0-6.812-23.794z" transform="translate(-461.114 397.978)"/>
            </g>
            <g id="그룹_2954" data-name="그룹 2954" transform="translate(11.273 101.876)">
                <path id="패스_7275" data-name="패스 7275" class="cls-10" d="M462.3-391.484s4.642-.823 5.256 1.91-5.016 4.5-5.016 4.5a18.936 18.936 0 0 1-.566-3.8 10.806 10.806 0 0 1 .325-2.613" transform="translate(-460.909 392.678)"/>
                <path id="패스_7276" data-name="패스 7276" class="cls-3" d="M462.861-383.688a1.084 1.084 0 0 1-.507-.128 1.067 1.067 0 0 1-.517-.648 19.894 19.894 0 0 1-.605-4.036 11.813 11.813 0 0 1 .358-2.929 1.063 1.063 0 0 1 .844-.783c2.1-.375 5.821-.216 6.48 2.724.806 3.584-5.062 5.539-5.734 5.751a1.109 1.109 0 0 1-.319.049zm.639-6.5a7.721 7.721 0 0 0-.143 1.586 18.879 18.879 0 0 0 .28 2.42c1.583-.685 3.426-1.837 3.2-2.839-.269-1.202-2.255-1.235-3.337-1.167z" transform="translate(-461.225 392.358)"/>
            </g>
            <g id="그룹_2955" data-name="그룹 2955" transform="translate(12.306 110.685)">
                <path id="패스_7277" data-name="패스 7277" class="cls-10" d="M462.7-384.959a25.11 25.11 0 0 0 2.315 5.731s4.921-1.657 3.845-4.8c-.833-2.427-6.16-.935-6.16-.935" transform="translate(-461.636 386.474)"/>
                <path id="패스_7278" data-name="패스 7278" class="cls-3" d="M465.33-377.85a1.066 1.066 0 0 1-.931-.548 25.977 25.977 0 0 1-2.42-6 1.064 1.064 0 0 1 .749-1.268c.645-.179 6.329-1.668 7.453 1.614a3.616 3.616 0 0 1-.171 2.832c-1.064 2.161-4.009 3.2-4.341 3.317a1.043 1.043 0 0 1-.339.053zm-.979-6.007a25.371 25.371 0 0 0 1.468 3.585 5.046 5.046 0 0 0 2.285-1.894 1.47 1.47 0 0 0 .064-1.2c-.268-.775-2.16-.786-3.817-.491z" transform="translate(-461.951 386.16)"/>
            </g>
            <g id="그룹_2956" data-name="그룹 2956" transform="translate(26.35 92.016)">
                <path id="패스_7279" data-name="패스 7279" class="cls-10" d="M473.151-395.615s30.181-6.92 60.141.439c0 0 4.11 30.266-31.513 30.433s-28.628-30.872-28.628-30.872" transform="translate(-471.514 399.605)"/>
                <path id="패스_7280" data-name="패스 7280" class="cls-3" d="M501.813-363.371c-11.394 0-19.711-3.16-24.723-9.4-7.558-9.406-4.78-22.23-4.658-22.772a1.064 1.064 0 0 1 .8-.8c.3-.071 30.774-6.892 60.634.442a1.065 1.065 0 0 1 .8.891c.07.513 1.613 12.66-6.382 21.857-5.6 6.437-14.4 9.728-26.181 9.784zm-27.426-31.044c-.44 2.672-1.624 12.877 4.371 20.325 4.631 5.751 12.494 8.616 23.336 8.592 11.125-.053 19.393-3.092 24.57-9.038 6.311-7.246 6.144-16.815 5.958-19.478-26.665-6.336-53.649-1.34-58.235-.4z" transform="translate(-471.834 399.297)"/>
            </g>
            <g id="그룹_2957" data-name="그룹 2957" transform="translate(71.763 100.244)">
                <path id="패스_7281" data-name="패스 7281" class="cls-2" d="M518.906-364.815a3.863 3.863 0 0 0 3.15-.256c1.651-.921 4.276-2.942 6.885-7.252a25.6 25.6 0 0 0 3.22-7.108 3.881 3.881 0 0 0-1.026-3.585l-4.878-4.583-6.328-5.16s-9.767 7.449-15.388 22.371c0 0 12.66 4.979 14.365 5.572" transform="translate(-503.477 393.822)"/>
                <path id="패스_7282" data-name="패스 7282" class="cls-3" d="M520.523-363.215a5.021 5.021 0 0 1-1.651-.28c-1.705-.594-13.888-5.383-14.4-5.586a1.065 1.065 0 0 1-.607-1.366c5.664-15.034 15.332-22.53 15.739-22.843a1.063 1.063 0 0 1 1.317.023l6.328 5.16 4.935 4.631a4.938 4.938 0 0 1 1.333 4.6 27.111 27.111 0 0 1-3.345 7.416c-2.7 4.455-5.447 6.608-7.277 7.63a4.857 4.857 0 0 1-2.372.615zm-.952-2.289a2.794 2.794 0 0 0 2.282-.18c1.606-.9 4.036-2.817 6.493-6.874a24.535 24.535 0 0 0 3.1-6.8 2.8 2.8 0 0 0-.75-2.6l-4.847-4.552-5.592-4.559a54.2 54.2 0 0 0-14.021 20.392c3.01 1.181 11.951 4.685 13.341 5.17z" transform="translate(-503.792 393.507)"/>
            </g>
            <g id="그룹_2958" data-name="그룹 2958" transform="translate(93.224 111.786)">
                <path id="패스_7283" data-name="패스 7283" class="cls-10" d="M525.512-383.673s-4.141-2.255-5.592.141 3.327 5.862 3.327 5.862a18.85 18.85 0 0 0 1.744-3.42 10.778 10.778 0 0 0 .521-2.582" transform="translate(-518.578 385.701)"/>
                <path id="패스_7284" data-name="패스 7284" class="cls-3" d="M523.563-376.29a1.069 1.069 0 0 1-.625-.2c-.57-.414-5.512-4.132-3.611-7.274 1.562-2.579 5.141-1.543 7.01-.526a1.061 1.061 0 0 1 .551 1.012 11.805 11.805 0 0 1-.59 2.89 19.95 19.95 0 0 1-1.856 3.635 1.067 1.067 0 0 1-.7.449.971.971 0 0 1-.179.014zm-1.124-6.964a1.4 1.4 0 0 0-1.292.59c-.531.878.85 2.558 2.134 3.71a18.889 18.889 0 0 0 1.033-2.207 7.768 7.768 0 0 0 .368-1.549 6.45 6.45 0 0 0-2.243-.545z" transform="translate(-518.894 385.385)"/>
            </g>
            <g id="그룹_2959" data-name="그룹 2959" transform="translate(88.836 119.425)">
                <path id="패스_7285" data-name="패스 7285" class="cls-10" d="M523.248-377.5a25.136 25.136 0 0 1-4.017 4.7s-4.138-3.135-2.122-5.769c1.56-2.036 6.139 1.07 6.139 1.07" transform="translate(-515.492 380.323)"/>
                <path id="패스_7286" data-name="패스 7286" class="cls-3" d="M519.546-371.425a1.057 1.057 0 0 1-.642-.216c-.28-.212-2.738-2.136-3.062-4.523a3.625 3.625 0 0 1 .737-2.74c2.113-2.754 7.028.46 7.581.836a1.065 1.065 0 0 1 .308 1.441 26.024 26.024 0 0 1-4.2 4.922 1.065 1.065 0 0 1-.722.28zm-.527-6.463a.9.9 0 0 0-.75.277 1.481 1.481 0 0 0-.318 1.161 5.126 5.126 0 0 0 1.566 2.519 25.788 25.788 0 0 0 2.529-2.933 7.481 7.481 0 0 0-3.027-1.024z" transform="translate(-515.807 380.009)"/>
            </g>
            <g id="그룹_2960" data-name="그룹 2960" transform="translate(38.767 76.552)">
                <path id="패스_7287" data-name="패스 7287" class="cls-10" d="M497.388-378.315a12.847 12.847 0 0 1-9.907-1.17c-6.817-3.986-6.142-8.214-6.142-8.214l12.705-21.732 16.049 9.383z" transform="translate(-480.258 410.495)"/>
                <path id="패스_7288" data-name="패스 7288" class="cls-3" d="M494.1-376.425a13.464 13.464 0 0 1-6.841-1.825c-7.362-4.3-6.689-9.1-6.658-9.3a1.078 1.078 0 0 1 .132-.37l12.707-21.732a1.065 1.065 0 0 1 1.457-.382l16.048 9.383a1.066 1.066 0 0 1 .382 1.457l-12.705 21.732a1.066 1.066 0 0 1-.573.469 13.063 13.063 0 0 1-3.949.568zm3.6-1.575zm-15.008-9.056c-.01.733.289 3.841 5.637 6.969a11.9 11.9 0 0 0 8.671 1.181l11.952-20.444-14.212-8.309z" transform="translate(-480.573 410.179)"/>
            </g>
            <g id="그룹_2961" data-name="그룹 2961" transform="translate(51.316 67.335)">
                <path id="패스_7289" data-name="패스 7289" d="m505.408-410.15 1.508-2.581a2.123 2.123 0 0 0-.759-2.9 2.126 2.126 0 0 0-2.9.759l-1.519 2.6c-6.96-2.252-11.587 5.782-11.587 5.782a17.648 17.648 0 0 0 6.656 6.588c3.943 2.306 9.589 2.91 9.589 2.91s4.543-8.179-.989-13.157" transform="translate(-489.088 416.981)" style="fill:#fbf8e9"/>
                <path id="패스_7290" data-name="패스 7290" class="cls-3" d="M506.712-395.612c-.038 0-.075 0-.114-.006a29.128 29.128 0 0 1-10.013-3.05 18.616 18.616 0 0 1-7.072-7.037 1.062 1.062 0 0 1 .031-1c1.67-2.9 6.234-7.789 12-6.493l1.107-1.893a3.186 3.186 0 0 1 4.353-1.141 3.188 3.188 0 0 1 1.143 4.354l-1.091 1.867c4.073 4.4 2.218 10.9.583 13.851a1.067 1.067 0 0 1-.927.548zm-15-10.533a17.533 17.533 0 0 0 5.948 5.64 26.033 26.033 0 0 0 8.44 2.672c.875-1.906 2.963-7.564-1.089-11.211a1.064 1.064 0 0 1-.207-1.327l1.509-2.581a1.057 1.057 0 0 0-.378-1.442 1.053 1.053 0 0 0-1.442.378l-1.519 2.6a1.065 1.065 0 0 1-1.246.476c-5.116-1.66-8.919 3.184-10.016 4.795z" transform="translate(-489.404 416.665)"/>
            </g>
            <g id="그룹_2962" data-name="그룹 2962" transform="translate(47.748 75.064)">
                <path id="패스_7291" data-name="패스 7291" class="cls-12" d="m505.544-396.135-16.684-9.754a2.471 2.471 0 0 1-.882-3.371 2.471 2.471 0 0 1 3.369-.884l16.683 9.755a2.47 2.47 0 0 1 .884 3.369 2.471 2.471 0 0 1-3.369.884" transform="translate(-486.577 411.542)"/>
                <path id="패스_7292" data-name="패스 7292" class="cls-3" d="M507.1-394.419a3.5 3.5 0 0 1-1.773-.482l-16.684-9.754a3.5 3.5 0 0 1-1.629-2.151 3.5 3.5 0 0 1 .364-2.674 3.532 3.532 0 0 1 4.824-1.265l16.684 9.755a3.5 3.5 0 0 1 1.628 2.151 3.5 3.5 0 0 1-.362 2.673 3.532 3.532 0 0 1-3.052 1.747zm-.7-2.319a1.4 1.4 0 0 0 1.916-.5 1.39 1.39 0 0 0 .142-1.059 1.387 1.387 0 0 0-.645-.854l-16.683-9.755a1.4 1.4 0 0 0-1.914.5 1.388 1.388 0 0 0-.142 1.06 1.384 1.384 0 0 0 .644.854z" transform="translate(-486.892 411.226)"/>
            </g>
            <g id="그룹_2963" data-name="그룹 2963" transform="translate(42.595 87.482)">
                <path id="패스_7293" data-name="패스 7293" d="M494.113-383.433a24.551 24.551 0 0 1-6.149-2.1 21.036 21.036 0 0 1-4.7-4.242l7.432-12.713 10.847 6.342z" transform="translate(-483.266 402.488)" style="fill:#f1e2ca"/>
            </g>
            <g id="그룹_2964" data-name="그룹 2964" transform="translate(49.645 83.419)">
                <path id="선_429" data-name="선 429" class="cls-12" d="m0 0 3.981 2.327"/>
            </g>
            <g id="그룹_2965" data-name="그룹 2965" transform="translate(48.518 82.293)">
                <path id="패스_7294" data-name="패스 7294" class="cls-5" d="M492.17-401.621a1.081 1.081 0 0 1-.2-.092l-3.98-2.326a1.128 1.128 0 0 1-.4-1.543 1.127 1.127 0 0 1 1.54-.4l3.982 2.328a1.127 1.127 0 0 1 .4 1.542 1.128 1.128 0 0 1-1.344.495" transform="translate(-487.434 406.139)"/>
            </g>
            <g id="그룹_2966" data-name="그룹 2966" transform="translate(46.498 88.801)">
                <path id="선_430" data-name="선 430" class="cls-12" d="m0 0 3.981 2.327"/>
            </g>
            <g id="그룹_2967" data-name="그룹 2967" transform="translate(45.371 87.674)">
                <path id="패스_7295" data-name="패스 7295" class="cls-5" d="M489.956-397.834a1.178 1.178 0 0 1-.2-.091l-3.98-2.328a1.126 1.126 0 0 1-.4-1.542 1.127 1.127 0 0 1 1.54-.4l3.982 2.328a1.125 1.125 0 0 1 .4 1.54 1.127 1.127 0 0 1-1.344.5" transform="translate(-485.22 402.353)"/>
            </g>
            <g id="그룹_2968" data-name="그룹 2968" transform="translate(43.71 93.57)">
                <path id="선_431" data-name="선 431" class="cls-12" d="m0 0 3.981 2.327"/>
            </g>
            <g id="그룹_2969" data-name="그룹 2969" transform="translate(42.583 92.443)">
                <path id="패스_7296" data-name="패스 7296" class="cls-5" d="M487.994-394.478a1.181 1.181 0 0 1-.2-.091l-3.98-2.328a1.128 1.128 0 0 1-.4-1.542 1.127 1.127 0 0 1 1.542-.4l3.982 2.328a1.126 1.126 0 0 1 .4 1.54 1.127 1.127 0 0 1-1.344.5" transform="translate(-483.258 398.997)"/>
            </g>
            <g id="그룹_2970" data-name="그룹 2970" transform="translate(40.891 98.392)">
                <path id="선_432" data-name="선 432" class="cls-12" d="m0 0 3.981 2.327"/>
            </g>
            <g id="그룹_2971" data-name="그룹 2971" transform="translate(39.764 97.265)">
                <path id="패스_7297" data-name="패스 7297" class="cls-5" d="M486.01-391.085a1.074 1.074 0 0 1-.2-.091l-3.982-2.328a1.127 1.127 0 0 1-.4-1.542 1.128 1.128 0 0 1 1.54-.4l3.982 2.328a1.129 1.129 0 0 1 .4 1.542 1.125 1.125 0 0 1-1.344.495" transform="translate(-481.274 395.603)"/>
            </g>
            <g id="그룹_2972" data-name="그룹 2972" transform="translate(54.708 79.63)">
                <path id="패스_7298" data-name="패스 7298" class="cls-2" d="M520.474-407.264c.83 2.575 4.482 8.982.634 17.5-4.438 9.826-24.294 20.463-27.947 9.93-3.061-8.822 6.2-8.775 6.2-8.775s-4.01.281-4.11-2.525c-.115-3.207 2.329-3.236 4.1-3.578 2.532-.49 8.5-1.03 8.96-5.124" transform="translate(-491.474 408.329)"/>
                <path id="패스_7299" data-name="패스 7299" class="cls-3" d="M500.062-374.1c-.172 0-.341 0-.509-.01a7.273 7.273 0 0 1-7.082-5.063c-1.026-2.959-.891-5.377.4-7.185a6.488 6.488 0 0 1 2.66-2.1 3.265 3.265 0 0 1-1.029-2.325c-.135-3.8 2.71-4.279 4.408-4.564l.556-.1c.276-.054.594-.108.941-.168 2.559-.438 6.845-1.168 7.163-4.03a1.058 1.058 0 0 1 1.175-.939 1.065 1.065 0 0 1 .939 1.175c-.495 4.453-5.975 5.39-8.92 5.892-.33.057-.632.108-.9.159-.2.038-.4.073-.607.107-1.825.307-2.7.536-2.633 2.39a1.144 1.144 0 0 0 .372.861 3.967 3.967 0 0 0 2.363.645c.178-.01.287-.011.317-.009a1.066 1.066 0 0 1 1.059 1.029 1.065 1.065 0 0 1-.991 1.1c-.047 0-.161.01-.324.011-.834.047-3.565.337-4.829 2.112-.864 1.214-.9 2.977-.118 5.242a5.22 5.22 0 0 0 5.168 3.634c6.868.286 17.726-6.838 20.805-13.653 3.136-6.945.978-12.45-.182-15.407-.2-.514-.377-.959-.495-1.329a1.064 1.064 0 0 1 .686-1.34 1.063 1.063 0 0 1 1.339.688c.108.334.267.738.451 1.205 1.275 3.248 3.646 9.3.141 17.058-3.344 7.427-14.651 14.914-22.324 14.914z" transform="translate(-491.79 408.013)"/>
            </g>
            <g id="그룹_2973" data-name="그룹 2973" transform="translate(26.555 76.179)">
                <path id="패스_7300" data-name="패스 7300" class="cls-2" d="M484.854-402.484c.116 4.117 6.024 5.146 8.508 5.843 1.737.486 4.169.715 3.793 3.9-.33 2.788-4.3 2.177-4.3 2.177s4.4 2.339.28 8.145c-4.8 6.764-18.384.04-20.206-10.588-1.184-6.9 3.21-13.473 6.76-16.69" transform="translate(-471.663 410.758)"/>
                <path id="패스_7301" data-name="패스 7301" class="cls-3" d="M487.839-378.315a11.6 11.6 0 0 1-2.558-.3c-5.4-1.231-11.823-6.517-13.088-13.892-1.231-7.172 3.052-13.994 7.094-17.659a1.062 1.062 0 0 1 1.5.074 1.063 1.063 0 0 1-.072 1.5c-2.933 2.659-7.585 8.962-6.426 15.724a15.859 15.859 0 0 0 11.462 12.175c1.735.394 4.925.657 6.828-2.025 1.276-1.8 1.776-3.359 1.486-4.641a3.147 3.147 0 0 0-1.408-1.954 1.07 1.07 0 0 1-.493-1.278 1.062 1.062 0 0 1 1.164-.709 4.225 4.225 0 0 0 2.643-.422 1.141 1.141 0 0 0 .442-.827c.217-1.843-.635-2.143-2.428-2.6-.2-.051-.4-.1-.6-.156-.26-.072-.558-.149-.882-.233-2.892-.743-8.275-2.127-8.4-6.6a1.064 1.064 0 0 1 1.033-1.094 1.052 1.052 0 0 1 1.094 1.033c.082 2.876 4.29 3.959 6.805 4.6.341.088.654.169.926.246l.544.142c1.67.423 4.465 1.131 4.019 4.911a3.261 3.261 0 0 1-1.269 2.274 4.35 4.35 0 0 1-1.688.746 5.112 5.112 0 0 1 .561 1.4c.452 1.908-.159 4.06-1.816 6.395a7.643 7.643 0 0 1-6.473 3.17z" transform="translate(-471.979 410.442)"/>
            </g>
        </g>
        <g id="타원_1274" data-name="타원 1274" transform="translate(772 769)" style="stroke:#c3db72;stroke-width:12px;fill:none">
            <circle cx="111.5" cy="111.5" r="111.5" style="stroke:none"/>
            <circle class="cls-1" cx="111.5" cy="111.5" r="105.5"/>
        </g>
        <g id="그룹_4406" data-name="그룹 4406" transform="translate(9.574)">
            <g id="그룹_3590" data-name="그룹 3590" transform="translate(1256.309 423.301)">
                <g id="그룹_2595" data-name="그룹 2595" transform="translate(-341.734 372.049)">
                    <path id="패스_6380" data-name="패스 6380" class="cls-15" d="m-324.807 382.744-.55-.549-4.406-4.406-.549-.55-1.353-1.353a5.1 5.1 0 0 0-7.205 0l-12.534 12.534a1.491 1.491 0 0 0 0 2.107 6.3 6.3 0 0 0 8.9 0l.5-.5.505.505a6.3 6.3 0 0 0 8.9 0l.5-.5.5.5a6.3 6.3 0 0 0 8.9 0l2.828-2.827z" transform="translate(351.841 -374.394)"/>
                    <path id="선_424" data-name="선 424" class="cls-16" transform="translate(10.618 9.767)" d="M0 5.088 5.088 0"/>
                    <path id="선_425" data-name="선 425" class="cls-16" transform="translate(20.65 13.255)" d="M0 1.48 1.48 0"/>
                </g>
                <g id="그룹_2596" data-name="그룹 2596" transform="translate(-278.873 372.476)">
                    <path id="패스_6381" data-name="패스 6381" class="cls-15" d="m-289.5 382.744.549-.549 4.406-4.406.55-.55 1.353-1.353a5.094 5.094 0 0 1 7.2 0l12.542 12.534a1.489 1.489 0 0 1 0 2.107 6.3 6.3 0 0 1-8.9 0l-.5-.5-.5.505a6.3 6.3 0 0 1-8.9 0l-.5-.5-.5.5a6.3 6.3 0 0 1-8.9 0l-2.827-2.827z" transform="translate(294.455 -374.394)"/>
                    <path id="선_426" data-name="선 426" class="cls-16" transform="translate(16.284 9.767)" d="M5.088 5.088 0 0"/>
                    <path id="선_427" data-name="선 427" class="cls-16" transform="translate(9.86 13.255)" d="M1.48 1.48 0 0"/>
                </g>
                <path id="패스_6382" data-name="패스 6382" d="M-328.358 371.79v17.125a44.392 44.392 0 0 0 22.2 38.445l2.236 1.291a6.239 6.239 0 0 0 6.24 0l2.236-1.291a44.391 44.391 0 0 0 22.2-38.445V371.79a3.6 3.6 0 0 0-2.27-3.342l-21.851-8.672a9.307 9.307 0 0 0-6.862 0l-21.851 8.672a3.6 3.6 0 0 0-2.278 3.342z" transform="translate(6.693 -.422)" style="fill:#c3db72"/>
                <g id="그룹_2597" data-name="그룹 2597" transform="translate(-318.655 365.967)">
                    <path id="패스_6383" data-name="패스 6383" d="M-302.9 421.707a39.13 39.13 0 0 1-19.511-33.794v-14.694l20.231-8.029 20.231 8.029v14.694a39.133 39.133 0 0 1-19.511 33.794l-.72.415z" transform="translate(326.523 -365.19)" style="stroke:#9bb541;stroke-width:2.167px;stroke-linecap:round;stroke-linejoin:round;fill:none"/>
                    <path id="패스_6384" data-name="패스 6384" class="cls-19" d="M-325.844 374.813V372.6a3.545 3.545 0 0 1 2.237-3.3l3.02-1.2" transform="translate(325.845 -364.615)"/>
                    <path id="선_428" data-name="선 428" class="cls-19" transform="translate(0 14.356)" d="M0 .764V0"/>
                </g>
            </g>
            <text id="LV.3" transform="translate(945 819)" style="fill:#6c8b00;font-size:20px;font-family:BMJUA,BM JUA_TTF;letter-spacing:-.06em"><tspan x="0" y="0">LV.3</tspan></text>
        </g>
    </g>
</svg>
