<svg xmlns="http://www.w3.org/2000/svg" width="247" height="223">
    <defs>
        <clipPath id="clip-path">
            <path id="패스_7812" data-name="패스 7812" d="M663.929-429.107s-.7 7.292 6.1 7.2 6.862-7.442 6.862-7.442a18.763 18.763 0 0 1-12.958.24" transform="translate(-663.908 429.347)" style="fill:none"/>
        </clipPath>
        <style>
            .cls-4,.cls-7{fill:none}.cls-17{fill:#fff}.cls-3{fill:#8bb3ff}.cls-4,.cls-7{stroke:#5d85d0;stroke-width:1.534px;stroke-linecap:round;stroke-linejoin:round}.cls-7{stroke:#e6fff3;stroke-width:1.942px}.cls-10{fill:#8cc7ea}.cls-11{fill:#36607b}.cls-12{fill:#ffbfc5}.cls-13{fill:#efbe31}.cls-15{fill:#335d76}.cls-19{fill:#e1913f}.cls-20{fill:#f2c931}.cls-24{fill:#f7f8f8}.cls-26{fill:#df862c}
        </style>
    </defs>
    <g id="그룹_4419" data-name="그룹 4419" transform="translate(-1170 -769)">
        <g id="패스_7843" data-name="패스 7843" style="fill:#fff">
            <path d="M111.5 217C53.327 217 6 169.673 6 111.5S53.327 6 111.5 6 217 53.327 217 111.5 169.673 217 111.5 217z" style="stroke:none" transform="translate(1170 769)"/>
            <path d="M111.5 12C56.635 12 12 56.635 12 111.5S56.635 211 111.5 211s99.5-44.635 99.5-99.5S166.365 12 111.5 12m0-12C173.08 0 223 49.92 223 111.5S173.08 223 111.5 223 0 173.08 0 111.5 49.92 0 111.5 0z" style="fill:#a9e584;stroke:none" transform="translate(1170 769)"/>
        </g>
        <g id="그룹_4407" data-name="그룹 4407" transform="translate(5)">
            <g id="그룹_3604" data-name="그룹 3604" transform="translate(1658.883 423.301)">
                <g id="그룹_2595" data-name="그룹 2595" transform="translate(-341.734 372.049)">
                    <path id="패스_6380" data-name="패스 6380" class="cls-3" d="m-324.807 382.744-.55-.549-4.406-4.406-.549-.55-1.353-1.353a5.1 5.1 0 0 0-7.205 0l-12.534 12.534a1.491 1.491 0 0 0 0 2.107 6.3 6.3 0 0 0 8.9 0l.5-.5.505.505a6.3 6.3 0 0 0 8.9 0l.5-.5.5.5a6.3 6.3 0 0 0 8.9 0l2.828-2.827z" transform="translate(351.841 -374.394)"/>
                    <path id="선_424" data-name="선 424" class="cls-4" transform="translate(10.618 9.767)" d="M0 5.088 5.088 0"/>
                    <path id="선_425" data-name="선 425" class="cls-4" transform="translate(20.65 13.255)" d="M0 1.48 1.48 0"/>
                </g>
                <g id="그룹_2596" data-name="그룹 2596" transform="translate(-278.873 372.476)">
                    <path id="패스_6381" data-name="패스 6381" class="cls-3" d="m-289.5 382.744.549-.549 4.406-4.406.55-.55 1.353-1.353a5.094 5.094 0 0 1 7.2 0l12.542 12.534a1.489 1.489 0 0 1 0 2.107 6.3 6.3 0 0 1-8.9 0l-.5-.5-.5.505a6.3 6.3 0 0 1-8.9 0l-.5-.5-.5.5a6.3 6.3 0 0 1-8.9 0l-2.827-2.827z" transform="translate(294.455 -374.394)"/>
                    <path id="선_426" data-name="선 426" class="cls-4" transform="translate(16.284 9.767)" d="M5.088 5.088 0 0"/>
                    <path id="선_427" data-name="선 427" class="cls-4" transform="translate(9.86 13.255)" d="M1.48 1.48 0 0"/>
                </g>
                <path id="패스_6382" data-name="패스 6382" d="M-328.358 371.79v17.125a44.392 44.392 0 0 0 22.2 38.445l2.236 1.291a6.239 6.239 0 0 0 6.24 0l2.236-1.291a44.391 44.391 0 0 0 22.2-38.445V371.79a3.6 3.6 0 0 0-2.27-3.342l-21.851-8.672a9.307 9.307 0 0 0-6.862 0l-21.851 8.672a3.6 3.6 0 0 0-2.278 3.342z" transform="translate(6.693 -.422)" style="fill:#a9e584"/>
                <g id="그룹_2597" data-name="그룹 2597" transform="translate(-318.655 365.967)">
                    <path id="패스_6383" data-name="패스 6383" d="M-302.9 421.707a39.13 39.13 0 0 1-19.511-33.794v-14.694l20.231-8.029 20.231 8.029v14.694a39.133 39.133 0 0 1-19.511 33.794l-.72.415z" transform="translate(326.523 -365.19)" style="stroke:#77c646;stroke-width:2.167px;stroke-linecap:round;stroke-linejoin:round;fill:none"/>
                    <path id="패스_6384" data-name="패스 6384" class="cls-7" d="M-325.844 374.813V372.6a3.545 3.545 0 0 1 2.237-3.3l3.02-1.2" transform="translate(325.845 -364.615)"/>
                    <path id="선_428" data-name="선 428" class="cls-7" transform="translate(0 14.356)" d="M0 .764V0"/>
                </g>
            </g>
            <text id="LV.4" transform="translate(1347.574 819)" style="fill:#4b8e20;font-size:20px;font-family:BMJUA,BM JUA_TTF;letter-spacing:-.06em"><tspan x="0" y="0">LV.4</tspan></text>
        </g>
        <g id="그룹_3603" data-name="그룹 3603" transform="translate(1229.223 805.674)">
            <g id="그룹_3512" data-name="그룹 3512" transform="translate(3.504 34.371)">
                <path id="패스_7750" data-name="패스 7750" d="M636.068-453.928s5.723 8.092 37.331 13.612 51.515 2.705 55.074 1.592c0 0-10.219-9.486-29.085-15.418s-50.042-6.411-63.32.214" transform="translate(-636.068 458.744)" style="fill:#dc772b"/>
            </g>
            <g id="그룹_3513" data-name="그룹 3513" transform="translate(68.904 45.497)">
                <path id="패스_7751" data-name="패스 7751" class="cls-10" d="M713.186-445.275a40.829 40.829 0 0 0-8.885-4.232c-1.011.315-2.02.625-3.032.942-4.818 1.511-9.656 2.92-14.557 4l.071 22.12c4.633 13.13 19.5 12.025 24.471 1.5a21.781 21.781 0 0 0 .022-19.168 17 17 0 0 0 1.91-5.171" transform="translate(-685.732 450.488)"/>
                <path id="패스_7752" data-name="패스 7752" class="cls-11" d="M699.265-411.6c-.231 0-.463-.005-.695-.018-5.651-.29-10.317-4.125-12.481-10.259a.965.965 0 0 1-.056-.322l-.07-22.121a.978.978 0 0 1 .768-.961c5.341-1.181 10.541-2.749 14.476-3.982l3.033-.944a.978.978 0 0 1 .609.009 41.391 41.391 0 0 1 9.1 4.335.984.984 0 0 1 .43 1.032 18.9 18.9 0 0 1-1.752 4.989 22.8 22.8 0 0 1-.253 19.564 14.67 14.67 0 0 1-13.109 8.678zM688-422.38c1.939 5.345 5.822 8.549 10.676 8.8a12.681 12.681 0 0 0 11.929-7.541 21.008 21.008 0 0 0 .056-18.262.986.986 0 0 1 .013-.995 15.27 15.27 0 0 0 1.637-4.2 39.724 39.724 0 0 0-7.791-3.66l-2.721.847c-3.783 1.186-8.728 2.678-13.866 3.851z" transform="translate(-685.964 450.256)"/>
            </g>
            <g id="그룹_3514" data-name="그룹 3514" transform="translate(73.961 46.478)">
                <path id="패스_7753" data-name="패스 7753" class="cls-12" d="M707.664-447.769a44.3 44.3 0 0 0-4.332-1.738l-3.028.942c-3.353 1.051-6.715 2.053-10.1 2.929l-.381 17.252c2.75 9.192 12.323 8.673 15.7 1.456a16.2 16.2 0 0 0 .347-13.3 16.27 16.27 0 0 0 1.791-7.538" transform="translate(-689.822 449.507)"/>
            </g>
            <g id="그룹_3515" data-name="그룹 3515" transform="translate(34.416 78.237)">
                <path id="패스_7754" data-name="패스 7754" class="cls-13" d="m699.768-372.488-30.678-.5a8.861 8.861 0 0 1-8.689-8.976l.55-33.878a8.859 8.859 0 0 1 8.975-8.689l30.676.5a8.859 8.859 0 0 1 8.689 8.975l-.549 33.878a8.858 8.858 0 0 1-8.975 8.689" transform="translate(-659.42 425.51)"/>
                <path id="패스_7755" data-name="패스 7755" d="M700.146-371.273h-.161l-30.678-.5a9.744 9.744 0 0 1-6.885-2.994 9.746 9.746 0 0 1-2.768-6.978l.549-33.88a9.829 9.829 0 0 1 9.972-9.652l30.676.5a9.825 9.825 0 0 1 9.655 9.971l-.551 33.88a9.825 9.825 0 0 1-9.809 9.653zm-.13-1.963a7.906 7.906 0 0 0 7.977-7.723l.55-33.878a7.86 7.86 0 0 0-7.724-7.977l-30.676-.5a7.907 7.907 0 0 0-7.977 7.723l-.55 33.878a7.8 7.8 0 0 0 2.218 5.581 7.791 7.791 0 0 0 5.507 2.4z" transform="translate(-659.652 425.278)" style="fill:#355e78"/>
            </g>
            <g id="그룹_3516" data-name="그룹 3516" transform="translate(74.491 124.312)">
                <path id="패스_7756" data-name="패스 7756" class="cls-10" d="M690.722-387.308a9.867 9.867 0 0 0 9.6 3.493s3.54 5.063 8.313 3.193 5.648-5.323 5.648-5.323c-9.812-7.063-13.7 1.41-13.7 1.41a10.792 10.792 0 0 1-8.167-4.885z" transform="translate(-690.073 390.344)"/>
                <path id="패스_7757" data-name="패스 7757" class="cls-11" d="M706.678-379.477c-3.277 0-5.706-2.682-6.411-3.555a10.5 10.5 0 0 1-9.8-3.753l-.237-.317 2.428-3.024.37.68a10.331 10.331 0 0 0 7.427 4.57 8.27 8.27 0 0 1 4.906-3.933c2.759-.73 5.915.169 9.385 2.666l.283.2-.085.34c-.039.151-1 3.73-5.959 5.674a6.27 6.27 0 0 1-2.307.452zm-5.686-4.291c.566.748 3.625 4.45 7.614 2.886 3.654-1.433 4.885-3.783 5.226-4.645-3.079-2.139-5.837-2.91-8.2-2.29a7.429 7.429 0 0 0-4.424 3.716l-.157.34zm-9.454-3.325a9.235 9.235 0 0 0 8.1 3.121 11.408 11.408 0 0 1-7.111-4.353z" transform="translate(-690.227 390.125)"/>
            </g>
            <g id="그룹_3517" data-name="그룹 3517" transform="translate(73.3 123.405)">
                <path id="패스_7758" data-name="패스 7758" class="cls-15" d="M692.854-388.986a10.788 10.788 0 0 0 8.166 4.884s1.973-4.3 6.651-4.219c1.891.03 4.227.777 7.053 2.811 0 0-.875 3.451-5.648 5.322a5.793 5.793 0 0 1-2.224.414c-3.607-.058-6.088-3.607-6.088-3.607a9.788 9.788 0 0 1-2.19.216 10.067 10.067 0 0 1-7.415-3.709l1.7-2.112m.031-1.831a1.844 1.844 0 0 0-1.467.679l-1.695 2.112a1.84 1.84 0 0 0-.043 2.249 11.922 11.922 0 0 0 8.862 4.453 11.67 11.67 0 0 0 1.475-.073 9.858 9.858 0 0 0 6.805 3.464 7.666 7.666 0 0 0 2.924-.54c5.589-2.191 6.715-6.406 6.761-6.585A1.839 1.839 0 0 0 715.8-387a14.571 14.571 0 0 0-8.1-3.159 9.019 9.019 0 0 0-7.6 4.034 8.715 8.715 0 0 1-5.63-3.742 1.857 1.857 0 0 0-1.458-.941 1.03 1.03 0 0 0-.126-.007" transform="translate(-689.318 390.817)"/>
            </g>
            <g id="그룹_3518" data-name="그룹 3518" transform="translate(84.843 125.797)">
                <path id="패스_7759" data-name="패스 7759" d="M698.125-383.812s3.341 4.969 8.113 3.1 5.762-5.365 5.762-5.365c-9.812-7.065-13.417.933-13.417.933z" transform="translate(-698.125 388.992)" style="fill:#9ee630"/>
            </g>
            <g id="그룹_3519" data-name="그룹 3519" transform="translate(83.004 123.957)">
                <path id="패스_7760" data-name="패스 7760" class="cls-15" d="M705.207-388.554c1.9.031 4.282.794 7.225 2.914 0 0-.984 3.492-5.757 5.364a5.862 5.862 0 0 1-2.243.419c-3.544-.056-5.871-3.517-5.871-3.517l.455-1.333a6.9 6.9 0 0 1 6.191-3.847m.03-1.84a8.72 8.72 0 0 0-7.9 4.931 2.313 2.313 0 0 0-.066.163l-.453 1.333a1.844 1.844 0 0 0 .215 1.62c.118.174 2.915 4.259 7.367 4.331a7.689 7.689 0 0 0 2.945-.547c5.559-2.18 6.805-6.4 6.855-6.577a1.84 1.84 0 0 0-.695-1.994c-2.948-2.122-5.73-3.219-8.271-3.26" transform="translate(-696.721 390.396)"/>
            </g>
            <g id="그룹_3520" data-name="그룹 3520" transform="translate(83.196 129.093)">
                <path id="패스_7761" data-name="패스 7761" class="cls-15" d="M700.778-383.465c-1.657-.026-3.079-.3-3.647-.878a.919.919 0 0 1 .014-1.3.92.92 0 0 1 1.282 0c.752.5 6.138.562 8.37-.708a.918.918 0 0 1 1.253.345.918.918 0 0 1-.343 1.254 15.979 15.979 0 0 1-6.93 1.292" transform="translate(-696.868 386.477)"/>
            </g>
            <g id="그룹_3521" data-name="그룹 3521" transform="translate(21.868 87.295)">
                <path id="패스_7762" data-name="패스 7762" class="cls-10" d="M654.709-416.772c-1.886 8.271-7.663 37.1.016 55.658a3.876 3.876 0 0 0 1.868 2.005c1.937.946 6.032 2.057 13.193.225a3.979 3.979 0 0 0 2.937-3.293l.328-2.268c.321-2.227 2.442-4.9 4.657-4.513.031.007.063.01.1.017a3.993 3.993 0 0 1 3.211 3.028l1.268 6.707a3.955 3.955 0 0 0 2.523 2.848 26.1 26.1 0 0 0 7.879 1.125c5.135.118 8.314-1.033 10.01-1.949a3.756 3.756 0 0 0 1.946-2.569c3.009-15.958-.881-35.327-4.927-57.867" transform="translate(-649.84 418.6)"/>
                <path id="패스_7763" data-name="패스 7763" class="cls-11" d="M693.641-354.009q-.364 0-.741-.008a27.5 27.5 0 0 1-8.182-1.181 4.907 4.907 0 0 1-3.154-3.551l-1.277-6.748a2.993 2.993 0 0 0-2.413-2.243 2.192 2.192 0 0 0-1.669.444 5.212 5.212 0 0 0-1.946 3.224l-.328 2.268a4.942 4.942 0 0 1-3.666 4.1c-7.2 1.839-11.512.855-13.865-.295a4.855 4.855 0 0 1-2.346-2.513c-7.5-18.126-2.543-45.376-.064-56.251a.976.976 0 0 1 1.174-.738.982.982 0 0 1 .739 1.174c-1.9 8.343-7.522 36.965-.035 55.065a2.889 2.889 0 0 0 1.393 1.5c1.683.823 5.548 1.939 12.517.157a2.986 2.986 0 0 0 2.21-2.482l.328-2.268a7.219 7.219 0 0 1 2.738-4.534 3.993 3.993 0 0 1 3.062-.8 5 5 0 0 1 4.091 3.788l1.277 6.748a2.937 2.937 0 0 0 1.884 2.1 25.1 25.1 0 0 0 7.576 1.071c4.862.106 7.859-.936 9.522-1.831a2.8 2.8 0 0 0 1.448-1.889c2.787-14.786-.44-32.654-4.177-53.343l-.751-4.169a.981.981 0 0 1 .792-1.139.977.977 0 0 1 1.139.793l.752 4.167c3.771 20.88 7.028 38.913 4.173 54.055a4.709 4.709 0 0 1-2.446 3.253 20.37 20.37 0 0 1-9.755 2.076z" transform="translate(-650.079 418.367)"/>
            </g>
            <g id="그룹_3522" data-name="그룹 3522" transform="translate(28.002 141.911)">
                <path id="패스_7764" data-name="패스 7764" class="cls-17" d="M654.759-372.667s0-4.1 2.855-4.031 3.2 5.835 3.2 5.835a9.624 9.624 0 0 1-3.51-.6 7.288 7.288 0 0 1-2.545-1.2" transform="translate(-654.759 376.699)"/>
            </g>
            <g id="그룹_3523" data-name="그룹 3523" transform="translate(27.082 140.99)">
                <path id="패스_7765" data-name="패스 7765" class="cls-15" d="M660.7-369.719a11.484 11.484 0 0 1-3.48-.659 7.751 7.751 0 0 1-2.91-1.435.92.92 0 0 1-.256-.636 6.224 6.224 0 0 1 1.44-4.048 3.169 3.169 0 0 1 2.355-.9c3.6.083 4.058 6.024 4.1 6.7a.923.923 0 0 1-.848.973c-.02 0-.16.011-.4.007m-4.775-3.2a11.852 11.852 0 0 0 1.893.8 10.645 10.645 0 0 0 2.178.507c-.263-1.692-.952-3.922-2.188-3.951h-.009a1.332 1.332 0 0 0-1.012.378 3.957 3.957 0 0 0-.859 2.268" transform="translate(-654.057 377.401)"/>
            </g>
            <g id="그룹_3524" data-name="그룹 3524" transform="translate(21.935 88.069)">
                <path id="패스_7766" data-name="패스 7766" class="cls-17" d="M654.923-416.931s-7.07 23.518-4.037 44.141c0 0 30.638 4.211 56.1.48 0 0 .738-13.687-4.609-26.106l-2.448-19.361z" transform="translate(-650.13 417.776)"/>
            </g>
            <g id="그룹_3525" data-name="그룹 3525" transform="translate(20.962 87.089)">
                <path id="패스_7767" data-name="패스 7767" d="M683.426-369.564a269.861 269.861 0 0 1-32.443-2.02.983.983 0 0 1-.837-.83c-3.029-20.6 4-44.33 4.068-44.566a.98.98 0 0 1 .922-.7l45.005-.845a.965.965 0 0 1 .992.859l2.43 19.223c5.318 12.451 4.664 25.853 4.632 26.419a.983.983 0 0 1-.838.918 168.242 168.242 0 0 1-23.931 1.542zm-31.443-3.871c4.75.594 31.582 3.665 54.276.5.051-3.082-.092-14.5-4.553-24.863a1.012 1.012 0 0 1-.072-.265l-2.334-18.482-43.4.814c-1.1 3.953-6.348 24.254-3.917 42.296z" transform="translate(-649.388 418.524)" style="fill:#35607a"/>
            </g>
            <g id="그룹_3526" data-name="그룹 3526" transform="translate(36.283 141.991)">
                <path id="패스_7768" data-name="패스 7768" class="cls-17" d="M661.08-370.906a19.315 19.315 0 0 0 6.153-1s-.368-5.01-3.741-4.719c-2.607.227-2.412 5.719-2.412 5.719" transform="translate(-661.076 376.637)"/>
            </g>
            <g id="그룹_3527" data-name="그룹 3527" transform="translate(35.361 141.072)">
                <path id="패스_7769" data-name="패스 7769" class="cls-15" d="M661.356-369.767h-.089a.923.923 0 0 1-.887-.887c-.024-.651-.13-6.375 3.251-6.668a3.585 3.585 0 0 1 2.7.84c1.756 1.5 2.019 4.4 2.042 4.728a.921.921 0 0 1-.624.94 20.3 20.3 0 0 1-6.388 1.049m2.665-5.73a1.977 1.977 0 0 0-.231.008c-1.068.092-1.477 2.282-1.561 3.861a19.306 19.306 0 0 0 4.2-.705 5.076 5.076 0 0 0-1.3-2.751 1.7 1.7 0 0 0-1.11-.413" transform="translate(-660.373 377.339)"/>
            </g>
            <g id="그룹_3528" data-name="그룹 3528" transform="translate(56.309 144.223)">
                <path id="패스_7770" data-name="패스 7770" class="cls-17" d="M676.355-370.2s.329-4.8 3.185-4.73 3.22 6.074 3.22 6.074a19.266 19.266 0 0 1-3.9-.376 10.985 10.985 0 0 1-2.507-.967" transform="translate(-676.355 374.935)"/>
            </g>
            <g id="그룹_3529" data-name="그룹 3529" transform="translate(55.389 143.303)">
                <path id="패스_7771" data-name="패스 7771" class="cls-15" d="M682.545-367.722a20.966 20.966 0 0 1-3.644-.393 11.867 11.867 0 0 1-2.764-1.059.918.918 0 0 1-.481-.874c.144-2.1 1.17-5.635 4.1-5.588h.025c3.6.083 4.074 6.236 4.117 6.939a.922.922 0 0 1-.24.675.919.919 0 0 1-.651.3c-.021 0-.186.005-.461 0m-4.975-2.8a8.291 8.291 0 0 0 1.689.6 19.516 19.516 0 0 0 2.694.334c-.262-1.781-.961-4.183-2.215-4.21h-.009c-1.44-.024-1.979 2.182-2.159 3.275" transform="translate(-675.653 375.636)"/>
            </g>
            <g id="그룹_3530" data-name="그룹 3530" transform="translate(65.516 144.631)">
                <path id="패스_7772" data-name="패스 7772" class="cls-17" d="M683.381-368.744a25.552 25.552 0 0 0 6.243-.881s-.427-5.278-3.8-4.986c-2.607.226-2.445 5.867-2.445 5.867" transform="translate(-683.379 374.623)"/>
            </g>
            <g id="그룹_3531" data-name="그룹 3531" transform="translate(64.594 143.712)">
                <path id="패스_7773" data-name="패스 7773" class="cls-15" d="M683.586-367.606a.923.923 0 0 1-.906-.893c-.02-.667-.091-6.518 3.285-6.811a3.537 3.537 0 0 1 2.641.827c1.826 1.544 2.127 4.652 2.155 5a.92.92 0 0 1-.68.963 26.409 26.409 0 0 1-6.492.911zm2.759-5.879c-.072 0-.145 0-.221.009-1.071.092-1.494 2.365-1.586 4a26.262 26.262 0 0 0 4.277-.62 5.526 5.526 0 0 0-1.4-2.981 1.637 1.637 0 0 0-1.071-.406" transform="translate(-682.676 375.324)"/>
            </g>
            <g id="그룹_3532" data-name="그룹 3532" transform="translate(23.995 87.073)">
                <path id="패스_7774" data-name="패스 7774" class="cls-13" d="m654.149-417.645 11.365-.142s-3.872 5.145-3.944 18.227l-8.3-.19s-2.324-6.417.88-17.9" transform="translate(-651.468 418.769)"/>
                <path id="패스_7775" data-name="패스 7775" class="cls-11" d="M661.8-398.347h-.022l-8.3-.189a.981.981 0 0 1-.9-.648c-.1-.274-2.393-6.847.857-18.493a.98.98 0 0 1 .933-.718l11.364-.142a1.071 1.071 0 0 1 .889.539.979.979 0 0 1-.092 1.033c-.034.046-3.678 5.128-3.746 17.642a.982.982 0 0 1-.3.7.98.98 0 0 1-.683.276zm-7.554-2.135 6.586.151c.178-8.745 2.041-13.858 3.2-16.22l-8.9.111c-2.262 8.59-1.32 14.16-.882 15.958z" transform="translate(-651.702 418.536)"/>
            </g>
            <g id="그룹_3533" data-name="그룹 3533" transform="translate(56.988 87.093)">
                <path id="패스_7776" data-name="패스 7776" class="cls-13" d="m679.321-417.632 11.364-.142s-3.872 5.145-3.944 18.227l-8.3-.19s-2.324-6.419.881-17.9" transform="translate(-676.639 418.753)"/>
                <path id="패스_7777" data-name="패스 7777" class="cls-11" d="M686.975-398.333h-.022l-8.3-.19a.981.981 0 0 1-.9-.646c-.1-.274-2.393-6.847.859-18.493a.98.98 0 0 1 .933-.718l11.363-.14a.994.994 0 0 1 .889.537.982.982 0 0 1-.092 1.033c-.034.046-3.677 5.128-3.746 17.642a.981.981 0 0 1-.3.7.98.98 0 0 1-.684.275zm-7.554-2.135 6.586.151c.178-8.745 2.041-13.858 3.2-16.22l-8.9.111c-2.266 8.59-1.324 14.159-.886 15.958z" transform="translate(-676.873 418.521)"/>
            </g>
            <g id="그룹_3534" data-name="그룹 3534" transform="translate(57.503 86.757)">
                <path id="패스_7778" data-name="패스 7778" class="cls-10" d="M693.952-405.816s-3.834-5.1-6.429-2.506 3.635 5.973 3.635 5.973-7.448-8.1-12.456 1.218c-4.767 8.871 16.987 25.979 24.7 13.257s-12.739-30.152-12.739-30.152A16.042 16.042 0 0 0 687.43-409" transform="translate(-677.03 419.01)"/>
                <path id="패스_7779" data-name="패스 7779" class="cls-11" d="M695.739-382.109a17.554 17.554 0 0 1-8.457-2.5c-6.7-3.827-12.127-11.321-9.208-16.752 1.6-2.983 3.639-4.649 6.053-4.953a6.675 6.675 0 0 1 2.055.071l-.006-.039a2.777 2.777 0 0 1 .57-2.134.965.965 0 0 1-.062-.38 16.95 16.95 0 0 1 3.463-9.629.979.979 0 0 1 .67-.345.951.951 0 0 1 .718.231c.86.734 20.993 18.125 12.941 31.409a9.764 9.764 0 0 1-8.737 5.021zM684.921-404.4a4.426 4.426 0 0 0-.556.035c-1.745.223-3.279 1.545-4.561 3.933-2.251 4.189 2.648 10.8 8.453 14.119 2.34 1.336 10.3 5.154 14.541-1.836 6.349-10.473-8.108-24.828-11.738-28.179a15.576 15.576 0 0 0-2.341 6.606 3.323 3.323 0 0 1 .978-.073c2.619.185 5.012 3.272 5.277 3.623a.982.982 0 0 1-.2 1.374.981.981 0 0 1-1.374-.193c-.534-.705-2.385-2.743-3.848-2.847a1.363 1.363 0 0 0-1.1.446.907.907 0 0 0-.334.827 2.767 2.767 0 0 0 .753 1.307 13.569 13.569 0 0 1 3.244 2.481.982.982 0 0 1 .051 1.267.981.981 0 0 1-1.241.26 14.9 14.9 0 0 1-3.254-2.421 6.205 6.205 0 0 0-2.75-.729z" transform="translate(-677.266 418.777)"/>
            </g>
            <g id="그룹_3535" data-name="그룹 3535" transform="translate(10.114 87.214)">
                <path id="패스_7780" data-name="패스 7780" class="cls-10" d="M648.407-404.278s4.063-4.919 6.537-2.21-3.9 5.8-3.9 5.8 11.886-9.8 15.38-.357-15.966 25.963-23.089 12.9 14.1-29.539 14.1-29.539-2.557 8.171-1.261 13.438" transform="translate(-640.875 418.661)"/>
                <path id="패스_7781" data-name="패스 7781" class="cls-11" d="M651.167-382.094a9.39 9.39 0 0 1-8.459-5.344c-7.436-13.637 13.47-30.09 14.364-30.784a.982.982 0 0 1 1.161-.031.983.983 0 0 1 .377 1.1c-.024.075-2.21 7.164-1.408 12.109a9.8 9.8 0 0 1 5.9-.621 6.646 6.646 0 0 1 4.471 4.517c2.281 6.163-4 14.605-10.932 17.756a13.3 13.3 0 0 1-5.474 1.298zm4.778-32.586c-5.175 4.674-16.766 16.67-11.513 26.3 3.188 5.843 8.513 4.51 11.4 3.2 6.032-2.743 11.8-10.175 9.9-15.288a4.744 4.744 0 0 0-3.141-3.3c-2.336-.632-5.3.632-7.513 1.915a14.872 14.872 0 0 1-3.378 2.286.979.979 0 0 1-1.254-.353.981.981 0 0 1 .2-1.287 27.2 27.2 0 0 1 3.243-2.226 2.832 2.832 0 0 0 .856-1.315.906.906 0 0 0-.3-.843 1.3 1.3 0 0 0-1.081-.494c-1.467.035-3.409 1.987-3.974 2.669a.984.984 0 0 1-1.382.13.981.981 0 0 1-.131-1.38c.279-.339 2.812-3.315 5.437-3.38a3.158 3.158 0 0 1 1.741.444 35.109 35.109 0 0 1 .89-7.079z" transform="translate(-641.111 418.428)"/>
            </g>
            <g id="그룹_3536" data-name="그룹 3536" transform="translate(11.106 86.664)">
                <path id="패스_7782" data-name="패스 7782" class="cls-17" d="M653.479-395.924c-2.923-1.439-6.257-5.938-9.729-6.807a1.48 1.48 0 0 1-.865-2.287c1.788-2.556 2.088-3.954 5.362-7.6a27.733 27.733 0 0 1 6.678-5.225 1.479 1.479 0 0 1 1.233-.2l1.294.37a1.481 1.481 0 0 1 1.058 1.649l-2.916 19a1.478 1.478 0 0 1-2.114 1.1" transform="translate(-641.636 419.081)"/>
                <path id="패스_7783" data-name="패스 7783" class="cls-11" d="M654.364-394.554a2.462 2.462 0 0 1-1.087-.257 20.662 20.662 0 0 1-4.079-3.066c-1.8-1.583-3.666-3.222-5.455-3.669a2.474 2.474 0 0 1-1.72-1.532 2.457 2.457 0 0 1 .288-2.269c.568-.811.971-1.489 1.4-2.206a30.448 30.448 0 0 1 4.037-5.492 25.638 25.638 0 0 1 6.142-4.935c.287-.174.531-.322.718-.448a2.451 2.451 0 0 1 2.051-.325l1.294.368a2.468 2.468 0 0 1 1.758 2.742l-2.915 19a2.446 2.446 0 0 1-1.3 1.811 2.453 2.453 0 0 1-1.132.278zm1.62-22.332a.51.51 0 0 0-.279.085c-.206.14-.474.3-.793.5a23.942 23.942 0 0 0-5.7 4.569 28.477 28.477 0 0 0-3.812 5.188 36.012 36.012 0 0 1-1.476 2.324.48.48 0 0 0-.06.456.508.508 0 0 0 .358.316c2.251.564 4.3 2.361 6.274 4.1a19.484 19.484 0 0 0 3.652 2.779.487.487 0 0 0 .447-.005.493.493 0 0 0 .263-.37l2.916-19a.5.5 0 0 0-.358-.556l-1.292-.368a.455.455 0 0 0-.14-.018z" transform="translate(-641.868 418.848)"/>
            </g>
            <g id="그룹_3537" data-name="그룹 3537" transform="translate(12.455 98.662)">
                <path id="패스_7784" data-name="패스 7784" class="cls-10" d="M643.646-398.32s1.177-5.177 3.6-7.957c1.216-1.4 3.458-4.042 5.644-1.8 2.238 2.3-2.4 4.678-2.4 4.678s10.025-8.218 14.287-2.3c5.436 7.552-2.965 14.484-5.932 16.446" transform="translate(-642.664 409.927)"/>
                <path id="패스_7785" data-name="패스 7785" class="cls-11" d="M659.078-388.034a.984.984 0 0 1-.819-.44.982.982 0 0 1 .278-1.361c1.042-.688 6.284-4.367 7.162-9.154a7.517 7.517 0 0 0-1.485-5.9 3.925 3.925 0 0 0-2.8-1.693c-2.7-.36-6.028 1.423-8.1 2.77a9.988 9.988 0 0 1-2.138 1.518.983.983 0 0 1-1.27-.335.979.979 0 0 1 .2-1.3c.088-.072.84-.684 1.994-1.442a2.143 2.143 0 0 0 .642-1.033.84.84 0 0 0-.323-.76 1.511 1.511 0 0 0-1.143-.571c-1.058.03-2.279 1.437-3.009 2.277-2.274 2.612-3.416 7.537-3.428 7.585a.982.982 0 0 1-1.174.739.981.981 0 0 1-.739-1.174c.05-.22 1.261-5.451 3.813-8.383.987-1.138 2.563-2.95 4.481-3.006a3.432 3.432 0 0 1 2.606 1.164 2.944 2.944 0 0 1 .863 1.655 12.656 12.656 0 0 1 6.978-1.654 5.875 5.875 0 0 1 4.144 2.494 9.4 9.4 0 0 1 1.821 7.4c-1.021 5.569-6.85 9.672-8.008 10.437a.98.98 0 0 1-.546.167z" transform="translate(-642.897 409.695)"/>
            </g>
            <g id="그룹_3538" data-name="그룹 3538" transform="translate(66.893 87.185)">
                <path id="패스_7786" data-name="패스 7786" class="cls-17" d="M692.886-404.276s3.646-4.242 7.5-1.7c0 0-4.476-8.537-12.114-11.728 0 0-3.436 1.486-3.069 8.6.003.004 2.967-.719 7.683 4.828z" transform="translate(-684.197 418.683)"/>
                <path id="패스_7787" data-name="패스 7787" class="cls-11" d="M693.119-403.063h-.005a.984.984 0 0 1-.743-.345c-4.146-4.877-6.7-4.5-6.729-4.5a1.014 1.014 0 0 1-.8-.2.989.989 0 0 1-.385-.713c-.4-7.711 3.493-9.484 3.658-9.557a.983.983 0 0 1 .768-.005c7.875 3.29 12.415 11.818 12.605 12.178a.981.981 0 0 1-.211 1.184.981.981 0 0 1-1.2.092c-3.078-2.028-6.094 1.374-6.221 1.52a.987.987 0 0 1-.737.346zm-6.727-6.777c1.34.174 3.712 1.029 6.771 4.363a7.627 7.627 0 0 1 5.2-2.043c-1.772-2.583-5.167-6.746-9.775-8.845-.679.526-2.214 2.193-2.196 6.525z" transform="translate(-684.43 418.451)"/>
            </g>
            <g id="그룹_3539" data-name="그룹 3539" transform="translate(43.174 106.294)">
                <path id="패스_7788" data-name="패스 7788" class="cls-19" d="M666.836-403.8a1.187 1.187 0 0 1-.038.384c-.026.146-.039.292-.065.436-.046.254-.459.145-.391-.113a3.306 3.306 0 0 1 .145-.414.926.926 0 0 1 .182-.34.1.1 0 0 1 .166.046" transform="translate(-666.334 403.872)"/>
            </g>
            <g id="그룹_3540" data-name="그룹 3540" transform="translate(43.215 107.029)">
                <path id="패스_7789" data-name="패스 7789" class="cls-19" d="M666.825-402.657a.783.783 0 0 1-.232-.145 1.187 1.187 0 0 1-.2-.254.172.172 0 0 1 .063-.232.173.173 0 0 1 .232.064.94.94 0 0 1 .186.535c0 .021-.024.042-.045.033" transform="translate(-666.366 403.311)"/>
            </g>
            <g id="그룹_3541" data-name="그룹 3541" transform="translate(42.849 106.977)">
                <path id="패스_7790" data-name="패스 7790" class="cls-19" d="M666.1-402.972a3.071 3.071 0 0 1 .36-.353c.152-.1.3.123.185.246a.72.72 0 0 1-.253.143.732.732 0 0 1-.262.039.045.045 0 0 1-.03-.076" transform="translate(-666.086 403.351)"/>
            </g>
            <g id="그룹_3542" data-name="그룹 3542" transform="translate(46.619 106.304)">
                <path id="패스_7791" data-name="패스 7791" class="cls-19" d="M669.009-403.858a.621.621 0 0 1 .379.11 4.39 4.39 0 0 1 .454.22.186.186 0 0 1-.191.318 4.071 4.071 0 0 1-.41-.292c-.1-.075-.241-.151-.275-.279a.064.064 0 0 1 .045-.077" transform="translate(-668.962 403.864)"/>
            </g>
            <g id="그룹_3543" data-name="그룹 3543" transform="translate(47.315 106.671)">
                <path id="패스_7792" data-name="패스 7792" class="cls-19" d="M670.092-403.446c-.029.059-.1.084-.152.117s-.089.084-.153.123a.2.2 0 0 1-.287-.121.2.2 0 0 1 .193-.245c.062-.007.111.013.178 0a.3.3 0 0 1 .193 0 .088.088 0 0 1 .029.119" transform="translate(-669.493 403.584)"/>
            </g>
            <g id="그룹_3544" data-name="그룹 3544" transform="translate(47.265 106.675)">
                <path id="패스_7793" data-name="패스 7793" class="cls-19" d="M669.642-402.892a1.417 1.417 0 0 1-.1-.228 1.006 1.006 0 0 1-.085-.269c-.021-.231.343-.263.4-.048a.742.742 0 0 1-.009.3.9.9 0 0 1-.063.249c-.026.059-.112.045-.142 0" transform="translate(-669.455 403.581)"/>
            </g>
            <g id="그룹_3545" data-name="그룹 3545" transform="translate(40.916 99.084)">
                <path id="패스_7794" data-name="패스 7794" class="cls-20" d="M666.224-401.965a3.073 3.073 0 0 1-1.214-4.255 5.453 5.453 0 0 1 .37-.638 5.587 5.587 0 0 1 2.851-2.2 6.326 6.326 0 0 1 .607-.187 3 3 0 0 1 1.72-.005 3.315 3.315 0 0 1 1.828 1.746c.664 1.423.813 3.762-.355 5.006a2.653 2.653 0 0 1-1.183.717 3.694 3.694 0 0 1-.468.109l-.641.029c-.215.009-.431.017-.645.022a9.172 9.172 0 0 1-2.333-.178 3.064 3.064 0 0 1-.536-.166" transform="translate(-664.612 409.372)"/>
            </g>
            <g id="그룹_3546" data-name="그룹 3546" transform="translate(44.869 99.976)">
                <path id="패스_7795" data-name="패스 7795" class="cls-17" d="M668.608-408.661a1.25 1.25 0 0 1 .665.03 1.817 1.817 0 0 1 1.177 1.354 1.179 1.179 0 0 1-.71 1.319c-.907.261-2.261-.659-2.1-1.679a1.254 1.254 0 0 1 .967-1.024" transform="translate(-667.627 408.692)"/>
            </g>
            <g id="그룹_3547" data-name="그룹 3547" transform="translate(46.138 100.403)">
                <path id="패스_7796" data-name="패스 7796" d="M669.717-408.159a.973.973 0 0 1 .363.685.577.577 0 0 1-.442.586.723.723 0 0 1-.474-.127 1.562 1.562 0 0 1-.434-.4c-.241-.329-.17-.911.315-.949a.949.949 0 0 1 .672.2" transform="translate(-668.595 408.366)"/>
            </g>
            <g id="그룹_3548" data-name="그룹 3548" transform="translate(48.082 100.553)">
                <path id="패스_7797" data-name="패스 7797" d="M670.9-407.81a.115.115 0 0 1-.029.064 1.018 1.018 0 0 1-.421.333c-.087.037-.207.054-.261-.025a.226.226 0 0 1-.027-.064c-.049-.164-.189-.7.06-.747.148-.03.687.294.678.439" transform="translate(-670.078 408.252)" style="fill:#d0372e"/>
            </g>
            <g id="그룹_3549" data-name="그룹 3549" transform="translate(41.775 102.967)">
                <path id="패스_7798" data-name="패스 7798" class="cls-19" d="M666.753-406.347a1.816 1.816 0 0 0-1.1.045.576.576 0 0 0-.384.486.512.512 0 0 0 .368.438 1.517 1.517 0 0 0 .606.034 1.513 1.513 0 0 0-.717.337c-.13.111-.248.284-.18.44a.416.416 0 0 0 .353.2 1.841 1.841 0 0 0 .713-.043c-.223.125-.476.3-.469.554a.463.463 0 0 0 .41.4 1.018 1.018 0 0 0 .6-.135 2.591 2.591 0 0 0 1.431-1.742c.059-.646-1.157-.912-1.627-1.012" transform="translate(-665.267 406.41)"/>
            </g>
            <g id="그룹_3550" data-name="그룹 3550" transform="translate(45.359 98.186)">
                <path id="패스_7799" data-name="패스 7799" class="cls-20" d="M669.515-409.677a.219.219 0 0 0 .048-.077c.025-.087-.069-.168-.16-.176a.378.378 0 0 0-.33.18.911.911 0 0 0-.121.371.79.79 0 0 0-.453-.628.477.477 0 0 0-.284-.043.269.269 0 0 0-.207.185.375.375 0 0 0 .02.2c.085.287.284.755.649.731s.634-.5.839-.739" transform="translate(-668.001 410.057)"/>
            </g>
            <g id="그룹_3551" data-name="그룹 3551" transform="translate(39.756 102.902)">
                <path id="패스_7800" data-name="패스 7800" class="cls-20" d="M665.232-405.59a1.922 1.922 0 0 1-1.227-.113l.388-.646a1.012 1.012 0 0 1 .1.135.384.384 0 0 1-.528.515.955.955 0 0 1-.131-.106.388.388 0 0 1-.025-.512.4.4 0 0 1 .5-.093 6.036 6.036 0 0 1 .971.446.208.208 0 0 1-.054.375" transform="translate(-663.726 406.46)"/>
            </g>
            <g id="그룹_3552" data-name="그룹 3552" transform="translate(39.846 103.624)">
                <path id="패스_7801" data-name="패스 7801" class="cls-20" d="M665.143-405.606a.878.878 0 0 1-.319.349 1.589 1.589 0 0 1-.21.122c-.062.03-.24.169-.12.012l.042-.29v.009a.379.379 0 0 1-.173.412h-.007a.382.382 0 0 1-.551-.233c-.069-.363.211-.49.5-.592a1.09 1.09 0 0 1 .739-.046.178.178 0 0 1 .1.256" transform="translate(-663.795 405.909)"/>
            </g>
            <g id="그룹_3553" data-name="그룹 3553" transform="translate(.527 29.9)">
                <path id="패스_7802" data-name="패스 7802" class="cls-10" d="M659.947-452.129s-2.463-10.079-13.961-9.226c-10.529.781-11.888 17.852-8.77 24.766a22.588 22.588 0 0 0-1.372 18.308c3.561 10.477 16.4 12.82 21.379.682" transform="translate(-633.562 462.388)"/>
                <path id="패스_7803" data-name="패스 7803" class="cls-11" d="M647.092-408.208h-.33c-5.142-.159-9.7-3.9-11.612-9.52a23.683 23.683 0 0 1 1.207-18.69c-2.037-5.092-1.939-14.4 1.523-20.225a10.345 10.345 0 0 1 8.268-5.454 13.868 13.868 0 0 1 14.987 9.972.979.979 0 0 1-.718 1.184.984.984 0 0 1-1.187-.716c-.094-.379-2.437-9.258-12.936-8.483a8.361 8.361 0 0 0-6.727 4.5c-3.169 5.329-3.259 14.364-1.22 18.884a.987.987 0 0 1-.064.925 21.83 21.83 0 0 0-1.274 17.471c1.646 4.842 5.5 8.056 9.813 8.189 4.167.107 7.7-2.628 9.728-7.566a.98.98 0 0 1 1.281-.535.982.982 0 0 1 .536 1.281c-2.267 5.522-6.467 8.783-11.275 8.783z" transform="translate(-633.797 462.155)"/>
            </g>
            <g id="그룹_3554" data-name="그룹 3554" transform="translate(6.962 38.851)">
                <path id="패스_7804" data-name="패스 7804" class="cls-12" d="M654.724-449.18s-1.7-6.935-9.087-6.073c-6.761.792-7.431 12.668-5.343 17.392a16.854 16.854 0 0 0-.663 12.736c2.414 7.185 10.7 8.508 13.755-.031" transform="translate(-638.707 455.327)"/>
            </g>
            <g id="그룹_3555" data-name="그룹 3555" transform="translate(10.111 15.375)">
                <path id="패스_7805" data-name="패스 7805" class="cls-10" d="M676.392-396.745c27.783 1.139 37.208-10.35 40.09-18.665a18.559 18.559 0 0 0 .776-10.68c1.072-37.275-22.788-45.98-36.834-46.385-13.058-.376-36.741 6.963-37.8 43.862a36.154 36.154 0 0 0-.7 9.382c.384 5.817 3.46 21.215 34.468 22.486" transform="translate(-640.876 473.469)"/>
                <path id="패스_7806" data-name="패스 7806" class="cls-11" d="M680.4-395.452c-1.232 0-2.5-.026-3.813-.08-29.542-1.21-34.865-15.181-35.409-23.4a37.032 37.032 0 0 1 .7-9.568c.493-16.506 5.457-28.8 14.754-36.542a36.643 36.643 0 0 1 24.056-8.18c6.525.189 38.982 3.349 37.791 47.247a19.829 19.829 0 0 1-.833 11.122c-2.566 7.388-10.808 19.4-37.246 19.401zm-.566-75.82c-7.4 0-34.84 2.73-36 42.921a.96.96 0 0 1-.025.193 35.569 35.569 0 0 0-.675 9.1c1.165 17.621 21.509 21.078 33.531 21.571 28.226 1.148 36.619-10.785 39.121-18.005a17.665 17.665 0 0 0 .766-10.07 1 1 0 0 1-.043-.316c1.214-42.169-29.676-45.2-35.881-45.376a13.487 13.487 0 0 0-.796-.018z" transform="translate(-641.109 473.237)"/>
            </g>
            <g id="그룹_3556" data-name="그룹 3556" transform="translate(37.959 69.672)">
                <path id="패스_7807" data-name="패스 7807" class="cls-15" d="M670.869-427.834c-5.784.211-8.136-2.033-8.276-2.172a.807.807 0 0 1 0-1.142.808.808 0 0 1 1.136-.008c.076.072 4.637 4.175 17.174-.6a.808.808 0 0 1 1.042.468.807.807 0 0 1-.467 1.042 33.48 33.48 0 0 1-10.608 2.416" transform="translate(-662.356 431.812)"/>
            </g>
            <g id="그룹_3557" data-name="그룹 3557" transform="translate(39.994 72.904)">
                <path id="패스_7808" data-name="패스 7808" d="M663.928-429.107a18.771 18.771 0 0 0 12.959-.239s-.068 7.353-6.862 7.442-6.1-7.2-6.1-7.2" transform="translate(-663.908 429.346)" style="fill:#cf7575"/>
            </g>
            <g id="그룹_3558" data-name="그룹 3558" transform="translate(38.381 71.29)">
                <path id="패스_7809" data-name="패스 7809" class="cls-15" d="M664.31-428.725a18.393 18.393 0 0 0 6.918 1.028 17.833 17.833 0 0 0 6.041-1.266s-.067 7.2-6.645 7.436l-.216.007c-6.795.087-6.1-7.2-6.1-7.2M664.25-430.331a1.611 1.611 0 0 0-.783.235 1.609 1.609 0 0 0-.767 1.223c-.017.169-.367 4.15 2.053 6.778a7.22 7.22 0 0 0 5.672 2.193l.253-.005a7.789 7.789 0 0 0 7.2-4.749 11.693 11.693 0 0 0 1-4.2v-.161a1.613 1.613 0 0 0-1.663-1.555h-.066a1.6 1.6 0 0 0-.52.126 16.3 16.3 0 0 1-5.464 1.139 17.022 17.022 0 0 1-6.257-.914 1.6 1.6 0 0 0-.658-.113" transform="translate(-662.678 430.578)"/>
            </g>
            <g id="그룹_3562" data-name="그룹 3562" transform="translate(39.995 72.903)">
                <g id="그룹_3561" data-name="그룹 3561" style="clip-path:url(#clip-path)">
                    <g id="그룹_3559" data-name="그룹 3559" transform="translate(.086 3.692)">
                        <path id="패스_7810" data-name="패스 7810" class="cls-12" d="M663.974-425.07a11.229 11.229 0 0 1 5.724-1.459 13.16 13.16 0 0 1 6.13 1.376 6.2 6.2 0 0 1-5.839 3.345 6.4 6.4 0 0 1-6.015-3.262" transform="translate(-663.974 426.53)"/>
                    </g>
                    <g id="그룹_3560" data-name="그룹 3560" transform="translate(-.721 2.885)">
                        <path id="패스_7811" data-name="패스 7811" class="cls-15" d="M670.425-420.814c-.076 0-.155.005-.235.005a7.17 7.17 0 0 1-6.758-3.73.809.809 0 0 1 .285-1.011 12 12 0 0 1 6.163-1.6 13.906 13.906 0 0 1 6.538 1.482.807.807 0 0 1 .349 1.011 6.928 6.928 0 0 1-6.341 3.838m-5.109-3.758a5.8 5.8 0 0 0 4.854 2.148 5.646 5.646 0 0 0 4.7-2.18 13.023 13.023 0 0 0-4.969-.927 11.582 11.582 0 0 0-4.584.958m-1.151-.307z" transform="translate(-663.358 427.146)"/>
                    </g>
                </g>
            </g>
            <g id="그룹_3563" data-name="그룹 3563" transform="translate(54.061 56.704)">
                <path id="패스_7813" data-name="패스 7813" class="cls-15" d="M683.085-436.8a4.48 4.48 0 0 1-4.417 4.53 4.509 4.509 0 0 1-4.023-4.906 4.478 4.478 0 0 1 4.417-4.529 4.507 4.507 0 0 1 4.023 4.9" transform="translate(-674.64 441.706)"/>
            </g>
            <g id="그룹_3564" data-name="그룹 3564" transform="translate(55.116 46.324)">
                <path id="패스_7814" data-name="패스 7814" class="cls-15" d="M681.794-446.9a.888.888 0 0 1-.514-.186 3.916 3.916 0 0 0-2.151-.764 4.478 4.478 0 0 0-2.426.514.88.88 0 0 1-1.172-.415.879.879 0 0 1 .416-1.173 6.229 6.229 0 0 1 3.312-.679 5.626 5.626 0 0 1 3.1 1.13.879.879 0 0 1 .152 1.235.878.878 0 0 1-.72.339" transform="translate(-675.445 449.625)"/>
            </g>
            <g id="그룹_3565" data-name="그룹 3565" transform="translate(55.892 58.801)">
                <path id="패스_7815" data-name="패스 7815" class="cls-24" d="M678.327-438.845a1.163 1.163 0 0 1-1.216 1.113 1.173 1.173 0 0 1-1.071-1.258 1.165 1.165 0 0 1 1.216-1.113 1.171 1.171 0 0 1 1.071 1.258" transform="translate(-676.037 440.106)"/>
            </g>
            <g id="그룹_3566" data-name="그룹 3566" transform="translate(26.679 54.394)">
                <path id="패스_7816" data-name="패스 7816" class="cls-15" d="M661.579-438.485c-.109 2.65-1.949 4.72-4.109 4.622s-3.825-2.329-3.716-4.981 1.949-4.72 4.109-4.62 3.825 2.328 3.716 4.979" transform="translate(-653.749 443.468)"/>
            </g>
            <g id="그룹_3567" data-name="그룹 3567" transform="translate(27.083 45.518)">
                <path id="패스_7817" data-name="패스 7817" class="cls-15" d="M660.406-447.519a.869.869 0 0 1-.514-.186 3.905 3.905 0 0 0-2.151-.763 4.48 4.48 0 0 0-2.426.513.879.879 0 0 1-1.172-.415.879.879 0 0 1 .416-1.173 6.242 6.242 0 0 1 3.312-.678 5.627 5.627 0 0 1 3.1 1.13.88.88 0 0 1 .152 1.235.876.876 0 0 1-.72.338" transform="translate(-654.057 450.24)"/>
            </g>
            <g id="그룹_3568" data-name="그룹 3568" transform="translate(28.26 56.175)">
                <path id="패스_7818" data-name="패스 7818" class="cls-24" d="M656.943-441.014a1.009 1.009 0 0 1-1.055.965 1.016 1.016 0 0 1-.931-1.092 1.01 1.01 0 0 1 1.057-.966 1.017 1.017 0 0 1 .929 1.093" transform="translate(-654.955 442.11)"/>
            </g>
            <g id="그룹_3569" data-name="그룹 3569" transform="translate(14.875 54.23)">
                <path id="패스_7819" data-name="패스 7819" class="cls-10" d="M669.4-440.96s-8.879 13.692-18.67-1.375a1.107 1.107 0 0 0-1.486-.36l-3.234 1.771c-.5.291-.523.881-.516 1.471.062 5.492 16.492 24.781 33.116 11.042" transform="translate(-644.512 443.826)"/>
                <path id="패스_7820" data-name="패스 7820" class="cls-11" d="M666.518-422.346a20.1 20.1 0 0 1-8.445-1.957c-7.955-3.691-13.289-11.418-13.327-14.908a2.4 2.4 0 0 1 1.007-2.332l3.247-1.781a2.093 2.093 0 0 1 2.78.687c2.856 4.394 5.85 6.623 8.9 6.626h.005c4.645 0 8.089-5.2 8.123-5.251a.985.985 0 0 1 1.358-.288.982.982 0 0 1 .29 1.357c-.163.25-4.049 6.143-9.766 6.145-3.756 0-7.3-2.53-10.547-7.518a.128.128 0 0 0-.177-.043l-3.248 1.78c-.012.064-.008.467-.007.6.029 2.586 4.8 9.719 12.191 13.15 4.635 2.151 11.748 3.4 19.316-2.855a.984.984 0 0 1 1.383.131.984.984 0 0 1-.131 1.383c-4.586 3.782-9.027 5.073-12.952 5.074z" transform="translate(-644.744 443.593)"/>
            </g>
            <g id="그룹_3570" data-name="그룹 3570" transform="translate(35.746 60.917)">
                <path id="패스_7821" data-name="패스 7821" class="cls-10" d="M660.706-438.1s3.713.364 4.564 3.312" transform="translate(-660.655 438.612)"/>
                <path id="패스_7822" data-name="패스 7822" class="cls-11" d="M664.788-434.525c-.742-2.572-4.087-2.94-4.121-2.943l.1-1.024c.165.017 4.071.435 5.007 3.68z" transform="translate(-660.667 438.491)"/>
            </g>
            <g id="그룹_3571" data-name="그룹 3571" transform="translate(35.013 60.645)">
                <path id="패스_7823" data-name="패스 7823" class="cls-11" d="M665.432-433.818a.785.785 0 0 1-.73-.568c-.691-2.392-3.857-2.746-3.889-2.749a.787.787 0 0 1-.7-.86.784.784 0 0 1 .856-.7c.173.017 4.255.453 5.242 3.875a.785.785 0 0 1-.536.971.8.8 0 0 1-.241.031" transform="translate(-660.108 438.699)"/>
            </g>
            <g id="그룹_3572" data-name="그룹 3572" transform="translate(31.553 62.316)">
                <path id="패스_7824" data-name="패스 7824" class="cls-10" d="M657.608-437.057a5.5 5.5 0 0 1 2.936 3.728" transform="translate(-657.425 437.538)"/>
                <path id="패스_7825" data-name="패스 7825" class="cls-11" d="M660.093-433.072a4.99 4.99 0 0 0-2.625-3.391l.363-.961a5.98 5.98 0 0 1 3.249 4.066z" transform="translate(-657.468 437.424)"/>
            </g>
            <g id="그룹_3573" data-name="그룹 3573" transform="translate(30.956 62.012)">
                <path id="패스_7826" data-name="패스 7826" class="cls-11" d="M660.706-432.359a.785.785 0 0 1-.73-.566 4.751 4.751 0 0 0-2.464-3.214.787.787 0 0 1-.447-1.012.783.783 0 0 1 1-.455 6.273 6.273 0 0 1 3.414 4.244.784.784 0 0 1-.536.971.766.766 0 0 1-.241.031" transform="translate(-657.012 437.656)"/>
            </g>
            <g id="그룹_3574" data-name="그룹 3574" transform="translate(26.759 61.671)">
                <path id="패스_7827" data-name="패스 7827" class="cls-10" d="M654.123-437.68a5.081 5.081 0 0 1 .642 4.6" transform="translate(-653.713 437.989)"/>
                <path id="패스_7828" data-name="패스 7828" class="cls-11" d="m655.341-432.819-.956-.378a4.562 4.562 0 0 0-.575-4.1l.82-.619a5.569 5.569 0 0 1 .711 5.097z" transform="translate(-653.81 437.916)"/>
            </g>
            <g id="그룹_3575" data-name="그룹 3575" transform="translate(26.386 61.197)">
                <path id="패스_7829" data-name="패스 7829" class="cls-11" d="M654.929-432.111a.79.79 0 0 1-.265-.055.785.785 0 0 1-.442-1.018 4.252 4.252 0 0 0-.543-3.84.788.788 0 0 1 .16-1.1.786.786 0 0 1 1.1.156 5.848 5.848 0 0 1 .746 5.36.787.787 0 0 1-.752.5" transform="translate(-653.526 438.278)"/>
            </g>
            <g id="그룹_3576" data-name="그룹 3576" transform="translate(7.749 49.389)">
                <path id="패스_7830" data-name="패스 7830" class="cls-10" d="M652.229-441.19s1.763-4.1-1.383-5.171-3.334 3.059-3.334 3.059-4.806-4.584-6.822-1.118c-2.185 3.755 1.572 7.771 6.679 6.588" transform="translate(-639.075 447.519)"/>
                <path id="패스_7831" data-name="패스 7831" class="cls-11" d="M645.825-436.412a6.736 6.736 0 0 1-5.514-2.545 5.082 5.082 0 0 1-.237-5.723 3.361 3.361 0 0 1 2.468-1.749c1.64-.232 3.4.738 4.567 1.576a3.815 3.815 0 0 1 1.376-1.945 3.141 3.141 0 0 1 2.91-.26 3.564 3.564 0 0 1 2.19 1.931 6.356 6.356 0 0 1-.221 4.556.981.981 0 0 1-1.288.515.982.982 0 0 1-.515-1.288 4.469 4.469 0 0 0 .231-2.99 1.594 1.594 0 0 0-1.029-.865c-.756-.258-1.067-.047-1.169.021a3.251 3.251 0 0 0-.868 2.157.981.981 0 0 1-.617.861.982.982 0 0 1-1.039-.2c-.65-.617-2.832-2.334-4.252-2.127a1.387 1.387 0 0 0-1.046.792 3.133 3.133 0 0 0 .121 3.57 5.256 5.256 0 0 0 5.489 1.566.979.979 0 0 1 1.177.735.98.98 0 0 1-.734 1.177 8.866 8.866 0 0 1-2 .235z" transform="translate(-639.307 447.286)"/>
            </g>
            <g id="그룹_3577" data-name="그룹 3577">
                <path id="패스_7832" data-name="패스 7832" d="M731.429-430.221a1.191 1.191 0 0 1-.683-.212c-2.863-1.97-16.244-7.976-43.434-12.05a187.581 187.581 0 0 0-27.583-1.883 223.556 223.556 0 0 0-24.234 1.257 1.115 1.115 0 0 1-.147.011 1.2 1.2 0 0 1-1-.532 1.2 1.2 0 0 1-.055-1.256c3.868-6.98 13.794-13.363 16.022-14.737 1.555-5.9 8.213-24.595 33.61-24.595 1.746 0 3.572.08 5.429.236 13.7 1.159 30.662 9.931 33.881 35.319 2.274 2.551 7.5 10.946 9.34 16.882a1.2 1.2 0 0 1-.436 1.325 1.2 1.2 0 0 1-.713.235" transform="translate(-633.162 485.2)" style="fill:#ebb430"/>
                <path id="패스_7833" data-name="패스 7833" class="cls-11" d="M731.66-429.007a2.168 2.168 0 0 1-1.239-.387c-2.81-1.933-16.02-7.842-43.022-11.886a186.662 186.662 0 0 0-27.437-1.873 224.061 224.061 0 0 0-24.113 1.249 2.21 2.21 0 0 1-2.079-.948 2.174 2.174 0 0 1-.1-2.279c3.772-6.807 12.835-12.888 16.034-14.89 2.15-7.807 9.7-24.947 34.456-24.947 1.769 0 3.623.081 5.512.24 7.136.6 30.67 4.974 34.734 35.877 2.368 2.8 7.467 10.969 9.341 17.011a2.188 2.188 0 0 1-.792 2.406 2.17 2.17 0 0 1-1.295.427zm-71.7-16.108a188.649 188.649 0 0 1 27.728 1.893c27.37 4.1 40.93 10.205 43.844 12.212a.193.193 0 0 0 .26 0 .223.223 0 0 0 .08-.244c-1.823-5.875-7.024-14.151-9.136-16.52a.979.979 0 0 1-.241-.529c-.952-7.512-6.146-32.2-32.99-34.463a63.397 63.397 0 0 0-5.346-.235c-23.8 0-30.769 16.69-32.661 23.864a.978.978 0 0 1-.434.585c-1.956 1.206-11.9 7.564-15.679 14.376a.221.221 0 0 0 .01.232.22.22 0 0 0 .184.1 226.584 226.584 0 0 1 24.383-1.27z" transform="translate(-633.395 484.967)"/>
            </g>
            <g id="그룹_3578" data-name="그룹 3578" transform="translate(28.631 3.979)">
                <path id="패스_7834" data-name="패스 7834" class="cls-26" d="M656.465-465.913a1.218 1.218 0 0 1-.569-.142 1.224 1.224 0 0 1-.516-1.654c.249-.476 6.247-11.693 18.064-14.2a1.223 1.223 0 0 1 1.454.946 1.225 1.225 0 0 1-.945 1.452c-10.669 2.26-16.345 12.829-16.4 12.937a1.228 1.228 0 0 1-1.088.661z" transform="translate(-655.239 481.931)"/>
            </g>
            <g id="그룹_3579" data-name="그룹 3579" transform="translate(51.765 4.658)">
                <path id="패스_7835" data-name="패스 7835" class="cls-26" d="M674.116-463.772h-.071a1.227 1.227 0 0 1-1.155-1.294c.022-.387.56-9.525 2.292-15.463a1.223 1.223 0 0 1 1.52-.834 1.226 1.226 0 0 1 .834 1.52c-1.655 5.673-2.193 14.823-2.2 14.915a1.224 1.224 0 0 1-1.22 1.156z" transform="translate(-672.889 481.413)"/>
            </g>
            <g id="그룹_3580" data-name="그룹 3580" transform="translate(66.235 7.874)">
                <path id="패스_7836" data-name="패스 7836" class="cls-26" d="M696.333-457.473h-.039a1.226 1.226 0 0 1-1.186-1.265c.288-9.037-10.613-17.953-10.723-18.041a1.228 1.228 0 0 1-.185-1.725 1.227 1.227 0 0 1 1.725-.184c.488.393 11.962 9.766 11.634 20.027a1.226 1.226 0 0 1-1.226 1.188z" transform="translate(-683.928 478.96)"/>
            </g>
            <g id="그룹_3581" data-name="그룹 3581" transform="translate(18.032 24.551)">
                <path id="패스_7837" data-name="패스 7837" class="cls-26" d="M716.576-452.1a1.632 1.632 0 0 1-.893-.265c-.1-.063-10.226-6.45-34.555-9.217-24.014-2.733-31.8-.55-31.873-.528a1.641 1.641 0 0 1-2.033-1.094 1.632 1.632 0 0 1 1.077-2.034c.326-.1 8.259-2.43 33.2.408 25.218 2.868 35.544 9.448 35.972 9.727a1.635 1.635 0 0 1 .477 2.262 1.633 1.633 0 0 1-1.372.741z" transform="translate(-647.152 466.236)"/>
            </g>
        </g>
    </g>
</svg>
