<svg xmlns="http://www.w3.org/2000/svg" width="247" height="223">
    <defs>
        <clipPath id="clip-path">
            <path id="패스_7188" data-name="패스 7188" class="cls-1" d="m334.165-402.126-8.143 5.952a1.811 1.811 0 0 1-2.316-.149l-5.724-5.437a1.809 1.809 0 0 0-2.631.147l-4.246 5.04a1.811 1.811 0 0 1-2.451.3l-7.04-5.126a1.813 1.813 0 0 0-2.878 1.565c1.45 23.933 16.815 38.344 35.558 38.344 18.767 0 34.149-14.451 35.563-38.44a1.813 1.813 0 0 0-2.847-1.588l-7.664 5.342a1.812 1.812 0 0 1-2.357-.248l-3.841-4.1a1.81 1.81 0 0 0-2.568-.074l-5.549 5.272a1.814 1.814 0 0 1-2.589-.094l-5.872-6.462a1.812 1.812 0 0 0-1.341-.592 1.811 1.811 0 0 0-1.067.349" transform="translate(-298.734 402.475)"/>
        </clipPath>
        <clipPath id="clip-path-2">
            <path id="패스_7229" data-name="패스 7229" class="cls-1" d="m295.243-433.758 12.119-4.137 7.98 7.109 12.537-5.093 8.6 6.765 11.154-5.2 7.907 5.533 10.662-4.063 8.842 5.4c2.252-28.06-11.48-48.948-36.815-50.954q-2.3-.181-4.479-.182c-23.9 0-36.388 18.366-38.51 44.818" transform="translate(-295.243 478.576)"/>
        </clipPath>
        <style>
            .cls-1,.cls-4,.cls-7{fill:none}.cls-3{fill:#8bb3ff}.cls-4,.cls-7{stroke:#5d85d0;stroke-width:1.534px;stroke-linecap:round;stroke-linejoin:round}.cls-7{stroke:#ffd7aa;stroke-width:1.942px}.cls-9{fill:#8cc7ea}.cls-10{fill:#36607b}.cls-11{fill:#335d76}.cls-12{fill:#faf2e2}.cls-14{fill:#4b829f}.cls-15{fill:#ffbfc5}.cls-16{fill:#f7f8f8}
        </style>
    </defs>
    <g id="그룹_4417" data-name="그룹 4417" transform="translate(-420 -769)">
        <g id="타원_1273" data-name="타원 1273" transform="translate(420 769)" style="fill:#fff;stroke:#ffad52;stroke-width:12px">
            <circle cx="111.5" cy="111.5" r="111.5" style="stroke:none"/>
            <circle class="cls-1" cx="111.5" cy="111.5" r="105.5"/>
        </g>
        <g id="그룹_4405" data-name="그룹 4405" transform="translate(6.574)">
            <g id="그룹_3587" data-name="그룹 3587" transform="translate(907.309 423.301)">
                <g id="그룹_2595" data-name="그룹 2595" transform="translate(-341.734 372.049)">
                    <path id="패스_6380" data-name="패스 6380" class="cls-3" d="m-324.807 382.744-.55-.549-4.406-4.406-.549-.55-1.353-1.353a5.1 5.1 0 0 0-7.205 0l-12.534 12.534a1.491 1.491 0 0 0 0 2.107 6.3 6.3 0 0 0 8.9 0l.5-.5.505.505a6.3 6.3 0 0 0 8.9 0l.5-.5.5.5a6.3 6.3 0 0 0 8.9 0l2.828-2.827z" transform="translate(351.841 -374.394)"/>
                    <path id="선_424" data-name="선 424" class="cls-4" transform="translate(10.618 9.767)" d="M0 5.088 5.088 0"/>
                    <path id="선_425" data-name="선 425" class="cls-4" transform="translate(20.65 13.255)" d="M0 1.48 1.48 0"/>
                </g>
                <g id="그룹_2596" data-name="그룹 2596" transform="translate(-278.873 372.476)">
                    <path id="패스_6381" data-name="패스 6381" class="cls-3" d="m-289.5 382.744.549-.549 4.406-4.406.55-.55 1.353-1.353a5.094 5.094 0 0 1 7.2 0l12.542 12.534a1.489 1.489 0 0 1 0 2.107 6.3 6.3 0 0 1-8.9 0l-.5-.5-.5.505a6.3 6.3 0 0 1-8.9 0l-.5-.5-.5.5a6.3 6.3 0 0 1-8.9 0l-2.827-2.827z" transform="translate(294.455 -374.394)"/>
                    <path id="선_426" data-name="선 426" class="cls-4" transform="translate(16.284 9.767)" d="M5.088 5.088 0 0"/>
                    <path id="선_427" data-name="선 427" class="cls-4" transform="translate(9.86 13.255)" d="M1.48 1.48 0 0"/>
                </g>
                <path id="패스_6382" data-name="패스 6382" d="M-328.358 371.79v17.125a44.392 44.392 0 0 0 22.2 38.445l2.236 1.291a6.239 6.239 0 0 0 6.24 0l2.236-1.291a44.391 44.391 0 0 0 22.2-38.445V371.79a3.6 3.6 0 0 0-2.27-3.342l-21.851-8.672a9.307 9.307 0 0 0-6.862 0l-21.851 8.672a3.6 3.6 0 0 0-2.278 3.342z" transform="translate(6.693 -.422)" style="fill:#ffad52"/>
                <g id="그룹_2597" data-name="그룹 2597" transform="translate(-318.655 365.967)">
                    <path id="패스_6383" data-name="패스 6383" d="M-302.9 421.707a39.13 39.13 0 0 1-19.511-33.794v-14.694l20.231-8.029 20.231 8.029v14.694a39.133 39.133 0 0 1-19.511 33.794l-.72.415z" transform="translate(326.523 -365.19)" style="stroke:#ea983d;stroke-width:2.167px;stroke-linecap:round;stroke-linejoin:round;fill:none"/>
                    <path id="패스_6384" data-name="패스 6384" class="cls-7" d="M-325.844 374.813V372.6a3.545 3.545 0 0 1 2.237-3.3l3.02-1.2" transform="translate(325.845 -364.615)"/>
                    <path id="선_428" data-name="선 428" class="cls-7" transform="translate(0 14.356)" d="M0 .764V0"/>
                </g>
            </g>
            <text id="LV.2" transform="translate(596.139 819)" style="fill:#d5782d;font-size:20px;font-family:BMJUA,BM JUA_TTF;letter-spacing:-.06em"><tspan x="0" y="0">LV.2</tspan></text>
        </g>
        <g id="그룹_3588" data-name="그룹 3588" transform="translate(469.722 811.564)">
            <g id="그룹_2873" data-name="그룹 2873" transform="translate(31.055 88.886)">
                <path id="패스_7177" data-name="패스 7177" class="cls-9" d="M310.378-412.761s-7.313 16.348-5.449 28.106h55.063s-1.577-14.627-5.306-24.664" transform="translate(-304.101 412.973)"/>
                <path id="패스_7178" data-name="패스 7178" class="cls-10" d="M360.7-384.084h-56.087l-.069-.437c-1.868-11.776 5.187-27.726 5.488-28.4l.948.424c-.072.16-7.046 15.937-5.474 27.373h54.032c-.337-2.8-1.962-15.219-5.209-23.963l.973-.362c3.709 9.982 5.321 24.643 5.337 24.788z" transform="translate(-304.23 412.921)"/>
            </g>
            <g id="그룹_2874" data-name="그룹 2874" transform="translate(30.645 88.719)">
                <path id="패스_7179" data-name="패스 7179" class="cls-11" d="M361.257-383.631h-56.894l-.123-.785c-1.888-11.9 5.215-27.954 5.518-28.631l1.7.76c-.07.156-6.857 15.509-5.489 26.8h53.207c-.437-3.494-2.052-15.12-5.131-23.41l1.746-.648c3.726 10.031 5.293 24.286 5.358 24.888z" transform="translate(-303.921 413.047)"/>
            </g>
            <g id="그룹_2875" data-name="그룹 2875" transform="translate(23.771 102.733)">
                <path id="패스_7180" data-name="패스 7180" class="cls-12" d="M367.012-401.521a1.813 1.813 0 0 1 2.847 1.588c-1.414 23.989-16.8 38.44-35.563 38.44-18.741 0-34.108-14.412-35.558-38.344a1.813 1.813 0 0 1 2.878-1.565l7.041 5.126a1.809 1.809 0 0 0 2.449-.3l4.246-5.04a1.811 1.811 0 0 1 2.632-.147l5.722 5.437a1.81 1.81 0 0 0 2.316.15l8.144-5.95a1.81 1.81 0 0 1 2.407.243l5.873 6.462a1.812 1.812 0 0 0 2.587.094l5.549-5.272a1.81 1.81 0 0 1 2.568.074l3.841 4.1a1.811 1.811 0 0 0 2.357.248z" transform="translate(-298.734 402.474)"/>
            </g>
            <g id="그룹_2876" data-name="그룹 2876" transform="translate(21.613 100.576)">
                <path id="패스_7181" data-name="패스 7181" class="cls-11" d="M335.762-401.944a1.807 1.807 0 0 1 1.341.592l5.873 6.459a1.806 1.806 0 0 0 1.34.594 1.8 1.8 0 0 0 1.246-.5l5.55-5.272a1.806 1.806 0 0 1 1.247-.5 1.8 1.8 0 0 1 1.32.573l3.841 4.1a1.813 1.813 0 0 0 1.323.571 1.8 1.8 0 0 0 1.034-.325l7.664-5.342a1.789 1.789 0 0 1 1.03-.329 1.814 1.814 0 0 1 1.817 1.917c-1.414 23.99-16.8 38.44-35.563 38.44-18.743 0-34.108-14.412-35.558-38.344a1.811 1.811 0 0 1 1.817-1.915 1.777 1.777 0 0 1 1.059.35l7.041 5.126a1.808 1.808 0 0 0 1.066.347 1.809 1.809 0 0 0 1.385-.644l4.244-5.041a1.808 1.808 0 0 1 1.386-.644 1.8 1.8 0 0 1 1.246.5l5.724 5.437a1.808 1.808 0 0 0 1.247.5 1.808 1.808 0 0 0 1.068-.349l8.143-5.95a1.8 1.8 0 0 1 1.067-.349m0-2.158a3.934 3.934 0 0 0-2.34.765l-7.909 5.779L320-402.8a3.957 3.957 0 0 0-2.733-1.091 3.964 3.964 0 0 0-3.035 1.412l-4.038 4.794-6.779-4.936a3.938 3.938 0 0 0-2.33-.764 4.016 4.016 0 0 0-2.911 1.261 3.909 3.909 0 0 0-1.06 2.944c.728 12 4.841 22.2 11.9 29.515a35.536 35.536 0 0 0 25.816 10.856 35.525 35.525 0 0 0 25.842-10.885c7.061-7.329 11.166-17.559 11.875-29.585a3.917 3.917 0 0 0-1.064-2.944 4.019 4.019 0 0 0-2.907-1.258 3.945 3.945 0 0 0-2.263.717l-7.419 5.169-3.636-3.878a3.98 3.98 0 0 0-2.895-1.254 3.951 3.951 0 0 0-2.733 1.091l-5.293 5.028-5.635-6.2a3.976 3.976 0 0 0-2.937-1.3" transform="translate(-297.106 404.102)"/>
            </g>
            <g id="그룹_2884" data-name="그룹 2884" transform="translate(23.771 102.732)">
                <g id="그룹_2883" data-name="그룹 2883" style="clip-path:url(#clip-path)">
                    <g id="그룹_2877" data-name="그룹 2877" transform="translate(41.927 -53.779)">
                        <path id="패스_7182" data-name="패스 7182" class="cls-14" d="M359.665-432.758c4.429 8.693 1.952 18.832-5.533 22.644s-17.141-.145-21.57-8.837-1.952-18.832 5.538-22.649 17.142.143 21.57 8.837" transform="translate(-330.365 443.047)"/>
                    </g>
                    <g id="그룹_2878" data-name="그룹 2878" transform="translate(7.417 -22.098)">
                        <path id="패스_7183" data-name="패스 7183" class="cls-14" d="M321-407.825c-1.047 5.276-5.576 8.821-10.118 7.921s-7.376-5.906-6.331-11.182 5.576-8.823 10.119-7.921 7.375 5.906 6.329 11.182" transform="translate(-304.33 419.147)"/>
                    </g>
                    <g id="그룹_2879" data-name="그룹 2879" transform="translate(47.908 -6.445)">
                        <path id="패스_7184" data-name="패스 7184" class="cls-14" d="M339.964-403.88a2.787 2.787 0 0 1-3.088 2.418 2.789 2.789 0 0 1-1.933-3.415 2.788 2.788 0 0 1 3.088-2.418 2.789 2.789 0 0 1 1.933 3.414" transform="translate(-334.877 407.337)"/>
                    </g>
                    <g id="그룹_2880" data-name="그룹 2880" transform="translate(16.575 -55.258)">
                        <path id="패스_7185" data-name="패스 7185" class="cls-14" d="M321.994-436.744c-.746 3.4-3.719 5.627-6.643 4.985s-4.687-3.916-3.941-7.31 3.718-5.625 6.642-4.984 4.687 3.914 3.942 7.309" transform="translate(-311.239 444.163)"/>
                    </g>
                    <g id="그룹_2881" data-name="그룹 2881" transform="translate(-1.168 9.627)">
                        <path id="패스_7186" data-name="패스 7186" class="cls-14" d="M320.872-383.782c1.253 7.31-2.834 14.111-9.129 15.19s-12.412-3.975-13.663-11.285 2.833-14.111 9.127-15.19 12.412 3.975 13.665 11.285" transform="translate(-297.853 395.212)"/>
                    </g>
                    <g id="그룹_2882" data-name="그룹 2882" transform="translate(36.457 12.336)">
                        <path id="패스_7187" data-name="패스 7187" class="cls-14" d="M356.253-371.26c-2.834 9.345-11.654 14.941-19.7 12.5s-12.268-11.993-9.434-21.337 11.653-14.941 19.7-12.5 12.269 11.993 9.435 21.337" transform="translate(-326.239 393.168)"/>
                    </g>
                </g>
            </g>
            <g id="그룹_2885" data-name="그룹 2885" transform="translate(18.759 80.677)">
                <path id="패스_7189" data-name="패스 7189" class="cls-9" d="M317.277-401.865c-3.759 4.617-4.418 12.4-4.418 12.928s3.759 6.727.131 8.508-3.892-4.881-3.892-4.881c-.493 7.4-6.413 6.906-6.413 6.906-20.229-3.7 9.866-39.962 9.866-39.962h46.437s30.094 36.262 9.866 39.962c0 0-5.92.494-6.413-6.906 0 0-.264 6.661-3.892 4.881s.131-7.981.131-8.508-.659-8.311-4.418-12.928" transform="translate(-294.712 419.358)"/>
                <path id="패스_7190" data-name="패스 7190" class="cls-10" d="M303.146-377.16c-.175 0-.281-.009-.3-.011-3.859-.7-6.295-2.505-7.338-5.376-4.072-11.206 15.681-35.192 16.524-36.208a.991.991 0 0 1 .763-.359h46.435a.991.991 0 0 1 .764.359c.843 1.015 20.6 25 16.524 36.208-1.043 2.871-3.479 4.676-7.243 5.364a7.028 7.028 0 0 1-4.91-1.62 6.9 6.9 0 0 1-1.641-2.106 3.825 3.825 0 0 1-1.4 1.638 2.978 2.978 0 0 1-2.971-.024c-3.806-1.868-1.52-7.032-.66-8.976.1-.223.182-.4.229-.526-.074-.939-.76-7.986-4.189-12.2a.994.994 0 0 1 .142-1.4.994.994 0 0 1 1.4.142c4.15 5.1 4.643 13.478 4.643 13.556a3.2 3.2 0 0 1-.407 1.226c-1.106 2.5-2.135 5.481-.28 6.392.685.335.97.164 1.078.1.852-.509 1.33-2.765 1.383-4.13a.994.994 0 0 1 .98-.953.958.958 0 0 1 1 .927 6.708 6.708 0 0 0 1.966 4.806 5.118 5.118 0 0 0 3.38 1.176c2.96-.546 4.836-1.884 5.632-4.075 3.438-9.459-13.442-30.867-15.893-33.9h-45.492c-2.451 3.037-19.331 24.445-15.893 33.9.8 2.19 2.671 3.527 5.73 4.087a5.169 5.169 0 0 0 3.281-1.188 6.7 6.7 0 0 0 1.967-4.806.993.993 0 0 1 .99-.927h.013a.994.994 0 0 1 .98.952c.058 1.409.526 3.621 1.384 4.132.107.065.394.235 1.078-.1 1.854-.911.824-3.894-.281-6.392a3.213 3.213 0 0 1-.406-1.226c0-.078.492-8.458 4.641-13.555a1 1 0 0 1 1.4-.144.993.993 0 0 1 .143 1.4c-3.428 4.21-4.113 11.251-4.189 12.2.049.125.131.3.229.526.86 1.945 3.145 7.109-.66 8.976a2.97 2.97 0 0 1-2.97.024 3.824 3.824 0 0 1-1.4-1.638 6.88 6.88 0 0 1-1.641 2.106 7.075 7.075 0 0 1-4.515 1.643z" transform="translate(-294.953 419.114)"/>
            </g>
            <g id="그룹_2886" data-name="그룹 2886" transform="translate(0 24.671)">
                <path id="패스_7191" data-name="패스 7191" class="cls-9" d="M310.943-451.984s-3.9-10.354-18.043-8.387c-12.95 1.8-13.182 19.855-8.74 26.823a20.7 20.7 0 0 0-.143 19.352c5.291 10.67 21.365 11.932 26.49-1.279" transform="translate(-280.555 461.61)"/>
                <path id="패스_7192" data-name="패스 7192" class="cls-10" d="M297.544-404.643a15.867 15.867 0 0 1-14.171-8.868 21.7 21.7 0 0 1-.117-19.779c-2.651-4.675-3.609-13.384-.561-19.983a12.95 12.95 0 0 1 10.314-7.836c14.749-2.056 19.068 8.907 19.109 9.019a.992.992 0 0 1-.579 1.279 1 1 0 0 1-1.278-.578c-.162-.416-3.855-9.582-16.978-7.754a10.916 10.916 0 0 0-8.784 6.7c-2.793 6.047-1.87 14.5.745 18.6a1 1 0 0 1 0 1.058 19.55 19.55 0 0 0-.1 18.388 13.835 13.835 0 0 0 13.006 7.749c5.3-.239 9.556-3.5 11.67-8.947a1 1 0 0 1 1.284-.566.992.992 0 0 1 .566 1.284c-2.375 6.124-7.4 9.94-13.431 10.213a9.967 9.967 0 0 1-.695.021z" transform="translate(-280.801 461.367)"/>
            </g>
            <g id="그룹_2887" data-name="그룹 2887" transform="translate(7.182 33.981)">
                <path id="패스_7193" data-name="패스 7193" class="cls-15" d="M304.974-448.581s-2.7-7.123-11.749-5.529c-8.292 1.461-8.112 13.995-5.13 18.76a15.374 15.374 0 0 0 .26 13.435c3.6 7.319 13.95 7.936 17-1.316" transform="translate(-286.219 454.343)"/>
            </g>
            <g id="그룹_2888" data-name="그룹 2888" transform="translate(16.122 8.784)">
                <path id="패스_7194" data-name="패스 7194" class="cls-9" d="M333.814-392.895c29.222 1.775 38.844-12.016 41.625-20.849 2.076-6.6.493-11.259.493-11.259 0-39.247-25.313-47.6-40.107-47.6-13.577 0-44.293 11.448-37.756 51.024a2.545 2.545 0 0 1-.832 2.361 9.876 9.876 0 0 0-3.522 7.844c.15 6.565 1.194 16.116 40.1 18.479" transform="translate(-292.72 473.596)"/>
                <path id="패스_7195" data-name="패스 7195" class="cls-10" d="M339.032-391.5q-2.416 0-5.036-.158c-40.645-2.468-40.887-13.1-41.03-19.447a10.866 10.866 0 0 1 3.868-8.621 1.541 1.541 0 0 0 .5-1.445c-2.569-15.551.221-28.261 8.3-37.777 9.644-11.368 23.672-14.4 30.44-14.4 6.856 0 41.025 2.339 41.1 48.442a20.808 20.808 0 0 1-.538 11.707c-2.124 6.724-9.959 21.699-37.604 21.699zm-4.915-2.139c10.107.612 34.31-.119 40.618-20.156a18.805 18.805 0 0 0 .5-10.645 1.021 1.021 0 0 1-.052-.315c0-7.783-1.885-46.608-39.113-46.608-6.427 0-19.751 2.886-28.927 13.7-7.679 9.052-10.319 21.221-7.85 36.171a3.512 3.512 0 0 1-1.166 3.277 8.914 8.914 0 0 0-3.175 7.068c.128 5.662.342 15.147 39.165 17.505z" transform="translate(-292.964 473.352)"/>
            </g>
            <g id="그룹_2889" data-name="그룹 2889" transform="translate(65.082 41.708)">
                <path id="패스_7196" data-name="패스 7196" class="cls-11" d="M336.62-445.739a.921.921 0 0 1-.547-.18 4.1 4.1 0 0 0-2.286-.737 4.736 4.736 0 0 0-2.537.611.925.925 0 0 1-1.246-.4.924.924 0 0 1 .4-1.246 6.567 6.567 0 0 1 3.465-.814 5.908 5.908 0 0 1 3.3 1.1.924.924 0 0 1 .2 1.294.925.925 0 0 1-.748.378" transform="translate(-329.9 448.513)"/>
            </g>
            <g id="그룹_2890" data-name="그룹 2890" transform="translate(32.072 56.889)">
                <path id="패스_7197" data-name="패스 7197" class="cls-11" d="M313.852-431.555c-.036 3-2.048 5.4-4.493 5.355s-4.4-2.507-4.361-5.506 2.048-5.395 4.493-5.354 4.4 2.507 4.361 5.5" transform="translate(-304.997 437.06)"/>
            </g>
            <g id="그룹_2891" data-name="그룹 2891" transform="translate(35.554 41.708)">
                <path id="패스_7198" data-name="패스 7198" class="cls-11" d="M314.344-445.739a.921.921 0 0 1-.547-.18 4.107 4.107 0 0 0-2.288-.737 4.734 4.734 0 0 0-2.536.611.926.926 0 0 1-1.247-.4.926.926 0 0 1 .4-1.246 6.576 6.576 0 0 1 3.466-.814 5.912 5.912 0 0 1 3.3 1.1.925.925 0 0 1 .2 1.294.927.927 0 0 1-.748.378" transform="translate(-307.624 448.513)"/>
            </g>
            <g id="그룹_2892" data-name="그룹 2892" transform="translate(34.538 58.947)">
                <path id="패스_7199" data-name="패스 7199" class="cls-16" d="M309.108-434.3a1.142 1.142 0 0 1-1.162 1.125 1.148 1.148 0 0 1-1.087-1.2 1.142 1.142 0 0 1 1.162-1.125 1.149 1.149 0 0 1 1.087 1.2" transform="translate(-306.857 435.508)"/>
            </g>
            <g id="그룹_2893" data-name="그룹 2893" transform="translate(65.285 56.889)">
                <path id="패스_7200" data-name="패스 7200" class="cls-11" d="M338.909-431.555c-.037 3-2.048 5.4-4.493 5.355s-4.4-2.507-4.361-5.506 2.048-5.395 4.493-5.354 4.4 2.507 4.361 5.5" transform="translate(-330.054 437.06)"/>
            </g>
            <g id="그룹_2894" data-name="그룹 2894" transform="translate(67.007 58.947)">
                <path id="패스_7201" data-name="패스 7201" class="cls-16" d="M333.6-434.3a1.142 1.142 0 0 1-1.162 1.125 1.149 1.149 0 0 1-1.087-1.2 1.142 1.142 0 0 1 1.162-1.125 1.149 1.149 0 0 1 1.087 1.2" transform="translate(-331.353 435.508)"/>
            </g>
            <g id="그룹_2895" data-name="그룹 2895" transform="translate(40.708 62.041)">
                <path id="패스_7202" data-name="패스 7202" class="cls-9" d="M340.047-409.6a1.362 1.362 0 0 1 .818 1.694l-1.294 4.352c-.216.683-.921.856-1.634 1-6.622 1.351-31.038-5.036-24.617-29.869" transform="translate(-311.271 433.417)"/>
                <path id="패스_7203" data-name="패스 7203" class="cls-10" d="M336.266-401.16a27.974 27.974 0 0 1-18.965-8.189c-3.825-4.03-7.745-11.3-4.7-23.081a.993.993 0 0 1 1.209-.712.992.992 0 0 1 .713 1.209c-2.261 8.748-.842 15.888 4.219 21.216 6.013 6.333 15.579 8.181 19.238 7.432.273-.056.836-.17.887-.33l1.288-4.333a.372.372 0 0 0-.22-.484.994.994 0 0 1-.574-1.282.99.99 0 0 1 1.28-.574 2.364 2.364 0 0 1 1.412 2.923l-1.288 4.333a2.769 2.769 0 0 1-2.389 1.691 10.758 10.758 0 0 1-2.11.181z" transform="translate(-311.512 433.174)"/>
            </g>
            <g id="그룹_2896" data-name="그룹 2896" transform="translate(41.438 70.339)">
                <path id="패스_7204" data-name="패스 7204" class="cls-9" d="M318.969-426.461s-4.218-.559-6.634 1.778" transform="translate(-311.974 427.041)"/>
                <path id="패스_7205" data-name="패스 7205" class="cls-10" d="m312.785-424.181-.722-.748c2.568-2.484 6.881-1.942 7.064-1.919l-.137 1.031c-.04-.008-4.002-.495-6.205 1.636z" transform="translate(-312.063 426.913)"/>
            </g>
            <g id="그룹_2897" data-name="그룹 2897" transform="translate(40.869 69.929)">
                <path id="패스_7206" data-name="패스 7206" class="cls-10" d="M312.565-423.522a.931.931 0 0 1-.669-.284.933.933 0 0 1 .021-1.316c2.709-2.62 7.212-2.057 7.4-2.033a.932.932 0 0 1 .8 1.046.926.926 0 0 1-1.045.8c-.058-.007-3.813-.459-5.865 1.526a.925.925 0 0 1-.646.262" transform="translate(-311.634 427.222)"/>
            </g>
            <g id="그룹_2898" data-name="그룹 2898" transform="translate(43.465 76.508)">
                <path id="패스_7207" data-name="패스 7207" class="cls-9" d="M319.746-421.714a6.429 6.429 0 0 0-5.868 1.636" transform="translate(-313.499 422.388)"/>
                <path id="패스_7208" data-name="패스 7208" class="cls-10" d="m314.35-419.594-.758-.711a6.887 6.887 0 0 1 6.374-1.784l-.252 1.007a5.959 5.959 0 0 0-5.364 1.488z" transform="translate(-313.592 422.26)"/>
            </g>
            <g id="그룹_2899" data-name="그룹 2899" transform="translate(42.914 76.1)">
                <path id="패스_7209" data-name="패스 7209" class="cls-10" d="M314.106-418.919a.926.926 0 0 1-.636-.252.931.931 0 0 1-.042-1.315 7.325 7.325 0 0 1 6.775-1.9.93.93 0 0 1 .675 1.129.933.933 0 0 1-1.125.676 5.438 5.438 0 0 0-4.967 1.371.928.928 0 0 1-.679.293" transform="translate(-313.177 422.567)"/>
            </g>
            <g id="그룹_2900" data-name="그룹 2900" transform="translate(46.94 82.282)">
                <path id="패스_7210" data-name="패스 7210" class="cls-9" d="M321.585-417.434a6.193 6.193 0 0 0-5.1 1.494" transform="translate(-316.126 418.031)"/>
                <path id="패스_7211" data-name="패스 7211" class="cls-10" d="m316.928-415.435-.714-.754a6.676 6.676 0 0 1 5.56-1.626l-.2 1.019a5.718 5.718 0 0 0-4.646 1.361z" transform="translate(-316.214 417.903)"/>
            </g>
            <g id="그룹_2901" data-name="그룹 2901" transform="translate(46.366 81.873)">
                <path id="패스_7212" data-name="패스 7212" class="cls-10" d="M316.712-414.782a.927.927 0 0 1-.676-.29.93.93 0 0 1 .036-1.316 7.114 7.114 0 0 1 5.926-1.73.931.931 0 0 1 .728 1.1.928.928 0 0 1-1.091.729 5.217 5.217 0 0 0-4.284 1.257.921.921 0 0 1-.639.255" transform="translate(-315.78 418.212)"/>
            </g>
            <g id="그룹_2902" data-name="그룹 2902" transform="translate(61.425 68.446)">
                <path id="패스_7213" data-name="패스 7213" class="cls-9" d="M332.23-404.23c-.1 6.454 5.7 9.936 9.656 6.333 3.648-3.326-3.114-7.923-3.114-7.923s4.922-1.3 2.815-4.806-6.579-.325-6.579-.325-7.55-3.21-7.1-16.641" transform="translate(-326.898 428.585)"/>
                <path id="패스_7214" data-name="패스 7214" class="cls-10" d="M338.583-395.211a6.061 6.061 0 0 1-2.5-.547c-2.855-1.287-4.663-4.523-4.6-8.243a1.055 1.055 0 0 1 1.007-.977.994.994 0 0 1 .978 1.009c-.046 2.927 1.3 5.44 3.436 6.4a4.066 4.066 0 0 0 4.56-.819 1.946 1.946 0 0 0 .75-1.641c-.133-1.865-2.822-4.092-3.754-4.725a.991.991 0 0 1-.419-.986.993.993 0 0 1 .721-.794c.529-.143 2.123-.766 2.512-1.731.068-.164.27-.668-.292-1.605a2.191 2.191 0 0 0-1.454-1.115c-1.634-.343-3.677 1.074-3.7 1.088a1 1 0 0 1-.964.1c-.334-.143-8.172-3.639-7.7-17.588a.985.985 0 0 1 1.025-.958.991.991 0 0 1 .96 1.025c-.362 10.794 4.532 14.555 6.062 15.463a7.173 7.173 0 0 1 4.724-1.078 4.121 4.121 0 0 1 2.75 2.036 3.665 3.665 0 0 1 .43 3.379 4.682 4.682 0 0 1-2.147 2.2c1.314 1.148 3.079 3.061 3.228 5.14a3.93 3.93 0 0 1-1.394 3.249 6.236 6.236 0 0 1-4.219 1.718z" transform="translate(-327.142 428.341)"/>
            </g>
            <g id="그룹_2903" data-name="그룹 2903" transform="translate(88.333 25.258)">
                <path id="패스_7215" data-name="패스 7215" class="cls-9" d="M348.191-451.541s3.9-10.354 18.044-8.385c12.95 1.8 13.181 19.853 8.74 26.823a20.7 20.7 0 0 1 .142 19.352c-5.291 10.669-21.363 11.931-26.49-1.279" transform="translate(-347.198 461.167)"/>
                <path id="패스_7216" data-name="패스 7216" class="cls-10" d="M362.081-404.2c-.235 0-.468-.005-.7-.017-6.034-.272-11.056-4.089-13.431-10.212a.992.992 0 0 1 .566-1.284.992.992 0 0 1 1.284.566c2.114 5.447 6.368 8.709 11.671 8.947a13.864 13.864 0 0 0 13-7.75 19.542 19.542 0 0 0-.1-18.386 1 1 0 0 1 .005-1.059c2.614-4.1 3.538-12.555.745-18.6a10.92 10.92 0 0 0-8.786-6.7c-13.2-1.838-16.941 7.658-16.977 7.754a.991.991 0 0 1-1.279.578.993.993 0 0 1-.579-1.279c.042-.111 4.354-11.079 19.109-9.019a12.955 12.955 0 0 1 10.315 7.836c3.047 6.6 2.089 15.308-.562 19.985a21.7 21.7 0 0 1-.117 19.778 15.867 15.867 0 0 1-14.164 8.862z" transform="translate(-347.442 460.923)"/>
            </g>
            <g id="그룹_2904" data-name="그룹 2904" transform="translate(94.045 34.244)">
                <path id="패스_7217" data-name="패스 7217" class="cls-15" d="M352.135-448.383s2.7-7.123 11.751-5.529c8.291 1.461 8.111 13.995 5.13 18.76a15.372 15.372 0 0 1-.261 13.435c-3.595 7.321-13.948 7.936-17-1.316" transform="translate(-351.751 454.145)"/>
            </g>
            <g id="그룹_2905" data-name="그룹 2905" transform="translate(61.806 72.427)">
                <path id="패스_7218" data-name="패스 7218" class="cls-11" d="M329.008-421.837a3.975 3.975 0 0 1-.863-.078.931.931 0 0 1-.691-1.12.929.929 0 0 1 1.109-.693c.1.019 1.866.351 4.169-1.417a.931.931 0 0 1 1.306.171.931.931 0 0 1-.172 1.306 8.006 8.006 0 0 1-4.858 1.832" transform="translate(-327.429 425.339)"/>
            </g>
            <g id="그룹_2906" data-name="그룹 2906" transform="translate(25.555 67.227)">
                <path id="패스_7219" data-name="패스 7219" class="cls-15" d="M310.611-425.8c0 1.911-2.358 3.46-5.266 3.46s-5.265-1.548-5.265-3.46 2.358-3.458 5.265-3.458 5.266 1.548 5.266 3.458" transform="translate(-300.08 429.261)"/>
            </g>
            <g id="그룹_2907" data-name="그룹 2907" transform="translate(72.15 67.227)">
                <path id="패스_7220" data-name="패스 7220" class="cls-15" d="M345.764-425.8c0 1.911-2.357 3.46-5.265 3.46s-5.266-1.548-5.266-3.46 2.358-3.458 5.266-3.458 5.265 1.548 5.265 3.458" transform="translate(-335.233 429.261)"/>
            </g>
            <g id="그룹_2908" data-name="그룹 2908" transform="translate(19.143 1.878)">
                <path id="패스_7221" data-name="패스 7221" class="cls-12" d="M375.047-427.445c2.252-28.058-11.479-48.948-36.813-50.954-26.822-2.122-40.74 16.578-42.99 44.637l12.12-4.137 7.978 7.109 12.537-5.093 8.6 6.765 11.153-5.2 7.907 5.533 10.664-4.063z" transform="translate(-295.243 478.563)"/>
            </g>
            <g id="그룹_2909" data-name="그룹 2909" transform="translate(17.282)">
                <path id="패스_7222" data-name="패스 7222" class="cls-11" d="M334.209-478.118q2.177 0 4.482.182c25.333 2 39.064 22.894 36.813 50.953l-8.841-5.4L356-428.327l-7.907-5.531-11.153 5.2-8.6-6.765-12.54 5.094-7.978-7.109L295.7-433.3c2.122-26.452 14.612-44.82 38.509-44.818m0-1.861c-12.195 0-21.895 4.068-28.827 12.094-6.54 7.57-10.423 20.535-11.537 34.437a1.867 1.867 0 0 0 .713 1.617 1.864 1.864 0 0 0 1.143.392 1.855 1.855 0 0 0 .6-.1l11.092-3.787 7.168 6.386a1.858 1.858 0 0 0 1.237.472 1.847 1.847 0 0 0 .7-.138l11.535-4.684 7.753 6.1a1.856 1.856 0 0 0 1.152.4 1.838 1.838 0 0 0 .785-.175l10.18-4.747 7.027 4.916a1.863 1.863 0 0 0 1.067.335 1.883 1.883 0 0 0 .663-.121l9.81-3.738 8.063 4.928a1.873 1.873 0 0 0 .97.273 1.864 1.864 0 0 0 .844-.2 1.859 1.859 0 0 0 1.01-1.51c1.234-15.368-2.194-30.356-9.912-39.41-6.746-7.915-16.639-12.6-28.609-13.547a58.64 58.64 0 0 0-4.629-.187" transform="translate(-293.839 479.979)"/>
            </g>
            <g id="그룹_2917" data-name="그룹 2917" transform="translate(19.143 1.86)">
                <g id="그룹_2916" data-name="그룹 2916" style="clip-path:url(#clip-path-2)">
                    <g id="그룹_2910" data-name="그룹 2910" transform="translate(46.505 4.055)">
                        <path id="패스_7223" data-name="패스 7223" class="cls-14" d="M362.638-461.229c4.064 9.7.5 20.362-7.957 23.807s-18.61-1.628-22.674-11.33-.5-22.441 7.958-25.887 18.61 3.707 22.673 13.41" transform="translate(-330.327 475.517)"/>
                    </g>
                    <g id="그룹_2911" data-name="그룹 2911" transform="translate(6.735 36.538)">
                        <path id="패스_7224" data-name="패스 7224" class="cls-14" d="M318.373-438.178c-1.591 5.567-6.817 8.982-11.674 7.624s-7.5-6.968-5.913-12.535 6.816-8.982 11.672-7.624 7.5 6.968 5.914 12.535" transform="translate(-300.324 451.011)"/>
                    </g>
                    <g id="그룹_2912" data-name="그룹 2912" transform="translate(50.013 56.291)">
                        <path id="패스_7225" data-name="패스 7225" class="cls-14" d="M338.485-432.19a3.037 3.037 0 0 1-3.564 2.328 2.994 2.994 0 0 1-1.805-3.828 3.038 3.038 0 0 1 3.564-2.328 3 3 0 0 1 1.805 3.828" transform="translate(-332.974 436.108)"/>
                    </g>
                    <g id="그룹_2913" data-name="그룹 2913" transform="translate(19.859 -.572)">
                        <path id="패스_7226" data-name="패스 7226" class="cls-14" d="M321.867-470.608c-1.1 3.578-4.525 5.714-7.646 4.774s-4.755-4.6-3.653-8.178 4.525-5.713 7.646-4.774 4.756 4.6 3.653 8.178" transform="translate(-310.225 479.008)"/>
                    </g>
                    <g id="그룹_2914" data-name="그룹 2914" transform="translate(-5.548 69.997)">
                        <path id="패스_7227" data-name="패스 7227" class="cls-14" d="M316.226-412.448c.733 7.948-4.293 14.889-11.223 15.5s-13.142-5.329-13.874-13.276 4.293-14.889 11.223-15.5 13.142 5.329 13.874 13.276" transform="translate(-291.058 425.768)"/>
                    </g>
                    <g id="그룹_2915" data-name="그룹 2915" transform="translate(34.544 76.613)">
                        <path id="패스_7228" data-name="패스 7228" class="cls-14" d="M353.721-396.093c-3.884 9.777-13.946 15.021-22.475 11.712s-12.3-13.917-8.412-23.692 13.944-15.021 22.473-11.712 12.3 13.915 8.414 23.692" transform="translate(-321.304 420.777)"/>
                    </g>
                </g>
            </g>
        </g>
    </g>
</svg>
