<svg xmlns="http://www.w3.org/2000/svg" width="247" height="223">
    <defs>
        <clipPath id="clip-path">
            <path id="패스_7352" data-name="패스 7352" class="cls-1" d="M159.718-258.107c6.917.405 7.52-7.069 7.52-7.069a19.136 19.136 0 0 1-13.2-.7s-1.24 7.364 5.677 7.768" transform="translate(-153.954 265.875)"/>
        </clipPath>
        <style>
            .cls-1,.cls-17,.cls-20{fill:none}.cls-3{fill:#8cc7ea}.cls-4{fill:#36607b}.cls-5{fill:#e9f2f4}.cls-6{fill:#335d76}.cls-8{fill:#fff}.cls-11{fill:#7f482a}.cls-12{fill:#ffbfc5}.cls-15{fill:#f7f8f8}.cls-16{fill:#8bb3ff}.cls-17,.cls-20{stroke:#5d85d0;stroke-width:1.534px;stroke-linecap:round;stroke-linejoin:round}.cls-20{stroke:#e6fff3;stroke-width:1.942px}
        </style>
    </defs>
    <g id="그룹_4420" data-name="그룹 4420" transform="translate(-1538 -769)">
        <g id="그룹_4401" data-name="그룹 4401">
            <g id="타원_1275" data-name="타원 1275" transform="translate(1538 769)" style="stroke:#97efc3;stroke-width:12px;fill:none">
                <circle cx="111.5" cy="111.5" r="111.5" style="stroke:none"/>
                <circle class="cls-1" cx="111.5" cy="111.5" r="105.5"/>
            </g>
            <g id="그룹_3602" data-name="그룹 3602" transform="translate(1586.297 817.183)">
                <g id="그룹_2975" data-name="그룹 2975" transform="translate(23.996 70.971)">
                    <path id="패스_7302" data-name="패스 7302" class="cls-3" d="M144.924-254.029s-25.276 43.181-4.764 44.474l9.953-43.17z" transform="translate(-131.222 254.954)"/>
                    <path id="패스_7303" data-name="패스 7303" class="cls-4" d="M140.347-208.439h-.058c-3.624-.228-6.183-1.7-7.608-4.377-5.958-11.194 10.911-40.257 11.631-41.488a.927.927 0 0 1 1.025-.431l5.189 1.3a.927.927 0 0 1 .677 1.106l-9.953 43.17a.927.927 0 0 1-.903.72zm5.22-44.332c-2.393 4.237-16.288 29.621-11.251 39.083a6.445 6.445 0 0 0 5.311 3.326l9.568-41.5z" transform="translate(-131.41 254.764)"/>
                </g>
                <g id="그룹_2976" data-name="그룹 2976" transform="translate(24.385 70.699)">
                    <path id="패스_7304" data-name="패스 7304" class="cls-5" d="M143.682-254.244s-8.33 9.288-11.228 16.325c0 0 8.4 2.127 10.431 4.471l7.593-19.22z" transform="translate(-131.528 255.17)"/>
                    <path id="패스_7305" data-name="패스 7305" class="cls-4" d="M143.075-232.332a.923.923 0 0 1-.7-.32c-1.509-1.741-7.7-3.608-9.959-4.18a.921.921 0 0 1-.6-.481.923.923 0 0 1-.03-.769c2.924-7.1 11.049-16.206 11.394-16.59a.923.923 0 0 1 .9-.283l6.8 1.576a.926.926 0 0 1 .61.472.928.928 0 0 1 .042.769l-7.594 19.22a.923.923 0 0 1-.7.573.936.936 0 0 1-.163.013zm-9.149-6.012c2.054.573 6.391 1.908 8.762 3.545l6.724-17.019-5.211-1.208c-1.53 1.759-7.548 8.852-10.274 14.683z" transform="translate(-131.719 254.979)"/>
                </g>
                <g id="그룹_2977" data-name="그룹 2977" transform="translate(83.749 113.39)">
                    <path id="패스_7306" data-name="패스 7306" class="cls-3" d="M179.375-218.262a9.513 9.513 0 0 0 9.38 3.021s3.592 4.752 8.124 2.778 5.249-5.33 5.249-5.33c-9.707-6.455-13.151 1.848-13.151 1.848a10.408 10.408 0 0 1-8.045-4.412z" transform="translate(-178.752 221.247)"/>
                    <path id="패스_7307" data-name="패스 7307" class="cls-4" d="M194.786-211.31c-3.052 0-5.4-2.4-6.087-3.2a10.11 10.11 0 0 1-9.58-3.263l-.238-.3 2.227-3 .379.639a9.968 9.968 0 0 0 7.322 4.137 7.971 7.971 0 0 1 4.586-3.965c2.631-.8 5.706-.05 9.136 2.232l.279.185-.07.329c-.031.147-.827 3.628-5.535 5.679a6.022 6.022 0 0 1-2.419.527zm-5.42-3.935c.565.694 3.647 4.164 7.444 2.512a8.407 8.407 0 0 0 4.869-4.666c-3.047-1.956-5.736-2.6-8-1.91a7.127 7.127 0 0 0-4.121 3.735l-.137.334zm-9.228-2.861a8.928 8.928 0 0 0 7.935 2.715 11 11 0 0 1-7.023-3.942z" transform="translate(-178.88 221.064)"/>
                </g>
                <g id="그룹_2978" data-name="그룹 2978" transform="translate(82.624 112.53)">
                    <path id="패스_7308" data-name="패스 7308" class="cls-6" d="M181.292-220a10.4 10.4 0 0 0 8.045 4.412s1.786-4.306 6.411-4.306a12.385 12.385 0 0 1 6.741 2.457s-.719 3.357-5.249 5.331a5.563 5.563 0 0 1-2.242.481c-3.42 0-5.883-3.259-5.883-3.259a9.442 9.442 0 0 1-2.291.288 9.731 9.731 0 0 1-7.088-3.309l1.556-2.095m0-1.75a1.754 1.754 0 0 0-1.4.7l-1.557 2.095a1.751 1.751 0 0 0 .039 2.139 11.487 11.487 0 0 0 8.452 3.965 10.979 10.979 0 0 0 1.653-.127 9.551 9.551 0 0 0 6.522 3.1 7.318 7.318 0 0 0 2.939-.626c5.294-2.306 6.224-6.394 6.262-6.567a1.75 1.75 0 0 0-.743-1.824 14.2 14.2 0 0 0-7.709-2.749 8.654 8.654 0 0 0-7.36 4.163 8.585 8.585 0 0 1-5.585-3.4 1.745 1.745 0 0 0-1.414-.864h-.1" transform="translate(-177.986 221.747)"/>
                </g>
                <g id="그룹_2979" data-name="그룹 2979" transform="translate(93.852 114.293)">
                    <path id="패스_7309" data-name="패스 7309" d="M186.906-215.116s3.4 4.667 7.928 2.694 5.355-5.375 5.355-5.375c-9.707-6.454-12.893 1.381-12.893 1.381z" transform="translate(-186.906 220.346)" style="fill:#9ee630"/>
                </g>
                <g id="그룹_2980" data-name="그룹 2980" transform="translate(92.103 112.544)">
                    <path id="패스_7310" data-name="패스 7310" class="cls-6" d="M193.634-219.986c1.805 0 4.083.666 6.914 2.55 0 0-.824 3.4-5.356 5.372a5.571 5.571 0 0 1-2.256.487c-3.357 0-5.671-3.18-5.671-3.18l.389-1.3a6.64 6.64 0 0 1 5.979-3.929m0-1.75a8.371 8.371 0 0 0-7.6 5.021 1.359 1.359 0 0 0-.054.157l-.39 1.3a1.749 1.749 0 0 0 .261 1.532c.117.159 2.888 3.9 7.085 3.9a7.379 7.379 0 0 0 2.956-.632c5.267-2.295 6.314-6.392 6.355-6.566a1.749 1.749 0 0 0-.731-1.868 14.592 14.592 0 0 0-7.882-2.842" transform="translate(-185.516 221.736)"/>
                </g>
                <g id="그룹_2981" data-name="그룹 2981" transform="translate(93.405 117.122)">
                    <path id="패스_7311" data-name="패스 7311" class="cls-6" d="M190.035-214.985a5.182 5.182 0 0 1-3.211-.716.872.872 0 0 1-.033-1.235.875.875 0 0 1 1.218-.05c.739.457 5.939.327 8.053-.982a.875.875 0 0 1 1.2.283.873.873 0 0 1-.282 1.2 15.678 15.678 0 0 1-6.95 1.5" transform="translate(-186.551 218.099)"/>
                </g>
                <g id="그룹_2982" data-name="그룹 2982" transform="translate(31.462 87.721)">
                    <path id="패스_7312" data-name="패스 7312" class="cls-3" d="M180.855-190.155c4.953-.07 7.973-1.293 9.575-2.237a3.8 3.8 0 0 0 1.784-2.546 111.015 111.015 0 0 0-.88-43.9l-51.943-1.883c-1.519 8.036-3.384 28.655 4.68 46.26a3.733 3.733 0 0 0 1.872 1.865c1.9.843 5.885 1.765 12.718-.257a3.835 3.835 0 0 0 2.713-3.277l.234-2.2c.229-2.156 2.178-4.812 4.325-4.514l.093.013a3.846 3.846 0 0 1 3.2 2.8l1.463 6.417a3.816 3.816 0 0 0 2.533 2.653 25.175 25.175 0 0 0 7.632.8" transform="translate(-137.156 241.647)"/>
                    <path id="패스_7313" data-name="패스 7313" class="cls-4" d="M180.355-189.034a25.23 25.23 0 0 1-7.22-.847 4.71 4.71 0 0 1-3.153-3.294l-1.471-6.455a2.9 2.9 0 0 0-2.423-2.09 2.107 2.107 0 0 0-1.607.492 5.046 5.046 0 0 0-1.767 3.191l-.234 2.2a4.744 4.744 0 0 1-3.371 4.067c-6.861 2.029-11.05 1.236-13.357.215a4.663 4.663 0 0 1-2.338-2.327c-9.354-20.423-5.246-44.176-4.748-46.818a.934.934 0 0 1 .944-.753l51.943 1.884a.927.927 0 0 1 .871.728 112.092 112.092 0 0 1 .882 44.276 4.728 4.728 0 0 1-2.222 3.164c-1.765 1.038-4.937 2.291-10.031 2.365l-.698.002zm.685-.93zM165.782-203.6a3.35 3.35 0 0 1 .462.031 4.8 4.8 0 0 1 4.061 3.488l1.473 6.455a2.858 2.858 0 0 0 1.9 1.975 24.378 24.378 0 0 0 7.346.76c4.689-.068 7.547-1.184 9.118-2.11a2.869 2.869 0 0 0 1.344-1.927 110.068 110.068 0 0 0-.725-42.821l-50.419-1.829c-.826 4.874-3.759 26.342 4.751 44.921a2.805 2.805 0 0 0 1.406 1.4c1.655.735 5.425 1.672 12.081-.3a2.9 2.9 0 0 0 2.053-2.49l.234-2.2a6.946 6.946 0 0 1 2.47-4.452 3.966 3.966 0 0 1 2.445-.901z" transform="translate(-137.341 241.456)"/>
                </g>
                <g id="그룹_2983" data-name="그룹 2983" transform="translate(38.695 131.07)">
                    <path id="패스_7314" data-name="패스 7314" class="cls-8" d="M143.823-202.3s-.149-3.947 2.606-3.986 3.294 5.508 3.294 5.508a9.294 9.294 0 0 1-3.4-.456 7.059 7.059 0 0 1-2.495-1.066" transform="translate(-142.896 207.208)"/>
                    <path id="패스_7315" data-name="패스 7315" class="cls-4" d="M149.471-199.642a11.366 11.366 0 0 1-3.231-.512 7.529 7.529 0 0 1-2.871-1.288.918.918 0 0 1-.279-.629 6.035 6.035 0 0 1 1.252-3.98 3.1 3.1 0 0 1 2.264-.967c3.483-.047 4.164 5.688 4.227 6.344a.924.924 0 0 1-.816 1.008 5.067 5.067 0 0 1-.546.024zm-4.519-2.972a11.5 11.5 0 0 0 1.824.686 9.995 9.995 0 0 0 2.059.405c-.316-1.594-1.04-3.644-2.189-3.644h-.014a1.248 1.248 0 0 0-.947.386 3.759 3.759 0 0 0-.732 2.167z" transform="translate(-143.087 207.018)"/>
                </g>
                <g id="그룹_2984" data-name="그룹 2984" transform="translate(46.716 130.853)">
                    <path id="패스_7316" data-name="패스 7316" class="cls-8" d="M150.219-200.835a18.623 18.623 0 0 0 5.892-1.184s-.535-4.813-3.774-4.412c-2.5.312-2.118 5.6-2.118 5.6" transform="translate(-149.268 207.381)"/>
                    <path id="패스_7317" data-name="패스 7317" class="cls-4" d="M150.411-199.719a.924.924 0 0 1-.923-.858c-.047-.631-.355-6.173 2.927-6.582a3.5 3.5 0 0 1 2.656.721c1.76 1.39 2.117 4.193 2.152 4.508a.926.926 0 0 1-.593.968 19.386 19.386 0 0 1-6.217 1.244zm2.5-5.62a2.189 2.189 0 0 0-.267.018c-.988.123-1.3 2.188-1.328 3.7a18.475 18.475 0 0 0 3.936-.813 4.8 4.8 0 0 0-1.33-2.548 1.568 1.568 0 0 0-1.013-.358z" transform="translate(-149.459 207.19)"/>
                </g>
                <g id="그룹_2985" data-name="그룹 2985" transform="translate(66.079 132.27)">
                    <path id="패스_7318" data-name="패스 7318" class="cls-8" d="M171.8-199.594a18.485 18.485 0 0 1-3.77-.222 10.638 10.638 0 0 1-2.451-.841s.146-4.633 2.9-4.674 3.321 5.736 3.321 5.736" transform="translate(-164.652 206.255)"/>
                    <path id="패스_7319" data-name="패스 7319" class="cls-4" d="M171.242-198.458a20.439 20.439 0 0 1-3.172-.253 11.5 11.5 0 0 1-2.711-.924.923.923 0 0 1-.516-.86c.063-2.049.938-5.528 3.81-5.57h.043c3.468 0 4.146 5.9 4.213 6.571a.926.926 0 0 1-.215.689.929.929 0 0 1-.643.326c-.03 0-.326.021-.809.021zm-4.49-2.583a7.8 7.8 0 0 0 1.611.5 18.6 18.6 0 0 0 2.551.225c-.321-1.66-1.071-3.9-2.223-3.9h-.013c-1.341.021-1.787 2.116-1.926 3.175z" transform="translate(-164.842 206.065)"/>
                </g>
                <g id="그룹_2986" data-name="그룹 2986" transform="translate(74.985 132.349)">
                    <path id="패스_7320" data-name="패스 7320" class="cls-8" d="M172.674-199.5a24.728 24.728 0 0 0 5.984-1.072s-.6-5.07-3.84-4.669c-2.5.311-2.144 5.741-2.144 5.741" transform="translate(-171.726 206.192)"/>
                    <path id="패스_7321" data-name="패스 7321" class="cls-4" d="M172.865-198.389a.926.926 0 0 1-.924-.865c-.042-.644-.322-6.314 2.953-6.719a3.451 3.451 0 0 1 2.6.71c1.828 1.432 2.232 4.431 2.272 4.768a.927.927 0 0 1-.648.994 25.572 25.572 0 0 1-6.232 1.111zm2.5-5.763a2.078 2.078 0 0 0-.247.015c-.952.118-1.312 2.209-1.351 3.828a25.31 25.31 0 0 0 4.013-.734 5.243 5.243 0 0 0-1.434-2.764 1.533 1.533 0 0 0-.976-.345z" transform="translate(-171.917 206.002)"/>
                </g>
                <g id="그룹_2987" data-name="그룹 2987" transform="translate(33.173 115.423)">
                    <path id="패스_7322" data-name="패스 7322" class="cls-5" d="M139.792-218.713s-1.137 8.61.65 12.489c.082.176 24.052-7.739 24.052-7.739z" transform="translate(-138.51 219.64)"/>
                    <path id="패스_7323" data-name="패스 7323" class="cls-4" d="M140.447-205.194a.593.593 0 0 1-.656-.453c-1.877-4.076-.774-12.635-.726-13a.928.928 0 0 1 .376-.629.925.925 0 0 1 .716-.159l24.7 4.752a.925.925 0 0 1 .749.85.924.924 0 0 1-.633.938s-5.994 1.98-12 3.937c-8.794 2.869-11.54 3.764-12.526 3.764zm.346-12.231c-.21 2.136-.573 7.269.405 10.292 2.655-.787 12.05-3.848 19.813-6.4z" transform="translate(-138.7 219.449)"/>
                </g>
                <g id="그룹_2988" data-name="그룹 2988" transform="translate(58.566 114.628)">
                    <path id="패스_7324" data-name="패스 7324" class="cls-5" d="M189.876-219.345a95.149 95.149 0 0 1-2.9 13.226c-.113.379-27.37-7.573-27.37-7.573z" transform="translate(-158.683 220.271)"/>
                    <path id="패스_7325" data-name="패스 7325" class="cls-4" d="M187.211-205.085c-1.727 0-7.41-1.619-27.671-7.529a.925.925 0 0 1-.666-.935.926.926 0 0 1 .754-.863l30.267-5.653a.932.932 0 0 1 .808.238.926.926 0 0 1 .281.793 96.91 96.91 0 0 1-2.928 13.373c-.1.331-.173.576-.845.576zm-23.421-8.221c8.928 2.585 19.852 5.69 22.72 6.342a96.543 96.543 0 0 0 2.447-11.043z" transform="translate(-158.873 220.08)"/>
                </g>
                <g id="그룹_2989" data-name="그룹 2989" transform="translate(45.774 71.48)">
                    <path id="패스_7326" data-name="패스 7326" class="cls-3" d="m149.192-253.658 21.064-.3s-2.881 12.667-10.65 12.779-10.414-12.477-10.414-12.477" transform="translate(-148.587 254.462)"/>
                    <path id="패스_7327" data-name="패스 7327" class="cls-4" d="M159.627-240.585c-8 0-10.682-12.341-10.792-12.868l-.123-.587 22.289-.32-.138.61c-.121.534-3.06 13.048-11.124 13.164zm-9.685-12.485c.634 2.432 3.4 11.606 9.782 11.5 6.335-.091 9.324-9.3 10.016-11.783z" transform="translate(-148.711 254.359)"/>
                </g>
                <g id="그룹_2990" data-name="그룹 2990" transform="translate(30.357 70.314)">
                    <path id="패스_7328" data-name="패스 7328" d="M144.084-253.116s-11.424 25.834-4.878 48.873c0 0 6.73 5.482 56.607-1.776 0 0 1.869-18.8-7.089-48.531l-13.117 3.378-12.207 20.727-9.045-20.188z" transform="translate(-136.277 255.475)" style="fill:#e8deb7"/>
                    <path id="패스_7329" data-name="패스 7329" class="cls-4" d="M154.771-201.165c-13.054 0-15.79-2.028-15.963-2.17a.922.922 0 0 1-.306-.464c-6.563-23.093 4.806-49.238 4.922-49.5a.92.92 0 0 1 1.064-.525l10.268 2.482a.929.929 0 0 1 .628.521l8.311 18.553 11.3-19.182a.934.934 0 0 1 .568-.427l13.117-3.378a.929.929 0 0 1 1.118.629c8.907 29.565 7.142 48.7 7.123 48.89a.922.922 0 0 1-.788.823c-19.724 2.87-32.776 3.748-41.362 3.748zm-14.585-3.485c1.464.741 11.215 4.32 54.943-1.988.215-3.663.714-21.076-6.85-46.6L176.4-250.18l-12.015 20.394a.936.936 0 0 1-.85.454.926.926 0 0 1-.793-.545l-8.859-19.774-9.058-2.19c-1.732 4.268-10.225 26.933-4.639 47.19z" transform="translate(-136.463 255.285)"/>
                </g>
                <g id="그룹_2991" data-name="그룹 2991" transform="translate(44.28 76.953)">
                    <path id="패스_7330" data-name="패스 7330" class="cls-5" d="m148.4-246.99 4.125-2.113 4.644 4.993 3.975-.384 5.8-4.144 6.411.014s-6.934 20.222-12.842 20.915c0 0-9.3-9.535-12.115-19.281" transform="translate(-147.298 250.246)"/>
                    <path id="패스_7331" data-name="패스 7331" class="cls-4" d="m160.4-226.5-.318-.327c-.386-.4-9.49-9.813-12.341-19.67l-.213-.734 5.428-2.779 4.808 5.171 3.273-.316 5.844-4.173 8 .018-.419 1.224c-.729 2.126-7.306 20.793-13.61 21.535zm-10.658-19.785c2.621 8.106 9.672 16.024 11.319 17.8 3.648-1.169 8.571-11.645 11.219-18.979l-4.808-.011-5.763 4.116-4.677.452-4.477-4.815z" transform="translate(-147.524 250.011)"/>
                </g>
                <g id="그룹_2992" data-name="그룹 2992" transform="translate(46.663 78.939)">
                    <path id="패스_7332" data-name="패스 7332" d="M150.152-245.509s3.813 3.367 6.326 3.308l1.443 3-1.956 6.033 4.422 4.957 3.391-4.925-2.344-5.718 1.363-3.667s3.054-1.323 3.791-3.976l-2.563-.778s-.089 1.044-2.67 1.531l-4.912.1s-2.209 1.081-4-2.049z" transform="translate(-149.227 248.624)" style="fill:#722f23"/>
                    <path id="패스_7333" data-name="패스 7333" class="cls-4" d="M160.577-227.1a.927.927 0 0 1-.69-.308l-4.423-4.957a.929.929 0 0 1-.189-.9l1.84-5.679-1.046-2.174c-2.7-.352-5.953-3.162-6.34-3.5a.931.931 0 0 1-.312-.677.922.922 0 0 1 .287-.687l2.296-2.194a.913.913 0 0 1 .773-.247.929.929 0 0 1 .67.457c1.286 2.251 2.651 1.737 2.8 1.669a1.021 1.021 0 0 1 .371-.087l4.832-.1c1.29-.254 1.771-.652 1.864-.807a.925.925 0 0 1 .384-.566.924.924 0 0 1 .788-.118l2.563.777a.925.925 0 0 1 .623 1.133 7.793 7.793 0 0 1-3.945 4.4l-1.106 2.982 2.207 5.384a.926.926 0 0 1-.094.876l-3.39 4.923a.925.925 0 0 1-.7.4zm-3.377-6.1 3.284 3.681 2.438-3.542-2.154-5.254a.928.928 0 0 1-.011-.673l1.362-3.667a.929.929 0 0 1 .5-.527 7.008 7.008 0 0 0 2.919-2.536l-.889-.269a5.092 5.092 0 0 1-2.929 1.342 1.043 1.043 0 0 1-.154.015l-4.734.1a3.847 3.847 0 0 1-4.346-1.547l-.748.712c1.314 1.021 3.458 2.506 4.91 2.434a1.018 1.018 0 0 1 .856.524l1.443 3a.926.926 0 0 1 .047.686zm6.094-13.968zm0 0zm0 0zm0 0zm.026-.128z" transform="translate(-149.417 248.433)"/>
                </g>
                <g id="그룹_2993" data-name="그룹 2993" transform="translate(70.403 70.34)">
                    <path id="패스_7334" data-name="패스 7334" class="cls-11" d="m172.827-254.069 8.353-.461s-9.229 24.187 5.55 24.335l1.038 8.833s-16.532-1.741-18.439-15.911c-1.614-11.99 3.5-16.8 3.5-16.8" transform="translate(-168.086 255.455)"/>
                    <path id="패스_7335" data-name="패스 7335" class="cls-4" d="M187.959-220.247a.838.838 0 0 1-.1-.005c-.172-.018-17.278-1.986-19.26-16.707-1.658-12.319 3.56-17.385 3.783-17.595a.924.924 0 0 1 .583-.249l8.352-.461a.932.932 0 0 1 .8.379.923.923 0 0 1 .117.875c-.054.142-5.361 14.265-1.207 20.359 1.23 1.8 3.159 2.692 5.9 2.72a.926.926 0 0 1 .91.818l1.038 8.833a.927.927 0 0 1-.261.759.929.929 0 0 1-.655.274zm-14.513-32.729c-.9 1.067-4.341 5.87-3.008 15.77.746 5.538 3.9 9.758 9.385 12.541a27.3 27.3 0 0 0 7.074 2.387l-.8-6.834a8.215 8.215 0 0 1-6.595-3.5c-3.926-5.761-.746-16.88.539-20.729z" transform="translate(-168.277 255.265)"/>
                </g>
                <g id="그룹_2994" data-name="그룹 2994" transform="translate(30.04 72.23)">
                    <path id="패스_7336" data-name="패스 7336" class="cls-11" d="m142.947-253.027 8.459 1.6s-15.033 19.993-14.323 27.872c0 0-1.518-12.532 5.865-29.475" transform="translate(-136.018 253.953)"/>
                    <path id="패스_7337" data-name="패스 7337" class="cls-4" d="M137.273-222.437a.925.925 0 0 1-.918-.814c-.063-.521-1.464-12.976 5.935-29.956a.925.925 0 0 1 1.021-.54l8.459 1.6a.925.925 0 0 1 .691.575.923.923 0 0 1-.123.89c-.149.2-14.812 19.8-14.141 27.233a.926.926 0 0 1-.826 1 .842.842 0 0 1-.098.012zm6.422-29.353a70.24 70.24 0 0 0-5.356 20.466c3.206-7.37 9.342-16.111 11.641-19.275z" transform="translate(-136.211 253.763)"/>
                </g>
                <g id="그룹_2995" data-name="그룹 2995" transform="translate(40.282 72.343)">
                    <path id="패스_7338" data-name="패스 7338" class="cls-5" d="m145.092-252.142 1.41 9.709a.7.7 0 0 0 1.1.461l5.858-4.285a.7.7 0 0 1 .818 0l2.47.715a.7.7 0 0 0 1.057-.809l-2.9-5.306a.7.7 0 0 0-.583-.448l-8.479-.827a.7.7 0 0 0-.755.792" transform="translate(-144.158 253.864)"/>
                    <path id="패스_7339" data-name="패스 7339" class="cls-4" d="M147.384-240.72a1.627 1.627 0 0 1-.631-.127 1.609 1.609 0 0 1-.977-1.261l-1.411-9.709a1.607 1.607 0 0 1 .429-1.349 1.59 1.59 0 0 1 1.33-.5l8.48.827a1.617 1.617 0 0 1 1.332.972l2.869 5.26a.822.822 0 0 1 .054.117 1.612 1.612 0 0 1-.532 1.86 1.611 1.611 0 0 1-1.772.128l-2.346-.68a.954.954 0 0 1-.135-.05l-5.736 4.2a1.612 1.612 0 0 1-.954.312zm.224-1.655zm-1.368-9.418 1.313 9.039 5.55-4.058a1.618 1.618 0 0 1 1.743-.109l1.993.576-2.543-4.661z" transform="translate(-144.348 253.673)"/>
                </g>
                <g id="그룹_2996" data-name="그룹 2996" transform="translate(57.549 70.551)">
                    <path id="패스_7340" data-name="패스 7340" class="cls-5" d="m163.175-245.314 8.65 2.243a.7.7 0 0 0 .811-.39l3.428-9.93a.7.7 0 0 0-.716-.973l-11.859 2.523a.7.7 0 0 0-.52.34l-2.76 3.018a.705.705 0 0 0-.072.171l-1.312 2.855a.7.7 0 0 0 1.04.77l2.768-.543a.7.7 0 0 1 .542-.084" transform="translate(-157.875 255.286)"/>
                    <path id="패스_7341" data-name="패스 7341" class="cls-4" d="M172.192-241.934a1.6 1.6 0 0 1-.412-.054l-8.558-2.218a.87.87 0 0 1-.22.073l-2.635.517a1.61 1.61 0 0 1-1.641-.167 1.615 1.615 0 0 1-.605-1.723.915.915 0 0 1 .054-.149l1.286-2.8a1.509 1.509 0 0 1 .14-.308.994.994 0 0 1 .115-.156l2.709-2.962a1.632 1.632 0 0 1 1.149-.692l11.772-2.507a1.641 1.641 0 0 1 1.581.637 1.63 1.63 0 0 1 .174 1.619l-3.4 9.855a1.652 1.652 0 0 1-1.509 1.035zm.054-1.845zm-9.052-2.292a1.592 1.592 0 0 1 .4.05l8.445 2.19 3.222-9.345-11.37 2.423a.653.653 0 0 1-.053.064l-2.672 2.923-1.054 2.312 2.4-.471a1.654 1.654 0 0 1 .682-.147z" transform="translate(-158.065 255.097)"/>
                </g>
                <g id="그룹_2997" data-name="그룹 2997" transform="translate(0 .777)">
                    <path id="패스_7342" data-name="패스 7342" class="cls-3" d="M148.426-299.09s-4.134-12.26-20.735-10.539c-15.2 1.577-16.211 22.662-11.31 30.989a24.217 24.217 0 0 0-.958 22.611c5.742 12.684 24.467 14.819 31-.41" transform="translate(-112.152 310.718)"/>
                    <path id="패스_7343" data-name="패스 7343" class="cls-4" d="M131.388-244.642a18.3 18.3 0 0 1-16.614-10.816 25.114 25.114 0 0 1 .728-23.016c-2.929-5.492-3.72-15.707.106-23.28a14.923 14.923 0 0 1 12.182-8.6c17.13-1.777 21.666 11.035 21.708 11.165a.925.925 0 0 1-.579 1.171.927.927 0 0 1-1.174-.578c-.161-.472-4.136-11.531-19.764-9.916a13.211 13.211 0 0 0-10.721 7.6c-3.546 7.022-2.8 17.045.113 22a.928.928 0 0 1-.029.987 23.508 23.508 0 0 0-.884 21.712 16.472 16.472 0 0 0 15.089 9.728c6.3-.063 11.484-3.752 14.215-10.122a.923.923 0 0 1 1.216-.486.926.926 0 0 1 .485 1.216c-2.988 6.97-8.931 11.173-15.9 11.242z" transform="translate(-112.346 310.528)"/>
                </g>
                <g id="그룹_2998" data-name="그룹 2998" transform="translate(8.674 11.47)">
                    <path id="패스_7344" data-name="패스 7344" class="cls-12" d="M141.415-294.913s-2.857-8.437-13.5-6.943c-9.745 1.366-10.05 16.021-6.762 21.713a17.982 17.982 0 0 0-.244 15.712c3.9 8.7 15.97 9.846 19.917-.842" transform="translate(-119.237 302.034)"/>
                </g>
                <g id="그룹_2999" data-name="그룹 2999" transform="translate(21.303)">
                    <path id="패스_7345" data-name="패스 7345" class="cls-3" d="M165.058-236.683c28.322 1.338 38-10.315 40.993-18.775 2.234-6.316.86-10.883.86-10.883 1.266-36.141-23-43.541-37.322-44.042-13.31-.467-37.507 5.233-38.76 40.992a36.885 36.885 0 0 0-.77 9.56c.354 5.934 3.392 21.654 35 23.148" transform="translate(-129.079 311.336)"/>
                    <path id="패스_7346" data-name="패스 7346" class="cls-4" d="M169.639-235.462q-2.137 0-4.433-.107c-30.058-1.42-35.382-15.656-35.88-24.017a37.692 37.692 0 0 1 .772-9.738c.577-15.961 5.7-27.635 15.231-34.7 8.907-6.606 19.164-7.287 24.485-7.093 5.632.2 16.375 1.611 25.067 8.87 9.266 7.739 13.69 19.847 13.153 35.987a20.123 20.123 0 0 1-.916 11.3c-2.637 7.451-11 19.498-37.479 19.498zm-4.346-1.956c28.816 1.367 37.473-10.792 40.077-18.159a18.252 18.252 0 0 0 .845-10.31.951.951 0 0 1-.038-.3c.548-15.612-3.653-27.267-12.484-34.643-8.266-6.9-18.55-8.252-23.945-8.441-5.073-.174-14.861.458-23.317 6.729-9.072 6.728-13.946 17.956-14.487 33.371a.9.9 0 0 1-.024.181 36.314 36.314 0 0 0-.746 9.292c1.075 18.032 21.839 21.7 34.119 22.277z" transform="translate(-129.27 311.146)"/>
                </g>
                <g id="그룹_3000" data-name="그룹 3000" transform="translate(50.532 53.795)">
                    <path id="패스_7347" data-name="패스 7347" class="cls-6" d="M160.951-264.234c-5.9-.208-8.126-2.66-8.259-2.812a.824.824 0 0 1 .081-1.162.825.825 0 0 1 1.157.076c.072.079 4.412 4.584 17.51.636a.825.825 0 0 1 1.026.551.824.824 0 0 1-.55 1.026 34.186 34.186 0 0 1-10.965 1.685" transform="translate(-152.491 268.409)"/>
                </g>
                <g id="그룹_3001" data-name="그룹 3001" transform="translate(52.375 56.984)">
                    <path id="패스_7348" data-name="패스 7348" d="M154.041-265.875a19.136 19.136 0 0 0 13.2.7s-.6 7.474-7.52 7.07-5.677-7.769-5.677-7.769" transform="translate(-153.955 265.875)" style="fill:#cf7575"/>
                </g>
                <g id="그룹_3002" data-name="그룹 3002" transform="translate(50.732 55.339)">
                    <path id="패스_7349" data-name="패스 7349" class="cls-6" d="M154.378-265.537a18.762 18.762 0 0 0 6.961 1.548 18.235 18.235 0 0 0 6.236-.85s-.592 7.315-7.3 7.08c-.073 0-.146-.006-.22-.011-6.916-.4-5.677-7.768-5.677-7.768M154.441-267.18a1.643 1.643 0 0 0-.813.181 1.647 1.647 0 0 0-.87 1.189c-.029.169-.675 4.193 1.595 7.041a7.359 7.359 0 0 0 5.609 2.643c.087.006.172.01.258.013a7.941 7.941 0 0 0 7.667-4.306 11.957 11.957 0 0 0 1.323-4.2c.006-.055.013-.11.014-.164a1.645 1.645 0 0 0-1.577-1.7h-.069a1.668 1.668 0 0 0-.539.089 16.637 16.637 0 0 1-5.639.762 17.407 17.407 0 0 1-6.3-1.385 1.67 1.67 0 0 0-.661-.164" transform="translate(-152.649 267.182)"/>
                </g>
                <g id="그룹_3006" data-name="그룹 3006" transform="translate(52.374 56.984)">
                    <g id="그룹_3005" data-name="그룹 3005" style="clip-path:url(#clip-path)">
                        <g id="그룹_3003" data-name="그룹 3003" transform="translate(-.203 3.908)">
                            <path id="패스_7350" data-name="패스 7350" class="cls-12" d="M153.793-261.677a11.45 11.45 0 0 1 5.929-1.069 13.422 13.422 0 0 1 6.134 1.847 6.32 6.32 0 0 1-6.182 2.977 6.531 6.531 0 0 1-5.881-3.755" transform="translate(-153.793 262.77)"/>
                        </g>
                        <g id="그룹_3004" data-name="그룹 3004" transform="translate(-1.026 3.085)">
                            <path id="패스_7351" data-name="패스 7351" class="cls-6" d="M160.033-256.92c-.078 0-.159-.006-.239-.011a7.309 7.309 0 0 1-6.6-4.286.822.822 0 0 1 .361-1.006 12.237 12.237 0 0 1 6.384-1.176 14.193 14.193 0 0 1 6.542 1.982.823.823 0 0 1 .281 1.054 7.064 7.064 0 0 1-6.728 3.443m-4.923-4.193a5.912 5.912 0 0 0 4.781 2.538 5.758 5.758 0 0 0 4.937-1.876 13.289 13.289 0 0 0-4.986-1.3 11.81 11.81 0 0 0-4.732.642m-1.148-.4z" transform="translate(-153.14 263.424)"/>
                        </g>
                    </g>
                </g>
                <g id="그룹_3007" data-name="그룹 3007" transform="translate(66.987 39.688)">
                    <path id="패스_7353" data-name="패스 7353" class="cls-6" d="M173.592-274.923a4.261 4.261 0 0 1-4.227 4.281 4.288 4.288 0 0 1-3.8-4.689 4.258 4.258 0 0 1 4.228-4.28 4.286 4.286 0 0 1 3.8 4.688" transform="translate(-165.563 279.616)"/>
                </g>
                <g id="그룹_3008" data-name="그룹 3008" transform="translate(67.86 28.782)">
                    <path id="패스_7354" data-name="패스 7354" class="cls-6" d="M172.723-285.485a.9.9 0 0 1-.524-.193 3.99 3.99 0 0 0-2.189-.793 4.577 4.577 0 0 0-2.476.507.9.9 0 0 1-1.193-.431.9.9 0 0 1 .432-1.193 6.338 6.338 0 0 1 3.382-.671 5.748 5.748 0 0 1 3.156 1.172.9.9 0 0 1 .147 1.26.9.9 0 0 1-.735.341" transform="translate(-166.257 288.28)"/>
                </g>
                <g id="그룹_3009" data-name="그룹 3009" transform="translate(68.737 41.675)">
                    <path id="패스_7355" data-name="패스 7355" class="cls-15" d="M169.13-276.831a1.105 1.105 0 0 1-1.162 1.05 1.114 1.114 0 0 1-1.012-1.2 1.108 1.108 0 0 1 1.163-1.051 1.112 1.112 0 0 1 1.011 1.2" transform="translate(-166.954 278.037)"/>
                </g>
                <g id="그룹_3010" data-name="그룹 3010" transform="translate(38.439 37.97)">
                    <path id="패스_7356" data-name="패스 7356" class="cls-6" d="M151.455-275.5c-.137 2.9-2.166 5.155-4.531 5.031s-4.17-2.575-4.033-5.478 2.165-5.155 4.529-5.031 4.171 2.577 4.036 5.478" transform="translate(-142.883 280.981)"/>
                </g>
                <g id="그룹_3011" data-name="그룹 3011" transform="translate(39.282 27.781)">
                    <path id="패스_7357" data-name="패스 7357" class="cls-6" d="M150.019-286.283a.889.889 0 0 1-.524-.191 3.973 3.973 0 0 0-2.189-.792 4.572 4.572 0 0 0-2.475.506.9.9 0 0 1-1.193-.431.9.9 0 0 1 .43-1.193 6.353 6.353 0 0 1 3.382-.67 5.721 5.721 0 0 1 3.156 1.171.9.9 0 0 1 .149 1.26.891.891 0 0 1-.736.34" transform="translate(-143.553 289.075)"/>
                </g>
                <g id="그룹_3012" data-name="그룹 3012" transform="translate(40.183 39.911)">
                    <path id="패스_7358" data-name="패스 7358" class="cls-15" d="M146.445-278.234a1.106 1.106 0 0 1-1.162 1.051 1.114 1.114 0 0 1-1.012-1.2 1.106 1.106 0 0 1 1.163-1.05 1.112 1.112 0 0 1 1.011 1.2" transform="translate(-144.269 279.439)"/>
                </g>
                <g id="그룹_3013" data-name="그룹 3013" transform="translate(24.63 34.659)">
                    <path id="패스_7359" data-name="패스 7359" class="cls-3" d="M161.162-280.483s-10.688 16.258-22.251-1.78a1.32 1.32 0 0 0-1.769-.441l-3.868 2.088c-.6.342-.629 1.045-.626 1.75.03 6.548 19.477 29.669 39.4 13.411" transform="translate(-131.722 283.802)"/>
                    <path id="패스_7360" data-name="패스 7360" class="cls-4" d="M157.632-258.646a23.663 23.663 0 0 1-10.081-2.371c-9.043-4.266-15.617-13.506-15.637-17.654a2.626 2.626 0 0 1 1.1-2.559l3.883-2.1a2.251 2.251 0 0 1 2.987.755c3.421 5.336 7.044 8.055 10.766 8.08h.052c5.65 0 9.841-6.247 9.882-6.31a.926.926 0 0 1 1.281-.263.925.925 0 0 1 .266 1.28c-.193.293-4.774 7.145-11.428 7.145h-.055c-4.393-.025-8.538-3.031-12.321-8.932a.392.392 0 0 0-.535-.133l-3.882 2.1c-.132.076-.142.52-.141.932.015 3.134 5.7 11.8 14.576 15.987 5.574 2.629 14.142 4.193 23.312-3.289a.925.925 0 0 1 1.3.132.924.924 0 0 1-.132 1.3c-5.388 4.393-10.591 5.898-15.193 5.9z" transform="translate(-131.913 283.611)"/>
                </g>
                <g id="그룹_3014" data-name="그룹 3014" transform="translate(49.256 42.625)">
                    <path id="패스_7361" data-name="패스 7361" class="cls-3" d="M151.518-276.893s4.424.461 5.418 3.981" transform="translate(-151.466 277.384)"/>
                    <path id="패스_7362" data-name="패스 7362" class="cls-4" d="M156.47-272.677c-.887-3.151-4.953-3.62-4.993-3.625l.1-.981c.194.02 4.769.539 5.841 4.339z" transform="translate(-151.477 277.283)"/>
                </g>
                <g id="그룹_3015" data-name="그룹 3015" transform="translate(48.373 42.179)">
                    <path id="패스_7363" data-name="패스 7363" class="cls-4" d="M157.094-271.784a.933.933 0 0 1-.866-.681c-.806-2.856-4.579-3.3-4.617-3.307a.936.936 0 0 1-.829-1.03.936.936 0 0 1 1.026-.831c.206.021 5.069.574 6.221 4.659a.937.937 0 0 1-.647 1.156.934.934 0 0 1-.287.034" transform="translate(-150.776 277.637)"/>
                </g>
                <g id="그룹_3016" data-name="그룹 3016" transform="translate(44.279 44.255)">
                    <path id="패스_7364" data-name="패스 7364" class="cls-3" d="M147.664-275.622a6.558 6.558 0 0 1 3.472 4.465" transform="translate(-147.486 276.083)"/>
                    <path id="패스_7365" data-name="패스 7365" class="cls-4" d="M150.7-270.928a6.051 6.051 0 0 0-3.175-4.139l.354-.921a7.011 7.011 0 0 1 3.771 4.792z" transform="translate(-147.523 275.988)"/>
                </g>
                <g id="그룹_3017" data-name="그룹 3017" transform="translate(43.526 43.779)">
                    <path id="패스_7366" data-name="패스 7366" class="cls-4" d="M151.294-270.028a.935.935 0 0 1-.866-.682 5.668 5.668 0 0 0-2.914-3.849.938.938 0 0 1-.525-1.21.932.932 0 0 1 1.2-.535 7.47 7.47 0 0 1 4.038 5.087.934.934 0 0 1-.646 1.154.982.982 0 0 1-.287.035" transform="translate(-146.925 276.366)"/>
                </g>
                <g id="그룹_3018" data-name="그룹 3018" transform="translate(38.62 43.413)">
                    <path id="패스_7367" data-name="패스 7367" class="cls-3" d="M143.341-276.423a6.055 6.055 0 0 1 .734 5.487" transform="translate(-142.946 276.718)"/>
                    <path id="패스_7368" data-name="패스 7368" class="cls-4" d="m144.614-270.691-.916-.369a5.57 5.57 0 0 0-.671-5.009l.792-.589a6.51 6.51 0 0 1 .795 5.967z" transform="translate(-143.027 276.657)"/>
                </g>
                <g id="그룹_3019" data-name="그룹 3019" transform="translate(38.082 42.773)">
                    <path id="패스_7369" data-name="패스 7369" class="cls-4" d="M144.234-269.808a.98.98 0 0 1-.317-.068.934.934 0 0 1-.517-1.217 5.065 5.065 0 0 0-.619-4.583.938.938 0 0 1 .2-1.307.934.934 0 0 1 1.3.194 6.976 6.976 0 0 1 .85 6.394.937.937 0 0 1-.9.587" transform="translate(-142.6 277.165)"/>
                </g>
                <g id="그룹_3020" data-name="그룹 3020" transform="translate(16.162 28.877)">
                    <path id="패스_7370" data-name="패스 7370" class="cls-3" d="M140.427-281.078s2.132-4.873-1.61-6.174-4 3.621-4 3.621-5.7-5.5-8.126-1.383c-2.632 4.461 1.816 9.276 7.915 7.9" transform="translate(-124.996 288.395)"/>
                    <path id="패스_7371" data-name="패스 7371" class="cls-4" d="M132.735-275.761a7.807 7.807 0 0 1-6.423-2.977 5.825 5.825 0 0 1-.227-6.557 3.779 3.779 0 0 1 2.779-1.949c2.006-.273 4.184 1.049 5.525 2.068a4.525 4.525 0 0 1 1.667-2.5 3.508 3.508 0 0 1 3.256-.258 3.961 3.961 0 0 1 2.453 2.184c.983 2.252-.247 5.114-.3 5.235a.925.925 0 0 1-1.216.477.927.927 0 0 1-.481-1.218 5.563 5.563 0 0 0 .3-3.757 2.151 2.151 0 0 0-1.362-1.172c-1.02-.356-1.468-.053-1.615.047-.857.575-1.129 2.218-1.157 2.749a.926.926 0 0 1-.585.812.921.921 0 0 1-.982-.2c-.847-.816-3.43-2.89-5.254-2.633a1.917 1.917 0 0 0-1.431 1.055 3.97 3.97 0 0 0 .128 4.525c1.343 1.844 4 2.628 6.785 2.005a.926.926 0 0 1 1.106.7.924.924 0 0 1-.7 1.106 10.386 10.386 0 0 1-2.266.258z" transform="translate(-125.186 288.205)"/>
                </g>
                <g id="그룹_3021" data-name="그룹 3021" transform="translate(89.528 5.052)">
                    <path id="패스_7372" data-name="패스 7372" class="cls-3" d="M185.192-296.889s4.981-11.94 21.421-9.062c15.055 2.636 14.586 23.741 9.113 31.7a24.222 24.222 0 0 1-.627 22.622c-6.617 12.251-25.444 13.07-30.893-2.579" transform="translate(-183.28 307.322)"/>
                    <path id="패스_7373" data-name="패스 7373" class="cls-4" d="M200.031-241.325q-.716 0-1.437-.057c-6.944-.558-12.577-5.166-15.071-12.328a.924.924 0 0 1 .57-1.178.924.924 0 0 1 1.178.569c2.278 6.544 7.189 10.587 13.47 11.092a16.459 16.459 0 0 0 15.734-8.648 23.521 23.521 0 0 0 .639-21.721.926.926 0 0 1 .039-.986c3.258-4.74 4.7-14.687 1.653-21.94a13.2 13.2 0 0 0-10.162-8.328c-15.476-2.708-20.215 8.047-20.409 8.507a.927.927 0 0 1-1.211.495.925.925 0 0 1-.5-1.208c.053-.126 5.454-12.591 22.436-9.618a14.92 14.92 0 0 1 11.55 9.436c3.287 7.824 1.782 17.958-1.524 23.233a25.12 25.12 0 0 1-.885 23.011 18.325 18.325 0 0 1-16.07 9.669z" transform="translate(-183.471 307.132)"/>
                </g>
                <g id="그룹_3022" data-name="그룹 3022" transform="translate(95.704 15.312)">
                    <path id="패스_7374" data-name="패스 7374" class="cls-12" d="M189.865-292.616s3.44-8.215 13.952-5.98c9.627 2.045 8.9 16.686 5.225 22.132a17.982 17.982 0 0 1-.856 15.691c-4.5 8.407-16.619 8.7-19.809-2.234" transform="translate(-188.377 298.981)"/>
                </g>
                <g id="그룹_3023" data-name="그룹 3023" transform="translate(83.667 54.317)">
                    <path id="패스_7375" data-name="패스 7375" class="cls-3" d="M179.55-249.958s4.608 1.689 7.76-.089a11.063 11.063 0 0 0 5.464-8.457c.336-3.376.694-5.307 3.1-5.436s2.382 4.973 2.382 4.973-.626-9.692 9.556-8.116c11.081 1.714 8.294 37.327-21.932 38.146" transform="translate(-178.624 268.184)"/>
                    <path id="패스_7376" data-name="패스 7376" class="cls-4" d="M186.069-227.821a.927.927 0 0 1-.925-.9.928.928 0 0 1 .9-.952c17.463-.473 26.21-13.212 26.946-24.846.393-6.219-1.716-10.932-5.129-11.461-2.812-.434-4.962.006-6.394 1.31-1.907 1.737-2.093 4.592-2.1 5.527.006.181.006.311.006.369a.927.927 0 0 1-.9.921.913.913 0 0 1-.952-.866c0-.033-.01-.191-.009-.447-.052-1.226-.354-2.915-.959-3.49a.561.561 0 0 0-.439-.171c-1.464.079-1.86.9-2.229 4.6a12.025 12.025 0 0 1-5.931 9.171c-3.483 1.966-8.329.228-8.533.152a.924.924 0 0 1-.551-1.186.926.926 0 0 1 1.187-.553c.042.016 4.252 1.517 6.987-.026a10.142 10.142 0 0 0 5-7.741c.3-2.993.607-6.089 3.971-6.271a2.393 2.393 0 0 1 1.818.68 3.244 3.244 0 0 1 .517.648 7.666 7.666 0 0 1 1.86-2.68c1.867-1.708 4.538-2.307 7.934-1.781 4.469.691 7.158 6.078 6.694 13.407-.788 12.448-10.118 26.076-28.742 26.581z" transform="translate(-178.814 267.994)"/>
                </g>
                <g id="그룹_3024" data-name="그룹 3024" transform="translate(80.059 68.579)">
                    <path id="패스_7377" data-name="패스 7377" class="cls-5" d="M180.223-253.188s7.639 2.444 10.889-2.739c0 0 9.04 15.719 15.714 17.437 0 0-12.353 11.343-26.441 8.559 0 0-8.264-10.918-.162-23.258" transform="translate(-175.763 256.854)"/>
                    <path id="패스_7378" data-name="패스 7378" class="cls-4" d="M185.163-228.369a24.628 24.628 0 0 1-4.773-.462.927.927 0 0 1-.559-.35c-.086-.115-8.561-11.587-.2-24.324a.927.927 0 0 1 1.055-.374c.069.021 7 2.156 9.824-2.35a.851.851 0 0 1 .8-.434.924.924 0 0 1 .784.464c2.462 4.278 9.981 15.674 15.143 17a.928.928 0 0 1 .668.672.927.927 0 0 1-.272.906c-.456.421-10.226 9.252-22.47 9.252zm-4.056-2.21c10.892 1.961 20.793-4.827 24.106-7.43-5.6-2.833-11.915-12.633-14.012-16.078-3.209 3.484-8.481 2.619-10.38 2.163a19.485 19.485 0 0 0 .286 21.345z" transform="translate(-175.948 256.664)"/>
                </g>
            </g>
        </g>
        <g id="그룹_4409" data-name="그룹 4409" transform="translate(5)">
            <g id="그룹_4408" data-name="그룹 4408" transform="translate(2026.883 423.301)">
                <g id="그룹_2595" data-name="그룹 2595" transform="translate(-341.734 372.049)">
                    <path id="패스_6380" data-name="패스 6380" class="cls-16" d="m-324.807 382.744-.55-.549-4.406-4.406-.549-.55-1.353-1.353a5.1 5.1 0 0 0-7.205 0l-12.534 12.534a1.491 1.491 0 0 0 0 2.107 6.3 6.3 0 0 0 8.9 0l.5-.5.505.505a6.3 6.3 0 0 0 8.9 0l.5-.5.5.5a6.3 6.3 0 0 0 8.9 0l2.828-2.827z" transform="translate(351.841 -374.394)"/>
                    <path id="선_424" data-name="선 424" class="cls-17" transform="translate(10.618 9.767)" d="M0 5.088 5.088 0"/>
                    <path id="선_425" data-name="선 425" class="cls-17" transform="translate(20.65 13.255)" d="M0 1.48 1.48 0"/>
                </g>
                <g id="그룹_2596" data-name="그룹 2596" transform="translate(-278.873 372.476)">
                    <path id="패스_6381" data-name="패스 6381" class="cls-16" d="m-289.5 382.744.549-.549 4.406-4.406.55-.55 1.353-1.353a5.094 5.094 0 0 1 7.2 0l12.542 12.534a1.489 1.489 0 0 1 0 2.107 6.3 6.3 0 0 1-8.9 0l-.5-.5-.5.505a6.3 6.3 0 0 1-8.9 0l-.5-.5-.5.5a6.3 6.3 0 0 1-8.9 0l-2.827-2.827z" transform="translate(294.455 -374.394)"/>
                    <path id="선_426" data-name="선 426" class="cls-17" transform="translate(16.284 9.767)" d="M5.088 5.088 0 0"/>
                    <path id="선_427" data-name="선 427" class="cls-17" transform="translate(9.86 13.255)" d="M1.48 1.48 0 0"/>
                </g>
                <path id="패스_6382" data-name="패스 6382" d="M-328.358 371.79v17.125a44.392 44.392 0 0 0 22.2 38.445l2.236 1.291a6.239 6.239 0 0 0 6.24 0l2.236-1.291a44.391 44.391 0 0 0 22.2-38.445V371.79a3.6 3.6 0 0 0-2.27-3.342l-21.851-8.672a9.307 9.307 0 0 0-6.862 0l-21.851 8.672a3.6 3.6 0 0 0-2.278 3.342z" transform="translate(6.693 -.422)" style="fill:#97efc3"/>
                <g id="그룹_2597" data-name="그룹 2597" transform="translate(-318.655 365.967)">
                    <path id="패스_6383" data-name="패스 6383" d="M-302.9 421.707a39.13 39.13 0 0 1-19.511-33.794v-14.694l20.231-8.029 20.231 8.029v14.694a39.133 39.133 0 0 1-19.511 33.794l-.72.415z" transform="translate(326.523 -365.19)" style="stroke:#52d192;stroke-width:2.167px;stroke-linecap:round;stroke-linejoin:round;fill:none"/>
                    <path id="패스_6384" data-name="패스 6384" class="cls-20" d="M-325.844 374.813V372.6a3.545 3.545 0 0 1 2.237-3.3l3.02-1.2" transform="translate(325.845 -364.615)"/>
                    <path id="선_428" data-name="선 428" class="cls-20" transform="translate(0 14.356)" d="M0 .764V0"/>
                </g>
            </g>
            <text id="LV.5" transform="translate(1715.574 819)" style="fill:#35a36d;font-size:20px;font-family:BMJUA,BM JUA_TTF;letter-spacing:-.06em"><tspan x="0" y="0">LV.5</tspan></text>
        </g>
    </g>
</svg>
