<svg xmlns="http://www.w3.org/2000/svg" width="247" height="223">
    <defs>
        <clipPath id="clip-path">
            <path id="사각형_1602" data-name="사각형 1602" class="cls-1" d="M.138 0h5.269a.138.138 0 0 1 .138.138v6.754a.139.139 0 0 1-.139.139H.139A.139.139 0 0 1 0 6.892V.138A.138.138 0 0 1 .138 0z"/>
        </clipPath>
        <clipPath id="clip-path-2">
            <path id="패스_7532" data-name="패스 7532" class="cls-1" d="M494.9-227.876c.357.008.375-.378.375-.378a.99.99 0 0 1-.682-.013s-.05.383.307.391" transform="translate(-494.587 228.267)"/>
        </clipPath>
        <clipPath id="clip-path-4">
            <path id="패스_7587" data-name="패스 7587" class="cls-1" d="M497.469-258.582c7.066.165 7.414-7.475 7.414-7.475a19.515 19.515 0 0 1-13.477-.242s-1 7.552 6.063 7.717" transform="translate(-491.357 266.299)"/>
        </clipPath>
        <style>
            .cls-1,.cls-19,.cls-23{fill:none}.cls-2{fill:#393a3a}.cls-3{fill:#36607b}.cls-4{fill:#8cc7ea}.cls-5{fill:#335d76}.cls-6{fill:#9ee630}.cls-7{fill:#fff}.cls-9{clip-path:url(#clip-path)}.cls-10{fill:#ffbfc5}.cls-11{fill:#cf7575}.cls-13{fill:#f7f8f8}.cls-15{fill:#f2ebdd}.cls-17{fill:#cbddff}.cls-19,.cls-23{stroke-linecap:round;stroke-linejoin:round}.cls-19{stroke-width:1.534px;stroke:#5d85d0}.cls-23{stroke:#e6fff3;stroke-width:1.942px}
        </style>
    </defs>
    <g id="그룹_4422" data-name="그룹 4422" transform="translate(-2296.574 -769)">
        <g id="그룹_4403" data-name="그룹 4403">
            <g id="그룹_3598" data-name="그룹 3598" transform="translate(2344 815.385)">
                <g id="그룹_3093" data-name="그룹 3093" transform="translate(17.783 99.993)">
                    <g id="그룹_3091" data-name="그룹 3091" transform="translate(.848 .849)">
                        <path id="패스_7466" data-name="패스 7466" class="cls-2" d="m479.146-231.233-16.519 3.122s-2.07-.114-1.858 7.3a44.3 44.3 0 0 0 3.6 14.834s-.212 2.732 5.718 1.562 15.248-3.318 15.248-3.318z" transform="translate(-460.755 231.233)"/>
                    </g>
                    <g id="그룹_3092" data-name="그룹 3092">
                        <path id="패스_7467" data-name="패스 7467" class="cls-3" d="M467.619-203.15a4.631 4.631 0 0 1-3.149-.924 2.391 2.391 0 0 1-.818-1.578 44.5 44.5 0 0 1-3.606-15.008c-.114-3.969.4-6.535 1.517-7.626a1.793 1.793 0 0 1 1.086-.545l16.464-3.113a.849.849 0 0 1 .978.618l6.19 23.5a.849.849 0 0 1-.094.655.852.852 0 0 1-.536.389c-.094.021-9.4 2.163-15.275 3.323a14.386 14.386 0 0 1-2.757.309zm-2.28-2.634a.738.738 0 0 0 .293.471c.316.258 1.381.792 4.415.193 4.807-.95 11.931-2.56 14.368-3.117l-5.765-21.892-15.741 2.977-.073.009c-.139.09-1.251.991-1.1 6.435.2 7.151 3.489 14.434 3.523 14.507a.854.854 0 0 1 .074.418zm-2.625-21.355zm0 0zm0 0zm0 0z" transform="translate(-460.031 231.958)"/>
                    </g>
                </g>
                <g id="그룹_3096" data-name="그룹 3096" transform="translate(84.027 121.242)">
                    <g id="그룹_3094" data-name="그룹 3094" transform="translate(.58 .827)">
                        <path id="패스_7468" data-name="패스 7468" class="cls-4" d="M517.086-211.208a8.725 8.725 0 0 0 8.561 2.894s3.233 4.4 7.414 2.654 4.884-4.818 4.884-4.818c-8.817-6.047-12.084 1.523-12.084 1.523a9.546 9.546 0 0 1-7.319-4.153z" transform="translate(-517.086 213.109)"/>
                    </g>
                    <g id="그룹_3095" data-name="그룹 3095">
                        <path id="패스_7469" data-name="패스 7469" class="cls-3" d="M531.173-204.671c-2.837 0-4.986-2.264-5.62-3.013a9.286 9.286 0 0 1-8.744-3.121l-.218-.279 2.092-2.73.343.6a9.131 9.131 0 0 0 6.651 3.887 7.321 7.321 0 0 1 4.258-3.576c2.427-.7 5.238.029 8.354 2.167l.258.177-.07.3c-.03.135-.806 3.32-5.154 5.14a5.538 5.538 0 0 1-2.15.448zm-4.982-3.679c.533.669 3.3 3.842 6.778 2.388a7.707 7.707 0 0 0 4.522-4.207c-2.762-1.826-5.214-2.45-7.29-1.855a6.567 6.567 0 0 0-3.835 3.372l-.134.306zm-8.428-2.755a8.172 8.172 0 0 0 7.191 2.6 10.1 10.1 0 0 1-6.348-3.7z" transform="translate(-516.591 213.815)"/>
                    </g>
                </g>
                <g id="그룹_3098" data-name="그룹 3098" transform="translate(83.133 120.595)">
                    <g id="그룹_3097" data-name="그룹 3097">
                        <path id="패스_7470" data-name="패스 7470" class="cls-5" d="M518.757-212.894a9.543 9.543 0 0 0 7.319 4.152 6.672 6.672 0 0 1 5.839-3.864 11.236 11.236 0 0 1 6.246 2.342s-.7 3.069-4.885 4.818a5.1 5.1 0 0 1-1.99.411c-3.173 0-5.423-3.065-5.423-3.065a8.685 8.685 0 0 1-1.986.235 8.909 8.909 0 0 1-6.575-3.129l1.456-1.9m0-1.473a1.476 1.476 0 0 0-1.17.577l-1.456 1.9a1.473 1.473 0 0 0 .007 1.8 10.383 10.383 0 0 0 7.738 3.7 9.937 9.937 0 0 0 1.423-.1 8.622 8.622 0 0 0 5.986 2.934 6.593 6.593 0 0 0 2.559-.526c4.824-2.018 5.717-5.693 5.752-5.849a1.472 1.472 0 0 0-.6-1.544 12.788 12.788 0 0 0-7.08-2.6 7.839 7.839 0 0 0-6.624 3.736 8.537 8.537 0 0 1-3.908-1.806 6.353 6.353 0 0 1-1.342-1.471 1.473 1.473 0 0 0-1.179-.743 1.019 1.019 0 0 0-.1 0" transform="translate(-515.828 214.367)"/>
                    </g>
                </g>
                <g id="그룹_3100" data-name="그룹 3100" transform="translate(93.258 122.269)">
                    <g id="그룹_3099" data-name="그룹 3099">
                        <path id="패스_7471" data-name="패스 7471" class="cls-6" d="M524.473-208.225s3.053 4.325 7.234 2.574 4.981-4.857 4.981-4.857c-8.817-6.047-11.841 1.1-11.841 1.1" transform="translate(-524.473 212.938)"/>
                    </g>
                </g>
                <g id="그룹_3102" data-name="그룹 3102" transform="translate(92.734 121.743)">
                    <g id="그룹_3101" data-name="그룹 3101">
                        <path id="패스_7472" data-name="패스 7472" class="cls-5" d="M529.793-204.634c-3.358 0-5.645-3.173-5.672-3.211a.524.524 0 0 1 .126-.73.527.527 0 0 1 .73.125c.115.162 2.867 3.959 6.6 2.394a8.033 8.033 0 0 0 4.557-4.166c-2.813-1.854-5.267-2.493-7.3-1.906a5.806 5.806 0 0 0-3.432 3 .525.525 0 0 1-.687.276.523.523 0 0 1-.276-.686 6.776 6.776 0 0 1 4.089-3.59c2.435-.712 5.3.05 8.531 2.266a.522.522 0 0 1 .211.562c-.035.137-.915 3.38-5.286 5.211a5.662 5.662 0 0 1-2.194.456" transform="translate(-524.025 213.387)"/>
                    </g>
                </g>
                <g id="그룹_3104" data-name="그룹 3104" transform="translate(92.896 124.944)">
                    <g id="그룹_3103" data-name="그룹 3103">
                        <path id="패스_7473" data-name="패스 7473" class="cls-5" d="M527.5-207.956a4.987 4.987 0 0 1-3.1-.695.763.763 0 0 1-.013-1.079.763.763 0 0 1 1.067-.023c.658.443 5.451.4 7.442-.793a.764.764 0 0 1 1.047.261.762.762 0 0 1-.262 1.046 14.165 14.165 0 0 1-6.176 1.282" transform="translate(-524.164 210.654)"/>
                    </g>
                </g>
                <g id="그룹_3107" data-name="그룹 3107" transform="translate(35.049 82.726)">
                    <g id="그룹_3105" data-name="그룹 3105" transform="translate(.82 .835)">
                        <path id="패스_7474" data-name="패스 7474" class="cls-4" d="M523.252-245.953s10.287 33.43 3.9 53.844c-.438 1.4-3.2 2.334-4.646 2.579a66.068 66.068 0 0 1-8.85.96 15.358 15.358 0 0 1-4.479-.714 4.244 4.244 0 0 1-2.847-3.036c-.369-1.482-.85-3.367-1.143-4.35a2.893 2.893 0 0 0-2.6-2.355 2.894 2.894 0 0 0-2.6 2.355c-.293.983-.773 2.868-1.143 4.35a4.242 4.242 0 0 1-2.846 3.036 15.366 15.366 0 0 1-4.48.714 88.371 88.371 0 0 1-10.261-.96c-1.45-.245-2.092-1.175-2.529-2.579-8.461-27.167 2.205-53.34 2.205-53.34s42.114-.7 42.311-.5" transform="translate(-475.473 245.988)"/>
                    </g>
                    <g id="그룹_3106" data-name="그룹 3106">
                        <path id="패스_7475" data-name="패스 7475" class="cls-3" d="M513.78-187.6a16.039 16.039 0 0 1-4.729-.752 5.116 5.116 0 0 1-3.419-3.64c-.355-1.425-.84-3.33-1.134-4.315-.156-.526-.642-1.749-1.785-1.749s-1.629 1.223-1.786 1.749c-.293.987-.778 2.891-1.133 4.315a5.118 5.118 0 0 1-3.419 3.64 16.041 16.041 0 0 1-4.73.752 88.8 88.8 0 0 1-10.4-.971 3.981 3.981 0 0 1-3.2-3.165c-8.454-27.143 2.122-53.647 2.229-53.912l.212-.519.56-.009c42.472-.707 42.578-.6 42.923-.256l.15.149.062.2c.423 1.375 10.291 33.917 3.9 54.347-.738 2.363-5.268 3.154-5.314 3.162a67.827 67.827 0 0 1-8.987.974zm-11.067-12.151c1.586 0 2.86 1.107 3.412 2.962.3 1.014.793 2.946 1.152 4.386a3.412 3.412 0 0 0 2.275 2.43 14.357 14.357 0 0 0 4.228.677 66.008 66.008 0 0 0 8.709-.949c1.671-.282 3.727-1.2 3.976-1.995 5.782-18.491-2.436-48.3-3.736-52.775-3.754-.046-25.831.272-41.08.525-1.409 3.8-9.605 27.774-1.983 52.25.408 1.309.894 1.832 1.859 1.995a88.145 88.145 0 0 0 10.12.949 14.351 14.351 0 0 0 4.228-.677 3.413 3.413 0 0 0 2.276-2.43c.358-1.439.849-3.37 1.152-4.387a3.65 3.65 0 0 1 3.412-2.961z" transform="translate(-474.773 246.701)"/>
                    </g>
                </g>
                <g id="그룹_3110" data-name="그룹 3110" transform="translate(40.726 133.837)">
                    <g id="그룹_3108" data-name="그룹 3108" transform="translate(.873 .848)">
                        <path id="패스_7476" data-name="패스 7476" class="cls-7" d="M480.365-197.728s.211-4.609 2.951-4.609 3.222 5.754 3.222 5.754a18.489 18.489 0 0 1-3.748-.274 10.52 10.52 0 0 1-2.426-.871" transform="translate(-480.365 202.337)"/>
                    </g>
                    <g id="그룹_3109" data-name="그룹 3109">
                        <path id="패스_7477" data-name="패스 7477" class="cls-3" d="M486.162-195.6a20.179 20.179 0 0 1-3.391-.3 11.3 11.3 0 0 1-2.664-.951l-.487-.248.025-.547c.093-2.011 1-5.417 3.8-5.417 3.422 0 4.011 5.863 4.066 6.532l.073.871-.873.046c-.024.003-.22.014-.549.014zm-4.763-2.518a7.947 7.947 0 0 0 1.664.549 18.681 18.681 0 0 0 2.638.265c-.288-1.718-1.022-4.061-2.257-4.061-1.425 0-1.9 2.192-2.044 3.246z" transform="translate(-479.62 203.061)"/>
                    </g>
                </g>
                <g id="그룹_3113" data-name="그룹 3113" transform="translate(49.749 133.837)">
                    <g id="그룹_3111" data-name="그룹 3111" transform="translate(.919 .848)">
                        <path id="패스_7478" data-name="패스 7478" class="cls-7" d="M494.281-197.728s-.21-4.609-2.951-4.609-3.221 5.754-3.221 5.754a18.48 18.48 0 0 0 3.747-.274 10.52 10.52 0 0 0 2.426-.871" transform="translate(-488.109 202.337)"/>
                    </g>
                    <g id="그룹_3112" data-name="그룹 3112">
                        <path id="패스_7479" data-name="패스 7479" class="cls-3" d="M488.746-195.6c-.328 0-.525-.011-.548-.012l-.874-.046.074-.871c.055-.669.644-6.532 4.066-6.532 2.8 0 3.708 3.406 3.8 5.417l.025.547-.486.248a11.316 11.316 0 0 1-2.667.951 20.139 20.139 0 0 1-3.39.298zm2.718-5.765c-1.238 0-1.972 2.344-2.258 4.061a18.649 18.649 0 0 0 2.638-.265 7.945 7.945 0 0 0 1.667-.549c-.146-1.055-.62-3.247-2.047-3.247z" transform="translate(-487.324 203.061)"/>
                    </g>
                </g>
                <g id="그룹_3116" data-name="그룹 3116" transform="translate(68.713 133.837)">
                    <g id="그룹_3114" data-name="그룹 3114" transform="translate(.873 .848)">
                        <path id="패스_7480" data-name="패스 7480" class="cls-7" d="M504.261-197.728s.21-4.609 2.951-4.609 3.221 5.754 3.221 5.754a18.479 18.479 0 0 1-3.747-.274 10.52 10.52 0 0 1-2.426-.871" transform="translate(-504.261 202.337)"/>
                    </g>
                    <g id="그룹_3115" data-name="그룹 3115">
                        <path id="패스_7481" data-name="패스 7481" class="cls-3" d="M510.058-195.6a20.16 20.16 0 0 1-3.391-.3 11.321 11.321 0 0 1-2.666-.951l-.486-.248.025-.547c.091-2.011 1-5.417 3.8-5.417 3.422 0 4.011 5.863 4.066 6.532l.074.871-.874.046c-.023.003-.22.014-.548.014zm-4.764-2.518a7.957 7.957 0 0 0 1.665.549 18.666 18.666 0 0 0 2.638.265c-.288-1.718-1.024-4.061-2.257-4.061-1.427 0-1.901 2.192-2.046 3.246z" transform="translate(-503.516 203.061)"/>
                    </g>
                </g>
                <g id="그룹_3119" data-name="그룹 3119" transform="translate(77.736 133.837)">
                    <g id="그룹_3117" data-name="그룹 3117" transform="translate(.918 .848)">
                        <path id="패스_7482" data-name="패스 7482" class="cls-7" d="M518.177-197.728s-.211-4.609-2.951-4.609-3.226 5.754-3.226 5.754a18.489 18.489 0 0 0 3.748-.274 10.521 10.521 0 0 0 2.426-.871" transform="translate(-512.004 202.337)"/>
                    </g>
                    <g id="그룹_3118" data-name="그룹 3118">
                        <path id="패스_7483" data-name="패스 7483" class="cls-3" d="M512.641-195.6c-.328 0-.523-.011-.547-.012l-.874-.046.073-.871c.056-.669.645-6.532 4.068-6.532 2.8 0 3.707 3.406 3.8 5.417l.025.547-.487.248a11.3 11.3 0 0 1-2.666.951 20.159 20.159 0 0 1-3.392.298zm2.72-5.765c-1.239 0-1.972 2.344-2.259 4.061a18.677 18.677 0 0 0 2.639-.265 7.934 7.934 0 0 0 1.666-.549c-.147-1.055-.621-3.247-2.047-3.247z" transform="translate(-511.22 203.061)"/>
                    </g>
                </g>
                <g id="그룹_3122" data-name="그룹 3122" transform="translate(27.606 71.65)">
                    <g id="그룹_3120" data-name="그룹 3120" transform="translate(.846 .848)">
                        <path id="패스_7484" data-name="패스 7484" class="cls-7" d="m528.788-255.434-45.753.323s-14.271 7.551-13.888 28.49c0 0-.1 1.388 7.178 1.049 0 0-1.189 15.759-.342 20.33 0 0 16.419 1.692 23.19.338l1.015-3.047 1.354 3.19s14.9 3.072 25.052-1.328a137.94 137.94 0 0 0-2.75-32.248" transform="translate(-469.14 255.434)"/>
                    </g>
                    <g id="그룹_3121" data-name="그룹 3121">
                        <path id="패스_7485" data-name="패스 7485" class="cls-3" d="M512.939-202.732a61.98 61.98 0 0 1-11.445-1.074.847.847 0 0 1-.609-.5l-.477-1.126-.307.919a.847.847 0 0 1-.638.563c-6.821 1.363-22.768-.257-23.444-.327a.85.85 0 0 1-.747-.69c-.745-4.021.019-16.088.264-19.6-3.712.11-5.92-.251-6.737-1.089a1.184 1.184 0 0 1-.374-.905c-.205-10.989 3.681-18.34 6.977-22.559a25.658 25.658 0 0 1 7.36-6.621.841.841 0 0 1 .391-.1l45.754-.322h.006a.849.849 0 0 1 .848.843.849.849 0 0 1-.843.854l-45.532.32c-1.574.935-13.5 8.653-13.271 27.372.344.19 1.7.689 6.294.474a.851.851 0 0 1 .649.257.848.848 0 0 1 .237.655c-.011.15-1.073 14.4-.449 19.484 3.025.286 15.767 1.389 21.8.376l.857-2.572a.848.848 0 0 1 .771-.58.829.829 0 0 1 .814.517l1.177 2.771c2.454.443 14.809 2.4 23.623-1.151a138.754 138.754 0 0 0-2.754-31.495.848.848 0 0 1 .65-1.008.849.849 0 0 1 1.008.65 140.037 140.037 0 0 1 2.768 32.472.847.847 0 0 1-.51.734 36.38 36.38 0 0 1-14.111 2.458zM470.118-226.6v.091a.4.4 0 0 0 0-.091z" transform="translate(-468.417 256.158)"/>
                    </g>
                </g>
                <g id="그룹_3125" data-name="그룹 3125" transform="translate(83.181 106.173)">
                    <g id="그룹_3123" data-name="그룹 3123" transform="translate(.845 .849)">
                        <path id="패스_7486" data-name="패스 7486" class="cls-4" d="M517.836-223.856s-2.939 8.885.21 9.864 3.568-2.449 3.568-2.449-1.894 3.674 3.839 3.945c6.171.289 5.885-8.491 4.767-13.459" transform="translate(-516.59 225.956)"/>
                    </g>
                    <g id="그룹_3124" data-name="그룹 3124">
                        <path id="패스_7487" data-name="패스 7487" class="cls-3" d="M525.875-211.517c-.111 0-.225 0-.339-.008-2.264-.107-3.777-.741-4.5-1.888-.043.032-.088.062-.133.093a3.417 3.417 0 0 1-2.987.264 2.586 2.586 0 0 1-1.538-1.339c-1.421-2.763.546-8.911.774-9.6a.849.849 0 0 1 1.072-.539.849.849 0 0 1 .54 1.07c-.779 2.355-1.7 6.689-.877 8.3a.877.877 0 0 0 .534.494 1.8 1.8 0 0 0 1.561-.069 1.9 1.9 0 0 0 .65-.819 4.029 4.029 0 0 1 .349-1.141.851.851 0 0 1 1-.422.849.849 0 0 1 .593.914 4.826 4.826 0 0 1-.292 1.1 1.354 1.354 0 0 0 .166.76c.383.65 1.506 1.052 3.162 1.129a3.463 3.463 0 0 0 3.016-1.2c1.858-2.215 1.783-7.232.883-11.222a.848.848 0 0 1 .642-1.014.847.847 0 0 1 1.013.642c.333 1.476 1.835 9.022-1.238 12.685a5.046 5.046 0 0 1-4.051 1.81z" transform="translate(-515.868 226.681)"/>
                    </g>
                </g>
                <g id="그룹_3127" data-name="그룹 3127" transform="translate(45.905 76.325)">
                    <g id="그룹_3126" data-name="그룹 3126">
                        <path id="패스_7488" data-name="패스 7488" class="cls-3" d="m495.895-227.1-.877-1.115c-7.342-9.33-10.83-22.9-10.975-23.477l1.894-.478c.033.13 3.25 12.638 9.75 21.6 2.133-3.623 8.355-14.324 11.683-21.469l1.768.823c-4.079 8.764-12.431 22.758-12.516 22.9z" transform="translate(-484.042 252.166)"/>
                    </g>
                </g>
                <g id="그룹_3130" data-name="그룹 3130" transform="translate(76.374 71.58)">
                    <g id="그룹_3128" data-name="그룹 3128" transform="translate(.847 .849)">
                        <path id="패스_7489" data-name="패스 7489" class="cls-7" d="M510.78-236.851s6.453 6.63 5.484 19.372c0 0 10.051 1.211 17.393-.99 0 0 3.671-19.6-12.573-37.024" transform="translate(-510.78 255.493)"/>
                    </g>
                    <g id="그룹_3129" data-name="그룹 3129">
                        <path id="패스_7490" data-name="패스 7490" class="cls-3" d="M522.83-216.169a59.706 59.706 0 0 1-6.545-.344.849.849 0 0 1-.745-.907c.926-12.169-5.184-18.654-5.246-18.717a.85.85 0 0 1 .02-1.2.849.849 0 0 1 1.2.016c.268.276 6.435 6.768 5.774 19.2 2.424.217 9.894.7 15.735-.892a45.507 45.507 0 0 0-12.435-35.78.848.848 0 0 1 .042-1.2.849.849 0 0 1 1.2.041c16.346 17.535 12.824 37.559 12.786 37.76a.85.85 0 0 1-.59.657 40.649 40.649 0 0 1-11.196 1.366z" transform="translate(-510.057 256.218)"/>
                    </g>
                </g>
                <g id="그룹_3133" data-name="그룹 3133" transform="translate(83.02 112.301)">
                    <g id="그룹_3131" data-name="그룹 3131" transform="translate(.848 .849)">
                        <path id="패스_7491" data-name="패스 7491" class="cls-4" d="M516.9-220.724c-.531 2.638-.943 6.459.922 7.04 3.148.979 3.618-4.215 3.618-4.215" transform="translate(-516.456 220.724)"/>
                    </g>
                    <g id="그룹_3132" data-name="그룹 3132">
                        <path id="패스_7492" data-name="패스 7492" class="cls-3" d="M518.7-212.59a3.368 3.368 0 0 1-1.007-.16c-1.943-.6-2.449-3.3-1.5-8.017a.847.847 0 0 1 1-.664.847.847 0 0 1 .665 1c-.779 3.873-.389 5.836.342 6.063a1.2 1.2 0 0 0 1.11-.1c.953-.636 1.348-2.707 1.411-3.382a.849.849 0 0 1 .922-.766.847.847 0 0 1 .767.921c-.032.348-.36 3.436-2.156 4.638a2.754 2.754 0 0 1-1.554.467z" transform="translate(-515.731 221.449)"/>
                    </g>
                </g>
                <g id="그룹_3136" data-name="그룹 3136" transform="translate(87.496 111.096)">
                    <g id="그룹_3134" data-name="그룹 3134" transform="translate(.847 .849)">
                        <path id="패스_7493" data-name="패스 7493" class="cls-4" d="M520.511-218.973s-1.7 6.1 4.034 6.368c4.529.213 5.9-4.684 5.693-9.148" transform="translate(-520.276 221.753)"/>
                    </g>
                    <g id="그룹_3135" data-name="그룹 3135">
                        <path id="패스_7494" data-name="패스 7494" class="cls-3" d="M524.956-211.626q-.162 0-.327-.007a5.081 5.081 0 0 1-4.119-1.941c-1.588-2.195-.73-5.369-.692-5.5a.847.847 0 0 1 1.042-.589.849.849 0 0 1 .593 1.042c-.007.026-.675 2.532.436 4.061a3.48 3.48 0 0 0 2.82 1.234 3.614 3.614 0 0 0 2.906-1.048c1.335-1.333 2.045-4.029 1.9-7.213a.849.849 0 0 1 .809-.887.854.854 0 0 1 .887.809c.169 3.707-.705 6.8-2.4 8.491a5.264 5.264 0 0 1-3.855 1.548z" transform="translate(-519.553 222.478)"/>
                    </g>
                </g>
                <g id="그룹_3141" data-name="그룹 3141" transform="translate(52.327 97.573)">
                    <g id="그룹_3138" data-name="그룹 3138" transform="translate(.651 .649)">
                        <g id="그룹_3137" data-name="그룹 3137">
                            <rect id="사각형_1601" data-name="사각형 1601" class="cls-7" width="11.336" height="14.682" rx=".556"/>
                        </g>
                    </g>
                    <g id="그룹_3140" data-name="그룹 3140">
                        <g id="그룹_3139" data-name="그룹 3139">
                            <path id="패스_7495" data-name="패스 7495" class="cls-3" d="M500.862-232.724v13.381h-10.036v-13.381h10.036m0-1.3h-10.036a1.3 1.3 0 0 0-1.3 1.3v13.381a1.3 1.3 0 0 0 1.3 1.3h10.036a1.3 1.3 0 0 0 1.3-1.3v-13.381a1.3 1.3 0 0 0-1.3-1.3z" transform="translate(-489.525 234.024)"/>
                        </g>
                    </g>
                </g>
                <g id="그룹_3143" data-name="그룹 3143" transform="translate(56.052 109.061)">
                    <g id="그룹_3142" data-name="그룹 3142">
                        <path id="선_433" data-name="선 433" class="cls-7" d="M0 0h5.501"/>
                    </g>
                </g>
                <g id="그룹_3145" data-name="그룹 3145" transform="translate(55.726 108.735)">
                    <g id="그룹_3144" data-name="그룹 3144">
                        <path id="패스_7496" data-name="패스 7496" class="cls-3" d="M498.255-223.842h-5.5a.327.327 0 0 1-.327-.327.327.327 0 0 1 .327-.326h5.5a.325.325 0 0 1 .324.326.326.326 0 0 1-.324.327" transform="translate(-492.427 224.494)"/>
                    </g>
                </g>
                <g id="그룹_3147" data-name="그룹 3147" transform="translate(56.052 110.507)">
                    <g id="그룹_3146" data-name="그룹 3146">
                        <path id="선_434" data-name="선 434" class="cls-7" d="M0 0h5.501"/>
                    </g>
                </g>
                <g id="그룹_3149" data-name="그룹 3149" transform="translate(55.726 110.18)">
                    <g id="그룹_3148" data-name="그룹 3148">
                        <path id="패스_7497" data-name="패스 7497" class="cls-3" d="M498.255-222.608h-5.5a.327.327 0 0 1-.327-.326.328.328 0 0 1 .327-.327h5.5a.326.326 0 0 1 .324.327.325.325 0 0 1-.324.326" transform="translate(-492.427 223.26)"/>
                    </g>
                </g>
                <g id="그룹_3151" data-name="그룹 3151" transform="translate(55.969 100.385)">
                    <g id="그룹_3150" data-name="그룹 3150">
                        <path id="패스_7498" data-name="패스 7498" d="M498.018-224.592H492.8a.162.162 0 0 1-.163-.163v-6.705a.163.163 0 0 1 .163-.163h5.22a.163.163 0 0 1 .163.163v6.705a.162.162 0 0 1-.163.163" transform="translate(-492.635 231.623)" style="fill:#d0e7f5"/>
                    </g>
                </g>
                <g id="그룹_3215" data-name="그룹 3215" transform="translate(55.97 100.385)">
                    <g id="그룹_3214" data-name="그룹 3214" class="cls-9">
                        <g id="그룹_3153" data-name="그룹 3153" transform="translate(3.81 7.08)">
                            <g id="그룹_3152" data-name="그룹 3152">
                                <path id="패스_7499" data-name="패스 7499" class="cls-4" d="M495.888-225.481a.438.438 0 0 0 .432.145s.164.224.375.135a.4.4 0 0 0 .248-.244c-.446-.306-.611.077-.611.077a.485.485 0 0 1-.37-.211z" transform="translate(-495.888 225.578)"/>
                            </g>
                        </g>
                        <g id="그룹_3155" data-name="그룹 3155" transform="translate(3.735 7.006)">
                            <g id="그룹_3154" data-name="그룹 3154">
                                <path id="패스_7500" data-name="패스 7500" class="cls-5" d="M495.973-225.566a.485.485 0 0 0 .37.21.337.337 0 0 1 .3-.2.565.565 0 0 1 .316.118.4.4 0 0 1-.247.244.251.251 0 0 1-.1.021.387.387 0 0 1-.274-.155.454.454 0 0 1-.1.012.449.449 0 0 1-.333-.159l.074-.095m0-.075a.074.074 0 0 0-.06.029l-.074.1a.076.076 0 0 0 0 .091.524.524 0 0 0 .391.186.49.49 0 0 0 .071 0 .44.44 0 0 0 .3.149.353.353 0 0 0 .129-.027.467.467 0 0 0 .29-.3.073.073 0 0 0-.029-.078.644.644 0 0 0-.358-.131.4.4 0 0 0-.335.187.417.417 0 0 1-.2-.091.334.334 0 0 1-.068-.074.073.073 0 0 0-.06-.038z" transform="translate(-495.824 225.641)"/>
                            </g>
                        </g>
                        <g id="그룹_3157" data-name="그룹 3157" transform="translate(4.248 7.091)">
                            <g id="그룹_3156" data-name="그룹 3156">
                                <path id="패스_7501" data-name="패스 7501" class="cls-6" d="M496.262-225.33a.326.326 0 0 0 .365.13.413.413 0 0 0 .252-.246c-.446-.306-.6.055-.6.055" transform="translate(-496.262 225.569)"/>
                            </g>
                        </g>
                        <g id="그룹_3159" data-name="그룹 3159" transform="translate(4.221 7.065)">
                            <g id="그룹_3158" data-name="그룹 3158">
                                <path id="패스_7502" data-name="패스 7502" class="cls-5" d="M496.531-225.148a.4.4 0 0 1-.287-.164.026.026 0 0 1 .006-.036.028.028 0 0 1 .037.006.3.3 0 0 0 .334.122.406.406 0 0 0 .231-.211.458.458 0 0 0-.369-.1.3.3 0 0 0-.175.152.025.025 0 0 1-.034.014.025.025 0 0 1-.014-.034.342.342 0 0 1 .207-.182.519.519 0 0 1 .431.114.028.028 0 0 1 .01.028.429.429 0 0 1-.267.265.306.306 0 0 1-.111.023" transform="translate(-496.239 225.591)"/>
                            </g>
                        </g>
                        <g id="그룹_3161" data-name="그룹 3161" transform="translate(4.229 7.227)">
                            <g id="그룹_3160" data-name="그룹 3160">
                                <path id="패스_7503" data-name="패스 7503" class="cls-5" d="M496.415-225.317a.25.25 0 0 1-.157-.035.038.038 0 0 1 0-.054.036.036 0 0 1 .053 0 .656.656 0 0 0 .377-.041.04.04 0 0 1 .053.014.04.04 0 0 1-.013.053.725.725 0 0 1-.313.064" transform="translate(-496.246 225.453)"/>
                            </g>
                        </g>
                        <g id="그룹_3163" data-name="그룹 3163" transform="translate(1.346 5.133)">
                            <g id="그룹_3162" data-name="그룹 3162">
                                <path id="패스_7504" data-name="패스 7504" class="cls-4" d="M496.2-227.239a5.874 5.874 0 0 1 .2 2.724c-.022.069-.162.117-.234.13a3.458 3.458 0 0 1-.447.048.782.782 0 0 1-.227-.036.214.214 0 0 1-.144-.153c-.019-.075-.042-.171-.057-.22a.146.146 0 0 0-.131-.118.146.146 0 0 0-.131.118c-.015.049-.04.145-.059.22a.21.21 0 0 1-.143.153.782.782 0 0 1-.227.036 4.621 4.621 0 0 1-.519-.048c-.074-.013-.105-.061-.128-.13a4.433 4.433 0 0 1 .111-2.7s2.129-.035 2.14-.026" transform="translate(-493.784 227.24)"/>
                            </g>
                        </g>
                        <g id="그룹_3165" data-name="그룹 3165" transform="translate(1.31 5.096)">
                            <g id="그룹_3164" data-name="그룹 3164">
                                <path id="패스_7505" data-name="패스 7505" class="cls-3" d="M495.721-224.294a.782.782 0 0 1-.238-.039.254.254 0 0 1-.17-.18l-.056-.218c-.01-.039-.035-.091-.1-.091s-.088.063-.1.091l-.057.218a.25.25 0 0 1-.169.18.782.782 0 0 1-.238.039 4.536 4.536 0 0 1-.525-.049.2.2 0 0 1-.157-.157 4.488 4.488 0 0 1 .112-2.721.037.037 0 0 1 .033-.023s.533-.009 1.067-.016a5.268 5.268 0 0 1 1.1 0 .023.023 0 0 1 .009.014 8.253 8.253 0 0 1 .221.98 4.192 4.192 0 0 1-.023 1.764c-.037.117-.262.157-.265.157a3.537 3.537 0 0 1-.453.049m-.56-.6a.179.179 0 0 1 .167.145c.012.041.03.115.059.221a.176.176 0 0 0 .118.128.743.743 0 0 0 .216.034 3.164 3.164 0 0 0 .44-.048c.087-.014.192-.061.206-.1a5.764 5.764 0 0 0-.19-2.675c-.178 0-1.308.013-2.086.026a4.416 4.416 0 0 0-.1 2.649c.021.067.048.095.1.1a4.346 4.346 0 0 0 .513.048.749.749 0 0 0 .215-.034.18.18 0 0 0 .12-.128c.018-.073.042-.169.057-.221a.18.18 0 0 1 .167-.145" transform="translate(-493.754 227.272)"/>
                            </g>
                        </g>
                        <g id="그룹_3167" data-name="그룹 3167" transform="translate(1.636 7.72)">
                            <g id="그룹_3166" data-name="그룹 3166">
                                <path id="패스_7506" data-name="패스 7506" class="cls-7" d="M494.032-224.8s.01-.232.149-.232.163.289.163.289a.863.863 0 0 1-.19-.013.561.561 0 0 1-.122-.045" transform="translate(-494.032 225.032)"/>
                            </g>
                        </g>
                        <g id="그룹_3169" data-name="그룹 3169" transform="translate(1.594 7.676)">
                            <g id="그룹_3168" data-name="그룹 3168">
                                <path id="패스_7507" data-name="패스 7507" class="cls-5" d="M494.325-224.693a1.015 1.015 0 0 1-.172-.015.54.54 0 0 1-.135-.048.041.041 0 0 1-.022-.039c0-.1.049-.274.191-.274.172 0 .2.3.2.33a.037.037 0 0 1-.009.03.041.041 0 0 1-.029.014h-.027m-.242-.125a.408.408 0 0 0 .085.027.706.706 0 0 0 .133.014c-.014-.087-.051-.207-.115-.207s-.1.112-.1.166" transform="translate(-493.996 225.069)"/>
                            </g>
                        </g>
                        <g id="그룹_3171" data-name="그룹 3171" transform="translate(2.094 7.72)">
                            <g id="그룹_3170" data-name="그룹 3170">
                                <path id="패스_7508" data-name="패스 7508" class="cls-7" d="M494.736-224.8s-.012-.232-.15-.232-.163.289-.163.289a.862.862 0 0 0 .19-.013.582.582 0 0 0 .123-.045" transform="translate(-494.423 225.032)"/>
                            </g>
                        </g>
                        <g id="그룹_3173" data-name="그룹 3173" transform="translate(2.052 7.678)">
                            <g id="그룹_3172" data-name="그룹 3172">
                                <path id="패스_7509" data-name="패스 7509" class="cls-5" d="M494.427-224.694a.041.041 0 0 1-.029-.014.048.048 0 0 1-.011-.03c0-.034.033-.329.2-.329.141 0 .186.171.191.273a.038.038 0 0 1-.023.037.49.49 0 0 1-.134.049 1.022 1.022 0 0 1-.171.015h-.028m.165-.29c-.063 0-.1.121-.116.207a1.2 1.2 0 0 0 .136-.013.561.561 0 0 0 .085-.028c-.008-.054-.032-.166-.105-.166" transform="translate(-494.387 225.068)"/>
                            </g>
                        </g>
                        <g id="그룹_3175" data-name="그룹 3175" transform="translate(3.051 7.72)">
                            <g id="그룹_3174" data-name="그룹 3174">
                                <path id="패스_7510" data-name="패스 7510" class="cls-7" d="M495.24-224.8s.01-.232.149-.232.163.289.163.289a.862.862 0 0 1-.19-.013.589.589 0 0 1-.122-.045" transform="translate(-495.24 225.032)"/>
                            </g>
                        </g>
                        <g id="그룹_3177" data-name="그룹 3177" transform="translate(3.009 7.676)">
                            <g id="그룹_3176" data-name="그룹 3176">
                                <path id="패스_7511" data-name="패스 7511" class="cls-5" d="M495.532-224.693a1.022 1.022 0 0 1-.171-.015.526.526 0 0 1-.134-.048.041.041 0 0 1-.023-.039c0-.1.05-.274.191-.274.172 0 .2.3.2.33a.048.048 0 0 1-.011.03.041.041 0 0 1-.029.014h-.028m-.241-.125a.418.418 0 0 0 .084.027.737.737 0 0 0 .136.014c-.015-.087-.053-.207-.116-.207s-.1.112-.1.166" transform="translate(-495.204 225.069)"/>
                            </g>
                        </g>
                        <g id="그룹_3179" data-name="그룹 3179" transform="translate(3.509 7.72)">
                            <g id="그룹_3178" data-name="그룹 3178">
                                <path id="패스_7512" data-name="패스 7512" class="cls-7" d="M495.944-224.8s-.012-.232-.15-.232-.163.289-.163.289a.862.862 0 0 0 .19-.013.583.583 0 0 0 .123-.045" transform="translate(-495.631 225.032)"/>
                            </g>
                        </g>
                        <g id="그룹_3181" data-name="그룹 3181" transform="translate(3.468 7.678)">
                            <g id="그룹_3180" data-name="그룹 3180">
                                <path id="패스_7513" data-name="패스 7513" class="cls-5" d="M495.635-224.694a.041.041 0 0 1-.029-.014.041.041 0 0 1-.009-.03c0-.034.032-.329.2-.329.142 0 .186.171.191.273a.039.039 0 0 1-.022.037.522.522 0 0 1-.135.049 1.014 1.014 0 0 1-.171.015h-.028m.165-.29c-.063 0-.1.121-.115.207a1.2 1.2 0 0 0 .135-.013.52.52 0 0 0 .085-.028c-.008-.054-.032-.166-.105-.166" transform="translate(-495.596 225.068)"/>
                            </g>
                        </g>
                        <g id="그룹_3183" data-name="그룹 3183" transform="translate(.926 6.376)">
                            <g id="그룹_3182" data-name="그룹 3182">
                                <path id="패스_7514" data-name="패스 7514" class="cls-4" d="M494.087-226.072s.15.45-.009.5-.18-.123-.18-.123.063.249-.227.258-.266-.488-.209-.74" transform="translate(-493.425 226.179)"/>
                            </g>
                        </g>
                        <g id="그룹_3185" data-name="그룹 3185" transform="translate(.879 6.331)">
                            <g id="그룹_3184" data-name="그룹 3184">
                                <path id="패스_7515" data-name="패스 7515" class="cls-3" d="M493.671-225.386a.233.233 0 0 1-.187-.087.976.976 0 0 1-.061-.709.046.046 0 0 1 .056-.035.047.047 0 0 1 .035.055.911.911 0 0 0 .041.629.139.139 0 0 0 .121.054.2.2 0 0 0 .159-.061.175.175 0 0 0 .026-.126v-.019a.045.045 0 0 1 .038-.05.045.045 0 0 1 .054.033v.019a.128.128 0 0 0 .042.07.092.092 0 0 0 .076 0 .044.044 0 0 0 .025-.023.786.786 0 0 0-.044-.416.047.047 0 0 1 .029-.06.047.047 0 0 1 .059.03.864.864 0 0 1 .039.488.129.129 0 0 1-.08.069.174.174 0 0 1-.153-.014.209.209 0 0 1-.029.055.277.277 0 0 1-.232.1z" transform="translate(-493.386 226.218)"/>
                            </g>
                        </g>
                        <g id="그룹_3187" data-name="그룹 3187" transform="translate(.914 4.575)">
                            <g id="그룹_3186" data-name="그룹 3186">
                                <path id="패스_7516" data-name="패스 7516" class="cls-7" d="m496.488-227.717-2.313.015a3.028 3.028 0 0 0-.759 1.965s.018.129.384.111a1.7 1.7 0 0 0 .018.445 5.989 5.989 0 0 0 1.172.018l.053-.155.068.162a2.525 2.525 0 0 0 1.266-.067 6.964 6.964 0 0 0-.138-1.63" transform="translate(-493.416 227.717)"/>
                            </g>
                        </g>
                        <g id="그룹_3189" data-name="그룹 3189" transform="translate(.868 4.528)">
                            <g id="그룹_3188" data-name="그룹 3188">
                                <path id="패스_7517" data-name="패스 7517" class="cls-3" d="M495.687-225.048a3.007 3.007 0 0 1-.579-.055.047.047 0 0 1-.034-.027l-.021-.048-.012.037a.047.047 0 0 1-.035.03 5.887 5.887 0 0 1-1.186-.016.047.047 0 0 1-.041-.037 1.783 1.783 0 0 1-.022-.406h-.013c-.329 0-.363-.125-.368-.153v-.007a3.1 3.1 0 0 1 .773-2 .052.052 0 0 1 .032-.014l2.313-.015a.047.047 0 0 1 .047.046.047.047 0 0 1-.047.047l-2.293.016a3.027 3.027 0 0 0-.732 1.913c.013.026.091.082.336.07a.053.053 0 0 1 .036.015.044.044 0 0 1 .012.037 1.707 1.707 0 0 0 .011.4 5.952 5.952 0 0 0 1.1.019l.043-.128a.044.044 0 0 1 .042-.032.045.045 0 0 1 .045.028l.059.138a2.485 2.485 0 0 0 1.189-.057 7.071 7.071 0 0 0-.141-1.589.048.048 0 0 1 .036-.055.045.045 0 0 1 .055.035 7.029 7.029 0 0 1 .141 1.643.044.044 0 0 1-.028.04 1.85 1.85 0 0 1-.716.125" transform="translate(-493.376 227.757)"/>
                            </g>
                        </g>
                        <g id="그룹_3191" data-name="그룹 3191" transform="translate(2.172 4.759)">
                            <g id="그룹_3190" data-name="그룹 3190">
                                <path id="패스_7518" data-name="패스 7518" class="cls-4" d="m494.49-227.554.706-.006-.39.454z" transform="translate(-494.49 227.56)"/>
                            </g>
                        </g>
                        <g id="그룹_3193" data-name="그룹 3193" transform="translate(3.781 6.32)">
                            <g id="그룹_3192" data-name="그룹 3192">
                                <path id="패스_7519" data-name="패스 7519" class="cls-4" d="M495.926-226.12s-.149.449.011.5.18-.124.18-.124-.1.186.193.2c.313.015.3-.43.241-.68" transform="translate(-495.863 226.227)"/>
                            </g>
                        </g>
                        <g id="그룹_3195" data-name="그룹 3195" transform="translate(3.734 6.273)">
                            <g id="그룹_3194" data-name="그룹 3194">
                                <path id="패스_7520" data-name="패스 7520" class="cls-3" d="M496.334-225.493h-.018a.274.274 0 0 1-.228-.095.177.177 0 0 1-.155.014.134.134 0 0 1-.08-.07.863.863 0 0 1 .039-.488.047.047 0 0 1 .059-.029.046.046 0 0 1 .03.059.767.767 0 0 0-.044.417.043.043 0 0 0 .023.023.091.091 0 0 0 .076 0 .091.091 0 0 0 .032-.039.17.17 0 0 1 .019-.06.044.044 0 0 1 .054-.022.045.045 0 0 1 .033.05.223.223 0 0 1-.014.056.055.055 0 0 0 .008.035c.018.033.074.052.156.055a.171.171 0 0 0 .15-.06.76.76 0 0 0 .045-.563.046.046 0 0 1 .035-.056.048.048 0 0 1 .056.035.881.881 0 0 1-.064.645.257.257 0 0 1-.207.093" transform="translate(-495.824 226.267)"/>
                            </g>
                        </g>
                        <g id="그룹_3197" data-name="그룹 3197" transform="translate(1.854 4.768)">
                            <g id="그룹_3196" data-name="그룹 3196">
                                <path id="패스_7521" data-name="패스 7521" class="cls-3" d="m494.816-226.285-.044-.056a3.606 3.606 0 0 1-.554-1.186l.095-.025a3.771 3.771 0 0 0 .493 1.092c.108-.183.423-.724.59-1.086l.09.042c-.207.444-.629 1.15-.634 1.158z" transform="translate(-494.218 227.552)"/>
                            </g>
                        </g>
                        <g id="그룹_3199" data-name="그룹 3199" transform="translate(-.425 1.14)">
                            <g id="그룹_3198" data-name="그룹 3198">
                                <path id="패스_7522" data-name="패스 7522" class="cls-4" d="M494.044-230.13a.942.942 0 0 0-1.087-.5c-.781.108-.8 1.2-.527 1.616a1.249 1.249 0 0 0-.008 1.168.862.862 0 0 0 1.6-.076" transform="translate(-492.273 230.65)"/>
                            </g>
                        </g>
                        <g id="그룹_3201" data-name="그룹 3201" transform="translate(-.471 1.093)">
                            <g id="그룹_3200" data-name="그룹 3200">
                                <path id="패스_7523" data-name="패스 7523" class="cls-3" d="M493.228-227.3h.042a.9.9 0 0 0 .8-.607.045.045 0 0 0-.027-.06.046.046 0 0 0-.06.026.8.8 0 0 1-.716.548.85.85 0 0 1-.8-.474 1.215 1.215 0 0 1 .006-1.122.048.048 0 0 0 0-.05 1.346 1.346 0 0 1-.046-1.135.685.685 0 0 1 .54-.411.9.9 0 0 1 1.039.475.046.046 0 0 0 .059.027.045.045 0 0 0 .027-.06.861.861 0 0 0-.237-.316 1.1 1.1 0 0 0-.9-.219.77.77 0 0 0-.61.466 1.436 1.436 0 0 0 .036 1.2 1.3 1.3 0 0 0 0 1.188.944.944 0 0 0 .842.527" transform="translate(-492.233 230.69)"/>
                            </g>
                        </g>
                        <g id="그룹_3203" data-name="그룹 3203" transform="translate(-.052 1.641)">
                            <g id="그룹_3202" data-name="그룹 3202">
                                <path id="패스_7524" data-name="패스 7524" class="cls-10" d="M493.721-229.874a.6.6 0 0 0-.709-.334c-.5.088-.488.844-.308 1.133a.925.925 0 0 0 .015.809.54.54 0 0 0 1.025-.08" transform="translate(-492.591 230.222)"/>
                            </g>
                        </g>
                        <g id="그룹_3205" data-name="그룹 3205" transform="translate(.69 .951)">
                            <g id="그룹_3204" data-name="그룹 3204">
                                <path id="패스_7525" data-name="패스 7525" class="cls-4" d="M495.077-226.932c1.463.018 1.94-.6 2.079-1.042a.977.977 0 0 0 .025-.561c0-1.962-1.264-2.276-2-2.276-.687 0-1.924.314-1.924 2.255a1.926 1.926 0 0 0-.022.5c.029.3.214 1.11 1.846 1.129" transform="translate(-493.224 230.811)"/>
                            </g>
                        </g>
                        <g id="그룹_3207" data-name="그룹 3207" transform="translate(.651 .913)">
                            <g id="그룹_3206" data-name="그룹 3206">
                                <path id="패스_7526" data-name="패스 7526" class="cls-5" d="M495.145-226.886h-.062a2.247 2.247 0 0 1-1.551-.468 1.072 1.072 0 0 1-.334-.7 1.986 1.986 0 0 1 .021-.5 2.3 2.3 0 0 1 .72-1.881 2 2 0 0 1 1.244-.409 2.1 2.1 0 0 1 1.3.411 2.289 2.289 0 0 1 .739 1.9 1.035 1.035 0 0 1-.027.581c-.126.4-.562 1.069-2.054 1.069m-.062-.078c1.493.018 1.92-.628 2.041-1.014a.944.944 0 0 0 .025-.539V-228.527a2.22 2.22 0 0 0-.709-1.841 2.024 2.024 0 0 0-1.254-.392c-.567 0-1.884.214-1.884 2.215v.007a1.919 1.919 0 0 0-.022.484 1 1 0 0 0 .31.647 2.181 2.181 0 0 0 1.5.447" transform="translate(-493.191 230.844)"/>
                            </g>
                        </g>
                        <g id="그룹_3209" data-name="그룹 3209" transform="translate(2.185 3.769)">
                            <g id="그룹_3208" data-name="그룹 3208">
                                <path id="패스_7527" data-name="패스 7527" class="cls-5" d="M494.943-228.2a.589.589 0 0 1-.431-.131.044.044 0 0 1 0-.06.044.044 0 0 1 .06 0s.235.228.9 0a.041.041 0 0 1 .054.027.044.044 0 0 1-.026.054 1.8 1.8 0 0 1-.563.107" transform="translate(-494.501 228.405)"/>
                            </g>
                        </g>
                        <g id="그룹_3211" data-name="그룹 3211" transform="translate(2.286 3.931)">
                            <g id="그룹_3210" data-name="그룹 3210">
                                <path id="패스_7528" data-name="패스 7528" class="cls-11" d="M494.589-228.267a.99.99 0 0 0 .682.013s-.018.386-.375.377-.307-.39-.307-.39" transform="translate(-494.587 228.267)"/>
                            </g>
                        </g>
                        <g id="그룹_3213" data-name="그룹 3213" transform="translate(2.202 3.846)">
                            <g id="그룹_3212" data-name="그룹 3212">
                                <path id="패스_7529" data-name="패스 7529" class="cls-5" d="M494.6-228.255a.966.966 0 0 0 .362.068.942.942 0 0 0 .32-.055s-.018.377-.363.377h-.012c-.357-.008-.307-.39-.307-.39M494.6-228.342a.085.085 0 0 0-.041.011.084.084 0 0 0-.042.063.5.5 0 0 0 .095.36.375.375 0 0 0 .293.126h.014a.409.409 0 0 0 .387-.235.592.592 0 0 0 .061-.219v-.008a.085.085 0 0 0-.084-.085.121.121 0 0 0-.028.006.853.853 0 0 1-.289.049.882.882 0 0 1-.327-.06.094.094 0 0 0-.035-.007" transform="translate(-494.515 228.339)"/>
                            </g>
                        </g>
                    </g>
                </g>
                <g id="그룹_3221" data-name="그룹 3221" transform="translate(58.256 104.316)">
                    <g id="그룹_3220" data-name="그룹 3220" style="clip-path:url(#clip-path-2)">
                        <g id="그룹_3217" data-name="그룹 3217" transform="translate(-.003 .193)">
                            <g id="그룹_3216" data-name="그룹 3216">
                                <path id="패스_7530" data-name="패스 7530" class="cls-10" d="M494.584-228.036a.591.591 0 0 1 .3-.066.68.68 0 0 1 .319.083.324.324 0 0 1-.313.165.339.339 0 0 1-.31-.183" transform="translate(-494.584 228.102)"/>
                            </g>
                        </g>
                        <g id="그룹_3219" data-name="그룹 3219" transform="translate(-.045 .15)">
                            <g id="그룹_3218" data-name="그룹 3218">
                                <path id="패스_7531" data-name="패스 7531" class="cls-5" d="M494.912-227.8h-.012a.379.379 0 0 1-.348-.21.043.043 0 0 1 .016-.053.639.639 0 0 1 .327-.073.729.729 0 0 1 .342.091.041.041 0 0 1 .015.053.362.362 0 0 1-.34.191m-.262-.208a.308.308 0 0 0 .252.123.3.3 0 0 0 .251-.105.674.674 0 0 0-.259-.059.64.64 0 0 0-.244.041m-.06-.018" transform="translate(-494.548 228.139)"/>
                            </g>
                        </g>
                    </g>
                </g>
                <g id="그룹_3307" data-name="그룹 3307" transform="translate(55.97 100.385)">
                    <g id="그룹_3306" data-name="그룹 3306" class="cls-9">
                        <g id="그룹_3223" data-name="그룹 3223" transform="translate(3.014 3.007)">
                            <g id="그룹_3222" data-name="그룹 3222">
                                <path id="패스_7533" data-name="패스 7533" class="cls-5" d="M495.622-228.822a.217.217 0 0 1-.21.227.219.219 0 0 1-.2-.234.218.218 0 0 1 .21-.227.219.219 0 0 1 .2.234" transform="translate(-495.209 229.056)"/>
                            </g>
                        </g>
                        <g id="그룹_3225" data-name="그룹 3225" transform="translate(3.034 2.444)">
                            <g id="그룹_3224" data-name="그룹 3224">
                                <path id="패스_7534" data-name="패스 7534" class="cls-5" d="M495.561-229.4a.041.041 0 0 1-.027-.011.219.219 0 0 0-.115-.036.24.24 0 0 0-.125.03.048.048 0 0 1-.063-.02.046.046 0 0 1 .02-.062.327.327 0 0 1 .173-.04.3.3 0 0 1 .165.054.046.046 0 0 1 .009.064.044.044 0 0 1-.038.02" transform="translate(-495.226 229.536)"/>
                            </g>
                        </g>
                        <g id="그룹_3227" data-name="그룹 3227" transform="translate(3.102 3.111)">
                            <g id="그룹_3226" data-name="그룹 3226">
                                <path id="패스_7535" data-name="패스 7535" class="cls-13" d="M495.4-228.907a.057.057 0 0 1-.059.056.057.057 0 0 1-.054-.06.057.057 0 0 1 .057-.056.058.058 0 0 1 .055.06" transform="translate(-495.284 228.967)"/>
                            </g>
                        </g>
                        <g id="그룹_3229" data-name="그룹 3229" transform="translate(1.541 2.968)">
                            <g id="그룹_3228" data-name="그룹 3228">
                                <path id="패스_7536" data-name="패스 7536" class="cls-5" d="M494.394-228.814a.249.249 0 0 1-.225.267.25.25 0 0 1-.218-.275.249.249 0 0 1 .225-.267.253.253 0 0 1 .218.275" transform="translate(-493.951 229.089)"/>
                            </g>
                        </g>
                        <g id="그룹_3231" data-name="그룹 3231" transform="translate(1.559 2.444)">
                            <g id="그룹_3230" data-name="그룹 3230">
                                <path id="패스_7537" data-name="패스 7537" class="cls-5" d="M494.3-229.4a.047.047 0 0 1-.028-.011.211.211 0 0 0-.114-.036.248.248 0 0 0-.126.03.046.046 0 0 1-.062-.02.046.046 0 0 1 .02-.062.327.327 0 0 1 .173-.04.3.3 0 0 1 .165.054.046.046 0 0 1 .009.064.045.045 0 0 1-.038.02" transform="translate(-493.967 229.536)"/>
                            </g>
                        </g>
                        <g id="그룹_3233" data-name="그룹 3233" transform="translate(1.627 3.071)">
                            <g id="그룹_3232" data-name="그룹 3232">
                                <path id="패스_7538" data-name="패스 7538" class="cls-13" d="M494.136-228.94a.057.057 0 0 1-.057.056.059.059 0 0 1-.055-.061.057.057 0 0 1 .059-.056.058.058 0 0 1 .054.061" transform="translate(-494.024 229.001)"/>
                            </g>
                        </g>
                        <g id="그룹_3235" data-name="그룹 3235" transform="translate(4.196 1.199)">
                            <g id="그룹_3234" data-name="그룹 3234">
                                <path id="패스_7539" data-name="패스 7539" class="cls-4" d="M496.218-230.079a.945.945 0 0 1 1.088-.506c.78.109.794 1.2.526 1.617a1.25 1.25 0 0 1 .009 1.168.862.862 0 0 1-1.6-.077" transform="translate(-496.218 230.6)"/>
                            </g>
                        </g>
                        <g id="그룹_3237" data-name="그룹 3237" transform="translate(4.15 1.153)">
                            <g id="그룹_3236" data-name="그룹 3236">
                                <path id="패스_7540" data-name="패스 7540" class="cls-3" d="M497.047-227.246h-.041a.893.893 0 0 1-.8-.607.046.046 0 0 1 .026-.06.046.046 0 0 1 .06.026.8.8 0 0 0 .716.549.85.85 0 0 0 .8-.475 1.21 1.21 0 0 0-.007-1.122.046.046 0 0 1 0-.049 1.342 1.342 0 0 0 .047-1.135.686.686 0 0 0-.541-.412.893.893 0 0 0-1.038.476.046.046 0 0 1-.06.027.046.046 0 0 1-.027-.06.874.874 0 0 1 .238-.315 1.1 1.1 0 0 1 .9-.219.767.767 0 0 1 .611.464 1.446 1.446 0 0 1-.036 1.2 1.292 1.292 0 0 1 0 1.186.943.943 0 0 1-.842.527" transform="translate(-496.179 230.639)"/>
                            </g>
                        </g>
                        <g id="그룹_3239" data-name="그룹 3239" transform="translate(4.481 1.681)">
                            <g id="그룹_3238" data-name="그룹 3238">
                                <path id="패스_7541" data-name="패스 7541" class="cls-10" d="M496.484-229.841a.6.6 0 0 1 .707-.333c.5.088.49.843.309 1.131a.927.927 0 0 1-.015.811.54.54 0 0 1-1.025-.08" transform="translate(-496.461 230.188)"/>
                            </g>
                        </g>
                        <g id="그룹_3241" data-name="그룹 3241" transform="translate(1.16 3.414)">
                            <g id="그룹_3240" data-name="그룹 3240">
                                <path id="패스_7542" data-name="패스 7542" class="cls-7" d="M494.713-228.449a.164.164 0 0 1-.069.141.9.9 0 0 1-.917.025c-.05-.025-.123-.084-.095-.169s.119-.04.23-.044a.924.924 0 0 0 .355-.075c.115-.053.19-.093.237-.117a.149.149 0 0 1 .206.064l.02.039a.343.343 0 0 1 .034.137" transform="translate(-493.626 228.708)"/>
                            </g>
                        </g>
                        <g id="그룹_3243" data-name="그룹 3243" transform="translate(1.116 3.353)">
                            <g id="그룹_3242" data-name="그룹 3242">
                                <path id="패스_7543" data-name="패스 7543" class="cls-5" d="M494.237-228.117a1.066 1.066 0 0 1-.519-.109.232.232 0 0 1-.119-.123.171.171 0 0 1 0-.114c.032-.1.112-.089.183-.083a.518.518 0 0 0 .085 0 .91.91 0 0 0 .341-.071 2.394 2.394 0 0 0 .265-.137l.012-.006c.025-.015.054 0 .061.035a.057.057 0 0 1-.022.06l-.01.007a2.849 2.849 0 0 1-.272.141.953.953 0 0 1-.37.077.611.611 0 0 1-.095 0c-.072-.007-.088 0-.095.015a.04.04 0 0 0 0 .033.138.138 0 0 0 .07.066.9.9 0 0 0 .926-.049.041.041 0 0 1 .059.019.057.057 0 0 1-.015.074.961.961 0 0 1-.483.165" transform="translate(-493.588 228.761)"/>
                            </g>
                        </g>
                        <g id="그룹_3245" data-name="그룹 3245" transform="translate(.87 2.867)">
                            <g id="그룹_3244" data-name="그룹 3244">
                                <path id="패스_7544" data-name="패스 7544" class="cls-4" d="M494.846-229.093s-.522.856-1.15-.053a.067.067 0 0 0-.091-.019l-.2.115c-.03.019-.03.055-.029.091a1.309 1.309 0 0 0 2.055.62" transform="translate(-493.378 229.175)"/>
                            </g>
                        </g>
                        <g id="그룹_3247" data-name="그룹 3247" transform="translate(.823 2.82)">
                            <g id="그룹_3246" data-name="그룹 3246">
                                <path id="패스_7545" data-name="패스 7545" class="cls-5" d="M494.661-227.963a1.212 1.212 0 0 1-.486-.105 1.731 1.731 0 0 1-.595-.436.864.864 0 0 1-.242-.446.136.136 0 0 1 .051-.134l.2-.115a.116.116 0 0 1 .156.033c.186.269.377.4.569.4a.731.731 0 0 0 .5-.342.048.048 0 0 1 .066-.016.049.049 0 0 1 .016.067.814.814 0 0 1-.58.389.816.816 0 0 1-.651-.438.019.019 0 0 0-.027-.006l-.2.115c-.006 0-.006.025-.006.048a1.37 1.37 0 0 0 .781.8 1.075 1.075 0 0 0 1.195-.212.048.048 0 0 1 .068 0 .048.048 0 0 1 0 .068 1.206 1.206 0 0 1-.811.333" transform="translate(-493.338 229.216)"/>
                            </g>
                        </g>
                        <g id="그룹_3249" data-name="그룹 3249" transform="translate(2.053 3.174)">
                            <g id="그룹_3248" data-name="그룹 3248">
                                <path id="패스_7546" data-name="패스 7546" class="cls-3" d="M494.723-228.621a.05.05 0 0 1-.047-.034c-.046-.145-.241-.163-.244-.163a.048.048 0 0 1-.044-.05.048.048 0 0 1 .052-.044.379.379 0 0 1 .329.228.048.048 0 0 1-.032.061h-.014" transform="translate(-494.388 228.913)"/>
                            </g>
                        </g>
                        <g id="그룹_3251" data-name="그룹 3251" transform="translate(1.806 3.265)">
                            <g id="그룹_3250" data-name="그룹 3250">
                                <path id="패스_7547" data-name="패스 7547" class="cls-3" d="M494.412-228.515a.046.046 0 0 1-.046-.034.3.3 0 0 0-.158-.193.048.048 0 0 1-.029-.061.049.049 0 0 1 .062-.029.386.386 0 0 1 .217.254.048.048 0 0 1-.03.061h-.015" transform="translate(-494.177 228.835)"/>
                            </g>
                        </g>
                        <g id="그룹_3253" data-name="그룹 3253" transform="translate(1.524 3.223)">
                            <g id="그룹_3252" data-name="그룹 3252">
                                <path id="패스_7548" data-name="패스 7548" class="cls-3" d="M494.032-228.494h-.016a.049.049 0 0 1-.029-.062.257.257 0 0 0-.04-.234.048.048 0 0 1 .008-.068.046.046 0 0 1 .067.008.355.355 0 0 1 .055.327.045.045 0 0 1-.044.032" transform="translate(-493.936 228.871)"/>
                            </g>
                        </g>
                        <g id="그룹_3255" data-name="그룹 3255" transform="translate(.425 2.572)">
                            <g id="그룹_3254" data-name="그룹 3254">
                                <path id="패스_7549" data-name="패스 7549" class="cls-4" d="M493.749-229.1s.1-.255-.095-.316-.2.194-.2.194-.3-.274-.422-.056c-.128.234.111.474.423.392" transform="translate(-492.998 229.427)"/>
                            </g>
                        </g>
                        <g id="그룹_3257" data-name="그룹 3257" transform="translate(.377 2.524)">
                            <g id="그룹_3256" data-name="그룹 3256">
                                <path id="패스_7550" data-name="패스 7550" class="cls-5" d="M493.341-228.816a.4.4 0 0 1-.32-.142.3.3 0 0 1-.021-.342.2.2 0 0 1 .141-.107.439.439 0 0 1 .288.1.235.235 0 0 1 .082-.131.179.179 0 0 1 .166-.019.2.2 0 0 1 .131.108.382.382 0 0 1-.006.272.049.049 0 0 1-.063.027.05.05 0 0 1-.027-.062.28.28 0 0 0 .009-.194.109.109 0 0 0-.073-.057.085.085 0 0 0-.082 0 .208.208 0 0 0-.055.144.049.049 0 0 1-.028.043.051.051 0 0 1-.052-.008c-.046-.041-.183-.143-.275-.126a.094.094 0 0 0-.071.056.2.2 0 0 0 .014.233.336.336 0 0 0 .353.091.048.048 0 0 1 .06.034.049.049 0 0 1-.034.059.545.545 0 0 1-.135.018" transform="translate(-492.957 229.468)"/>
                            </g>
                        </g>
                        <g id="그룹_3259" data-name="그룹 3259" transform="translate(2.085 3.439)">
                            <g id="그룹_3258" data-name="그룹 3258">
                                <path id="패스_7551" data-name="패스 7551" class="cls-7" d="M495.407-228.441a.174.174 0 0 1-.055.145.77.77 0 0 1-.837.091.138.138 0 0 1-.095-.159c.021-.087.107-.048.207-.062a.805.805 0 0 0 .321-.1c.1-.062.169-.107.21-.136a.13.13 0 0 1 .192.05l.02.036a.342.342 0 0 1 .038.135" transform="translate(-494.415 228.687)"/>
                            </g>
                        </g>
                        <g id="그룹_3261" data-name="그룹 3261" transform="translate(2.023 3.38)">
                            <g id="그룹_3260" data-name="그룹 3260">
                                <path id="패스_7552" data-name="패스 7552" class="cls-5" d="M494.992-228.075a.9.9 0 0 1-.48-.069c-.026-.011-.111-.037-.138-.108a.2.2 0 0 1-.006-.114c.023-.1.121-.1.185-.1a.443.443 0 0 0 .078 0 .771.771 0 0 0 .308-.1 2.238 2.238 0 0 0 .234-.157l.009-.006a.043.043 0 0 1 .068.025.049.049 0 0 1-.018.054l-.009.006a2.35 2.35 0 0 1-.251.173.819.819 0 0 1-.334.105.438.438 0 0 1-.087 0c-.066 0-.081 0-.086.023a.037.037 0 0 0 0 .032.122.122 0 0 0 .068.061.779.779 0 0 0 .844-.119.037.037 0 0 1 .055.014.067.067 0 0 1-.011.077.88.88 0 0 1-.433.2" transform="translate(-494.362 228.737)"/>
                            </g>
                        </g>
                        <g id="그룹_3263" data-name="그룹 3263" transform="translate(2.494 4.796)">
                            <g id="그룹_3262" data-name="그룹 3262">
                                <path id="패스_7553" data-name="패스 7553" class="cls-7" d="m494.765-227.22.2-.212s.533-.064.705-.1l-.248.534-.436-.354-.136.15" transform="translate(-494.765 227.528)"/>
                            </g>
                        </g>
                        <g id="그룹_3265" data-name="그룹 3265" transform="translate(2.448 4.75)">
                            <g id="그룹_3264" data-name="그룹 3264">
                                <path id="패스_7554" data-name="패스 7554" class="cls-3" d="M495.432-226.94a.048.048 0 0 1-.029-.011l-.4-.326-.105.117a.048.048 0 0 1-.066 0 .048.048 0 0 1-.015-.035l-.012.009a.044.044 0 0 1-.066 0 .046.046 0 0 1 0-.066l.2-.212a.048.048 0 0 1 .028-.013s.533-.066.7-.1a.046.046 0 0 1 .046.018.047.047 0 0 1 .006.048l-.249.534a.048.048 0 0 1-.03.026h-.012m-.415-.443.011.007.388.315.186-.4c-.182.027-.483.064-.584.077" transform="translate(-494.725 227.568)"/>
                            </g>
                        </g>
                        <g id="그룹_3267" data-name="그룹 3267" transform="translate(2.475 5.175)">
                            <g id="그룹_3266" data-name="그룹 3266">
                                <path id="패스_7555" data-name="패스 7555" class="cls-7" d="M494.777-227.205a9.923 9.923 0 0 0 .03 1.794" transform="translate(-494.749 227.205)"/>
                            </g>
                        </g>
                        <g id="그룹_3269" data-name="그룹 3269" transform="translate(2.427 5.125)">
                            <g id="그룹_3268" data-name="그룹 3268">
                                <path id="패스_7556" data-name="패스 7556" class="cls-3" d="M494.815-225.354a.048.048 0 0 1-.048-.041 9.944 9.944 0 0 1-.03-1.806.048.048 0 0 1 .052-.046.05.05 0 0 1 .046.053 9.933 9.933 0 0 0 .03 1.784.051.051 0 0 1-.041.056h-.008" transform="translate(-494.707 227.247)"/>
                            </g>
                        </g>
                        <g id="그룹_3271" data-name="그룹 3271" transform="translate(1.622 4.728)">
                            <g id="그룹_3270" data-name="그룹 3270">
                                <path id="패스_7557" data-name="패스 7557" class="cls-7" d="m494.9-227.209-.189-.226s-.526-.105-.695-.151l.206.553.461-.319.123.159" transform="translate(-494.02 227.586)"/>
                            </g>
                        </g>
                        <g id="그룹_3273" data-name="그룹 3273" transform="translate(1.575 4.682)">
                            <g id="그룹_3272" data-name="그룹 3272">
                                <path id="패스_7558" data-name="패스 7558" class="cls-3" d="M494.233-226.98h-.014a.046.046 0 0 1-.029-.029l-.207-.552a.049.049 0 0 1 .009-.048.049.049 0 0 1 .047-.013c.165.044.686.149.691.151a.039.039 0 0 1 .027.015l.189.227a.047.047 0 0 1-.006.066.048.048 0 0 1-.066-.007l-.011-.012a.041.041 0 0 1-.018.034.046.046 0 0 1-.066-.008l-.1-.125-.424.294a.047.047 0 0 1-.027.009m-.132-.533.155.412.412-.283.011-.006c-.1-.02-.4-.081-.577-.123" transform="translate(-493.98 227.625)"/>
                            </g>
                        </g>
                        <g id="그룹_3275" data-name="그룹 3275" transform="translate(3.436 4.571)">
                            <g id="그룹_3274" data-name="그룹 3274">
                                <path id="패스_7559" data-name="패스 7559" class="cls-7" d="M495.569-226.778a1.305 1.305 0 0 1 .278.98 2.6 2.6 0 0 0 .88-.05 2.309 2.309 0 0 0-.636-1.872" transform="translate(-495.569 227.72)"/>
                            </g>
                        </g>
                        <g id="그룹_3277" data-name="그룹 3277" transform="translate(3.39 4.524)">
                            <g id="그룹_3276" data-name="그룹 3276">
                                <path id="패스_7560" data-name="패스 7560" class="cls-3" d="M496.179-225.728a2.75 2.75 0 0 1-.331-.018.045.045 0 0 1-.04-.05 1.279 1.279 0 0 0-.265-.943.048.048 0 0 1 0-.067.048.048 0 0 1 .067 0 1.324 1.324 0 0 1 .293.969 2.514 2.514 0 0 0 .788-.043 2.3 2.3 0 0 0-.628-1.8.046.046 0 0 1 0-.066.047.047 0 0 1 .066 0 2.376 2.376 0 0 1 .648 1.913.047.047 0 0 1-.033.036 2.091 2.091 0 0 1-.567.069" transform="translate(-495.529 227.76)"/>
                            </g>
                        </g>
                        <g id="그룹_3279" data-name="그룹 3279" transform="translate(1.279 5.462)">
                            <g id="그룹_3278" data-name="그룹 3278">
                                <path id="패스_7561" data-name="패스 7561" class="cls-7" d="M493.883-226.96a5.181 5.181 0 0 0-.13 1.635" transform="translate(-493.727 226.96)"/>
                            </g>
                        </g>
                        <g id="그룹_3281" data-name="그룹 3281" transform="translate(1.224 5.423)">
                            <g id="그룹_3280" data-name="그룹 3280">
                                <path id="패스_7562" data-name="패스 7562" class="cls-3" d="M493.753-225.266a.045.045 0 0 1-.046-.04 5.138 5.138 0 0 1 .13-1.653.044.044 0 0 1 .056-.033.046.046 0 0 1 .035.056 5.106 5.106 0 0 0-.13 1.616.047.047 0 0 1-.039.053h-.007" transform="translate(-493.68 226.993)"/>
                            </g>
                        </g>
                        <g id="그룹_3283" data-name="그룹 3283" transform="translate(3.772 6.629)">
                            <g id="그룹_3282" data-name="그룹 3282">
                                <path id="패스_7563" data-name="패스 7563" class="cls-4" d="M495.878-225.963c-.027.135-.047.327.047.356.159.05.183-.213.183-.213" transform="translate(-495.856 225.963)"/>
                            </g>
                        </g>
                        <g id="그룹_3285" data-name="그룹 3285" transform="translate(3.726 6.583)">
                            <g id="그룹_3284" data-name="그룹 3284">
                                <path id="패스_7564" data-name="패스 7564" class="cls-3" d="M495.971-225.547a.2.2 0 0 1-.052-.007c-.1-.032-.128-.17-.08-.41a.048.048 0 0 1 .055-.037.048.048 0 0 1 .038.055c-.039.194-.021.292.014.3a.052.052 0 0 0 .053 0c.048-.032.067-.133.07-.167a.048.048 0 0 1 .05-.043.048.048 0 0 1 .042.052.349.349 0 0 1-.111.238.135.135 0 0 1-.08.023" transform="translate(-495.816 226.003)"/>
                            </g>
                        </g>
                        <g id="그룹_3287" data-name="그룹 3287" transform="translate(3.999 6.57)">
                            <g id="그룹_3286" data-name="그룹 3286">
                                <path id="패스_7565" data-name="패스 7565" class="cls-4" d="M496.062-225.873s-.087.308.2.321c.228.011.3-.237.287-.461" transform="translate(-496.05 226.014)"/>
                            </g>
                        </g>
                        <g id="그룹_3289" data-name="그룹 3289" transform="translate(3.952 6.523)">
                            <g id="그룹_3288" data-name="그룹 3288">
                                <path id="패스_7566" data-name="패스 7566" class="cls-3" d="M496.286-225.5h-.016a.267.267 0 0 1-.212-.1.363.363 0 0 1-.034-.281.044.044 0 0 1 .056-.032.045.045 0 0 1 .033.056.276.276 0 0 0 .021.2.171.171 0 0 0 .139.062.181.181 0 0 0 .145-.053.5.5 0 0 0 .095-.361.047.047 0 0 1 .044-.049.045.045 0 0 1 .048.044.575.575 0 0 1-.122.432.27.27 0 0 1-.2.08" transform="translate(-496.01 226.054)"/>
                            </g>
                        </g>
                        <g id="그룹_3291" data-name="그룹 3291" transform="translate(2.243 5.908)">
                            <g id="그룹_3290" data-name="그룹 3290">
                                <path id="사각형_1603" data-name="사각형 1603" class="cls-7" d="M0 0h.508v.677H0z"/>
                            </g>
                        </g>
                        <g id="그룹_3293" data-name="그룹 3293" transform="translate(2.177 5.842)">
                            <g id="그룹_3292" data-name="그룹 3292">
                                <path id="패스_7567" data-name="패스 7567" class="cls-3" d="M495.068-225.892h-.507v-.677h.507zm0-.743h-.507a.066.066 0 0 0-.067.066v.677a.066.066 0 0 0 .067.066h.507a.065.065 0 0 0 .066-.066v-.677a.065.065 0 0 0-.066-.066" transform="translate(-494.494 226.635)"/>
                            </g>
                        </g>
                        <g id="그룹_3295" data-name="그룹 3295" transform="translate(2.37 5.993)">
                            <g id="그룹_3294" data-name="그룹 3294">
                                <path id="사각형_1604" data-name="사각형 1604" class="cls-7" d="M0 0h.264v.339H0z"/>
                            </g>
                        </g>
                        <g id="그룹_3297" data-name="그룹 3297" transform="translate(2.338 5.961)">
                            <g id="그룹_3296" data-name="그룹 3296">
                                <path id="패스_7568" data-name="패스 7568" class="cls-3" d="M494.927-226.163h-.264v-.338h.264zm0-.371h-.264a.032.032 0 0 0-.033.033v.338a.032.032 0 0 0 .033.033h.264a.032.032 0 0 0 .033-.033v-.338a.032.032 0 0 0-.033-.033" transform="translate(-494.631 226.534)"/>
                            </g>
                        </g>
                        <g id="그룹_3299" data-name="그룹 3299" transform="translate(2.366 6.423)">
                            <g id="그룹_3298" data-name="그룹 3298">
                                <path id="선_435" data-name="선 435" class="cls-7" d="M0 0h.278"/>
                            </g>
                        </g>
                        <g id="그룹_3301" data-name="그룹 3301" transform="translate(2.349 6.407)">
                            <g id="그룹_3300" data-name="그룹 3300">
                                <path id="패스_7569" data-name="패스 7569" class="cls-3" d="M494.936-226.12h-.279a.017.017 0 0 1-.016-.015.018.018 0 0 1 .016-.018h.279a.018.018 0 0 1 .016.018.017.017 0 0 1-.016.015" transform="translate(-494.641 226.153)"/>
                            </g>
                        </g>
                        <g id="그룹_3303" data-name="그룹 3303" transform="translate(2.366 6.496)">
                            <g id="그룹_3302" data-name="그룹 3302">
                                <path id="선_436" data-name="선 436" class="cls-7" d="M0 0h.278"/>
                            </g>
                        </g>
                        <g id="그룹_3305" data-name="그룹 3305" transform="translate(2.349 6.479)">
                            <g id="그룹_3304" data-name="그룹 3304">
                                <path id="패스_7570" data-name="패스 7570" class="cls-3" d="M494.936-226.057h-.279a.018.018 0 0 1-.016-.016.018.018 0 0 1 .016-.018h.279a.018.018 0 0 1 .016.018.018.018 0 0 1-.016.016" transform="translate(-494.641 226.091)"/>
                            </g>
                        </g>
                    </g>
                </g>
                <g id="그룹_3312" data-name="그룹 3312" transform="translate(33.636 74.245)">
                    <g id="그룹_3309" data-name="그룹 3309" transform="translate(.647 .65)">
                        <g id="그룹_3308" data-name="그룹 3308">
                            <path id="패스_7571" data-name="패스 7571" class="cls-2" d="M475.331-223.315a.651.651 0 0 1-.642-.594c-2.394-27.02 3.473-29.29 4.15-29.458a.6.6 0 0 1 .158-.02.606.606 0 0 1 .112.009l3.9.685a.65.65 0 0 1 .535.575.65.65 0 0 1-.41.671c-3.171 1.241-6.068 17.558-7.149 27.55a.652.652 0 0 1-.648.581z" transform="translate(-474.119 253.387)"/>
                        </g>
                    </g>
                    <g id="그룹_3311" data-name="그룹 3311">
                        <g id="그룹_3310" data-name="그룹 3310">
                            <path id="패스_7572" data-name="패스 7572" class="cls-3" d="m479.092-252.642 3.9.685c-4.72 1.847-7.558 28.085-7.558 28.085-2.415-27.247 3.659-28.771 3.659-28.771m0-1.3a1.3 1.3 0 0 0-.316.039c-1.195.3-7.031 3.16-4.639 30.148a1.3 1.3 0 0 0 1.284 1.185h.013a1.3 1.3 0 0 0 1.293-1.161c1.325-12.243 4.278-26.051 6.739-27.015a1.3 1.3 0 0 0 .821-1.341 1.3 1.3 0 0 0-1.07-1.151l-3.9-.685a1.326 1.326 0 0 0-.225-.019z" transform="translate(-473.567 253.942)"/>
                        </g>
                    </g>
                </g>
                <g id="그룹_3315" data-name="그룹 3315" transform="translate(42.29 74.699)">
                    <g id="그룹_3313" data-name="그룹 3313" transform="translate(.849 .849)">
                        <path id="패스_7573" data-name="패스 7573" class="cls-7" d="m481.68-252.141 1.745 8.519 13.24-7.083-5.932-2.125z" transform="translate(-481.68 252.829)"/>
                    </g>
                    <g id="그룹_3314" data-name="그룹 3314">
                        <path id="패스_7574" data-name="패스 7574" class="cls-3" d="M483.549-242.65a.838.838 0 0 1-.36-.08.845.845 0 0 1-.471-.6l-1.746-8.52a.845.845 0 0 1 .155-.682.844.844 0 0 1 .613-.334l9.053-.689a.828.828 0 0 1 .35.047l5.932 2.126a.849.849 0 0 1 .56.737.851.851 0 0 1-.445.81l-13.24 7.082a.849.849 0 0 1-.401.103zm-.721-8.594 1.325 6.463 10.551-5.645-3.962-1.419z" transform="translate(-480.955 253.555)"/>
                    </g>
                </g>
                <g id="그룹_3318" data-name="그룹 3318" transform="translate(58.643 74.767)">
                    <g id="그룹_3316" data-name="그룹 3316" transform="translate(.848 .849)">
                        <path id="패스_7575" data-name="패스 7575" class="cls-7" d="m510.628-252.084-1.745 8.519-13.24-7.082 5.932-2.125z" transform="translate(-495.642 252.772)"/>
                    </g>
                    <g id="그룹_3317" data-name="그룹 3317">
                        <path id="패스_7576" data-name="패스 7576" class="cls-3" d="M509.006-242.593a.849.849 0 0 1-.4-.1l-13.24-7.082a.848.848 0 0 1-.445-.81.851.851 0 0 1 .56-.737l5.932-2.125a.866.866 0 0 1 .35-.047l9.053.689a.844.844 0 0 1 .613.334.846.846 0 0 1 .155.682l-1.746 8.519a.844.844 0 0 1-.47.6.847.847 0 0 1-.362.077zm-11.153-7.776 10.55 5.644 1.325-6.462-7.914-.6z" transform="translate(-494.918 253.496)"/>
                    </g>
                </g>
                <g id="그룹_3321" data-name="그룹 3321" transform="translate(0 3.715)">
                    <g id="그룹_3319" data-name="그룹 3319" transform="translate(.861 .845)">
                        <path id="패스_7577" data-name="패스 7577" class="cls-4" d="M480.623-303.141s-4.652-12.35-21.515-10c-15.44 2.149-15.716 23.682-10.421 31.994a24.7 24.7 0 0 0-.17 23.083c6.309 12.726 25.473 14.232 31.586-1.526" transform="translate(-445.582 313.441)"/>
                    </g>
                    <g id="그룹_3320" data-name="그룹 3320">
                        <path id="패스_7578" data-name="패스 7578" class="cls-3" d="M464.479-247.176a18.582 18.582 0 0 1-16.595-10.391 25.509 25.509 0 0 1-.057-23.449c-3.19-5.459-4.373-15.841-.746-23.693a15.122 15.122 0 0 1 12.036-9.152c9.019-1.257 14.632 1.654 17.75 4.316a16.883 16.883 0 0 1 4.675 6.227.846.846 0 0 1-.493 1.092.851.851 0 0 1-1.094-.492c-.182-.478-4.658-11.678-20.6-9.462a13.566 13.566 0 0 0-10.734 8.18c-3.378 7.313-2.258 17.546.908 22.514a.851.851 0 0 1 0 .905 24.075 24.075 0 0 0-.129 22.259 16.88 16.88 0 0 0 15.819 9.431c6.463-.292 11.643-4.26 14.214-10.887a.85.85 0 0 1 1.1-.484.851.851 0 0 1 .484 1.1c-2.784 7.175-8.66 11.649-15.719 11.967-.272.012-.546.019-.819.019z" transform="translate(-444.847 314.162)"/>
                    </g>
                </g>
                <g id="그룹_3323" data-name="그룹 3323" transform="translate(8.233 14.483)">
                    <g id="그룹_3322" data-name="그룹 3322">
                        <path id="패스_7579" data-name="패스 7579" class="cls-10" d="M474.238-298.1s-3.215-8.5-14.01-6.594c-9.886 1.742-9.672 16.692-6.116 22.376a18.342 18.342 0 0 0 .31 16.026c4.287 8.731 16.631 9.467 20.274-1.569" transform="translate(-451.876 304.968)"/>
                    </g>
                </g>
                <g id="그룹_3326" data-name="그룹 3326" transform="translate(22.043)">
                    <g id="그룹_3324" data-name="그룹 3324" transform="translate(.849 .848)">
                        <path id="패스_7580" data-name="패스 7580" class="cls-4" d="M501.042-239.9c28.918.354 38.371-11.872 41.117-20.6 2.052-6.519.487-11.126.487-11.126 0-38.783-25-44.985-39.619-44.985-13.584 0-38.049 6.2-38.049 44.595a37.628 37.628 0 0 0-.444 9.774c.574 6.036 4.233 21.953 36.508 22.345" transform="translate(-464.393 316.61)"/>
                    </g>
                    <g id="그룹_3325" data-name="그룹 3325">
                        <path id="패스_7581" data-name="패스 7581" class="cls-3" d="M502.388-238.916c-.408 0-.817 0-1.233-.008-30.614-.372-36.536-14.641-37.34-23.114a38.289 38.289 0 0 1 .44-9.935c.036-40.938 27.209-45.361 38.9-45.361 12.155 0 40.409 4.455 40.467 45.7a20.387 20.387 0 0 1-.526 11.511c-2.51 7.969-11.136 21.206-40.708 21.207zm.764-76.722c-11.185 0-37.2 4.263-37.2 43.747a.783.783 0 0 1-.016.166 37.177 37.177 0 0 0-.431 9.527c1.75 18.418 23.1 21.425 35.673 21.578 29.491.349 37.9-12.382 40.3-20.009a18.707 18.707 0 0 0 .492-10.6.886.886 0 0 1-.043-.271c-.004-38.4-24.296-44.138-38.775-44.138z" transform="translate(-463.668 317.334)"/>
                    </g>
                </g>
                <g id="그룹_3328" data-name="그룹 3328" transform="translate(52.47 56.561)">
                    <g id="그룹_3327" data-name="그룹 3327">
                        <path id="패스_7582" data-name="패스 7582" class="cls-5" d="M498.392-265.058c-6.02 0-8.38-2.42-8.519-2.571a.839.839 0 0 1 .041-1.186.838.838 0 0 1 1.181.035c.077.077 4.661 4.515 17.873.022a.84.84 0 0 1 1.066.525.84.84 0 0 1-.524 1.066 34.826 34.826 0 0 1-11.117 2.109" transform="translate(-489.647 269.041)"/>
                    </g>
                </g>
                <g id="그룹_3330" data-name="그룹 3330" transform="translate(54.473 59.772)">
                    <g id="그룹_3329" data-name="그룹 3329">
                        <path id="패스_7583" data-name="패스 7583" class="cls-11" d="M491.406-266.3a19.515 19.515 0 0 0 13.477.242s-.348 7.641-7.413 7.475-6.064-7.717-6.064-7.717" transform="translate(-491.357 266.299)"/>
                    </g>
                </g>
                <g id="그룹_3332" data-name="그룹 3332" transform="translate(52.796 58.095)">
                    <g id="그룹_3331" data-name="그룹 3331">
                        <path id="패스_7584" data-name="패스 7584" class="cls-5" d="M491.651-266.054a19.125 19.125 0 0 0 7.151 1.331 18.606 18.606 0 0 0 6.326-1.088s-.342 7.477-7.189 7.477h-.224c-7.066-.165-6.065-7.717-6.065-7.717m0-1.678a1.679 1.679 0 0 0-.823.215 1.683 1.683 0 0 0-.844 1.241c-.022.175-.538 4.3 1.879 7.122a7.512 7.512 0 0 0 5.812 2.494h.264a8.1 8.1 0 0 0 7.662-4.663 12.155 12.155 0 0 0 1.2-4.326 1.605 1.605 0 0 0 .009-.168 1.678 1.678 0 0 0-1.669-1.679h-.07a1.684 1.684 0 0 0-.546.11 16.921 16.921 0 0 1-5.721.977 17.7 17.7 0 0 1-6.47-1.185 1.676 1.676 0 0 0-.679-.143" transform="translate(-489.925 267.731)"/>
                    </g>
                </g>
                <g id="그룹_3338" data-name="그룹 3338" transform="translate(54.473 59.772)">
                    <g id="그룹_3337" data-name="그룹 3337" style="clip-path:url(#clip-path-4)">
                        <g id="그룹_3334" data-name="그룹 3334" transform="translate(-.068 3.805)">
                            <g id="그룹_3333" data-name="그룹 3333">
                                <path id="패스_7585" data-name="패스 7585" class="cls-10" d="M491.3-261.746a11.689 11.689 0 0 1 6-1.3 13.689 13.689 0 0 1 6.32 1.663 6.447 6.447 0 0 1-6.2 3.256 6.663 6.663 0 0 1-6.129-3.619" transform="translate(-491.299 263.05)"/>
                            </g>
                        </g>
                        <g id="그룹_3336" data-name="그룹 3336" transform="translate(-.908 2.964)">
                            <g id="그룹_3335" data-name="그룹 3335">
                                <path id="패스_7586" data-name="패스 7586" class="cls-5" d="M497.774-257.164h-.245a7.456 7.456 0 0 1-6.882-4.133.841.841 0 0 1 .333-1.039 12.5 12.5 0 0 1 6.466-1.427 14.474 14.474 0 0 1 6.739 1.788.84.84 0 0 1 .324 1.065 7.2 7.2 0 0 1-6.736 3.748m-5.167-4.1a6.026 6.026 0 0 0 4.964 2.417 5.88 5.88 0 0 0 4.966-2.089 13.569 13.569 0 0 0-5.13-1.151 12.059 12.059 0 0 0-4.8.823m-1.185-.362z" transform="translate(-490.582 263.768)"/>
                            </g>
                        </g>
                    </g>
                </g>
                <g id="그룹_3340" data-name="그룹 3340" transform="translate(68.87 41.475)">
                    <g id="그룹_3339" data-name="그룹 3339">
                        <path id="패스_7588" data-name="패스 7588" class="cls-5" d="M511.844-277.277a4.345 4.345 0 0 1-4.157 4.514 4.372 4.372 0 0 1-4.037-4.644 4.343 4.343 0 0 1 4.157-4.514 4.372 4.372 0 0 1 4.037 4.644" transform="translate(-503.65 281.921)"/>
                    </g>
                </g>
                <g id="그룹_3342" data-name="그룹 3342" transform="translate(69.265 30.349)">
                    <g id="그룹_3341" data-name="그룹 3341">
                        <path id="패스_7589" data-name="패스 7589" class="cls-5" d="M510.625-288.68a.9.9 0 0 1-.541-.177 4.048 4.048 0 0 0-2.259-.729 4.651 4.651 0 0 0-2.506.6.915.915 0 0 1-1.231-.4.916.916 0 0 1 .4-1.233 6.5 6.5 0 0 1 3.423-.8 5.845 5.845 0 0 1 3.258 1.081.915.915 0 0 1 .2 1.279.912.912 0 0 1-.738.374" transform="translate(-503.987 291.421)"/>
                    </g>
                </g>
                <g id="그룹_3344" data-name="그룹 3344" transform="translate(70.607 43.546)">
                    <g id="그룹_3343" data-name="그룹 3343">
                        <path id="패스_7590" data-name="패스 7590" class="cls-13" d="M507.355-278.963a1.13 1.13 0 0 1-1.149 1.113 1.136 1.136 0 0 1-1.073-1.19 1.129 1.129 0 0 1 1.149-1.113 1.136 1.136 0 0 1 1.073 1.19" transform="translate(-505.132 280.154)"/>
                    </g>
                </g>
                <g id="그룹_3346" data-name="그룹 3346" transform="translate(39.734 40.734)">
                    <g id="그룹_3345" data-name="그룹 3345">
                        <path id="패스_7591" data-name="패스 7591" class="cls-5" d="M487.52-277.114c-.036 2.963-2.023 5.331-4.439 5.29s-4.344-2.476-4.308-5.44 2.023-5.331 4.438-5.29 4.344 2.476 4.309 5.44" transform="translate(-478.773 282.554)"/>
                    </g>
                </g>
                <g id="그룹_3348" data-name="그룹 3348" transform="translate(40.096 30.349)">
                    <g id="그룹_3347" data-name="그룹 3347">
                        <path id="패스_7592" data-name="패스 7592" class="cls-5" d="M485.72-288.68a.9.9 0 0 1-.54-.177 4.054 4.054 0 0 0-2.259-.729 4.647 4.647 0 0 0-2.506.6.916.916 0 0 1-1.232-.4.917.917 0 0 1 .4-1.233 6.51 6.51 0 0 1 3.425-.8 5.852 5.852 0 0 1 3.258 1.081.914.914 0 0 1 .2 1.279.912.912 0 0 1-.738.374" transform="translate(-479.082 291.421)"/>
                    </g>
                </g>
                <g id="그룹_3350" data-name="그룹 3350" transform="translate(41.434 42.767)">
                    <g id="그룹_3349" data-name="그룹 3349">
                        <path id="패스_7593" data-name="패스 7593" class="cls-13" d="M482.447-279.628a1.128 1.128 0 0 1-1.148 1.113 1.136 1.136 0 0 1-1.074-1.19 1.129 1.129 0 0 1 1.149-1.113 1.136 1.136 0 0 1 1.073 1.19" transform="translate(-480.225 280.819)"/>
                    </g>
                </g>
                <g id="그룹_3353" data-name="그룹 3353" transform="translate(91.398 4.88)">
                    <g id="그룹_3351" data-name="그룹 3351" transform="translate(.849 .846)">
                        <path id="패스_7594" data-name="패스 7594" class="cls-4" d="M523.609-302.147s4.652-12.349 21.514-10c15.441 2.15 15.717 23.682 10.422 31.994a24.7 24.7 0 0 1 .169 23.084c-6.308 12.726-25.471 14.231-31.585-1.526" transform="translate(-523.609 312.445)"/>
                    </g>
                    <g id="그룹_3352" data-name="그룹 3352">
                        <path id="패스_7595" data-name="패스 7595" class="cls-3" d="M540-246.18c-.274 0-.547-.006-.822-.019-7.059-.317-12.935-4.793-15.719-11.967a.849.849 0 0 1 .484-1.1.851.851 0 0 1 1.1.485c2.572 6.627 7.752 10.595 14.214 10.886a16.872 16.872 0 0 0 15.821-9.431 24.076 24.076 0 0 0-.129-22.259.848.848 0 0 1 0-.9c3.165-4.968 4.285-15.2.908-22.515a13.567 13.567 0 0 0-10.732-8.183c-15.945-2.222-20.421 8.986-20.6 9.463a.848.848 0 0 1-1.093.492.847.847 0 0 1-.494-1.092c.049-.129 5.091-12.961 22.425-10.543a15.124 15.124 0 0 1 12.038 9.152c3.627 7.853 2.444 18.236-.747 23.693a25.511 25.511 0 0 1-.056 23.45A18.582 18.582 0 0 1 540-246.18z" transform="translate(-522.884 313.168)"/>
                    </g>
                </g>
                <g id="그룹_3355" data-name="그룹 3355" transform="translate(97.874 15.261)">
                    <g id="그룹_3354" data-name="그룹 3354">
                        <path id="패스_7596" data-name="패스 7596" class="cls-10" d="M528.872-297.431s3.215-8.5 14.01-6.6c9.885 1.742 9.672 16.691 6.116 22.376a18.343 18.343 0 0 1-.312 16.027c-4.285 8.731-16.631 9.467-20.272-1.571" transform="translate(-528.414 304.304)"/>
                    </g>
                </g>
                <g id="그룹_3357" data-name="그룹 3357" transform="translate(32.201 49.536)">
                    <g id="그룹_3356" data-name="그룹 3356">
                        <path id="패스_7597" data-name="패스 7597" class="cls-7" d="M493.835-269.9a3.209 3.209 0 0 1-1.35 2.766c-2.933 1.92-9.163 4.689-18.131.475-1.015-.475-2.438-1.65-1.89-3.3.56-1.687 2.359-.8 4.537-.891a18.515 18.515 0 0 0 7.026-1.479c2.27-1.058 3.743-1.821 4.676-2.338a2.96 2.96 0 0 1 4.077 1.291c.129.228.258.48.388.758a6.726 6.726 0 0 1 .669 2.721" transform="translate(-472.341 275.039)"/>
                    </g>
                </g>
                <g id="그룹_3359" data-name="그룹 3359" transform="translate(31.33 48.331)">
                    <g id="그룹_3358" data-name="그룹 3358">
                        <path id="패스_7598" data-name="패스 7598" class="cls-5" d="M484.425-263.345a21.122 21.122 0 0 1-10.259-2.156 4.6 4.6 0 0 1-2.369-2.421 3.4 3.4 0 0 1-.016-2.253c.632-1.9 2.219-1.757 3.619-1.624a12.456 12.456 0 0 0 1.694.078 17.771 17.771 0 0 0 6.743-1.41 53.581 53.581 0 0 0 5.225-2.7l.217-.127a.842.842 0 0 1 1.219.68v.019a1.113 1.113 0 0 1-.458 1.19l-.206.122a55.42 55.42 0 0 1-5.364 2.777 18.956 18.956 0 0 1-7.308 1.55 13.665 13.665 0 0 1-1.892-.083c-1.407-.134-1.74-.076-1.872.319a.917.917 0 0 0 0 .637 2.756 2.756 0 0 0 1.4 1.3c8.752 4.112 15.332 1.059 18.32-.964a.793.793 0 0 1 1.164.354 1.167 1.167 0 0 1-.31 1.478 19.021 19.021 0 0 1-9.544 3.242" transform="translate(-471.597 276.068)"/>
                    </g>
                </g>
                <g id="그룹_3362" data-name="그룹 3362" transform="translate(26.003 38.276)">
                    <g id="그룹_3360" data-name="그룹 3360" transform="translate(.46 .458)">
                        <path id="패스_7599" data-name="패스 7599" class="cls-4" d="M496.46-282.656s-10.315 16.956-22.746-1.019a1.345 1.345 0 0 0-1.818-.385l-3.87 2.267c-.6.369-.6 1.087-.575 1.8.265 6.675 20.914 29.55 40.643 12.265" transform="translate(-467.442 284.261)"/>
                    </g>
                    <g id="그룹_3361" data-name="그룹 3361">
                        <path id="패스_7600" data-name="패스 7600" class="cls-3" d="M492.742-260.867a23.888 23.888 0 0 1-9.4-2.025c-9.208-3.956-16.116-12.908-16.279-17.012a2.245 2.245 0 0 1 .8-2.215l3.877-2.271a1.807 1.807 0 0 1 2.427.521c3.778 5.461 7.721 8.188 11.68 8.059 6.054-.175 10.255-6.951 10.3-7.019l.785.477c-.18.3-4.5 7.269-11.05 7.459-4.323.119-8.5-2.718-12.465-8.455a.885.885 0 0 0-1.2-.255l-3.877 2.272c-.334.2-.379.611-.348 1.39.13 3.3 6.356 12.181 15.722 16.2 5.9 2.536 14.888 3.856 24.158-4.268l.606.691c-5.53 4.838-10.953 6.451-15.736 6.451z" transform="translate(-467.049 284.653)"/>
                    </g>
                </g>
                <g id="그룹_3364" data-name="그룹 3364" transform="translate(25.509 37.78)">
                    <g id="그룹_3363" data-name="그룹 3363">
                        <path id="패스_7601" data-name="패스 7601" class="cls-5" d="M492.824-260.294a24.416 24.416 0 0 1-9.61-2.071A34.2 34.2 0 0 1 471.462-271c-2.888-3.259-4.738-6.637-4.824-8.816a2.719 2.719 0 0 1 1.031-2.656l3.885-2.277a2.3 2.3 0 0 1 3.086.666c3.675 5.314 7.463 7.956 11.253 7.847 5.782-.164 9.853-6.717 9.893-6.784a.954.954 0 0 1 1.311-.316.953.953 0 0 1 .319 1.311c-.186.3-4.637 7.5-11.458 7.7-4.468.128-8.819-2.785-12.887-8.668a.39.39 0 0 0-.536-.115l-3.885 2.276c-.119.074-.122.5-.1.944.126 3.194 6.232 11.82 15.424 15.769 5.773 2.479 14.56 3.768 23.637-4.185a.954.954 0 0 1 1.346.089.954.954 0 0 1-.089 1.347c-5.624 4.927-11.157 6.573-16.037 6.573" transform="translate(-466.627 285.076)"/>
                    </g>
                </g>
                <g id="그룹_3367" data-name="그룹 3367" transform="translate(50.78 45.289)">
                    <g id="그룹_3365" data-name="그룹 3365" transform="translate(.032 .458)">
                        <path id="패스_7602" data-name="패스 7602" class="cls-4" d="M488.231-278.274s4.527.313 5.664 3.866" transform="translate(-488.231 278.274)"/>
                    </g>
                    <g id="그룹_3366" data-name="그룹 3366">
                        <path id="패스_7603" data-name="패스 7603" class="cls-3" d="M493.464-274.2c-1.032-3.22-5.218-3.544-5.26-3.548l.063-.916c.2.014 4.852.377 6.07 4.184z" transform="translate(-488.204 278.665)"/>
                    </g>
                </g>
                <g id="그룹_3369" data-name="그룹 3369" transform="translate(49.858 44.794)">
                    <g id="그룹_3368" data-name="그룹 3368">
                        <path id="패스_7604" data-name="패스 7604" class="cls-3" d="M494.034-273.314a.956.956 0 0 1-.909-.663c-.922-2.882-4.784-3.2-4.823-3.207a.955.955 0 0 1-.883-1.019.954.954 0 0 1 1.017-.883c.211.013 5.187.4 6.507 4.527a.954.954 0 0 1-.617 1.2.976.976 0 0 1-.292.046" transform="translate(-487.417 279.088)"/>
                    </g>
                </g>
                <g id="그룹_3372" data-name="그룹 3372" transform="translate(45.773 47.118)">
                    <g id="그룹_3370" data-name="그룹 3370" transform="translate(.15 .435)">
                        <path id="패스_7605" data-name="패스 7605" class="cls-4" d="M484.057-276.733a6.69 6.69 0 0 1 3.7 4.428" transform="translate(-484.057 276.733)"/>
                    </g>
                    <g id="그룹_3371" data-name="그룹 3371">
                        <path id="패스_7606" data-name="패스 7606" class="cls-3" d="M487.341-272.1a6.217 6.217 0 0 0-3.412-4.134l.3-.868a7.106 7.106 0 0 1 3.988 4.722z" transform="translate(-483.929 277.104)"/>
                    </g>
                </g>
                <g id="그룹_3374" data-name="그룹 3374" transform="translate(44.974 46.598)">
                    <g id="그룹_3373" data-name="그룹 3373">
                        <path id="패스_7607" data-name="패스 7607" class="cls-3" d="M487.894-271.211a.956.956 0 0 1-.908-.663 5.782 5.782 0 0 0-3.107-3.821.959.959 0 0 1-.579-1.216.95.95 0 0 1 1.2-.587 7.62 7.62 0 0 1 4.3 5.04.955.955 0 0 1-.617 1.2.97.97 0 0 1-.292.046" transform="translate(-483.247 277.548)"/>
                    </g>
                </g>
                <g id="그룹_3377" data-name="그룹 3377" transform="translate(39.981 46.434)">
                    <g id="그룹_3375" data-name="그룹 3375" transform="translate(.36 .287)">
                        <path id="패스_7608" data-name="패스 7608" class="cls-4" d="M479.291-277.443a6.178 6.178 0 0 1 .943 5.567" transform="translate(-479.291 277.443)"/>
                    </g>
                    <g id="그룹_3376" data-name="그룹 3376">
                        <path id="패스_7609" data-name="패스 7609" class="cls-3" d="m480.719-271.679-.864-.313a5.758 5.758 0 0 0-.87-5.124l.718-.573a6.584 6.584 0 0 1 1.016 6.01z" transform="translate(-478.984 277.688)"/>
                    </g>
                </g>
                <g id="그룹_3379" data-name="그룹 3379" transform="translate(39.388 45.766)">
                    <g id="그룹_3378" data-name="그룹 3378">
                        <path id="패스_7610" data-name="패스 7610" class="cls-3" d="M480.373-270.783a.936.936 0 0 1-.326-.057.953.953 0 0 1-.572-1.222 5.165 5.165 0 0 0-.794-4.65.955.955 0 0 1 .157-1.339.951.951 0 0 1 1.336.151 7.11 7.11 0 0 1 1.1 6.488.955.955 0 0 1-.9.628" transform="translate(-478.478 278.258)"/>
                    </g>
                </g>
                <g id="그룹_3382" data-name="그룹 3382" transform="translate(17.214 32.445)">
                    <g id="그룹_3380" data-name="그룹 3380" transform="translate(.454 .46)">
                        <path id="패스_7611" data-name="패스 7611" class="cls-4" d="M474.77-282.82s2-5.042-1.861-6.237-3.948 3.836-3.948 3.836-6-5.406-8.333-1.12c-2.525 4.64 2.183 9.391 8.351 7.773" transform="translate(-459.932 289.239)"/>
                    </g>
                    <g id="그룹_3381" data-name="그룹 3381">
                        <path id="패스_7612" data-name="패스 7612" class="cls-3" d="M466.633-277.723a7.392 7.392 0 0 1-5.92-2.626 5.464 5.464 0 0 1-.422-6.144 3.34 3.34 0 0 1 2.42-1.839c2.17-.375 4.745 1.348 5.946 2.279a4.711 4.711 0 0 1 1.572-3.066 3.129 3.129 0 0 1 2.881-.308 3.574 3.574 0 0 1 2.285 1.886c.992 2.072-.086 4.842-.131 4.959l-.854-.338c.009-.025.976-2.519.156-4.227a2.656 2.656 0 0 0-1.726-1.4 2.236 2.236 0 0 0-2.069.173c-1.224.884-1.284 3.208-1.284 3.231l-.02 1-.746-.671c-.033-.029-3.409-3.03-5.856-2.614a2.438 2.438 0 0 0-1.767 1.373 4.518 4.518 0 0 0 .339 5.14c1.553 1.982 4.494 2.757 7.493 1.97l.233.888a9.988 9.988 0 0 1-2.53.334z" transform="translate(-459.545 289.632)"/>
                    </g>
                </g>
                <g id="그룹_3384" data-name="그룹 3384" transform="translate(16.717 31.953)">
                    <g id="그룹_3383" data-name="그룹 3383">
                        <path id="패스_7613" data-name="패스 7613" class="cls-5" d="M466.708-277.157a7.89 7.89 0 0 1-6.313-2.814 5.95 5.95 0 0 1-.467-6.686 3.865 3.865 0 0 1 2.771-2.091c2.034-.35 4.3.912 5.7 1.9a4.612 4.612 0 0 1 1.609-2.6 3.6 3.6 0 0 1 3.318-.381 4.044 4.044 0 0 1 2.585 2.144c1.085 2.264-.068 5.229-.117 5.355a.954.954 0 0 1-1.239.535.954.954 0 0 1-.535-1.237 5.684 5.684 0 0 0 .169-3.833 2.189 2.189 0 0 0-1.425-1.142c-1.046-.323-1.49 0-1.635.1-.85.615-1.068 2.3-1.076 2.837a.953.953 0 0 1-.574.858.954.954 0 0 1-1.019-.166c-.891-.8-3.6-2.812-5.441-2.495a1.948 1.948 0 0 0-1.415 1.122 4.041 4.041 0 0 0 .293 4.6c1.431 1.827 4.169 2.533 6.977 1.8a.954.954 0 0 1 1.165.682.954.954 0 0 1-.68 1.164 10.485 10.485 0 0 1-2.652.348" transform="translate(-459.12 290.052)"/>
                    </g>
                </g>
                <g id="그룹_3386" data-name="그룹 3386" transform="translate(50.486 50.045)">
                    <g id="그룹_3385" data-name="그룹 3385">
                        <path id="패스_7614" data-name="패스 7614" class="cls-7" d="M507.582-269.743a3.415 3.415 0 0 1-1.1 2.861c-2.581 2.135-8.139 5.365-16.557 1.831a2.794 2.794 0 0 1-1.9-3.156c.425-1.724 2.116-.973 4.1-1.229a16.106 16.106 0 0 0 6.349-2c2.022-1.224 3.331-2.1 4.155-2.682a2.563 2.563 0 0 1 3.8.985c.128.218.26.459.394.727a7.123 7.123 0 0 1 .752 2.664" transform="translate(-487.953 274.604)"/>
                    </g>
                </g>
                <g id="그룹_3388" data-name="그룹 3388" transform="translate(49.246 48.873)">
                    <g id="그룹_3387" data-name="그룹 3387">
                        <path id="패스_7615" data-name="패스 7615" class="cls-5" d="M499.367-262.5a17.719 17.719 0 0 1-9.493-1.384c-.51-.213-2.19-.745-2.734-2.125a3.7 3.7 0 0 1-.131-2.247c.48-1.949 2.381-2.033 3.668-2.006a10.263 10.263 0 0 0 1.553-.048 15.439 15.439 0 0 0 6.094-1.911 49.852 49.852 0 0 0 4.64-3.087l.192-.143a.866.866 0 0 1 1.333.5v.018a.93.93 0 0 1-.365 1.053l-.184.137a46.533 46.533 0 0 1-4.939 3.429 16.564 16.564 0 0 1-6.6 2.093 11.421 11.421 0 0 1-1.735.056c-1.294-.027-1.6.054-1.695.459a.987.987 0 0 0 .028.635 2.528 2.528 0 0 0 1.347 1.191c8.217 3.449 14.078-.088 16.707-2.331a.689.689 0 0 1 1.083.267 1.255 1.255 0 0 1-.208 1.5 17.055 17.055 0 0 1-8.563 3.946" transform="translate(-486.895 275.605)"/>
                    </g>
                </g>
                <g id="그룹_3391" data-name="그룹 3391" transform="translate(81.077 99.602)">
                    <g id="그룹_3389" data-name="그룹 3389" transform="translate(.849 .848)">
                        <path id="패스_7616" data-name="패스 7616" class="cls-7" d="M514.8-229.249a31.324 31.324 0 0 1 .127 7.6s7.672 2.82 18.314-.921a24.384 24.384 0 0 0 .025-9s-7.047 3.747-18.465 2.319" transform="translate(-514.797 231.568)"/>
                    </g>
                    <g id="그룹_3390" data-name="그룹 3390">
                        <path id="패스_7617" data-name="패스 7617" class="cls-3" d="M522.33-219.643a23.571 23.571 0 0 1-7.575-1.082.847.847 0 0 1-.548-.91 30.646 30.646 0 0 0-.125-7.363.852.852 0 0 1 .232-.719.858.858 0 0 1 .712-.249c11.023 1.38 17.895-2.19 17.964-2.226a.853.853 0 0 1 .745-.025.847.847 0 0 1 .477.573 25.036 25.036 0 0 1-.018 9.372.847.847 0 0 1-.55.631 34.068 34.068 0 0 1-11.314 1.998zm-6.357-2.485a29.434 29.434 0 0 0 16.64-.953 24.626 24.626 0 0 0 .151-7.146 35.4 35.4 0 0 1-16.871 2.065 31.793 31.793 0 0 1 .08 6.034z" transform="translate(-514.072 232.292)"/>
                    </g>
                </g>
                <g id="그룹_3393" data-name="그룹 3393" transform="translate(54.729 83.883)">
                    <g id="그룹_3392" data-name="그룹 3392">
                        <path id="패스_7618" data-name="패스 7618" class="cls-3" d="M493.427-244.441c0 .7-.415 1.272-.925 1.272s-.925-.569-.925-1.272.413-1.272.925-1.272.925.569.925 1.272" transform="translate(-491.576 245.713)"/>
                    </g>
                </g>
                <g id="그룹_3395" data-name="그룹 3395" transform="translate(54.592 83.824)">
                    <g id="그룹_3394" data-name="그룹 3394">
                        <path id="패스_7619" data-name="패스 7619" class="cls-15" d="M493.308-244.491c0 .7-.413 1.271-.924 1.271s-.925-.569-.925-1.271.413-1.272.925-1.272.924.569.924 1.272" transform="translate(-491.459 245.763)"/>
                    </g>
                </g>
                <g id="그룹_3397" data-name="그룹 3397" transform="translate(55.464 114.923)">
                    <g id="그룹_3396" data-name="그룹 3396">
                        <path id="패스_7620" data-name="패스 7620" class="cls-3" d="M494.054-217.938c0 .7-.415 1.272-.925 1.272s-.925-.569-.925-1.272.415-1.272.925-1.272.925.569.925 1.272" transform="translate(-492.203 219.21)"/>
                    </g>
                </g>
                <g id="그룹_3399" data-name="그룹 3399" transform="translate(55.326 114.864)">
                    <g id="그룹_3398" data-name="그룹 3398">
                        <path id="패스_7621" data-name="패스 7621" class="cls-15" d="M493.936-217.989c0 .7-.415 1.272-.926 1.272s-.924-.569-.924-1.272.415-1.272.924-1.272.926.57.926 1.272" transform="translate(-492.086 219.261)"/>
                    </g>
                </g>
            </g>
            <g id="타원_1277" data-name="타원 1277" transform="translate(2296.574 769)" style="stroke:#8bceff;stroke-width:12px;fill:none">
                <circle cx="111.5" cy="111.5" r="111.5" style="stroke:none"/>
                <circle class="cls-1" cx="111.5" cy="111.5" r="105.5"/>
            </g>
        </g>
        <g id="그룹_4412" data-name="그룹 4412" transform="translate(-1)">
            <g id="그룹_4411" data-name="그룹 4411" transform="translate(2791.457 423.301)">
                <g id="그룹_2595" data-name="그룹 2595" transform="translate(-341.734 372.049)">
                    <path id="패스_6380" data-name="패스 6380" class="cls-17" d="m-324.807 382.744-.55-.549-4.406-4.406-.549-.55-1.353-1.353a5.1 5.1 0 0 0-7.205 0l-12.534 12.534a1.491 1.491 0 0 0 0 2.107 6.3 6.3 0 0 0 8.9 0l.5-.5.505.505a6.3 6.3 0 0 0 8.9 0l.5-.5.5.5a6.3 6.3 0 0 0 8.9 0l2.828-2.827z" transform="translate(351.841 -374.394)"/>
                    <path id="선_424" data-name="선 424" transform="translate(10.618 9.767)" style="stroke-width:1.534px;stroke-linejoin:round;stroke-linecap:round;stroke:#90afea;fill:none" d="M0 5.088 5.088 0"/>
                    <path id="선_425" data-name="선 425" class="cls-19" transform="translate(20.65 13.255)" d="M0 1.48 1.48 0"/>
                </g>
                <g id="그룹_2596" data-name="그룹 2596" transform="translate(-278.873 372.476)">
                    <path id="패스_6381" data-name="패스 6381" class="cls-17" d="m-289.5 382.744.549-.549 4.406-4.406.55-.55 1.353-1.353a5.094 5.094 0 0 1 7.2 0l12.542 12.534a1.489 1.489 0 0 1 0 2.107 6.3 6.3 0 0 1-8.9 0l-.5-.5-.5.505a6.3 6.3 0 0 1-8.9 0l-.5-.5-.5.5a6.3 6.3 0 0 1-8.9 0l-2.827-2.827z" transform="translate(294.455 -374.394)"/>
                    <path id="패스_7842" data-name="패스 7842" d="M5.088 5.088 0 0" transform="translate(16.284 9.767)" style="stroke-width:1.534px;stroke-linecap:round;stroke:#90afea;fill:none"/>
                    <path id="선_427" data-name="선 427" class="cls-19" transform="translate(9.86 13.255)" d="M1.48 1.48 0 0"/>
                </g>
                <path id="패스_6382" data-name="패스 6382" d="M-328.358 371.79v17.125a44.392 44.392 0 0 0 22.2 38.445l2.236 1.291a6.239 6.239 0 0 0 6.24 0l2.236-1.291a44.391 44.391 0 0 0 22.2-38.445V371.79a3.6 3.6 0 0 0-2.27-3.342l-21.851-8.672a9.307 9.307 0 0 0-6.862 0l-21.851 8.672a3.6 3.6 0 0 0-2.278 3.342z" transform="translate(6.693 -.422)" style="fill:#8bceff"/>
                <g id="그룹_2597" data-name="그룹 2597" transform="translate(-318.655 365.967)">
                    <path id="패스_6383" data-name="패스 6383" d="M-302.9 421.707a39.13 39.13 0 0 1-19.511-33.794v-14.694l20.231-8.029 20.231 8.029v14.694a39.133 39.133 0 0 1-19.511 33.794l-.72.415z" transform="translate(326.523 -365.19)" style="stroke:#5aabe6;stroke-width:2.167px;stroke-linejoin:round;stroke-linecap:round;fill:none"/>
                    <path id="패스_6384" data-name="패스 6384" class="cls-23" d="M-325.844 374.813V372.6a3.545 3.545 0 0 1 2.237-3.3l3.02-1.2" transform="translate(325.845 -364.615)"/>
                    <path id="선_428" data-name="선 428" class="cls-23" transform="translate(0 14.356)" d="M0 .764V0"/>
                </g>
            </g>
            <text id="LV.7" transform="translate(2480.148 819)" style="fill:#2478b5;font-size:20px;font-family:BMJUA,BM JUA_TTF;letter-spacing:-.06em"><tspan x="0" y="0">LV.7</tspan></text>
        </g>
    </g>
</svg>
