<svg xmlns="http://www.w3.org/2000/svg" width="247" height="223">
    <defs>
        <clipPath id="clip-path">
            <path id="패스_7436" data-name="패스 7436" class="cls-1" d="M325.029-261.075c6.827.159 7.162-7.222 7.162-7.222a18.867 18.867 0 0 1-13.02-.232s-.967 7.294 5.858 7.455" transform="translate(-319.124 268.53)"/>
        </clipPath>
        <style>
            .cls-1,.cls-18,.cls-21{fill:none}.cls-2{fill:#8cc7ea}.cls-3{fill:#36607b}.cls-4{fill:#335d76}.cls-6{fill:#fff}.cls-7{fill:#1770a3}.cls-8{fill:#f7efe5}.cls-9{fill:#bababa}.cls-11{fill:#ffbfc5}.cls-14{fill:#f7f8f8}.cls-15{fill:#2b2b2b}.cls-17{fill:#b4ceff}.cls-18,.cls-21{stroke:#5d85d0;stroke-width:1.534px;stroke-linecap:round;stroke-linejoin:round}.cls-21{stroke:#e6fff3;stroke-width:1.942px}
        </style>
    </defs>
    <g id="그룹_4421" data-name="그룹 4421" transform="translate(-1931.574 -769)">
        <g id="그룹_3599" data-name="그룹 3599" transform="translate(1979.312 812.517)">
            <g id="그룹_3026" data-name="그룹 3026" transform="translate(86.105 122.047)">
                <path id="패스_7379" data-name="패스 7379" class="cls-2" d="M346.556-213.192a10.2 10.2 0 0 0 9.313 4.982s2.88 5.7 8.036 4.484 6.557-4.617 6.557-4.617c-9-8.664-14.223-.567-14.223-.567a11.15 11.15 0 0 1-7.639-6.19z" transform="translate(-345.964 215.936)"/>
                <path id="패스_7380" data-name="패스 7380" class="cls-3" d="M362.592-202.937c-3.878 0-6.279-3.6-6.889-4.639a10.771 10.771 0 0 1-9.461-5.244l-.174-.322 2.833-2.649.248.671a10.744 10.744 0 0 0 7 5.808 8.5 8.5 0 0 1 5.581-3.315c2.9-.339 5.994 1.036 9.163 4.087l.232.223-.122.3c-.062.148-1.554 3.643-6.887 4.9a6.656 6.656 0 0 1-1.524.18zm-6.184-5.318c.229.439 2.885 5.3 7.492 4.213 4.03-.95 5.632-3.244 6.083-4.054-2.859-2.673-5.6-3.881-8.133-3.588a7.736 7.736 0 0 0-5.111 3.178l-.189.291zm-9.145-4.707a9.617 9.617 0 0 0 8.242 4.443 11.771 11.771 0 0 1-6.96-5.641z" transform="translate(-346.067 215.791)"/>
            </g>
            <g id="그룹_3027" data-name="그룹 3027" transform="translate(84.79 120.974)">
                <path id="패스_7381" data-name="패스 7381" class="cls-4" d="M348.931-214.771a11.154 11.154 0 0 0 7.639 6.195 7.993 7.993 0 0 1 6.25-3.438c2.157 0 4.835.984 7.973 4 0 0-1.4 3.4-6.557 4.617a6.177 6.177 0 0 1-1.426.169c-4.258 0-6.61-4.655-6.61-4.655-.238.017-.47.024-.7.024a10.245 10.245 0 0 1-8.615-5l2.043-1.913m0-1.906a1.9 1.9 0 0 0-1.3.515l-2.045 1.912a1.905 1.905 0 0 0-.374 2.3 12.154 12.154 0 0 0 9.933 6c1.123 1.654 3.7 4.637 7.667 4.637a8.131 8.131 0 0 0 1.863-.22c6.04-1.422 7.81-5.571 7.882-5.747a1.906 1.906 0 0 0-.441-2.1c-3.127-3.01-6.255-4.536-9.295-4.537a9.528 9.528 0 0 0-6.9 3.131 9.153 9.153 0 0 1-5.2-4.632 1.907 1.907 0 0 0-1.347-1.2 1.969 1.969 0 0 0-.443-.052" transform="translate(-344.981 216.677)"/>
            </g>
            <g id="그룹_3028" data-name="그룹 3028" transform="translate(96.091 125.509)">
                <path id="패스_7382" data-name="패스 7382" d="M354.316-208.514s2.69 5.572 7.846 4.357 6.674-4.643 6.674-4.643c-9-8.664-13.86-1.011-13.86-1.011z" transform="translate(-354.316 212.931)" style="fill:#9ee630"/>
            </g>
            <g id="그룹_3029" data-name="그룹 3029" transform="translate(94.185 123.603)">
                <path id="패스_7383" data-name="패스 7383" class="cls-4" d="M361.064-212.6c2.138 0 4.851 1 8.1 4.132 0 0-1.518 3.428-6.675 4.644a6.34 6.34 0 0 1-1.448.173c-4.209 0-6.4-4.531-6.4-4.531l.66-1.3a7.239 7.239 0 0 1 5.756-3.121m0-1.906a9.173 9.173 0 0 0-7.357 4.009c-.031.051-.062.1-.088.157l-.661 1.3a1.91 1.91 0 0 0-.017 1.694c.111.229 2.769 5.607 8.113 5.607a8.239 8.239 0 0 0 1.886-.224c6.008-1.415 7.9-5.551 7.98-5.726a1.907 1.907 0 0 0-.42-2.145c-3.217-3.1-6.388-4.664-9.427-4.664" transform="translate(-352.741 214.505)"/>
            </g>
            <g id="그룹_3030" data-name="그룹 3030" transform="translate(95.712 128.383)">
                <path id="패스_7384" data-name="패스 7384" class="cls-4" d="M361.035-207.359c-2.876 0-6.051-.593-6.85-1.683a.954.954 0 0 1 .206-1.332.954.954 0 0 1 1.316.183c.7.622 6.2 1.473 8.663.5a.955.955 0 0 1 1.237.536.954.954 0 0 1-.538 1.236 11.971 11.971 0 0 1-4.035.557m-5.317-2.816.006.008-.006-.008" transform="translate(-354.002 210.557)"/>
            </g>
            <g id="그룹_3031" data-name="그룹 3031" transform="translate(30.434 65.719)">
                <path id="패스_7385" data-name="패스 7385" class="cls-2" d="M302.465-241.935c-1.752 8.589-4.068 30.658 4.3 49.651a4.006 4.006 0 0 0 1.977 2.027c2.025.933 6.281 1.983 13.635-.077a4.115 4.115 0 0 0 2.958-3.471l.284-2.352c.28-2.307 2.408-5.124 4.706-4.771.033 0 .065.01.1.015a4.126 4.126 0 0 1 3.388 3.052l1.468 6.9a4.088 4.088 0 0 0 2.673 2.881 26.939 26.939 0 0 0 8.168.977c5.309 0 8.564-1.264 10.3-2.249a4.071 4.071 0 0 0 1.95-2.7 118.98 118.98 0 0 0-.266-47.061 94.217 94.217 0 0 0-6.35-18.7l-44.883 2.053a135.926 135.926 0 0 0-4.408 13.83" transform="translate(-299.932 262.473)"/>
                <path id="패스_7386" data-name="패스 7386" class="cls-3" d="M346.273-186.073a28.294 28.294 0 0 1-8.439-1.021 4.932 4.932 0 0 1-3.252-3.5l-1.476-6.937a3.231 3.231 0 0 0-2.66-2.367 2.394 2.394 0 0 0-1.818.525 5.527 5.527 0 0 0-1.988 3.47l-.284 2.35a4.971 4.971 0 0 1-3.591 4.21c-7.353 2.06-11.8 1.154-14.239.03a4.872 4.872 0 0 1-2.413-2.47c-9.7-22-4.934-47.36-4.361-50.179l.008-.038a138.092 138.092 0 0 1 4.44-13.934.874.874 0 0 1 .777-.559l43.549-1.993-1.263-2.577a.857.857 0 0 1-.09-.385.874.874 0 0 1 .491-.788.875.875 0 0 1 1.172.4l1.851 3.777a95.931 95.931 0 0 1 6.42 18.9 120.081 120.081 0 0 1 .268 47.428 4.952 4.952 0 0 1-2.375 3.294c-1.894 1.078-5.293 2.364-10.727 2.364zm-16.194-15.609a3.416 3.416 0 0 1 .531.041 5.026 5.026 0 0 1 4.2 3.714l1.476 6.937a3.175 3.175 0 0 0 2.087 2.229 26.1 26.1 0 0 0 7.9.935c5.051 0 8.151-1.161 9.862-2.134a3.2 3.2 0 0 0 1.528-2.123 118.226 118.226 0 0 0-.269-46.7 95.1 95.1 0 0 0-6.028-17.974l-43.729 2a134.73 134.73 0 0 0-4.168 13.175c-.58 2.853-5.208 27.646 4.249 49.1a3.129 3.129 0 0 0 1.542 1.585c1.777.817 5.83 1.891 13.032-.126a3.22 3.22 0 0 0 2.322-2.734l.284-2.35a7.317 7.317 0 0 1 2.671-4.656 4.153 4.153 0 0 1 2.51-.919z" transform="translate(-300.08 262.32)"/>
            </g>
            <g id="그룹_3032" data-name="그룹 3032" transform="translate(37.71 131.97)">
                <path id="패스_7387" data-name="패스 7387" class="cls-6" d="M306.816-202.639s-.1-4.231 2.853-4.231 3.445 5.954 3.445 5.954a9.948 9.948 0 0 1-3.641-.541 7.528 7.528 0 0 1-2.657-1.182" transform="translate(-305.938 207.746)"/>
                <path id="패스_7388" data-name="패스 7388" class="cls-3" d="M312.895-199.874a11.885 11.885 0 0 1-3.535-.6 7.984 7.984 0 0 1-3.012-1.4.879.879 0 0 1-.255-.6 6.346 6.346 0 0 1 1.37-4.161 3.215 3.215 0 0 1 2.359-.967c3.655 0 4.262 6.066 4.318 6.758a.877.877 0 0 1-.786.945c-.02.009-.181.025-.459.025zm-5.035-3.074a11.983 11.983 0 0 0 2.031.806 10.8 10.8 0 0 0 2.375.485c-.309-1.776-1.1-4.184-2.444-4.184a1.449 1.449 0 0 0-1.1.435 4.236 4.236 0 0 0-.862 2.458z" transform="translate(-306.091 207.594)"/>
            </g>
            <g id="그룹_3033" data-name="그룹 3033" transform="translate(46.294 131.858)">
                <path id="패스_7389" data-name="패스 7389" class="cls-6" d="M313.922-200.976a19.954 19.954 0 0 0 6.334-1.179s-.5-5.167-3.977-4.786c-2.689.294-2.357 5.965-2.357 5.965" transform="translate(-313.029 207.839)"/>
                <path id="패스_7390" data-name="패스 7390" class="cls-3" d="M314.112-199.945h-.047a.876.876 0 0 1-.864-.826c-.039-.665-.281-6.513 3.137-6.888a3.583 3.583 0 0 1 2.749.789c1.86 1.511 2.183 4.652 2.2 4.784a.878.878 0 0 1-.574.909 20.838 20.838 0 0 1-6.601 1.232zm2.678-5.985a2.434 2.434 0 0 0-.261.015c-1.161.127-1.545 2.517-1.587 4.18a19.978 19.978 0 0 0 4.485-.858 5.392 5.392 0 0 0-1.449-2.919 1.82 1.82 0 0 0-1.188-.419z" transform="translate(-313.182 207.686)"/>
            </g>
            <g id="그룹_3034" data-name="그룹 3034" transform="translate(67.027 133.682)">
                <path id="패스_7391" data-name="패스 7391" class="cls-6" d="M331.032-200.493s.226-4.963 3.179-4.963 3.471 6.2 3.471 6.2a19.873 19.873 0 0 1-4.036-.3 11.32 11.32 0 0 1-2.614-.939" transform="translate(-330.155 206.333)"/>
                <path id="패스_7392" data-name="패스 7392" class="cls-3" d="M337.291-198.217a21.737 21.737 0 0 1-3.644-.32 12.242 12.242 0 0 1-2.861-1.022.88.88 0 0 1-.478-.822c.1-2.154 1.063-5.8 4.056-5.8 3.654 0 4.284 6.285 4.344 7a.878.878 0 0 1-.212.649.884.884 0 0 1-.615.3 7.783 7.783 0 0 1-.59.015zm-5.172-2.654a8.821 8.821 0 0 0 1.83.607 20.077 20.077 0 0 0 2.89.286c-.309-1.866-1.114-4.448-2.476-4.448-1.584 0-2.092 2.426-2.244 3.556z" transform="translate(-330.307 206.18)"/>
            </g>
            <g id="그룹_3035" data-name="그룹 3035" transform="translate(76.565 133.895)">
                <path id="패스_7393" data-name="패스 7393" class="cls-6" d="M338.924-199.14a26.459 26.459 0 0 0 6.43-1.057s-.567-5.443-4.043-5.062c-2.687.293-2.386 6.118-2.386 6.118" transform="translate(-338.034 206.156)"/>
                <path id="패스_7394" data-name="패스 7394" class="cls-3" d="M339.077-198.111a.875.875 0 0 1-.875-.83c-.035-.682-.247-6.664 3.166-7.037a3.525 3.525 0 0 1 2.694.777c1.932 1.559 2.3 4.925 2.317 5.066a.877.877 0 0 1-.627.932 27.141 27.141 0 0 1-6.666 1.092zm2.726-6.138a2.12 2.12 0 0 0-.245.015c-1.167.127-1.563 2.6-1.612 4.322a27.2 27.2 0 0 0 4.566-.768 5.855 5.855 0 0 0-1.556-3.158 1.784 1.784 0 0 0-1.156-.411z" transform="translate(-338.187 206.004)"/>
            </g>
            <g id="그룹_3036" data-name="그룹 3036" transform="translate(24.606 102.477)">
                <path id="패스_7395" data-name="패스 7395" class="cls-2" d="M310.1-227.561s1.927 9.48-1.424 10.1-3.363-2.95-3.363-2.95.684 5.253-5.22 4.695-4.2-10.553-2.447-15.514" transform="translate(-295.113 232.109)"/>
                <path id="패스_7396" data-name="패스 7396" class="cls-3" d="M301.1-214.647q-.449 0-.931-.046a4.686 4.686 0 0 1-3.686-2.217c-2.347-3.678-.792-10.822.5-14.463a.876.876 0 0 1 1.119-.534.877.877 0 0 1 .534 1.12c-1.28 3.616-2.516 10.044-.672 12.934a2.978 2.978 0 0 0 2.374 1.414 4.072 4.072 0 0 0 3.427-.862 3.68 3.68 0 0 0 .857-2.576 3.8 3.8 0 0 1-.023-.38.877.877 0 0 1 .82-.878.877.877 0 0 1 .927.761c0 .023.019.157.027.37a2.512 2.512 0 0 0 .717 1.573 1.862 1.862 0 0 0 1.589.258.9.9 0 0 0 .608-.441c1.045-1.547.626-6.109.116-8.622a.878.878 0 0 1 .685-1.034.882.882 0 0 1 1.034.685c.15.738 1.415 7.29-.381 9.951a2.676 2.676 0 0 1-1.743 1.185 3.541 3.541 0 0 1-3.033-.637c-.051-.044-.1-.086-.147-.13a4.4 4.4 0 0 1-.784 1.123 5.226 5.226 0 0 1-3.934 1.446z" transform="translate(-295.266 231.957)"/>
            </g>
            <g id="그룹_3037" data-name="그룹 3037" transform="translate(36.89 72.184)">
                <path id="패스_7397" data-name="패스 7397" class="cls-6" d="M307.738-214.418a107.193 107.193 0 0 1 33.835 2.058l-5.486-42.523-21.719-1.372-8.23 41.608" transform="translate(-305.26 257.132)"/>
                <path id="패스_7398" data-name="패스 7398" class="cls-3" d="M341.726-211.331a.864.864 0 0 1-.2-.023A107.233 107.233 0 0 0 308-213.4a.874.874 0 0 1-.958-.648.877.877 0 0 1-.922.409.876.876 0 0 1-.69-1.03l8.231-41.608a.881.881 0 0 1 .915-.706l21.718 1.372a.876.876 0 0 1 .815.763l5.491 42.528a.876.876 0 0 1-.282.763.873.873 0 0 1-.592.226zm-23.54-4.315a107.143 107.143 0 0 1 22.51 2.3l-5.234-40.554-20.23-1.277-7.973 40.306a.879.879 0 0 1 .521-.263 93.678 93.678 0 0 1 10.406-.511z" transform="translate(-305.413 256.979)"/>
            </g>
            <g id="그룹_3038" data-name="그룹 3038" transform="translate(24.676 101.639)">
                <path id="패스_7399" data-name="패스 7399" class="cls-7" d="m310.473-229.179-.163 4.9s-3.217 1.775-8.288.391-5.973-1.939-5.973-1.939l.622-6.1z" transform="translate(-295.172 232.801)"/>
                <path id="패스_7400" data-name="패스 7400" class="cls-3" d="M305.976-222.33a15.29 15.29 0 0 1-4.031-.559c-4.943-1.349-6.035-1.936-6.2-2.039a.878.878 0 0 1-.413-.835l.622-6.1a.877.877 0 0 1 .351-.615.884.884 0 0 1 .692-.155l13.8 2.746a.878.878 0 0 1 .706.889l-.163 4.9a.875.875 0 0 1-.453.738 10.794 10.794 0 0 1-4.911 1.03zm-8.839-3.885a54.889 54.889 0 0 0 5.269 1.634 11.694 11.694 0 0 0 7.2-.126l.12-3.605-12.126-2.412z" transform="translate(-295.324 232.649)"/>
            </g>
            <g id="그룹_3039" data-name="그룹 3039" transform="translate(23.036 71.55)">
                <path id="패스_7401" data-name="패스 7401" class="cls-8" d="M308.155-256.779s10.958 3.172 9.481 17.722a103.529 103.529 0 0 0-3.04 10.56s-1.192 5.67-4.34 6.07c0 0-8.767-.142-12.86-3.731s-3.71-9.335 2.334-20.647c5.322-9.957 8.424-9.974 8.424-9.974" transform="translate(-293.817 257.655)"/>
                <path id="패스_7402" data-name="패스 7402" class="cls-3" d="M310.409-221.4h-.015c-.372-.006-9.139-.19-13.424-3.948-4.578-4.016-3.959-10.308 2.14-21.719 5.3-9.916 8.587-10.434 9.192-10.438.082.021.167.011.248.034.117.034 11.643 3.551 10.11 18.653a.849.849 0 0 1-.045.2 103.061 103.061 0 0 0-3.01 10.456c-.134.636-1.426 6.288-5.087 6.751a.843.843 0 0 1-.109.011zm-2.156-34.324c-.573.183-3.3 1.443-7.6 9.483-5.632 10.541-6.365 16.211-2.529 19.575 3.622 3.175 11.433 3.488 12.231 3.511 2.03-.324 3.237-3.978 3.533-5.373a105.3 105.3 0 0 1 3.035-10.57c1.241-12.65-7.232-16.128-8.67-16.624z" transform="translate(-293.969 257.503)"/>
            </g>
            <g id="그룹_3040" data-name="그룹 3040" transform="translate(28.22 69.088)">
                <path id="패스_7403" data-name="패스 7403" class="cls-7" d="M321.39-257.866s-4.166 26.213-2.57 47.141c0 0-12.888-.93-17.959 1.987a7.556 7.556 0 0 1-1.623-7.15c1.093-4.586 4.809-33.567 8.023-41.609 0 0 5.9-2.684 14.13-.368" transform="translate(-298.099 259.69)"/>
                <path id="패스_7404" data-name="패스 7404" class="cls-3" d="M301.013-207.709a.877.877 0 0 1-.6-.238 8.389 8.389 0 0 1-1.874-7.991c.324-1.361.9-5 1.622-9.6 1.657-10.529 4.164-26.439 6.439-32.13a.877.877 0 0 1 .45-.472c.253-.115 6.283-2.789 14.731-.414a.879.879 0 0 1 .628.982c-.041.261-4.131 26.355-2.56 46.936a.882.882 0 0 1-.253.686.9.9 0 0 1-.685.255c-.126-.008-12.68-.876-17.458 1.872a.877.877 0 0 1-.44.114zm7.08-48.963c-2.167 5.8-4.588 21.165-6.2 31.405-.731 4.641-1.307 8.307-1.648 9.734a6.933 6.933 0 0 0 .985 5.848c4.693-2.2 13.752-1.97 16.8-1.821-1.247-18.589 1.872-41.108 2.53-45.562a21.773 21.773 0 0 0-12.467.396z" transform="translate(-298.252 259.537)"/>
            </g>
            <g id="그룹_3041" data-name="그룹 3041" transform="translate(55.595 67.792)">
                <path id="패스_7405" data-name="패스 7405" class="cls-7" d="m321.588-256.152 3.2 45.131s17.982 2.575 33.159-.062c0 0 7.366-1.568 3.542-12.2-4.028-11.2-11.151-36.6-11.151-36.6z" transform="translate(-320.712 260.76)"/>
                <path id="패스_7406" data-name="패스 7406" class="cls-3" d="M342.552-208.876A141.2 141.2 0 0 1 324.818-210a.877.877 0 0 1-.752-.805l-3.2-45.131a.877.877 0 0 1 .761-.932l28.75-3.731a.873.873 0 0 1 .958.633c.071.254 7.161 25.5 11.133 36.539 1.488 4.137 1.539 7.5.151 9.99a7.035 7.035 0 0 1-4.336 3.364 93.822 93.822 0 0 1-15.731 1.197zm-16.786-2.769c3.45.431 18.994 2.143 32.185-.15a5.249 5.249 0 0 0 3.151-2.523c1.115-2.028 1.019-4.893-.284-8.517-3.61-10.035-9.763-31.68-10.964-35.928l-27.178 3.526z" transform="translate(-320.864 260.607)"/>
            </g>
            <g id="그룹_3042" data-name="그룹 3042" transform="translate(58.34 116.654)">
                <path id="패스_7407" data-name="패스 7407" class="cls-7" d="m324.311-219.52-.455 7.479s17.6 5.466 33.133-.207l.195-6.7s-17.844 1.511-32.873-.568" transform="translate(-322.979 220.398)"/>
                <path id="패스_7408" data-name="패스 7408" class="cls-3" d="M341.229-208.623a64.46 64.46 0 0 1-17.481-2.427.877.877 0 0 1-.615-.891l.455-7.479a.877.877 0 0 1 .32-.626.873.873 0 0 1 .676-.19c14.755 2.041 32.5.577 32.679.563a.875.875 0 0 1 .676.236.876.876 0 0 1 .275.663l-.195 6.7a.877.877 0 0 1-.576.8 47.453 47.453 0 0 1-16.214 2.651zm-16.3-3.916c3.269.885 18.1 4.415 31.356-.18l.149-5.133c-3.859.269-18.414 1.1-31.149-.522z" transform="translate(-323.132 220.245)"/>
            </g>
            <g id="그룹_3043" data-name="그룹 3043" transform="translate(52.684 78.566)">
                <path id="패스_7409" data-name="패스 7409" class="cls-6" d="m365.97-214.222-44.6-3.444c-1.6-.142-3.045-.761-2.9-2.363l2.541-29.01a2.932 2.932 0 0 1 3.168-2.657l44.73 3.919a2.931 2.931 0 0 1 2.657 3.167l-2.428 27.731a2.932 2.932 0 0 1-3.168 2.657" transform="translate(-318.46 251.707)"/>
            </g>
            <g id="그룹_3044" data-name="그룹 3044" transform="translate(51.732 77.613)">
                <path id="패스_7410" data-name="패스 7410" class="cls-4" d="M366.395-213.091c-.111 0-.224 0-.338-.013l-44.591-3.447a5.323 5.323 0 0 1-2.57-.8 2.738 2.738 0 0 1-1.209-2.6l2.54-29.01a3.85 3.85 0 0 1 1.374-2.629 3.869 3.869 0 0 1 2.828-.895l44.73 3.919a3.882 3.882 0 0 1 3.523 4.2l-2.428 27.731a3.855 3.855 0 0 1-1.375 2.635 3.849 3.849 0 0 1-2.484.909m-42.307-37.5a1.957 1.957 0 0 0-1.264.464 1.957 1.957 0 0 0-.7 1.334l-2.541 29.011a.836.836 0 0 0 .389.861 3.583 3.583 0 0 0 1.65.468l44.585 3.445h.011a1.94 1.94 0 0 0 1.436-.456 1.955 1.955 0 0 0 .7-1.335l2.43-27.731a1.964 1.964 0 0 0-.456-1.436 1.956 1.956 0 0 0-1.335-.7l-44.73-3.917c-.058 0-.116-.007-.173-.007" transform="translate(-317.673 252.494)"/>
            </g>
            <g id="그룹_3045" data-name="그룹 3045" transform="translate(54.522 79.162)">
                <path id="패스_7411" data-name="패스 7411" class="cls-6" d="m367.378-213.729-44.73-3.917a2.934 2.934 0 0 1-2.658-3.168l2.43-27.731a2.932 2.932 0 0 1 3.168-2.658l44.73 3.919a2.932 2.932 0 0 1 2.657 3.168l-2.43 27.73a2.931 2.931 0 0 1-3.167 2.658" transform="translate(-319.978 251.215)"/>
            </g>
            <g id="그룹_3046" data-name="그룹 3046" transform="translate(53.569 78.208)">
                <path id="패스_7412" data-name="패스 7412" class="cls-4" d="M367.8-212.6c-.113 0-.226 0-.34-.013l-44.73-3.92a3.882 3.882 0 0 1-3.524-4.2l2.43-27.732a3.882 3.882 0 0 1 4.2-3.524l44.73 3.92a3.88 3.88 0 0 1 3.524 4.2l-2.43 27.732a3.881 3.881 0 0 1-3.86 3.537m-.174-1.913a1.966 1.966 0 0 0 2.135-1.792l2.428-27.732a1.971 1.971 0 0 0-1.792-2.134l-44.729-3.918a1.963 1.963 0 0 0-2.135 1.792l-2.428 27.73a1.972 1.972 0 0 0 1.791 2.135z" transform="translate(-319.191 252.003)"/>
            </g>
            <g id="그룹_3047" data-name="그룹 3047" transform="translate(58.944 94.481)">
                <path id="패스_7413" data-name="패스 7413" class="cls-9" d="m324.606-236.279-.131 1.279-.844-.064.356-3.5 1.432.109a.687.687 0 0 1 .725.84l-.084.814c-.065.528-.23.869-.88.682zm.069-.68.321.076c.171.042.241.018.259-.15l.047-.471a.242.242 0 0 0-.253-.293l-.286-.023z" transform="translate(-323.631 238.561)"/>
            </g>
            <g id="그룹_3048" data-name="그룹 3048" transform="translate(61.479 94.67)">
                <path id="패스_7414" data-name="패스 7414" class="cls-9" d="m328.248-238.234-.283 2.766c-.061.6-.585.772-1.2.724s-1.1-.3-1.035-.895l.281-2.766.849.064-.269 2.639c-.016.151.087.242.246.253a.243.243 0 0 0 .293-.212l.269-2.639z" transform="translate(-325.725 238.405)"/>
            </g>
            <g id="그룹_3049" data-name="그룹 3049" transform="translate(64.038 94.866)">
                <path id="패스_7415" data-name="패스 7415" class="cls-9" d="m330.154-235.829-.053.525c-.061.594-.586.771-1.2.723s-1.116-.3-1.056-.9l.207-2.035c.062-.6.586-.77 1.2-.724s1.1.3 1.036.895l-.041.4-.847-.055.028-.272c.016-.151-.092-.242-.249-.254a.247.247 0 0 0-.3.212l-.182 1.78c-.016.151.093.242.251.254a.248.248 0 0 0 .3-.213l.04-.4z" transform="translate(-327.839 238.243)"/>
            </g>
            <g id="그룹_3050" data-name="그룹 3050" transform="translate(66.539 95.059)">
                <path id="패스_7416" data-name="패스 7416" class="cls-9" d="M330.117-237.354c.061-.594.585-.77 1.2-.723s1.1.3 1.036.895l-.208 2.034c-.061.6-.586.771-1.2.725s-1.1-.3-1.036-.9zm.643 1.971c-.017.153.1.243.257.255a.256.256 0 0 0 .306-.212l.18-1.778c.017-.151-.1-.243-.257-.255a.255.255 0 0 0-.306.213z" transform="translate(-329.905 238.084)"/>
            </g>
            <g id="그룹_3051" data-name="그룹 3051" transform="translate(30.105 116.884)">
                <path id="패스_7417" data-name="패스 7417" class="cls-7" d="m300.533-217.053 1.435 6.811s11.478-3.022 16.354-1.8l.171-7s-10.929-1.392-17.959 1.988" transform="translate(-299.656 220.209)"/>
                <path id="패스_7418" data-name="패스 7418" class="cls-3" d="M302.12-209.212a.877.877 0 0 1-.46-.131.877.877 0 0 1-.4-.565l-1.435-6.811a.879.879 0 0 1 .478-.971c7.181-3.453 17.994-2.125 18.451-2.068a.878.878 0 0 1 .765.892l-.171 7a.875.875 0 0 1-.345.677.881.881 0 0 1-.745.153c-4.6-1.154-15.8 1.767-15.917 1.8a.881.881 0 0 1-.221.024zm-.431-7.179 1.1 5.23c2.622-.638 10.306-2.353 14.832-1.774l.126-5.162c-2.499-.226-10.431-.692-16.058 1.706z" transform="translate(-299.809 220.055)"/>
            </g>
            <g id="그룹_3052" data-name="그룹 3052" transform="translate(77.426 101.916)">
                <path id="패스_7419" data-name="패스 7419" class="cls-2" d="M340.907-229.526s-3.037 9.184.217 10.2 3.688-2.533 3.688-2.533-1.3 5.135 4.629 5.281 5.422-9.98 4.266-15.114" transform="translate(-338.745 232.573)"/>
                <path id="패스_7420" data-name="패스 7420" class="cls-3" d="M349.72-215.549h-.149a5.686 5.686 0 0 1-4.662-1.964 4.406 4.406 0 0 1-.645-1.208 3.255 3.255 0 0 1-.161.111 3.535 3.535 0 0 1-3.088.272 2.672 2.672 0 0 1-1.588-1.382c-1.468-2.856.564-9.211.8-9.927a.878.878 0 0 1 1.108-.557.878.878 0 0 1 .558 1.108c-.8 2.433-1.76 6.914-.907 8.575a.906.906 0 0 0 .551.51 1.877 1.877 0 0 0 1.609-.068 2.51 2.51 0 0 0 .9-1.481c.033-.209.065-.339.07-.362a.878.878 0 0 1 1.012-.646.876.876 0 0 1 .708.968 3.892 3.892 0 0 1-.068.378 3.675 3.675 0 0 0 .547 2.658 4.08 4.08 0 0 0 3.3 1.261 3.017 3.017 0 0 0 2.525-1.123c2.173-2.65 1.708-9.18.866-12.922a.877.877 0 0 1 .662-1.048.876.876 0 0 1 1.048.663c.849 3.767 1.547 11.044-1.22 14.419a4.669 4.669 0 0 1-3.776 1.765z" transform="translate(-338.897 232.42)"/>
            </g>
            <g id="그룹_3053" data-name="그룹 3053" transform="translate(78.122 101.199)">
                <path id="패스_7421" data-name="패스 7421" class="cls-7" d="m340.616-231.2-.419 4.885s2.983 2.143 8.182 1.37 6.161-1.218 6.161-1.218l.105-6.128z" transform="translate(-339.32 233.164)"/>
                <path id="패스_7422" data-name="패스 7422" class="cls-3" d="M346.3-223.744a11.614 11.614 0 0 1-6.463-1.7.878.878 0 0 1-.362-.788l.419-4.884a.876.876 0 0 1 .806-.8l14.03-1.091a.881.881 0 0 1 .669.236.875.875 0 0 1 .275.654l-.105 6.128a.877.877 0 0 1-.51.781c-.179.084-1.332.536-6.4 1.288a15.911 15.911 0 0 1-2.359.176zm-5.031-2.891a11.7 11.7 0 0 0 7.133.977 54.548 54.548 0 0 0 5.423-1l.079-4.531-12.326.959z" transform="translate(-339.472 233.012)"/>
            </g>
            <g id="그룹_3054" data-name="그룹 3054" transform="translate(74.779 70.672)">
                <path id="패스_7423" data-name="패스 7423" class="cls-8" d="M347.593-257.5s-6.094.469-10.158 7.189c0 0-.023 14.194.49 19.453 0 0 .513 5.772 3.591 6.542 0 0 8.722.9 13.211-2.18s4.973-8.9.128-20.779c-3.98-9.756-7.262-10.225-7.262-10.225" transform="translate(-336.558 258.381)"/>
                <path id="패스_7424" data-name="패스 7424" class="cls-3" d="M344.591-223.165c-1.69 0-2.88-.116-3.012-.131a.7.7 0 0 1-.122-.022c-3.58-.895-4.195-6.66-4.253-7.314-.511-5.233-.494-18.951-.493-19.532a.864.864 0 0 1 .127-.453c4.248-7.025 10.573-7.588 10.84-7.61a1.12 1.12 0 0 1 .191.006c.387.056 3.9.827 7.951 10.763 4.81 11.79 4.678 18.319-.444 21.832-3.028 2.077-7.726 2.461-10.785 2.461zm-2.767-1.869c.794.071 8.588.688 12.56-2.036 3.037-2.083 5.39-6.055-.188-19.724-3.293-8.072-6.02-9.469-6.528-9.667-.918.119-5.742.994-9.2 6.546 0 1.909.021 14.343.485 19.121.126 1.426.892 5.194 2.87 5.759z" transform="translate(-336.711 258.228)"/>
            </g>
            <g id="그룹_3055" data-name="그룹 3055" transform="translate(36.374 81.173)">
                <path id="패스_7425" data-name="패스 7425" d="M313.916-243.782c-.293 2.933-2.522 5.112-4.978 4.865s-4.212-2.821-3.92-5.753 2.522-5.111 4.979-4.867 4.212 2.822 3.919 5.754" transform="translate(-304.987 249.554)" style="fill:#e9f2f4"/>
            </g>
            <g id="그룹_3056" data-name="그룹 3056" transform="translate(0 3.982)">
                <path id="패스_7426" data-name="패스 7426" class="cls-2" d="M309.528-302.644s-4.495-11.932-20.785-9.664c-14.918 2.076-15.186 22.879-10.07 30.91a23.866 23.866 0 0 0-.163 22.3c6.094 12.295 24.609 13.749 30.514-1.473" transform="translate(-274.786 313.469)"/>
                <path id="패스_7427" data-name="패스 7427" class="cls-3" d="M293.963-248.485a18.01 18.01 0 0 1-16.084-10.07 24.714 24.714 0 0 1-.069-22.678c-3.077-5.3-4.213-15.326-.708-22.917a14.67 14.67 0 0 1 11.675-8.875c8.739-1.219 14.172 1.6 17.192 4.183a16.389 16.389 0 0 1 4.531 6.042.875.875 0 0 1-.51 1.127.878.878 0 0 1-1.131-.507c-.176-.46-4.482-11.243-19.843-9.107a13.051 13.051 0 0 0-10.324 7.874c-3.255 7.049-2.177 16.911.873 21.7a.879.879 0 0 1 0 .936 23.2 23.2 0 0 0-.122 21.447 16.219 16.219 0 0 0 15.232 9.079c6.219-.281 11.205-4.1 13.68-10.48a.878.878 0 0 1 1.136-.5.878.878 0 0 1 .5 1.134c-2.7 6.954-8.393 11.289-15.237 11.6q-.392.012-.791.012z" transform="translate(-274.94 313.317)"/>
            </g>
            <g id="그룹_3057" data-name="그룹 3057" transform="translate(8.01 14.444)">
                <path id="패스_7428" data-name="패스 7428" class="cls-11" d="M303.161-298.036s-3.105-8.209-13.536-6.37c-9.55 1.683-9.343 16.126-5.909 21.618a17.718 17.718 0 0 0 .3 15.482c4.14 8.437 16.067 9.146 19.586-1.517" transform="translate(-281.558 304.675)"/>
            </g>
            <g id="그룹_3058" data-name="그룹 3058" transform="translate(20.9)">
                <path id="패스_7429" data-name="패스 7429" class="cls-2" d="M328.337-241.767c27.938.34 37.071-11.47 39.725-19.906 1.983-6.3.471-10.75.471-10.75 0-37.469-24.157-43.459-38.277-43.459-13.124 0-36.76 5.99-36.76 43.083a36.349 36.349 0 0 0-.429 9.443c.553 5.833 4.089 21.208 35.27 21.59" transform="translate(-292.053 316.758)"/>
                <path id="패스_7430" data-name="패스 7430" class="cls-3" d="M329.672-240.731c-.395 0-.789 0-1.192-.008-29.621-.361-35.352-14.177-36.133-22.383a37.119 37.119 0 0 1 .426-9.61c.039-39.6 26.329-43.874 37.636-43.874 11.76 0 39.094 4.309 39.153 44.2a19.769 19.769 0 0 1-.511 11.146c-2.426 7.714-10.773 20.528-39.379 20.529zm.737-74.123c-10.789 0-35.883 4.114-35.883 42.206a.83.83 0 0 1-.017.173 35.776 35.776 0 0 0-.415 9.187c1.686 17.749 22.281 20.647 34.408 20.794 28.445.344 36.564-11.938 38.877-19.291a18.032 18.032 0 0 0 .477-10.207.883.883 0 0 1-.046-.28c-.001-37.049-23.433-42.581-37.401-42.581z" transform="translate(-292.205 316.606)"/>
            </g>
            <g id="그룹_3059" data-name="그룹 3059" transform="translate(51.553 55.097)">
                <path id="패스_7431" data-name="패스 7431" class="cls-4" d="M325.975-267.246c-5.816 0-8.1-2.339-8.231-2.484a.81.81 0 0 1 .04-1.146.813.813 0 0 1 1.142.034c.073.074 4.5 4.362 17.267.022a.81.81 0 0 1 1.029.507.811.811 0 0 1-.507 1.029 33.624 33.624 0 0 1-10.739 2.039" transform="translate(-317.526 271.094)"/>
            </g>
            <g id="그룹_3060" data-name="그룹 3060" transform="translate(53.488 58.2)">
                <path id="패스_7432" data-name="패스 7432" d="M319.171-268.531a18.866 18.866 0 0 0 13.021.234s-.338 7.381-7.163 7.221-5.858-7.455-5.858-7.455" transform="translate(-319.124 268.531)" style="fill:#cf7575"/>
            </g>
            <g id="그룹_3061" data-name="그룹 3061" transform="translate(51.868 56.579)">
                <path id="패스_7433" data-name="패스 7433" class="cls-4" d="M319.453-268.249a18.478 18.478 0 0 0 6.909 1.286 18 18 0 0 0 6.111-1.052s-.329 7.224-6.944 7.224h-.218c-6.825-.161-5.858-7.456-5.858-7.456m0-1.621a1.638 1.638 0 0 0-.8.207 1.623 1.623 0 0 0-.815 1.2c-.023.168-.521 4.154 1.814 6.881a7.255 7.255 0 0 0 5.615 2.409h.255a7.822 7.822 0 0 0 7.4-4.5 11.751 11.751 0 0 0 1.159-4.179 1.456 1.456 0 0 0 .007-.162 1.62 1.62 0 0 0-1.611-1.622h-.068a1.625 1.625 0 0 0-.528.107 16.329 16.329 0 0 1-5.528.944 17.192 17.192 0 0 1-6.25-1.144 1.614 1.614 0 0 0-.656-.139" transform="translate(-317.786 269.87)"/>
            </g>
            <g id="그룹_3065" data-name="그룹 3065" transform="translate(53.488 58.201)">
                <g id="그룹_3064" data-name="그룹 3064" style="clip-path:url(#clip-path)">
                    <g id="그룹_3062" data-name="그룹 3062" transform="translate(-.065 3.674)">
                        <path id="패스_7434" data-name="패스 7434" class="cls-11" d="M319.07-264.235a11.272 11.272 0 0 1 5.8-1.257 13.223 13.223 0 0 1 6.105 1.606 6.224 6.224 0 0 1-5.986 3.145 6.434 6.434 0 0 1-5.92-3.5" transform="translate(-319.07 265.495)"/>
                    </g>
                    <g id="그룹_3063" data-name="그룹 3063" transform="translate(-.877 2.863)">
                        <path id="패스_7435" data-name="패스 7435" class="cls-4" d="M325.349-259.784h-.236a7.2 7.2 0 0 1-6.65-3.994.81.81 0 0 1 .322-1 12.041 12.041 0 0 1 6.247-1.378 13.984 13.984 0 0 1 6.511 1.726.812.812 0 0 1 .314 1.028 6.96 6.96 0 0 1-6.507 3.623m-4.994-3.96a5.826 5.826 0 0 0 4.8 2.334 5.677 5.677 0 0 0 4.8-2.017 13.077 13.077 0 0 0-4.956-1.113 11.634 11.634 0 0 0-4.638.8m-1.144-.35z" transform="translate(-318.4 266.165)"/>
                    </g>
                </g>
            </g>
            <g id="그룹_3066" data-name="그룹 3066" transform="translate(67.399 40.522)">
                <path id="패스_7437" data-name="패스 7437" class="cls-4" d="M338.53-278.648a4.2 4.2 0 0 1-4.016 4.362 4.223 4.223 0 0 1-3.9-4.486 4.2 4.2 0 0 1 4.014-4.361 4.224 4.224 0 0 1 3.9 4.485" transform="translate(-330.615 283.133)"/>
            </g>
            <g id="그룹_3067" data-name="그룹 3067" transform="translate(67.779 29.773)">
                <path id="패스_7438" data-name="패스 7438" class="cls-4" d="M337.342-289.364a.877.877 0 0 1-.522-.172 3.915 3.915 0 0 0-2.183-.7 4.494 4.494 0 0 0-2.421.583.884.884 0 0 1-1.19-.384.883.883 0 0 1 .384-1.189 6.262 6.262 0 0 1 3.307-.777 5.65 5.65 0 0 1 3.149 1.045.884.884 0 0 1 .189 1.236.881.881 0 0 1-.713.361" transform="translate(-330.928 292.013)"/>
            </g>
            <g id="그룹_3068" data-name="그룹 3068" transform="translate(69.075 42.523)">
                <path id="패스_7439" data-name="패스 7439" class="cls-14" d="M334.146-280.331a1.09 1.09 0 0 1-1.109 1.075 1.1 1.1 0 0 1-1.037-1.15 1.091 1.091 0 0 1 1.109-1.074 1.1 1.1 0 0 1 1.038 1.149" transform="translate(-332 281.481)"/>
            </g>
            <g id="그룹_3069" data-name="그룹 3069" transform="translate(39.249 39.805)">
                <path id="패스_7440" data-name="패스 7440" class="cls-4" d="M315.812-278.47c-.034 2.863-1.954 5.152-4.288 5.112s-4.2-2.393-4.162-5.255 1.954-5.152 4.288-5.112 4.2 2.393 4.162 5.255" transform="translate(-307.362 283.725)"/>
            </g>
            <g id="그룹_3070" data-name="그룹 3070" transform="translate(39.599 29.773)">
                <path id="패스_7441" data-name="패스 7441" class="cls-4" d="M314.065-289.364a.881.881 0 0 1-.523-.172 3.915 3.915 0 0 0-2.183-.7 4.5 4.5 0 0 0-2.421.583.882.882 0 0 1-1.189-.384.882.882 0 0 1 .383-1.189 6.262 6.262 0 0 1 3.307-.777 5.654 5.654 0 0 1 3.15 1.045.885.885 0 0 1 .189 1.236.883.883 0 0 1-.713.361" transform="translate(-307.651 292.013)"/>
            </g>
            <g id="그룹_3071" data-name="그룹 3071" transform="translate(40.892 41.77)">
                <path id="패스_7442" data-name="패스 7442" class="cls-14" d="M310.867-280.953a1.094 1.094 0 0 1-1.11 1.076 1.1 1.1 0 0 1-1.036-1.151 1.089 1.089 0 0 1 1.109-1.074 1.1 1.1 0 0 1 1.037 1.149" transform="translate(-308.719 282.103)"/>
            </g>
            <g id="그룹_3072" data-name="그룹 3072" transform="translate(87.906 4.715)">
                <path id="패스_7443" data-name="패스 7443" class="cls-2" d="M348.279-302.039s4.494-11.933 20.785-9.664c14.918 2.076 15.184 22.879 10.069 30.91a23.866 23.866 0 0 1 .163 22.3c-6.094 12.295-24.609 13.749-30.514-1.474" transform="translate(-347.402 312.864)"/>
                <path id="패스_7444" data-name="패스 7444" class="cls-3" d="M364.15-247.88q-.4 0-.8-.018c-6.844-.309-12.539-4.645-15.237-11.6a.876.876 0 0 1 .5-1.134.878.878 0 0 1 1.134.5c2.476 6.381 7.462 10.2 13.681 10.481a16.244 16.244 0 0 0 15.23-9.079 23.2 23.2 0 0 0-.122-21.447.879.879 0 0 1 0-.936c3.051-4.788 4.129-14.649.874-21.7a13.053 13.053 0 0 0-10.324-7.871c-15.364-2.14-19.669 8.646-19.844 9.106a.877.877 0 0 1-1.131.507.875.875 0 0 1-.51-1.127c.047-.126 4.933-12.561 21.727-10.224a14.667 14.667 0 0 1 11.674 8.874c3.506 7.59 2.369 17.623-.708 22.918a24.71 24.71 0 0 1-.069 22.678 18.009 18.009 0 0 1-16.075 10.072z" transform="translate(-347.554 312.712)"/>
            </g>
            <g id="그룹_3073" data-name="그룹 3073" transform="translate(94.613 15.195)">
                <path id="패스_7445" data-name="패스 7445" class="cls-11" d="M353.538-297.414s3.106-8.21 13.536-6.373c9.55 1.683 9.343 16.128 5.909 21.619a17.718 17.718 0 0 1-.3 15.482c-4.14 8.435-16.067 9.146-19.586-1.517" transform="translate(-353.095 304.055)"/>
            </g>
            <g id="그룹_3074" data-name="그룹 3074" transform="translate(31.971 48.309)">
                <path id="패스_7446" data-name="패스 7446" class="cls-6" d="M322.117-271.734a3.1 3.1 0 0 1-1.305 2.673c-2.833 1.856-8.853 4.532-17.517.46-.981-.46-2.356-1.594-1.827-3.191.541-1.629 2.28-.772 4.385-.861a17.877 17.877 0 0 0 6.788-1.431c2.192-1.021 3.616-1.758 4.516-2.258a2.861 2.861 0 0 1 3.939 1.248c.125.22.251.464.375.732a6.532 6.532 0 0 1 .646 2.627" transform="translate(-301.35 276.701)"/>
            </g>
            <g id="그룹_3075" data-name="그룹 3075" transform="translate(31.13 47.145)">
                <path id="패스_7447" data-name="패스 7447" class="cls-4" d="M313.048-265.372a20.392 20.392 0 0 1-9.91-2.082 4.436 4.436 0 0 1-2.289-2.338 3.3 3.3 0 0 1-.017-2.177c.611-1.841 2.145-1.7 3.5-1.571a11.812 11.812 0 0 0 1.635.076 17.152 17.152 0 0 0 6.514-1.362 52.091 52.091 0 0 0 5.048-2.612l.208-.124a.814.814 0 0 1 1.178.659v.017a1.076 1.076 0 0 1-.443 1.15l-.2.119a53.223 53.223 0 0 1-5.181 2.681 18.324 18.324 0 0 1-7.061 1.5 13.081 13.081 0 0 1-1.827-.082c-1.36-.128-1.682-.073-1.807.309a.882.882 0 0 0 0 .615 2.667 2.667 0 0 0 1.352 1.254c8.456 3.972 14.813 1.023 17.7-.932a.766.766 0 0 1 1.125.343 1.128 1.128 0 0 1-.3 1.429 18.359 18.359 0 0 1-9.22 3.131" transform="translate(-300.655 277.663)"/>
            </g>
            <g id="그룹_3076" data-name="그룹 3076" transform="translate(25.55 36.998)">
                <path id="패스_7448" data-name="패스 7448" class="cls-2" d="M324.806-283.77s-9.964 16.381-21.975-.984a1.3 1.3 0 0 0-1.757-.372l-3.738 2.189c-.584.357-.584 1.051-.556 1.743.255 6.449 20.206 28.548 39.265 11.849" transform="translate(-295.893 286.197)"/>
                <path id="패스_7449" data-name="패스 7449" class="cls-3" d="M321.311-262.194a23.552 23.552 0 0 1-9.267-2c-9.041-3.886-15.826-12.742-15.987-16.816a2.549 2.549 0 0 1 .975-2.525l3.752-2.2a2.183 2.183 0 0 1 2.921.628c3.564 5.154 7.271 7.674 10.92 7.6 5.624-.165 9.548-6.509 9.587-6.572a.875.875 0 0 1 1.2-.294.876.876 0 0 1 .293 1.2c-.179.3-4.467 7.222-11.032 7.415-4.35.143-8.491-2.685-12.413-8.356a.424.424 0 0 0-.577-.122l-3.753 2.2c-.128.08-.144.425-.123.953.123 3.094 6.032 11.451 14.929 15.274 5.589 2.4 14.1 3.649 22.883-4.051a.879.879 0 0 1 1.237.081.877.877 0 0 1-.081 1.238c-5.422 4.76-10.758 6.347-15.464 6.347z" transform="translate(-296.046 286.044)"/>
            </g>
            <g id="그룹_3077" data-name="그룹 3077" transform="translate(49.918 44.176)">
                <path id="패스_7450" data-name="패스 7450" class="cls-2" d="M316.2-279.724s4.373.3 5.473 3.735" transform="translate(-316.169 280.197)"/>
                <path id="패스_7451" data-name="패스 7451" class="cls-3" d="M321.228-275.763c-.989-3.091-5.013-3.4-5.053-3.405l.065-.947c.191.013 4.708.366 5.891 4.063z" transform="translate(-316.175 280.115)"/>
            </g>
            <g id="그룹_3078" data-name="그룹 3078" transform="translate(49.029 43.727)">
                <path id="패스_7452" data-name="패스 7452" class="cls-3" d="M321.834-274.906a.919.919 0 0 1-.876-.642c-.892-2.784-4.623-3.093-4.661-3.1a.923.923 0 0 1-.853-.985.923.923 0 0 1 .982-.853c.2.015 5.013.39 6.288 4.374a.922.922 0 0 1-.6 1.159.914.914 0 0 1-.282.045" transform="translate(-315.441 280.486)"/>
            </g>
            <g id="그룹_3079" data-name="그룹 3079" transform="translate(45.073 45.942)">
                <path id="패스_7453" data-name="패스 7453" class="cls-2" d="M312.3-278.284a6.463 6.463 0 0 1 3.574 4.278" transform="translate(-312.146 278.734)"/>
                <path id="패스_7454" data-name="패스 7454" class="cls-3" d="M315.45-273.782a5.986 5.986 0 0 0-3.277-3.977l.309-.9a6.907 6.907 0 0 1 3.871 4.583z" transform="translate(-312.173 278.656)"/>
            </g>
            <g id="그룹_3080" data-name="그룹 3080" transform="translate(44.312 45.47)">
                <path id="패스_7455" data-name="패스 7455" class="cls-3" d="M316.034-272.923a.923.923 0 0 1-.878-.642 5.582 5.582 0 0 0-3-3.69.926.926 0 0 1-.558-1.174.918.918 0 0 1 1.162-.568 7.367 7.367 0 0 1 4.154 4.87.92.92 0 0 1-.6 1.159.945.945 0 0 1-.281.045" transform="translate(-311.544 279.046)"/>
            </g>
            <g id="그룹_3081" data-name="그룹 3081" transform="translate(39.463 45.292)">
                <path id="패스_7456" data-name="패스 7456" class="cls-2" d="M307.846-278.948a5.969 5.969 0 0 1 .912 5.379" transform="translate(-307.474 279.245)"/>
                <path id="패스_7457" data-name="패스 7457" class="cls-3" d="m309.268-273.357-.892-.323a5.533 5.533 0 0 0-.837-4.921l.742-.592a6.4 6.4 0 0 1 .987 5.836z" transform="translate(-307.539 279.193)"/>
            </g>
            <g id="그룹_3082" data-name="그룹 3082" transform="translate(38.915 44.668)">
                <path id="패스_7458" data-name="패스 7458" class="cls-3" d="M308.918-272.488a.922.922 0 0 1-.315-.055.924.924 0 0 1-.552-1.182 5 5 0 0 0-.768-4.493.923.923 0 0 1 .153-1.293.919.919 0 0 1 1.29.146 6.871 6.871 0 0 1 1.057 6.267.922.922 0 0 1-.866.608" transform="translate(-307.086 279.709)"/>
            </g>
            <g id="그룹_3083" data-name="그룹 3083" transform="translate(16.662 30.971)">
                <path id="패스_7459" data-name="패스 7459" class="cls-2" d="M303.761-284.1s1.932-4.871-1.8-6.024-3.813 3.706-3.813 3.706-5.8-5.223-8.051-1.083c-2.439 4.484 2.109 9.073 8.067 7.511" transform="translate(-288.552 291.175)"/>
                <path id="패스_7460" data-name="패스 7460" class="cls-3" d="M295.988-278.654a7.577 7.577 0 0 1-6.061-2.7 5.707 5.707 0 0 1-.448-6.411 3.688 3.688 0 0 1 2.645-2c1.977-.341 4.181.909 5.529 1.869a4.447 4.447 0 0 1 1.554-2.552 3.417 3.417 0 0 1 3.166-.362 3.865 3.865 0 0 1 2.47 2.048c1.04 2.169-.067 5.017-.114 5.137a.879.879 0 0 1-1.137.493.879.879 0 0 1-.5-1.137 5.524 5.524 0 0 0 .162-3.74 2.159 2.159 0 0 0-1.4-1.126 1.765 1.765 0 0 0-1.616.105c-.834.6-1.05 2.209-1.062 2.78a.877.877 0 0 1-.528.786.876.876 0 0 1-.935-.151c-.867-.777-3.507-2.731-5.3-2.421a1.923 1.923 0 0 0-1.4 1.105 3.949 3.949 0 0 0 .287 4.493c1.395 1.78 4.058 2.465 6.788 1.75a.878.878 0 0 1 1.07.626.875.875 0 0 1-.626 1.07 10.021 10.021 0 0 1-2.544.338z" transform="translate(-288.704 291.023)"/>
            </g>
            <g id="그룹_3084" data-name="그룹 3084" transform="translate(49.637 48.801)">
                <path id="패스_7461" data-name="패스 7461" class="cls-6" d="M334.907-271.6a3.3 3.3 0 0 1-1.058 2.765c-2.5 2.063-7.863 5.183-16 1.767a2.7 2.7 0 0 1-1.835-3.048c.41-1.666 2.045-.939 3.966-1.186a15.562 15.562 0 0 0 6.134-1.935c1.954-1.182 3.218-2.025 4.016-2.591a2.474 2.474 0 0 1 3.667.952c.125.211.252.443.381.7a6.9 6.9 0 0 1 .726 2.574" transform="translate(-315.943 276.295)"/>
            </g>
            <g id="그룹_3085" data-name="그룹 3085" transform="translate(48.439 47.669)">
                <path id="패스_7462" data-name="패스 7462" class="cls-4" d="M327-264.566a17.124 17.124 0 0 1-9.172-1.339c-.49-.206-2.116-.72-2.64-2.052a3.572 3.572 0 0 1-.127-2.172c.464-1.883 2.3-1.965 3.543-1.938a9.86 9.86 0 0 0 1.5-.046 14.958 14.958 0 0 0 5.896-1.845 48.56 48.56 0 0 0 4.482-2.984c.065-.05.126-.1.185-.138a.839.839 0 0 1 1.289.483v.016a.9.9 0 0 1-.354 1.018l-.177.132a44.858 44.858 0 0 1-4.772 3.313 15.985 15.985 0 0 1-6.381 2.022 11.036 11.036 0 0 1-1.675.056c-1.249-.027-1.541.052-1.638.442a.957.957 0 0 0 .028.614 2.446 2.446 0 0 0 1.3 1.151c7.939 3.333 13.6-.085 16.141-2.253a.666.666 0 0 1 1.047.259 1.212 1.212 0 0 1-.2 1.447 16.482 16.482 0 0 1-8.275 3.814" transform="translate(-314.953 277.23)"/>
            </g>
            <g id="그룹_3086" data-name="그룹 3086" transform="translate(37.572 83.088)">
                <path id="패스_7463" data-name="패스 7463" class="cls-15" d="m309.048-242.108-3.071-.014 1.329-5.85.328.075-.569 2.5h2.093a2.053 2.053 0 0 1 1.346.444 1.357 1.357 0 0 1 .418 1c.028 1.191-1.214 1.726-1.874 1.842m-2.65-.347 2.622.015c.035-.01 1.593-.3 1.565-1.5a1.026 1.026 0 0 0-.309-.763 1.726 1.726 0 0 0-1.11-.356h-2.178z" transform="translate(-305.977 247.972)"/>
            </g>
            <g id="그룹_3087" data-name="그룹 3087" transform="translate(38.486 83.011)">
                <path id="패스_7464" data-name="패스 7464" class="cls-15" d="m309.567-245.037-2.835-.016v-.335l2.832.016a1.162 1.162 0 0 0 1.16-1.22 1.084 1.084 0 0 0-.316-.8 1.428 1.428 0 0 0-.929-.3h-2.289v-.337h2.28a1.746 1.746 0 0 1 1.165.39 1.4 1.4 0 0 1 .427 1.045 1.474 1.474 0 0 1-1.494 1.563" transform="translate(-306.732 248.036)"/>
            </g>
            <g id="그룹_3088" data-name="그룹 3088" transform="translate(39.059 84.063)">
                <path id="패스_7465" data-name="패스 7465" class="cls-15" d="m307.2-241.194 1.305-5.973h3.878v.337h-3.608l-1.155 5.287 3.777-.119.011.337z" transform="translate(-307.205 247.167)"/>
            </g>
            <g id="그룹_3089" data-name="그룹 3089" transform="translate(39.927 86.577)">
                <path id="사각형_1600" data-name="사각형 1600" class="cls-15" d="M0 0h3.607v.336H0z"/>
            </g>
        </g>
        <g id="타원_1276" data-name="타원 1276" transform="translate(1931.574 769)" style="stroke:#6edbd6;stroke-width:12px;fill:none">
            <circle cx="111.5" cy="111.5" r="111.5" style="stroke:none"/>
            <circle class="cls-1" cx="111.5" cy="111.5" r="105.5"/>
        </g>
        <g id="그룹_4410" data-name="그룹 4410" transform="translate(4)">
            <g id="그룹_3595" data-name="그룹 3595" transform="translate(2421.457 423.301)">
                <g id="그룹_2595" data-name="그룹 2595" transform="translate(-341.734 372.049)">
                    <path id="패스_6380" data-name="패스 6380" class="cls-17" d="m-324.807 382.744-.55-.549-4.406-4.406-.549-.55-1.353-1.353a5.1 5.1 0 0 0-7.205 0l-12.534 12.534a1.491 1.491 0 0 0 0 2.107 6.3 6.3 0 0 0 8.9 0l.5-.5.505.505a6.3 6.3 0 0 0 8.9 0l.5-.5.5.5a6.3 6.3 0 0 0 8.9 0l2.828-2.827z" transform="translate(351.841 -374.394)"/>
                    <path id="선_424" data-name="선 424" class="cls-18" transform="translate(10.618 9.767)" d="M0 5.088 5.088 0"/>
                    <path id="선_425" data-name="선 425" class="cls-18" transform="translate(20.65 13.255)" d="M0 1.48 1.48 0"/>
                </g>
                <g id="그룹_2596" data-name="그룹 2596" transform="translate(-278.873 372.476)">
                    <path id="패스_6381" data-name="패스 6381" class="cls-17" d="m-289.5 382.744.549-.549 4.406-4.406.55-.55 1.353-1.353a5.094 5.094 0 0 1 7.2 0l12.542 12.534a1.489 1.489 0 0 1 0 2.107 6.3 6.3 0 0 1-8.9 0l-.5-.5-.5.505a6.3 6.3 0 0 1-8.9 0l-.5-.5-.5.5a6.3 6.3 0 0 1-8.9 0l-2.827-2.827z" transform="translate(294.455 -374.394)"/>
                    <path id="선_426" data-name="선 426" class="cls-18" transform="translate(16.284 9.767)" d="M5.088 5.088 0 0"/>
                    <path id="선_427" data-name="선 427" class="cls-18" transform="translate(9.86 13.255)" d="M1.48 1.48 0 0"/>
                </g>
                <path id="패스_6382" data-name="패스 6382" d="M-328.358 371.79v17.125a44.392 44.392 0 0 0 22.2 38.445l2.236 1.291a6.239 6.239 0 0 0 6.24 0l2.236-1.291a44.391 44.391 0 0 0 22.2-38.445V371.79a3.6 3.6 0 0 0-2.27-3.342l-21.851-8.672a9.307 9.307 0 0 0-6.862 0l-21.851 8.672a3.6 3.6 0 0 0-2.278 3.342z" transform="translate(6.693 -.422)" style="fill:#6edbd6"/>
                <g id="그룹_2597" data-name="그룹 2597" transform="translate(-318.655 365.967)">
                    <path id="패스_6383" data-name="패스 6383" d="M-302.9 421.707a39.13 39.13 0 0 1-19.511-33.794v-14.694l20.231-8.029 20.231 8.029v14.694a39.133 39.133 0 0 1-19.511 33.794l-.72.415z" transform="translate(326.523 -365.19)" style="stroke:#3faaa5;stroke-width:2.167px;stroke-linecap:round;stroke-linejoin:round;fill:none"/>
                    <path id="패스_6384" data-name="패스 6384" class="cls-21" d="M-325.844 374.813V372.6a3.545 3.545 0 0 1 2.237-3.3l3.02-1.2" transform="translate(325.845 -364.615)"/>
                    <path id="선_428" data-name="선 428" class="cls-21" transform="translate(0 14.356)" d="M0 .764V0"/>
                </g>
            </g>
            <text id="LV.6" transform="translate(2110.148 819)" style="fill:#1a8984;font-size:20px;font-family:BMJUA,BM JUA_TTF;letter-spacing:-.06em"><tspan x="0" y="0">LV.6</tspan></text>
        </g>
    </g>
</svg>
