<svg xmlns="http://www.w3.org/2000/svg" width="247" height="223">
    <defs>
        <clipPath id="clip-path">
            <path id="패스_7748" data-name="패스 7748" class="cls-1" d="M222.011-385.674c0 36.188-22.081 58.2-49.336 58.2s-49.335-22.013-49.335-58.2c0-36.2 22.094-72.844 49.335-72.844s49.336 36.641 49.336 72.844z" transform="translate(-123.34 458.518)"/>
        </clipPath>
        <style>
            .cls-1,.cls-11,.cls-8{fill:none}.cls-6{fill:#4b829f}.cls-7{fill:#8bb3ff}.cls-8{stroke:#5d85d0;stroke-width:1.534px}.cls-11,.cls-8{stroke-linecap:round;stroke-linejoin:round}.cls-11{stroke:#ffeeb8;stroke-width:1.942px}
        </style>
    </defs>
    <g id="그룹_4416" data-name="그룹 4416" transform="translate(-64 -769)">
        <g id="그룹_4397" data-name="그룹 4397">
            <g id="타원_1272" data-name="타원 1272" transform="translate(64 769)" style="fill:#fff;stroke:#ffde27;stroke-width:12px">
                <circle cx="111.5" cy="111.5" r="111.5" style="stroke:none"/>
                <circle class="cls-1" cx="111.5" cy="111.5" r="105.5"/>
            </g>
            <g id="그룹_3589" data-name="그룹 3589" transform="translate(123.184 814)">
                <g id="그룹_3491" data-name="그룹 3491">
                    <path id="패스_7732" data-name="패스 7732" d="M173.522-324.648a48.043 48.043 0 0 1-36.368-16.2c-9.777-10.992-14.943-26.2-14.943-43.98 0-18.082 5.382-36.7 14.772-51.082 9.985-15.309 22.962-23.741 36.54-23.741s26.555 8.432 36.54 23.741c9.39 14.381 14.773 33 14.773 51.082 0 17.78-5.168 32.989-14.945 43.98a48 48 0 0 1-36.369 16.2z" transform="translate(-122.211 459.648)" style="fill:#335d76"/>
                </g>
                <g id="그룹_3510" data-name="그룹 3510" transform="translate(1.241 1.616)">
                    <g id="그룹_3509" data-name="그룹 3509" transform="translate(.735 .362)">
                        <g id="그룹_3492" data-name="그룹 3492">
                            <path id="패스_7733" data-name="패스 7733" d="M222.011-385.674c0 36.188-22.081 58.2-49.336 58.2s-49.335-22.013-49.335-58.2c0-36.2 22.094-72.844 49.335-72.844s49.336 36.641 49.336 72.844z" transform="translate(-123.34 458.518)" style="fill:#faf2e2"/>
                        </g>
                        <g id="그룹_3508" data-name="그룹 3508">
                            <g id="그룹_3507" data-name="그룹 3507" style="clip-path:url(#clip-path)">
                                <g id="그룹_3493" data-name="그룹 3493" transform="translate(57.357 -.809)">
                                    <path id="패스_7734" data-name="패스 7734" class="cls-6" d="M181.3-409.849a21.973 21.973 0 0 1-8.343-1.7 27.167 27.167 0 0 1-13.732-12.965 27.154 27.154 0 0 1-2.414-18.73 20.3 20.3 0 0 1 10.407-13.637 20.311 20.311 0 0 1 17.151-.4 27.166 27.166 0 0 1 13.732 12.965c6.312 12.387 2.724 26.908-7.992 32.369a19.3 19.3 0 0 1-8.809 2.098zm-5.272-47.573a17.755 17.755 0 0 0-8.1 1.929 18.778 18.778 0 0 0-9.6 12.62 25.615 25.615 0 0 0 2.288 17.653 25.634 25.634 0 0 0 12.935 12.233 18.781 18.781 0 0 0 15.855-.348c9.955-5.07 13.234-18.653 7.315-30.277a25.633 25.633 0 0 0-12.937-12.231 20.441 20.441 0 0 0-7.751-1.579z" transform="translate(-156.1 458.98)"/>
                                </g>
                                <g id="그룹_3494" data-name="그룹 3494" transform="translate(58.141 -.023)">
                                    <path id="패스_7735" data-name="패스 7735" class="cls-6" d="M197.076-444.3c6.126 12.025 2.7 26.047-7.653 31.322s-23.71-.2-29.836-12.224-2.7-26.047 7.651-31.32 23.711.2 29.837 12.222" transform="translate(-156.548 458.531)"/>
                                </g>
                                <g id="그룹_3495" data-name="그룹 3495" transform="translate(9.629 43.018)">
                                    <path id="패스_7736" data-name="패스 7736" class="cls-6" d="M140.628-405.582a10.8 10.8 0 0 1-2.106-.207 11.541 11.541 0 0 1-7.8-5.844 15.331 15.331 0 0 1-1.563-10.538c1.528-7.7 8.2-12.9 14.908-11.569s10.894 8.677 9.367 16.384c-1.369 6.895-6.868 11.774-12.806 11.774zm1.325-26.808c-5.205 0-10.05 4.367-11.272 10.522a13.774 13.774 0 0 0 1.394 9.468 10 10 0 0 0 6.749 5.084c5.856 1.166 11.722-3.481 13.082-10.344 1.36-6.865-2.294-13.394-8.145-14.554a9.337 9.337 0 0 0-1.807-.176zm10.715 14.882z" transform="translate(-128.84 433.947)"/>
                                </g>
                                <g id="그룹_3496" data-name="그룹 3496" transform="translate(10.409 43.796)">
                                    <path id="패스_7737" data-name="패스 7737" class="cls-6" d="M152.334-417.842c-1.446 7.3-7.712 12.2-13.994 10.957s-10.2-8.171-8.754-15.468 7.711-12.2 13.993-10.957 10.2 8.171 8.756 15.468" transform="translate(-129.285 433.503)"/>
                                </g>
                                <g id="그룹_3497" data-name="그룹 3497" transform="translate(65.636 64.671)">
                                    <path id="패스_7738" data-name="패스 7738" class="cls-6" d="M164.979-411.838a3.871 3.871 0 0 1-.76-.075 4.636 4.636 0 0 1-3.285-5.634 4.631 4.631 0 0 1 5.188-3.959 4.051 4.051 0 0 1 2.747 2.048 5.213 5.213 0 0 1 .537 3.587 5.214 5.214 0 0 1-1.866 3.113 4.145 4.145 0 0 1-2.561.92zm.392-8.187a3.224 3.224 0 0 0-2.912 2.779 3.094 3.094 0 0 0 2.062 3.806 2.523 2.523 0 0 0 2.059-.543 3.66 3.66 0 0 0 1.3-2.189 3.675 3.675 0 0 0-.366-2.519 2.52 2.52 0 0 0-1.7-1.289 2.291 2.291 0 0 0-.443-.045z" transform="translate(-160.829 421.58)"/>
                                </g>
                                <g id="그룹_3498" data-name="그룹 3498" transform="translate(66.413 65.45)">
                                    <path id="패스_7739" data-name="패스 7739" class="cls-6" d="M168.31-416.355a3.855 3.855 0 0 1-4.272 3.344 3.858 3.858 0 0 1-2.673-4.72 3.859 3.859 0 0 1 4.272-3.346 3.857 3.857 0 0 1 2.674 4.722" transform="translate(-161.273 421.136)"/>
                                </g>
                                <g id="그룹_3499" data-name="그룹 3499" transform="translate(22.295 -2.85)">
                                    <path id="패스_7740" data-name="패스 7740" class="cls-6" d="M143.933-441.279a7.308 7.308 0 0 1-1.56-.168 7.738 7.738 0 0 1-5.146-4.018 10.184 10.184 0 0 1-.9-7.019 10.187 10.187 0 0 1 3.757-6 7.715 7.715 0 0 1 6.357-1.492c4.454.979 7.166 5.93 6.046 11.037-.987 4.513-4.644 7.66-8.554 7.66zm.938-17.309a6.409 6.409 0 0 0-3.852 1.352 8.617 8.617 0 0 0-3.171 5.084 8.635 8.635 0 0 0 .748 5.947 6.2 6.2 0 0 0 4.113 3.236c3.61.8 7.322-2.033 8.26-6.3s-1.243-8.388-4.86-9.183a5.8 5.8 0 0 0-1.237-.136zm6.858 9.486z" transform="translate(-136.074 460.146)"/>
                                </g>
                                <g id="그룹_3500" data-name="그룹 3500" transform="translate(23.074 -2.069)">
                                    <path id="패스_7741" data-name="패스 7741" class="cls-6" d="M151.4-449.437c-1.031 4.7-5.144 7.782-9.188 6.895s-6.483-5.415-5.452-10.111 5.144-7.782 9.188-6.895 6.482 5.415 5.452 10.111" transform="translate(-136.519 459.7)"/>
                                </g>
                                <g id="그룹_3501" data-name="그룹 3501" transform="translate(-2.248 86.898)">
                                    <path id="패스_7742" data-name="패스 7742" class="cls-6" d="M139.708-370.306c-8.2 0-15.687-6.891-17.326-16.454a20.833 20.833 0 0 1 2.5-14.271 15.627 15.627 0 0 1 10.762-7.639 15.6 15.6 0 0 1 12.692 3.619 20.844 20.844 0 0 1 7.107 12.625c1.8 10.519-4.148 20.348-13.261 21.91a14.629 14.629 0 0 1-2.474.21zm-1.569-37.021a13.174 13.174 0 0 0-2.234.191 14.093 14.093 0 0 0-9.691 6.907 19.282 19.282 0 0 0-2.3 13.206c1.66 9.672 9.736 16.388 18 14.973s13.648-10.44 11.991-20.113a19.3 19.3 0 0 0-6.564-11.687 14.437 14.437 0 0 0-9.202-3.477z" transform="translate(-122.056 408.885)"/>
                                </g>
                                <g id="그룹_3502" data-name="그룹 3502" transform="translate(-1.468 87.68)">
                                    <path id="패스_7743" data-name="패스 7743" class="cls-6" d="M154.341-392.629c1.732 10.113-3.92 19.52-12.627 21.012s-17.169-5.5-18.9-15.609 3.92-19.52 12.625-21.012 17.168 5.5 18.9 15.609" transform="translate(-122.502 408.439)"/>
                                </g>
                                <g id="그룹_3503" data-name="그룹 3503" transform="translate(49.793 90.645)">
                                    <path id="패스_7744" data-name="패스 7744" class="cls-6" d="M172.144-356.8a18.984 18.984 0 0 1-5.538-.821 20.323 20.323 0 0 1-12.653-11.6 27.2 27.2 0 0 1-.916-18.877 27.2 27.2 0 0 1 11.247-15.19 20.338 20.338 0 0 1 16.969-2.621 20.337 20.337 0 0 1 12.653 11.6 27.193 27.193 0 0 1 .916 18.879c-3.398 11.195-12.893 18.63-22.678 18.63zm3.53-48.386a19.694 19.694 0 0 0-10.556 3.206 25.637 25.637 0 0 0-10.591 14.329 25.637 25.637 0 0 0 .849 17.8 18.8 18.8 0 0 0 11.681 10.745c10.7 3.249 22.484-4.279 26.275-16.773a25.636 25.636 0 0 0-.847-17.8 18.8 18.8 0 0 0-11.685-10.748 17.622 17.622 0 0 0-5.126-.762zm18.4 29.529z" transform="translate(-151.78 406.745)"/>
                                </g>
                                <g id="그룹_3504" data-name="그룹 3504" transform="translate(50.576 91.428)">
                                    <path id="패스_7745" data-name="패스 7745" class="cls-6" d="M193.741-376c-3.92 12.924-16.118 20.667-27.244 17.291s-16.971-16.587-13.049-29.512 16.116-20.667 27.244-17.291S197.661-388.92 193.741-376" transform="translate(-152.227 406.298)"/>
                                </g>
                                <g id="그룹_3505" data-name="그룹 3505" transform="translate(-.779 -.777)">
                                    <path id="패스_7746" data-name="패스 7746" class="cls-1" d="M173.009-326.362c-29.5 0-50.114-24.254-50.114-58.98 0-34.752 21.432-73.62 50.114-73.62s50.115 38.868 50.115 73.62c0 34.726-20.609 58.98-50.115 58.98z" transform="translate(-122.895 458.962)"/>
                                </g>
                                <g id="그룹_3506" data-name="그룹 3506" transform="translate(-.779 -.777)">
                                    <path id="패스_7747" data-name="패스 7747" class="cls-1" d="M173.009-326.362c-29.5 0-50.114-24.254-50.114-58.98 0-34.752 21.432-73.62 50.114-73.62s50.115 38.868 50.115 73.62c0 34.726-20.609 58.98-50.115 58.98z" transform="translate(-122.895 458.962)"/>
                                </g>
                            </g>
                        </g>
                    </g>
                    <g id="SVGID">
                        <path id="패스_7749" data-name="패스 7749" class="cls-1" d="M122.92-385.683c0 36.287 22.279 58.371 49.762 58.371s49.76-22.083 49.76-58.371-22.277-73.042-49.76-73.042-49.762 36.753-49.762 73.042" transform="translate(-122.92 458.725)"/>
                    </g>
                </g>
            </g>
        </g>
        <g id="그룹_4415" data-name="그룹 4415" transform="translate(4.713)">
            <g id="그룹_3586" data-name="그룹 3586" transform="translate(553.17 423.301)">
                <g id="그룹_2595" data-name="그룹 2595" transform="translate(-341.734 372.049)">
                    <path id="패스_6380" data-name="패스 6380" class="cls-7" d="m-324.807 382.744-.55-.549-4.406-4.406-.549-.55-1.353-1.353a5.1 5.1 0 0 0-7.205 0l-12.534 12.534a1.491 1.491 0 0 0 0 2.107 6.3 6.3 0 0 0 8.9 0l.5-.5.505.505a6.3 6.3 0 0 0 8.9 0l.5-.5.5.5a6.3 6.3 0 0 0 8.9 0l2.828-2.827z" transform="translate(351.841 -374.394)"/>
                    <path id="선_424" data-name="선 424" class="cls-8" transform="translate(10.618 9.767)" d="M0 5.088 5.088 0"/>
                    <path id="선_425" data-name="선 425" class="cls-8" transform="translate(20.65 13.255)" d="M0 1.48 1.48 0"/>
                </g>
                <g id="그룹_2596" data-name="그룹 2596" transform="translate(-278.873 372.476)">
                    <path id="패스_6381" data-name="패스 6381" class="cls-7" d="m-289.5 382.744.549-.549 4.406-4.406.55-.55 1.353-1.353a5.094 5.094 0 0 1 7.2 0l12.542 12.534a1.489 1.489 0 0 1 0 2.107 6.3 6.3 0 0 1-8.9 0l-.5-.5-.5.505a6.3 6.3 0 0 1-8.9 0l-.5-.5-.5.5a6.3 6.3 0 0 1-8.9 0l-2.827-2.827z" transform="translate(294.455 -374.394)"/>
                    <path id="선_426" data-name="선 426" class="cls-8" transform="translate(16.284 9.767)" d="M5.088 5.088 0 0"/>
                    <path id="선_427" data-name="선 427" class="cls-8" transform="translate(9.86 13.255)" d="M1.48 1.48 0 0"/>
                </g>
                <path id="패스_6382" data-name="패스 6382" d="M-328.358 371.79v17.125a44.392 44.392 0 0 0 22.2 38.445l2.236 1.291a6.239 6.239 0 0 0 6.24 0l2.236-1.291a44.391 44.391 0 0 0 22.2-38.445V371.79a3.6 3.6 0 0 0-2.27-3.342l-21.851-8.672a9.307 9.307 0 0 0-6.862 0l-21.851 8.672a3.6 3.6 0 0 0-2.278 3.342z" transform="translate(6.693 -.422)" style="fill:#ffdb6c"/>
                <g id="그룹_2597" data-name="그룹 2597" transform="translate(-318.655 365.967)">
                    <path id="패스_6383" data-name="패스 6383" d="M-302.9 421.707a39.13 39.13 0 0 1-19.511-33.794v-14.694l20.231-8.029 20.231 8.029v14.694a39.133 39.133 0 0 1-19.511 33.794l-.72.415z" transform="translate(326.523 -365.19)" style="stroke:#f5c263;stroke-width:2.167px;stroke-linecap:round;stroke-linejoin:round;fill:none"/>
                    <path id="패스_6384" data-name="패스 6384" class="cls-11" d="M-325.844 374.813V372.6a3.545 3.545 0 0 1 2.237-3.3l3.02-1.2" transform="translate(325.845 -364.615)"/>
                    <path id="선_428" data-name="선 428" class="cls-11" transform="translate(0 14.356)" d="M0 .764V0"/>
                </g>
            </g>
            <text id="LV.1" transform="translate(244 819)" style="fill:#d68747;font-size:20px;font-family:BMJUA,BM JUA_TTF;letter-spacing:-.06em"><tspan x="0" y="0">LV.1</tspan></text>
        </g>
    </g>
</svg>
