<svg xmlns="http://www.w3.org/2000/svg" width="120" height="120">
    <g data-name="그룹 2627">
        <path data-name="빼기 10" d="M39.559 66.566a2.134 2.134 0 0 1-1.853-1.078 1.945 1.945 0 0 1-.205-.3l-6.359-10.351H12.493A12.529 12.529 0 0 1 0 42.3V12.547A12.534 12.534 0 0 1 12.493 0h54.131a12.536 12.536 0 0 1 12.5 12.547V42.3a12.531 12.531 0 0 1-12.5 12.535H47.976L41.62 65.19a1.37 1.37 0 0 1-.218.314 2.127 2.127 0 0 1-1.843 1.062zM61.548 39.3v4.286h1.882a7.03 7.03 0 0 0 7.082-7.563V22.344H65.8v1.372a5.307 5.307 0 0 0-4.066-1.842h-.1a7.478 7.478 0 0 0-3.691 1.026c-2.031 1.229-3.059 3.381-3.059 6.395a8.529 8.529 0 0 0 2.071 5.458 6.2 6.2 0 0 0 4.593 1.728h.079a5.5 5.5 0 0 0 4.173-1.852v1.13a3.9 3.9 0 0 1-.794 2.662 2.951 2.951 0 0 1-2.294.881zm-17.3-17.429a10.643 10.643 0 0 0-4 .934 6.718 6.718 0 0 0-4 6.536 7.954 7.954 0 0 0 2 5.212 8 8 0 0 0 6.007 2.167 11.212 11.212 0 0 0 4.1-.929 6.634 6.634 0 0 0 4.1-6.451 7.866 7.866 0 0 0-2.015-5.249 8.23 8.23 0 0 0-6.191-2.218zM13.5 34.629v.009a4.66 4.66 0 0 0 4.068 2.085 8.359 8.359 0 0 0 3.41-1.042c1.556-.891 3.409-2.744 3.409-6.506a10.418 10.418 0 0 0-.946-3.688 6.156 6.156 0 0 0-5.865-3.687 6.488 6.488 0 0 0-4.125 1.915v-7.682H8.616v20.176H13.5v-1.58zm12.47-14.384c.224 0 2.188.113 2.188 4.026v11.938h4.674V23.161a8.941 8.941 0 0 0-2.09-5.78 6.4 6.4 0 0 0-4.784-1.814v4.679zm36.937 12.206a3.112 3.112 0 1 1 3.11-3.108 3.116 3.116 0 0 1-3.11 3.108zm-18.654 0a3.109 3.109 0 1 1 3.108-3.108 3.112 3.112 0 0 1-3.107 3.108zm-27.751 0a3.112 3.112 0 1 1 3.114-3.108 3.113 3.113 0 0 1-3.116 3.108z" transform="translate(22.086 26.207)" style="fill:#bec8db;stroke:transparent;stroke-miterlimit:10"/>
        <path data-name="사각형 1570" style="fill:none" d="M0 0h120v120H0z"/>
    </g>
</svg>
