<svg xmlns="http://www.w3.org/2000/svg" width="120" height="120">
    <g data-name="그룹 2625">
        <path data-name="빼기 9" d="M34.385 0C15.4 0 0 12.175 0 27.2c0 9.663 6.38 18.126 15.958 22.967l-3.243 12.118a1.006 1.006 0 0 0 .245 1.033.979.979 0 0 0 .7.288 1 1 0 0 0 .6-.23l13.94-9.424a43.311 43.311 0 0 0 6.189.454c18.988 0 34.389-12.177 34.389-27.205S53.373 0 34.385 0" transform="translate(25.665 28.621)" style="fill:#bec8db;stroke:transparent;stroke-miterlimit:10"/>
        <path data-name="사각형 1570" style="fill:none" d="M0 0h120v120H0z"/>
    </g>
</svg>
