<svg xmlns="http://www.w3.org/2000/svg" width="60" height="60">
    <defs>
        <style>
            .cls-1{fill:#9cb900}.cls-2{fill:#111e72}.cls-3{fill:#0093d6}
        </style>
    </defs>
    <g id="그룹_4037" data-name="그룹 4037" transform="translate(-.153 .404)">
        <g id="그룹_4030" data-name="그룹 4030" transform="translate(10.963 9.73)">
            <g id="그룹_789" data-name="그룹 789" transform="translate(6.129 2.734)">
                <path id="패스_358" data-name="패스 358" class="cls-1" d="M49.082 61.366s2.423-7.24-3.64-9.151c-3.113 5.507 3.64 9.151 3.64 9.151z" transform="translate(-24.056 -34.137)"/>
                <path id="패스_359" data-name="패스 359" class="cls-1" d="M49.143 36.023S41.817 39.017 44.394 45c6.426-1.291 4.749-8.977 4.749-8.977z" transform="translate(-24.147 -36.023)"/>
                <path id="패스_360" data-name="패스 360" class="cls-1" d="M26.228 37.6s-.732 7.5 5.531 8.022c1.781-5.986-5.531-8.022-5.531-8.022z" transform="translate(-26.202 -35.84)"/>
                <path id="패스_361" data-name="패스 361" class="cls-1" d="M34.671 37.329S33.3 40.66 36.088 41.75c1.642-2.491-1.417-4.421-1.417-4.421z" transform="translate(-25.255 -35.871)"/>
                <path id="패스_362" data-name="패스 362" class="cls-1" d="M33.958 51.823a11.634 11.634 0 0 1-.255-3.51c.187-1.713-2.4-2.472-2.4-.025a1.251 1.251 0 0 0-1.633-.171c-.8.458-.523 2.185.758 2.713a29.027 29.027 0 0 0 3.53.993z" transform="translate(-25.85 -34.777)"/>
            </g>
            <g id="그룹_791" data-name="그룹 791" transform="translate(1.754)">
                <g id="그룹_790" data-name="그룹 790">
                    <path id="패스_363" data-name="패스 363" class="cls-2" d="M39.728 33.574s-4.857 4.445-1.1 8.385c4.651-2.859 1.1-8.385 1.1-8.385z" transform="translate(-20.546 -33.574)"/>
                    <path id="패스_364" data-name="패스 364" class="cls-2" d="M22.284 41.49s4.038 7.11 9.921 3.71c-2.159-6.4-9.921-3.71-9.921-3.71z" transform="translate(-22.284 -32.718)"/>
                    <path id="패스_365" data-name="패스 365" class="cls-2" d="M54.171 40.176s-8.057-2.231-9.827 4.411c6.194 3.067 9.827-4.411 9.827-4.411z" transform="translate(-19.714 -32.847)"/>
                    <path id="패스_366" data-name="패스 366" class="cls-2" d="M54.5 60.262s-1.42-9.313-9.169-8.044c-.316 7.79 9.169 8.044 9.169 8.044z" transform="translate(-19.6 -31.417)"/>
                    <path id="패스_367" data-name="패스 367" class="cls-2" d="M42.177 72.655h-4.283c-2.337-2-.385-3.017-1.126-5.142-1.161-3.334-.938-5.3-1.225-5.909-.08-.169-.221-.473-.385-.845.314-2.141.621-3.536.753-4.191.252-1.256 1.167-6.028.939-8.384a24.39 24.39 0 0 0-1.058-5.022c-.155-.4 3.078 2.906 3.013 9.537 0 0-.247 1.595.481 1.815s.8-.267 1.629-1.056 5.623-5.66 9.26-5.96c0 0-6.106 4.145-8.42 8.566-2.796 5.343.42 13.601.422 16.591z" transform="translate(-20.784 -32.462)"/>
                </g>
                <path id="패스_368" data-name="패스 368" class="cls-2" d="M40.921 50.4a2.118 2.118 0 1 0-1.778-2.419 2.13 2.13 0 0 0 1.778 2.419z" transform="translate(-20.323 -32.105)"/>
            </g>
            <g id="그룹_794" data-name="그룹 794" transform="translate(0 16.472)">
                <path id="패스_369" data-name="패스 369" class="cls-3" d="M55.356 49.836s-5.117-3.72-8.162.524c3.571 3.82 8.162-.524 8.162-.524z" transform="translate(-17.628 -48.328)"/>
                <path id="패스_370" data-name="패스 370" class="cls-3" d="M20.712 56.3s7.151 1.936 8.687-3.96c-5.506-2.686-8.687 3.96-8.687 3.96z" transform="translate(-20.712 -47.935)"/>
                <path id="패스_371" data-name="패스 371" class="cls-3" d="M22.617 49.442s2.427 3.191 5.06 1.163c-1.468-2.971-5.06-1.163-5.06-1.163z" transform="translate(-20.49 -48.262)"/>
                <g id="그룹_793" data-name="그룹 793" transform="translate(8.288 5.84)">
                    <g id="그룹_792" data-name="그룹 792">
                        <path id="패스_372" data-name="패스 372" class="cls-3" d="M33.821 71.44h5.042c1.1-5.882-2.064-10.445-2.351-11.05-.08-.169-.221-.473-.385-.845a16.1 16.1 0 0 1-1.149-3.29 12.759 12.759 0 0 1-.1-2.679c.027-.223-1.194 1.857-.325 5.211 0 0 .221.617-.12.821s-.62-.037-.854-.173c-.518-.3-3.566-2.171-5.448-1.87 0 0 3.828 1.639 5.359 3.751s1.452 8.252.331 10.124z" transform="translate(-28.135 -53.559)"/>
                        <path id="패스_373" data-name="패스 373" class="cls-3" d="M32.634 57.6a1.1 1.1 0 0 0 .6-1.447 1.117 1.117 0 0 0-1.458-.592 1.1 1.1 0 0 0-.6 1.447 1.118 1.118 0 0 0 1.458.592z" transform="translate(-27.791 -53.337)"/>
                    </g>
                </g>
            </g>
        </g>
        <path id="사각형_2086" data-name="사각형 2086" transform="translate(.153 -.404)" style="fill:none" d="M0 0h60v60H0z"/>
    </g>
</svg>
