<svg xmlns="http://www.w3.org/2000/svg" width="120" height="120">
    <g data-name="그룹 2626">
        <path data-name="패스 6399" d="M369.378 212.912a31.172 31.172 0 0 1-7.713 2.227c1.24-.212 3.061-2.486 3.792-3.407a14.406 14.406 0 0 0 2.56-4.73c.067-.135.117-.3-.016-.406a.436.436 0 0 0-.41.034 38.985 38.985 0 0 1-9.147 3.545.6.6 0 0 1-.63-.169 7.48 7.48 0 0 0-.8-.827 16.178 16.178 0 0 0-4.431-2.752 15.269 15.269 0 0 0-6.8-1.107 16.084 16.084 0 0 0-6.447 1.844 16.658 16.658 0 0 0-5.2 4.3 16.287 16.287 0 0 0-3.105 6.3 17.3 17.3 0 0 0-.165 6.651c.05.374.018.422-.314.374-12.563-1.895-22.975-6.448-31.429-16.206-.366-.424-.564-.424-.866.032-3.7 5.616-1.9 14.64 2.717 19.075.616.591 1.249 1.183 1.931 1.722a15.845 15.845 0 0 1-6.063-1.722c-.367-.236-.552-.1-.584.322a9.9 9.9 0 0 0 .1 1.823 16.291 16.291 0 0 0 9.933 13.015 9.357 9.357 0 0 0 2.014.626 17.736 17.736 0 0 1-5.948.185c-.433-.084-.6.137-.433.557 2.617 7.227 8.265 9.377 12.5 10.6.568.1 1.134.1 1.7.234-.034.054-.067.054-.1.1-1.4 2.168-6.267 3.781-8.533 4.582a30.186 30.186 0 0 1-12.962 1.681c-.7-.1-.843-.1-1.033 0-.192.12-.023.289.2.471a36.458 36.458 0 0 0 2.7 1.621 42.477 42.477 0 0 0 8.665 3.513c15.571 4.356 33.111 1.154 44.8-10.614 9.181-9.242 12.4-21.988 12.4-34.748 0-.5.58-.775.926-1.039a30.5 30.5 0 0 0 6.1-6.425 1.974 1.974 0 0 0 .4-1.23v-.066c.005-.191 0-.13-.309.014z" transform="translate(-271.294 -176.667)" style="fill:#bec8db"/>
        <path data-name="사각형 1570" style="fill:none" d="M0 0h120v120H0z"/>
    </g>
</svg>
