<svg xmlns="http://www.w3.org/2000/svg" width="120" height="120">
    <g data-name="그룹 2628">
        <path data-name="빼기 11" d="M37.993 54.864c-11.283-.009-24.869-.563-27.666-.992-5.227-.856-7.794-3.378-9.169-8.992C.682 42.947 0 32.234 0 27.89v-.917C0 23 .65 12.036 1.158 9.992c1.379-5.629 3.949-8.153 9.169-9C13.156.557 27.095 0 38.017 0s24.859.557 27.688.992c5.22.847 7.794 3.371 9.183 9 .462 1.916 1.15 12.775 1.15 16.981v.917c0 4.2-.688 15.059-1.15 16.99-1.389 5.615-3.963 8.137-9.183 8.992-2.853.436-16.475.992-27.712.992zm-9.086-37.348v19.83L47.126 27.2l-18.219-9.68z" transform="translate(24.411 32.241)" style="fill:#bec8db;stroke:transparent;stroke-miterlimit:10"/>
        <path data-name="사각형 1570" style="fill:none" d="M0 0h120v120H0z"/>
    </g>
</svg>
