<svg xmlns="http://www.w3.org/2000/svg" width="120" height="120">
    <defs>
        <style>
            .cls-1{fill:#bec8db}
        </style>
    </defs>
    <g id="그룹_2623" data-name="그룹 2623" transform="translate(0 -.345)">
        <g id="그룹_2621" data-name="그룹 2621" transform="translate(21.919 22.931)">
            <g id="그룹_290" data-name="그룹 290">
                <path id="패스_1295" data-name="패스 1295" class="cls-1" d="M326.647 157.011a4.447 4.447 0 1 0 4.447 4.447 4.446 4.446 0 0 0-4.447-4.447z" transform="translate(-268.634 -143.467)"/>
                <path id="패스_1296" data-name="패스 1296" class="cls-1" d="M325.02 159.671a18.682 18.682 0 1 0 18.68 18.681 18.7 18.7 0 0 0-18.68-18.681zm0 30.648a11.967 11.967 0 1 1 11.966-11.968 11.981 11.981 0 0 1-11.966 11.968z" transform="translate(-286.779 -140.424)"/>
                <path id="패스_1297" data-name="패스 1297" class="cls-1" d="M350.286 226.551H320a22.811 22.811 0 0 1-22.786-22.784v-30.289A22.811 22.811 0 0 1 320 150.694h30.284a22.812 22.812 0 0 1 22.789 22.784v30.288a22.812 22.812 0 0 1-22.787 22.785zM320 157.829a15.666 15.666 0 0 0-15.649 15.649v30.288A15.667 15.667 0 0 0 320 219.416h30.284a15.669 15.669 0 0 0 15.651-15.649v-30.289a15.668 15.668 0 0 0-15.651-15.649z" transform="translate(-297.216 -150.694)"/>
            </g>
        </g>
        <path id="사각형_1570" data-name="사각형 1570" transform="translate(0 .345)" style="fill:none" d="M0 0h120v120H0z"/>
    </g>
</svg>
