<svg id="그룹_3511" data-name="그룹 3511" xmlns="http://www.w3.org/2000/svg" width="88.99" height="117.066">
    <defs>
        <clipPath id="clip-path">
            <path id="패스_7748" data-name="패스 7748" class="cls-1" d="M208.9-395.351c0 31.38-19.148 50.469-42.782 50.469s-42.78-19.089-42.78-50.469 19.158-63.167 42.78-63.167 42.782 31.773 42.782 63.167z" transform="translate(-123.34 458.518)"/>
        </clipPath>
        <style>
            .cls-1{fill:none}.cls-5{fill:#4b829f}
        </style>
    </defs>
    <g id="그룹_3491" data-name="그룹 3491">
        <path id="패스_7732" data-name="패스 7732" d="M166.706-342.582a41.66 41.66 0 0 1-31.537-14.045c-8.478-9.531-12.958-22.719-12.958-38.138 0-15.68 4.667-31.825 12.809-44.3 8.658-13.275 19.911-20.587 31.685-20.587s23.027 7.312 31.685 20.587c8.142 12.471 12.811 28.616 12.811 44.3 0 15.418-4.482 28.606-12.96 38.138a41.623 41.623 0 0 1-31.535 14.045z" transform="translate(-122.211 459.648)" style="fill:#335d76"/>
    </g>
    <g id="그룹_3510" data-name="그룹 3510" transform="translate(1.076 1.401)">
        <g id="그룹_3509" data-name="그룹 3509" transform="translate(.638 .314)">
            <g id="그룹_3492" data-name="그룹 3492">
                <path id="패스_7733" data-name="패스 7733" d="M208.9-395.351c0 31.38-19.148 50.469-42.782 50.469s-42.78-19.089-42.78-50.469 19.158-63.167 42.78-63.167 42.782 31.773 42.782 63.167z" transform="translate(-123.34 458.518)" style="fill:#faf2e2"/>
            </g>
            <g id="그룹_3508" data-name="그룹 3508">
                <g id="그룹_3507" data-name="그룹 3507" style="clip-path:url(#clip-path)">
                    <g id="그룹_3493" data-name="그룹 3493" transform="translate(49.738 -.701)">
                        <path id="패스_7734" data-name="패스 7734" class="cls-5" d="M177.956-416.376a19.053 19.053 0 0 1-7.234-1.473 23.557 23.557 0 0 1-11.907-11.242 23.547 23.547 0 0 1-2.094-16.242 17.607 17.607 0 0 1 9.024-11.825 17.613 17.613 0 0 1 14.872-.349 23.557 23.557 0 0 1 11.907 11.242c5.473 10.741 2.362 23.334-6.931 28.069a16.734 16.734 0 0 1-7.637 1.82zm-4.571-41.253a15.4 15.4 0 0 0-7.028 1.673 16.284 16.284 0 0 0-8.326 10.943 22.212 22.212 0 0 0 1.984 15.308 22.229 22.229 0 0 0 11.217 10.605 16.286 16.286 0 0 0 13.749-.3c8.633-4.4 11.476-16.175 6.343-26.255a22.228 22.228 0 0 0-11.218-10.606 17.726 17.726 0 0 0-6.721-1.368z" transform="translate(-156.1 458.98)"/>
                    </g>
                    <g id="그룹_3494" data-name="그룹 3494" transform="translate(50.417 -.02)">
                        <path id="패스_7735" data-name="패스 7735" class="cls-5" d="M191.692-446.191c5.312 10.427 2.341 22.587-6.636 27.161s-20.56-.173-25.872-10.6-2.341-22.587 6.635-27.159 20.561.172 25.874 10.6" transform="translate(-156.548 458.531)"/>
                    </g>
                    <g id="그룹_3495" data-name="그룹 3495" transform="translate(8.35 37.303)">
                        <path id="패스_7736" data-name="패스 7736" class="cls-5" d="M139.062-409.35a9.366 9.366 0 0 1-1.826-.179 10.008 10.008 0 0 1-6.765-5.068 13.294 13.294 0 0 1-1.356-9.138c1.325-6.68 7.114-11.185 12.928-10.032s9.446 7.524 8.122 14.208c-1.186 5.978-5.954 10.209-11.103 10.209zm1.149-23.247c-4.514 0-8.715 3.786-9.774 9.125a11.944 11.944 0 0 0 1.209 8.211 8.675 8.675 0 0 0 5.853 4.409c5.078 1.011 10.164-3.018 11.344-8.97 1.18-5.953-1.989-11.614-7.063-12.621a8.1 8.1 0 0 0-1.568-.157zm9.292 12.9z" transform="translate(-128.84 433.948)"/>
                    </g>
                    <g id="그룹_3496" data-name="그룹 3496" transform="translate(9.026 37.978)">
                        <path id="패스_7737" data-name="패스 7737" class="cls-5" d="M149.272-419.922c-1.254 6.328-6.688 10.582-12.135 9.5s-8.847-7.086-7.591-13.414 6.686-10.581 12.134-9.5 8.847 7.086 7.593 13.414" transform="translate(-129.285 433.503)"/>
                    </g>
                    <g id="그룹_3497" data-name="그룹 3497" transform="translate(56.916 56.08)">
                        <path id="패스_7738" data-name="패스 7738" class="cls-5" d="M164.427-413.132a3.357 3.357 0 0 1-.659-.065 4.02 4.02 0 0 1-2.848-4.886 4.016 4.016 0 0 1 4.5-3.433 3.512 3.512 0 0 1 2.382 1.776 4.52 4.52 0 0 1 .466 3.111 4.521 4.521 0 0 1-1.618 2.7 3.594 3.594 0 0 1-2.223.797zm.34-7.1a2.8 2.8 0 0 0-2.525 2.409 2.683 2.683 0 0 0 1.788 3.3 2.187 2.187 0 0 0 1.785-.471 3.174 3.174 0 0 0 1.127-1.9 3.187 3.187 0 0 0-.317-2.185 2.185 2.185 0 0 0-1.471-1.117 1.985 1.985 0 0 0-.387-.036z" transform="translate(-160.829 421.58)"/>
                    </g>
                    <g id="그룹_3498" data-name="그룹 3498" transform="translate(57.59 56.755)">
                        <path id="패스_7739" data-name="패스 7739" class="cls-5" d="M167.375-416.99a3.343 3.343 0 0 1-3.7 2.9 3.345 3.345 0 0 1-2.318-4.093 3.346 3.346 0 0 1 3.7-2.9 3.345 3.345 0 0 1 2.318 4.095" transform="translate(-161.273 421.136)"/>
                    </g>
                    <g id="그룹_3499" data-name="그룹 3499" transform="translate(19.333 -2.471)">
                        <path id="패스_7740" data-name="패스 7740" class="cls-5" d="M142.889-443.786a6.338 6.338 0 0 1-1.353-.146 6.71 6.71 0 0 1-4.462-3.484 8.831 8.831 0 0 1-.779-6.087 8.834 8.834 0 0 1 3.258-5.2 6.69 6.69 0 0 1 5.513-1.297c3.862.849 6.214 5.142 5.242 9.571-.858 3.915-4.028 6.643-7.419 6.643zm.814-15.009a5.558 5.558 0 0 0-3.34 1.172 7.473 7.473 0 0 0-2.749 4.409 7.487 7.487 0 0 0 .648 5.157 5.373 5.373 0 0 0 3.566 2.806c3.131.692 6.349-1.763 7.163-5.464s-1.078-7.274-4.215-7.963a5.029 5.029 0 0 0-1.076-.117zm5.947 8.226z" transform="translate(-136.074 460.146)"/>
                    </g>
                    <g id="그룹_3500" data-name="그룹 3500" transform="translate(20.009 -1.794)">
                        <path id="패스_7741" data-name="패스 7741" class="cls-5" d="M149.419-450.8c-.894 4.072-4.461 6.748-7.968 5.979s-5.622-4.7-4.728-8.768 4.461-6.749 7.968-5.979 5.62 4.7 4.728 8.768" transform="translate(-136.519 459.7)"/>
                    </g>
                    <g id="그룹_3501" data-name="그룹 3501" transform="translate(-1.95 75.354)">
                        <path id="패스_7742" data-name="패스 7742" class="cls-5" d="M137.363-375.431c-7.107 0-13.6-5.976-15.024-14.268a18.065 18.065 0 0 1 2.167-12.375 13.551 13.551 0 0 1 9.333-6.624 13.532 13.532 0 0 1 11.006 3.138 18.075 18.075 0 0 1 6.162 10.948c1.562 9.122-3.6 17.645-11.5 19a12.686 12.686 0 0 1-2.144.181zm-1.36-32.1a11.424 11.424 0 0 0-1.937.166 12.22 12.22 0 0 0-8.4 5.989 16.72 16.72 0 0 0-1.995 11.452c1.439 8.387 8.443 14.211 15.612 12.984s11.835-9.053 10.4-17.441a16.737 16.737 0 0 0-5.692-10.134 12.519 12.519 0 0 0-7.991-3.019z" transform="translate(-122.056 408.885)"/>
                    </g>
                    <g id="그룹_3502" data-name="그룹 3502" transform="translate(-1.273 76.032)">
                        <path id="패스_7743" data-name="패스 7743" class="cls-5" d="M150.111-394.73c1.5 8.769-3.4 16.927-10.949 18.22s-14.888-4.766-16.389-13.535 3.4-16.927 10.948-18.22 14.888 4.766 16.391 13.535" transform="translate(-122.502 408.439)"/>
                    </g>
                    <g id="그룹_3503" data-name="그룹 3503" transform="translate(43.178 78.603)">
                        <path id="패스_7744" data-name="패스 7744" class="cls-5" d="M169.439-363.438a16.462 16.462 0 0 1-4.8-.712 17.623 17.623 0 0 1-10.972-10.063 23.584 23.584 0 0 1-.794-16.37 23.583 23.583 0 0 1 9.753-13.172 17.636 17.636 0 0 1 14.715-2.273 17.635 17.635 0 0 1 10.972 10.063 23.581 23.581 0 0 1 .794 16.371c-2.95 9.711-11.183 16.156-19.668 16.156zM172.5-405.4a17.078 17.078 0 0 0-9.153 2.78 22.231 22.231 0 0 0-9.184 12.425 22.231 22.231 0 0 0 .736 15.433 16.3 16.3 0 0 0 10.13 9.317c9.278 2.818 19.5-3.711 22.784-14.545a22.23 22.23 0 0 0-.735-15.433 16.3 16.3 0 0 0-10.131-9.317 15.281 15.281 0 0 0-4.447-.66zm15.96 25.606z" transform="translate(-151.78 406.745)"/>
                    </g>
                    <g id="그룹_3504" data-name="그룹 3504" transform="translate(43.857 79.282)">
                        <path id="패스_7745" data-name="패스 7745" class="cls-5" d="M188.226-380.021c-3.4 11.208-13.977 17.921-23.625 14.994s-14.716-14.384-11.315-25.591 13.975-17.921 23.625-14.994 14.715 14.384 11.315 25.591" transform="translate(-152.227 406.298)"/>
                    </g>
                    <g id="그룹_3505" data-name="그룹 3505" transform="translate(-.676 -.674)">
                        <path id="패스_7746" data-name="패스 7746" class="cls-1" d="M166.351-343.978c-25.585 0-43.456-21.032-43.456-51.144 0-30.135 18.585-63.84 43.456-63.84s43.458 33.7 43.458 63.84c0 30.112-17.871 51.144-43.458 51.144z" transform="translate(-122.895 458.962)"/>
                    </g>
                    <g id="그룹_3506" data-name="그룹 3506" transform="translate(-.676 -.674)">
                        <path id="패스_7747" data-name="패스 7747" class="cls-1" d="M166.351-343.978c-25.585 0-43.456-21.032-43.456-51.144 0-30.135 18.585-63.84 43.456-63.84s43.458 33.7 43.458 63.84c0 30.112-17.871 51.144-43.458 51.144z" transform="translate(-122.895 458.962)"/>
                    </g>
                </g>
            </g>
        </g>
        <g id="SVGID">
            <path id="패스_7749" data-name="패스 7749" class="cls-1" d="M122.92-395.386c0 31.467 19.319 50.616 43.151 50.616s43.149-19.149 43.149-50.616-19.318-63.339-43.149-63.339-43.151 31.871-43.151 63.339" transform="translate(-122.92 458.725)"/>
        </g>
    </g>
</svg>
