<svg xmlns="http://www.w3.org/2000/svg" width="295.314" height="179.198">
    <defs>
        <style>
            .cls-1,.cls-3{fill:#8cc7ea}.cls-1,.cls-2,.cls-3{stroke:#36607b}.cls-1,.cls-2{stroke-linecap:round;stroke-linejoin:round;stroke-width:2.07px}.cls-2{fill:#ebf4f6}.cls-3{stroke-miterlimit:10}.cls-17,.cls-8{fill-rule:evenodd}.cls-7{fill:#36607b}.cls-8{fill:#fff2f1}.cls-9{fill:#ffbfc5}.cls-11{fill:none}.cls-12{fill:#f7f8f8}.cls-13{opacity:.1}.cls-14{fill:#fff}.cls-17{fill:#fcdcc5}.cls-20{fill:#211815}
        </style>
    </defs>
    <g id="레이어_2" data-name="레이어 2" transform="translate(0 1.043)">
        <g id="레이어_1" data-name="레이어 1">
            <path id="패스_3157" data-name="패스 3157" class="cls-1" d="M119.975 73.32s51.87 56.134 21.691 64.791L112.66 76.963z" transform="translate(46.437 28.764)"/>
            <path id="패스_3158" data-name="패스 3158" class="cls-2" d="M121.807 72.77s24.431 35.884 31.068 45.43c0 0-18.358 4.632-20.66 8.8L112.19 77.331z" transform="translate(46.243 28.537)"/>
            <path id="패스_3159" data-name="패스 3159" class="cls-3" d="m85.52 78.712 32.17-.212s-4.547 19.319-16.424 19.4S85.52 78.712 85.52 78.712" transform="translate(35.25 30.899)"/>
            <path id="패스_3160" data-name="패스 3160" d="M71.9 68.68S54.145 108 63.846 143.271c0 0 14.489 9.518 90.747-.974 0 0 2.019-26.549-11.3-72.021l-14.249 2.062-17.635 34.132-23.852-33.892z" transform="translate(25.122 26.851)" style="fill:#ede2ba;stroke-width:2.07px;stroke-linecap:round;stroke-linejoin:round;stroke:#36607b"/>
            <path id="패스_3161" data-name="패스 3161" class="cls-2" d="M84.37 88.135 90.7 85l7.061 7.682 6.072-.551 8.911-6.256 9.8.1s-10.831 30.8-19.869 31.788c0 0-14.122-14.673-18.274-29.656" transform="translate(34.776 33.578)"/>
            <path id="패스_3162" data-name="패스 3162" d="M86 89.435s5.79 5.2 9.631 5.14l2.161 4.59-3.05 9.193 6.694 7.612 5.239-7.47-3.516-8.77 2.118-5.649s4.688-1.991 5.846-6.03l-3.94-1.144s-.141 1.582-4.1 2.3l-8.064-1.017a13.811 13.811 0 0 1-5.519-2.06z" transform="translate(35.448 34.044)" style="fill:#763124;stroke-width:2.07px;stroke-linecap:round;stroke-linejoin:round;stroke:#36607b"/>
            <path id="패스_3163" data-name="패스 3163" class="cls-2" d="m77.626 80.9 1.963 14.842a1.017 1.017 0 0 0 1.61.72l8.671-6.44a.974.974 0 0 1 1.2 0l3.63 1.116a1.031 1.031 0 0 0 1.553-1.214l-4.237-8.148a1.017 1.017 0 0 0-.847-.692L78.7 79.671a1.045 1.045 0 0 0-1.116 1.2" transform="translate(31.974 31.38)"/>
            <path id="패스_3164" data-name="패스 3164" class="cls-2" d="m105.209 91.7 13.176 3.545a1.073 1.073 0 0 0 1.243-.593l5.366-15.124A1.073 1.073 0 0 0 123.906 78l-18.146 3.7a1.059 1.059 0 0 0-.791.523l-4.237 4.577a1 1 0 0 0-.113.254L98.572 91.4a1.059 1.059 0 0 0 1.582 1.186l4.237-.791a1.087 1.087 0 0 1 .833-.127" transform="translate(40.613 30.691)"/>
            <path id="패스_3165" data-name="패스 3165" d="M112.729 121.814a.748.748 0 0 1-.537-.226.777.777 0 0 1-.551.226h-68.7a.748.748 0 0 1-.748-.748v-4.477a.748.748 0 0 1 .748-.748h138.504a.748.748 0 0 1 .748.748v4.477a.748.748 0 0 1-.748.748z" transform="translate(17.39 46.29)" style="fill-rule:evenodd;fill:#c8725b"/>
            <path id="패스_3166" data-name="패스 3166" class="cls-7" d="M181.664 116.807v4.477h-68.717l-.537-.876-.551.876h-68.7v-4.477h138.505m0-1.5H43.157a1.483 1.483 0 0 0-1.5 1.5v4.477a1.483 1.483 0 0 0 1.5 1.5h68.7a1.539 1.539 0 0 1 1.087 0h68.717a1.483 1.483 0 0 0 1.412-1.5v-4.477a1.483 1.483 0 0 0-1.412-1.5" transform="translate(17.172 46.071)"/>
            <path id="패스_3167" data-name="패스 3167" class="cls-8" d="M90.394 119.9a.748.748 0 0 1-.127-1.483c2.189-.367 53.663-8.812 65.37-8.812 1.779 0 4.237 5.027 6.044 9.25a.734.734 0 0 1 0 .706.72.72 0 0 1-.621.339z" transform="translate(36.957 43.722)"/>
            <path id="패스_3168" data-name="패스 3168" class="cls-7" d="M155.875 110.577c1.666 0 5.352 8.8 5.352 8.8H90.618s53.479-8.8 65.243-8.8m0-1.5c-11.749 0-63.294 8.473-65.483 8.812a1.5 1.5 0 0 0 .24 2.98h70.609a1.511 1.511 0 0 0 1.412-2.076c-4.081-9.716-6.016-9.716-6.736-9.716" transform="translate(36.719 43.503)"/>
            <path id="패스_3169" data-name="패스 3169" class="cls-8" d="M43.546 119.9a.763.763 0 0 1-.621-.339.777.777 0 0 1 0-.706c1.779-4.237 4.237-9.25 6.058-9.25 11.693 0 63.167 8.473 65.356 8.812a.747.747 0 0 1-.113 1.483z" transform="translate(17.658 43.722)"/>
            <path id="패스_3170" data-name="패스 3170" class="cls-7" d="M49.145 110.577c11.763 0 65.243 8.8 65.243 8.8h-70.61s3.7-8.8 5.366-8.8m0-1.5c-.734 0-2.669 0-6.736 9.716a1.412 1.412 0 0 0 .127 1.412 1.5 1.5 0 0 0 1.243.678h70.609a1.5 1.5 0 0 0 .24-2.98c-2.189-.353-53.734-8.812-65.483-8.812" transform="translate(17.426 43.503)"/>
            <path id="패스_3171" data-name="패스 3171" class="cls-1" d="M85.752 18.279S79.426-.5 53.978 2.124c-23.3 2.415-24.854 34.74-17.327 47.506a37.112 37.112 0 0 0-1.483 34.655c8.812 19.446 37.508 22.708 47.52-.636" transform="translate(13.016 -.686)"/>
            <path id="패스_3172" data-name="패스 3172" class="cls-9" d="M73.989 23.383S69.668 10.462 53.3 12.749c-14.94 2.09-15.406 24.558-10.365 33.271a27.58 27.58 0 0 0-.381 24.092c5.931 13.331 24.473 15.124 30.531-1.3" transform="translate(16.476 3.685)"/>
            <path id="패스_3173" data-name="패스 3173" class="cls-1" d="M108.416 114.032c43.411 2.048 58.253-15.816 62.828-28.78 3.432-9.673 1.327-16.678 1.327-16.678 1.935-55.386-35.3-66.726-57.208-67.5C94.972.351 57.944 9.093 55.953 63.9a56.615 56.615 0 0 0-1.172 14.658c.537 9.094 5.2 33.186 53.663 35.474" transform="translate(22.551 -1.032)"/>
            <path id="패스_3174" data-name="패스 3174" class="cls-7" d="M98.4 64.785c-9.038-.311-12.455-4.067-12.71-4.237a1.257 1.257 0 0 1 .113-1.779 1.285 1.285 0 0 1 1.779.113c.113.127 6.764 7.061 26.831.974A1.285 1.285 0 0 1 116 60.7a1.271 1.271 0 0 1-.847 1.568 52.081 52.081 0 0 1-16.8 2.584" transform="translate(35.191 22.64)"/>
            <path id="패스_3175" data-name="패스 3175" d="M87.549 61.87a29.317 29.317 0 0 0 20.222 1.073s-.918 11.457-11.523 10.832-8.7-11.9-8.7-11.9" transform="translate(36.032 24.044)" style="fill:#cf7575"/>
            <path id="패스_3176" data-name="패스 3176" class="cls-7" d="M88.277 62.608a28.6 28.6 0 0 0 10.676 2.372 27.538 27.538 0 0 0 9.546-1.3s-.9 11.213-11.184 10.86h-.339c-10.591-.607-8.7-11.9-8.7-11.9M88.376 60.094a2.457 2.457 0 0 0-1.257.282 2.5 2.5 0 0 0-1.327 1.824c0 .254-1.031 6.425 2.443 10.789a11.3 11.3 0 0 0 8.6 4.053h.4a12.159 12.159 0 0 0 11.749-6.595A18.358 18.358 0 0 0 111 64.006a1.554 1.554 0 0 0 0-.254 2.514 2.514 0 0 0-2.415-2.6h-.113a2.613 2.613 0 0 0-.819.127 25.645 25.645 0 0 1-8.643 1.172 26.916 26.916 0 0 1-9.659-2.118 2.5 2.5 0 0 0-1-.254" transform="translate(35.303 23.306)"/>
            <path id="패스_3177" data-name="패스 3177" class="cls-9" d="M87.2 67.8a17.6 17.6 0 0 1 9.08-1.638 20.491 20.491 0 0 1 9.405 2.824s-2.485 4.971-9.476 4.561A10.012 10.012 0 0 1 87.2 67.8" transform="translate(35.943 25.785)"/>
            <path id="패스_3178" data-name="패스 3178" class="cls-7" d="M96.877 75.2h-.367a11.3 11.3 0 0 1-10.125-6.567 1.257 1.257 0 0 1 .551-1.539 18.528 18.528 0 0 1 9.786-1.808 21.522 21.522 0 0 1 10.027 3.036 1.271 1.271 0 0 1 .438 1.624 10.8 10.8 0 0 1-10.309 5.267m-7.555-6.425a9.052 9.052 0 0 0 7.329 3.883 8.826 8.826 0 0 0 7.569-2.824 20.632 20.632 0 0 0-7.64-2.1 18.246 18.246 0 0 0-7.259.989m-1.752-.574z" transform="translate(35.572 25.42)"/>
            <path id="SVGID" class="cls-11" d="M96.247 73.775c10.606.621 11.523-10.831 11.523-10.831a29.317 29.317 0 0 1-20.222-1.074s-1.892 11.3 8.7 11.9" transform="translate(36.032 24.044)"/>
            <path id="패스_3179" data-name="패스 3179" class="cls-7" d="M115.615 50.3a6.2 6.2 0 1 1-12.3-.621 6.2 6.2 0 1 1 12.3.621" transform="translate(42.55 16.296)"/>
            <path id="패스_3180" data-name="패스 3180" class="cls-7" d="M114.058 35.55a1.412 1.412 0 0 1-.8-.3 6.016 6.016 0 0 0-3.347-1.214 6.934 6.934 0 0 0-3.8.777 1.412 1.412 0 0 1-1.172-2.485 9.631 9.631 0 0 1 5.183-1.031 8.727 8.727 0 0 1 4.844 1.793 1.412 1.412 0 0 1-.9 2.457" transform="translate(43.034 11.43)"/>
            <path id="패스_3181" data-name="패스 3181" class="cls-12" d="M108.51 47.111a1.666 1.666 0 1 1-1.553-1.85 1.709 1.709 0 0 1 1.553 1.85" transform="translate(43.357 17.197)"/>
            <path id="패스_3182" data-name="패스 3182" class="cls-7" d="M85.423 49.645c-.2 4.448-3.3 7.894-6.934 7.711s-6.4-3.954-6.185-8.4 3.319-7.894 6.948-7.711 6.383 3.954 6.171 8.4" transform="translate(29.798 15.539)"/>
            <path id="패스_3183" data-name="패스 3183" class="cls-7" d="M83.226 34.459a1.412 1.412 0 0 1-.8-.3 6.214 6.214 0 0 0-3.361-1.214 7.061 7.061 0 0 0-3.8.777A1.412 1.412 0 1 1 74.1 31.24a9.73 9.73 0 0 1 5.183-1.031A8.84 8.84 0 0 1 84.115 32a1.389 1.389 0 0 1-.918 2.457" transform="translate(30.074 10.981)"/>
            <path id="패스_3184" data-name="패스 3184" class="cls-12" d="M77.52 45.191a1.666 1.666 0 1 1-1.553-1.85 1.737 1.737 0 0 1 1.553 1.85" transform="translate(30.583 16.405)"/>
            <path id="패스_3185" data-name="패스 3185" class="cls-1" d="M130.251 21.087s7.64-18.358 32.833-13.882c23.075 4.039 22.355 36.395 14.037 48.595a37.07 37.07 0 0 1-1.031 34.726c-10.139 18.782-38.99 20.025-47.351-3.954" transform="translate(53.065 1.222)"/>
            <path id="패스_3186" data-name="패스 3186" class="cls-9" d="M136.728 26.4s5.267-12.583 21.38-9.165c14.757 3.135 13.642 25.575 8.007 33.892a27.523 27.523 0 0 1-1.315 24.004c-6.89 12.879-25.417 13.331-30.36-3.431" transform="translate(55.414 5.402)"/>
            <g id="그룹_670" data-name="그룹 670" class="cls-13" transform="translate(93.586 49.663)">
                <path id="패스_3187" data-name="패스 3187" class="cls-14" d="M91.435 50.943c0 8.148-5.649 14.757-12.583 14.757S66.27 59.091 66.27 50.943 71.919 36.2 78.853 36.2s12.583 6.609 12.583 14.743" transform="translate(-66.27 -36.2)"/>
                <path id="SVGID-2" data-name="SVGID" class="cls-11" d="M0 0h25.165v29.5H0z"/>
            </g>
            <path id="패스_3188" data-name="패스 3188" class="cls-7" d="M79.162 67.069c-7.527 0-13.642-7.061-13.642-15.816s6.115-15.8 13.642-15.8 13.656 7.061 13.656 15.8-6.129 15.816-13.656 15.816m0-29.486c-6.341.056-11.552 6.129-11.552 13.67s5.169 13.684 11.509 13.684 11.523-6.143 11.523-13.684-5.125-13.614-11.48-13.614" transform="translate(27.007 13.154)"/>
            <path id="패스_3189" data-name="패스 3189" class="cls-1" d="M102.013 42.308s-16.381 24.925-34.1-2.726a2.019 2.019 0 0 0-2.711-.664L59.28 42.11c-.932.523-.96 1.61-.96 2.683 0 10.041 29.854 45.472 60.385 20.561" transform="translate(24.039 14.473)"/>
            <path id="패스_3190" data-name="패스 3190" class="cls-3" d="M84.09 46.82s6.778.706 8.3 6.1" transform="translate(34.661 17.841)"/>
            <path id="패스_3191" data-name="패스 3191" class="cls-7" d="M92.75 54.771a1.412 1.412 0 0 1-1.327-1.045c-1.229-4.378-7.061-5.07-7.061-5.07a1.42 1.42 0 1 1 .3-2.824c.325 0 7.781.876 9.532 7.146a1.412 1.412 0 0 1-.989 1.765 1.554 1.554 0 0 1-.438 0" transform="translate(34.248 17.43)"/>
            <path id="패스_3192" data-name="패스 3192" class="cls-3" d="M78.82 48.56a10 10 0 0 1 5.324 6.835" transform="translate(32.489 18.558)"/>
            <path id="패스_3193" data-name="패스 3193" class="cls-7" d="M84.54 57.255a1.412 1.412 0 0 1-1.412-1.045 8.7 8.7 0 0 0-4.463-5.9 1.431 1.431 0 0 1 1.035-2.672 11.425 11.425 0 0 1 6.2 7.8 1.412 1.412 0 0 1-.989 1.765 1.623 1.623 0 0 1-.438 0" transform="translate(32.05 18.138)"/>
            <path id="패스_3194" data-name="패스 3194" class="cls-3" d="M72.92 47.46a9.292 9.292 0 0 1 1.116 8.473" transform="translate(30.057 18.105)"/>
            <path id="패스_3195" data-name="패스 3195" class="cls-7" d="M74.415 57.749a1.229 1.229 0 0 1-.494-.1 1.412 1.412 0 0 1-.791-1.921 7.753 7.753 0 0 0-.946-7.061 1.433 1.433 0 1 1 2.3-1.709 10.676 10.676 0 0 1 1.313 9.8 1.412 1.412 0 0 1-1.412.89" transform="translate(29.635 17.659)"/>
            <path id="패스_3196" data-name="패스 3196" class="cls-1" d="M71.347 42.169s3.276-7.47-2.457-9.462-6.129 5.55-6.129 5.55-8.741-8.473-12.455-2.118c-4.039 6.835 2.824 14.207 12.131 12.1" transform="translate(20.248 11.886)"/>
            <path id="패스_3197" data-name="패스 3197" class="cls-7" d="M101.263 48.046a1.2 1.2 0 0 1-.635-.2S96.391 45.024 93 44.671a21.578 21.578 0 0 0-7.838 1.412 1.12 1.12 0 1 1-.8-2.09 23.146 23.146 0 0 1 8.826-1.511c3.982.339 8.473 3.417 8.713 3.559a1.116 1.116 0 0 1-.635 2.048" transform="translate(34.476 16.05)"/>
            <g id="그룹_671" data-name="그룹 671" class="cls-13" transform="translate(135.965 48.053)">
                <path id="패스_3198" data-name="패스 3198" class="cls-14" d="M126.8 51.667c0 9.165-6.764 16.607-15.1 16.607s-15.04-7.442-15.04-16.607 6.764-16.607 15.1-16.607 15.04 7.44 15.04 16.607" transform="translate(-96.123 -35.06)"/>
                <path id="SVGID-3" data-name="SVGID" class="cls-11" transform="translate(0 .282)" d="M0 0h28.343v33.215H0z"/>
            </g>
            <path id="패스_3199" data-name="패스 3199" class="cls-7" d="M112.316 70.029c-9.306 0-16.946-7.993-16.946-17.822S102.939 34.4 112.316 34.4s16.946 7.993 16.946 17.808-7.583 17.822-16.946 17.822m0-33.215c-7.838 0-14.235 6.906-14.235 15.393s6.4 15.407 14.235 15.407 14.235-6.948 14.235-15.421S120.168 36.8 112.316 36.8" transform="translate(39.31 12.721)"/>
            <path id="패스_3200" data-name="패스 3200" class="cls-1" d="M79.708 83.659s-6.341.9-9.885-2.231a14.418 14.418 0 0 1-4.59-12.314c.494-4.392.565-6.962-2.471-7.781s-4.392 5.649-4.392 5.649S61.759 54.836 48.287 54C33.741 53.226 27.57 99.4 65.9 108.7" transform="translate(15.262 20.797)"/>
            <path id="패스_3201" data-name="패스 3201" class="cls-2" d="M78.272 77.356s-10.224.282-12.964-7.216c0 0-15.816 17.582-24.8 17.949 0 0 12.71 17.836 31.379 18.132a24.869 24.869 0 0 0 6.524-28.568" transform="translate(16.698 27.453)"/>
            <path id="패스_3202" data-name="패스 3202" d="M151.208 109.438c-7.5 0-8.078-2.683-8.078-6.5s.621-7.612 8.078-7.612h61.218a1.652 1.652 0 0 1 1.652 1.412.749.749 0 0 1-.184.635.777.777 0 0 1-.607.282h-.2v9.448h.2a.777.777 0 0 1 .607.282.749.749 0 0 1 .184.635 1.652 1.652 0 0 1-1.652 1.412z" transform="translate(58.996 37.836)" style="fill:#ff816b;fill-rule:evenodd"/>
            <path id="패스_3203" data-name="패스 3203" class="cls-7" d="M212.661 96.37a.861.861 0 0 1 .861.72h-1v11.057h1a.876.876 0 0 1-.861.734h-61.218c-7.061 0-7.287-2.245-7.287-5.649s.268-6.807 7.287-6.807h61.218m0-1.61h-61.218c-8.191 0-8.883 4.35-8.883 8.473s.664 7.3 8.883 7.3h61.218a2.457 2.457 0 0 0 2.443-2.09 1.568 1.568 0 0 0-.367-1.285 1.525 1.525 0 0 0-.607-.438v-8.188a1.709 1.709 0 0 0 .607-.452 1.568 1.568 0 0 0 .367-1.285 2.457 2.457 0 0 0-2.443-2.09" transform="translate(58.761 37.601)"/>
            <path id="패스_3204" data-name="패스 3204" d="M152.778 101.607c-8.078 0-8.078-4.519-8.078-9.306s0-11 8.078-11H214a1.808 1.808 0 0 1 1.652 1.808.777.777 0 0 1-.2.621.805.805 0 0 1-.593.268h-.2V98.91h.2a.8.8 0 0 1 .593.268.777.777 0 0 1 .2.621 1.808 1.808 0 0 1-1.652 1.808z" transform="translate(59.643 32.053)" style="fill:#d47c66;fill-rule:evenodd"/>
            <path id="패스_3205" data-name="패스 3205" class="cls-7" d="M214.231 82.313c.438 0 .791.48.861 1.1h-1v16.524h1a1.023 1.023 0 0 1-.861 1.1h-61.218c-7.061 0-7.287-3.361-7.287-8.473s.268-10.21 7.287-10.21h61.218m0-1.6h-61.218c-8.883 0-8.883 7.386-8.883 11.806 0 4.745 0 10.111 8.883 10.111h61.218a2.613 2.613 0 0 0 2.457-2.528 1.61 1.61 0 0 0-.41-1.243 1.412 1.412 0 0 0-.579-.41V84.94a1.412 1.412 0 0 0 .579-.41 1.61 1.61 0 0 0 .41-1.243 2.613 2.613 0 0 0-2.457-2.528" transform="translate(59.408 31.83)"/>
            <path id="패스_3206" data-name="패스 3206" class="cls-17" d="M153.286 124.229c-6.567 0-10.027-3.474-10.027-10.026a19.773 19.773 0 0 0-.24-2.627c-.254-1.921-.494-3.742.748-5.154s4.237-2.231 9.518-2.231h61.458a1.412 1.412 0 0 1 0 2.824h-11.889l-1.254 14.277h13.147a1.44 1.44 0 0 1 0 2.881z" transform="translate(58.867 41.488)"/>
            <path id="패스_3207" data-name="패스 3207" class="cls-7" d="M214.983 105.242a.635.635 0 1 1 0 1.271h-12.625l-1.412 15.887h14.023a.621.621 0 0 1 .452.184.649.649 0 0 1 .184.452.621.621 0 0 1-.635.635h-61.445c-7.061 0-9.236-4.124-9.236-9.222s-3.474-9.207 9.236-9.207h61.458m0-1.61h-61.458c-5.55 0-8.586.748-10.125 2.514s-1.2 3.771-.932 5.776a18.9 18.9 0 0 1 .226 2.528c0 6.976 3.841 10.831 10.831 10.831h61.458a2.245 2.245 0 0 0 2.231-2.245 2.2 2.2 0 0 0-.65-1.582 2.231 2.231 0 0 0-1.582-.664h-12.271l1.116-12.71h11.156a2.245 2.245 0 0 0 0-4.491" transform="translate(58.628 41.24)"/>
            <path id="패스_3208" data-name="패스 3208" class="cls-8" d="M154.384 108.489c-6.877 0-7.414-2.415-7.414-5.818s.579-6.821 7.414-6.821H210.7a.791.791 0 0 1 .8.791V107.7a.791.791 0 0 1-.8.791z" transform="translate(60.579 38.05)"/>
            <path id="패스_3209" data-name="패스 3209" class="cls-7" d="M210.933 96.876v11.057h-56.318c-6.369 0-6.609-1.977-6.609-5.027s.24-6.03 6.609-6.03h56.318m0-1.6h-56.318c-8.2 0-8.2 4.957-8.2 7.626 0 4.237 1.3 6.623 8.2 6.623h56.318a1.61 1.61 0 0 0 1.61-1.6V96.876a1.61 1.61 0 0 0-1.61-1.6" transform="translate(60.348 37.815)"/>
            <path id="패스_3210" data-name="패스 3210" class="cls-17" d="M153.741 101.609c-4.731 0-4.731-4.519-4.731-9.306s0-11 4.731-11h2.613a.8.8 0 1 1 0 1.6c-2.895 0-3.121 4.081-3.121 9.405 0 5.875.424 7.711 3.121 7.711a.8.8 0 1 1 0 1.6z" transform="translate(61.42 32.051)"/>
            <path id="패스_3211" data-name="패스 3211" class="cls-7" d="M156.584 82.328c-3.785 0-3.926 5.041-3.926 10.21s.141 8.473 3.926 8.473h-2.613c-3.785 0-3.926-3.361-3.926-8.473s.141-10.21 3.926-10.21h2.613m0-1.6h-2.613c-5.522 0-5.522 6.821-5.522 11.806 0 4.745 0 10.111 5.522 10.111h2.613a1.61 1.61 0 1 0 0-3.206c-1.836 0-2.33-.861-2.33-6.906 0-5.649.381-8.6 2.33-8.6a1.61 1.61 0 1 0 0-3.206" transform="translate(61.189 31.816)"/>
            <path id="패스_3212" data-name="패스 3212" class="cls-17" d="M162.621 101.609c-4.731 0-4.731-4.519-4.731-9.306s0-11 4.731-11h2.6a.8.8 0 1 1 0 1.6c-2.895 0-3.121 4.081-3.121 9.405 0 5.875.424 7.711 3.121 7.711a.8.8 0 1 1 0 1.6z" transform="translate(65.08 32.051)"/>
            <path id="패스_3213" data-name="패스 3213" class="cls-7" d="M165.454 82.328c-3.785 0-3.926 5.041-3.926 10.21s.141 8.473 3.926 8.473h-2.6c-3.785 0-3.94-3.361-3.94-8.473s.155-10.21 3.94-10.21h2.6m0-1.6h-2.6c-5.536 0-5.536 6.821-5.536 11.806 0 4.745 0 10.111 5.536 10.111h2.6a1.61 1.61 0 1 0 0-3.206c-1.822 0-2.316-.861-2.316-6.906 0-5.649.367-8.6 2.316-8.6a1.61 1.61 0 1 0 0-3.206" transform="translate(64.845 31.816)"/>
            <path id="패스_3214" data-name="패스 3214" class="cls-8" d="M160.092 122.573c-7.061 0-7.682-4.5-7.682-8.741s.593-8.741 7.682-8.741h49.426a.819.819 0 0 1 .8.8v15.887a.8.8 0 0 1-.8.791z" transform="translate(62.821 41.859)"/>
            <path id="패스_3215" data-name="패스 3215" class="cls-7" d="M209.72 106.126v15.887h-49.427c-6.242 0-6.891-3.559-6.891-7.951s.65-7.936 6.891-7.936h49.427m0-1.6h-49.427c-8.473 0-8.473 6.2-8.473 9.532s0 9.546 8.473 9.546h49.427a1.61 1.61 0 0 0 1.6-1.6v-15.878a1.6 1.6 0 0 0-1.6-1.6" transform="translate(62.578 41.628)"/>
            <path id="패스_3216" data-name="패스 3216" class="cls-8" d="M169.956 99.853c-7.061 0-7.7-4.519-7.7-8.741s.593-8.741 7.7-8.741H206.8a.791.791 0 0 1 .791.8v15.877a.8.8 0 0 1-.791.8z" transform="translate(66.881 32.494)"/>
            <path id="패스_3217" data-name="패스 3217" class="cls-7" d="M207.027 83.41v15.873h-36.844c-6.242 0-6.891-3.559-6.891-7.936s.65-7.936 6.891-7.936h36.844m0-1.61h-36.844c-8.473 0-8.473 6.214-8.473 9.546s0 9.546 8.473 9.546h36.844a1.61 1.61 0 0 0 1.6-1.61V83.41a1.61 1.61 0 0 0-1.6-1.61" transform="translate(66.655 32.259)"/>
            <path id="사각형_327" data-name="사각형 327" transform="translate(19.051 166.733)" style="fill:#e0ad53" d="M0 0h275.574v10.733H0z"/>
            <path id="사각형_328" data-name="사각형 328" transform="translate(19.051 166.733)" style="stroke:#35607a;stroke-width:1.38px;fill:none;stroke-linecap:round;stroke-linejoin:round" d="M0 0h275.574v10.733H0z"/>
            <path id="패스_3218" data-name="패스 3218" d="M174.547 46.38a1.681 1.681 0 0 0-.127-.9 3.418 3.418 0 0 1-.339-.989 3.935 3.935 0 0 1-.1-.65 1.413 1.413 0 0 1 .212-.452l.1-.155.085-.127.1-.085a.2.2 0 0 1 .282.085c.085.127.466 1.666 1.144 4.646q.254 1.1.424 1.949c.113.579.226 1.059.3 1.412s.141.706.184.946a1.39 1.39 0 0 1 0 .438 2.52 2.52 0 0 1 0 .282v.508a1.765 1.765 0 0 1-.311.8 2.06 2.06 0 0 1-.268.353.466.466 0 0 1-.24.169.254.254 0 0 0-.184.127 2.257 2.257 0 0 1-.353.353l-.282.169-.353.155-.424.113a2.161 2.161 0 0 1-1.059 0l-.24-.113a1.411 1.411 0 0 1-.212-.2.579.579 0 0 1-.212-.381.226.226 0 0 1 .212-.169 2.556 2.556 0 0 1 .692 0 1.327 1.327 0 0 0 .763-.127 2.824 2.824 0 0 0 1.116-.847 3.545 3.545 0 0 0 .579-1.412 3.051 3.051 0 0 0 .071-.8 12.252 12.252 0 0 0-.254-1.3 12.714 12.714 0 0 0-.508-1.525.931.931 0 0 0-.2-.339.452.452 0 0 0-.268-.141h-.212l-.212.282-.2.353-.876.169-.861.2-.579-.353a2.669 2.669 0 0 1-.734-.692 4.56 4.56 0 0 1-.494-1.1 2.374 2.374 0 0 0-.3-.706.919.919 0 0 1-.141-.311 4.073 4.073 0 0 0-.155-.579 1.948 1.948 0 0 1 0-.819.381.381 0 0 1 .339-.3.438.438 0 0 1 .226 0 .409.409 0 0 1 .212.169.452.452 0 0 1 .155.452 1.215 1.215 0 0 0 .071.565q.2.551.339 1.059a1.142 1.142 0 0 0 0 .155.6.6 0 0 1 0 .141v.113a.509.509 0 0 1 0 .1v.085a1.13 1.13 0 0 0 .311.353 4.011 4.011 0 0 0 .791.466l.4.127a.48.48 0 0 0 .282 0 .155.155 0 0 0 .1 0l.127-.1.127-.127.155-.184.155-.212a2.5 2.5 0 0 0 .438-1.186" transform="translate(70.1 16.262)"/>
            <path id="패스_3219" data-name="패스 3219" class="cls-20" d="M173.762 56.186a1.5 1.5 0 0 1-.466 0 1.877 1.877 0 0 1-.339-.155 1.13 1.13 0 0 1-.3-.282.819.819 0 0 1-.3-.65.621.621 0 0 1 .565-.635 2.584 2.584 0 0 1 .791 0 .876.876 0 0 0 .523-.085 2.288 2.288 0 0 0 .974-.72 3.346 3.346 0 0 0 .523-1.214 2.994 2.994 0 0 0 0-.692 4.589 4.589 0 0 0-.24-1.243c-.24-.847-.339-1.412-.438-1.68a1.2 1.2 0 0 0-.127-.2l-.085.113-.282.494-2.048.424-.706-.424a3.432 3.432 0 0 1-.861-.819 4.718 4.718 0 0 1-.537-1.186 2.668 2.668 0 0 0-.226-.593 1.412 1.412 0 0 1-.212-.424 6.157 6.157 0 0 1-.169-.621 2.132 2.132 0 0 1 0-1.017.847.847 0 0 1 1.073-.523 1.031 1.031 0 0 1 .593 1.1.96.96 0 0 0 .071.311 9.692 9.692 0 0 1 .339 1.1v.113a.178.178 0 0 0 .071.141v.085a1.6 1.6 0 0 1 0 .184.763.763 0 0 0 .254.282 3.588 3.588 0 0 0 .72.424 1.568 1.568 0 0 0 .311.1h.113l.141-.169a.735.735 0 0 0 .141-.155.537.537 0 0 0 .127-.184 2.147 2.147 0 0 0 .4-1 1.412 1.412 0 0 0-.085-.706 3.644 3.644 0 0 1-.381-1.073 2.668 2.668 0 0 1-.1-.777 1.412 1.412 0 0 1 .268-.607l.071-.113.113-.169a1.172 1.172 0 0 1 .169-.184l.212-.113a.537.537 0 0 1 .678.212c.1.113.2.268 1.229 4.8.169.734.311 1.412.424 1.963l.3 1.412c.085.41.141.734.184.96a3.936 3.936 0 0 1 0 .508v.353a.48.48 0 0 1-.1.226v.212a2.118 2.118 0 0 1-.381 1.017 2.822 2.822 0 0 1-.311.41.946.946 0 0 1-.381.268 2.118 2.118 0 0 1-.438.41 2.019 2.019 0 0 1-.339.226l-.41.169a4.758 4.758 0 0 1-.48.127 3.334 3.334 0 0 1-.777.1m-.4-.876.155.085a1.906 1.906 0 0 0 .861 0l.381-.113.311-.127a1.1 1.1 0 0 0 .212-.141.988.988 0 0 0 .24-.212.664.664 0 0 1 .452-.339c.113-.127.184-.226.268-.339a1.412 1.412 0 0 0 .254-.635 1.059 1.059 0 0 1 .127-.635.62.62 0 0 0 0-.184v-.565a3.05 3.05 0 0 1-.085.664 3.8 3.8 0 0 1-.664 1.525 3.149 3.149 0 0 1-1.257.96 1.582 1.582 0 0 1-.974.141h-.226m-.319 0zm1.864-7.343h.2a.791.791 0 0 1 .452.24 1.653 1.653 0 0 1 .268.438l.141.41c-.085-.339-.155-.72-.254-1.116-.607-2.711-.89-3.813-1.017-4.237v.071a2.494 2.494 0 0 0-.155.282 2.915 2.915 0 0 0 .1.523 2.739 2.739 0 0 0 .3.876 2.09 2.09 0 0 1 .184 1.116 3.007 3.007 0 0 1-.522 1.412 1.414 1.414 0 0 1-.184.254l-.155.184-.127.141-.2.169h.24l.113-.2a2.375 2.375 0 0 1 .282-.381.593.593 0 0 1 .381-.141m-4.307-3.05a1.15 1.15 0 0 0 0 .65 1.732 1.732 0 0 0 .141.551 1.57 1.57 0 0 0 .071.184 2.429 2.429 0 0 1 .381.833 3.46 3.46 0 0 0 .438.989 2.4 2.4 0 0 0 .635.607l.424.254.72-.155h-.226l-.452-.155a4.068 4.068 0 0 1-.876-.508 1.483 1.483 0 0 1-.41-.452l-.071-.1a.835.835 0 0 1 0-.184l-.113-.282a1.414 1.414 0 0 1 0-.226c-.085-.311-.2-.664-.311-1.017a1.412 1.412 0 0 1-.1-.763v-.127z" transform="translate(69.967 16.1)"/>
            <path id="패스_3220" data-name="패스 3220" d="M174.139 42.772a21.184 21.184 0 0 1 3.587-.946l2.994-.635h.551c.226.282.141.551-.254.777a2.627 2.627 0 0 1-1.412.184.4.4 0 0 0-.424.113 9.576 9.576 0 0 1-1.85.551 11.112 11.112 0 0 0-1.864.565 2.034 2.034 0 0 1-1.186.24.508.508 0 0 1-.282-.085.706.706 0 0 1-.113-.268.466.466 0 0 1 .184-.508m1.723 4.011a1.412 1.412 0 0 1 .579-.226c.3-.085.989-.226 2.076-.452a14.447 14.447 0 0 1 4.124-.593 1.3 1.3 0 0 1 .141.452c0 .48-.226.678-.89.607a1.666 1.666 0 0 0-.678 0 .932.932 0 0 1-.537 0 .819.819 0 0 0-.607.085.664.664 0 0 1-.523.113 4.378 4.378 0 0 0-1.271.169 5.408 5.408 0 0 0-1.243.41c-.508.339-.876.424-1.1.268a.593.593 0 0 1-.2-.41.664.664 0 0 1 .127-.48" transform="translate(71.666 15.52)"/>
            <path id="패스_3221" data-name="패스 3221" class="cls-20" d="M176.248 48.265a.819.819 0 0 1-.466-.141.9.9 0 0 1-.367-.692.918.918 0 0 1 .212-.763 1.61 1.61 0 0 1 .763-.339l2.09-.452c3.94-.833 4.237-.664 4.406-.537a.918.918 0 0 1 .325.734.848.848 0 0 1-.2.763 1.271 1.271 0 0 1-1.116.268 2.2 2.2 0 0 0-.466 0 1.13 1.13 0 0 1-.791 0 .508.508 0 0 0-.311 0 .932.932 0 0 1-.777.184 4.081 4.081 0 0 0-1.13.169 4.038 4.038 0 0 0-1.144.367 2.09 2.09 0 0 1-1.045.4m0-.777a1.937 1.937 0 0 0 .678-.282 5.649 5.649 0 0 1 1.412-.466 4.66 4.66 0 0 1 1.412-.169h.226a1.257 1.257 0 0 1 .918-.184.918.918 0 0 0 .311 0 1.878 1.878 0 0 1 .876-.1h.48a.3.3 0 0 0 0-.127 1 1 0 0 0 0-.169 22.707 22.707 0 0 0-3.785.635l-2.062.438-.381.127a.24.24 0 0 0 0 .169.269.269 0 0 0 0 .141m-1.582-3.333h-.268a.777.777 0 0 1-.508-.2.678.678 0 0 1-.212-.452.861.861 0 0 1 .3-.89c.113-.113.339-.268 3.756-1.017 1.652-.367 2.683-.593 3.022-.65s.692-.085.89.141a.819.819 0 0 1 .212.692 1.031 1.031 0 0 1-.551.678 2.923 2.923 0 0 1-1.568.226h-.141a8.473 8.473 0 0 1-1.977.607 9.887 9.887 0 0 0-1.765.508 2.259 2.259 0 0 1-1.158.311m-.226-.791a1.412 1.412 0 0 0 .946-.184 9.348 9.348 0 0 1 1.977-.593 11.141 11.141 0 0 0 1.723-.508l-1.257.268a24.219 24.219 0 0 0-3.446.876.1.1 0 0 0 0 .113m-.001-.154zm5.395-1.3a1.991 1.991 0 0 0 1.073-.155.254.254 0 0 0 .113-.085h-.169l-1.031.212" transform="translate(71.605 15.393)"/>
            <path id="패스_3222" data-name="패스 3222" d="M180.939 41.381a4.716 4.716 0 0 1 1.031-1.525 2.455 2.455 0 0 1 .367-.268l.48-.2a1.412 1.412 0 0 1 .861 0 1.85 1.85 0 0 1 .763.41 2.669 2.669 0 0 1 .607.593 8.634 8.634 0 0 1 .353 1.3 6.317 6.317 0 0 1 .184.974 2.431 2.431 0 0 1-.127.763c-.071.254-.141.48-.212.664a1.794 1.794 0 0 1-.226.438s-.113.169-.2.268a2.612 2.612 0 0 0-.268.381 2.821 2.821 0 0 1-.226.339 3.149 3.149 0 0 1-.621.734l-.212.169-.438.4c-.3.325-.438.551-.438.706s.155.212.466.2a3.079 3.079 0 0 0 .791-.184l2.387-.621q.7-.218 1.412-.367h.226a.833.833 0 0 1 .2.085l.184.141a.663.663 0 0 1 .127.169.353.353 0 0 1 0 .169 1.1 1.1 0 0 1 0 .2 1.676 1.676 0 0 1-.113.226.692.692 0 0 1-.254.24 1.482 1.482 0 0 1-.424.141 16.127 16.127 0 0 0-3.389.974l-.212.1-.367.1-.537.127-.791.127a1.85 1.85 0 0 1-.523 0l-.226-.113a.48.48 0 0 1-.169-.085.409.409 0 0 1-.212-.2l-.141-.325a2.047 2.047 0 0 1 .438-1.313l.339-.494q.2-.339.254-.339a5.14 5.14 0 0 0 1.059-1.073 13.7 13.7 0 0 0 .692-.847l.466-.664a1.752 1.752 0 0 0 .212-.452 1.864 1.864 0 0 1 .226-.579q.148-.169 0-.8a5.563 5.563 0 0 0-.2-.537.806.806 0 0 0-.212-.325 2.584 2.584 0 0 0-.664-.537.72.72 0 0 0-.3-.085 1.158 1.158 0 0 0-.311 0 1.413 1.413 0 0 0-.325.1 1.513 1.513 0 0 0-.3.184l-.24.268a2.657 2.657 0 0 0-.2.339 4.458 4.458 0 0 1-.466.65c-.212.254-.339.4-.381.4s-.113-.1-.254-.325a1 1 0 0 1-.127-.367.65.65 0 0 1 .127-.381" transform="translate(74.511 14.75)"/>
            <path id="패스_3223" data-name="패스 3223" class="cls-20" d="M182.226 49.785a1.228 1.228 0 0 1-.424 0l-.268-.113-.226-.127a.988.988 0 0 1-.339-.311l-.155-.381a2.231 2.231 0 0 1 .466-1.666l.353-.508c.169-.311.3-.466.494-.508 0 0 .127-.113.833-.946.268-.311.494-.579.678-.833s.339-.452.452-.635a2.616 2.616 0 0 0 .155-.311 2.076 2.076 0 0 1 .3-.734 1.412 1.412 0 0 0 0-.494 1.158 1.158 0 0 0-.169-.452.54.54 0 0 0-.127-.212 2.273 2.273 0 0 0-.579-.48h-.339l-.254.085a.947.947 0 0 0-.2.127 1.23 1.23 0 0 0-.169.2 2.09 2.09 0 0 0-.184.3 4.972 4.972 0 0 1-.508.72c-.311.381-.438.494-.593.523s-.48-.2-.664-.494a1.314 1.314 0 0 1-.2-.579 1.186 1.186 0 0 1 .169-.551 5.042 5.042 0 0 1 1.144-1.638 1.752 1.752 0 0 1 .424-.325 2.371 2.371 0 0 1 .551-.226 1.864 1.864 0 0 1 1.087-.085 2.316 2.316 0 0 1 .89.48 3.135 3.135 0 0 1 .692.692 7.06 7.06 0 0 1 .41 1.412 8.154 8.154 0 0 1 .2 1.031 2.825 2.825 0 0 1-.141.9c-.085.268-.155.494-.226.678a2.119 2.119 0 0 1-.282.537 2.062 2.062 0 0 1-.212.282 2.021 2.021 0 0 0-.226.339 2.925 2.925 0 0 1-.254.381 2.7 2.7 0 0 1-.734.819l-.155.141-.438.4-.184.212a2.909 2.909 0 0 0 .635-.155l2.4-.635a29.183 29.183 0 0 1 1.412-.367 1.328 1.328 0 0 1 .367 0 .89.89 0 0 1 .311.127 1.878 1.878 0 0 1 .268.2.834.834 0 0 1 .184.268.763.763 0 0 1 .085.353v.282a1.045 1.045 0 0 1-.155.339 1.017 1.017 0 0 1-.381.353 1.85 1.85 0 0 1-.537.2 15.351 15.351 0 0 0-3.22.89 1.412 1.412 0 0 1-.325.155l-.424.127-.537.113a4.393 4.393 0 0 1-.847.141h-.24m.184-2.966a1.6 1.6 0 0 0-.127.212l-.353.522c-.424.678-.41.946-.4 1l.127.254.169.085.254.113h.325a6.3 6.3 0 0 0 .734-.113l.537-.127.325-.085h.113a11.82 11.82 0 0 1 3.53-1.031 1.411 1.411 0 0 0 .325-.113.424.424 0 0 0 .113-.113.255.255 0 0 0 0-.127.2.2 0 0 0 0-.1.467.467 0 0 0-.169-.141h-.212s-.325.071-1.412.353l-2.372.621a3.573 3.573 0 0 1-.876.2.932.932 0 0 1-.706-.169.579.579 0 0 1-.184-.4 1.581 1.581 0 0 1 .551-.974l.452-.424.268-.212a2.585 2.585 0 0 0 .523-.635 1.978 1.978 0 0 0 .2-.311l.3-.424a1.82 1.82 0 0 0 .184-.24 1.779 1.779 0 0 0 .2-.367 3.067 3.067 0 0 1 .2-.621 4.6 4.6 0 0 0 .113-.523.649.649 0 0 1-.141.3 1.412 1.412 0 0 0-.155.424 1.794 1.794 0 0 1-.254.551c-.127.2-.282.424-.48.692a10.037 10.037 0 0 1-.72.876 5.184 5.184 0 0 1-1.13 1.144M181.176 42v.1a4.438 4.438 0 0 0 .424-.593c0-.127.141-.254.226-.381a2.26 2.26 0 0 1 .3-.325 1.708 1.708 0 0 1 .4-.254 1.852 1.852 0 0 1 .4-.127 1.412 1.412 0 0 1 .424 0 1.186 1.186 0 0 1 .678-.028 3.192 3.192 0 0 1 .763.621 1.243 1.243 0 0 1 .3.424 7.437 7.437 0 0 0-.24-.791 3.262 3.262 0 0 0-.494-.438 1.525 1.525 0 0 0-.579-.339 1.13 1.13 0 0 0-.692 0 1.666 1.666 0 0 0-.4.169.875.875 0 0 0-.282.212 4.49 4.49 0 0 0-.974 1.412.607.607 0 0 0-.085.212" transform="translate(74.424 14.65)"/>
            <path id="패스_3224" data-name="패스 3224" d="M191.806 39.785c.184-.184.353-.254.494-.212a.494.494 0 0 1 .311.41.692.692 0 0 1 0 .4 3.172 3.172 0 0 1-.3.565 7.064 7.064 0 0 0-.522.96 8.09 8.09 0 0 0-.367.946.607.607 0 0 0 .085.551c0 .141.282.311.706.508l.621.3a4.6 4.6 0 0 0 .621.212 1.412 1.412 0 0 1 1.073 1.045c.085.381 0 .607-.325.678a.9.9 0 0 1-.3 0l-.635-.282-.989-.48-.635-.4-.48-.2a1.5 1.5 0 0 0-.325-.113.523.523 0 0 0-.24 0c-.141 0-.466.466-.989 1.313-.226.381-.41.664-.537.833a2.614 2.614 0 0 1-.282.367l-.127.085h-.155a.508.508 0 0 1-.452 0 .226.226 0 0 1 0-.254 10.527 10.527 0 0 1 .706-1.243c.113-.226.226-.438.325-.607l.254-.424a1.017 1.017 0 0 0 0-.664.833.833 0 0 0-.466-.593l-1.285-.65c-.621-.3-1.031-.48-1.243-.551a.381.381 0 0 1-.169 0l-.113-.085a.255.255 0 0 1-.071-.1V41.888a.479.479 0 0 1 0-.141v-.169a.381.381 0 0 1 .085-.226.607.607 0 0 1 .325-.085 2.076 2.076 0 0 1 .876.212 2.908 2.908 0 0 0 .48.226l.466.155a4.066 4.066 0 0 1 .932.466l.254.155.254.113.282.071a.692.692 0 0 0 .523 0s.113-.268.24-.621a4.363 4.363 0 0 1 .3-.777 8.673 8.673 0 0 1 .48-.89 1.849 1.849 0 0 1 .381-.494" transform="translate(76.665 14.849)"/>
            <path id="패스_3225" data-name="패스 3225" class="cls-20" d="M188.411 47.855a.819.819 0 0 1-.522-.184.593.593 0 0 1-.155-.692 4.613 4.613 0 0 1 .72-1.3l.325-.593c.1-.184.184-.325.268-.452a.834.834 0 0 0 0-.367.466.466 0 0 0-.268-.339l-1.271-.635a11.112 11.112 0 0 0-1.144-.523.636.636 0 0 1-.311-.113l-.155-.113a1.141 1.141 0 0 1-.155-.184v-.127a1.045 1.045 0 0 1 0-.254v-.24a.438.438 0 0 0 0-.141.763.763 0 0 1 .2-.508.89.89 0 0 1 .579-.169 2.415 2.415 0 0 1 1.045.24l.466.226.438.141a4.6 4.6 0 0 1 1.031.508l.24.141.184.085h.4a1.781 1.781 0 0 1 .155-.424 4.786 4.786 0 0 1 .325-.819 9.246 9.246 0 0 1 .48-.918 2.316 2.316 0 0 1 .466-.593.861.861 0 0 1 .861-.282.833.833 0 0 1 .579.692 1.087 1.087 0 0 1 0 .621 4.124 4.124 0 0 1-.339.635 9.564 9.564 0 0 0-.508.918 8.56 8.56 0 0 0-.325.89v.212c0 .028.127.169.579.4l.593.282a2.658 2.658 0 0 1 .593.2 1.822 1.822 0 0 1 1.405 1.324 1.045 1.045 0 0 1 0 .706.777.777 0 0 1-.579.424.833.833 0 0 1-.494 0 2.585 2.585 0 0 1-.678-.311l-.989-.48-.607-.311-.452-.2-.3-.1a5.775 5.775 0 0 0-.791 1.13c-.226.381-.41.664-.537.847a5.178 5.178 0 0 1-.325.41l-.226.155-.254.1h-.268m-1.977-5.877a6.906 6.906 0 0 1 1.412.579c1.214.593 1.285.635 1.327.664a1.243 1.243 0 0 1 .635.833 1.412 1.412 0 0 1-.085.918c-.085.141-.155.282-.254.438s-.2.381-.325.607c-.3.508-.452.791-.551.974a1.993 1.993 0 0 0 .226-.3c.113-.169.3-.438.523-.8.8-1.313 1.017-1.412 1.229-1.5a.89.89 0 0 1 .424 0l.367.127.494.212.635.339.974.466a5.464 5.464 0 0 0 .607.268h.141v-.2c0-.2-.184-.551-.8-.763a3.673 3.673 0 0 1-.664-.226l-.65-.3c-.508-.268-.777-.466-.876-.692a.9.9 0 0 1-.1-.819 8.033 8.033 0 0 1 .381-1 7.058 7.058 0 0 1 .551-1.017 3.555 3.555 0 0 0 .268-.494.325.325 0 0 0 0-.169.311.311 0 0 0 0-.113l-.1.1a1.863 1.863 0 0 0-.282.4 9.19 9.19 0 0 0-.452.833 7.543 7.543 0 0 0-.282.706 5.232 5.232 0 0 1-.282.748l-.1.1a1.031 1.031 0 0 1-.833.085l-.311-.085-.325-.141-.282-.169a3.447 3.447 0 0 0-.833-.41l-.494-.169-.523-.254a1.412 1.412 0 0 0-.664-.155v.254z" transform="translate(76.557 14.701)"/>
            <path id="패스_3226" data-name="패스 3226" d="M195.425 36a.23.23 0 0 1 .3-.226.89.89 0 0 1 .466.381 1.736 1.736 0 0 1 .4.621c.565 2.189.876 3.319.932 3.361a20.987 20.987 0 0 0 2.231-.438 16.817 16.817 0 0 1 2.485-.466c.4 0 .466.212.2.452a2.613 2.613 0 0 1-.621.424c-.339.155-.537.212-.579.184s-.141 0-.3.113a6.836 6.836 0 0 1-1.624.452 6.4 6.4 0 0 0-1.582.466c-.268.212-.268.537 0 .989a.678.678 0 0 1 .085.593 1.667 1.667 0 0 0 0 .72 14.821 14.821 0 0 0 .282 1.709 4.081 4.081 0 0 1 .155 1.568.169.169 0 0 1-.268 0 11.041 11.041 0 0 1-.72-2.584 14.234 14.234 0 0 0-.692-2.6c-.184-.254-.607-.254-1.257 0a13.232 13.232 0 0 1-1.412.508 7.245 7.245 0 0 0-1.243.494.946.946 0 0 1-.3.127.622.622 0 0 1-.268-.1.763.763 0 0 1-.24-.367.268.268 0 0 1 .085-.268 1.017 1.017 0 0 1 .325-.24 2.471 2.471 0 0 1 .452-.169 3.743 3.743 0 0 0 1.116-.494 5.394 5.394 0 0 1 1.582-.579c.551-.113.861-.226.9-.311a11.437 11.437 0 0 0-.4-2.147 14.782 14.782 0 0 1-.4-2.217" transform="translate(79.075 13.284)"/>
            <path id="패스_3227" data-name="패스 3227" class="cls-20" d="M198.166 47.481a.565.565 0 0 1-.381-.155c-.141-.127-.282-.254-.847-2.824a16.283 16.283 0 0 0-.621-2.457s-.226-.1-.8.155a11.724 11.724 0 0 1-1.412.508 6.622 6.622 0 0 0-1.158.452 1.031 1.031 0 0 1-.494.184.833.833 0 0 1-.466-.141h-.087a1.172 1.172 0 0 1-.353-.579.678.678 0 0 1 .155-.565 1.412 1.412 0 0 1 .452-.367 2.3 2.3 0 0 1 .551-.184 4.1 4.1 0 0 0 1.017-.452 4.773 4.773 0 0 1 1.68-.621 3.828 3.828 0 0 0 .593-.169 14.446 14.446 0 0 0-.367-1.836c-.466-2.076-.424-2.259-.4-2.387a.65.65 0 0 1 .734-.48 1.144 1.144 0 0 1 .706.551 1.779 1.779 0 0 1 .466.748c.48 1.892.706 2.7.8 3.022l1.892-.4a12.837 12.837 0 0 1 2.6-.466.624.624 0 0 1 .692.424.664.664 0 0 1-.254.692 2.924 2.924 0 0 1-.706.494 1.949 1.949 0 0 1-.777.226h-.081a6.029 6.029 0 0 1-1.737.494 6.425 6.425 0 0 0-1.412.4s-.141.1.085.48a1.045 1.045 0 0 1 .1.96 1.412 1.412 0 0 0 0 .522 13.519 13.519 0 0 0 .268 1.666c.282 1.412.212 1.695.085 1.864a.579.579 0 0 1-.41.24m-1.977-6.2a.847.847 0 0 1 .748.353 5.961 5.961 0 0 1 .537 1.765 1.82 1.82 0 0 1 .085-.508v-.282a1.1 1.1 0 0 1 .127-1.483 5.4 5.4 0 0 1 1.737-.537 4.858 4.858 0 0 0 1.412-.4.861.861 0 0 1 .593-.169l.353-.155.169-.085a14.46 14.46 0 0 0-1.991.4 9.745 9.745 0 0 1-2.372.452h-.2c-.127-.113-.184-.155-1.059-3.559 0 0 0-.169-.311-.452a13.69 13.69 0 0 0 .353 1.779c.466 2.1.424 2.217.367 2.358s-.325.381-1.172.565a4.872 4.872 0 0 0-1.412.537 4.688 4.688 0 0 1-1.229.537 1.611 1.611 0 0 0-.367.127l-.184.127.085.1h.127a6.835 6.835 0 0 1 1.313-.523 11.874 11.874 0 0 0 1.412-.494 2.824 2.824 0 0 1 .989-.24" transform="translate(78.947 13.197)"/>
            <path id="패스_3228" data-name="패스 3228" d="M203.093 35.582a7.866 7.866 0 0 0 .508-.861.65.65 0 0 1 .1-.2.382.382 0 0 1 .184-.1.339.339 0 0 1 .353.113 2.741 2.741 0 0 1 .4 1.13 4.239 4.239 0 0 0 .424 1.271 2.6 2.6 0 0 1 .367.876 1.06 1.06 0 0 0 .268.607.353.353 0 0 0 .424 0 1.836 1.836 0 0 1 .593-.212 1.779 1.779 0 0 0 .579-.169c.184-.085.339-.1.452 0a.282.282 0 0 1 .127.155.75.75 0 0 1 .071.268 1.417 1.417 0 0 1 0 .254 1.327 1.327 0 0 1-.085.212.438.438 0 0 1-.127.155h-.833c-.466.085-.72.2-.763.311a8.2 8.2 0 0 0 .353 2.132c.2.918.311 1.412.339 1.666a.664.664 0 0 1-.085.494.452.452 0 0 1-.282.254.9.9 0 0 1-.438 0 .48.48 0 0 1-.2-.282c0-.155-.155-.579-.311-1.243a.82.82 0 0 0-.113-.523l-.085-.41a2.516 2.516 0 0 0 0-.367v-.268a.339.339 0 0 1 0-.169.8.8 0 0 0 0-.325 1.711 1.711 0 0 0-.24-.353l-.282-.353-.678.2c-1.539.452-2.514.72-2.824.819a1.992 1.992 0 0 1-.763.1c-.155-.085-.254-.169-.282-.282a1.412 1.412 0 0 1 .169-.65.707.707 0 0 1 .071-.184l.085-.155a1.642 1.642 0 0 1 .071-.155v-.1l.071-.113a6.978 6.978 0 0 0 .565-.777c.311-.466.635-.974.989-1.539s.692-1.045.989-1.539m.523 3.516h.127l.155-.071.254-.113.169-.127a.226.226 0 0 0 .085-.113.819.819 0 0 0 0-.339 4.235 4.235 0 0 0-.1-.593 1.65 1.65 0 0 0 0-.282 1.412 1.412 0 0 1-.071-.226 1.709 1.709 0 0 1-.071-.2.79.79 0 0 1 0-.169 1.3 1.3 0 0 0-.071-.141.847.847 0 0 0-.184-.2h-.113l-.113.113-.141.212-.184.282c-.085.127-.155.254-.226.381l-.169.3-.4.565a1.99 1.99 0 0 1-.169.381c-.085.155-.2.339-.325.537a3.124 3.124 0 0 0-.3.565.2.2 0 0 0 .141.085.692.692 0 0 0 .48 0 3.616 3.616 0 0 0 .734-.311h.3" transform="translate(82.536 12.726)"/>
            <path id="패스_3229" data-name="패스 3229" class="cls-20" d="M206.3 44.756h-.381a.89.89 0 0 1-.367-.494 13.137 13.137 0 0 1-.311-1.285l-.113-.494a2.077 2.077 0 0 0-.1-.466l-.085-.65a1.412 1.412 0 0 1 0-.254v-.155a1.129 1.129 0 0 0-.169-.24l-.127-.141-.424.127-2.9.8a1.921 1.921 0 0 1-.96.1c-.339-.155-.508-.339-.551-.579a1.412 1.412 0 0 1 .184-.876.523.523 0 0 1 .085-.212l.113-.24a1.115 1.115 0 0 1 .169-.254l.1-.127.494-.706.989-1.525c.353-.551.692-1.059.989-1.539.4-.635.452-.777.466-.791a.819.819 0 0 1 .184-.325.749.749 0 0 1 .381-.226.706.706 0 0 1 .706.212c.141.127.3.381.508 1.327a4.238 4.238 0 0 0 .367 1.144 3.4 3.4 0 0 1 .424 1 1.1 1.1 0 0 0 .1.325 2.005 2.005 0 0 1 .748-.268 1.228 1.228 0 0 0 .438-.127.8.8 0 0 1 .89 0 .833.833 0 0 1 .254.311 1.5 1.5 0 0 1 .085.4 1.412 1.412 0 0 1 0 .353 1.2 1.2 0 0 1-.127.325.778.778 0 0 1-.212.268h-.1a.254.254 0 0 1-.1.071h-.282a.607.607 0 0 1-.184 0l-.268.085h-.141a1.5 1.5 0 0 0-.466.127 15.03 15.03 0 0 0 .367 1.85q.3 1.412.339 1.695a.932.932 0 0 1-.155.777.819.819 0 0 1-.466.4 1.555 1.555 0 0 1-.381 0m0-.777h.155a.169.169 0 0 0 .071 0 .353.353 0 0 0 0-.254 15.676 15.676 0 0 0-.339-1.638c-.466-2.076-.4-2.217-.339-2.372s.424-.41 1.059-.537l.2.353-.085-.381a1.5 1.5 0 0 1 .268 0 .607.607 0 0 1 .212-.071l.127-.1a.326.326 0 0 0 0-.141.465.465 0 0 0 0-.141.226.226 0 0 0 0-.141 1.737 1.737 0 0 1-.734.24 1.412 1.412 0 0 0-.466.155.678.678 0 0 1-.847 0 1.412 1.412 0 0 1-.424-.833 2.048 2.048 0 0 0-.3-.734 4.336 4.336 0 0 1-.494-1.412 3.814 3.814 0 0 0-.282-.946 3.981 3.981 0 0 1-.551.989c-.3.494-.635 1-.989 1.539s-.678 1.073-.989 1.539a6.777 6.777 0 0 1-.579.8l-.085.113-.367-.141.311.24-.184.41a1.412 1.412 0 0 0-.141.424 2.284 2.284 0 0 0 .565-.127l2.824-.8.9-.268.452.537a1.638 1.638 0 0 1 .311.494 1.116 1.116 0 0 1 0 .494l.1.678a.813.813 0 0 0 .071.4l.113.523c.141.65.24 1.045.3 1.214zm-3.855-3.9a.777.777 0 0 1-.367 0 .438.438 0 0 1-.311-.24l-.085-.141v-.155a4.537 4.537 0 0 1 .353-.664l.311-.523a1.242 1.242 0 0 0 .127-.3 1.58 1.58 0 0 1 .155-.311l.169-.311c0-.127.155-.254.24-.381l.184-.3a1.762 1.762 0 0 1 .169-.24.621.621 0 0 1 .155-.169V36h.169a.452.452 0 0 1 .424.127.932.932 0 0 1 .254.268 1.116 1.116 0 0 1 .113.226l.212.621a.473.473 0 0 0 .085.311 3.59 3.59 0 0 1 .1.664 1.144 1.144 0 0 1 0 .452v.113l-.155.184a.777.777 0 0 1-.268.184l-.282.141h-.339l-.071-.381v.381l-.212-.325.113.367h-.141a4.236 4.236 0 0 1-.819.353h-.367m1.455-2.98-.184.3a3.334 3.334 0 0 0-.212.353l-.169.3a.246.246 0 0 1-.1.2 2.048 2.048 0 0 1-.184.41 5.407 5.407 0 0 1-.339.565 2.711 2.711 0 0 0 .565-.254l.2-.085.282-.113h.2l.24-.113h.071v-.141a1.414 1.414 0 0 0-.085-.551c-.085-.226 0-.169-.071-.24z" transform="translate(82.36 12.632)"/>
            <path id="패스_3230" data-name="패스 3230" d="M.55 97a1.511 1.511 0 0 0 .268-.41.791.791 0 0 1 .141-.2l.226-.381.282-.254.381-.311a.65.65 0 0 1 .311-.155.734.734 0 0 0 .438-.127l.226-.113h.141l.3.212.466.381c.085.113.127.169.127.212v.155H3.3l-.24-.113h-.18a.565.565 0 0 0-.339.1 6.866 6.866 0 0 0-.9.579 1.723 1.723 0 0 0-.212.24 1.228 1.228 0 0 0-.155.254 1.215 1.215 0 0 1-.184.339 2.655 2.655 0 0 0-.268.833v.3a.763.763 0 0 0 .2.254.678.678 0 0 0 .452.268A1.794 1.794 0 0 0 2.6 98.3a1.991 1.991 0 0 0 .788-1.3v-.085l.1-.113h.1a.438.438 0 0 1 .212.127v.127a1.412 1.412 0 0 1 0 .254v1.313l.2.353a1.1 1.1 0 0 0 .452.494l.2.141a.074.074 0 0 1 .071.085c0 .085 0 .085-.155.113a1.2 1.2 0 0 1-.325 0h-.078a1 1 0 0 1-.268-.593.254.254 0 0 0 0-.1l-.071-.085v-.382a1.412 1.412 0 0 0 0-.169h-.339l-.127.113a4.8 4.8 0 0 1-.876.692 1.412 1.412 0 0 1-.664.085h-.48l-.282-.254-.184-.184a.818.818 0 0 1-.113-.141v-1.482a.593.593 0 0 1 .113-.254" transform="translate(.227 37.72)"/>
            <path id="패스_3231" data-name="패스 3231" class="cls-20" d="M4.971 100.307a1.157 1.157 0 0 1-.381 0 1.286 1.286 0 0 1-.381 0h-.128a1.412 1.412 0 0 1-.41-.4l-.24-.311a3.022 3.022 0 0 1-.763.565 1.935 1.935 0 0 1-.96.127h-.677l-.65-.607a.9.9 0 0 1-.169-.212v-.311A3.163 3.163 0 0 1 0 97.976v-.65a1.412 1.412 0 0 1 .184-.48v-.085a1.045 1.045 0 0 0 .3-.2 1.568 1.568 0 0 1 .226-.424 3.574 3.574 0 0 1 .325-.367 2.161 2.161 0 0 1 .381-.3l.325-.325a1.412 1.412 0 0 1 .621-.3h.085l.268-.141a.791.791 0 0 1 .706 0l.353.254a2.132 2.132 0 0 1 .551.466.989.989 0 0 1 .268.508v.438l.071.113a1.017 1.017 0 0 1 .113.353 2.612 2.612 0 0 1 0 .339v1.158l.113.184a.678.678 0 0 0 .24.3 2.062 2.062 0 0 1 .268.184l.24.184v.381a.72.72 0 0 1-.579.664H4.9m-1.228-1.237h.141v-.085h-.141zm-.085 0zm0-.127zm-2.1-.565h.1s.268 0 .734-.438a1.553 1.553 0 0 0 .607-.9l.212-.4h-.132a4.124 4.124 0 0 0-.833.523.4.4 0 0 0-.127.141l-.113.169a1.412 1.412 0 0 1-.254.452 3.356 3.356 0 0 1-.127.579" transform="translate(0 37.548)"/>
            <path id="패스_3232" data-name="패스 3232" d="M7.88 95.593a.311.311 0 0 1 .325 0 .282.282 0 0 1 .1.282.353.353 0 0 1-.1.226 2.33 2.33 0 0 1-.268.282 5.014 5.014 0 0 0-.48.466 4.927 4.927 0 0 0-.367.494.339.339 0 0 0 0 .339 1 1 0 0 0 .325.424l.311.282a3.515 3.515 0 0 0 .339.24.876.876 0 0 1 .438.791c0 .24-.127.353-.311.339a.282.282 0 0 1-.155-.1l-.325-.268-.494-.466-.311-.282-.24-.212-.167-.13h-.145a4.3 4.3 0 0 0-.8.593l-.452.4a1.285 1.285 0 0 1-.24.169h-.24c-.127 0-.212 0-.254-.113a.127.127 0 0 1 0-.155s.254-.268.621-.621l.353-.339.226-.2a.65.65 0 0 0 .141-.381.523.523 0 0 0-.169-.438l-.641-.591a5.323 5.323 0 0 0-.635-.551H4.18v-.268a.141.141 0 0 1 .085-.113.339.339 0 0 1 .2 0 1.115 1.115 0 0 1 .48.268l.24.226h.155a2.57 2.57 0 0 1 .466.438l.127.127a.339.339 0 0 0 .127.113l.141.1c.141 0 .24.1.311 0l.254-.311a2.076 2.076 0 0 1 .311-.41c.141-.155.282-.311.424-.438a1.228 1.228 0 0 1 .325-.226" transform="translate(1.723 37.925)"/>
            <path id="패스_3233" data-name="패스 3233" class="cls-20" d="M8.51 100.51h-.142a.89.89 0 0 1-.468-.21 3.008 3.008 0 0 1-.367-.325l-.579-.424a2.825 2.825 0 0 0-.282-.339.663.663 0 0 0-.169-.127l-.41.339-.48.424-.325.212h-.125a1.229 1.229 0 0 1-.4 0 .847.847 0 0 1-.706-.41.706.706 0 0 1 0-.819 5.239 5.239 0 0 1 .692-.678l.282-.3.311-.056c-.127 0-.325-.2-.692-.537a3.11 3.11 0 0 0-.523-.452l-.2-.184a.678.678 0 0 1-.113-.155l-.141-.339v-.551a.819.819 0 0 1 .452-.466.96.96 0 0 1 .621 0 1.723 1.723 0 0 1 .706.4l.226.212.2.141a2.542 2.542 0 0 1 .593.537l.071.085a2.825 2.825 0 0 1 .41-.424 5.056 5.056 0 0 1 .466-.48 1.751 1.751 0 0 1 .466-.325.861.861 0 0 1 .9 0 .847.847 0 0 1 .367.833 1 1 0 0 1-.212.537l-.353.353a4.5 4.5 0 0 0-.424.424 2.553 2.553 0 0 0-.254.325l.113.113.282.24a1.877 1.877 0 0 0 .268.2 1.412 1.412 0 0 1 .72 1.412.96.96 0 0 1-.311.678.749.749 0 0 1-.424.2M6.462 97.8" transform="translate(1.517 37.726)"/>
            <path id="패스_3234" data-name="패스 3234" d="M13.969 94.342c0-.085.141-.113.212 0s.155.141.2.3a.8.8 0 0 1 .127.438v2.132a10.705 10.705 0 0 0 1.412.127 12.482 12.482 0 0 1 1.539.169c.212.1.226.2 0 .3a1.327 1.327 0 0 1-.438.141h-.565a3.445 3.445 0 0 1-1.031 0 3.489 3.489 0 0 0-1 0c-.2.071-.254.268-.184.565a.381.381 0 0 1 0 .367.988.988 0 0 0-.155.424c0 .169-.071.523-.127 1.045a2.485 2.485 0 0 1-.2.946H13.6a6.51 6.51 0 0 1 0-1.624 8.473 8.473 0 0 0 0-1.652c0-.184-.311-.254-.734-.212h-.932a3.26 3.26 0 0 0-.819 0h-.254s-.071 0-.127-.1a.48.48 0 0 1-.085-.268.148.148 0 0 1 .1-.127.48.48 0 0 1 .226-.1h.3a2.3 2.3 0 0 0 .748-.1 3.4 3.4 0 0 1 1.017 0 1.186 1.186 0 0 0 .593 0 7.061 7.061 0 0 0 .141-1.327 9.42 9.42 0 0 1 .155-1.412" transform="translate(4.39 37.398)"/>
            <path id="패스_3235" data-name="패스 3235" class="cls-20" d="M13.928 102.04h-.339a.777.777 0 0 1-.466-.325c-.1-.2-.169-.325 0-1.991 0-.664.071-1.031.071-1.243h-.114a7.329 7.329 0 0 1-.974 0 3.685 3.685 0 0 0-.664 0 1.172 1.172 0 0 1-.48 0 .918.918 0 0 1-.438-.254l-.1-.141a1.1 1.1 0 0 1-.155-.593.791.791 0 0 1 .339-.565 1.116 1.116 0 0 1 .48-.2 1.623 1.623 0 0 1 .452 0 3.079 3.079 0 0 0 .551-.085 3.46 3.46 0 0 1 1.214-.085v-.819c.1-1.412.155-1.483.226-1.61a.748.748 0 0 1 .974-.268 1.1 1.1 0 0 1 .48.65 1.271 1.271 0 0 1 .155.664v1.568h.847a8.965 8.965 0 0 1 1.695.2c.466.212.565.508.565.706a.734.734 0 0 1-.466.678 1.71 1.71 0 0 1-.593.2 1.511 1.511 0 0 1-.565 0 3.77 3.77 0 0 1-1.186 0 4.533 4.533 0 0 0-.551 0 .918.918 0 0 1-.2.748v.141c0 .141-.071.508-.127 1-.085.9-.184 1.186-.424 1.412z" transform="translate(4.233 37.198)"/>
            <path id="패스_3236" data-name="패스 3236" d="M19.132 94.38h.155a.347.347 0 0 0 .071.184 3.984 3.984 0 0 1 0 .452 4.124 4.124 0 0 0 0 .466 2.514 2.514 0 0 0 0 .282 2.824 2.824 0 0 1 .155 1.073 1.709 1.709 0 0 0 0 .367.41.41 0 0 0 0 .2c0 .085.169.127.367.113a3.108 3.108 0 0 1 .8 0l.367.113.212.113.593.607.212.268.085.169a1.412 1.412 0 0 0 .1.367.946.946 0 0 1 0 .254.424.424 0 0 0 0 .127l-.1.254a1.906 1.906 0 0 1-.508.734.862.862 0 0 1-.226.169.847.847 0 0 1-.212.127h-.424a.664.664 0 0 0-.212.085 2.02 2.02 0 0 1-.508.1h-.579a.579.579 0 0 0-.353.113.169.169 0 0 1-.212 0v-.339c0-.113 0-.678.071-1.412a12.864 12.864 0 0 0 0-1.949 1.271 1.271 0 0 1 0-.254 2.826 2.826 0 0 1 0-.367 1.285 1.285 0 0 0 0-.24 1.539 1.539 0 0 0 0-.254v-.254a1.568 1.568 0 0 1 0-.268 1.413 1.413 0 0 1 0-.353v-.169a1.808 1.808 0 0 1 .155-.847m2.019 3.9-.4-.226a1.92 1.92 0 0 0-.4-.085 1.412 1.412 0 0 0-.381 0 .466.466 0 0 0-.184.169l-.085.141a.749.749 0 0 0 0 .169 7.85 7.85 0 0 0 0 .819v.847a.424.424 0 0 0 0 .155 1.7 1.7 0 0 0 .508.127h.226a.339.339 0 0 0 .2 0l.226-.1a.819.819 0 0 1 .381-.169.212.212 0 0 0 .169 0 .748.748 0 0 0 .184-.184.819.819 0 0 0 .141-.268 1.1 1.1 0 0 0 0-.3.748.748 0 0 0-.141-.523.678.678 0 0 1-.155-.254 2.386 2.386 0 0 0-.4-.325" transform="translate(7.799 37.444)"/>
            <path id="패스_3237" data-name="패스 3237" class="cls-20" d="M19.4 102.214a.9.9 0 0 1-.4 0h-.1l-.3-.3v-.268a1.5 1.5 0 0 1 0-.325 13.228 13.228 0 0 1 .085-1.5 12.921 12.921 0 0 0 0-1.793V97.18q.007-.148 0-.3v-.268a2.909 2.909 0 0 1 0-.3 2.1 2.1 0 0 1 0-.424v-.452c0-.819.127-1.13.353-1.327l.268-.212.621.2a.89.89 0 0 1 .311.551v.96a1.963 1.963 0 0 0 0 .24 2.951 2.951 0 0 1 .155 1.229 2.825 2.825 0 0 1 .777.1 1.906 1.906 0 0 1 .452.127 1.256 1.256 0 0 1 .367.226 7.06 7.06 0 0 1 .65.65 4.1 4.1 0 0 1 .254.339.96.96 0 0 1 .184.381 1.525 1.525 0 0 0 0 .24 1.412 1.412 0 0 1 .1.537l-.071.268-.127.311a2.485 2.485 0 0 1-.65.932 1.808 1.808 0 0 1-.311.24 1.665 1.665 0 0 1-.268.155l-.311.113h-.325a2.486 2.486 0 0 1-.706.155h-.607a1.031 1.031 0 0 1-.367.155m1.13-1.949.127-.085a1.412 1.412 0 0 1 .494-.212.2.2 0 0 0 .071-.127.424.424 0 0 0 0-.141v-.155a1.721 1.721 0 0 1-.169-.268l-.184-.113-.268-.113h-.268a4.815 4.815 0 0 0 0 .72v.523h.155zm-1.695-5.225" transform="translate(7.669 37.25)"/>
            <path id="패스_3238" data-name="패스 3238" d="M25.547 96.853a.339.339 0 0 1 .339 0 .3.3 0 0 1 .1.3.325.325 0 0 1-.1.212 1.61 1.61 0 0 1-.268.282 5.056 5.056 0 0 0-.48.466l-.381.494a.381.381 0 0 0 0 .339c0 .085.113.226.325.424l.311.282.325.24a.861.861 0 0 1 .452.791c0 .24-.127.353-.311.339a.339.339 0 0 1-.155-.085 3.712 3.712 0 0 1-.325-.282l-.494-.48a2.94 2.94 0 0 0-.3-.3 1.413 1.413 0 0 0-.24-.2l-.169-.127a.226.226 0 0 0-.141 0 2.825 2.825 0 0 0-.8.593 5.832 5.832 0 0 1-.452.4l-.24.169h-.2a.268.268 0 0 1-.24-.113v-.155a8.625 8.625 0 0 1 .621-.607l.3-.311.226-.2a.593.593 0 0 0 .141-.381.523.523 0 0 0-.169-.438l-.635-.593a7.2 7.2 0 0 0-.635-.551.1.1 0 0 1-.085 0 .2.2 0 0 1 0-.085v-.254s0-.113.085-.127a.339.339 0 0 1 .2 0 1.271 1.271 0 0 1 .48.282l.24.212.24.169a1.892 1.892 0 0 1 .458.442.579.579 0 0 1 .127.141l.127.1.155.1a.536.536 0 0 0 .311.085l.254-.325a1.638 1.638 0 0 1 .311-.41q.212-.226.424-.424a1.285 1.285 0 0 1 .311-.24" transform="translate(9.009 38.445)"/>
            <path id="패스_3239" data-name="패스 3239" class="cls-20" d="M26.2 101.8h-.212a.89.89 0 0 1-.48-.212c-.085 0-.2-.169-.367-.311l-.48-.452-.3-.282a1.272 1.272 0 0 0-.169-.141l-.41.353-.48.41a1.975 1.975 0 0 1-.325.226h-.127a1 1 0 0 1-.367 0 .861.861 0 0 1-.734-.41.678.678 0 0 1 0-.819 5.522 5.522 0 0 1 .678-.678l.3-.282.254-.24c-.127 0-.325-.2-.692-.523l-.494-.452-.2-.169-.127-.155-.127-.339v-.311a.509.509 0 0 1 0-.155.819.819 0 0 1 .41-.537.875.875 0 0 1 .621 0 1.85 1.85 0 0 1 .706.381 1.411 1.411 0 0 0 .226.212l.2.141a2.909 2.909 0 0 1 .593.537l.071.085a4.591 4.591 0 0 1 .325-.4c.155-.169.311-.339.466-.48a1.878 1.878 0 0 1 .466-.325.861.861 0 0 1 .89 0 .833.833 0 0 1 .381.833 1.031 1.031 0 0 1-.226.537 2.682 2.682 0 0 1-.353.367 3.741 3.741 0 0 0-.41.41 2.556 2.556 0 0 0-.254.325.832.832 0 0 0 .113.113l.268.24.282.212a1.412 1.412 0 0 1 .706 1.327.918.918 0 0 1-.311.692.791.791 0 0 1-.41.184m-2.048-2.669h.014v.1" transform="translate(8.795 38.219)"/>
            <path id="패스_3240" data-name="패스 3240" d="M31.6 95.6c.071-.085.141-.113.212 0s.141.141.2.3a.833.833 0 0 1 .127.438v2.132a11.154 11.154 0 0 0 1.412.127 12.92 12.92 0 0 1 1.539.169c.212.1.226.2 0 .3a1.144 1.144 0 0 1-.438.141h-.565a3.445 3.445 0 0 1-1.031 0 3.461 3.461 0 0 0-1 0c-.2 0-.254.268-.184.579a.438.438 0 0 1 0 .367.918.918 0 0 0-.155.41c0 .184-.085.523-.141 1.045a2.575 2.575 0 0 1-.184.946c-.071.042-.113 0-.155 0a6.68 6.68 0 0 1 0-1.638 8.473 8.473 0 0 0 0-1.652c0-.184-.311-.254-.734-.212h-.932a3.263 3.263 0 0 0-.819.071.522.522 0 0 1-.2 0s-.071 0-.141-.1a.452.452 0 0 1-.071-.268.169.169 0 0 1 .085-.127l.24-.1h.3a2.725 2.725 0 0 0 .748-.085 2.993 2.993 0 0 1 1.017 0 1.186 1.186 0 0 0 .593 0 8.912 8.912 0 0 0 .141-1.327 7.541 7.541 0 0 1 .155-1.412" transform="translate(11.681 37.917)"/>
            <path id="패스_3241" data-name="패스 3241" class="cls-20" d="M31.624 103.3h-.339a.664.664 0 0 1-.466-.339c-.113-.2-.169-.381 0-1.977 0-.664.071-1.031.071-1.243h-.17a9.649 9.649 0 0 1-.974 0 3.333 3.333 0 0 0-.678 0 1.3 1.3 0 0 1-.508 0 .96.96 0 0 1-.4-.254l-.1-.141a1.059 1.059 0 0 1-.155-.579.777.777 0 0 1 .339-.579 1.228 1.228 0 0 1 .48-.2 1.5 1.5 0 0 1 .438 0 2.16 2.16 0 0 0 .565-.085 3.46 3.46 0 0 1 1.214-.071 4.087 4.087 0 0 1 .071-.819c.085-1.412.141-1.412.212-1.6a.748.748 0 0 1 .96-.268 1.116 1.116 0 0 1 .494.65 1.3 1.3 0 0 1 .155.664v1.568h.847a6.666 6.666 0 0 1 1.695.2c.466.212.565.494.565.692a.763.763 0 0 1-.466.692 2.428 2.428 0 0 1-.593.2 2.5 2.5 0 0 1-.565 0 4.575 4.575 0 0 1-1.186 0h-.551a.974.974 0 0 1-.2.763v.127a3.939 3.939 0 0 1-.127 1c-.1.9-.184 1.186-.424 1.412z" transform="translate(11.504 37.731)"/>
            <path id="패스_3242" data-name="패스 3242" d="M39.221 98.307h-.89a.9.9 0 0 0-.254.085c-.169.113-.311.184-.4.254a.947.947 0 0 0-.212.2 2.951 2.951 0 0 0-.184.325 2.2 2.2 0 0 0-.3.9 1.807 1.807 0 0 0 0 .466.537.537 0 0 0 .085.254.989.989 0 0 0 .381.41 1.892 1.892 0 0 0 .339 0l.664.085h1.017a.184.184 0 0 1 0 .085.268.268 0 0 1-.113.113.762.762 0 0 1-.24.127 1.864 1.864 0 0 1-.268.113H38.7a1.7 1.7 0 0 1-.452 0 3.093 3.093 0 0 1-1.172-.381 1.327 1.327 0 0 1-.438-.367 1.511 1.511 0 0 1-.155-.551v-.169a.536.536 0 0 1 0-.141.268.268 0 0 0 0-.113 1.3 1.3 0 0 1 .1-.508 3.22 3.22 0 0 1 .367-.96.423.423 0 0 0 .113-.113l.113-.184v-.085a.466.466 0 0 0 .311-.2.692.692 0 0 1 .325-.184h.353q.593-.275.89 0a.494.494 0 0 0 .2.155s.071 0 .113.141z" transform="translate(15.035 38.785)"/>
            <path id="패스_3243" data-name="패스 3243" class="cls-20" d="M38.918 102.705a3.051 3.051 0 0 1-.607 0 3.869 3.869 0 0 1-1.412-.466 1.751 1.751 0 0 1-.621-.565 1.864 1.864 0 0 1-.254-.777v-.367a.805.805 0 0 1 0-.268 3.121 3.121 0 0 1 .1-.579 2.824 2.824 0 0 1 .508-1.214 1.242 1.242 0 0 0 .141-.184l.155-.226.127-.113.141-.113h.169a1.073 1.073 0 0 1 .748-.325h.113a1.271 1.271 0 0 1 1.582.169.8.8 0 0 1 .438.523l.1.325-.664.706h-1.074l-.367.226a1.172 1.172 0 0 0-.2.3 1.61 1.61 0 0 0-.24.72v.325a.707.707 0 0 0 .141.2h1.991l.226.184.9 1.1-1.045-.1-.1.085a1.837 1.837 0 0 1-.41.226l-.282.113h-.254m.494-4.067zm-2.132-.833" transform="translate(14.844 38.651)"/>
            <path id="패스_3244" data-name="패스 3244" d="M42.58 100.167a.65.65 0 0 1 .381 0l1.3.1a8.571 8.571 0 0 1 2.514.381v.282c0 .141-.254.367-.621.2a1 1 0 0 0-.41-.085.494.494 0 0 1-.325-.1.494.494 0 0 0-.367 0 .381.381 0 0 1-.325 0 2.966 2.966 0 0 0-.777-.127 3.148 3.148 0 0 0-.791 0c-.367.113-.593.1-.692 0a.353.353 0 0 1 0-.282.381.381 0 0 1 .155-.254m-.311-2.655a12.258 12.258 0 0 1 2.274 0l1.878.155c.184 0 .282 0 .311.1a.343.343 0 0 1-.282.41 1.412 1.412 0 0 1-.819-.127.24.24 0 0 0-.268 0 7.147 7.147 0 0 1-1.186 0 7.259 7.259 0 0 0-1.186 0 1.186 1.186 0 0 1-.734 0 .283.283 0 0 1-.155-.1.494.494 0 0 1 0-.169.3.3 0 0 1 .184-.268" transform="translate(17.368 38.76)"/>
            <path id="패스_3245" data-name="패스 3245" class="cls-20" d="M46.845 101.919a1.243 1.243 0 0 1-.72-.113.438.438 0 0 0-.155 0 1.017 1.017 0 0 1-.593-.155.918.918 0 0 1-.678 0 2.825 2.825 0 0 0-.565-.071 1.921 1.921 0 0 0-.635 0 1.116 1.116 0 0 1-1.285-.24.847.847 0 0 1-.169-.748.974.974 0 0 1 .424-.664 1.3 1.3 0 0 1 .692-.113l1.327.1c2.471.212 2.711.353 2.909.593a1.059 1.059 0 0 1-.282 1.412.734.734 0 0 1-.3.1m-.083-2.92a2.1 2.1 0 0 1-1.087-.127 6.626 6.626 0 0 1-1.313 0 5.876 5.876 0 0 0-1.059 0 1.709 1.709 0 0 1-1.087-.113.763.763 0 0 1-.438-.353.875.875 0 0 1-.085-.494.89.89 0 0 1 .537-.763c.169-.085.339-.141 2.556 0l1.892.155a.96.96 0 0 1 .791.424.918.918 0 0 1 0 .777 1 1 0 0 1-.678.48m-1.161-.16" transform="translate(17.17 38.59)"/>
            <path id="패스_3246" data-name="패스 3246" d="M50.013 97.546a.665.665 0 0 0 .24 0 1.327 1.327 0 0 1 .593 0h.72a1.327 1.327 0 0 1 .339.184 3.571 3.571 0 0 1 .367.325l.3.353a1.214 1.214 0 0 1 .155.339.96.96 0 0 0 .2.381v.2a2.825 2.825 0 0 1 0 .3v1.144a2.019 2.019 0 0 0 0 .325.805.805 0 0 1 0 .2.339.339 0 0 1-.1.169c-.085.184-.141.282-.169.282s0 0-.085.127a.607.607 0 0 1 0 .2l-.155.2a2.049 2.049 0 0 1-.254.226l-.353.24-.438.254a1.637 1.637 0 0 1-.381.155 5.138 5.138 0 0 1-.621 0h-.65l-.282-.254-.127-.141-.113-.141-.071-.1v-.1a.9.9 0 0 0-.2-.311.819.819 0 0 1 0-.353q0-.3.085-1.412a12.343 12.343 0 0 1 .169-1.61.748.748 0 0 1 .254-.48.212.212 0 0 0 .113-.169.325.325 0 0 1 0-.141 1.92 1.92 0 0 1 .24-.226l.268-.212h.155m1.229.579a1.412 1.412 0 0 0-.551-.113h-.51l-.353.254a4.238 4.238 0 0 0-.508.508 1.285 1.285 0 0 0-.141.184.424.424 0 0 0-.085.155 2.609 2.609 0 0 1-.1.692 4.147 4.147 0 0 0-.085 1.017v.537a1.779 1.779 0 0 0 .579 1.073l.169.184a.4.4 0 0 0 .127.1 1.158 1.158 0 0 0 .381 0 1.723 1.723 0 0 0 .72-.1l.2-.113.212-.127a4.388 4.388 0 0 0 .353-.282h.071a.339.339 0 0 1 0-.155l.169-.268a1.991 1.991 0 0 0 .169-.381 5.084 5.084 0 0 0 .071-.635 3.021 3.021 0 0 0 0-.48.48.48 0 0 0 0-.141v-.127a3.516 3.516 0 0 0-.155-.4l-.141-.3a1.54 1.54 0 0 1-.113-.212 1.215 1.215 0 0 0-.1-.141 4.236 4.236 0 0 0-.692-.508" transform="translate(20.159 38.726)"/>
            <path id="패스_3247" data-name="패스 3247" class="cls-20" d="M51.135 104.017a4.547 4.547 0 0 1-.748 0h-.861l-.72-.748a.664.664 0 0 1-.127-.169v-.1a.79.79 0 0 0-.1-.2.989.989 0 0 1-.226-.777 11.823 11.823 0 0 1 .085-1.412c.085-.748.127-1.412.184-1.695a1.412 1.412 0 0 1 .4-.763 1 1 0 0 1 .169-.282 3.162 3.162 0 0 1 .311-.311l.339-.24a.777.777 0 0 1 .48-.155 1.638 1.638 0 0 1 .89 0h.452a2.174 2.174 0 0 1 .41.1 1.709 1.709 0 0 1 .466.254 3.6 3.6 0 0 1 .452.381 4.7 4.7 0 0 1 .367.452 2.288 2.288 0 0 1 .24.494V99a.663.663 0 0 1 .127.169l.113.452v1.525a3.436 3.436 0 0 1 0 .353 1.483 1.483 0 0 1-.085.339.763.763 0 0 1-.141.254 1.186 1.186 0 0 1-.2.339 1.2 1.2 0 0 1-.113.24 1.412 1.412 0 0 1-.24.325 2.259 2.259 0 0 1-.325.3l-.381.254-.494.282a2.034 2.034 0 0 1-.565.212m-.664-1.751h.056a1.017 1.017 0 0 0 .466 0h.113l.155-.1.3-.212a1.411 1.411 0 0 1 .1-.212 2.287 2.287 0 0 1 .2-.339.494.494 0 0 0 .085-.2 2.514 2.514 0 0 0 0-.508v-.537a3.656 3.656 0 0 0-.141-.339l-.226-.466a2.514 2.514 0 0 0-.466-.367h-.085a1.256 1.256 0 0 0-.325 0h-.169a3.63 3.63 0 0 0-.466.466l-.113.127a4.579 4.579 0 0 1-.085.593c0 .466-.071.791-.071.96v.197a1.751 1.751 0 0 0 .424.65l.127.127m1.271-.523z" transform="translate(19.927 38.568)"/>
            <path id="패스_3248" data-name="패스 3248" d="M8.289 92.951a1.257 1.257 0 0 1 .466-.311h.3a.537.537 0 0 1 .254.085.636.636 0 0 1 .155.2.833.833 0 0 1 .113.226 2.062 2.062 0 0 1 0 .41v.3a.593.593 0 0 1-.127.212l-.141.155-.113.1h-.088l-.127.071a.212.212 0 0 1-.1 0 1.272 1.272 0 0 1-.254.141h-.253a.48.48 0 0 0-.212.141s0 .085.113.113h.254l.734.1h.523v.071h-.353a4.1 4.1 0 0 0-1.073-.113h-.749a.2.2 0 0 1 0-.085v.226c0-.085.113-.184.282-.311l.028-.113h.113a2.189 2.189 0 0 0 .424-.184l.3-.155.212-.141.113-.1a.664.664 0 0 1 .127-.141.408.408 0 0 1 .1-.226v-.169a.268.268 0 0 0 0-.113.918.918 0 0 0-.127-.24h-.498l-.1.056-.2.127h-.152c-.014 0 0 0 0-.113a.311.311 0 0 1 0-.127.226.226 0 0 1 .085-.085" transform="translate(3.136 36.727)"/>
            <path id="패스_3249" data-name="패스 3249" class="cls-20" d="M9.827 96.286a.917.917 0 0 1-.339 0 6.949 6.949 0 0 0-.861-.184h-.876a1.258 1.258 0 0 1-.339-.184l-.127-.127-.085-.112v-.593a1.186 1.186 0 0 1 .508-.706l.184-.113a.678.678 0 0 1 .339-.155h.127c-.212 0-.381-.24-.452-.579a.988.988 0 0 1 0-.466.918.918 0 0 1 .24-.311 2.033 2.033 0 0 1 .678-.424 1 1 0 0 1 .24 0 1.342 1.342 0 0 1 .861.2 1.172 1.172 0 0 1 .311.381 1.1 1.1 0 0 1 .169.424 2.457 2.457 0 0 1 0 .621l-.085.381a1.3 1.3 0 0 1-.226.367 1.2 1.2 0 0 1-.155.2h.1l.24.1a.72.72 0 0 1 .184.169l.141.24a.607.607 0 0 1 0 .24v.155l-.184.353-.226-.056-.127.085zm-.748-2.824" transform="translate(2.968 36.597)"/>
        </g>
    </g>
</svg>
