<svg xmlns="http://www.w3.org/2000/svg" width="261.135" height="234.213">
    <defs>
        <style>
            .cls-17,.cls-18,.cls-24{stroke:#36607b}.cls-17,.cls-18,.cls-26{stroke-linecap:round}.cls-17,.cls-18{stroke-linejoin:round}.cls-17,.cls-2{fill:#fff}.cls-11,.cls-16,.cls-26,.cls-3{fill:none}.cls-3{stroke:#35607a}.cls-16,.cls-24,.cls-26,.cls-3{stroke-miterlimit:10}.cls-3{stroke-width:.9px}.cls-7{fill:#ff941b}.cls-8{fill:#f57696}.cls-10{fill:#a61fb9}.cls-12{fill:#472954}.cls-13{fill:#ff0f64}.cls-16{stroke:#000;stroke-width:.18px}.cls-17,.cls-18{stroke-width:2.06px}.cls-18,.cls-24{fill:#8cc7ea}.cls-20{fill:#ffbfc5}.cls-21{fill:#36607b}.cls-23{fill:#f7f8f8}.cls-24{stroke-width:.98px}.cls-26{stroke:#df862c;stroke-width:2.36px}.cls-31{fill:#f49939}.cls-32{fill:#ffd110}
        </style>
    </defs>
    <g id="자산_1" data-name="자산 1" transform="translate(1.025 1.03)">
        <g id="레이어_2" data-name="레이어 2">
            <g id="레이어_1" data-name="레이어 1">
                <path id="패스_3020" data-name="패스 3020" d="M222.153 119.67H38.985L1.02 177.175H260.1z" transform="translate(-1.02 43.861)" style="stroke-linejoin:round;stroke-linecap:round;stroke:#36607b;fill:#efa937;stroke-width:2.05px"/>
                <path id="패스_3021" data-name="패스 3021" class="cls-2" d="M111.549 153.031s-19.706-5.857-34.079-6.118-37.73 6.287-37.73 6.287z" transform="translate(13.618 54.157)"/>
                <path id="패스_3022" data-name="패스 3022" class="cls-3" d="M111.549 153.031s-19.706-5.857-34.079-6.118-37.73 6.287-37.73 6.287z" transform="translate(13.618 54.157)"/>
                <path id="패스_3023" data-name="패스 3023" class="cls-2" d="M100.444 153.044a.386.386 0 0 1-.1-.758c5.857-1.585 20.243-5.168 31.405-5.374s28.208 3.8 34.878 5.512a.375.375 0 0 1-.1.744z" transform="translate(36.422 54.157)"/>
                <path id="패스_3024" data-name="패스 3024" class="cls-3" d="M100.444 153.044a.386.386 0 0 1-.1-.758c5.857-1.585 20.243-5.168 31.405-5.374s28.208 3.8 34.878 5.512a.375.375 0 0 1-.1.744z" transform="translate(36.422 54.157)"/>
                <path id="패스_3025" data-name="패스 3025" class="cls-2" d="M195.91 161.311s-30.5-3.252-40.542-3.266c-10.418 0-41.341 3.266-41.341 3.266s-31.378-3.032-42.306-2.853c-8.365.1-35.181 3.087-35.181 3.087l21.3-35.526a196.956 196.956 0 0 1 31.612-2.012c6.077.207 24.419 2.053 24.419 2.053s24.5-1.695 32.687-1.681c7.869 0 31.157.427 31.157.427z" transform="translate(12.408 45.49)"/>
                <path id="패스_3026" data-name="패스 3026" class="cls-3" d="M195.91 161.311s-30.5-3.252-40.542-3.266c-10.418 0-41.341 3.266-41.341 3.266s-31.378-3.032-42.306-2.853c-8.365.1-35.181 3.087-35.181 3.087l21.3-35.526a196.956 196.956 0 0 1 31.612-2.012c6.077.207 24.419 2.053 24.419 2.053s24.5-1.695 32.687-1.681c7.869 0 31.157.427 31.157.427z" transform="translate(12.408 45.49)"/>
                <path id="패스_3027" data-name="패스 3027" d="m92.8 125.47-.593 35.278h1.034l-.317-35.278z" transform="translate(33.453 46.054)" style="fill:#dadada"/>
                <path id="사각형_324" data-name="사각형 324" transform="translate(48.962 207.587)" style="fill:#fab42d" d="M0 0h160.21v2.205H0z"/>
                <path id="사각형_325" data-name="사각형 325" class="cls-3" transform="translate(48.962 207.587)" d="M0 0h160.21v2.205H0z"/>
                <path id="패스_3028" data-name="패스 3028" d="M66.437 139.794c-4.561 1.254-.951 3.128 4.74 3.294 4.134 0 9.481-.648 10.583-1.819s-1.378-2.067-4.947-2.494a34.107 34.107 0 0 0-10.377 1.02" transform="translate(22.928 51.064)" style="fill:gold"/>
                <path id="패스_3029" data-name="패스 3029" class="cls-7" d="M77.705 140.5a44.381 44.381 0 0 0 5.857 0h-.083c.854 0 1.819 0 2.632-.083s-.455-.331-1.2-.262h.11c-1.516.138-7.069 0-7.372.413" transform="translate(27.949 51.6)"/>
                <path id="패스_3030" data-name="패스 3030" class="cls-7" d="M77.76 139.705c.813 0 1.764-.262 2.756-.3.7 0 1.378-.262.427-.262a15.367 15.367 0 0 0-3.114.565" transform="translate(27.99 51.222)"/>
                <path id="패스_3031" data-name="패스 3031" class="cls-7" d="M78.756 138.315c-.331.179-3.776.978-2.453.992a25.851 25.851 0 0 0 4.8-1.254c.537-.51-1.971.124-2.4.289m1.254-.11-.758.234.785-.234" transform="translate(27.326 50.737)"/>
                <path id="패스_3032" data-name="패스 3032" class="cls-7" d="M73.335 138.046c-.3.193-.648.386-.675.593.22.537 1.929-.441 1.86-.62s-.978-.193-1.185 0" transform="translate(26.062 50.745)"/>
                <path id="패스_3033" data-name="패스 3033" class="cls-7" d="M80.54 141.5a21.184 21.184 0 0 0-3.872-.372c-1.971.234 4.134.813 3.872.372m-3.018-.083" transform="translate(27.429 51.974)"/>
                <path id="패스_3034" data-name="패스 3034" class="cls-7" d="M67.32 138.051a7.826 7.826 0 0 0 1.5 1.089c2.66.276-.813-1.915-1.5-1.089" transform="translate(24.044 50.739)"/>
                <path id="패스_3035" data-name="패스 3035" class="cls-7" d="M62.11 138.871a12.829 12.829 0 0 0 3.679.758c1.185 0 .648-.331 0-.386a15.846 15.846 0 0 0-3.666-.372" transform="translate(22.074 51.119)"/>
                <path id="패스_3036" data-name="패스 3036" class="cls-7" d="M65.731 140.291c.744-.207-1.02-.179-1.378-.207-1.144 0-6.491-.606-5.733 0 2.191.179 4.754.248 7.166.22" transform="translate(20.727 51.477)"/>
                <path id="패스_3037" data-name="패스 3037" class="cls-7" d="M60.18 141.265c0 .289 6.78-.345 5.016-.565-1.13.179-4.851.276-5.016.565" transform="translate(21.345 51.811)"/>
                <path id="패스_3038" data-name="패스 3038" class="cls-7" d="M63 141.989c0 .4 3.762-.427 2.949-.565a1.378 1.378 0 0 0-.744.1 14.372 14.372 0 0 0-2.2.469" transform="translate(22.411 52.079)"/>
                <path id="패스_3039" data-name="패스 3039" class="cls-7" d="M67.779 142c-.441.248-.978.524-1.461.772-.606.152-.317.482.565.262.248-.165 1.984-1.1.91-1.047h-.083m0 0z" transform="translate(23.544 52.298)"/>
                <path id="패스_3040" data-name="패스 3040" class="cls-7" d="M71.862 143.027c-.234-.234-.083-.868-1.378-.785-.179 0-.207.1-.083.138.537.193.386.482.469.73s1.3.11 1.047-.083" transform="translate(25.18 52.391)"/>
                <path id="패스_3041" data-name="패스 3041" class="cls-7" d="M75.856 142.324c-5.512-1.447 0 .744 1.654 1.034 2.549-.083-1.282-.813-1.654-1.034" transform="translate(26.366 52.24)"/>
                <path id="패스_3042" data-name="패스 3042" class="cls-8" d="M70.547 140.134a3.293 3.293 0 0 0 1.612 0c-.124-.138-2.3-.193-1.612 0" transform="translate(25.213 51.55)"/>
                <path id="패스_3043" data-name="패스 3043" class="cls-8" d="M71.059 139.426c-1.378-.482-4.685.179-3.252.648s4.685-.179 3.252-.648" transform="translate(24.094 51.266)"/>
                <path id="패스_3044" data-name="패스 3044" class="cls-8" d="M76.2 139.916c-1.378-.482-4.685.179-3.252.648s4.685-.179 3.252-.648" transform="translate(26.038 51.451)"/>
                <g id="그룹_668" data-name="그룹 668" transform="translate(96.187 189.976)" style="opacity:.17">
                    <path id="패스_3045" data-name="패스 3045" class="cls-10" d="M70.848 139h1.2a1.17 1.17 0 0 0 .22 0h.632a.138.138 0 0 0 .1 0h2.894l-.785.069h1.9l-1.488.083h-4.7m6.586.716zm.579-.234zm-2.522-.11zm.345-.317zm-4.593-.11" transform="translate(-70.82 -138.807)"/>
                    <path id="패스_3046" data-name="패스 3046" class="cls-10" d="M76.126 139.92h.951a.3.3 0 0 0 .165 0h-1.1" transform="translate(-68.918 -138.459)"/>
                    <path id="패스_3047" data-name="패스 3047" class="cls-10" d="M76.085 140.05h-.055" transform="translate(-68.85 -138.41)"/>
                    <path id="패스_3048" data-name="패스 3048" class="cls-10" d="M76.228 140.14H76.2" transform="translate(-68.786 -138.376)"/>
                    <path id="패스_3049" data-name="패스 3049" class="cls-10" d="M76.355 140.225h.179a.372.372 0 0 0-.234 0" transform="translate(-68.748 -138.351)"/>
                    <path id="SVGID" class="cls-11" transform="translate(.028)" d="M0 0h8.337v1.915H0z"/>
                </g>
                <path id="패스_3050" data-name="패스 3050" class="cls-12" d="M73.65 141.6" transform="translate(26.437 52.152)"/>
                <path id="패스_3051" data-name="패스 3051" class="cls-12" d="M69 139.141a10.211 10.211 0 0 0-4.561 1.6c-.937.8.317 1.543 2.439 2.039a7.4 7.4 0 0 0 2.563.22c-7.827-.717-5.25-3.721 3.61-4.134 7.662-.441 12.4 2.012 6.05 3.431a13.974 13.974 0 0 1-1.833.413 35.979 35.979 0 0 1-5.967.427h-.455c-.854.069 1.24 0 1.461 0a23.6 23.6 0 0 0 9.77-1.86c2.921-1.971-6.146-3.4-13.078-2.219m-1.076 3.817zM70.927 143.082" transform="translate(22.835 51.028)"/>
                <path id="패스_3052" data-name="패스 3052" class="cls-12" d="M73.64 141.6" transform="translate(26.433 52.152)"/>
                <path id="패스_3053" data-name="패스 3053" class="cls-12" d="M77.36 139.75" transform="translate(27.839 51.452)"/>
                <path id="패스_3054" data-name="패스 3054" class="cls-12" d="M73.64 141.6" transform="translate(26.433 52.152)"/>
                <path id="패스_3055" data-name="패스 3055" class="cls-12" d="M73.64 141.6" transform="translate(26.433 52.152)"/>
                <path id="패스_3056" data-name="패스 3056" class="cls-12" d="M73.64 141.6z" transform="translate(26.433 52.152)"/>
                <path id="패스_3057" data-name="패스 3057" class="cls-12" d="M73.65 141.6z" transform="translate(26.437 52.152)"/>
                <path id="패스_3058" data-name="패스 3058" class="cls-12" d="M73.65 141.6" transform="translate(26.437 52.152)"/>
                <path id="패스_3059" data-name="패스 3059" class="cls-12" d="M72.782 140.7c.317-.179-.606-.207-.813 0s.606.179.813 0" transform="translate(25.789 51.756)"/>
                <path id="패스_3060" data-name="패스 3060" class="cls-12" d="M69.1 140.211c-.1-.179-1.089 0-.923.1s1.02 0 .923-.1" transform="translate(24.36 51.598)"/>
                <path id="패스_3061" data-name="패스 3061" class="cls-12" d="M72.373 140.5c.593-.207 0-.482-.841-.5a3.5 3.5 0 0 0-1.833.289 2.964 2.964 0 0 0 .634.11 15.158 15.158 0 0 0 1.984.083m-1.543-.455a6.888 6.888 0 0 1 1.075 0h.3a4.523 4.523 0 0 1-1.144 0 1.985 1.985 0 0 1-.427-.1h.124" transform="translate(24.943 51.52)"/>
                <path id="패스_3062" data-name="패스 3062" class="cls-12" d="M65.636 141.5a10.935 10.935 0 0 0-1.957.372c-.165 0-.7.1-.606.165a18.8 18.8 0 0 0 2.563-.537" transform="translate(22.434 52.114)"/>
                <path id="패스_3063" data-name="패스 3063" class="cls-12" d="M64.9 140.8c-1.282 0-2.88.262-4.313.317-1.116.276 4.423-.193 4.313-.317" transform="translate(21.444 51.849)"/>
                <path id="패스_3064" data-name="패스 3064" class="cls-12" d="M65.48 140.145h-1.488l-2.756-.11a16.672 16.672 0 0 0-2.646 0c2.053.124 4.92.3 6.89.234" transform="translate(20.744 51.54)"/>
                <path id="패스_3065" data-name="패스 3065" class="cls-12" d="M62.35 138.94c.482.221 5.981.923 2.384.3a13.6 13.6 0 0 0-2.384-.3" transform="translate(22.165 51.146)"/>
                <path id="패스_3066" data-name="패스 3066" class="cls-12" d="M66.556 142.9c1.709-.758 2.329-1.378 0-.138l-.179.069h-.11c-.441.138.1.179.3 0" transform="translate(23.582 52.325)"/>
                <path id="패스_3067" data-name="패스 3067" class="cls-12" d="M71.076 142.818c0-.1-.661-.813-.51-.427 0 .138.62 1.061.51.427" transform="translate(25.262 52.408)"/>
                <path id="패스_3068" data-name="패스 3068" class="cls-12" d="M75.031 142.316c-3.666-1.089 1.86.675 2.618.992.827-.083-2.288-.813-2.618-.992" transform="translate(26.489 52.29)"/>
                <path id="패스_3069" data-name="패스 3069" class="cls-12" d="M76.531 141.18a15.832 15.832 0 0 0 3.528.372 30.773 30.773 0 0 0-3.307-.358 1.586 1.586 0 0 0-.262 0" transform="translate(27.51 51.993)"/>
                <path id="패스_3070" data-name="패스 3070" class="cls-12" d="M78.19 140.443h.579c.9 0 1.805 0 2.756-.083a39.251 39.251 0 0 0 4.134-.11c-2.329 0-5.416 0-7.414.207" transform="translate(28.153 51.641)"/>
                <path id="패스_3071" data-name="패스 3071" class="cls-12" d="M77.671 139.637c.937 0 2.095-.276 3.128-.345.923-.289-3.28.276-3.128.345" transform="translate(27.955 51.248)"/>
                <path id="패스_3072" data-name="패스 3072" class="cls-12" d="M80.335 138.02c-1.075.289-1.984.62-3.087.91-3.293.91 2.164-.455 2.756-.717.482-.083 1.378-.427.289-.179" transform="translate(27.4 50.77)"/>
                <path id="패스_3073" data-name="패스 3073" class="cls-12" d="M73.4 138.034c-.11.083-.8.923-.276.62.11-.1 1.268-1.089.276-.62" transform="translate(26.164 50.756)"/>
                <path id="패스_3074" data-name="패스 3074" class="cls-12" d="M67.746 138.135c.248.083 1.282 1.13 1.626.882 0-.138-2.053-1.612-1.626-.882" transform="translate(24.183 50.765)"/>
                <path id="패스_3075" data-name="패스 3075" d="M65.932 134.259q-.262 0-.372-.579a9.646 9.646 0 0 1-.1-1.915c0-.785.11-1.2.3-1.268s.606 0 .661.207a3.54 3.54 0 0 1 .083.386v.593h.7a4.494 4.494 0 0 0 1.006-.165.358.358 0 0 0 .248-.372.289.289 0 0 1 .289-.358c.317 0 .537 0 .634.179a2.356 2.356 0 0 1 .11.841 4.644 4.644 0 0 1-.138 1.378.524.524 0 0 1-.51.331c-.138 0-.234 0-.262-.138a2.756 2.756 0 0 1 0-.593l.083-.744h-.951a4.3 4.3 0 0 0-1.226.152c-.152.083-.179.413-.1 1.006s.083.937 0 1.006a.579.579 0 0 1-.455.11m6.463-.661c-.345 0-.551 0-.606-.152s0-.124.1-.152a5.8 5.8 0 0 1 .854 0c.62 0 1.929-.1 3.941-.22a14.674 14.674 0 0 1 3.293 0l-.165.11a9.549 9.549 0 0 1-2.095.234c-1.543.083-2.618.165-3.211.207-1.061.083-1.764.11-2.108.1m1.3-1.9q-.372-.207-.289-.455c0-.165.207-.3.469-.427a4.135 4.135 0 0 1 .937-.344 4.725 4.725 0 0 1 1.185-.152 5.358 5.358 0 0 1 1.185.1 1.226 1.226 0 0 1 .5.207.5.5 0 0 1 .138.345.689.689 0 0 1-.331.634 2.232 2.232 0 0 1-1.047.427 3.5 3.5 0 0 1-2.756-.331m2.549 0a1.93 1.93 0 0 0 .551-.207.3.3 0 0 0 .138-.276c0-.207 0-.344-.331-.4a3.969 3.969 0 0 0-1.075 0 2.619 2.619 0 0 0-.978.262c-.3.138-.469.262-.5.358s.1.207.331.3a2.591 2.591 0 0 0 1.86 0m.91 3.555a10.642 10.642 0 0 1-1.061-.138q-.992-.179-.992-.372c0-.069.152-.124.5-.124a4.769 4.769 0 0 1 1.378.207c.551.152.8.262.7.331a.868.868 0 0 1-.482.1" transform="translate(23.337 47.945)"/>
                <path id="패스_3076" data-name="패스 3076" class="cls-13" d="M111.023 139.2c-1.061 3.321 8.268 5.388 12.995 2.6 2.439.593 5.512.345 6.78-.827 4.134-2.935-4.355-8.351-11.217-5.223-5.126.11-7.91 1.047-8.558 3.445m17.2-2.549-.1.069a.124.124 0 0 0 0-.1m-.923 2c.648-.455 1.268-.923 1.957-1.378a20.56 20.56 0 0 1-5.292 3.445c1.185-.661 2.288-1.378 3.335-2.067m3.018.841c0 .689-1.378 1.034-2.274 1.488.813-.469 1.53-.978 2.274-1.488m.083-.648-.262.069a1.5 1.5 0 0 0 .234-.179v.11M125.547 141l-.565.262a.414.414 0 0 0-.152-.1 31.035 31.035 0 0 0 4.934-3.162 15.393 15.393 0 0 1-4.217 2.99m-3.955-1.971-.372.234a1.57 1.57 0 0 1 .372-.234m-2.3 1.557.7-.345-.689.358m-6.353-.841-.207.124a.688.688 0 0 1 0-.165.648.648 0 0 0 .234 0m6.118-2.508c-.344.179-.717.358-1.1.524a15.161 15.161 0 0 1 1.709-.854l-.606.331m2.205 4.203a26.584 26.584 0 0 0 4.01-2.081 15.723 15.723 0 0 1-3.969 2.081m5.912-1.929zm-2.508-.262c-.482.262-1.006.524-1.543.772a29.835 29.835 0 0 0 2.646-1.585l-1.1.813m-1.378.083a13.587 13.587 0 0 1-2.136 1.226.221.221 0 0 0-.193-.11c.978-.482 1.957-.937 2.839-1.378l-.51.331m-1.378-1.612a13.781 13.781 0 0 1-2.3 1.24c.772-.455 1.654-.854 2.4-1.378l-.1.083m-.207-1.557h.083m-1.971 1.92a2.025 2.025 0 0 1 .386-.22 8.266 8.266 0 0 1-1.461.937l1.075-.717M122.132 141.85a5.513 5.513 0 0 1-1.226.441c.648-.262 1.3-.524 1.888-.827a3.637 3.637 0 0 1-.661.386m3.652-.22c1.805-.73 3.087-1.654 4.754-2.439a41.74 41.74 0 0 1-4.575 2.453h-.179m1.378-.248c-.248.1-.4.317-.785.289a22.34 22.34 0 0 0 1.282-.551l-.5.262m0 .262c.785-.289 1.488-.62 2.2-.951a4.879 4.879 0 0 1-2.2.951m2.067-.62a2.922 2.922 0 0 1-.51.248c.317-.165.62-.344.91-.524l-.4.276m-1.268-4.506a1.1 1.1 0 0 0-.441.124c-.9-.73-2.756 1.5-3.679 1.764a32.532 32.532 0 0 0 3.087-2.274 6 6 0 0 1 1.034.386m-2.315-.648.537.1c-1.075.675-2.067 1.378-3.252 2.026 3.087-1.723 3.79-3.293-.482-.634l.5-.3.469-.276h-.069c.413-.358 1.543-.689 1.488-1.089a8.274 8.274 0 0 1 .841.124m-1.874-.152h.165l-1.185.593c.207-.179.634-.331.593-.537h.427m-3.569.841-.22.124a.083.083 0 0 0 0-.083h.22" transform="translate(40.533 49.587)"/>
                <path id="패스_3077" data-name="패스 3077" class="cls-13" d="M120.529 135.89" transform="translate(44.133 49.993)"/>
                <path id="패스_3078" data-name="패스 3078" d="M121.2 142.295c.358 1.158 3.583 1.061 5.209 1.612a1.626 1.626 0 0 0 1.034.083c1.185-1.378-4.961-4.368-6.243-1.695M123.598 142.764l.317.1-.358-.069M122.813 141.806a1.957 1.957 0 0 1 .524-.11c-.4.069-.441.289-.262.441-.248 0-.276-.165-.427-.248l.165-.083" transform="translate(44.412 52.008)" style="fill:#18de74"/>
                <g id="그룹_669" data-name="그룹 669" transform="translate(156.095 185.607)" style="opacity:.69">
                    <path id="패스_3079" data-name="패스 3079" class="cls-10" d="M114.357 137.687a.538.538 0 0 0 .262.138c-1.075.758 1.13.923 1.971.345 0 .248.7.4 1.171.248-2.453.951-.193 1.557 1.681.593-2.646 1.2-.152 1.378 1.736.427-2.053.841.124 1.226 1.667.51-1.53.689.386 1.378 1.778.689.469 1.378 8.489-2.88 2.756-1.971 2.095-.854.951-1.805-1.378-.73 1.654-.661 1.571-2.012-.923-.951 1.24-.661-.5-1.13-1.612-.5 1.64-1.144-1.378-.9-2.494-.234-.289-.689-2.012-.138-2.646.152-.634-.469-1.723 0-2.632 0-.62.331-1.557.868-1.378 1.378" transform="translate(-114.294 -135.689)"/>
                    <path id="SVGID-2" data-name="SVGID" class="cls-11" transform="translate(.036)" d="M0 0h15.089v5.223H0z"/>
                </g>
                <path id="패스_3080" data-name="패스 3080" class="cls-12" d="m121.494 139.994-.014-.014.014.014" transform="translate(44.518 51.539)"/>
                <path id="패스_3081" data-name="패스 3081" class="cls-12" d="M127.293 139.884c-.634.978-2.963 1.764-5.305 1.378-.427 0-2.673-1.116-1.378-.386 3.39 1.971 8.13-.593 7.9-2.343.262-.73-.524-1.819-1.9-2.164 1.2 1.158 2.219 2.081.785 3.473" transform="translate(44.039 50.174)"/>
                <path id="패스_3082" data-name="패스 3082" class="cls-12" d="m125.354 138.92-.014.014.014-.014" transform="translate(45.977 51.138)"/>
                <path id="패스_3083" data-name="패스 3083" class="cls-12" d="M127.342 142.237a6.78 6.78 0 0 0-5.912-.813c-2.756-1.144 1.378 1.378 3.983 1.516 1.1-.179-3.238-.854-3.528-1.268 3.073-1.13 6.036 1.047 5.788 2.3-1.185-.358-2.756-.289-4.065-.579-1.3-.207-2.756-.606-2.453-1.378 0-1.171-.744.221-.317.579 1.3 1.185 4.988.951 7.056 1.667.813-.427-.069-1.585-.593-2.108" transform="translate(44.155 51.956)"/>
                <path id="패스_3084" data-name="패스 3084" class="cls-12" d="M116.479 140.276c-.276-.069-.593-.276-.937-.179s1.5.648.937.179" transform="translate(42.257 51.574)"/>
                <path id="패스_3085" data-name="패스 3085" class="cls-12" d="M114.727 140.393c.3.262 1.3.138.785-.138s-1.488-.193-.785.138" transform="translate(41.873 51.581)"/>
                <path id="패스_3086" data-name="패스 3086" class="cls-12" d="M114.449 139.887c.744.345.744-.345.083-.386s-.276.262-.083.386" transform="translate(41.751 51.357)"/>
                <path id="패스_3087" data-name="패스 3087" class="cls-12" d="M113.723 139.8c-.262.1.152.345.427.248s-.152-.331-.427-.248" transform="translate(41.554 51.466)"/>
                <path id="패스_3088" data-name="패스 3088" class="cls-12" d="M125.162 136.819a7.3 7.3 0 0 0-4.492-1.378 16.385 16.385 0 0 1 3.8 1.3c.469.469 1.723 1.034.675.11" transform="translate(44.212 49.822)"/>
                <path id="패스_3089" data-name="패스 3089" class="cls-12" d="M123.224 136.646c.276.1 1.047.785.841.262a11.7 11.7 0 0 0-4.134-1.378c-1.089.138 2.949.841 3.28 1.171" transform="translate(43.862 49.857)"/>
                <path id="패스_3090" data-name="패스 3090" class="cls-12" d="M122.27 136.34z" transform="translate(44.817 50.163)"/>
                <path id="패스_3091" data-name="패스 3091" class="cls-12" d="M110.648 139.077a1.915 1.915 0 0 0 0 1.24c.717 2.563 9.191 4.313 13.064 2 0 1.378-1.626 2.756-3.445 3.762 1.378.675 4.92-3.5 4.051-4.134.413-.717-1.268-.069-1.53.207-2.467 1.557-8.117.744-9.936-.689-2.329-1.585-.91-3.9 2.425-5.03 2.467-1.075 4.134.345 5.953-.965.207-.221 1.006-.11 1.075-.358a16.357 16.357 0 0 1 5.774.744 8.268 8.268 0 0 1 1.1.455c.262 0 .386-.124.179-.193a15.062 15.062 0 0 0-7.5-1.226c-1.1 0-1.53.579-2.412.717-4.644-.758-8.186 1.64-8.764 3.431" transform="translate(40.384 49.59)"/>
                <path id="패스_3092" data-name="패스 3092" class="cls-12" d="M125.309 140.576c1.144 0 1.557-1.047 2.095-1.474-.193-.606-2.425 1.378-2.095 1.474" transform="translate(45.953 51.164)"/>
                <path id="패스_3093" data-name="패스 3093" class="cls-12" d="M126.394 140.567c.537 0 2.067-1.571 1.02-1.309-.1.441-1.171.937-1.02 1.309" transform="translate(46.37 51.255)"/>
                <path id="패스_3094" data-name="패스 3094" d="M125.454 131.248h-.207a3.489 3.489 0 0 1 .482-.551l.537-.524-.372-.207a6.428 6.428 0 0 0-.923-.386 6.359 6.359 0 0 0-.91-.234c-.289 0-.441-.11-.441-.165s.152-.124.441-.138a1.721 1.721 0 0 1 .51 0 4.175 4.175 0 0 1 .978.344l1.144.413.358-.193a9.315 9.315 0 0 1 1.888-.841c.22 0 .276 0 .152.165a1.585 1.585 0 0 1-.386.22 8.533 8.533 0 0 0-1.268.7 10.337 10.337 0 0 0-1.24.923 1.516 1.516 0 0 1-.744.455m-5.181.331a.648.648 0 0 1 .083-.345 1.93 1.93 0 0 0 .165-.827 1.779 1.779 0 0 0 0-.317s0-.11-.193-.152a1.1 1.1 0 0 0-.427 0h-1.695q-.165 0-.165-.083a.494.494 0 0 1 .289-.138 10.932 10.932 0 0 0 1.226-.11 3.047 3.047 0 0 0 .992-.152c.083 0 .138-.22.124-.482a.8.8 0 0 1 0-.345.446.446 0 0 1 .234-.083 1.378 1.378 0 0 1 .386 0 1.736 1.736 0 0 1 0 .785 2.141 2.141 0 0 1-.11.73 2.067 2.067 0 0 0-.1.593 3.225 3.225 0 0 1-.138.648.565.565 0 0 1-.276.262c-.193.11-.317.1-.358 0" transform="translate(43.218 47.207)"/>
                <path id="패스_3095" data-name="패스 3095" class="cls-16" d="M125.454 131.245h-.207a3.49 3.49 0 0 1 .482-.551l.537-.524-.372-.207a6.429 6.429 0 0 0-.923-.386 6.359 6.359 0 0 0-.91-.234c-.289 0-.441-.11-.441-.165s.152-.124.441-.138a1.72 1.72 0 0 1 .51 0 4.174 4.174 0 0 1 .978.344l1.144.413.358-.193a9.314 9.314 0 0 1 1.888-.841c.22 0 .276 0 .152.165a1.585 1.585 0 0 1-.386.221 8.531 8.531 0 0 0-1.268.7 10.335 10.335 0 0 0-1.24.923 1.516 1.516 0 0 1-.743.473zm-5.181.331a.648.648 0 0 1 .083-.344 1.929 1.929 0 0 0 .165-.827 1.777 1.777 0 0 0 0-.317s0-.11-.193-.152a1.1 1.1 0 0 0-.427 0h-1.695q-.165 0-.165-.083a.494.494 0 0 1 .289-.138 10.928 10.928 0 0 0 1.226-.11 3.046 3.046 0 0 0 .992-.152c.083 0 .138-.221.124-.482a.8.8 0 0 1 0-.344.446.446 0 0 1 .234-.083 1.378 1.378 0 0 1 .386 0 1.736 1.736 0 0 1 0 .785 2.142 2.142 0 0 1-.11.73 2.067 2.067 0 0 0-.1.593 3.224 3.224 0 0 1-.138.648.565.565 0 0 1-.276.262c-.234.165-.358.152-.4.014z" transform="translate(43.218 47.211)"/>
                <path id="패스_3096" data-name="패스 3096" d="M116.468 131.958h-1.323a.138.138 0 0 1-.083-.124.317.317 0 0 0 0-.152.345.345 0 0 1 0-.234 2.2 2.2 0 0 1 .193-.813 1.378 1.378 0 0 1 .4-.565.923.923 0 0 1 .551-.234h.179a3.281 3.281 0 0 1-.4.606 1.226 1.226 0 0 0-.262.868v.441h.606a11.368 11.368 0 0 0 1.984-.165c1.006-.165 1.585-.179 1.778-.234a.689.689 0 0 1 .358 0v.124a2.564 2.564 0 0 1-.717.193c-.4 0-.854.138-1.378.193s-1.075.1-1.833.138m1.667-1.6c-.083 0-.11 0-.11-.138a2.329 2.329 0 0 1 .11-.62c.1-.345.11-.537 0-.551a14.955 14.955 0 0 0-1.915.124 17.8 17.8 0 0 1-1.943.138.152.152 0 0 1-.138-.138.311.311 0 0 1 .193-.1h.951a9.226 9.226 0 0 0 1.736-.124l1.847-.165h1.1c.124 0 .179 0 .179.083s0 0-.11.1a1.775 1.775 0 0 1-.4 0 1.378 1.378 0 0 0-.62.179 1.654 1.654 0 0 0-.317.593 1.888 1.888 0 0 1-.317.565.593.593 0 0 1-.289.11m-6.518 1.364c-.124 0-.179-.069-.165-.193a4.465 4.465 0 0 0 .207-1.571h-2.15c-.124 0-.193 0-.193-.069s.083-.124.262-.152a7.933 7.933 0 0 1 .923-.069 5.735 5.735 0 0 0 .978-.1c.138 0 .234-.165.3-.4a.744.744 0 0 1 .124-.276.51.51 0 0 1 .289-.083h.262a.276.276 0 0 1 .138.11c.069.1.069.179 0 .234a1.861 1.861 0 0 0-.193.73 5.953 5.953 0 0 1-.469 1.626.358.358 0 0 1-.3.179" transform="translate(39.925 47.324)"/>
                <path id="패스_3097" data-name="패스 3097" class="cls-16" d="M116.468 131.969h-1.323a.138.138 0 0 1-.083-.124.317.317 0 0 0 0-.152.345.345 0 0 1 0-.234 2.2 2.2 0 0 1 .193-.813 1.378 1.378 0 0 1 .4-.565.923.923 0 0 1 .551-.234h.179a3.281 3.281 0 0 1-.4.606 1.227 1.227 0 0 0-.262.868v.441h.606a11.367 11.367 0 0 0 1.984-.165c1.006-.165 1.585-.179 1.778-.234a.689.689 0 0 1 .358 0v.124a2.564 2.564 0 0 1-.717.193c-.4 0-.854.138-1.378.193s-1.128.055-1.886.096zm1.667-1.6c-.083 0-.11 0-.11-.138a2.329 2.329 0 0 1 .11-.62c.1-.344.11-.537 0-.551a14.958 14.958 0 0 0-1.915.124 17.8 17.8 0 0 1-1.943.138.152.152 0 0 1-.138-.138.311.311 0 0 1 .193-.1h.951a9.227 9.227 0 0 0 1.736-.124l1.847-.165h1.1c.124 0 .179 0 .179.083s0 0-.11.1a1.775 1.775 0 0 1-.4 0 1.378 1.378 0 0 0-.62.179 1.654 1.654 0 0 0-.317.593 1.888 1.888 0 0 1-.317.565.592.592 0 0 1-.248.055zm-6.5 1.461c-.124 0-.179-.069-.165-.193a4.465 4.465 0 0 0 .207-1.571h-2.15c-.124 0-.193 0-.193-.069s.083-.124.262-.152a7.94 7.94 0 0 1 .923-.069 5.731 5.731 0 0 0 .978-.1c.138 0 .234-.165.3-.4a.745.745 0 0 1 .124-.276.51.51 0 0 1 .289-.083h.262a.276.276 0 0 1 .138.11c.069.1.069.179 0 .234a1.861 1.861 0 0 0-.193.73 5.953 5.953 0 0 1-.469 1.626.358.358 0 0 1-.317.207z" transform="translate(39.925 47.313)"/>
                <path id="패스_3098" data-name="패스 3098" class="cls-2" d="m64.25 91.43.22 18.218 40.473-13.064z" transform="translate(22.883 33.186)"/>
                <path id="패스_3099" data-name="패스 3099" class="cls-17" d="M72.241 91s-17.57 4.74-23.661 21.966a115.755 115.755 0 0 1 22.379 5.595" transform="translate(16.959 33.023)"/>
                <path id="패스_3100" data-name="패스 3100" class="cls-18" d="M115.24 97.572s21.856-1.006 26.637-10.556c5.829-11.658 4.41-23.716 8.048-23.716s5.636 1.612 6.449 9.274c0 0 11.176-1.378 11.824 7.29s-4.258 7.152-4.258 7.152-3.418 34.12-40.762 30.248" transform="translate(42.159 22.552)"/>
                <path id="패스_3101" data-name="패스 3101" class="cls-17" d="M139.24 85.432s12.058-.744 16.867-3.252a168.422 168.422 0 0 0 4.589 29.063s-1.213 2.508-16.881 3.252c0 0 2.508 5.016 6.518 19.361H58.17s0-4.878 6.794-23.909" transform="translate(20.585 29.689)"/>
                <path id="패스_3102" data-name="패스 3102" d="M164.931 30.5s-6.036 13.284-50.2 29.931S40.977 78.5 35.52 77.865c0 0 12.168-16.536 37.813-30.317s70.6-22.972 91.6-17.046" transform="translate(12.022 9.461)" style="fill:#dc772b"/>
                <path id="패스_3103" data-name="패스 3103" class="cls-18" d="M34.32 62.948a59.145 59.145 0 0 1 11.686-8.558l4.63.524c7.386.868 14.773 1.571 22.145 1.791l5.981 32c-3.1 20.271-24.887 22.738-34.975 8.9A32.094 32.094 0 0 1 38.5 69.893 24.681 24.681 0 0 1 34.361 63" transform="translate(11.569 19.183)"/>
                <path id="패스_3104" data-name="패스 3104" class="cls-20" d="M38.6 58.083a65.525 65.525 0 0 1 5.788-3.693l4.63.524c5.14.606 10.28 1.13 15.406 1.461l5.292 24.8c-1.447 14.084-15.406 15.958-22.3 6.449A23.8 23.8 0 0 1 43.285 68.5a23.9 23.9 0 0 1-4.658-10.418" transform="translate(13.187 19.183)"/>
                <path id="패스_3105" data-name="패스 3105" class="cls-18" d="M105.423 40.074s-6.615-13.105 10.142-15.792c15.241-2.439 27.795 19.155 25.549 32.646 0 0 9.123 9.191 6.89 25.314s-18.6 23.179-29.132 7" transform="translate(37.961 7.73)"/>
                <path id="패스_3106" data-name="패스 3106" class="cls-20" d="M110.165 43.106s-.91-10.514 9.991-11.3c9.991-.7 15.034 16 13.312 23.427a24.625 24.625 0 0 1 5.126 18.535c-1.516 11.024-13.133 15.241-19.9 3.734" transform="translate(40.234 10.638)"/>
                <path id="패스_3107" data-name="패스 3107" class="cls-18" d="M114.9 123.231c-39.853 9.274-56.637-4.74-63.1-15.971-4.813-8.393-4.056-15.16-4.056-15.16-11.782-53.66 20.891-69.838 41.093-74.275 18.769-4.134 54.46-2.99 66.146 50.064a53 53 0 0 1 3.583 13.367c1.047 8.516.827 31.695-43.656 41.975" transform="translate(15.7 4.803)"/>
                <path id="패스_3108" data-name="패스 3108" class="cls-21" d="M95.861 76.719c8.42-1.282 11.2-5.168 11.369-5.4a1.2 1.2 0 0 0-1.957-1.378c-.083.124-5.512 7.3-24.984 3.845a1.185 1.185 0 0 0-.427 2.329 49.224 49.224 0 0 0 16 .579" transform="translate(28.438 24.869)"/>
                <path id="패스_3109" data-name="패스 3109" d="M103.056 72.91a27.657 27.657 0 0 1-18.8 3.211S86.368 86.732 96.221 85s6.89-12.085 6.89-12.085" transform="translate(30.448 26.184)" style="fill:#cf7575"/>
                <path id="패스_3110" data-name="패스 3110" class="cls-21" d="M103.7 73.544s3 10.335-6.89 12.085h-.31c-9.577 1.461-11.644-8.916-11.644-8.916a26.321 26.321 0 0 0 9.081.165 26.968 26.968 0 0 0 9.713-3.378M103.333 71.243a2.411 2.411 0 0 0-.923.345 24.97 24.97 0 0 1-8.792 3.045 23.784 23.784 0 0 1-8.268-.152 2.508 2.508 0 0 0-.785 0h-.015a2.384 2.384 0 0 0-1.971 2.756v.234a17.736 17.736 0 0 0 2.6 5.788 11.479 11.479 0 0 0 11.768 4.768h.372a10.556 10.556 0 0 0 7.593-4.727c2.756-4.465 1.171-10.115 1.1-10.363a2.4 2.4 0 0 0-1.378-1.557 2.48 2.48 0 0 0-1.185-.124" transform="translate(29.799 25.55)"/>
                <path id="패스_3111" data-name="패스 3111" class="cls-20" d="M103.52 78.312a16.536 16.536 0 0 0-8.682-.537 19.361 19.361 0 0 0-8.489 3.679s2.866 4.382 9.371 3.225a9.426 9.426 0 0 0 7.8-6.367" transform="translate(31.238 27.893)"/>
                <path id="패스_3112" data-name="패스 3112" class="cls-21" d="M85.684 82.427a1.171 1.171 0 0 1 .234-1.557 20.492 20.492 0 0 1 9.04-3.941 17.653 17.653 0 0 1 9.343.62 1.171 1.171 0 0 1 .689 1.378 10.528 10.528 0 0 1-8.737 7.248h-.345a10.2 10.2 0 0 1-10.225-3.8m9.646-3.156a19.4 19.4 0 0 0-6.89 2.756 8.268 8.268 0 0 0 7.4 1.86 8.516 8.516 0 0 0 6.422-4.437 17.13 17.13 0 0 0-6.89-.124m8.461-.634z" transform="translate(30.912 27.568)"/>
                <path id="SVGID-3" data-name="SVGID" class="cls-11" d="M84.26 76.125S86.368 86.735 96.221 85s6.89-12.1 6.89-12.1a27.561 27.561 0 0 1-18.8 3.225" transform="translate(30.448 26.181)"/>
                <path id="패스_3113" data-name="패스 3113" class="cls-21" d="M72.079 67.6a6.256 6.256 0 1 0 4.479-8.268 6.6 6.6 0 0 0-4.479 8.268" transform="translate(25.734 20.992)"/>
                <path id="패스_3114" data-name="패스 3114" class="cls-21" d="M71.008 53.238a1.2 1.2 0 0 0 .689-.413A5.76 5.76 0 0 1 74.6 51.13a6.518 6.518 0 0 1 3.652.083 1.282 1.282 0 0 0 1.585-.923 1.378 1.378 0 0 0-.923-1.585 9.164 9.164 0 0 0-4.975 0 8.268 8.268 0 0 0-4.134 2.48 1.3 1.3 0 0 0 1.254 2.122" transform="translate(24.862 16.904)"/>
                <path id="패스_3115" data-name="패스 3115" class="cls-23" d="M76.246 63.392a1.686 1.686 0 0 0 3.266-.841 1.687 1.687 0 1 0-3.266.841" transform="translate(27.396 21.771)"/>
                <path id="패스_3116" data-name="패스 3116" class="cls-21" d="M100.991 59.677c.882 3.8 4.134 6.284 7.207 5.512s4.892-4.41 4.01-8.268-4.134-6.284-7.207-5.512-4.892 4.423-4.01 8.268" transform="translate(36.688 18.002)"/>
                <path id="패스_3117" data-name="패스 3117" class="cls-21" d="M100.256 46.82a1.378 1.378 0 0 0 .689-.413 5.76 5.76 0 0 1 2.908-1.695 6.6 6.6 0 0 1 3.638.069 1.3 1.3 0 1 0 .661-2.494 9.15 9.15 0 0 0-4.975-.083 8.379 8.379 0 0 0-4.134 2.496 1.309 1.309 0 0 0 1.257 2.12" transform="translate(35.922 14.461)"/>
                <path id="패스_3118" data-name="패스 3118" class="cls-23" d="M105.015 54.828a1.461 1.461 0 1 0 1.047-1.847 1.5 1.5 0 0 0-1.047 1.847" transform="translate(38.273 18.635)"/>
                <path id="패스_3119" data-name="패스 3119" class="cls-18" d="M97.722 58.225s16.536 17.377 26.569-7.1a1.626 1.626 0 0 1 2.039-.923l5.168 1.681c.813.276.992 1.116 1.144 1.971 1.433 7.965-17 40.363-44.841 25.039" transform="translate(31.786 17.567)"/>
                <path id="패스_3120" data-name="패스 3120" class="cls-24" d="M101.561 59.78s-5.261 1.543-5.691 6.036" transform="translate(34.837 21.221)"/>
                <path id="패스_3121" data-name="패스 3121" class="cls-21" d="M96.368 67.27a1.144 1.144 0 0 0 .9-1.02c.344-3.652 4.823-5.03 4.878-5.044a1.158 1.158 0 0 0-.606-2.2c-.248.069-6.022 1.833-6.5 7.042a1.144 1.144 0 0 0 1.025 1.252 1.033 1.033 0 0 0 .3-.028" transform="translate(34.518 20.924)"/>
                <path id="패스_3122" data-name="패스 3122" class="cls-24" d="M105.4 60.4a8.117 8.117 0 0 0-3.225 6.2" transform="translate(37.222 21.455)"/>
                <path id="패스_3123" data-name="패스 3123" class="cls-21" d="M102.728 68.023a1.144 1.144 0 0 0 .882-.978 7.028 7.028 0 0 1 2.756-5.361 1.158 1.158 0 0 0-1.2-1.971 9.247 9.247 0 0 0-3.776 7.083 1.144 1.144 0 0 0 1.047 1.254.978.978 0 0 0 .344 0" transform="translate(36.922 21.15)"/>
                <path id="패스_3124" data-name="패스 3124" class="cls-24" d="M109.336 58.63a7.538 7.538 0 0 0 .331 6.89" transform="translate(39.671 20.786)"/>
                <path id="패스_3125" data-name="패스 3125" class="cls-21" d="M110.228 66.872a.882.882 0 0 0 .372-.152 1.144 1.144 0 0 0 .358-1.585 6.27 6.27 0 0 1-.276-5.705 1.158 1.158 0 0 0-2.067-1.02 8.64 8.64 0 0 0 .385 7.952 1.144 1.144 0 0 0 1.226.51" transform="translate(39.357 20.495)"/>
                <path id="패스_3126" data-name="패스 3126" class="cls-18" d="M114.872 53.331s-3.666-5.429.593-7.855 5.65 3.514 5.65 3.514 5.691-7.951 9.564-3.486c4.134 4.823-.138 11.658-7.855 11.355" transform="translate(41.466 15.309)"/>
                <path id="패스_3127" data-name="패스 3127" d="M33.227 89.194a1.116 1.116 0 0 1-.469-.11A1.061 1.061 0 0 1 32.152 88c1.006-8.833 6.353-22.82 8.888-26.885C38.656 23.793 61.091 9.558 80.37 4.183A79.348 79.348 0 0 1 101.454 1c26.306 0 37.206 16.84 40.776 24.557 2.949 1.1 19.582 7.648 27.189 16.8a1.075 1.075 0 0 1-.758 1.75c-.386 0-39.274 2.756-74.924 15.158C55.372 72.727 37.609 85.17 33.985 88.836a1.089 1.089 0 0 1-.758.331" transform="translate(10.746 -1)" style="fill:#ffbd1a;stroke-width:2.06px;stroke-linejoin:round;stroke-linecap:round;stroke:#36607b"/>
                <path id="패스_3128" data-name="패스 3128" class="cls-26" d="M76.358 28.848S73.023 15.55 68.93 7.53" transform="translate(24.652 1.469)"/>
                <path id="패스_3129" data-name="패스 3129" class="cls-26" d="M60.024 13.34S45.389 26.927 48.531 40.9" transform="translate(16.774 3.665)"/>
                <path id="패스_3130" data-name="패스 3130" class="cls-26" d="M84.62 4.72s19.568 3.969 24.212 17.58" transform="translate(30.584 .406)"/>
                <path id="패스_3131" data-name="패스 3131" d="M136.206 20.563s-11.713-1.309-46.853 9.646C53.813 41.234 40.97 53.636 40.97 53.636" transform="translate(14.083 6.377)" style="stroke-width:3.14px;stroke:#df862c;stroke-miterlimit:10;fill:none;stroke-linecap:round"/>
                <path id="패스_3132" data-name="패스 3132" d="m85.644 125.706-13.96-17.832a3.087 3.087 0 0 0-3.845 0 3.156 3.156 0 0 0-.827 3.652l18.576 24.419 2.536 1.378a2.246 2.246 0 0 0 3.28-2.577l-.992-3.486z" transform="translate(23.827 39.148)" style="stroke-width:1.72px;fill:#efd225;stroke-miterlimit:10;stroke:#36607b"/>
                <path id="패스_3133" data-name="패스 3133" d="m76.62 123.7 4.051 4.548a4.961 4.961 0 0 1 3.776-3L79.9 120.06s-3.431.827-3.266 3.638" transform="translate(27.56 44.009)" style="fill:#fcfcfc"/>
                <path id="패스_3134" data-name="패스 3134" class="cls-18" d="M143.995 75.79s-2.356 6.546 9.15 6.5" transform="translate(52.954 27.273)"/>
                <path id="패스_3135" data-name="패스 3135" d="M143.995 75.79s-2.356 6.546 9.15 6.5" transform="translate(52.954 27.273)" style="stroke-width:1.71px;stroke:#35607a;fill:none;stroke-linejoin:round;stroke-linecap:round"/>
                <path id="패스_3136" data-name="패스 3136" class="cls-18" d="M61.937 110.389s11.906 2.26 17.79 1.957c4.41-.22 7.372-2.012 11.851 3.294 1.833 2.177 4.341 5.512 4.947 8.6 2.412 12.4-24.336 10.873-34.3 7.414S47.7 121.069 50.114 107.95" transform="translate(17.3 39.431)"/>
                <path id="패스_3137" data-name="패스 3137" class="cls-31" d="M90.757 110.725a2.191 2.191 0 0 1 0 .73 2.108 2.108 0 0 1-.11.813c-.11.276-.854.276-.744-.207a7.262 7.262 0 0 1 .262-.772 1.833 1.833 0 0 1 .345-.648.193.193 0 0 1 .3.083" transform="translate(32.577 40.432)"/>
                <path id="패스_3138" data-name="패스 3138" class="cls-31" d="M90.779 112.813a1.7 1.7 0 0 1-.427-.262 2.26 2.26 0 0 1-.4-.482.3.3 0 0 1 .124-.427.317.317 0 0 1 .427.11 1.791 1.791 0 0 1 .358 1.006h-.083" transform="translate(32.583 40.81)"/>
                <path id="패스_3139" data-name="패스 3139" class="cls-31" d="M89.43 112.249a5.21 5.21 0 0 1 .675-.675c.276-.193.565.234.344.469a1.447 1.447 0 0 1-.469.276 1.378 1.378 0 0 1-.482.069.083.083 0 0 1 0-.138" transform="translate(32.402 40.782)"/>
                <path id="패스_3140" data-name="패스 3140" class="cls-31" d="M94.6 110.56a1.144 1.144 0 0 1 .717.207 7.922 7.922 0 0 1 .854.4.346.346 0 0 1-.358.593 5.938 5.938 0 0 1-.772-.537c-.193-.138-.455-.276-.524-.51a.138.138 0 0 1 .083-.152" transform="translate(34.326 40.417)"/>
                <path id="패스_3141" data-name="패스 3141" class="cls-31" d="M96.585 111.291c0 .11-.179.152-.276.22s-.165.152-.289.234a.372.372 0 0 1-.537-.22.386.386 0 0 1 .358-.469 2.646 2.646 0 0 0 .331 0 .634.634 0 0 1 .358 0 .165.165 0 0 1 0 .221" transform="translate(34.687 40.596)"/>
                <path id="패스_3142" data-name="패스 3142" class="cls-31" d="M95.768 112.352a2.384 2.384 0 0 1-.193-.427 1.626 1.626 0 0 1-.165-.5.381.381 0 0 1 .744-.1 1.488 1.488 0 0 1 0 .551 1.791 1.791 0 0 1-.11.469.152.152 0 0 1-.262 0" transform="translate(34.663 40.609)"/>
                <path id="패스_3143" data-name="패스 3143" class="cls-32" d="M89.856 114.686a5.746 5.746 0 0 1-2.384-7.924c.207-.413.427-.813.675-1.213a10.487 10.487 0 0 1 5.292-4.134c.372-.138.744-.262 1.13-.372a5.664 5.664 0 0 1 3.211 0 6.242 6.242 0 0 1 3.473 3.211c1.268 2.646 1.612 7.028-.551 9.384a4.933 4.933 0 0 1-2.191 1.378 6.351 6.351 0 0 1-.882.22l-1.2.069h-1.2a16.661 16.661 0 0 1-4.368-.276 5.071 5.071 0 0 1-1.006-.3" transform="translate(31.384 36.732)"/>
                <path id="패스_3144" data-name="패스 3144" class="cls-2" d="M93.857 102.024a2.246 2.246 0 0 1 1.24 0 3.376 3.376 0 0 1 2.232 2.508 2.2 2.2 0 0 1-1.3 2.48c-1.681.51-4.244-1.185-3.969-3.087a2.356 2.356 0 0 1 1.791-1.943" transform="translate(33.391 37.157)"/>
                <path id="패스_3145" data-name="패스 3145" d="M95.866 102.911a1.86 1.86 0 0 1 .689 1.282 1.075 1.075 0 0 1-.813 1.1 1.378 1.378 0 0 1-.9-.22 2.756 2.756 0 0 1-.813-.744c-.469-.606-.345-1.695.565-1.778a1.805 1.805 0 0 1 1.268.358" transform="translate(34.041 37.387)"/>
                <path id="패스_3146" data-name="패스 3146" d="M97.914 103.5a.262.262 0 0 1 0 .124 1.957 1.957 0 0 1-.785.634c-.165.069-.386.11-.482 0a.276.276 0 0 1 0-.11c-.1-.3-.372-1.309.1-1.378s1.282.537 1.268.8" transform="translate(35.066 37.471)" style="fill:#e5332a"/>
                <path id="패스_3147" data-name="패스 3147" class="cls-31" d="M90.66 106.2a3.417 3.417 0 0 0-2.067.11 1.061 1.061 0 0 0-.7.923.951.951 0 0 0 .7.8 2.6 2.6 0 0 0 1.13 0 2.894 2.894 0 0 0-1.378.648c-.234.207-.455.537-.317.827a.758.758 0 0 0 .661.358 3.362 3.362 0 0 0 1.378-.1c-.413.234-.882.565-.868 1.047a.882.882 0 0 0 .772.744 1.9 1.9 0 0 0 1.116-.276 4.823 4.823 0 0 0 2.646-3.294c.083-1.2-2.191-1.667-3.073-1.847" transform="translate(31.82 38.728)"/>
                <path id="패스_3148" data-name="패스 3148" class="cls-32" d="M95.5 100.174a.317.317 0 0 0 .1-.138.341.341 0 0 0-.3-.331.73.73 0 0 0-.62.345 2 2 0 0 0-.221.7 1.461 1.461 0 0 0-.854-1.171.9.9 0 0 0-.537 0 .51.51 0 0 0-.386.358.8.8 0 0 0 0 .358c.165.537.551 1.378 1.24 1.378s1.171-.951 1.543-1.378" transform="translate(33.621 36.251)"/>
                <path id="패스_3149" data-name="패스 3149" class="cls-32" d="M87.968 107.649a3.569 3.569 0 0 1-2.3-.179l.7-1.213a1.24 1.24 0 0 1 .207.248.73.73 0 0 1-.978.978 1.945 1.945 0 0 1-.248-.193.73.73 0 0 1 0-.965.758.758 0 0 1 .937-.193 11.988 11.988 0 0 1 1.819.813.386.386 0 0 1-.083.7" transform="translate(30.791 38.712)"/>
                <path id="패스_3150" data-name="패스 3150" class="cls-32" d="M87.8 107.58a1.612 1.612 0 0 1-.593.661 2.219 2.219 0 0 1-.386.234c-.11 0-.455.331-.234 0l.083-.537a.717.717 0 0 1-.317.772.7.7 0 0 1-1.034-.413c-.138-.675.386-.923.91-1.13a2.109 2.109 0 0 1 1.378-.1.331.331 0 0 1 .193.469" transform="translate(30.839 39.07)"/>
                <path id="패스_3151" data-name="패스 3151" d="M150.017 43.254c.413 0 .675.1.772.262a8.021 8.021 0 0 1 0 2.384 31.848 31.848 0 0 1-.276 3.418c-.11.758-.3 1.24-.606 1.378a.221.221 0 0 1-.289 0c-.138-.11-.124-.51 0-1.158a11.023 11.023 0 0 0 .276-1.185c0-.234.083-.937.138-2.095a6.533 6.533 0 0 0-.083-2.026c-.1-.3-.331-.413-.717-.317s-1.144.152-2.618.3l-.8.083h-1.254a.276.276 0 0 1-.138 0 .194.194 0 0 1 0-.1.289.289 0 0 1 .069-.248.758.758 0 0 1 .386-.193 5.306 5.306 0 0 1 .786-.152c.317 0 .772-.1 1.378-.138 1.543-.165 2.522-.234 2.935-.234" transform="translate(53.189 14.968)" style="fill:#efbe31"/>
                <path id="패스_3152" data-name="패스 3152" d="M150.017 43.25c.413 0 .675.1.772.262a8.021 8.021 0 0 1 0 2.384 31.848 31.848 0 0 1-.276 3.418c-.11.758-.3 1.24-.606 1.378a.22.22 0 0 1-.289 0c-.138-.11-.124-.51 0-1.158a11.023 11.023 0 0 0 .276-1.185c0-.234.083-.937.138-2.095a6.533 6.533 0 0 0-.083-2.026c-.1-.3-.331-.413-.717-.317s-1.144.152-2.618.3l-.8.083h-1.254a.276.276 0 0 1-.138 0 .194.194 0 0 1 0-.1.289.289 0 0 1 .069-.248.758.758 0 0 1 .386-.193 5.306 5.306 0 0 1 .786-.152c.317 0 .772-.1 1.378-.138 1.584-.144 2.559-.213 2.976-.213z" transform="translate(53.189 14.972)" style="stroke-width:2.31px;stroke:#efbe31;stroke-miterlimit:10;fill:none"/>
                <path id="패스_3153" data-name="패스 3153" d="M158.039 44.55c.165 0 .193.165 0 .386a11.615 11.615 0 0 0-.786 2.26 12.788 12.788 0 0 0-.524 2.425v.689l1.378.413a16.15 16.15 0 0 0 2.756.551.386.386 0 0 0 .179 0 12.252 12.252 0 0 1 1.6.234.262.262 0 0 1 .152.345l-.11.427-3.321-.593a24.225 24.225 0 0 1-3.542-.772c-.11 0-.138-.289-.083-.62s.262-1.13.606-2.412a13.959 13.959 0 0 1 1.061-3.169c.207-.193.386-.276.551-.22" transform="translate(57.458 15.436)" style="fill:#ffb3b3"/>
                <path id="패스_3154" data-name="패스 3154" d="M158.039 44.535c.165 0 .193.165 0 .386a11.615 11.615 0 0 0-.786 2.26 12.788 12.788 0 0 0-.524 2.425v.689l1.378.413a16.15 16.15 0 0 0 2.756.551.386.386 0 0 0 .179 0 12.251 12.251 0 0 1 1.6.234.262.262 0 0 1 .152.344l-.11.427-3.321-.593a24.225 24.225 0 0 1-3.542-.772c-.11 0-.138-.289-.083-.62s.262-1.13.606-2.412A13.959 13.959 0 0 1 157.4 44.7c.294-.138.474-.22.639-.165z" transform="translate(57.458 15.451)" style="stroke:#ffabab;stroke-width:2.31px;stroke-miterlimit:10;fill:none"/>
                <path id="패스_3155" data-name="패스 3155" d="M157.542 55.768c.083 0 .179.138.276.372s.11.386 0 .413a11.189 11.189 0 0 1-1.819 0 10.942 10.942 0 0 0-3.748.234 8.488 8.488 0 0 0-.482 2.315 8.145 8.145 0 0 0-.193 2.4 5.926 5.926 0 0 0 1.9.289c1.2.083 2.246.124 3.128.1a2.109 2.109 0 0 1 .717 0c.083 0 .11.138.1.345a.31.31 0 0 1-.262.331 12.4 12.4 0 0 1-1.378 0c-2.384-.1-3.8-.179-4.258-.22s-.717-.138-.785-.262a6.325 6.325 0 0 1 .193-2.039c.234-1.378.4-2.37.469-3.059l.138-1.254h3.514a11.962 11.962 0 0 0 1.929 0 1.943 1.943 0 0 1 .551-.1" transform="translate(55.572 19.652)" style="fill:#a2e846"/>
                <path id="패스_3156" data-name="패스 3156" d="M157.542 55.743c.083 0 .179.138.276.372s.11.386 0 .413a11.19 11.19 0 0 1-1.819 0 10.941 10.941 0 0 0-3.748.234 8.488 8.488 0 0 0-.482 2.315 8.145 8.145 0 0 0-.193 2.4 5.926 5.926 0 0 0 1.9.289c1.2.083 2.246.124 3.128.1a2.109 2.109 0 0 1 .717 0c.083 0 .11.138.1.345a.31.31 0 0 1-.262.331 12.4 12.4 0 0 1-1.378 0c-2.384-.1-3.8-.179-4.258-.22s-.717-.138-.785-.262a6.325 6.325 0 0 1 .193-2.039c.234-1.378.4-2.37.469-3.059l.138-1.254h3.514a11.962 11.962 0 0 0 1.929 0 1.943 1.943 0 0 1 .565.041z" transform="translate(55.572 19.677)" style="stroke:#a2e846;stroke-width:2.31px;stroke-miterlimit:10;fill:none"/>
                <path id="사각형_326" data-name="사각형 326" transform="translate(0 221.037)" style="fill:#b77f1c;stroke-width:1.72px;stroke-linejoin:round;stroke-linecap:round;stroke:#36607b" d="M0 0h259.085v11.286H0z"/>
            </g>
        </g>
    </g>
</svg>
