<svg xmlns="http://www.w3.org/2000/svg" width="137.119" height="167.08">
    <defs>
        <clipPath id="clip-path">
            <path id="패스_7188" data-name="패스 7188" class="cls-1" d="m339.316-402.076-9.326 6.817a2.074 2.074 0 0 1-2.652-.17l-6.556-6.228a2.072 2.072 0 0 0-3.014.169l-4.863 5.772a2.075 2.075 0 0 1-2.807.34l-8.063-5.871a2.076 2.076 0 0 0-3.3 1.793c1.661 27.413 19.26 43.919 40.728 43.919 21.495 0 39.114-16.552 40.734-44.028a2.077 2.077 0 0 0-3.261-1.819l-8.778 6.118a2.075 2.075 0 0 1-2.7-.284l-4.4-4.693a2.073 2.073 0 0 0-2.941-.085l-6.355 6.038a2.077 2.077 0 0 1-2.965-.108l-6.726-7.4a2.075 2.075 0 0 0-1.536-.679 2.074 2.074 0 0 0-1.222.4" transform="translate(-298.734 402.475)"/>
        </clipPath>
        <clipPath id="clip-path-2">
            <path id="패스_7229" data-name="패스 7229" class="cls-1" d="m295.243-427.242 13.881-4.738 9.14 8.142 14.359-5.833 9.853 7.749 12.776-5.957 9.056 6.337 12.213-4.653 10.128 6.19c2.579-32.139-13.149-56.065-42.167-58.362q-2.637-.207-5.13-.208c-27.372 0-41.678 21.036-44.109 51.334" transform="translate(-295.243 478.576)"/>
        </clipPath>
        <style>
            .cls-1{fill:none}.cls-2{fill:#8cc7ea}.cls-3{fill:#36607b}.cls-4{fill:#335d76}.cls-5{fill:#faf2e2}.cls-7{fill:#4b829f}.cls-8{fill:#ffbfc5}.cls-9{fill:#f7f8f8}
        </style>
    </defs>
    <g id="그룹_2918" data-name="그룹 2918">
        <g id="그룹_2873" data-name="그룹 2873" transform="translate(35.571 101.809)">
            <path id="패스_7177" data-name="패스 7177" class="cls-2" d="M311.214-412.761s-8.376 18.724-6.241 32.192h63.068s-1.807-16.754-6.077-28.25" transform="translate(-304.025 413.004)"/>
            <path id="패스_7178" data-name="패스 7178" class="cls-3" d="M368.909-379.892h-64.24l-.079-.5c-2.139-13.488 5.941-31.757 6.285-32.528l1.086.486c-.082.184-8.071 18.254-6.27 31.353h61.887c-.386-3.208-2.247-17.432-5.967-27.446l1.114-.414c4.248 11.434 6.094 28.225 6.112 28.392z" transform="translate(-304.23 412.921)"/>
        </g>
        <g id="그룹_2874" data-name="그룹 2874" transform="translate(35.101 101.618)">
            <path id="패스_7179" data-name="패스 7179" class="cls-4" d="M369.593-379.355h-65.166l-.141-.9c-2.162-13.625 5.973-32.018 6.32-32.794l1.945.87c-.08.179-7.854 17.763-6.287 30.691h60.943c-.5-4-2.35-17.318-5.877-26.813l2-.742c4.268 11.49 6.062 27.817 6.137 28.506z" transform="translate(-303.921 413.047)"/>
        </g>
        <g id="그룹_2875" data-name="그룹 2875" transform="translate(27.227 117.669)">
            <path id="패스_7180" data-name="패스 7180" class="cls-5" d="M376.939-401.382a2.077 2.077 0 0 1 3.261 1.819c-1.62 27.477-19.239 44.028-40.734 44.028-21.466 0-39.067-16.508-40.728-43.919a2.077 2.077 0 0 1 3.3-1.793l8.065 5.871a2.072 2.072 0 0 0 2.806-.342l4.863-5.772a2.075 2.075 0 0 1 3.015-.169l6.554 6.228a2.073 2.073 0 0 0 2.652.172l9.328-6.815a2.073 2.073 0 0 1 2.757.278l6.727 7.4a2.075 2.075 0 0 0 2.964.108l6.355-6.038a2.073 2.073 0 0 1 2.941.085l4.4 4.693a2.075 2.075 0 0 0 2.7.284z" transform="translate(-298.734 402.474)"/>
        </g>
        <g id="그룹_2876" data-name="그룹 2876" transform="translate(24.755 115.198)">
            <path id="패스_7181" data-name="패스 7181" class="cls-4" d="M341.382-401.63a2.07 2.07 0 0 1 1.536.679l6.727 7.4a2.069 2.069 0 0 0 1.535.68 2.064 2.064 0 0 0 1.427-.571l6.357-6.038a2.068 2.068 0 0 1 1.429-.571 2.066 2.066 0 0 1 1.512.656l4.4 4.694a2.076 2.076 0 0 0 1.515.654 2.066 2.066 0 0 0 1.18-.373l8.778-6.118a2.049 2.049 0 0 1 1.18-.376 2.078 2.078 0 0 1 2.081 2.2c-1.62 27.478-19.239 44.028-40.734 44.028-21.468 0-39.067-16.508-40.728-43.919a2.074 2.074 0 0 1 2.081-2.194 2.036 2.036 0 0 1 1.213.4l8.065 5.871a2.071 2.071 0 0 0 1.221.4 2.072 2.072 0 0 0 1.586-.738l4.861-5.774a2.071 2.071 0 0 1 1.588-.738 2.062 2.062 0 0 1 1.427.569l6.556 6.228a2.071 2.071 0 0 0 1.429.571 2.071 2.071 0 0 0 1.224-.4l9.326-6.815a2.067 2.067 0 0 1 1.222-.4m0-2.472a4.506 4.506 0 0 0-2.68.876l-9.059 6.619-6.314-6a4.533 4.533 0 0 0-3.131-1.249 4.541 4.541 0 0 0-3.477 1.617l-4.625 5.491-7.764-5.654a4.51 4.51 0 0 0-2.669-.875 4.6 4.6 0 0 0-3.334 1.444 4.477 4.477 0 0 0-1.215 3.372c.833 13.744 5.545 25.433 13.626 33.806a40.7 40.7 0 0 0 29.576 12.43 40.689 40.689 0 0 0 29.6-12.468c8.088-8.394 12.79-20.112 13.6-33.887a4.486 4.486 0 0 0-1.219-3.372 4.6 4.6 0 0 0-3.329-1.441 4.519 4.519 0 0 0-2.592.821l-8.5 5.921-4.164-4.442a4.559 4.559 0 0 0-3.316-1.436 4.526 4.526 0 0 0-3.131 1.25l-6.062 5.759-6.454-7.1a4.554 4.554 0 0 0-3.364-1.488" transform="translate(-297.106 404.102)"/>
        </g>
        <g id="그룹_2884" data-name="그룹 2884" transform="translate(27.227 117.668)">
            <g id="그룹_2883" data-name="그룹 2883" style="clip-path:url(#clip-path)">
                <g id="그룹_2877" data-name="그룹 2877" transform="translate(48.022 -61.597)">
                    <path id="패스_7182" data-name="패스 7182" class="cls-7" d="M363.925-431.263c5.072 9.956 2.236 21.569-6.337 25.936s-19.634-.166-24.706-10.122-2.236-21.569 6.337-25.936 19.634.164 24.706 10.122" transform="translate(-330.365 443.047)"/>
                </g>
                <g id="그룹_2878" data-name="그룹 2878" transform="translate(8.496 -25.311)">
                    <path id="패스_7183" data-name="패스 7183" class="cls-7" d="M323.419-406.179c-1.2 6.043-6.387 10.1-11.589 9.073s-8.449-6.765-7.251-12.808 6.387-10.105 11.59-9.073 8.447 6.765 7.25 12.808" transform="translate(-304.33 419.147)"/>
                </g>
                <g id="그룹_2879" data-name="그룹 2879" transform="translate(54.873 -7.382)">
                    <path id="패스_7184" data-name="패스 7184" class="cls-7" d="M340.7-403.377a3.193 3.193 0 0 1-3.537 2.769 3.2 3.2 0 0 1-2.214-3.911 3.194 3.194 0 0 1 3.537-2.769 3.194 3.194 0 0 1 2.214 3.911" transform="translate(-334.877 407.337)"/>
                </g>
                <g id="그룹_2880" data-name="그룹 2880" transform="translate(18.985 -63.292)">
                    <path id="패스_7185" data-name="패스 7185" class="cls-7" d="M323.558-435.666c-.855 3.89-4.26 6.445-7.609 5.71s-5.368-4.485-4.514-8.373 4.259-6.443 7.608-5.708 5.368 4.483 4.515 8.371" transform="translate(-311.239 444.163)"/>
                </g>
                <g id="그룹_2881" data-name="그룹 2881" transform="translate(-1.337 11.026)">
                    <path id="패스_7186" data-name="패스 7186" class="cls-7" d="M324.218-382.12c1.435 8.373-3.246 16.163-10.456 17.4s-14.217-4.553-15.65-12.926 3.244-16.163 10.454-17.4 14.217 4.553 15.651 12.926" transform="translate(-297.853 395.212)"/>
                </g>
                <g id="그룹_2882" data-name="그룹 2882" transform="translate(41.758 14.13)">
                    <path id="패스_7187" data-name="패스 7187" class="cls-7" d="M360.616-368.075c-3.246 10.7-13.348 17.113-22.562 14.318S324-367.493 327.249-378.2s13.347-17.113 22.561-14.318 14.053 13.737 10.807 24.439" transform="translate(-326.239 393.168)"/>
                </g>
            </g>
        </g>
        <g id="그룹_2885" data-name="그룹 2885" transform="translate(21.487 92.407)">
            <path id="패스_7189" data-name="패스 7189" class="cls-2" d="M320.415-399.466c-4.306 5.288-5.06 14.2-5.06 14.807s4.306 7.705.15 9.745-4.458-5.59-4.458-5.59c-.565 8.476-7.345 7.91-7.345 7.91-23.17-4.237 11.3-45.771 11.3-45.771h53.188s34.47 41.534 11.3 45.771c0 0-6.78.566-7.345-7.91 0 0-.3 7.629-4.457 5.59s.15-9.141.15-9.745-.755-9.519-5.06-14.807" transform="translate(-294.57 419.502)"/>
            <path id="패스_7190" data-name="패스 7190" class="cls-3" d="M304.337-371.061c-.2 0-.322-.011-.346-.012-4.42-.8-7.21-2.869-8.4-6.158-4.664-12.835 17.961-40.309 18.926-41.472a1.135 1.135 0 0 1 .875-.411h53.188a1.135 1.135 0 0 1 .875.411c.966 1.163 23.59 28.637 18.926 41.472-1.195 3.289-3.985 5.356-8.3 6.144a8.05 8.05 0 0 1-5.624-1.855 7.9 7.9 0 0 1-1.88-2.412 4.38 4.38 0 0 1-1.6 1.877 3.41 3.41 0 0 1-3.4-.027c-4.359-2.139-1.741-8.054-.756-10.281.114-.255.208-.46.263-.6-.085-1.075-.87-9.147-4.8-13.971a1.139 1.139 0 0 1 .162-1.6 1.138 1.138 0 0 1 1.6.162c4.754 5.838 5.318 15.437 5.318 15.527a3.664 3.664 0 0 1-.466 1.4c-1.266 2.86-2.446 6.278-.32 7.321.785.384 1.111.188 1.234.115.976-.583 1.523-3.167 1.583-4.731a1.139 1.139 0 0 1 1.122-1.092 1.1 1.1 0 0 1 1.149 1.061c.167 2.5.925 4.35 2.252 5.505a5.862 5.862 0 0 0 3.871 1.347c3.39-.626 5.539-2.157 6.451-4.667 3.938-10.834-15.4-35.355-18.2-38.833h-52.113c-2.807 3.478-22.142 28-18.2 38.833.912 2.508 3.059 4.04 6.563 4.681a5.921 5.921 0 0 0 3.758-1.36c1.328-1.155 2.086-3.009 2.253-5.505a1.137 1.137 0 0 1 1.134-1.061h.015a1.138 1.138 0 0 1 1.122 1.09c.067 1.614.6 4.148 1.585 4.732.123.074.451.269 1.234-.115 2.124-1.043.944-4.461-.322-7.321a3.68 3.68 0 0 1-.465-1.4c0-.09.563-9.688 5.315-15.525a1.139 1.139 0 0 1 1.6-.165 1.138 1.138 0 0 1 .164 1.6c-3.926 4.822-4.711 12.887-4.8 13.972.056.143.15.348.263.6.985 2.227 3.6 8.142-.756 10.281a3.4 3.4 0 0 1-3.4.027 4.38 4.38 0 0 1-1.6-1.877 7.879 7.879 0 0 1-1.88 2.412 8.1 8.1 0 0 1-5.173 1.881z" transform="translate(-294.953 419.114)"/>
        </g>
        <g id="그룹_2886" data-name="그룹 2886" transform="translate(0 28.258)">
            <path id="패스_7191" data-name="패스 7191" class="cls-2" d="M315.216-450.729s-4.468-11.859-20.666-9.606c-14.833 2.065-15.1 22.741-10.011 30.723a23.712 23.712 0 0 0-.164 22.166c6.061 12.222 24.471 13.667 30.342-1.465" transform="translate(-280.41 461.754)"/>
            <path id="패스_7192" data-name="패스 7192" class="cls-3" d="M299.978-396.4a18.174 18.174 0 0 1-16.231-10.157 24.856 24.856 0 0 1-.134-22.655c-3.036-5.355-4.134-15.329-.642-22.889a14.833 14.833 0 0 1 11.813-8.976c16.893-2.355 21.84 10.2 21.887 10.33a1.136 1.136 0 0 1-.663 1.465 1.139 1.139 0 0 1-1.464-.662c-.185-.477-4.415-10.975-19.447-8.882a12.5 12.5 0 0 0-10.061 7.678c-3.2 6.926-2.142 16.609.853 21.308a1.14 1.14 0 0 1 0 1.212 22.392 22.392 0 0 0-.109 21.061 15.847 15.847 0 0 0 14.9 8.875c6.073-.273 10.945-4.008 13.366-10.248a1.14 1.14 0 0 1 1.471-.648 1.136 1.136 0 0 1 .648 1.471c-2.721 7.014-8.472 11.385-15.384 11.7-.267.017-.536.017-.803.017z" transform="translate(-280.801 461.367)"/>
        </g>
        <g id="그룹_2887" data-name="그룹 2887" transform="translate(8.227 38.922)">
            <path id="패스_7193" data-name="패스 7193" class="cls-8" d="M307.7-447.744s-3.088-8.159-13.458-6.333c-9.5 1.673-9.292 16.029-5.875 21.487a17.61 17.61 0 0 0 .3 15.389c4.119 8.384 15.978 9.09 19.476-1.508" transform="translate(-286.219 454.343)"/>
        </g>
        <g id="그룹_2888" data-name="그룹 2888" transform="translate(18.466 10.061)">
            <path id="패스_7194" data-name="패스 7194" class="cls-2" d="M339.644-381.306c33.471 2.033 44.491-13.763 47.677-23.88 2.378-7.556.565-12.9.565-12.9 0-44.953-28.993-54.521-45.938-54.521-15.551 0-50.733 13.113-43.245 58.442a2.914 2.914 0 0 1-.953 2.7 11.312 11.312 0 0 0-4.034 8.985c.172 7.52 1.368 18.459 45.929 21.166" transform="translate(-292.576 473.74)"/>
            <path id="패스_7195" data-name="패스 7195" class="cls-3" d="M345.73-379.6q-2.767 0-5.768-.181c-46.555-2.827-46.831-15-47-22.274a12.445 12.445 0 0 1 4.43-9.875 1.765 1.765 0 0 0 .571-1.655c-2.942-17.812.253-32.37 9.5-43.269 11.047-13.02 27.114-16.5 34.866-16.5 7.852 0 46.989 2.68 47.074 55.485a23.832 23.832 0 0 1-.616 13.409c-2.419 7.708-11.393 24.86-43.057 24.86zm-5.63-2.45c11.576.7 39.3-.137 46.523-23.086 2.224-7.069.589-12.141.571-12.193a1.169 1.169 0 0 1-.059-.361c0-8.915-2.159-53.384-44.8-53.384-7.362 0-22.623 3.305-33.132 15.691-8.8 10.368-11.819 24.307-8.991 41.429a4.023 4.023 0 0 1-1.336 3.753 10.21 10.21 0 0 0-3.636 8.1c.147 6.483.393 17.346 44.86 20.047z" transform="translate(-292.964 473.352)"/>
        </g>
        <g id="그룹_2889" data-name="그룹 2889" transform="translate(74.544 47.772)">
            <path id="패스_7196" data-name="패스 7196" class="cls-4" d="M337.6-445.335a1.055 1.055 0 0 1-.627-.206 4.7 4.7 0 0 0-2.619-.844 5.424 5.424 0 0 0-2.906.7 1.06 1.06 0 0 1-1.427-.46 1.058 1.058 0 0 1 .46-1.427 7.522 7.522 0 0 1 3.969-.932 6.768 6.768 0 0 1 3.779 1.256 1.058 1.058 0 0 1 .228 1.482 1.059 1.059 0 0 1-.856.433" transform="translate(-329.9 448.513)"/>
        </g>
        <g id="그룹_2890" data-name="그룹 2890" transform="translate(36.735 65.16)">
            <path id="패스_7197" data-name="패스 7197" class="cls-4" d="M315.139-430.755c-.041 3.434-2.346 6.181-5.147 6.134s-5.036-2.871-4.995-6.307 2.346-6.179 5.147-6.132 5.037 2.871 4.995 6.305" transform="translate(-304.997 437.06)"/>
        </g>
        <g id="그룹_2891" data-name="그룹 2891" transform="translate(40.723 47.772)">
            <path id="패스_7198" data-name="패스 7198" class="cls-4" d="M315.321-445.335a1.054 1.054 0 0 1-.627-.206 4.7 4.7 0 0 0-2.62-.844 5.423 5.423 0 0 0-2.9.7 1.061 1.061 0 0 1-1.429-.46 1.061 1.061 0 0 1 .46-1.427 7.531 7.531 0 0 1 3.97-.932 6.772 6.772 0 0 1 3.779 1.256 1.06 1.06 0 0 1 .228 1.482 1.062 1.062 0 0 1-.856.433" transform="translate(-307.624 448.513)"/>
        </g>
        <g id="그룹_2892" data-name="그룹 2892" transform="translate(39.56 67.518)">
            <path id="패스_7199" data-name="패스 7199" class="cls-9" d="M309.435-434.128a1.308 1.308 0 0 1-1.331 1.289 1.315 1.315 0 0 1-1.245-1.379 1.308 1.308 0 0 1 1.331-1.289 1.316 1.316 0 0 1 1.245 1.379" transform="translate(-306.857 435.508)"/>
        </g>
        <g id="그룹_2893" data-name="그룹 2893" transform="translate(74.777 65.16)">
            <path id="패스_7200" data-name="패스 7200" class="cls-4" d="M340.2-430.755c-.042 3.434-2.346 6.181-5.147 6.134s-5.036-2.871-4.995-6.307 2.346-6.179 5.147-6.132 5.036 2.871 4.995 6.305" transform="translate(-330.054 437.06)"/>
        </g>
        <g id="그룹_2894" data-name="그룹 2894" transform="translate(76.749 67.518)">
            <path id="패스_7201" data-name="패스 7201" class="cls-9" d="M333.93-434.128a1.308 1.308 0 0 1-1.331 1.289 1.316 1.316 0 0 1-1.245-1.379 1.308 1.308 0 0 1 1.331-1.289 1.316 1.316 0 0 1 1.245 1.379" transform="translate(-331.353 435.508)"/>
        </g>
        <g id="그룹_2895" data-name="그룹 2895" transform="translate(46.627 71.061)">
            <path id="패스_7202" data-name="패스 7202" class="cls-2" d="M344.088-406.286a1.56 1.56 0 0 1 .937 1.94l-1.482 4.984c-.247.782-1.055.981-1.872 1.148-7.585 1.547-35.551-5.768-28.2-34.212" transform="translate(-311.128 433.561)"/>
            <path id="패스_7203" data-name="패스 7203" class="cls-3" d="M339.865-396.506c-5.417 0-15.061-2.364-21.723-9.38-4.382-4.615-8.871-12.947-5.384-26.437a1.137 1.137 0 0 1 1.385-.815 1.136 1.136 0 0 1 .817 1.385c-2.59 10.02-.964 18.2 4.833 24.3 6.887 7.254 17.844 9.37 22.035 8.513.313-.064.958-.194 1.016-.378l1.476-4.963a.426.426 0 0 0-.252-.554 1.138 1.138 0 0 1-.657-1.468 1.133 1.133 0 0 1 1.467-.657 2.708 2.708 0 0 1 1.617 3.348l-1.476 4.963a3.172 3.172 0 0 1-2.736 1.937 12.324 12.324 0 0 1-2.418.206z" transform="translate(-311.512 433.174)"/>
        </g>
        <g id="그룹_2896" data-name="그룹 2896" transform="translate(47.463 80.566)">
            <path id="패스_7204" data-name="패스 7204" class="cls-2" d="M319.934-426.452s-4.831-.641-7.6 2.036" transform="translate(-311.922 427.117)"/>
            <path id="패스_7205" data-name="패스 7205" class="cls-3" d="m312.89-423.784-.827-.856c2.941-2.845 7.881-2.224 8.091-2.2l-.154 1.183c-.048-.01-4.586-.568-7.11 1.873z" transform="translate(-312.063 426.913)"/>
        </g>
        <g id="그룹_2897" data-name="그룹 2897" transform="translate(46.811 80.096)">
            <path id="패스_7206" data-name="패스 7206" class="cls-3" d="M312.7-422.984a1.066 1.066 0 0 1-.767-.325 1.068 1.068 0 0 1 .024-1.508c3.1-3 8.261-2.356 8.479-2.329a1.067 1.067 0 0 1 .917 1.2 1.06 1.06 0 0 1-1.2.915c-.067-.008-4.368-.525-6.718 1.747a1.06 1.06 0 0 1-.739.3" transform="translate(-311.634 427.222)"/>
        </g>
        <g id="그룹_2898" data-name="그룹 2898" transform="translate(49.784 87.631)">
            <path id="패스_7207" data-name="패스 7207" class="cls-2" d="M320.6-421.693s-4.014-1.01-6.721 1.873" transform="translate(-313.444 422.465)"/>
            <path id="패스_7208" data-name="패스 7208" class="cls-3" d="m314.46-419.207-.868-.814c2.913-3.1 7.122-2.091 7.3-2.044l-.288 1.154c-.037-.009-3.719-.879-6.144 1.704z" transform="translate(-313.592 422.26)"/>
        </g>
        <g id="그룹_2899" data-name="그룹 2899" transform="translate(49.153 87.164)">
            <path id="패스_7209" data-name="패스 7209" class="cls-3" d="M314.242-418.389a1.061 1.061 0 0 1-.729-.288 1.067 1.067 0 0 1-.049-1.506c3.1-3.3 7.57-2.227 7.76-2.179a1.066 1.066 0 0 1 .773 1.294 1.069 1.069 0 0 1-1.289.774 6.229 6.229 0 0 0-5.689 1.57 1.063 1.063 0 0 1-.777.336" transform="translate(-313.177 422.567)"/>
        </g>
        <g id="그룹_2900" data-name="그룹 2900" transform="translate(53.765 94.245)">
            <path id="패스_7210" data-name="패스 7210" class="cls-2" d="M322.327-417.423a7.093 7.093 0 0 0-5.844 1.711" transform="translate(-316.075 418.106)"/>
            <path id="패스_7211" data-name="패스 7211" class="cls-3" d="m317.032-415.076-.818-.864a7.647 7.647 0 0 1 6.369-1.863l-.232 1.168a6.55 6.55 0 0 0-5.319 1.559z" transform="translate(-316.214 417.903)"/>
        </g>
        <g id="그룹_2901" data-name="그룹 2901" transform="translate(53.107 93.776)">
            <path id="패스_7212" data-name="패스 7212" class="cls-3" d="M316.847-414.283a1.062 1.062 0 0 1-.774-.332 1.066 1.066 0 0 1 .041-1.508 8.148 8.148 0 0 1 6.786-1.977 1.067 1.067 0 0 1 .833 1.256 1.063 1.063 0 0 1-1.25.835 5.976 5.976 0 0 0-4.907 1.439 1.055 1.055 0 0 1-.732.292" transform="translate(-315.78 418.212)"/>
        </g>
        <g id="그룹_2902" data-name="그룹 2902" transform="translate(70.356 78.398)">
            <path id="패스_7213" data-name="패스 7213" class="cls-2" d="M332.86-400.834c-.115 7.392 6.534 11.381 11.06 7.254 4.178-3.809-3.566-9.074-3.566-9.074s5.637-1.486 3.225-5.505-7.535-.372-7.535-.372-8.648-3.677-8.132-19.06" transform="translate(-326.754 428.73)"/>
            <path id="패스_7214" data-name="패스 7214" class="cls-3" d="M340.246-390.394a6.942 6.942 0 0 1-2.86-.627c-3.27-1.474-5.341-5.18-5.274-9.442a1.208 1.208 0 0 1 1.154-1.119 1.139 1.139 0 0 1 1.12 1.155c-.053 3.352 1.492 6.231 3.935 7.333a4.658 4.658 0 0 0 5.223-.938 2.229 2.229 0 0 0 .859-1.88c-.152-2.136-3.232-4.687-4.3-5.412a1.136 1.136 0 0 1-.48-1.13 1.137 1.137 0 0 1 .826-.909c.606-.164 2.432-.878 2.877-1.983.077-.188.31-.765-.334-1.839a2.51 2.51 0 0 0-1.666-1.277c-1.872-.393-4.212 1.23-4.236 1.246a1.14 1.14 0 0 1-1.1.12c-.383-.164-9.36-4.168-8.822-20.145a1.128 1.128 0 0 1 1.174-1.1 1.136 1.136 0 0 1 1.1 1.174c-.414 12.363 5.191 16.672 6.943 17.712a8.215 8.215 0 0 1 5.411-1.234 4.72 4.72 0 0 1 3.15 2.332 4.2 4.2 0 0 1 .492 3.87 5.362 5.362 0 0 1-2.46 2.525c1.5 1.315 3.527 3.506 3.7 5.888a4.5 4.5 0 0 1-1.6 3.721 7.143 7.143 0 0 1-4.832 1.959z" transform="translate(-327.142 428.341)"/>
        </g>
        <g id="그룹_2903" data-name="그룹 2903" transform="translate(101.176 28.931)">
            <path id="패스_7215" data-name="패스 7215" class="cls-2" d="M348.191-450.285s4.468-11.859 20.668-9.6c14.833 2.063 15.1 22.74 10.011 30.723a23.714 23.714 0 0 1 .162 22.162c-6.061 12.22-24.469 13.666-30.342-1.465" transform="translate(-347.053 461.311)"/>
            <path id="패스_7216" data-name="패스 7216" class="cls-3" d="M364.209-395.95c-.269 0-.536-.006-.806-.02-6.911-.311-12.663-4.684-15.384-11.7a1.136 1.136 0 0 1 .648-1.471 1.136 1.136 0 0 1 1.471.648c2.422 6.238 7.294 9.975 13.368 10.248a15.88 15.88 0 0 0 14.9-8.877 22.383 22.383 0 0 0-.109-21.059 1.143 1.143 0 0 1 .006-1.213c2.994-4.7 4.052-14.381.853-21.308a12.508 12.508 0 0 0-10.063-7.678c-15.125-2.106-19.4 8.771-19.445 8.882a1.135 1.135 0 0 1-1.465.662 1.137 1.137 0 0 1-.664-1.465c.049-.128 4.987-12.689 21.887-10.33a14.838 14.838 0 0 1 11.815 8.976c3.49 7.561 2.393 17.534-.644 22.89a24.858 24.858 0 0 1-.134 22.653 18.174 18.174 0 0 1-16.234 10.162z" transform="translate(-347.442 460.923)"/>
        </g>
        <g id="그룹_2904" data-name="그룹 2904" transform="translate(107.718 39.222)">
            <path id="패스_7217" data-name="패스 7217" class="cls-8" d="M352.191-447.546s3.088-8.159 13.459-6.332c9.5 1.673 9.29 16.029 5.875 21.487a17.607 17.607 0 0 1-.3 15.389c-4.117 8.385-15.976 9.09-19.476-1.508" transform="translate(-351.751 454.145)"/>
        </g>
        <g id="그룹_2905" data-name="그룹 2905" transform="translate(70.792 82.956)">
            <path id="패스_7218" data-name="패스 7218" class="cls-4" d="M329.237-421.328a4.555 4.555 0 0 1-.988-.09 1.066 1.066 0 0 1-.791-1.283 1.064 1.064 0 0 1 1.271-.794c.109.021 2.138.4 4.775-1.623a1.066 1.066 0 0 1 1.5.2 1.067 1.067 0 0 1-.2 1.5 9.17 9.17 0 0 1-5.564 2.1" transform="translate(-327.429 425.339)"/>
        </g>
        <g id="그룹_2906" data-name="그룹 2906" transform="translate(29.27 77.001)">
            <path id="패스_7219" data-name="패스 7219" class="cls-8" d="M312.142-425.3c0 2.189-2.7 3.963-6.032 3.963s-6.03-1.773-6.03-3.963 2.7-3.961 6.03-3.961 6.032 1.773 6.032 3.961" transform="translate(-300.08 429.261)"/>
        </g>
        <g id="그룹_2907" data-name="그룹 2907" transform="translate(82.64 77.001)">
            <path id="패스_7220" data-name="패스 7220" class="cls-8" d="M347.3-425.3c0 2.189-2.7 3.963-6.03 3.963s-6.032-1.773-6.032-3.963 2.7-3.961 6.032-3.961 6.03 1.773 6.03 3.961" transform="translate(-335.233 429.261)"/>
        </g>
        <g id="그룹_2908" data-name="그룹 2908" transform="translate(21.926 2.151)">
            <path id="패스_7221" data-name="패스 7221" class="cls-5" d="M386.649-420.013c2.579-32.138-13.148-56.065-42.166-58.362-30.721-2.431-46.663 18.988-49.24 51.126l13.883-4.738 9.138 8.142 14.359-5.833 9.853 7.749 12.774-5.957 9.056 6.337 12.214-4.653z" transform="translate(-295.243 478.563)"/>
        </g>
        <g id="그룹_2909" data-name="그룹 2909" transform="translate(19.794)">
            <path id="패스_7222" data-name="패스 7222" class="cls-4" d="M340.078-477.847q2.494 0 5.133.208c29.016 2.3 44.744 26.223 42.166 58.36l-10.127-6.19-12.216 4.652-9.056-6.336-12.778 5.958-9.853-7.749-14.359 5.833-9.138-8.142-13.883 4.74c2.431-30.3 16.737-51.336 44.107-51.334m0-2.132c-13.968 0-25.078 4.659-33.018 13.852-7.491 8.671-11.938 23.52-13.215 39.443a2.139 2.139 0 0 0 .817 1.852 2.136 2.136 0 0 0 1.309.449 2.125 2.125 0 0 0 .689-.115l12.7-4.338 8.211 7.315a2.128 2.128 0 0 0 1.417.54 2.116 2.116 0 0 0 .8-.158l13.212-5.365 8.88 6.982a2.126 2.126 0 0 0 1.319.457 2.1 2.1 0 0 0 .9-.2l11.66-5.437 8.048 5.631a2.134 2.134 0 0 0 1.222.384 2.156 2.156 0 0 0 .759-.138l11.246-4.275 9.235 5.645a2.145 2.145 0 0 0 1.111.313 2.135 2.135 0 0 0 .967-.232 2.129 2.129 0 0 0 1.157-1.729c1.413-17.6-2.513-34.769-11.353-45.14-7.726-9.065-19.058-14.431-32.768-15.516a67.229 67.229 0 0 0-5.3-.214" transform="translate(-293.839 479.979)"/>
        </g>
        <g id="그룹_2917" data-name="그룹 2917" transform="translate(21.926 2.13)">
            <g id="그룹_2916" data-name="그룹 2916" style="clip-path:url(#clip-path-2)">
                <g id="그룹_2910" data-name="그룹 2910" transform="translate(53.266 4.644)">
                    <path id="패스_7223" data-name="패스 7223" class="cls-7" d="M367.335-459.152c4.655 11.115.572 23.323-9.114 27.269s-21.316-1.864-25.971-12.978-.572-25.7 9.115-29.651 21.316 4.246 25.969 15.36" transform="translate(-330.327 475.517)"/>
                </g>
                <g id="그룹_2911" data-name="그룹 2911" transform="translate(7.715 41.851)">
                    <path id="패스_7224" data-name="패스 7224" class="cls-7" d="M321-436.312c-1.822 6.377-7.808 10.287-13.371 8.733s-8.595-7.981-6.773-14.358 7.807-10.287 13.37-8.733 8.6 7.981 6.774 14.358" transform="translate(-300.324 451.01)"/>
                </g>
                <g id="그룹_2912" data-name="그룹 2912" transform="translate(57.285 64.475)">
                    <path id="패스_7225" data-name="패스 7225" class="cls-7" d="M339.287-431.62a3.478 3.478 0 0 1-4.082 2.666 3.43 3.43 0 0 1-2.068-4.385 3.479 3.479 0 0 1 4.082-2.661 3.432 3.432 0 0 1 2.068 4.385" transform="translate(-332.974 436.108)"/>
                </g>
                <g id="그룹_2913" data-name="그룹 2913" transform="translate(22.746 -.655)">
                    <path id="패스_7226" data-name="패스 7226" class="cls-7" d="M323.56-469.387c-1.262 4.1-5.183 6.545-8.757 5.469s-5.446-5.27-4.184-9.367 5.183-6.544 8.757-5.469 5.447 5.271 4.184 9.367" transform="translate(-310.225 479.008)"/>
                </g>
                <g id="그룹_2914" data-name="그룹 2914" transform="translate(-6.354 80.174)">
                    <path id="패스_7227" data-name="패스 7227" class="cls-7" d="M319.885-410.511c.84 9.1-4.918 17.054-12.855 17.759s-15.053-6.1-15.891-15.207 4.918-17.054 12.855-17.759 15.053 6.1 15.891 15.206" transform="translate(-291.058 425.768)"/>
                </g>
                <g id="그룹_2915" data-name="그룹 2915" transform="translate(39.566 87.752)">
                    <path id="패스_7228" data-name="패스 7228" class="cls-7" d="M358.434-392.5c-4.448 11.2-15.973 17.2-25.743 13.415s-14.083-15.94-9.635-27.137 15.972-17.2 25.74-13.415 14.084 15.937 9.638 27.137" transform="translate(-321.304 420.777)"/>
                </g>
            </g>
        </g>
    </g>
</svg>
