<svg id="그룹_3090" data-name="그룹 3090" xmlns="http://www.w3.org/2000/svg" width="154.915" height="178.04">
    <defs>
        <clipPath id="clip-path">
            <path id="패스_7436" data-name="패스 7436" d="M326.53-259.181c8.561.2 8.982-9.058 8.982-9.058a23.661 23.661 0 0 1-16.328-.291s-1.213 9.147 7.347 9.349" transform="translate(-319.124 268.53)" style="fill:none"/>
        </clipPath>
        <style>
            .cls-2{fill:#8cc7ea}.cls-3{fill:#36607b}.cls-4{fill:#335d76}.cls-6{fill:#fff}.cls-7{fill:#1770a3}.cls-8{fill:#f7efe5}.cls-9{fill:#bababa}.cls-11{fill:#ffbfc5}.cls-14{fill:#f7f8f8}.cls-15{fill:#2b2b2b}
        </style>
    </defs>
    <g id="그룹_3026" data-name="그룹 3026" transform="translate(107.986 153.06)">
        <path id="패스_7379" data-name="패스 7379" class="cls-2" d="M346.556-212.706s3.667 6.77 11.68 6.247c0 0 3.612 7.146 10.078 5.624s8.223-5.79 8.223-5.79c-11.289-10.866-17.838-.711-17.838-.711-7.491-2.031-9.58-7.766-9.58-7.766z" transform="translate(-345.814 216.148)"/>
        <path id="패스_7380" data-name="패스 7380" class="cls-3" d="M366.791-199.671c-4.863 0-7.875-4.518-8.64-5.818-8.041.319-11.827-6.506-11.865-6.577l-.219-.4 3.553-3.322.311.841a13.475 13.475 0 0 0 8.781 7.284 10.658 10.658 0 0 1 7-4.157c3.642-.425 7.517 1.3 11.491 5.126l.291.279-.153.375c-.077.185-1.949 4.568-8.637 6.143a8.347 8.347 0 0 1-1.913.226zm-7.755-6.67c.287.551 3.618 6.648 9.4 5.283 5.054-1.192 7.063-4.069 7.629-5.085-3.586-3.352-7.026-4.867-10.2-4.5a9.7 9.7 0 0 0-6.41 3.985l-.237.364zm-11.469-5.9a12.061 12.061 0 0 0 10.336 5.572 14.762 14.762 0 0 1-8.728-7.075z" transform="translate(-346.067 215.791)"/>
    </g>
    <g id="그룹_3027" data-name="그룹 3027" transform="translate(106.337 151.714)">
        <path id="패스_7381" data-name="패스 7381" class="cls-4" d="M349.935-214.287s2.089 5.736 9.58 7.769c0 0 2.778-4.312 7.839-4.312 2.705 0 6.064 1.234 10 5.021 0 0-1.757 4.268-8.223 5.79a7.746 7.746 0 0 1-1.788.213c-5.34 0-8.289-5.838-8.289-5.838-.3.021-.589.03-.876.03a12.848 12.848 0 0 1-10.8-6.275l2.563-2.4m0-2.39a2.388 2.388 0 0 0-1.632.645l-2.564 2.4a2.389 2.389 0 0 0-.469 2.885c.164.3 4.04 7.278 12.457 7.52 1.409 2.074 4.643 5.815 9.615 5.815a10.2 10.2 0 0 0 2.336-.276c7.574-1.784 9.794-6.987 9.885-7.207a2.391 2.391 0 0 0-.553-2.633c-3.922-3.774-7.845-5.689-11.657-5.69a11.949 11.949 0 0 0-8.648 3.926 11.479 11.479 0 0 1-6.525-5.809 2.391 2.391 0 0 0-1.69-1.508 2.468 2.468 0 0 0-.556-.065" transform="translate(-344.981 216.677)"/>
    </g>
    <g id="그룹_3028" data-name="그룹 3028" transform="translate(120.51 157.402)">
        <path id="패스_7382" data-name="패스 7382" d="M354.316-207.391s3.373 6.988 9.84 5.464 8.37-5.822 8.37-5.822c-11.288-10.866-17.382-1.268-17.382-1.268z" transform="translate(-354.316 212.931)" style="fill:#9ee630"/>
    </g>
    <g id="그룹_3029" data-name="그룹 3029" transform="translate(118.119 155.012)">
        <path id="패스_7383" data-name="패스 7383" class="cls-4" d="M363.179-212.115c2.681 0 6.084 1.256 10.163 5.182 0 0-1.9 4.3-8.372 5.824a7.951 7.951 0 0 1-1.816.217c-5.279 0-8.022-5.683-8.022-5.683l.827-1.626a9.078 9.078 0 0 1 7.219-3.914m0-2.39a11.5 11.5 0 0 0-9.238 5.024 2.246 2.246 0 0 0-.111.2l-.829 1.622a2.4 2.4 0 0 0-.021 2.124c.14.287 3.472 7.032 10.175 7.032a10.332 10.332 0 0 0 2.365-.281c7.535-1.775 9.911-6.961 10.008-7.181a2.392 2.392 0 0 0-.527-2.69c-4.034-3.882-8.012-5.85-11.822-5.85" transform="translate(-352.741 214.505)"/>
    </g>
    <g id="그룹_3030" data-name="그룹 3030" transform="translate(120.034 161.006)">
        <path id="패스_7384" data-name="패스 7384" class="cls-4" d="M362.823-206.546c-3.607 0-7.588-.744-8.59-2.11a1.2 1.2 0 0 1 .258-1.67 1.2 1.2 0 0 1 1.65.229c.875.78 7.773 1.848 10.864.63a1.2 1.2 0 0 1 1.552.673 1.2 1.2 0 0 1-.674 1.55 15.014 15.014 0 0 1-5.06.7m-6.668-3.531.008.011-.008-.011" transform="translate(-354.002 210.557)"/>
    </g>
    <g id="그룹_3031" data-name="그룹 3031" transform="translate(38.168 82.418)">
        <path id="패스_7385" data-name="패스 7385" class="cls-2" d="M302.892-236.939c-2.2 10.772-5.1 38.449 5.4 62.268a5.024 5.024 0 0 0 2.479 2.542c2.54 1.171 7.877 2.487 17.1-.1a5.161 5.161 0 0 0 3.709-4.353l.357-2.95c.351-2.894 3.02-6.427 5.9-5.983.041 0 .082.012.125.018a5.175 5.175 0 0 1 4.25 3.827l1.842 8.655a5.127 5.127 0 0 0 3.346 3.615 33.786 33.786 0 0 0 10.243 1.225c6.657 0 10.74-1.585 12.913-2.821a5.106 5.106 0 0 0 2.446-3.39 149.214 149.214 0 0 0-.334-59.019 118.156 118.156 0 0 0-7.963-23.455l-56.288 2.575a170.472 170.472 0 0 0-5.528 17.344" transform="translate(-299.717 262.695)"/>
        <path id="패스_7386" data-name="패스 7386" class="cls-3" d="M358.011-166.7a35.484 35.484 0 0 1-10.584-1.28 6.186 6.186 0 0 1-4.078-4.385l-1.851-8.7a4.052 4.052 0 0 0-3.336-2.968 3 3 0 0 0-2.28.659 6.932 6.932 0 0 0-2.493 4.351l-.357 2.947a6.234 6.234 0 0 1-4.5 5.28c-9.222 2.584-14.8 1.447-17.857.038a6.11 6.11 0 0 1-3.026-3.1c-12.161-27.591-6.188-59.394-5.469-62.93l.011-.047a173.174 173.174 0 0 1 5.569-17.475 1.1 1.1 0 0 1 .975-.7l54.615-2.5-1.583-3.232a1.075 1.075 0 0 1-.112-.483 1.1 1.1 0 0 1 .616-.988 1.1 1.1 0 0 1 1.47.5l2.321 4.737c5.22 10.659 8.024 23.58 8.051 23.709a150.593 150.593 0 0 1 .336 59.479 6.21 6.21 0 0 1-2.979 4.116c-2.381 1.362-6.644 2.972-13.459 2.972zM337.7-186.274a4.286 4.286 0 0 1 .667.052 6.3 6.3 0 0 1 5.271 4.658l1.851 8.7a3.981 3.981 0 0 0 2.617 2.8 32.731 32.731 0 0 0 9.9 1.172c6.334 0 10.222-1.456 12.367-2.677a4.008 4.008 0 0 0 1.916-2.663 148.267 148.267 0 0 0-.337-58.572 119.27 119.27 0 0 0-7.552-22.546l-54.841 2.508a168.965 168.965 0 0 0-5.227 16.523c-.727 3.578-6.531 34.672 5.329 61.581a3.925 3.925 0 0 0 1.934 1.987c2.229 1.025 7.312 2.371 16.344-.158a4.038 4.038 0 0 0 2.912-3.428l.357-2.947a9.176 9.176 0 0 1 3.349-5.839 5.209 5.209 0 0 1 3.143-1.151z" transform="translate(-300.08 262.32)"/>
    </g>
    <g id="그룹_3032" data-name="그룹 3032" transform="translate(47.294 165.504)">
        <path id="패스_7387" data-name="패스 7387" class="cls-6" d="M306.816-201.564s-.123-5.306 3.578-5.306 4.321 7.467 4.321 7.467a12.475 12.475 0 0 1-4.567-.679c-2.716-.864-3.332-1.482-3.332-1.482" transform="translate(-305.715 207.969)"/>
        <path id="패스_7388" data-name="패스 7388" class="cls-3" d="M314.623-197.912a14.905 14.905 0 0 1-4.433-.747c-2.756-.876-3.588-1.562-3.777-1.751a1.1 1.1 0 0 1-.32-.753c-.009-.345-.029-3.431 1.719-5.218a4.032 4.032 0 0 1 2.959-1.213c4.583 0 5.346 7.608 5.415 8.475a1.1 1.1 0 0 1-.985 1.186c-.026.001-.228.021-.578.021zm-6.314-3.855a15.03 15.03 0 0 0 2.548 1.011 13.548 13.548 0 0 0 2.979.609c-.387-2.227-1.379-5.247-3.065-5.247a1.818 1.818 0 0 0-1.383.545 5.312 5.312 0 0 0-1.079 3.082z" transform="translate(-306.091 207.594)"/>
    </g>
    <g id="그룹_3033" data-name="그룹 3033" transform="translate(58.059 165.364)">
        <path id="패스_7389" data-name="패스 7389" class="cls-6" d="M313.926-199.455a25.024 25.024 0 0 0 7.943-1.479s-.627-6.48-4.987-6c-3.372.369-2.956 7.48-2.956 7.48" transform="translate(-312.805 208.063)"/>
        <path id="패스_7390" data-name="패스 7390" class="cls-3" d="M314.348-197.978h-.059a1.1 1.1 0 0 1-1.084-1.035c-.049-.834-.352-8.168 3.934-8.639a4.493 4.493 0 0 1 3.448.99c2.332 1.895 2.737 5.835 2.754 6a1.1 1.1 0 0 1-.72 1.14 26.133 26.133 0 0 1-8.273 1.544zm3.358-7.506a3.05 3.05 0 0 0-.328.018c-1.456.159-1.937 3.156-1.99 5.242a25.052 25.052 0 0 0 5.625-1.076 6.762 6.762 0 0 0-1.817-3.66 2.282 2.282 0 0 0-1.49-.524z" transform="translate(-313.182 207.686)"/>
    </g>
    <g id="그룹_3034" data-name="그룹 3034" transform="translate(84.059 167.651)">
        <path id="패스_7391" data-name="패스 7391" class="cls-6" d="M331.032-199.231s.284-6.225 3.987-6.225 4.353 7.775 4.353 7.775a24.921 24.921 0 0 1-5.062-.372 14.2 14.2 0 0 1-3.278-1.178" transform="translate(-329.932 206.555)"/>
        <path id="패스_7392" data-name="패스 7392" class="cls-3" d="M339.065-196.193a27.259 27.259 0 0 1-4.57-.4 15.352 15.352 0 0 1-3.588-1.281 1.1 1.1 0 0 1-.6-1.031c.123-2.7 1.333-7.274 5.086-7.274 4.582 0 5.373 7.883 5.447 8.783a1.1 1.1 0 0 1-.266.814 1.108 1.108 0 0 1-.771.375c-.029 0-.294.014-.738.014zm-6.486-3.328a11.064 11.064 0 0 0 2.3.761 25.179 25.179 0 0 0 3.624.358c-.387-2.34-1.4-5.578-3.1-5.578-1.996 0-2.634 3.038-2.823 4.459z" transform="translate(-330.307 206.18)"/>
    </g>
    <g id="그룹_3035" data-name="그룹 3035" transform="translate(96.022 167.919)">
        <path id="패스_7393" data-name="패스 7393" class="cls-6" d="M338.926-197.581a33.183 33.183 0 0 0 8.063-1.325s-.711-6.826-5.071-6.348c-3.37.367-2.992 7.673-2.992 7.673" transform="translate(-337.81 206.38)"/>
        <path id="패스_7394" data-name="패스 7394" class="cls-3" d="M339.3-196.105a1.1 1.1 0 0 1-1.1-1.042c-.044-.855-.31-8.358 3.97-8.825a4.421 4.421 0 0 1 3.378.975c2.423 1.955 2.888 6.176 2.906 6.354a1.1 1.1 0 0 1-.786 1.169 34.036 34.036 0 0 1-8.359 1.369zm3.419-7.7a2.656 2.656 0 0 0-.307.018c-1.464.159-1.96 3.264-2.022 5.42a34.118 34.118 0 0 0 5.727-.963 7.342 7.342 0 0 0-1.951-3.961 2.237 2.237 0 0 0-1.444-.509z" transform="translate(-338.187 206.004)"/>
    </g>
    <g id="그룹_3036" data-name="그룹 3036" transform="translate(30.859 128.517)">
        <path id="패스_7395" data-name="패스 7395" class="cls-2" d="M313.689-226.629s2.417 11.889-1.785 12.665-4.218-3.7-4.218-3.7.858 6.588-6.547 5.888-5.271-13.234-3.068-19.456" transform="translate(-294.889 232.332)"/>
        <path id="패스_7396" data-name="패스 7396" class="cls-3" d="M302.579-210.248q-.563 0-1.168-.058a5.877 5.877 0 0 1-4.623-2.78c-2.944-4.612-.993-13.571.624-18.138a1.1 1.1 0 0 1 1.4-.67 1.1 1.1 0 0 1 .67 1.4c-1.6 4.535-3.155 12.6-.843 16.221a3.734 3.734 0 0 0 2.977 1.773c1.974.187 3.419-.176 4.3-1.081a4.616 4.616 0 0 0 1.075-3.231 4.752 4.752 0 0 1-.029-.477 1.1 1.1 0 0 1 1.028-1.1 1.1 1.1 0 0 1 1.163.955c0 .029.024.2.033.465a3.151 3.151 0 0 0 .9 1.972 2.335 2.335 0 0 0 1.993.323 1.132 1.132 0 0 0 .762-.553c1.31-1.94.785-7.661.146-10.813a1.1 1.1 0 0 1 .859-1.3 1.106 1.106 0 0 1 1.3.859c.188.926 1.775 9.143-.478 12.48a3.356 3.356 0 0 1-2.186 1.486 4.442 4.442 0 0 1-3.8-.8c-.064-.055-.126-.108-.184-.162a5.517 5.517 0 0 1-.984 1.409 6.553 6.553 0 0 1-4.935 1.82z" transform="translate(-295.266 231.957)"/>
    </g>
    <g id="그룹_3037" data-name="그룹 3037" transform="translate(46.264 90.527)">
        <path id="패스_7397" data-name="패스 7397" class="cls-6" d="M308.145-203.787a134.432 134.432 0 0 1 42.433 2.581l-6.878-53.329-27.238-1.72-10.321 52.181" transform="translate(-305.037 257.355)"/>
        <path id="패스_7398" data-name="패스 7398" class="cls-3" d="M350.954-199.731a1.084 1.084 0 0 1-.251-.029 134.481 134.481 0 0 0-42.046-2.56 1.1 1.1 0 0 1-1.2-.812 1.1 1.1 0 0 1-1.157.513 1.1 1.1 0 0 1-.865-1.292l10.322-52.181a1.1 1.1 0 0 1 1.148-.885l27.237 1.72a1.1 1.1 0 0 1 1.022.956l6.881 53.329a1.1 1.1 0 0 1-.354.956 1.094 1.094 0 0 1-.737.285zm-29.522-5.411a134.369 134.369 0 0 1 28.23 2.891L343.1-253.12l-25.371-1.6-10 50.548a1.1 1.1 0 0 1 .653-.329 117.482 117.482 0 0 1 13.05-.641z" transform="translate(-305.413 256.979)"/>
    </g>
    <g id="그룹_3038" data-name="그룹 3038" transform="translate(30.947 127.466)">
        <path id="패스_7399" data-name="패스 7399" class="cls-7" d="m314.139-228.482-.2 6.146s-4.034 2.226-10.394.49-7.491-2.432-7.491-2.432l.78-7.647z" transform="translate(-294.949 233.023)"/>
        <path id="패스_7400" data-name="패스 7400" class="cls-3" d="M308.683-219.708a19.175 19.175 0 0 1-5.056-.7c-6.2-1.691-7.568-2.428-7.779-2.557a1.1 1.1 0 0 1-.518-1.048l.78-7.649a1.1 1.1 0 0 1 .44-.771 1.108 1.108 0 0 1 .868-.194l17.309 3.443a1.1 1.1 0 0 1 .885 1.114l-.2 6.146a1.1 1.1 0 0 1-.568.926 13.537 13.537 0 0 1-6.161 1.29zM297.6-224.58a68.847 68.847 0 0 0 6.607 2.05 14.666 14.666 0 0 0 9.027-.158l.15-4.521-15.208-3.026z" transform="translate(-295.324 232.649)"/>
    </g>
    <g id="그룹_3039" data-name="그룹 3039" transform="translate(28.89 89.731)">
        <path id="패스_7401" data-name="패스 7401" class="cls-8" d="M311.575-256.779s13.743 3.978 11.891 22.225a129.842 129.842 0 0 0-3.812 13.243s-1.5 7.111-5.443 7.612c0 0-10.995-.178-16.128-4.679s-4.653-11.707 2.927-25.893c6.674-12.487 10.565-12.509 10.565-12.509" transform="translate(-293.594 257.878)"/>
        <path id="패스_7402" data-name="패스 7402" class="cls-3" d="M314.586-212.224h-.018c-.466-.008-11.461-.238-16.836-4.951-5.742-5.036-4.965-12.928 2.684-27.238 6.645-12.436 10.769-13.086 11.528-13.09.1.026.21.014.311.042.147.043 14.6 4.453 12.679 23.393a1.066 1.066 0 0 1-.056.255A129.241 129.241 0 0 0 321.1-220.7c-.169.8-1.788 7.886-6.38 8.467a1.056 1.056 0 0 1-.134.009zm-2.7-43.046c-.718.229-4.137 1.81-9.527 11.892-7.063 13.219-7.983 20.331-3.172 24.55 4.542 3.982 14.338 4.374 15.339 4.4 2.546-.407 4.06-4.989 4.43-6.738a132.051 132.051 0 0 1 3.806-13.256c1.55-15.863-9.076-20.225-10.88-20.848z" transform="translate(-293.969 257.503)"/>
    </g>
    <g id="그룹_3040" data-name="그룹 3040" transform="translate(35.392 86.644)">
        <path id="패스_7403" data-name="패스 7403" class="cls-7" d="M327.085-257.627s-5.224 32.874-3.223 59.12c0 0-16.163-1.166-22.523 2.491 0 0-3.407-3.216-2.036-8.967s6.03-42.1 10.061-52.183c0 0 7.394-3.366 17.721-.461" transform="translate(-297.875 259.914)"/>
        <path id="패스_7404" data-name="패스 7404" class="cls-3" d="M301.715-194.539a1.1 1.1 0 0 1-.755-.3c-.158-.149-3.853-3.726-2.35-10.022.407-1.706 1.125-6.266 2.034-12.041 2.078-13.2 5.223-33.158 8.075-40.3a1.1 1.1 0 0 1 .565-.592c.317-.144 7.88-3.5 18.474-.519a1.1 1.1 0 0 1 .788 1.231c-.052.328-5.18 33.052-3.211 58.863a1.106 1.106 0 0 1-.317.861 1.131 1.131 0 0 1-.859.32c-.158-.011-15.9-1.1-21.894 2.347a1.1 1.1 0 0 1-.55.152zm8.879-61.4c-2.718 7.271-5.754 26.543-7.778 39.386-.917 5.821-1.64 10.418-2.066 12.208a8.694 8.694 0 0 0 1.236 7.335c5.886-2.757 17.247-2.47 21.067-2.283-1.564-23.312 2.347-51.554 3.173-57.14a27.306 27.306 0 0 0-15.632.489z" transform="translate(-298.252 259.537)"/>
    </g>
    <g id="그룹_3041" data-name="그룹 3041" transform="translate(69.723 85.019)">
        <path id="패스_7405" data-name="패스 7405" class="cls-7" d="m321.588-255.2 4.014 56.6s22.552 3.229 41.586-.077c0 0 9.238-1.966 4.442-15.3-5.051-14.044-13.984-45.9-13.984-45.9z" transform="translate(-320.489 260.983)"/>
        <path id="패스_7406" data-name="패스 7406" class="cls-3" d="M348.063-195.73a177.073 177.073 0 0 1-22.24-1.41 1.1 1.1 0 0 1-.943-1.01l-4.013-56.6a1.1 1.1 0 0 1 .955-1.169l36.056-4.679a1.1 1.1 0 0 1 1.2.794c.09.319 8.98 31.978 13.962 45.825 1.866 5.188 1.93 9.4.19 12.528a8.822 8.822 0 0 1-5.438 4.219 117.66 117.66 0 0 1-19.729 1.502zm-21.052-3.47c4.327.54 23.821 2.687 40.364-.188a6.582 6.582 0 0 0 3.952-3.164c1.4-2.543 1.278-6.137-.357-10.681-4.527-12.585-12.245-39.73-13.751-45.058l-34.084 4.423z" transform="translate(-320.864 260.607)"/>
    </g>
    <g id="그룹_3042" data-name="그룹 3042" transform="translate(73.165 146.297)">
        <path id="패스_7407" data-name="패스 7407" class="cls-7" d="m324.427-219.52-.571 9.38s22.078 6.855 41.552-.26l.244-8.408s-22.379 1.895-41.226-.712" transform="translate(-322.756 220.621)"/>
        <path id="패스_7408" data-name="패스 7408" class="cls-3" d="M345.828-205.67a80.838 80.838 0 0 1-21.923-3.044 1.1 1.1 0 0 1-.771-1.117l.571-9.38a1.1 1.1 0 0 1 .4-.785 1.094 1.094 0 0 1 .847-.238c18.5 2.56 40.76.724 40.983.706a1.1 1.1 0 0 1 .847.3 1.1 1.1 0 0 1 .345.832l-.244 8.408a1.1 1.1 0 0 1-.723 1 59.511 59.511 0 0 1-20.332 3.318zm-20.446-4.911c4.1 1.11 22.7 5.537 39.323-.226l.187-6.437c-4.84.337-23.094 1.385-39.064-.654z" transform="translate(-323.132 220.245)"/>
    </g>
    <g id="그룹_3043" data-name="그룹 3043" transform="translate(66.073 98.531)">
        <path id="패스_7409" data-name="패스 7409" class="cls-6" d="m378.043-204.7-55.928-4.319c-2.009-.178-3.818-.955-3.642-2.964l3.187-36.381a3.677 3.677 0 0 1 3.973-3.332l56.1 4.914a3.676 3.676 0 0 1 3.332 3.972l-3.046 34.778a3.677 3.677 0 0 1-3.973 3.333" transform="translate(-318.46 251.707)"/>
    </g>
    <g id="그룹_3044" data-name="그룹 3044" transform="translate(64.878 97.336)">
        <path id="패스_7410" data-name="패스 7410" class="cls-4" d="M378.775-203.079c-.14 0-.281-.006-.424-.017l-55.922-4.322a6.675 6.675 0 0 1-3.223-1 3.434 3.434 0 0 1-1.517-3.258l3.185-36.381a4.829 4.829 0 0 1 1.723-3.3 4.853 4.853 0 0 1 3.547-1.122l56.1 4.914a4.868 4.868 0 0 1 4.418 5.268l-3.046 34.778a4.835 4.835 0 0 1-1.723 3.3 4.827 4.827 0 0 1-3.115 1.14m-53.06-47.021a2.455 2.455 0 0 0-1.585.581 2.454 2.454 0 0 0-.876 1.673l-3.187 36.383a1.048 1.048 0 0 0 .487 1.079 4.493 4.493 0 0 0 2.069.588l55.915 4.321h.014a2.433 2.433 0 0 0 1.8-.572 2.452 2.452 0 0 0 .876-1.675l3.047-34.778a2.463 2.463 0 0 0-.572-1.8 2.454 2.454 0 0 0-1.675-.878l-56.1-4.913a2.66 2.66 0 0 0-.217-.009" transform="translate(-317.673 252.494)"/>
    </g>
    <g id="그룹_3045" data-name="그룹 3045" transform="translate(68.377 99.278)">
        <path id="패스_7411" data-name="패스 7411" class="cls-6" d="m379.423-204.2-56.1-4.913a3.679 3.679 0 0 1-3.334-3.973l3.047-34.778a3.677 3.677 0 0 1 3.973-3.334l56.1 4.914a3.677 3.677 0 0 1 3.332 3.973l-3.047 34.776a3.676 3.676 0 0 1-3.972 3.334" transform="translate(-319.978 251.215)"/>
    </g>
    <g id="그룹_3046" data-name="그룹 3046" transform="translate(67.182 98.081)">
        <path id="패스_7412" data-name="패스 7412" class="cls-4" d="M380.152-202.586a5.58 5.58 0 0 1-.427-.017l-56.1-4.916a4.868 4.868 0 0 1-4.42-5.267l3.047-34.779a4.868 4.868 0 0 1 5.267-4.42l56.1 4.916a4.866 4.866 0 0 1 4.42 5.267l-3.047 34.779a4.867 4.867 0 0 1-4.84 4.436m-.219-2.4a2.465 2.465 0 0 0 2.678-2.247l3.046-34.779a2.472 2.472 0 0 0-2.247-2.677l-56.1-4.913a2.462 2.462 0 0 0-2.678 2.247l-3.046 34.776a2.472 2.472 0 0 0 2.245 2.678z" transform="translate(-319.191 252.003)"/>
    </g>
    <g id="그룹_3047" data-name="그룹 3047" transform="translate(73.923 118.49)">
        <path id="패스_7413" data-name="패스 7413" class="cls-9" d="m324.853-235.7-.164 1.606-1.058-.081.446-4.388 1.8.137a.861.861 0 0 1 .909 1.054l-.1 1.02c-.082.662-.289 1.09-1.1.855zm.087-.853.4.1c.214.053.3.023.325-.188l.059-.591a.3.3 0 0 0-.317-.367l-.358-.029z" transform="translate(-323.631 238.561)"/>
    </g>
    <g id="그룹_3048" data-name="그룹 3048" transform="translate(77.102 118.726)">
        <path id="패스_7414" data-name="패스 7414" class="cls-9" d="m328.889-238.191-.355 3.469c-.076.747-.733.969-1.5.908s-1.376-.375-1.3-1.122l.352-3.469 1.064.08-.337 3.31c-.02.19.109.3.308.317a.3.3 0 0 0 .367-.266l.337-3.31z" transform="translate(-325.725 238.405)"/>
    </g>
    <g id="그룹_3049" data-name="그룹 3049" transform="translate(80.312 118.973)">
        <path id="패스_7415" data-name="패스 7415" class="cls-9" d="m330.742-235.216-.067.659c-.076.745-.735.967-1.506.906s-1.4-.377-1.324-1.123l.26-2.552c.077-.747.735-.966 1.506-.908s1.375.376 1.3 1.122l-.052.5-1.06-.08.035-.342c.02-.19-.115-.3-.313-.319a.31.31 0 0 0-.373.266l-.228 2.232c-.02.19.117.3.314.319a.311.311 0 0 0 .373-.267l.05-.5z" transform="translate(-327.839 238.243)"/>
    </g>
    <g id="그룹_3050" data-name="그룹 3050" transform="translate(83.448 119.214)">
        <path id="패스_7416" data-name="패스 7416" class="cls-9" d="M330.171-237.169c.076-.745.733-.966 1.506-.906s1.376.375 1.3 1.122l-.261 2.551c-.076.748-.735.967-1.5.909s-1.377-.377-1.3-1.124zm.806 2.472c-.021.191.124.305.322.32a.321.321 0 0 0 .384-.266l.226-2.23c.021-.19-.126-.305-.322-.32a.32.32 0 0 0-.384.267z" transform="translate(-329.905 238.084)"/>
    </g>
    <g id="그룹_3051" data-name="그룹 3051" transform="translate(37.756 146.586)">
        <path id="패스_7417" data-name="패스 7417" class="cls-7" d="m300.533-216.475 1.8 8.542s14.394-3.789 20.51-2.256l.214-8.778s-13.707-1.746-22.523 2.493" transform="translate(-299.433 220.434)"/>
        <path id="패스_7418" data-name="패스 7418" class="cls-3" d="M302.707-206.456a1.1 1.1 0 0 1-.577-.164 1.1 1.1 0 0 1-.5-.709l-1.8-8.542a1.1 1.1 0 0 1 .6-1.218c9.006-4.33 22.567-2.664 23.139-2.593a1.1 1.1 0 0 1 .96 1.119l-.214 8.777a1.1 1.1 0 0 1-.433.849 1.1 1.1 0 0 1-.934.191c-5.772-1.447-19.82 2.217-19.962 2.253a1.106 1.106 0 0 1-.279.037zm-.54-9 1.382 6.559c3.288-.8 12.925-2.951 18.6-2.224l.158-6.474c-3.136-.287-13.083-.872-20.14 2.136z" transform="translate(-299.809 220.055)"/>
    </g>
    <g id="그룹_3052" data-name="그룹 3052" transform="translate(97.101 127.813)">
        <path id="패스_7419" data-name="패스 7419" class="cls-2" d="M341.234-228.974s-3.809 11.517.272 12.788 4.625-3.176 4.625-3.176-1.632 6.44 5.806 6.622 6.8-12.516 5.35-18.955" transform="translate(-338.523 232.796)"/>
        <path id="패스_7420" data-name="패스 7420" class="cls-3" d="M352.47-211.262h-.187c-2.69-.065-4.658-.894-5.847-2.463a5.527 5.527 0 0 1-.809-1.515 7.823 7.823 0 0 1-.2.14 4.433 4.433 0 0 1-3.873.342 3.351 3.351 0 0 1-1.992-1.734c-1.842-3.581.707-11.552 1-12.449a1.1 1.1 0 0 1 1.389-.7 1.1 1.1 0 0 1 .7 1.389c-1.008 3.052-2.208 8.671-1.137 10.754a1.137 1.137 0 0 0 .691.639 2.354 2.354 0 0 0 2.018-.085 3.147 3.147 0 0 0 1.127-1.857c.041-.263.082-.425.088-.454a1.1 1.1 0 0 1 1.269-.811 1.1 1.1 0 0 1 .888 1.215c-.008.061-.03.231-.085.474a4.609 4.609 0 0 0 .686 3.334c.767 1 2.159 1.533 4.139 1.582a3.783 3.783 0 0 0 3.167-1.409c2.725-3.323 2.142-11.513 1.086-16.205a1.1 1.1 0 0 1 .83-1.315 1.1 1.1 0 0 1 1.315.832c1.064 4.725 1.94 13.851-1.53 18.084a5.855 5.855 0 0 1-4.733 2.212z" transform="translate(-338.897 232.42)"/>
    </g>
    <g id="그룹_3053" data-name="그룹 3053" transform="translate(97.974 126.914)">
        <path id="패스_7421" data-name="패스 7421" class="cls-7" d="m340.722-230.92-.525 6.126s3.741 2.687 10.262 1.719 7.726-1.527 7.726-1.527l.132-7.685z" transform="translate(-339.097 233.387)"/>
        <path id="패스_7422" data-name="패스 7422" class="cls-3" d="M348.036-221.388a14.566 14.566 0 0 1-8.106-2.138 1.1 1.1 0 0 1-.454-.988l.525-6.125a1.1 1.1 0 0 1 1.011-1l17.595-1.368a1.1 1.1 0 0 1 .84.3 1.1 1.1 0 0 1 .345.82l-.132 7.685a1.1 1.1 0 0 1-.639.979c-.225.1-1.67.673-8.025 1.615a19.956 19.956 0 0 1-2.96.22zm-6.31-3.626a14.671 14.671 0 0 0 8.945 1.225 68.405 68.405 0 0 0 6.8-1.251l.1-5.683-15.459 1.2z" transform="translate(-339.472 233.012)"/>
    </g>
    <g id="그룹_3054" data-name="그룹 3054" transform="translate(93.781 88.63)">
        <path id="패스_7423" data-name="패스 7423" class="cls-8" d="M350.174-257.5s-7.643.588-12.739 9.015c0 0-.029 17.8.615 24.4 0 0 .644 7.239 4.5 8.2 0 0 10.939 1.127 16.568-2.734s6.237-11.165.161-26.059c-4.992-12.235-9.108-12.823-9.108-12.823" transform="translate(-336.335 258.604)"/>
        <path id="패스_7424" data-name="패스 7424" class="cls-3" d="M346.593-214.256c-2.119 0-3.612-.146-3.777-.164a.88.88 0 0 1-.153-.027c-4.489-1.122-5.261-8.352-5.333-9.173-.641-6.563-.619-23.766-.618-24.495a1.083 1.083 0 0 1 .159-.568c5.327-8.81 13.26-9.516 13.594-9.544a1.4 1.4 0 0 1 .24.008c.486.07 4.887 1.037 9.972 13.5 6.032 14.786 5.866 22.974-.557 27.38-3.798 2.602-9.69 3.083-13.527 3.083zm-3.471-2.344c1 .09 10.77.862 15.752-2.554 3.809-2.613 6.759-7.594-.235-24.736-4.13-10.124-7.55-11.876-8.186-12.123-1.151.149-7.2 1.247-11.543 8.209 0 2.394.026 17.988.609 23.98.162 1.789 1.123 6.518 3.604 7.224z" transform="translate(-336.711 258.228)"/>
    </g>
    <g id="그룹_3055" data-name="그룹 3055" transform="translate(45.617 101.799)">
        <path id="패스_7425" data-name="패스 7425" d="M316.186-242.315c-.367 3.679-3.162 6.411-6.243 6.1s-5.282-3.537-4.916-7.215 3.162-6.41 6.245-6.1 5.282 3.539 4.914 7.216" transform="translate(-304.987 249.554)" style="fill:#e9f2f4"/>
    </g>
    <g id="그룹_3056" data-name="그룹 3056" transform="translate(0 4.994)">
        <path id="패스_7426" data-name="패스 7426" class="cls-2" d="M318.131-300.115s-5.637-14.964-26.066-12.12c-18.709 2.6-19.045 28.693-12.629 38.765a29.931 29.931 0 0 0-.2 27.969c7.643 15.419 30.862 17.242 38.268-1.848" transform="translate(-274.56 313.691)"/>
        <path id="패스_7427" data-name="패스 7427" class="cls-3" d="M298.8-232.01a22.587 22.587 0 0 1-20.171-12.629 30.994 30.994 0 0 1-.087-28.441c-3.859-6.641-5.283-19.221-.888-28.74 2.936-6.357 8-10.206 14.642-11.13 10.96-1.529 17.774 2.01 21.56 5.245a20.555 20.555 0 0 1 5.686 7.576 1.1 1.1 0 0 1-.639 1.413 1.1 1.1 0 0 1-1.418-.636c-.22-.577-5.62-14.1-24.885-11.422a16.368 16.368 0 0 0-12.947 9.875c-4.083 8.841-2.73 21.208 1.095 27.211a1.1 1.1 0 0 1 .006 1.174 29.1 29.1 0 0 0-.153 26.9 20.34 20.34 0 0 0 19.1 11.387c7.8-.352 14.053-5.142 17.156-13.143a1.1 1.1 0 0 1 1.424-.627 1.1 1.1 0 0 1 .627 1.423c-3.384 8.721-10.526 14.157-19.108 14.545q-.5.019-1 .019z" transform="translate(-274.94 313.317)"/>
    </g>
    <g id="그룹_3057" data-name="그룹 3057" transform="translate(10.046 18.114)">
        <path id="패스_7428" data-name="패스 7428" class="cls-11" d="M308.651-296.349s-3.894-10.3-16.975-7.989c-11.977 2.11-11.718 20.224-7.41 27.111a22.221 22.221 0 0 0 .378 19.417c5.192 10.58 20.15 11.47 24.563-1.9" transform="translate(-281.558 304.675)"/>
    </g>
    <g id="그룹_3058" data-name="그룹 3058" transform="translate(26.212)">
        <path id="패스_7429" data-name="패스 7429" class="cls-2" d="M337.335-222.933c35.038.427 46.491-14.385 49.819-24.964 2.487-7.9.591-13.482.591-13.482 0-46.99-30.3-54.5-48-54.5-16.459 0-46.1 7.512-46.1 54.031a45.585 45.585 0 0 0-.537 11.842c.694 7.315 5.129 26.6 44.232 27.076" transform="translate(-291.829 316.981)"/>
        <path id="패스_7430" data-name="패스 7430" class="cls-3" d="M339.192-221.45c-.495 0-.99 0-1.5-.011-37.148-.452-44.335-17.78-45.314-28.07a46.552 46.552 0 0 1 .534-12.052c.049-49.656 33.02-55.023 47.2-55.023 14.748 0 49.028 5.4 49.1 55.435.32 1.075 1.7 6.537-.641 13.978-3.035 9.671-13.503 25.742-49.379 25.743zm.925-92.958c-13.53 0-45 5.159-45 52.931a1.041 1.041 0 0 1-.021.217 44.867 44.867 0 0 0-.521 11.522c2.115 22.259 27.943 25.893 43.151 26.079 35.674.431 45.855-14.971 48.756-24.193 2.337-7.421.615-12.747.6-12.8a1.109 1.109 0 0 1-.058-.351c-.003-46.466-29.39-53.405-46.907-53.405z" transform="translate(-292.205 316.606)"/>
    </g>
    <g id="그룹_3059" data-name="그룹 3059" transform="translate(64.654 69.098)">
        <path id="패스_7431" data-name="패스 7431" class="cls-4" d="M328.122-266.268c-7.294 0-10.152-2.933-10.322-3.115a1.016 1.016 0 0 1 .05-1.438 1.019 1.019 0 0 1 1.432.043c.091.093 5.646 5.47 21.654.027a1.016 1.016 0 0 1 1.29.636 1.018 1.018 0 0 1-.636 1.29 42.166 42.166 0 0 1-13.468 2.557" transform="translate(-317.526 271.094)"/>
    </g>
    <g id="그룹_3060" data-name="그룹 3060" transform="translate(67.081 72.989)">
        <path id="패스_7432" data-name="패스 7432" d="M319.183-268.531a23.66 23.66 0 0 0 16.33.293s-.424 9.257-8.983 9.056-7.347-9.349-7.347-9.349" transform="translate(-319.124 268.531)" style="fill:#cf7575"/>
    </g>
    <g id="그룹_3061" data-name="그룹 3061" transform="translate(65.049 70.956)">
        <path id="패스_7433" data-name="패스 7433" class="cls-4" d="M319.877-267.837a23.174 23.174 0 0 0 8.664 1.612 22.568 22.568 0 0 0 7.664-1.319s-.413 9.059-8.709 9.059h-.273c-8.56-.2-7.347-9.351-7.347-9.351M319.88-269.87a2.054 2.054 0 0 0-1 .26 2.035 2.035 0 0 0-1.022 1.506c-.029.211-.653 5.209 2.274 8.63a9.1 9.1 0 0 0 7.042 3.021h.32a9.809 9.809 0 0 0 9.282-5.649 14.737 14.737 0 0 0 1.453-5.241 1.821 1.821 0 0 0 .009-.2 2.032 2.032 0 0 0-2.021-2.034h-.085a2.039 2.039 0 0 0-.662.134 20.479 20.479 0 0 1-6.932 1.184 21.56 21.56 0 0 1-7.838-1.441 2.024 2.024 0 0 0-.823-.175" transform="translate(-317.786 269.87)"/>
    </g>
    <g id="그룹_3065" data-name="그룹 3065" transform="translate(67.081 72.99)">
        <g id="그룹_3064" data-name="그룹 3064" style="clip-path:url(#clip-path)">
            <g id="그룹_3062" data-name="그룹 3062" transform="translate(-.082 4.607)">
                <path id="패스_7434" data-name="패스 7434" class="cls-11" d="M319.07-263.914a14.137 14.137 0 0 1 7.275-1.576 16.583 16.583 0 0 1 7.655 2.014s-1.86 4.078-7.508 3.944a8.069 8.069 0 0 1-7.424-4.383" transform="translate(-319.07 265.495)"/>
            </g>
            <g id="그룹_3063" data-name="그룹 3063" transform="translate(-1.099 3.59)">
                <path id="패스_7435" data-name="패스 7435" class="cls-4" d="M327.115-258.162h-.3a9.031 9.031 0 0 1-8.34-5.009 1.016 1.016 0 0 1 .4-1.257 15.1 15.1 0 0 1 7.834-1.728 17.538 17.538 0 0 1 8.173 2.156 1.019 1.019 0 0 1 .393 1.289c-.087.188-2.145 4.544-8.16 4.544m-6.263-4.966a7.306 7.306 0 0 0 6.015 2.927 7.12 7.12 0 0 0 6.017-2.529 16.4 16.4 0 0 0-6.216-1.4 14.589 14.589 0 0 0-5.816 1m-1.435-.439z" transform="translate(-318.4 266.165)"/>
            </g>
        </g>
    </g>
    <g id="그룹_3066" data-name="그룹 3066" transform="translate(84.526 50.819)">
        <path id="패스_7437" data-name="패스 7437" class="cls-4" d="M340.541-277.508a5.263 5.263 0 0 1-5.036 5.47c-2.742-.042-4.93-2.561-4.89-5.627a5.261 5.261 0 0 1 5.034-5.469c2.742.042 4.931 2.563 4.892 5.625" transform="translate(-330.615 283.133)"/>
    </g>
    <g id="그룹_3067" data-name="그룹 3067" transform="translate(85.002 37.338)">
        <path id="패스_7438" data-name="패스 7438" class="cls-4" d="M338.971-288.691a1.1 1.1 0 0 1-.654-.216 4.909 4.909 0 0 0-2.737-.882 5.636 5.636 0 0 0-3.036.732 1.108 1.108 0 0 1-1.492-.481 1.107 1.107 0 0 1 .481-1.491 7.853 7.853 0 0 1 4.147-.971 7.085 7.085 0 0 1 3.949 1.31 1.109 1.109 0 0 1 .237 1.55 1.1 1.1 0 0 1-.894.452" transform="translate(-330.928 292.013)"/>
    </g>
    <g id="그룹_3068" data-name="그룹 3068" transform="translate(86.628 53.328)">
        <path id="패스_7439" data-name="패스 7439" class="cls-14" d="M334.692-280.039a1.367 1.367 0 0 1-1.391 1.348 1.377 1.377 0 0 1-1.3-1.442 1.368 1.368 0 0 1 1.391-1.347 1.375 1.375 0 0 1 1.3 1.441" transform="translate(-332 281.481)"/>
    </g>
    <g id="그룹_3069" data-name="그룹 3069" transform="translate(49.223 49.92)">
        <path id="패스_7440" data-name="패스 7440" class="cls-4" d="M317.959-277.134c-.043 3.591-2.45 6.462-5.378 6.411s-5.264-3-5.22-6.591 2.45-6.462 5.378-6.411 5.264 3 5.22 6.591" transform="translate(-307.362 283.725)"/>
    </g>
    <g id="그룹_3070" data-name="그룹 3070" transform="translate(49.662 37.338)">
        <path id="패스_7441" data-name="패스 7441" class="cls-4" d="M315.694-288.691a1.1 1.1 0 0 1-.656-.216 4.909 4.909 0 0 0-2.737-.882 5.64 5.64 0 0 0-3.036.732 1.106 1.106 0 0 1-1.491-.481 1.107 1.107 0 0 1 .48-1.491A7.853 7.853 0 0 1 312.4-292a7.09 7.09 0 0 1 3.95 1.31 1.11 1.11 0 0 1 .237 1.55 1.107 1.107 0 0 1-.894.452" transform="translate(-307.651 292.013)"/>
    </g>
    <g id="그룹_3071" data-name="그룹 3071" transform="translate(51.284 52.384)">
        <path id="패스_7442" data-name="패스 7442" class="cls-14" d="M311.412-280.661a1.372 1.372 0 0 1-1.392 1.35 1.377 1.377 0 0 1-1.3-1.444 1.366 1.366 0 0 1 1.391-1.347 1.377 1.377 0 0 1 1.3 1.441" transform="translate(-308.719 282.103)"/>
    </g>
    <g id="그룹_3072" data-name="그룹 3072" transform="translate(110.244 5.912)">
        <path id="패스_7443" data-name="패스 7443" class="cls-2" d="M348.279-299.51s5.636-14.965 26.066-12.12c18.709 2.6 19.043 28.693 12.627 38.765a29.931 29.931 0 0 1 .2 27.969c-7.643 15.419-30.862 17.242-38.268-1.849" transform="translate(-347.179 313.086)"/>
        <path id="패스_7444" data-name="패스 7444" class="cls-3" d="M368.367-231.405q-.5 0-1-.023c-8.583-.387-15.726-5.825-19.108-14.546a1.1 1.1 0 0 1 .627-1.423 1.1 1.1 0 0 1 1.423.627c3.1 8 9.358 12.793 17.157 13.145a20.372 20.372 0 0 0 19.1-11.387 29.1 29.1 0 0 0-.153-26.9 1.1 1.1 0 0 1 .006-1.174c3.826-6 5.179-18.372 1.1-27.213a16.37 16.37 0 0 0-12.947-9.872c-19.268-2.684-24.667 10.843-24.887 11.42a1.1 1.1 0 0 1-1.418.636 1.1 1.1 0 0 1-.639-1.413c.059-.158 6.187-15.753 27.248-12.821 6.642.925 11.7 4.772 14.64 11.129 4.4 9.519 2.971 22.1-.888 28.741a30.989 30.989 0 0 1-.086 28.441 22.586 22.586 0 0 1-20.175 12.633z" transform="translate(-347.554 312.712)"/>
    </g>
    <g id="그룹_3073" data-name="그룹 3073" transform="translate(118.656 19.056)">
        <path id="패스_7445" data-name="패스 7445" class="cls-11" d="M353.651-295.726s3.9-10.3 16.975-7.992c11.977 2.11 11.718 20.226 7.41 27.112a22.221 22.221 0 0 1-.378 19.417c-5.192 10.579-20.15 11.47-24.563-1.9" transform="translate(-353.095 304.055)"/>
    </g>
    <g id="그룹_3074" data-name="그룹 3074" transform="translate(40.096 60.585)">
        <path id="패스_7446" data-name="패스 7446" class="cls-6" d="M327.394-270.472a3.888 3.888 0 0 1-1.637 3.352c-3.553 2.327-11.1 5.684-21.969.577-1.23-.577-2.954-2-2.291-4 .679-2.044 2.859-.969 5.5-1.079a22.419 22.419 0 0 0 8.513-1.795c2.75-1.28 4.535-2.2 5.663-2.831a3.588 3.588 0 0 1 4.94 1.565c.156.276.314.581.471.919a8.191 8.191 0 0 1 .811 3.295" transform="translate(-301.35 276.701)"/>
    </g>
    <g id="그룹_3075" data-name="그룹 3075" transform="translate(39.041 59.124)">
        <path id="패스_7447" data-name="패스 7447" class="cls-4" d="M316.2-262.249a25.573 25.573 0 0 1-12.428-2.611 5.563 5.563 0 0 1-2.871-2.932 4.133 4.133 0 0 1-.021-2.73c.767-2.309 2.69-2.13 4.386-1.971a14.817 14.817 0 0 0 2.051.1 21.511 21.511 0 0 0 8.17-1.708 65.341 65.341 0 0 0 6.331-3.276l.261-.155a1.021 1.021 0 0 1 1.477.826v.021a1.35 1.35 0 0 1-.556 1.442l-.25.149a66.747 66.747 0 0 1-6.5 3.363 22.98 22.98 0 0 1-8.856 1.88 16.405 16.405 0 0 1-2.291-.1c-1.7-.161-2.109-.091-2.267.387a1.106 1.106 0 0 0-.006.771 3.344 3.344 0 0 0 1.7 1.573c10.6 4.981 18.577 1.283 22.2-1.169a.961.961 0 0 1 1.41.43 1.415 1.415 0 0 1-.378 1.792 23.024 23.024 0 0 1-11.563 3.926" transform="translate(-300.655 277.663)"/>
    </g>
    <g id="그룹_3076" data-name="그룹 3076" transform="translate(32.043 46.399)">
        <path id="패스_7448" data-name="패스 7448" class="cls-2" d="M331.93-283.376s-12.5 20.543-27.559-1.234a1.63 1.63 0 0 0-2.2-.466l-4.688 2.745c-.732.448-.732 1.318-.7 2.186.32 8.088 25.341 35.8 49.242 14.86" transform="translate(-295.67 286.42)"/>
        <path id="패스_7449" data-name="패스 7449" class="cls-3" d="M327.731-256.133a29.536 29.536 0 0 1-11.622-2.5c-11.338-4.873-19.848-15.979-20.05-21.09a3.2 3.2 0 0 1 1.222-3.167l4.705-2.757a2.737 2.737 0 0 1 3.663.788c4.47 6.463 9.118 9.624 13.694 9.533 7.054-.206 11.974-8.164 12.023-8.242a1.1 1.1 0 0 1 1.511-.369 1.1 1.1 0 0 1 .367 1.511c-.225.37-5.6 9.058-13.836 9.3-5.455.179-10.649-3.367-15.568-10.479a.532.532 0 0 0-.724-.153l-4.706 2.756c-.161.1-.181.533-.155 1.195.155 3.881 7.565 14.361 18.723 19.155 7.01 3.011 17.678 4.576 28.7-5.08a1.1 1.1 0 0 1 1.552.1 1.1 1.1 0 0 1-.1 1.553c-6.805 5.955-13.497 7.946-19.399 7.946z" transform="translate(-296.046 286.044)"/>
    </g>
    <g id="그룹_3077" data-name="그룹 3077" transform="translate(62.603 55.401)">
        <path id="패스_7450" data-name="패스 7450" class="cls-2" d="M316.2-279.724s5.484.378 6.864 4.684" transform="translate(-316.161 280.318)"/>
        <path id="패스_7451" data-name="패스 7451" class="cls-3" d="M322.512-274.657c-1.24-3.876-6.287-4.268-6.337-4.271l.082-1.187c.24.017 5.9.458 7.388 5.1z" transform="translate(-316.175 280.115)"/>
    </g>
    <g id="그룹_3078" data-name="그룹 3078" transform="translate(61.489 54.839)">
        <path id="패스_7452" data-name="패스 7452" class="cls-3" d="M323.459-273.489a1.152 1.152 0 0 1-1.1-.8c-1.119-3.492-5.8-3.879-5.845-3.884a1.158 1.158 0 0 1-1.07-1.236 1.157 1.157 0 0 1 1.231-1.07c.257.018 6.287.489 7.886 5.485a1.157 1.157 0 0 1-.749 1.453 1.147 1.147 0 0 1-.354.056" transform="translate(-315.441 280.486)"/>
    </g>
    <g id="그룹_3079" data-name="그룹 3079" transform="translate(56.527 57.617)">
        <path id="패스_7453" data-name="패스 7453" class="cls-2" d="M312.3-278.284s3.1 1.058 4.482 5.365" transform="translate(-312.107 278.849)"/>
        <path id="패스_7454" data-name="패스 7454" class="cls-3" d="M316.283-272.544c-1.262-3.943-3.994-4.946-4.11-4.987l.387-1.125c.138.049 3.4 1.21 4.855 5.748z" transform="translate(-312.173 278.656)"/>
    </g>
    <g id="그룹_3080" data-name="그룹 3080" transform="translate(55.572 57.025)">
        <path id="패스_7455" data-name="패스 7455" class="cls-3" d="M317.175-271.367a1.157 1.157 0 0 1-1.1-.8c-1.168-3.647-3.659-4.59-3.765-4.628a1.162 1.162 0 0 1-.7-1.473 1.151 1.151 0 0 1 1.458-.712c.15.052 3.671 1.3 5.209 6.108a1.153 1.153 0 0 1-.748 1.453 1.186 1.186 0 0 1-.352.056" transform="translate(-311.544 279.046)"/>
    </g>
    <g id="그룹_3081" data-name="그룹 3081" transform="translate(49.492 56.801)">
        <path id="패스_7456" data-name="패스 7456" class="cls-2" d="M307.846-278.948a7.485 7.485 0 0 1 1.143 6.745" transform="translate(-307.38 279.32)"/>
        <path id="패스_7457" data-name="패스 7457" class="cls-3" d="m309.707-271.874-1.119-.405a6.939 6.939 0 0 0-1.049-6.172l.931-.742a8.026 8.026 0 0 1 1.237 7.319z" transform="translate(-307.539 279.193)"/>
    </g>
    <g id="그룹_3082" data-name="그룹 3082" transform="translate(48.805 56.018)">
        <path id="패스_7458" data-name="패스 7458" class="cls-3" d="M309.383-270.653a1.156 1.156 0 0 1-.395-.068 1.158 1.158 0 0 1-.692-1.482 6.269 6.269 0 0 0-.963-5.634 1.157 1.157 0 0 1 .191-1.621 1.153 1.153 0 0 1 1.618.184 8.616 8.616 0 0 1 1.325 7.86 1.156 1.156 0 0 1-1.086.762" transform="translate(-307.086 279.709)"/>
    </g>
    <g id="그룹_3083" data-name="그룹 3083" transform="translate(20.896 38.841)">
        <path id="패스_7459" data-name="패스 7459" class="cls-2" d="M307.4-282.523s2.423-6.109-2.256-7.555-4.782 4.647-4.782 4.647-7.272-6.55-10.1-1.359c-3.059 5.624 2.645 11.379 10.117 9.419" transform="translate(-288.33 291.398)"/>
        <path id="패스_7460" data-name="패스 7460" class="cls-3" d="M297.839-275.511a9.5 9.5 0 0 1-7.6-3.387 7.157 7.157 0 0 1-.562-8.041 4.625 4.625 0 0 1 3.317-2.5c2.479-.428 5.244 1.14 6.934 2.344a5.577 5.577 0 0 1 1.949-3.2 4.285 4.285 0 0 1 3.97-.454 4.847 4.847 0 0 1 3.1 2.569c1.3 2.721-.083 6.292-.143 6.442a1.1 1.1 0 0 1-1.426.618 1.1 1.1 0 0 1-.621-1.426c.308-.783.943-3.155.2-4.69a2.707 2.707 0 0 0-1.761-1.412 2.213 2.213 0 0 0-2.027.132c-1.046.753-1.316 2.771-1.331 3.486a1.1 1.1 0 0 1-.662.985 1.1 1.1 0 0 1-1.172-.19c-1.087-.975-4.4-3.425-6.642-3.036a2.412 2.412 0 0 0-1.754 1.386 4.953 4.953 0 0 0 .36 5.634c1.749 2.232 5.089 3.091 8.513 2.2a1.1 1.1 0 0 1 1.342.785 1.1 1.1 0 0 1-.785 1.342 12.568 12.568 0 0 1-3.199.413z" transform="translate(-288.704 291.023)"/>
    </g>
    <g id="그룹_3084" data-name="그룹 3084" transform="translate(62.25 61.201)">
        <path id="패스_7461" data-name="패스 7461" class="cls-6" d="M339.726-270.406a4.135 4.135 0 0 1-1.327 3.468c-3.129 2.587-9.861 6.5-20.062 2.217-1.155-.484-2.806-1.775-2.3-3.823.515-2.089 2.564-1.178 4.974-1.488a19.516 19.516 0 0 0 7.693-2.426c2.45-1.482 4.035-2.54 5.036-3.249a3.1 3.1 0 0 1 4.6 1.193c.156.264.316.556.478.881a8.652 8.652 0 0 1 .911 3.228" transform="translate(-315.943 276.295)"/>
    </g>
    <g id="그룹_3085" data-name="그룹 3085" transform="translate(60.749 59.782)">
        <path id="패스_7462" data-name="패스 7462" class="cls-4" d="M330.065-261.348a21.475 21.475 0 0 1-11.5-1.679c-.615-.258-2.654-.9-3.311-2.573a4.48 4.48 0 0 1-.159-2.724c.581-2.361 2.885-2.464 4.444-2.431a12.361 12.361 0 0 0 1.883-.058 18.759 18.759 0 0 0 7.385-2.314 60.879 60.879 0 0 0 5.621-3.742c.082-.062.158-.12.232-.173a1.052 1.052 0 0 1 1.617.606v.02a1.128 1.128 0 0 1-.443 1.277c-.068.05-.143.1-.222.165a56.269 56.269 0 0 1-5.985 4.155 20.047 20.047 0 0 1-8 2.535 13.838 13.838 0 0 1-2.1.07c-1.567-.033-1.933.065-2.054.554a1.2 1.2 0 0 0 .035.77 3.067 3.067 0 0 0 1.632 1.444c9.956 4.18 17.057-.106 20.242-2.825a.836.836 0 0 1 1.313.325 1.52 1.52 0 0 1-.252 1.814 20.67 20.67 0 0 1-10.375 4.784" transform="translate(-314.953 277.23)"/>
    </g>
    <g id="그룹_3086" data-name="그룹 3086" transform="translate(47.12 104.202)">
        <path id="패스_7463" data-name="패스 7463" class="cls-15" d="m309.829-240.618-3.852-.018 1.667-7.336.411.094-.714 3.14h2.625a2.575 2.575 0 0 1 1.688.557 1.7 1.7 0 0 1 .524 1.257c.035 1.494-1.523 2.165-2.35 2.311m-3.323-.436 3.288.018c.044-.012 2-.38 1.963-1.883a1.286 1.286 0 0 0-.387-.956 2.165 2.165 0 0 0-1.392-.446h-2.731z" transform="translate(-305.977 247.972)"/>
    </g>
    <g id="그룹_3087" data-name="그룹 3087" transform="translate(48.267 104.105)">
        <path id="패스_7464" data-name="패스 7464" class="cls-15" d="m310.288-244.276-3.556-.02v-.421l3.551.02a1.457 1.457 0 0 0 1.455-1.53 1.359 1.359 0 0 0-.4-1.007 1.791 1.791 0 0 0-1.164-.38l-2.871.006v-.422l2.859-.006a2.19 2.19 0 0 1 1.461.489 1.75 1.75 0 0 1 .536 1.31 1.849 1.849 0 0 1-1.873 1.96" transform="translate(-306.732 248.036)"/>
    </g>
    <g id="그룹_3088" data-name="그룹 3088" transform="translate(48.985 105.424)">
        <path id="패스_7465" data-name="패스 7465" class="cls-15" d="m307.2-239.676 1.637-7.491h4.863v.422h-4.524l-1.449 6.63 4.737-.149.013.422z" transform="translate(-307.205 247.167)"/>
    </g>
    <g id="그룹_3089" data-name="그룹 3089" transform="translate(50.073 108.576)">
        <path id="사각형_1600" data-name="사각형 1600" class="cls-15" d="M0 0h4.523v.421H0z"/>
    </g>
</svg>
