<svg xmlns="http://www.w3.org/2000/svg" width="152.465" height="169.033">
    <defs>
        <clipPath id="clip-path">
            <path id="패스_7352" data-name="패스 7352" d="M160.906-256.506c8.343.489 9.07-8.526 9.07-8.526a23.08 23.08 0 0 1-15.917-.843s-1.5 8.882 6.847 9.369" transform="translate(-153.954 265.875)" style="fill:none"/>
        </clipPath>
        <style>
            .cls-2{fill:#8cc7ea}.cls-3{fill:#36607b}.cls-4{fill:#e9f2f4}.cls-5{fill:#335d76}.cls-7{fill:#fff}.cls-10{fill:#7f482a}.cls-11{fill:#ffbfc5}.cls-14{fill:#f7f8f8}
        </style>
    </defs>
    <g id="그룹_3025" data-name="그룹 3025">
        <g id="그룹_2975" data-name="그룹 2975" transform="translate(28.943 85.601)">
            <path id="패스_7302" data-name="패스 7302" class="cls-2" d="M147.561-254.029s-30.486 52.083-5.746 53.642l12-52.069z" transform="translate(-131.034 255.144)"/>
            <path id="패스_7303" data-name="패스 7303" class="cls-3" d="M142.19-198.889h-.07c-4.371-.275-7.458-2.051-9.176-5.279-7.186-13.5 13.16-48.556 14.028-50.041a1.118 1.118 0 0 1 1.236-.519l6.258 1.571a1.118 1.118 0 0 1 .817 1.335l-12 52.069a1.118 1.118 0 0 1-1.093.864zm6.3-53.47c-2.886 5.11-19.646 35.727-13.57 47.139 1.227 2.3 3.326 3.622 6.405 4.011l11.54-50.051z" transform="translate(-131.41 254.764)"/>
        </g>
        <g id="그룹_2976" data-name="그룹 2976" transform="translate(29.412 85.273)">
            <path id="패스_7304" data-name="패스 7304" class="cls-4" d="M146-254.244s-10.048 11.2-13.543 19.69c0 0 10.131 2.566 12.582 5.393l9.158-23.182z" transform="translate(-131.338 255.36)"/>
            <path id="패스_7305" data-name="패스 7305" class="cls-3" d="M145.417-227.663a1.114 1.114 0 0 1-.843-.386c-1.82-2.1-9.288-4.351-12.012-5.042a1.111 1.111 0 0 1-.723-.58 1.113 1.113 0 0 1-.036-.928c3.527-8.566 13.327-19.547 13.743-20.01a1.114 1.114 0 0 1 1.084-.342l8.2 1.9a1.117 1.117 0 0 1 .736.569 1.12 1.12 0 0 1 .05.928l-9.159 23.182a1.113 1.113 0 0 1-.85.691 1.128 1.128 0 0 1-.19.018zm-11.034-7.251c2.478.691 7.708 2.3 10.568 4.275l8.11-20.528-6.285-1.457c-1.847 2.124-9.105 10.678-12.394 17.71z" transform="translate(-131.719 254.979)"/>
        </g>
        <g id="그룹_2977" data-name="그룹 2977" transform="translate(101.014 136.764)">
            <path id="패스_7306" data-name="패스 7306" class="cls-2" d="M179.375-217.831a11.474 11.474 0 0 0 11.314 3.644s4.333 5.731 9.8 3.351 6.331-6.428 6.331-6.428c-11.709-7.785-15.862 2.229-15.862 2.229-6.938-.594-9.7-5.321-9.7-5.321z" transform="translate(-178.623 221.43)"/>
            <path id="패스_7307" data-name="패스 7307" class="cls-3" d="M198.064-209.3c-3.682 0-6.507-2.9-7.342-3.858-7.072 1.547-11.51-3.879-11.555-3.935l-.287-.358 2.686-3.613.457.771a12.023 12.023 0 0 0 8.832 4.99 9.614 9.614 0 0 1 5.531-4.782c3.173-.967 6.882-.061 11.019 2.692l.337.223-.085.4c-.038.178-1 4.376-6.676 6.85a7.263 7.263 0 0 1-2.917.62zm-6.537-4.746c.682.837 4.4 5.022 8.979 3.03 4.187-1.825 5.514-4.612 5.873-5.628-3.676-2.359-6.919-3.135-9.647-2.3a8.6 8.6 0 0 0-4.971 4.5l-.165.4zM180.4-217.5a10.768 10.768 0 0 0 9.571 3.275 13.269 13.269 0 0 1-8.47-4.755z" transform="translate(-178.88 221.064)"/>
        </g>
        <g id="그룹_2978" data-name="그룹 2978" transform="translate(99.656 135.727)">
            <path id="패스_7308" data-name="패스 7308" class="cls-5" d="M181.973-219.637s2.763 4.729 9.7 5.321c0 0 2.154-5.194 7.732-5.194 2.168 0 4.854.785 8.13 2.964 0 0-.867 4.049-6.331 6.43a6.709 6.709 0 0 1-2.7.58c-4.125 0-7.1-3.931-7.1-3.931a11.388 11.388 0 0 1-2.763.348 11.737 11.737 0 0 1-8.549-3.991l1.878-2.526m0-2.11a2.116 2.116 0 0 0-1.693.85l-1.877 2.526a2.112 2.112 0 0 0 .047 2.579 13.855 13.855 0 0 0 10.195 4.782 13.244 13.244 0 0 0 1.993-.153c1.377 1.4 4.215 3.735 7.866 3.735a8.826 8.826 0 0 0 3.545-.755c6.386-2.781 7.508-7.713 7.553-7.921a2.111 2.111 0 0 0-.9-2.2c-3.308-2.2-6.436-3.316-9.3-3.316a10.438 10.438 0 0 0-8.877 5.021 10.355 10.355 0 0 1-6.736-4.1 2.1 2.1 0 0 0-1.7-1.042h-.117" transform="translate(-177.986 221.747)"/>
        </g>
        <g id="그룹_2979" data-name="그룹 2979" transform="translate(113.199 137.854)">
            <path id="패스_7309" data-name="패스 7309" d="M186.906-214.038s4.1 5.63 9.562 3.249 6.459-6.483 6.459-6.483c-11.709-7.784-15.551 1.665-15.551 1.665z" transform="translate(-186.906 220.346)" style="fill:#9ee630"/>
        </g>
        <g id="그룹_2980" data-name="그룹 2980" transform="translate(111.089 135.744)">
            <path id="패스_7310" data-name="패스 7310" class="cls-5" d="M195.307-219.626c2.177 0 4.925.8 8.34 3.076 0 0-.994 4.1-6.46 6.48a6.72 6.72 0 0 1-2.721.588c-4.049 0-6.84-3.835-6.84-3.835l.469-1.57a8.009 8.009 0 0 1 7.212-4.738m0-2.11a10.1 10.1 0 0 0-9.165 6.056 1.645 1.645 0 0 0-.065.19l-.471 1.567a2.11 2.11 0 0 0 .314 1.848c.141.191 3.483 4.7 8.546 4.7a8.9 8.9 0 0 0 3.565-.762c6.352-2.768 7.615-7.71 7.665-7.919a2.11 2.11 0 0 0-.882-2.253c-3.421-2.274-6.619-3.428-9.507-3.428" transform="translate(-185.516 221.736)"/>
        </g>
        <g id="그룹_2981" data-name="그룹 2981" transform="translate(112.66 141.266)">
            <path id="패스_7311" data-name="패스 7311" class="cls-5" d="M190.753-214.343c-1.754 0-3.237-.258-3.873-.864a1.052 1.052 0 0 1-.039-1.489 1.055 1.055 0 0 1 1.47-.061c.891.551 7.163.395 9.714-1.184a1.056 1.056 0 0 1 1.451.342 1.053 1.053 0 0 1-.34 1.451c-1.729 1.072-5.437 1.805-8.382 1.805" transform="translate(-186.551 218.099)"/>
        </g>
        <g id="그룹_2982" data-name="그룹 2982" transform="translate(37.948 105.804)">
            <path id="패스_7312" data-name="패스 7312" class="cls-2" d="M189.678-179.731c5.974-.085 9.616-1.559 11.549-2.7a4.579 4.579 0 0 0 2.151-3.071 133.9 133.9 0 0 0-1.061-52.95l-62.651-2.271c-1.832 9.692-4.081 34.562 5.645 55.8a4.5 4.5 0 0 0 2.258 2.25c2.293 1.017 7.1 2.129 15.34-.31a4.626 4.626 0 0 0 3.272-3.952l.282-2.651c.276-2.6 2.626-5.8 5.217-5.444l.112.015a4.639 4.639 0 0 1 3.862 3.38l1.764 7.74a4.6 4.6 0 0 0 3.055 3.2 30.364 30.364 0 0 0 9.205.966" transform="translate(-136.971 241.838)"/>
            <path id="패스_7313" data-name="패스 7313" class="cls-3" d="M189.222-178.228a30.431 30.431 0 0 1-8.709-1.022 5.681 5.681 0 0 1-3.8-3.973l-1.775-7.785a3.5 3.5 0 0 0-2.923-2.52 2.542 2.542 0 0 0-1.939.594 6.087 6.087 0 0 0-2.132 3.849l-.282 2.649a5.722 5.722 0 0 1-4.066 4.905c-8.276 2.447-13.328 1.491-16.11.26a5.624 5.624 0 0 1-2.819-2.807c-11.282-24.633-6.328-53.282-5.727-56.469a1.127 1.127 0 0 1 1.139-.908l62.651 2.273a1.118 1.118 0 0 1 1.051.878 135.2 135.2 0 0 1 1.064 53.4 5.7 5.7 0 0 1-2.68 3.817c-2.129 1.253-5.954 2.763-12.1 2.853q-.426.006-.843.006zm.826-1.122zm-18.4-16.445a4.046 4.046 0 0 1 .557.038 5.785 5.785 0 0 1 4.9 4.207l1.776 7.785a3.447 3.447 0 0 0 2.3 2.382 29.4 29.4 0 0 0 8.86.917c5.655-.082 9.1-1.429 11-2.545a3.461 3.461 0 0 0 1.621-2.324 132.758 132.758 0 0 0-.874-51.648l-60.812-2.206c-1 5.879-4.533 31.772 5.73 54.181a3.383 3.383 0 0 0 1.7 1.694c2 .887 6.544 2.016 14.572-.358a3.5 3.5 0 0 0 2.476-3l.282-2.649a8.378 8.378 0 0 1 2.979-5.37 4.783 4.783 0 0 1 2.93-1.109z" transform="translate(-137.341 241.456)"/>
        </g>
        <g id="그룹_2983" data-name="그룹 2983" transform="translate(46.671 158.089)">
            <path id="패스_7314" data-name="패스 7314" class="cls-7" d="M143.824-201.475s-.179-4.761 3.143-4.808 3.973 6.644 3.973 6.644a11.209 11.209 0 0 1-4.107-.55 8.515 8.515 0 0 1-3.009-1.286" transform="translate(-142.706 207.399)"/>
            <path id="패스_7315" data-name="패스 7315" class="cls-3" d="M150.788-198.121a13.709 13.709 0 0 1-3.9-.618 9.082 9.082 0 0 1-3.463-1.553 1.107 1.107 0 0 1-.337-.759c-.012-.317-.071-3.137 1.511-4.8a3.742 3.742 0 0 1 2.731-1.166c4.2-.056 5.022 6.861 5.1 7.652a1.114 1.114 0 0 1-.984 1.216 6.119 6.119 0 0 1-.658.028zm-5.45-3.585a13.869 13.869 0 0 0 2.2.827 12.054 12.054 0 0 0 2.484.489c-.381-1.922-1.254-4.4-2.64-4.4h-.017a1.5 1.5 0 0 0-1.142.466 4.534 4.534 0 0 0-.886 2.618z" transform="translate(-143.087 207.018)"/>
        </g>
        <g id="그룹_2984" data-name="그룹 2984" transform="translate(56.346 157.827)">
            <path id="패스_7316" data-name="패스 7316" class="cls-7" d="M150.224-199.676a22.462 22.462 0 0 0 7.107-1.429s-.645-5.806-4.552-5.321c-3.02.377-2.555 6.75-2.555 6.75" transform="translate(-149.076 207.572)"/>
            <path id="패스_7317" data-name="패스 7317" class="cls-3" d="M150.607-198.179a1.115 1.115 0 0 1-1.113-1.035c-.056-.761-.428-7.445 3.53-7.939a4.217 4.217 0 0 1 3.2.87c2.122 1.676 2.554 5.057 2.6 5.437a1.117 1.117 0 0 1-.715 1.168 23.383 23.383 0 0 1-7.5 1.5zm3.014-6.779a2.641 2.641 0 0 0-.322.021c-1.192.149-1.568 2.639-1.6 4.457a22.283 22.283 0 0 0 4.747-.981 5.786 5.786 0 0 0-1.6-3.073 1.891 1.891 0 0 0-1.226-.424z" transform="translate(-149.459 207.19)"/>
        </g>
        <g id="그룹_2985" data-name="그룹 2985" transform="translate(79.7 159.536)">
            <path id="패스_7318" data-name="패스 7318" class="cls-7" d="M173.079-198.411a22.3 22.3 0 0 1-4.547-.267 12.832 12.832 0 0 1-2.956-1.014s.176-5.589 3.5-5.637 4.005 6.919 4.005 6.919" transform="translate(-164.461 206.446)"/>
            <path id="패스_7319" data-name="패스 7319" class="cls-3" d="M172.561-196.89a24.652 24.652 0 0 1-3.826-.305 13.873 13.873 0 0 1-3.27-1.114 1.114 1.114 0 0 1-.622-1.037c.076-2.472 1.131-6.668 4.6-6.718h.052c4.183 0 5 7.111 5.081 7.925a1.117 1.117 0 0 1-.26.83 1.12 1.12 0 0 1-.776.393c-.04.001-.396.026-.979.026zm-5.416-3.115a9.412 9.412 0 0 0 1.943.606 22.439 22.439 0 0 0 3.077.272c-.387-2-1.292-4.7-2.681-4.7h-.015c-1.618.018-2.155 2.541-2.324 3.821z" transform="translate(-164.842 206.065)"/>
        </g>
        <g id="그룹_2986" data-name="그룹 2986" transform="translate(90.443 159.632)">
            <path id="패스_7320" data-name="패스 7320" class="cls-7" d="M172.677-198.316a29.825 29.825 0 0 0 7.218-1.294s-.727-6.115-4.632-5.631c-3.02.375-2.586 6.925-2.586 6.925" transform="translate(-171.535 206.382)"/>
            <path id="패스_7321" data-name="패스 7321" class="cls-3" d="M173.06-196.82a1.117 1.117 0 0 1-1.114-1.043c-.05-.777-.389-7.615 3.562-8.1a4.163 4.163 0 0 1 3.138.856c2.2 1.728 2.692 5.344 2.74 5.751a1.118 1.118 0 0 1-.782 1.2 30.843 30.843 0 0 1-7.517 1.341zm3.021-6.95a2.5 2.5 0 0 0-.3.018c-1.148.143-1.582 2.664-1.629 4.617a30.524 30.524 0 0 0 4.84-.885 6.323 6.323 0 0 0-1.729-3.334 1.849 1.849 0 0 0-1.182-.416z" transform="translate(-171.917 206.002)"/>
        </g>
        <g id="그룹_2987" data-name="그룹 2987" transform="translate(40.011 139.216)">
            <path id="패스_7322" data-name="패스 7322" class="cls-4" d="M139.866-218.713s-1.371 10.385.783 15.064c.1.213 29.01-9.334 29.01-9.334z" transform="translate(-138.319 219.831)"/>
            <path id="패스_7323" data-name="패스 7323" class="cls-3" d="M140.807-202.255a.715.715 0 0 1-.791-.547c-2.264-4.916-.934-15.24-.876-15.677a1.119 1.119 0 0 1 .454-.759 1.116 1.116 0 0 1 .864-.191l29.794 5.731a1.116 1.116 0 0 1 .9 1.025 1.114 1.114 0 0 1-.764 1.131s-7.23 2.388-14.473 4.749c-10.606 3.458-13.915 4.538-15.108 4.538zm.418-14.753c-.254 2.576-.691 8.768.489 12.413 3.2-.949 14.534-4.641 23.9-7.722z" transform="translate(-138.7 219.449)"/>
        </g>
        <g id="그룹_2988" data-name="그룹 2988" transform="translate(70.639 138.257)">
            <path id="패스_7324" data-name="패스 7324" class="cls-4" d="M196.115-219.345a114.762 114.762 0 0 1-3.493 15.952c-.137.457-33.012-9.134-33.012-9.134z" transform="translate(-158.492 220.462)"/>
            <path id="패스_7325" data-name="패스 7325" class="cls-3" d="M193.053-201.993c-2.083 0-8.938-1.952-33.375-9.08a1.116 1.116 0 0 1-.8-1.128 1.117 1.117 0 0 1 .909-1.041l36.506-6.818a1.125 1.125 0 0 1 .975.287 1.117 1.117 0 0 1 .339.956 116.892 116.892 0 0 1-3.531 16.13c-.124.398-.213.694-1.023.694zm-28.25-9.915c10.769 3.118 23.944 6.862 27.4 7.649a116.447 116.447 0 0 0 2.951-13.319z" transform="translate(-158.873 220.08)"/>
        </g>
        <g id="그룹_2989" data-name="그룹 2989" transform="translate(55.21 86.215)">
            <path id="패스_7326" data-name="패스 7326" class="cls-2" d="m149.192-253.6 25.406-.364s-3.475 15.278-12.846 15.413-12.56-15.049-12.56-15.049" transform="translate(-148.462 254.566)"/>
            <path id="패스_7327" data-name="패스 7327" class="cls-3" d="M161.877-237.745c-9.644 0-12.884-14.885-13.017-15.521l-.149-.707 26.883-.386-.167.736c-.146.644-3.691 15.738-13.417 15.878zM150.2-252.8c.765 2.933 4.107 14 11.8 13.869 7.641-.109 11.245-11.214 12.081-14.212z" transform="translate(-148.711 254.359)"/>
        </g>
        <g id="그룹_2990" data-name="그룹 2990" transform="translate(36.615 84.809)">
            <path id="패스_7328" data-name="패스 7328" d="M145.507-252.821s-13.779 31.16-5.883 58.948c0 0 8.118 6.612 68.276-2.142 0 0 2.255-22.673-8.551-58.535l-15.821 4.075-14.725 25-10.91-24.349z" transform="translate(-136.091 255.666)" style="fill:#e8deb7"/>
            <path id="패스_7329" data-name="패스 7329" class="cls-3" d="M158.546-190.009c-15.745 0-19.045-2.446-19.254-2.617a1.112 1.112 0 0 1-.369-.56c-7.916-27.853 5.8-59.388 5.936-59.7a1.11 1.11 0 0 1 1.283-.633l12.384 2.994a1.12 1.12 0 0 1 .758.629l10.025 22.377 13.629-23.136a1.126 1.126 0 0 1 .685-.515l15.821-4.075a1.12 1.12 0 0 1 1.348.759c10.743 35.66 8.614 58.738 8.592 58.968a1.113 1.113 0 0 1-.95.993c-23.79 3.458-39.534 4.516-49.888 4.516zm-17.592-4.2c1.766.894 13.527 5.211 66.269-2.4.26-4.418.861-25.421-8.262-56.209l-14.334 3.692-14.491 24.6a1.129 1.129 0 0 1-1.025.548 1.117 1.117 0 0 1-.956-.657l-10.685-23.85-10.925-2.642c-2.086 5.144-12.33 32.481-5.591 56.914z" transform="translate(-136.463 255.285)"/>
        </g>
        <g id="그룹_2991" data-name="그룹 2991" transform="translate(53.408 92.816)">
            <path id="패스_7330" data-name="패스 7330" class="cls-4" d="m148.4-246.554 4.975-2.549 5.6 6.023 4.795-.463 7-5 7.732.017s-8.364 24.39-15.489 25.227c0 0-11.212-11.5-14.613-23.256" transform="translate(-147.071 250.482)"/>
            <path id="패스_7331" data-name="패스 7331" class="cls-3" d="m163.049-221.654-.384-.395c-.466-.477-11.446-11.836-14.885-23.725l-.257-.885 6.547-3.352 5.8 6.237 3.947-.381 7.049-5.033 9.65.021-.506 1.476c-.879 2.564-8.812 25.079-16.415 25.974zm-12.855-23.863c3.161 9.777 11.666 19.327 13.652 21.468 4.4-1.41 10.338-14.045 13.532-22.892l-5.8-.014-6.95 4.965-5.642.545-5.4-5.807z" transform="translate(-147.524 250.011)"/>
        </g>
        <g id="그룹_2992" data-name="그룹 2992" transform="translate(56.282 95.212)">
            <path id="패스_7332" data-name="패스 7332" d="M150.152-245.058s4.6 4.061 7.631 3.99l1.74 3.613-2.359 7.277 5.336 5.978 4.09-5.941-2.827-6.9 1.644-4.423s3.683-1.6 4.573-4.8l-3.091-.938s-.108 1.259-3.22 1.846l-5.924.123s-2.664 1.3-4.822-2.472z" transform="translate(-149.036 248.815)" style="fill:#722f23"/>
            <path id="패스_7333" data-name="패스 7333" class="cls-3" d="M162.878-222.7a1.118 1.118 0 0 1-.832-.372l-5.335-5.979a1.12 1.12 0 0 1-.228-1.089l2.22-6.85-1.262-2.622c-3.257-.425-7.18-3.814-7.647-4.227a1.123 1.123 0 0 1-.376-.817 1.112 1.112 0 0 1 .346-.829l2.768-2.637a1.1 1.1 0 0 1 .932-.3 1.121 1.121 0 0 1 .808.551c1.552 2.715 3.2 2.1 3.381 2.013a1.231 1.231 0 0 1 .448-.1l5.828-.12c1.556-.307 2.136-.786 2.248-.973a1.116 1.116 0 0 1 .463-.683 1.115 1.115 0 0 1 .95-.143l3.091.937a1.116 1.116 0 0 1 .752 1.366c-.83 2.992-3.648 4.725-4.758 5.3l-1.335 3.6 2.66 6.492a1.117 1.117 0 0 1-.114 1.057l-4.09 5.941a1.115 1.115 0 0 1-.85.481c-.021.003-.046.003-.068.003zm-4.073-7.36 3.961 4.439 2.941-4.272-2.6-6.337a1.119 1.119 0 0 1-.014-.812l1.643-4.423a1.12 1.12 0 0 1 .6-.636 8.452 8.452 0 0 0 3.521-3.059l-1.072-.325a6.141 6.141 0 0 1-3.533 1.618 1.253 1.253 0 0 1-.185.018l-5.71.118c-1.184.443-3.384.449-5.242-1.866l-.9.859c1.585 1.231 4.171 3.023 5.923 2.936a1.228 1.228 0 0 1 1.032.632l1.74 3.613a1.116 1.116 0 0 1 .056.827zm7.35-16.848zm0 0zm0 0zm0 0zm.032-.155z" transform="translate(-149.417 248.433)"/>
        </g>
        <g id="그룹_2993" data-name="그룹 2993" transform="translate(84.916 84.84)">
            <path id="패스_7334" data-name="패스 7334" class="cls-10" d="m173.613-253.974 10.075-.556s-11.132 29.173 6.694 29.352l1.253 10.653s-19.94-2.1-22.24-19.19c-1.946-14.461 4.219-20.259 4.219-20.259" transform="translate(-167.895 255.645)"/>
            <path id="패스_7335" data-name="패스 7335" class="cls-3" d="M192.016-213.028a1.006 1.006 0 0 1-.117-.006c-.208-.021-20.839-2.4-23.23-20.151-2-14.859 4.294-20.968 4.562-21.222a1.115 1.115 0 0 1 .7-.3l10.073-.556a1.124 1.124 0 0 1 .964.457 1.113 1.113 0 0 1 .141 1.055c-.065.172-6.466 17.206-1.456 24.556 1.483 2.174 3.811 3.247 7.117 3.281a1.117 1.117 0 0 1 1.1.987l1.253 10.653a1.118 1.118 0 0 1-.314.915 1.121 1.121 0 0 1-.793.331zM174.511-252.5c-1.089 1.287-5.236 7.079-3.629 19.02.9 6.68 4.708 11.769 11.32 15.126a32.932 32.932 0 0 0 8.532 2.879l-.97-8.242a9.908 9.908 0 0 1-7.954-4.219c-4.735-6.949-.9-20.359.65-25z" transform="translate(-168.277 255.265)"/>
        </g>
        <g id="그룹_2994" data-name="그룹 2994" transform="translate(36.232 87.12)">
            <path id="패스_7336" data-name="패스 7336" class="cls-10" d="m144.182-253.027 10.2 1.933s-18.132 24.114-17.276 33.618c0 0-1.831-15.115 7.073-35.551" transform="translate(-135.826 254.144)"/>
            <path id="패스_7337" data-name="패스 7337" class="cls-3" d="M137.493-215.979a1.116 1.116 0 0 1-1.107-.982c-.076-.629-1.766-15.651 7.158-36.131a1.116 1.116 0 0 1 1.231-.651l10.2 1.934a1.115 1.115 0 0 1 .833.694 1.113 1.113 0 0 1-.149 1.073c-.179.238-17.865 23.879-17.056 32.847a1.116 1.116 0 0 1-1 1.21 1.015 1.015 0 0 1-.11.006zm7.746-35.4a84.72 84.72 0 0 0-6.46 24.685c3.867-8.889 11.268-19.432 14.041-23.249z" transform="translate(-136.211 253.763)"/>
        </g>
        <g id="그룹_2995" data-name="그룹 2995" transform="translate(48.586 87.256)">
            <path id="패스_7338" data-name="패스 7338" class="cls-4" d="m145.093-251.978 1.7 11.71a.839.839 0 0 0 1.325.556l7.066-5.168a.841.841 0 0 1 .987 0l2.979.862a.839.839 0 0 0 1.275-.976l-3.492-6.4a.839.839 0 0 0-.7-.54l-10.227-1a.838.838 0 0 0-.911.955" transform="translate(-143.967 254.055)"/>
            <path id="패스_7339" data-name="패스 7339" class="cls-3" d="M148.01-238.05a1.962 1.962 0 0 1-.761-.153 1.94 1.94 0 0 1-1.178-1.521l-1.7-11.71a1.938 1.938 0 0 1 .518-1.628 1.918 1.918 0 0 1 1.6-.6l10.228 1a1.95 1.95 0 0 1 1.606 1.172l3.46 6.345a.991.991 0 0 1 .065.141 1.945 1.945 0 0 1-.642 2.244 1.943 1.943 0 0 1-2.138.155l-2.83-.82a1.151 1.151 0 0 1-.162-.061l-6.919 5.06a1.945 1.945 0 0 1-1.147.376zm.27-2zm-1.65-11.359 1.583 10.9 6.694-4.895a1.951 1.951 0 0 1 2.1-.132l2.4.7-3.067-5.622z" transform="translate(-144.348 253.673)"/>
        </g>
        <g id="그룹_2996" data-name="그룹 2996" transform="translate(69.412 85.094)">
            <path id="패스_7340" data-name="패스 7340" class="cls-4" d="m164.077-243.447 10.433 2.705a.839.839 0 0 0 .978-.471l4.134-11.977a.839.839 0 0 0-.864-1.174l-14.3 3.043a.84.84 0 0 0-.627.41l-3.331 3.641a.85.85 0 0 0-.087.206l-1.582 3.443a.839.839 0 0 0 1.254.929l3.339-.654a.84.84 0 0 1 .654-.1" transform="translate(-157.684 255.475)"/>
            <path id="패스_7341" data-name="패스 7341" class="cls-3" d="M175.1-239.221a1.932 1.932 0 0 1-.5-.065l-10.322-2.675a1.051 1.051 0 0 1-.266.088l-3.178.624a1.942 1.942 0 0 1-1.98-.2 1.948 1.948 0 0 1-.73-2.078 1.1 1.1 0 0 1 .065-.179l1.552-3.377a1.821 1.821 0 0 1 .169-.372 1.2 1.2 0 0 1 .138-.188l3.267-3.572a1.968 1.968 0 0 1 1.386-.835l14.2-3.024a1.98 1.98 0 0 1 1.907.768 1.965 1.965 0 0 1 .21 1.952l-4.1 11.886a1.992 1.992 0 0 1-1.818 1.247zm.065-2.226zm-10.918-2.765a1.921 1.921 0 0 1 .483.061l10.186 2.642 3.887-11.271-13.703 2.923a.789.789 0 0 1-.064.077l-3.223 3.525-1.271 2.789 2.891-.568a1.994 1.994 0 0 1 .819-.177z" transform="translate(-158.065 255.097)"/>
        </g>
        <g id="그룹_2997" data-name="그룹 2997" transform="translate(0 .937)">
            <path id="패스_7342" data-name="패스 7342" class="cls-2" d="M155.709-296.883s-4.986-14.787-25.01-12.712c-18.336 1.9-19.553 27.334-13.641 37.377a29.209 29.209 0 0 0-1.155 27.272c6.926 15.3 29.511 17.874 37.388-.495" transform="translate(-111.957 310.909)"/>
            <path id="패스_7343" data-name="패스 7343" class="cls-3" d="M135.314-231.06a22.067 22.067 0 0 1-20.039-13.046 30.291 30.291 0 0 1 .878-27.761c-3.533-6.624-4.486-18.944.128-28.08 3.088-6.112 8.17-9.7 14.693-10.379 20.661-2.144 26.132 13.31 26.183 13.467a1.115 1.115 0 0 1-.7 1.412 1.118 1.118 0 0 1-1.417-.7c-.194-.569-4.989-13.908-23.838-11.961a15.935 15.935 0 0 0-12.931 9.164c-4.277 8.47-3.383 20.558.137 26.535a1.12 1.12 0 0 1-.035 1.19 28.354 28.354 0 0 0-1.066 26.188 19.867 19.867 0 0 0 18.2 11.733c7.6-.076 13.851-4.526 17.145-12.208a1.113 1.113 0 0 1 1.467-.586 1.116 1.116 0 0 1 .585 1.467c-3.6 8.406-10.772 13.476-19.174 13.559a2.596 2.596 0 0 1-.216.006z" transform="translate(-112.346 310.528)"/>
        </g>
        <g id="그룹_2998" data-name="그룹 2998" transform="translate(10.462 13.834)">
            <path id="패스_7344" data-name="패스 7344" class="cls-11" d="M145.987-293.445s-3.446-10.177-16.283-8.375c-11.754 1.647-12.121 19.324-8.156 26.189a21.689 21.689 0 0 0-.295 18.95c4.7 10.5 19.262 11.876 24.023-1.016" transform="translate(-119.237 302.034)"/>
        </g>
        <g id="그룹_2999" data-name="그룹 2999" transform="translate(25.694)">
            <path id="패스_7345" data-name="패스 7345" class="cls-2" d="M172.284-221.485c34.16 1.614 45.837-12.442 49.444-22.646 2.695-7.618 1.037-13.127 1.037-13.127 1.527-43.591-27.744-52.517-45.015-53.121-16.054-.563-45.238 6.311-46.751 49.442a44.487 44.487 0 0 0-.929 11.531c.427 7.157 4.092 26.118 42.214 27.92" transform="translate(-128.889 311.528)"/>
            <path id="패스_7346" data-name="패스 7346" class="cls-3" d="M177.961-219.86q-2.578 0-5.347-.129c-36.254-1.713-42.676-18.884-43.277-28.968a45.463 45.463 0 0 1 .931-11.745c.7-19.251 6.876-33.331 18.37-41.856 10.743-7.968 23.115-8.789 29.533-8.555 6.793.238 19.751 1.943 30.234 10.7 11.176 9.334 16.512 23.938 15.864 43.406a24.271 24.271 0 0 1-1.105 13.632c-3.179 8.984-13.264 23.515-45.203 23.515zm-5.242-2.359c34.757 1.649 45.2-13.017 48.339-21.9 2.526-7.143 1.034-12.384 1.019-12.436a1.146 1.146 0 0 1-.046-.358c.66-18.831-4.406-32.888-15.058-41.784-9.97-8.328-22.374-9.953-28.881-10.181-6.118-.21-17.924.553-28.124 8.116-10.942 8.115-16.82 21.657-17.473 40.25a1.077 1.077 0 0 1-.029.219 43.8 43.8 0 0 0-.9 11.208c1.3 21.749 26.341 26.17 41.153 26.869z" transform="translate(-129.27 311.146)"/>
        </g>
        <g id="그룹_3000" data-name="그룹 3000" transform="translate(60.948 64.884)">
            <path id="패스_7347" data-name="패스 7347" class="cls-5" d="M162.7-263.373c-7.113-.25-9.8-3.208-9.961-3.392a.994.994 0 0 1 .1-1.4 1 1 0 0 1 1.4.091c.087.1 5.321 5.529 21.12.767a1 1 0 0 1 1.237.665.994.994 0 0 1-.663 1.237 41.231 41.231 0 0 1-13.225 2.033" transform="translate(-152.491 268.409)"/>
        </g>
        <g id="그룹_3001" data-name="그룹 3001" transform="translate(63.171 68.731)">
            <path id="패스_7348" data-name="패스 7348" d="M154.058-265.875a23.08 23.08 0 0 0 15.917.843s-.727 9.015-9.07 8.528-6.847-9.37-6.847-9.37" transform="translate(-153.955 265.875)" style="fill:#cf7575"/>
        </g>
        <g id="그룹_3002" data-name="그룹 3002" transform="translate(61.19 66.747)">
            <path id="패스_7349" data-name="패스 7349" class="cls-5" d="M154.735-265.2a22.63 22.63 0 0 0 8.4 1.867 21.992 21.992 0 0 0 7.521-1.025s-.714 8.822-8.8 8.54c-.088 0-.176-.008-.266-.014-8.341-.487-6.847-9.369-6.847-9.369M154.814-267.183a1.983 1.983 0 0 0-.981.219 1.986 1.986 0 0 0-1.049 1.435c-.035.2-.814 5.057 1.924 8.493a8.876 8.876 0 0 0 6.765 3.188c.1.008.208.012.311.015a9.578 9.578 0 0 0 9.247-5.194 14.422 14.422 0 0 0 1.6-5.062c.008-.067.015-.132.017-.2a1.984 1.984 0 0 0-1.9-2.054h-.084a2.012 2.012 0 0 0-.65.108 20.066 20.066 0 0 1-6.8.919 20.994 20.994 0 0 1-7.6-1.67 2.015 2.015 0 0 0-.8-.2" transform="translate(-152.649 267.182)"/>
        </g>
        <g id="그룹_3006" data-name="그룹 3006" transform="translate(63.171 68.731)">
            <g id="그룹_3005" data-name="그룹 3005" style="clip-path:url(#clip-path)">
                <g id="그룹_3003" data-name="그룹 3003" transform="translate(-.245 4.714)">
                    <path id="패스_7350" data-name="패스 7350" class="cls-11" d="M153.793-261.452a13.811 13.811 0 0 1 7.151-1.289 16.189 16.189 0 0 1 7.4 2.227s-1.955 3.912-7.456 3.591a7.878 7.878 0 0 1-7.093-4.529" transform="translate(-153.793 262.77)"/>
                </g>
                <g id="그룹_3004" data-name="그룹 3004" transform="translate(-1.237 3.721)">
                    <path id="패스_7351" data-name="패스 7351" class="cls-5" d="M161.454-255.579c-.094 0-.191-.008-.288-.014a8.816 8.816 0 0 1-7.962-5.17.992.992 0 0 1 .436-1.213 14.76 14.76 0 0 1 7.7-1.418 17.119 17.119 0 0 1 7.89 2.394.992.992 0 0 1 .339 1.271c-.091.181-2.247 4.357-8.115 4.152m-5.938-5.057a7.13 7.13 0 0 0 5.766 3.061 6.944 6.944 0 0 0 5.954-2.262 16.03 16.03 0 0 0-6.014-1.573 14.245 14.245 0 0 0-5.707.774m-1.385-.477z" transform="translate(-153.14 263.424)"/>
                </g>
            </g>
        </g>
        <g id="그룹_3007" data-name="그룹 3007" transform="translate(80.796 47.87)">
            <path id="패스_7353" data-name="패스 7353" class="cls-5" d="M175.248-273.956a5.139 5.139 0 0 1-5.1 5.163 5.172 5.172 0 0 1-4.579-5.655 5.135 5.135 0 0 1 5.1-5.162 5.169 5.169 0 0 1 4.577 5.654" transform="translate(-165.563 279.616)"/>
        </g>
        <g id="그룹_3008" data-name="그룹 3008" transform="translate(81.848 34.715)">
            <path id="패스_7354" data-name="패스 7354" class="cls-5" d="M174.056-284.909a1.091 1.091 0 0 1-.632-.232 4.812 4.812 0 0 0-2.64-.956 5.52 5.52 0 0 0-2.986.612 1.084 1.084 0 0 1-1.439-.519 1.083 1.083 0 0 1 .521-1.439 7.644 7.644 0 0 1 4.079-.809 6.934 6.934 0 0 1 3.806 1.413 1.08 1.08 0 0 1 .178 1.52 1.08 1.08 0 0 1-.887.411" transform="translate(-166.257 288.28)"/>
        </g>
        <g id="그룹_3009" data-name="그룹 3009" transform="translate(82.907 50.266)">
            <path id="패스_7355" data-name="패스 7355" class="cls-14" d="M169.579-276.583a1.333 1.333 0 0 1-1.4 1.266 1.343 1.343 0 0 1-1.221-1.45 1.336 1.336 0 0 1 1.4-1.268 1.342 1.342 0 0 1 1.219 1.451" transform="translate(-166.954 278.037)"/>
        </g>
        <g id="그룹_3010" data-name="그룹 3010" transform="translate(46.362 45.797)">
            <path id="패스_7356" data-name="패스 7356" class="cls-5" d="M153.222-274.368c-.165 3.5-2.613 6.217-5.466 6.068s-5.03-3.106-4.864-6.607 2.611-6.217 5.463-6.068 5.031 3.108 4.867 6.607" transform="translate(-142.883 280.981)"/>
        </g>
        <g id="그룹_3011" data-name="그룹 3011" transform="translate(47.38 33.508)">
            <path id="패스_7357" data-name="패스 7357" class="cls-5" d="M151.352-285.707a1.072 1.072 0 0 1-.632-.231 4.791 4.791 0 0 0-2.64-.955 5.515 5.515 0 0 0-2.985.61 1.084 1.084 0 0 1-1.439-.519 1.083 1.083 0 0 1 .519-1.439 7.663 7.663 0 0 1 4.079-.808 6.9 6.9 0 0 1 3.806 1.412 1.082 1.082 0 0 1 .179 1.52 1.075 1.075 0 0 1-.888.41" transform="translate(-143.553 289.075)"/>
        </g>
        <g id="그룹_3012" data-name="그룹 3012" transform="translate(48.466 48.138)">
            <path id="패스_7358" data-name="패스 7358" class="cls-14" d="M146.894-277.986a1.334 1.334 0 0 1-1.4 1.268 1.344 1.344 0 0 1-1.221-1.451 1.334 1.334 0 0 1 1.4-1.266 1.341 1.341 0 0 1 1.219 1.45" transform="translate(-144.269 279.439)"/>
        </g>
        <g id="그룹_3013" data-name="그룹 3013" transform="translate(29.707 41.803)">
            <path id="패스_7359" data-name="패스 7359" class="cls-2" d="M167.04-279.99s-12.891 19.609-26.838-2.147a1.592 1.592 0 0 0-2.133-.531l-4.665 2.519c-.729.413-.759 1.26-.755 2.11.036 7.9 23.491 35.785 47.52 16.175" transform="translate(-131.531 283.992)"/>
            <path id="패스_7360" data-name="패스 7360" class="cls-3" d="M162.933-253.5a28.542 28.542 0 0 1-12.159-2.86c-10.907-5.145-18.837-16.291-18.861-21.293a3.167 3.167 0 0 1 1.322-3.086l4.684-2.529a2.715 2.715 0 0 1 3.6.911c4.127 6.436 8.5 9.715 12.985 9.745h.062c6.815 0 11.869-7.535 11.92-7.611a1.116 1.116 0 0 1 1.546-.317 1.116 1.116 0 0 1 .32 1.544c-.232.354-5.759 8.617-13.784 8.617h-.068c-5.3-.03-10.3-3.656-14.86-10.773a.473.473 0 0 0-.645-.161l-4.682 2.528c-.159.091-.172.627-.17 1.124.018 3.78 6.878 14.233 17.581 19.283 6.723 3.172 17.057 5.057 28.117-3.967a1.116 1.116 0 0 1 1.571.159 1.115 1.115 0 0 1-.159 1.57c-6.493 5.299-12.769 7.116-18.32 7.116z" transform="translate(-131.913 283.611)"/>
        </g>
        <g id="그룹_3014" data-name="그룹 3014" transform="translate(59.41 51.411)">
            <path id="패스_7361" data-name="패스 7361" class="cls-2" d="M151.518-276.893s5.337.556 6.534 4.8" transform="translate(-151.456 277.485)"/>
            <path id="패스_7362" data-name="패스 7362" class="cls-3" d="M157.5-271.728c-1.07-3.8-5.974-4.366-6.023-4.372l.124-1.183c.234.024 5.753.65 7.045 5.233z" transform="translate(-151.477 277.283)"/>
        </g>
        <g id="그룹_3015" data-name="그룹 3015" transform="translate(58.345 50.874)">
            <path id="패스_7363" data-name="패스 7363" class="cls-3" d="M158.4-270.577a1.125 1.125 0 0 1-1.045-.821c-.972-3.445-5.523-3.982-5.569-3.988a1.129 1.129 0 0 1-1-1.242 1.129 1.129 0 0 1 1.237-1c.249.026 6.114.692 7.5 5.619a1.131 1.131 0 0 1-.78 1.394 1.126 1.126 0 0 1-.346.041" transform="translate(-150.776 277.637)"/>
        </g>
        <g id="그룹_3016" data-name="그룹 3016" transform="translate(53.407 53.377)">
            <path id="패스_7364" data-name="패스 7364" class="cls-2" d="M147.664-275.622s2.991 1.139 4.187 5.385" transform="translate(-147.45 276.178)"/>
            <path id="패스_7365" data-name="패스 7365" class="cls-3" d="M151.352-269.885c-1.093-3.881-3.718-4.949-3.829-4.992l.427-1.111c.134.05 3.284 1.3 4.549 5.78z" transform="translate(-147.523 275.988)"/>
        </g>
        <g id="그룹_3017" data-name="그룹 3017" transform="translate(52.499 52.804)">
            <path id="패스_7366" data-name="패스 7366" class="cls-3" d="M152.195-268.722a1.128 1.128 0 0 1-1.045-.823c-1.014-3.6-3.413-4.6-3.515-4.643a1.131 1.131 0 0 1-.633-1.459 1.124 1.124 0 0 1 1.447-.645c.144.055 3.536 1.4 4.87 6.135a1.127 1.127 0 0 1-.779 1.392 1.185 1.185 0 0 1-.346.043" transform="translate(-146.925 276.366)"/>
        </g>
        <g id="그룹_3018" data-name="그룹 3018" transform="translate(46.581 52.362)">
            <path id="패스_7367" data-name="패스 7367" class="cls-2" d="M143.341-276.423a7.3 7.3 0 0 1 .885 6.618" transform="translate(-142.864 276.778)"/>
            <path id="패스_7368" data-name="패스 7368" class="cls-3" d="m144.941-269.461-1.105-.445a6.719 6.719 0 0 0-.809-6.041l.955-.711a7.852 7.852 0 0 1 .959 7.197z" transform="translate(-143.027 276.657)"/>
        </g>
        <g id="그룹_3019" data-name="그룹 3019" transform="translate(45.933 51.591)">
            <path id="패스_7369" data-name="패스 7369" class="cls-3" d="M144.571-268.291a1.183 1.183 0 0 1-.383-.082 1.126 1.126 0 0 1-.624-1.468 6.109 6.109 0 0 0-.747-5.528 1.132 1.132 0 0 1 .241-1.576 1.127 1.127 0 0 1 1.573.234 8.414 8.414 0 0 1 1.025 7.711 1.13 1.13 0 0 1-1.086.707" transform="translate(-142.6 277.165)"/>
        </g>
        <g id="그룹_3020" data-name="그룹 3020" transform="translate(19.493 34.829)">
            <path id="패스_7370" data-name="패스 7370" class="cls-2" d="M143.418-279.76s2.572-5.877-1.942-7.447-4.823 4.368-4.823 4.368-6.87-6.635-9.8-1.669c-3.175 5.381 2.191 11.188 9.547 9.533" transform="translate(-124.806 288.585)"/>
            <path id="패스_7371" data-name="패스 7371" class="cls-3" d="M134.291-273.2a9.417 9.417 0 0 1-7.747-3.591 7.025 7.025 0 0 1-.273-7.908 4.557 4.557 0 0 1 3.352-2.35c2.42-.329 5.047 1.265 6.663 2.494a5.458 5.458 0 0 1 2.01-3.018 4.231 4.231 0 0 1 3.928-.311 4.778 4.778 0 0 1 2.959 2.634c1.186 2.716-.3 6.169-.361 6.314a1.116 1.116 0 0 1-1.467.575 1.118 1.118 0 0 1-.58-1.47c.325-.748 1.022-3.024.358-4.532a2.594 2.594 0 0 0-1.643-1.414c-1.23-.43-1.77-.064-1.948.056-1.034.694-1.362 2.675-1.4 3.316a1.117 1.117 0 0 1-.706.979 1.111 1.111 0 0 1-1.184-.235c-1.022-.984-4.137-3.486-6.337-3.176a2.312 2.312 0 0 0-1.726 1.272 4.788 4.788 0 0 0 .155 5.458c1.62 2.224 4.829 3.17 8.183 2.418a1.117 1.117 0 0 1 1.335.844 1.115 1.115 0 0 1-.843 1.334 12.526 12.526 0 0 1-2.728.311z" transform="translate(-125.186 288.205)"/>
        </g>
        <g id="그룹_3021" data-name="그룹 3021" transform="translate(107.983 6.094)">
            <path id="패스_7372" data-name="패스 7372" class="cls-2" d="M185.395-294.929s6.008-14.4 25.837-10.93c18.158 3.179 17.593 28.635 10.992 38.24a29.215 29.215 0 0 1-.756 27.285c-7.981 14.777-30.689 15.764-37.262-3.111" transform="translate(-183.09 307.512)"/>
            <path id="패스_7373" data-name="패스 7373" class="cls-3" d="M203.445-227.759q-.863 0-1.734-.068c-8.376-.673-15.17-6.231-18.178-14.869a1.115 1.115 0 0 1 .688-1.421 1.115 1.115 0 0 1 1.421.686c2.748 7.893 8.671 12.77 16.246 13.379a19.852 19.852 0 0 0 18.978-10.43 28.37 28.37 0 0 0 .771-26.2 1.117 1.117 0 0 1 .047-1.189c3.929-5.718 5.668-17.715 1.993-26.463a15.927 15.927 0 0 0-12.257-10.045c-18.667-3.266-24.383 9.706-24.616 10.26a1.118 1.118 0 0 1-1.461.6 1.115 1.115 0 0 1-.6-1.458c.064-.152 6.578-15.187 27.061-11.6 6.462 1.133 11.279 5.066 13.931 11.381 3.964 9.437 2.15 21.66-1.839 28.022a30.3 30.3 0 0 1-1.067 27.755 22.1 22.1 0 0 1-19.384 11.66z" transform="translate(-183.471 307.132)"/>
        </g>
        <g id="그룹_3022" data-name="그룹 3022" transform="translate(115.432 18.469)">
            <path id="패스_7374" data-name="패스 7374" class="cls-11" d="M190.172-291.3s4.149-9.908 16.828-7.213c11.611 2.467 10.738 20.126 6.3 26.695a21.688 21.688 0 0 1-1.032 18.926c-5.426 10.14-20.045 10.5-23.892-2.695" transform="translate(-188.377 298.981)"/>
        </g>
        <g id="그룹_3023" data-name="그룹 3023" transform="translate(100.914 65.514)">
            <path id="패스_7375" data-name="패스 7375" class="cls-2" d="M179.55-246.392s5.558 2.037 9.36-.108a13.343 13.343 0 0 0 6.591-10.2c.405-4.072.837-6.4 3.739-6.557s2.872 6 2.872 6-.755-11.69 11.526-9.789c13.365 2.068 10 45.021-26.454 46.01" transform="translate(-178.433 268.375)"/>
            <path id="패스_7376" data-name="패스 7376" class="cls-3" d="M187.565-219.54a1.118 1.118 0 0 1-1.116-1.086 1.119 1.119 0 0 1 1.087-1.148c21.062-.571 31.612-15.935 32.5-29.968.474-7.5-2.069-13.186-6.187-13.823-3.392-.524-5.985.008-7.713 1.581-2.3 2.1-2.525 5.538-2.534 6.667.008.219.008.375.008.445a1.118 1.118 0 0 1-1.084 1.111 1.1 1.1 0 0 1-1.148-1.045c0-.039-.012-.231-.011-.539-.062-1.479-.427-3.516-1.157-4.21a.676.676 0 0 0-.53-.207c-1.766.1-2.244 1.081-2.689 5.554a14.5 14.5 0 0 1-7.154 11.062c-4.2 2.371-10.046.275-10.292.184a1.114 1.114 0 0 1-.665-1.43 1.117 1.117 0 0 1 1.432-.666c.05.02 5.129 1.829 8.428-.032a12.233 12.233 0 0 0 6.029-9.337c.36-3.61.732-7.344 4.79-7.564a2.886 2.886 0 0 1 2.192.82 3.914 3.914 0 0 1 .624.782 9.247 9.247 0 0 1 2.244-3.232c2.252-2.06 5.473-2.783 9.569-2.148 5.39.833 8.634 7.331 8.074 16.171-.95 15.014-12.2 31.452-34.667 32.06z" transform="translate(-178.814 267.994)"/>
        </g>
        <g id="그룹_3024" data-name="그룹 3024" transform="translate(96.563 82.716)">
            <path id="패스_7377" data-name="패스 7377" class="cls-4" d="M180.956-252.623s9.214 2.948 13.134-3.3c0 0 10.9 18.96 18.953 21.032 0 0-14.9 13.681-31.892 10.324 0 0-9.967-13.169-.2-28.052" transform="translate(-175.578 257.046)"/>
            <path id="패스_7378" data-name="패스 7378" class="cls-3" d="M187.063-222.536a29.7 29.7 0 0 1-5.757-.557 1.118 1.118 0 0 1-.674-.422c-.1-.138-10.325-13.975-.238-29.338a1.118 1.118 0 0 1 1.272-.451c.083.026 8.441 2.6 11.85-2.835a1.027 1.027 0 0 1 .967-.524 1.114 1.114 0 0 1 .946.56c2.97 5.16 12.038 18.9 18.264 20.507a1.119 1.119 0 0 1 .806.811 1.118 1.118 0 0 1-.328 1.093c-.556.51-12.341 11.156-27.108 11.156zm-4.892-2.666c13.137 2.365 25.08-5.822 29.076-8.962-6.752-3.418-14.372-15.237-16.9-19.392-3.87 4.2-10.23 3.159-12.519 2.608a23.5 23.5 0 0 0 .343 25.748z" transform="translate(-175.948 256.664)"/>
        </g>
    </g>
</svg>
